/* XPM */
static char *result[] = {
/* columns rows colors chars-per-pixel */
"64 64 163 2 ",
"   c black",
".  c #0D0A00",
"X  c #0F0D09",
"o  c #110D02",
"O  c #171302",
"+  c #1E1603",
"@  c #1C1802",
"#  c #2B1E01",
"$  c #2F2207",
"%  c #382701",
"&  c #342905",
"*  c #392801",
"=  c #3F2D0A",
"-  c #3D3423",
";  c #443305",
":  c #41370C",
">  c #553B02",
",  c #574304",
"<  c #5B4A07",
"1  c #5D480C",
"2  c #614E0B",
"3  c #6B550B",
"4  c #7F5903",
"5  c #6E4F11",
"6  c #7E5B13",
"7  c #7E6509",
"8  c #5B4E35",
"9  c #805903",
"0  c #84690E",
"q  c #9C6D03",
"w  c #91750F",
"e  c #8E6615",
"r  c #967C15",
"t  c #9A7D10",
"y  c #AA7704",
"u  c #AD7D1A",
"i  c #C67B21",
"p  c #B88104",
"a  c #B18F0D",
"s  c #B6940D",
"d  c #A28211",
"f  c #AF8D11",
"g  c #A08418",
"h  c #BD881D",
"j  c #B59312",
"k  c #998120",
"l  c #C68B04",
"z  c #D49405",
"x  c #CA921D",
"c  c #DB971E",
"v  c #E29E05",
"b  c #E19E1D",
"n  c #CEAA0E",
"m  c #DBB50E",
"M  c #D1AB12",
"N  c #D0AE1F",
"B  c #E2A006",
"V  c #E3A609",
"C  c #E4AB0A",
"Z  c #E6B10D",
"A  c #EABB0F",
"S  c #E4BC0E",
"D  c #E9AD15",
"F  c #E6A31E",
"G  c #E9A41F",
"H  c #EBAB1C",
"J  c #E5AC14",
"K  c #ECB414",
"L  c #E3BB11",
"P  c #EFBB13",
"I  c #EFB31C",
"U  c #E0BB19",
"Y  c #F2BF1B",
"T  c #F1BC14",
"R  c #DE8D23",
"E  c #D99623",
"W  c #DD9F23",
"Q  c #D99729",
"!  c #E29522",
"~  c #E59C20",
"^  c #E19429",
"/  c #E59E33",
"(  c #D6B223",
")  c #E8A322",
"_  c #E5AE22",
"`  c #ECAA24",
"'  c #E8A52B",
"]  c #EEB325",
"[  c #EEB52A",
"{  c #F0B622",
"}  c #FBB526",
"|  c #F5BA20",
" . c #F8B927",
".. c #F1BC2C",
"X. c #E7A335",
"o. c #EAAE34",
"O. c #E8A73F",
"+. c #E4AB39",
"@. c #EFB634",
"#. c #EDB63C",
"$. c #EFBD3D",
"%. c #F2BE33",
"&. c #F0BF39",
"*. c #EDC30E",
"=. c #F1C60D",
"-. c #F4CC08",
";. c #EFC313",
":. c #F1C313",
">. c #F5CF15",
",. c #F5CF1A",
"<. c #F2C51D",
"1. c #F6D01E",
"2. c #E5C128",
"3. c #F5CC25",
"4. c #F2C52B",
"5. c #F3CD2B",
"6. c #F2C323",
"7. c #F7D224",
"8. c #F7D42D",
"9. c #F2C534",
"0. c #F4CC36",
"q. c #F2C23C",
"w. c #F4CA3A",
"e. c #F6D232",
"r. c #F8D533",
"t. c #F6D13C",
"y. c #F9D63C",
"u. c #A78F61",
"i. c #B69C69",
"p. c #E9AB44",
"a. c #ECB344",
"s. c #EFBA41",
"d. c #EDB748",
"f. c #EFBA4F",
"g. c #F1BE42",
"h. c #D5B67B",
"j. c #F4C441",
"k. c #F0CC45",
"l. c #F4C54C",
"z. c #F6CD4C",
"x. c #F6D046",
"c. c #F9D740",
"v. c #FAD942",
"b. c #F7D14C",
"n. c #FADA4B",
"m. c #F3C652",
"M. c #F6CB55",
"N. c #F2C35B",
"B. c #F6CC5C",
"V. c #F7D251",
"C. c #F9D652",
"Z. c #FADB53",
"A. c #F7D159",
"S. c #F8D559",
"D. c #F3C767",
"F. c #F0CD67",
"G. c #F4C969",
"H. c #F6D060",
"J. c #F7D26D",
"K. c #F1CD71",
"L. c #F8D576",
"P. c #FADA7E",
"I. c #F2CF8C",
/* pixels */
"                                                                                                                                ",
"                                                                                                                                ",
"                                                                                                                                ",
"                                                                                                                                ",
"                                                                                                                                ",
"                                                                                                                                ",
"                                                                                                                                ",
"                                                        o % % % % % , 2                                                         ",
"                                                  . 9 z v v v v A -.-.-.-.A <                                                   ",
"                                                # z v v v v C -.-.-.-.-.-.-.-.n O                                               ",
"                                              # z v v v v V -.-.-.-.-.-.-.-.-.-.s                                               ",
"                                            + z v v v B B *.-.-.-.-.-.-.-.-.-.-.,.r                                             ",
"                                            q v v v v v A -.-.-.-.-.-.-.-.-.-.-.8.e..                                           ",
"                                          ; v v v v v V -.-.-.-.-.-.-.-.-.-.-.,.r.r.(                                           ",
"                                          l v v v v v *.-.-.-.-.-.=.K D P -.-.8.r.r.r.;                                         ",
"                                        * v v v v v V -.-.-.-.-.K I I I b b <.8.r.r.r.(                                         ",
"                                        y v v v v v A -.-.-.-.I I I I I I b p.0.r.r.r.8.                                        ",
"                                      . v v v v v v -.-.-.-.I I I I I I I ..a.a.e.r.r.r.g                                       ",
"                                      > v v v v v C -.-.-.=.H P P P P P P 0.w.p.$.r.r.r.2.                                      ",
"                                      q v v v v v A -.-.-.I D -.-.-.-.-.,.r.r.a.p.e.r.r.e.                                      ",
"                                      v v v v v B ;.-.-.:.I D -.-.-.-.-.8.r.r.j.p.s.r.r.r.2                                     ",
"                                    # v v v v v B -.-.-.{ I D -.-.-.-.3.H.B.M.j.a.d.r.r.8.a                                     ",
"                                    > v v v v v C -.-.-.I I D -.-.-.-.r.L.J.m.j.a.p.w.r.>.m                                     ",
"                                    9 v v v v v Z -.-.3.I I D.J.x.-.1.r.w.j.j.j.s.p.j.8.-.*.                                    ",
"                                    y v v v v v A -.-...I I s.N.O.K 8.r.w.j.j.j.j.p.d.>.-.-.                                    ",
"                                    p v v v v v ;.-.-.] I I H K K 6.r.r.w.q.w.j.j.a.p.-.-.-.O                                   ",
"                                    v v v v v v *.-.-.] I I D -.-.r.r.r.r.r.r.j.j.a.^ -.-.-.<                                   ",
"                                    v v v v v v =.-.>.I I I D -.1.r.r.r.r.r.r.j.j.+.i J -.-.7                                   ",
"                                  $ x x x x x x =.-.7.I I I m.9.V.r.r.r.b.V.z.j.j.Q i _ -.-.w                                   ",
"                                  = } } } } } } -.-.8.I I I N.F.A.r.r.r.P.P.M.j.9.F i E -.-.t                                   ",
"                                  = } } } } } } -.-.c.I I I F 8.r.r.r.w.j.j.j.j.{ F i E -.-.j                                   ",
"                                  = } } } } } } -.-.t.I I I [ r.r.r.r.g.j.j.j.&.I F i Q -.-.f                                   ",
"                                  = } } } } } } -.-.y.I I ] q.r.r.r.q.j.j.j.j. .I F i Q -.-.t                                   ",
"                                  ; } } } } } } =.-.v.I I %.q.r.r.w.s.j.j.j.&.I I b i E -.-.w                                   ",
"                                    } } } } } } :.-.y.I { q.S.r.r.0.j.j.j.j.{ I I c i _ -.-.0                                   ",
"                                    } } } } } } -.-.7.I %.j.L.t.r.r.q.j.j.%.I I I c i _ -.-.3                                   ",
"                                    W } } } } } ;.-.7.] j.j.N.g.r.r.w.j.j.{ I I I E R ;.-.-.@                                   ",
"                                    h } } } } } <.-.-.g.j.j.q.p.r.r.w.j.%.I I I I ! R -.-.-.                                    ",
"                                    e } } } } } Y -.-.M.j.j.j.a.w.r.r.w.{ I I I I R X.-.-.*.                                    ",
"                                    5 } } } } } | -.7.S.j.j.j.g.&.r.r.4.I I I I H R @.-.-.L                                     ",
"                                    $ } } } } } { -.r.Z.j.j.j.j.a.r.r.:.I I I I ) R 4.-.-.j                                     ",
"                                      } } } } } } 5.r.y.l.j.j.j.a.0.7.-.I I I I ! ^ -.-.-.1                                     ",
"                                      u.I.I.I.I.I.k.r.r.A.j.j.j.g.q.-.-.T I I I R @.-.-.:.                                      ",
"                                      8 I.I.I.I.I.F.r.r.n.j.j.j.g.o.-.-.=.I I ~ ^ ,.-.-.U                                       ",
"                                      X I.I.I.I.I.I.e.r.r.m.j.j.j.^ 9.w.9.I I R #.-.-.-.u                                       ",
"                                        i.I.I.I.I.I.k.r.r.v.j.j...' L.L.@.I ~ X.,.-.-.-.                                        ",
"                                        - I.I.I.I.I.K.r.r.r.C.j.I { @.[ I G / r.-.-.-.N                                         ",
"                                          h.I.I.I.I.I.0.r.r.r.b.{ I I I ) f.r.-.-.-.-.:                                         ",
"                                          = } } } } }  .r.r.8.-.7.z.z.A.Z.1.-.-.-.-.M                                           ",
"                                            u } } } } } 4.r.1.-.-.-.-.-.-.-.-.-.-.-..                                           ",
"                                            + ` } } } } } 8.-.-.-.-.-.-.-.-.-.-.-.0                                             ",
"                                              $ ` } } }  . .:.-.-.-.-.-.-.-.-.-.d                                               ",
"                                                $ W } } } } } ;.-.-.-.-.-.-.=.d                                                 ",
"                                                  o 6 W } } } } T -.-.-.-.L &                                                   ",
"                                                        o = = = = ; 2 2                                                         ",
"                                                                                                                                ",
"                                                                                                                                ",
"                                                                                                                                ",
"                                                                                                                                ",
"                                                                                                                                ",
"                                                                                                                                ",
"                                                                                                                                ",
"                                                                                                                                ",
"                                                                                                                                "
};
