/* XPM */
static char *result[] = {
/* columns rows colors chars-per-pixel */
"64 64 167 2 ",
"   c #000000",
".  c #0E0A02",
"X  c #100D01",
"o  c #1B1205",
"O  c #1B140C",
"+  c #2E2406",
"@  c #312706",
"#  c #382B07",
"$  c #352409",
"%  c #4E360E",
"&  c #54390A",
"*  c #5D3F0A",
"=  c #5F4009",
"-  c #5E4C0B",
";  c #69460C",
":  c #68510C",
">  c #7B530D",
",  c #654612",
"<  c #614E17",
"1  c #705710",
"2  c #7C5815",
"3  c #634D2B",
"4  c #6D532E",
"5  c #855A0C",
"6  c #82610D",
"7  c #8D600E",
"8  c #876A0D",
"9  c #8A6E0E",
"0  c #9B790F",
"q  c #8E6319",
"w  c #97681B",
"e  c #987613",
"r  c #937312",
"t  c #A46F0E",
"y  c #A46F13",
"u  c #A37017",
"i  c #A1701C",
"p  c #B17C1F",
"a  c #BD820E",
"s  c #AC8913",
"d  c #B08A10",
"f  c #BE9711",
"g  c #C2840F",
"h  c #C7890D",
"j  c #C8890D",
"k  c #D08F0C",
"l  c #D9960B",
"z  c #DE9A0A",
"x  c #C59E13",
"c  c #C59E1E",
"v  c #E29E05",
"b  c #E49C1D",
"n  c #CEA81E",
"m  c #CDA415",
"M  c #D5AB14",
"N  c #D0A81A",
"B  c #DDB214",
"V  c #E3A207",
"C  c #E3A508",
"Z  c #E5AA0B",
"A  c #E6B30D",
"S  c #EABD0F",
"D  c #E9AC15",
"F  c #E7A41A",
"G  c #E9A31F",
"H  c #EAAB1C",
"J  c #ECB414",
"K  c #E5BB12",
"L  c #EEBB13",
"P  c #EFB31C",
"I  c #F0B61B",
"U  c #F3BC1D",
"Y  c #DF8E23",
"T  c #CD9022",
"R  c #C19E26",
"E  c #D99924",
"W  c #E29621",
"Q  c #E59B22",
"!  c #E29529",
"~  c #C9A523",
"^  c #DAB221",
"/  c #E7A124",
"(  c #E9A720",
")  c #EAAB25",
"_  c #F3AD26",
"`  c #EEB223",
"'  c #EFB429",
"]  c #F0B623",
"[  c #FBB526",
"{  c #F5BB23",
"}  c #F1BA2B",
"|  c #E6A138",
" . c #E9AA3E",
".. c #EBAC36",
"X. c #EFB634",
"o. c #ECB03D",
"O. c #EFBC3E",
"+. c #F2BE34",
"@. c #F0BF3A",
"#. c #EEC40E",
"$. c #F2C50C",
"%. c #F4CC08",
"&. c #EEC412",
"*. c #F0C512",
"=. c #F5CE13",
"-. c #F5CF19",
";. c #F6D01E",
":. c #EAC225",
">. c #F2C22B",
",. c #F3CC2C",
"<. c #F7D224",
"1. c #F6D32C",
"2. c #F4C435",
"3. c #F4CD35",
"4. c #F3C33C",
"5. c #F5CA3B",
"6. c #F6D332",
"7. c #F8D533",
"8. c #F6D13D",
"9. c #F8D63A",
"0. c #EAAD45",
"q. c #EAAE49",
"w. c #EDB343",
"e. c #F0BB43",
"r. c #F0BC4B",
"t. c #EDBC56",
"y. c #D3AB6A",
"u. c #DCB472",
"i. c #EDBA61",
"p. c #EFCC47",
"a. c #F4C441",
"s. c #F6CB44",
"d. c #F3C74F",
"f. c #F6CB4C",
"g. c #F5D041",
"h. c #F8D045",
"j. c #F9D842",
"k. c #F7D24B",
"l. c #F8D34F",
"z. c #FADB4A",
"x. c #EFCB50",
"c. c #F3C452",
"v. c #F8CF55",
"b. c #F3C359",
"n. c #F7D251",
"m. c #FAD752",
"M. c #F7D25A",
"N. c #F9D55D",
"B. c #FCDE5D",
"V. c #FBDC51",
"C. c #F3C763",
"Z. c #F6CF6C",
"A. c #F6D060",
"S. c #FAD561",
"D. c #FBD964",
"F. c #F7D16E",
"G. c #F6CF70",
"H. c #F6D071",
"J. c #F8D476",
"K. c #FCDD73",
"L. c #FADA7E",
"P. c #FDE069",
"I. c #FDE176",
"U. c #FEE479",
"Y. c #EFCA86",
"T. c #F1CE87",
"R. c #F2CF8C",
/* pixels */
"                                                                                                                                ",
"                                                                                                                                ",
"                                                                                                                                ",
"                                                                                                                                ",
"                                                                                                                                ",
"                                                                                                                                ",
"                                                                                                                                ",
"                                                          $ * * = 6 0 0 9 -                                                     ",
"                                                . > g l v v A S $.%.%.%.%.%.%.#.x +                                             ",
"                                              t z v v v A %.%.%.%.%.%.%.%.%.%.%.%.%.K +                                         ",
"                                          & l v v v v $.%.%.%.%.%.%.%.%.%.%.%.%.%.%.%.$.d                                       ",
"                                        5 v v v v C %.%.%.%.%.%.%.%.%.%.%.%.%.%.%.%.%.%.;.^                                     ",
"                                      y v V v v Z %.%.%.%.%.%.%.%.%.%.%.%.%.%.%.%.%.%.-.7.7.:..                                 ",
"                                    7 v v v v Z %.%.%.%.%.%.%.%.%.%.%.$.$.%.%.%.%.%.=.1.7.7.7.:.                                ",
"                                  ; v v v v C $.%.%.%.%.%.%.%.%.J b Y Q Y Y b D $.%.1.7.7.7.7.7.n                               ",
"                                o v v v v v &.%.%.%.%.%.%.%.D Q P P P P P P G Q Y X.6.6.7.7.7.7.6.1                             ",
"                                h v v v v A %.%.%.%.%.%.%.( ] P P P P I P P I P +.0.w.3.7.7.7.7.7.,.                            ",
"                              ; v v v v V $.%.%.%.%.%.$._ I I I P P P I P P P } a.a.w.q.3.7.7.7.7.7.n                           ",
"                              j v v v v S %.%.%.%.%.%.] I H L L L L L L L L U 5.5.5.5.w.0.3.7.7.7.7.3..                         ",
"                            ; z v v v V %.%.%.%.%.%.} P Q D %.%.%.%.%.%.%.%.6.7.6.6.7.a.w.w.7.7.7.7.7.m                         ",
"                            j v v v v A %.%.%.%.%.2.P P W D %.%.%.%.%.%.%.1.7.7.7.7.7.a.a.0.4.7.7.7.7.<.                        ",
"                          . v v v v v #.%.%.%.%.;.] P P W D %.%.%.%.%.%.<.8.A.A.A.A.d.a.a.e.0.6.7.7.7.=.:                       ",
"                          > v v v v V %.%.%.%.%.4.P P P W I %.%.%.%.%.<.7.7.F.F.H.Z.a.a.a.a.w.4.7.7.-.%.M                       ",
"                          a v v v v A %.%.%.%.1.P P P I ..G.J.v.l.*.-.6.7.7.5.a.a.a.a.a.a.a.e.w.7.<.%.%.#.                      ",
"                          z v v v v S %.%.%.%.5.] P P P ] r.t.C.0.Q 6.7.7.7.5.a.a.a.a.a.a.a.a.q.,.%.%.%.%.X                     ",
"                        o v v v v v #.%.%.%.=.} I P P P H H L L D @.7.7.7.7.3.5.4.5.s.a.a.a.a.o.J %.%.%.%.8                     ",
"                        ; v v v v V $.%.%.%.8.P P P P P W D %.%.1.7.7.7.7.7.7.7.7.7.7.a.a.a.4.) F %.%.%.%.f                     ",
"                        5 v v v v C %.%.%.%.h.P P P P P W D %.<.7.7.7.7.7.7.7.7.7.7.7.a.a.a.[ H b %.%.%.%.B                     ",
"                        u G G G F H %.%.%.%.s.I P P P P w.r.s.n.m.h.7.7.7.7.g.n.z.m.f.a.a.} P P b %.%.%.%.K                     ",
"                        p [ [ [ [ U %.%.%.%.f.P P P P P X.C.G.G.M.8.7.7.7.7.K.L.T.G.a.a.+.P P P W %.%.%.%.&.                    ",
"                        p [ [ [ [ U %.%.%.;.2.I P P P P / @.7.7.7.7.7.7.7.5.a.a.a.a.a.@.I P I P b %.%.%.%.#.                    ",
"                        p [ [ [ [ U %.%.%.<.+.I P P P I 0.4.7.7.7.7.7.7.6.e.a.a.a.a.@.P P P I H W %.%.%.%.&.                    ",
"                        p [ [ [ [ U %.%.%.<.+.P P P I 2.w.@.7.7.7.7.7.5.w.a.a.a.a.a.` P P P P P Q %.%.%.%.&.                    ",
"                        p [ [ [ [ [ %.%.%.<.f.P P P +.a.q.4.7.7.7.7.@.w.a.a.a.a.a.} P P P P P P G %.%.%.%.K                     ",
"                        i [ [ [ [ [ %.%.%.=.f.P P ' a.a.b.N.7.7.7.7.4.a.a.a.a.a.} P P P P P P P D %.%.%.%.B                     ",
"                        , [ [ [ [ [ %.%.%.%.N.I ] a.a.a.d.L.l.6.7.7.7.a.a.a.a.+.P P P P P P P P J %.%.%.%.x                     ",
"                        $ [ [ [ [ [ $.%.%.%.B.] 4.a.a.a.a.C.q.3.7.7.6.8.a.a.4.I P P P P P P P ' #.%.%.%.%.r                     ",
"                          [ [ [ [ [ *.%.%.%.z.a.a.a.a.a.a.a.q.@.7.7.6.7.a.4.] I P P P P P P P ( %.%.%.%.%..                     ",
"                          T [ [ [ [ U %.%.%.j.N.a.a.a.a.a.a.e.0.3.7.7.7.5.] I P P P P P P P P J %.%.%.%.$.                      ",
"                          q [ [ [ [ [ %.%.;.9.I.a.a.a.a.a.a.4.q.@.7.7.6.-.I P P P P P P P P ' %.%.%.%.%.M                       ",
"                          o [ [ [ [ [ $.;.7.7.B.M.a.a.a.a.a.a.e.0.3.7.<.%.$.I P P P P P P P I %.%.%.%.%.-                       ",
"                            E [ [ [ [ { 1.7.7.9.I.a.a.a.a.a.a.a.q.@.1.%.%.%.I P P P P I P [ %.%.%.%.%.*.                        ",
"                            3 R.R.R.R.R.9.7.7.7.B.S.a.a.a.a.a.a.w. .%.%.%.%.$.P P P P P I *.%.%.%.%.%.R                         ",
"                              u.R.R.R.R.p.7.7.7.7.U.f.a.a.a.a.a.4.! D %.%.%.%.I P P P P >.%.%.%.%.%.=.                          ",
"                              3 R.R.R.R.T.6.6.6.7.j.U.f.a.a.a.4.[ / W } 8.g.5.P P P I 5.%.%.%.%.%.%.~                           ",
"                                y.R.R.R.R.x.7.7.7.7.j.U.f.a.a.} P P | J.J.J.r.P P P 2.%.%.%.%.%.%.*.                            ",
"                                O Y.R.R.R.R.6.6.7.7.7.j.U.S.+.P P P ' X.X.' P P } 8.%.%.%.%.%.%.$.<                             ",
"                                  4 i.i.i.i.t.1.7.7.7.7.7.B.I.f.] P P P P P 2.l.<.%.%.%.%.%.%.%.~                               ",
"                                    w [ [ [ [ [ 9.7.7.7.9.%.%.9.B.P.D.D.V.V.<.%.%.%.%.%.%.%.%.&.                                ",
"                                      i [ [ [ [ >.7.7.1.%.%.%.%.%.%.%.%.%.%.%.%.%.%.%.%.%.%.K                                   ",
"                                        q [ [ [ [ { 1.-.%.%.%.%.%.%.%.%.%.%.%.%.%.%.%.%.%.B                                     ",
"                                          % _ [ [ [ [ *.%.%.%.%.%.%.%.%.%.%.%.%.%.%.%.%.s                                       ",
"                                              s _ [ [ [ { $.%.%.%.%.%.%.%.%.%.%.%.%.M O                                         ",
"                                                  2 T _ [ [ { *.$.%.%.%.%.%.$.&.m #                                             ",
"                                                          $ , , , , 2 0 :                                                       ",
"                                                                                                                                ",
"                                                                                                                                ",
"                                                                                                                                ",
"                                                                                                                                ",
"                                                                                                                                ",
"                                                                                                                                ",
"                                                                                                                                ",
"                                                                                                                                ",
"                                                                                                                                "
};
