/* XPM */
static char *result[] = {
/* columns rows colors chars-per-pixel */
"64 64 27 1 ",
"  c black",
". c #372805",
"X c #7D590A",
"o c #E29F07",
"O c #E29E05",
"+ c #E19E09",
"@ c #90660B",
"# c #684909",
"$ c #513907",
"% c #775512",
"& c #FBB526",
"* c #715111",
"= c #7F5B14",
"- c #785612",
"; c #92712F",
": c #F5C76E",
"> c #8A6A2B",
", c #7C6436",
"< c #F2CF8C",
"1 c #755E31",
"2 c #846A38",
"3 c #7E6533",
"4 c #6E4F11",
"5 c #553E0D",
"6 c #FAB426",
"7 c #856014",
"8 c #F2AF25",
/* pixels */
"                                                                ",
"                                                                ",
"                                                                ",
"                                                                ",
"                                                                ",
"                                                                ",
"                                                                ",
"                               ..                               ",
"                             XoOO+X                             ",
"                            @OOOOOOX                            ",
"                            oOOOOOOo                            ",
"                           #OOOOOOOO$                           ",
"                           #OOOOOOOO#                           ",
"                           #OOOOOOOO#                           ",
"                           #OOOOOOOO#                           ",
"                           #OOOOOOOO#                           ",
"                           #OOOOOOOO#                           ",
"                           #OOOOOOOO#                           ",
"                           #OOOOOOOO#                           ",
"                           #OOOOOOOO#                           ",
"                           #OOOOOOOO#                           ",
"                           #OOOOOOOO#                           ",
"                           #OOOOOOOO#                           ",
"                           #OOOOOOOO#                           ",
"                           #OOOOOOOO#                           ",
"                           #OOOOOOOO#                           ",
"                           #OOOOOOOO#                           ",
"                           #OOOOOOOO#                           ",
"                           %&&&&&&&&*                           ",
"                           =&&&&&&&&-                           ",
"                           =&&&&&&&&-                           ",
"                           =&&&&&&&&-                           ",
"                           =&&&&&&&&-                           ",
"                           =&&&&&&&&-                           ",
"                           =&&&&&&&&-                           ",
"                           =&&&&&&&&-                           ",
"                           =&&&&&&&&-                           ",
"                           =&&&&&&&&-                           ",
"                           =&&&&&&&&-                           ",
"                           =&&&&&&&&-                           ",
"                           =&&&&&&&&-                           ",
"                           =&&&&&&&&-                           ",
"                           ;::::::::>                           ",
"                           ,<<<<<<<<1                           ",
"                           ,<<<<<<<<1                           ",
"                           ,<<<<<<<<1                           ",
"                           ,<<<<<<<<1                           ",
"                           2&&&&&&&&3                           ",
"                           4&&&&&&&&4                           ",
"                           4&&&&&&&&4                           ",
"                           4&&&&&&&&5                           ",
"                            6&&&&&&6                            ",
"                            7&&&&&&4                            ",
"                             48&&84                             ",
"                                                                ",
"                                                                ",
"                                                                ",
"                                                                ",
"                                                                ",
"                                                                ",
"                                                                ",
"                                                                ",
"                                                                ",
"                                                                "
};
