/* XPM */
static char *result[] = {
/* columns rows colors chars-per-pixel */
"64 64 152 2 ",
"   c #000000",
".  c #0A0700",
"X  c #0C0A01",
"o  c #130E00",
"O  c #171000",
"+  c #1D1401",
"@  c #211701",
"#  c #241A01",
"$  c #2B1E01",
"%  c #322401",
"&  c #382701",
"*  c #332B04",
"=  c #392801",
"-  c #422E01",
";  c #453203",
":  c #4C3502",
">  c #533A02",
",  c #564406",
"<  c #5C4002",
"1  c #5F4F08",
"2  c #634502",
"3  c #6A4B03",
"4  c #614F08",
"5  c #704F02",
"6  c #635008",
"7  c #6F5808",
"8  c #765503",
"9  c #795403",
"0  c #7D5803",
"q  c #7A610D",
"w  c #8A6707",
"e  c #826A0B",
"r  c #956903",
"t  c #9C6D03",
"y  c #96770A",
"u  c #A77404",
"i  c #AA7704",
"p  c #AE7904",
"a  c #B37D04",
"s  c #A78A0D",
"d  c #B88104",
"f  c #B58F0E",
"g  c #BE8D0B",
"h  c #BC9A0E",
"j  c #AA8A13",
"k  c #C48A04",
"l  c #CF9409",
"z  c #CC9C0C",
"x  c #D59505",
"c  c #D99806",
"v  c #D59C0D",
"b  c #E29E05",
"n  c #E59E1D",
"m  c #CCA60E",
"M  c #CDA80E",
"N  c #DDA008",
"B  c #D3AD0F",
"V  c #D8AB0D",
"C  c #DCB50E",
"Z  c #DEB80E",
"A  c #DAA612",
"S  c #D7B01B",
"D  c #E3A107",
"F  c #E3A509",
"G  c #E5AC0B",
"H  c #E6B20D",
"J  c #E8B70E",
"K  c #E6BD0E",
"L  c #EBBD0F",
"P  c #F0BF0F",
"I  c #E9AC16",
"U  c #E6A21B",
"Y  c #E9A61F",
"T  c #EBAA1E",
"R  c #EDB514",
"E  c #EDB911",
"W  c #EFB31C",
"Q  c #E0B91C",
"!  c #EEB81E",
"~  c #F0BF17",
"^  c #DF8E23",
"/  c #E29521",
"(  c #E59C21",
")  c #E7A022",
"_  c #EBAA23",
"`  c #E7A32E",
"'  c #EFB421",
"]  c #EEBB23",
"[  c #EEB32A",
"{  c #F0B623",
"}  c #F0BC27",
"|  c #F1BA2A",
" . c #EEB434",
".. c #EFBD3E",
"X. c #F2BE33",
"o. c #F0BD3F",
"O. c #EDC40D",
"+. c #F1C50C",
"@. c #F4CC08",
"#. c #E8C011",
"$. c #EBC31D",
"%. c #F4CD12",
"&. c #F1C11E",
"*. c #F5CF18",
"=. c #F6D11E",
"-. c #E7C123",
";. c #EDC323",
":. c #F2CB25",
">. c #F4CD2B",
",. c #F6D224",
"<. c #F6D32C",
"1. c #F3C134",
"2. c #F5CB36",
"3. c #F3C33D",
"4. c #F5CB39",
"5. c #F7D333",
"6. c #F8D533",
"7. c #F6D03F",
"8. c #F8D73A",
"9. c #EAAC45",
"0. c #EDB443",
"q. c #EEB942",
"w. c #ECB24D",
"e. c #F1BE42",
"r. c #F0BC4B",
"t. c #F1BF50",
"y. c #F4C441",
"u. c #F6CB44",
"i. c #F4C549",
"p. c #F6CB4A",
"a. c #F7D342",
"s. c #FAD945",
"d. c #FAD64D",
"f. c #FADB49",
"g. c #F4C651",
"h. c #F7CC51",
"j. c #F8D052",
"k. c #FADB54",
"l. c #FCDE5C",
"z. c #F3C761",
"x. c #F5CA61",
"c. c #F5CC68",
"v. c #FAD561",
"b. c #FAD865",
"n. c #FBDA69",
"m. c #F8D476",
"M. c #FCDE71",
"N. c #FADA7E",
"B. c #FCE066",
"V. c #FDE26C",
"C. c #FEE274",
"Z. c #FEE47A",
/* pixels */
"                                                                                                                                ",
"                                                                                                                                ",
"                                                                                                                                ",
"                                                                                                                                ",
"                                                                                                                                ",
"                                                                                                                                ",
"                                                                                                                                ",
"                                                                                                                                ",
"                                                  % y M O.O.+.O.O.O.L z w ; o                                                   ",
"                                            , B O.@.@.@.@.@.@.@.@.@.@.@.@.@.L z 2 o                                             ",
"                                        7 K @.@.@.@.@.@.@.@.@.@.@.@.@.@.@.@.@.@.O.G 0 o                                         ",
"                                    $ C @.@.@.@.@.@.@.@.@.@.@.@.@.@.@.@.@.@.@.@.@.@.%.A >                                       ",
"                                  e @.@.@.@.@.@.@.@.@.@.@.@.@.@.@.@.@.@.@.@.@.@.@.%.6.6.;.r                                     ",
"                              X M @.@.@.@.@.@.@.@.@.@.@.@.@.@.@.@.@.@.@.@.@.@.@.%.6.6.6.6.<.g o                                 ",
"                            X Z @.@.@.@.@.@.@.@.@.@.@.+.I I n n U I I J @.@.@.*.<.6.6.6.6.6.<.z +                               ",
"                            C @.@.@.@.@.@.@.@.@.+.I n U Y T T T Y ) ( ^ ^ U &.6.6.6.6.6.6.6.6.5.v #                             ",
"                          m @.@.@.@.@.@.@.@.+.I _ W W W W W W W W W W W Y ` 9.q.2.5.6.6.6.6.6.6.<.l @                           ",
"                        e @.@.@.@.@.@.@.@.+.[ W W W W W W W W W W W W W | y.e.9.9.o.6.6.6.6.6.6.6.:.p                           ",
"                      * @.@.@.@.@.@.@.@.} W W W W W W W W W W W W W W | y.y.y.y.e.9...2.6.6.6.6.6.6.] 3                         ",
"                      K @.@.@.@.@.@.@.} W W @.@.@.@.@.@.@.@.@.@.@.@.,.6.6.6.6.3.e.e.9.0.6.6.6.6.6.6.6.N +                       ",
"                    s @.@.@.@.@.@.@.1.W W W @.@.@.@.@.@.@.@.@.@.@.,.5.6.5.6.6.e.y.y.e.9.o.5.6.6.6.6.6.:.p                       ",
"                    O.@.@.@.@.@.@.2.W W W W @.@.@.@.@.@.@.@.@.@.<.a.a.7.7.7.7.q.y.y.y.e.9.3.6.6.6.6.6.=.F %                     ",
"                  4 @.@.@.@.@.@.>.W W W W W @.@.@.@.@.@.@.@.@.<.2.N.N.N.N.N.N.z.y.y.y.y.0.9.6.6.6.6.*.@.L r                     ",
"                  B @.@.@.@.@.*.| W W W W W u.7.a.>.@.@.@.@.<.6.5.i.g.g.g.g.g.i.y.y.y.y.3.9.o.6.6.=.@.@.@.c o                   ",
"                o @.@.@.@.@.@.u.W W W W W W r.m.m.m./ R @.<.6.6.6.3.y.y.y.y.y.3.y.y.y.y.y.q.9.6.*.@.@.@.@.H 2                   ",
"                1 @.@.@.@.@.,.| W W W W W W W W W [ Y n <.6.6.6.6.2.y.y.y.y.y.y.y.y.y.y.y.y.9.} @.@.@.@.@.O.r                   ",
"                h @.@.@.@.@.d.W W W W W W W +.@.@.@.@.<.6.6.6.6.6.6.6.6.6.6.6.y.y.y.y.y.y.3.( n @.@.@.@.@.+.k                   ",
"                Z @.@.@.@.@.u.W W W W W W W @.@.@.@.6.6.6.6.6.6.6.6.6.6.6.6.6.o.y.y.y.y.3.{ _ ^ @.@.@.@.@.@.b o                 ",
"                O.@.@.@.@.<.X.W W W W W W W %.@.%.6.6.6.6.6.6.6.6.6.6.6.6.6.6.e.y.y.y.3.{ W W ^ @.@.@.@.@.@.G =                 ",
"                @.@.@.@.@.s.W W W W W W W W c.m.N.N.M.7.6.6.6.6.6.r.N.N.N.N.N.c.y.y.3.{ W W W / P @.@.@.@.@.G >                 ",
"                @.@.@.@.@.l.W W W W W W W W ] p.u.4.6.6.6.6.6.6.4.9.h.c.x.x.z.g.3.3.{ W W W W / P @.@.@.@.@.H <                 ",
"                @.@.@.@.@.k.W W W W W W W | 6.6.6.6.6.6.6.6.6.5.9.q.y.y.y.y.y.y.o.W W W W W W / P @.@.@.@.@.H 3                 ",
"                @.@.@.@.@.l.W W W W W W | y.6.6.6.6.6.6.6.6.2.9.9.y.y.y.y.y.y.3.{ W W W W W W / E @.@.@.@.@.G 3                 ",
"                @.@.@.@.@.l.W W W W W | y.3.6.6.6.6.6.6.2.q.9.9.e.y.y.y.y.y.3.W W W W W W W W / @.@.@.@.@.@.G <                 ",
"                O.@.@.@.@.l.{ W W W [ y.y.3.6.6.6.6.6.6.q.9.q.y.y.y.y.y.y.X.W W W W W W W W W n @.@.@.@.@.@.F :                 ",
"                C @.@.@.@.f.X.W W X.y.y.y.y.q.5.6.6.6.6.2.3.y.y.y.y.y.y.X.W W W W W W W W W W Y @.@.@.@.@.@.b $                 ",
"                h @.@.@.@.6.j.W X.y.y.y.y.y.0.q.5.6.6.6.6.4.y.y.y.y.y.X.W W W W W W W W W W _ E @.@.@.@.@.@.b .                 ",
"                4 @.@.@.@.%.C.1.y.y.y.y.y.y.y.q.3.6.6.6.6.6.y.y.y.y.X.W W W W W W W W W W W Y @.@.@.@.@.@.P p                   ",
"                  @.@.@.@.@.V.p.y.y.y.y.y.y.y.y.q.5.6.6.6.6.5.3.y.X.W W W W W W W W W W W W R @.@.@.@.@.@.G 5                   ",
"                  B @.@.@.,.k.V.y.y.y.y.y.y.y.y.y.q.6.6.6.6.6.3.| W W W W W W W W W W W W _ @.@.@.@.@.@.@.b $                   ",
"                  6 @.%.<.6.6.Z.h.y.y.y.y.y.y.y.3.y.3.5.6.6.6.*.R W W W W W W W W W W W W +.@.@.@.@.@.@.L d                     ",
"                    #.<.6.6.6.s.Z.y.y.y.y.y.y.y.y.y.q.5.6.6.*.@.+.W W W W W W W W W W W W @.@.@.@.@.@.@.F >                     ",
"                    q 6.6.6.6.6.B.n.y.3.y.y.y.y.y.y.y.o.6.*.@.@.@.R W W W W W W W W W | @.@.@.@.@.@.@.E k                       ",
"                      -.6.6.6.6.6.C.v.y.y.y.y.y.y.y.y.e.~ @.@.@.@.@.R W W W W W W W | @.@.@.@.@.@.@.@.D >                       ",
"                      ; <.6.6.6.6.8.C.b.y.y.y.y.y.y.y.{ ( @.@.@.@.@.:.W W W W W W X.@.@.@.@.@.@.@.@.H u                         ",
"                        j 6.6.6.6.6.8.V.M.y.y.y.y.3.{ W W w.m.m.m.m.m.{ W W W W 2.@.@.@.@.@.@.@.@.O.x O                         ",
"                          S 6.6.6.6.6.6.l.Z.v.y.3.{ W W W  .r.r.r.r.r.W W W 3.6.@.@.@.@.@.@.@.@.@.F =                           ",
"                            $.6.6.6.6.6.6.8.B.Z.p.| W W W W W W W W W { 3.8.%.@.@.@.@.@.@.@.@.@.F 2                             ",
"                            O $.6.6.6.6.6.6.<.=.8.B.C.j.p.u.X.y.p.p.f.6.%.@.@.@.@.@.@.@.@.@.@.F 9                               ",
"                              X Q 6.6.6.6.<.@.@.@.@.@.,.,.6.6.,.=.@.@.@.@.@.@.@.@.@.@.@.@.O.F 2                                 ",
"                                  f <.6.<.@.@.@.@.@.@.@.@.@.@.@.@.@.@.@.@.@.@.@.@.@.@.@.E c ;                                   ",
"                                    3 ;.@.@.@.@.@.@.@.@.@.@.@.@.@.@.@.@.@.@.@.@.@.@.O.G p $                                     ",
"                                      . w K @.@.@.@.@.@.@.@.@.@.@.@.@.@.@.@.@.@.O.H a ;                                         ",
"                                          . 2 V @.@.@.@.@.@.@.@.@.@.@.@.@.@.E F t -                                             ",
"                                                @ 8 z H L L L L L L L H N t > .                                                 ",
"                                                      . # & & = & & % +                                                         ",
"                                                                                                                                ",
"                                                                                                                                ",
"                                                                                                                                ",
"                                                                                                                                ",
"                                                                                                                                ",
"                                                                                                                                ",
"                                                                                                                                ",
"                                                                                                                                "
};
