/* XPM */
static char *result[] = {
/* columns rows colors chars-per-pixel */
"64 64 223 2 ",
"   c #040204",
".  c #0A0407",
"X  c #04050B",
"o  c #05080D",
"O  c #0B0A0D",
"+  c #190C0D",
"@  c #16110E",
"#  c #0D0E13",
"$  c #080D17",
"%  c #120E14",
"&  c #0E1115",
"*  c #0D131A",
"=  c #0B171A",
"-  c #111116",
";  c #1C1213",
":  c #14141B",
">  c #19161E",
",  c #15191F",
"<  c #1D1A1A",
"1  c #27090A",
"2  c #2B110E",
"3  c #231313",
"4  c #2B1515",
"5  c #281A1C",
"6  c #3D1516",
"7  c #341B1B",
"8  c #3B1D1D",
"9  c #3A2B19",
"0  c #000D29",
"q  c #0B1727",
"w  c #171720",
"e  c #191720",
"r  c #171820",
"t  c #1B1C25",
"y  c #1D1E28",
"u  c #041538",
"i  c #211820",
"p  c #381F20",
"a  c #0B2F2F",
"s  c #132224",
"d  c #192527",
"f  c #1E202A",
"g  c #162B2C",
"h  c #1B2C2D",
"j  c #182D34",
"k  c #0D3234",
"l  c #163436",
"z  c #1B3334",
"x  c #1D3A3A",
"c  c #222224",
"v  c #21222C",
"b  c #292829",
"n  c #3C2428",
"m  c #233434",
"M  c #293738",
"N  c #313334",
"B  c #393738",
"V  c #480B0F",
"C  c #530101",
"Z  c #471D1E",
"A  c #541312",
"S  c #720F0C",
"D  c #6A1416",
"F  c #761619",
"G  c #4C221E",
"H  c #442323",
"J  c #4C2424",
"K  c #4F2929",
"L  c #522626",
"P  c #532A2A",
"I  c #5A2D2D",
"U  c #5D3437",
"Y  c #79282B",
"T  c #63302F",
"R  c #643232",
"E  c #6B3535",
"W  c #703737",
"Q  c #753A3A",
"!  c #7C3E3E",
"~  c #644522",
"^  c #001A56",
"/  c #1A3944",
"(  c #122C55",
")  c #3C3C40",
"_  c #03266E",
"`  c #1B386C",
"'  c #002577",
"]  c #273E6D",
"[  c #683F43",
"{  c #1B4345",
"}  c #165554",
"|  c #224344",
" . c #274949",
".. c #254B4A",
"X. c #3A4447",
"o. c #245453",
"O. c #2B5555",
"+. c #295C57",
"@. c #2D5D5D",
"#. c #375556",
"$. c #315D5E",
"%. c #31615B",
"&. c #2E5668",
"*. c #1E6666",
"=. c #2C6363",
"-. c #2A6767",
";. c #326463",
":. c #386766",
">. c #346B6B",
",. c #3A6D6B",
"<. c #386F70",
"1. c #267677",
"2. c #357272",
"3. c #3B7474",
"4. c #3B7678",
"5. c #347B7B",
"6. c #3C7C7C",
"7. c #474B4C",
"8. c #5B4643",
"9. c #5A595A",
"0. c #7F4040",
"q. c #6D4F52",
"w. c #456869",
"e. c #497676",
"r. c #417E7E",
"t. c #597A7A",
"y. c #606061",
"u. c #6B6B6B",
"i. c #74736D",
"p. c #747676",
"a. c #8E0B14",
"s. c #86151D",
"d. c #B90000",
"f. c #AD1A10",
"g. c #8C2F0D",
"h. c #AF2F16",
"j. c #B6291E",
"k. c #961B25",
"l. c #AA1928",
"z. c #B81D2C",
"x. c #833131",
"c. c #96393E",
"v. c #A82422",
"b. c #BA212E",
"n. c #AA2836",
"m. c #DE2E24",
"M. c #C22132",
"N. c #D92934",
"B. c #AC3142",
"V. c #D23748",
"C. c #834141",
"Z. c #8B4646",
"A. c #8F4848",
"S. c #924A4A",
"D. c #9A4E4E",
"F. c #885A5C",
"G. c #9E5050",
"H. c #985B52",
"J. c #A54349",
"K. c #A15252",
"L. c #BC525F",
"P. c #A65F63",
"I. c #8B7071",
"U. c #A06E6C",
"Y. c #C5535F",
"T. c #E24758",
"R. c #EA5E6D",
"E. c #F55768",
"W. c #42817C",
"Q. c #83807F",
"!. c #09348C",
"~. c #0A3CAA",
"^. c #1745A8",
"/. c #0D46B9",
"(. c #2E57A6",
"). c #1552CF",
"_. c #2C5FC3",
"`. c #1B5DE3",
"'. c #2066F1",
"]. c #2E76FC",
"[. c #3C8383",
"{. c #438484",
"}. c #478985",
"|. c #458C8C",
" X c #498E8E",
".X c #429191",
"XX c #4B9494",
"oX c #499898",
"OX c #4E9A9A",
"+X c #519D9D",
"@X c #698B8B",
"#X c #799595",
"$X c #539FA0",
"%X c #55A3A3",
"&X c #57A9A9",
"*X c #5AABAB",
"=X c #5CB0B0",
"-X c #848484",
";X c #888888",
":X c #9F8A81",
">X c #859E9E",
",X c #979999",
"<X c #AC938F",
"1X c #B1A39F",
"2X c #9BA5A5",
"3X c #91B0B0",
"4X c #A6A9A9",
"5X c #B0B2B0",
"6X c #B7BABA",
"7X c #B7C5C5",
"8X c #C5C5C5",
"9X c #C3C9C9",
"0X c #CCCCCC",
"qX c #CCD5D5",
"wX c #D8D8D8",
"eX c #DAE7D8",
"rX c #E4E4E4",
"tX c #E7E8E8",
"yX c #EBECEC",
"uX c #F3F3EA",
"iX c #F3F4F4",
"pX c #F8FDF7",
"aX c #FEFEFD",
/* pixels */
"y y y y y y t t t y t t y y y y y y y y y y t y y t t f t y y y y y t y t y t y y y r y y y y y y y y y t t f y t f t y y t t y ",
"y r - - - - - : - - - w y y r y y y t t w > > w > > : > > > t y y r : - - - - - - - : w t y y y y r t y t : > : > > w w > > t y ",
"y w # % % & - & - - : y y y y y y y y y r > - - & & & - - & r y y r # - - # - % % & : y y y y y y y y y y > - & & & - - - # r y ",
"y r & : : : : - : w y y t t t y f r r t y y w - : : - > - & t t y r - - > : : : : w y f y r r y y r r y y r > : - : : : - & t y ",
"y r - : > > : > r y y y w # : y f > # w y y y w : w : > - & t y y - - : : : : > r y y y > # : y y w # > t f y > : : > : : - t t ",
"y , - - > - > r y y y w # # : y f r # # w y y t w : : : : - r y y # # : : : : r y y y r # # , y y r # # r y y y r : : : : - t y ",
"y w - : : : r y y y r # # - w y y r - % $ w y y f t : > w - t f y #   : > w r t f y r # # - , y y r : % # r y y y t > : : - r t ",
"y w - : : r y y y r # % : - w y y r - : - # w t w w * $ $ o * t t : 4 % : r y f t > # % : - w y y r - : # # r y y t r : : & t f ",
"y r - - r y y y r # & > - - r y f t & $ $ o + 5 H P I T I P H 5 : o 7 H $ t t t w O % : : - r y y t - : : & # r y y y r : - r y ",
"y r - > y y y w # - : : : & r y t * O 8 T Q C.J.S.A.A.A.A.A.S.Z.C.E I Q p 5 n 5   o - > : - r y y r - - > : % # t y y y w - r y ",
"y r > y y y r # % - : : - - r r 3 I 0.C.Z.A.C.[ 0.0.[ c.! Q Q Q Q C.C.E ! E 8 O $ > : > - - , y y t - : : - - & # w y y t > t y ",
"f r y f y r # - : > > : > & w # U C.! Q Q ~ C.C.C.C.C.C.C.0.! ! Q W E W E T K 4 # - : : : - r y t r - : : > > : # # w y f f t y ",
"y y y y > # # - : - : : & O ; p R W Q Q ! ! 0.0.C.C.0.0.! ! Q Q Q Q x.0.Z.H.C.H . O : : - - r f f r & - : : - > - # # r t f y y ",
"y y y r # # - - - - - - # X 8 R W 0.0.0.! ! 0.0.C.C.C.C.Z.Z.S.Z.S.G.Q E K.S.W 2 o : - - - % r t y t & - : - - - - - # # r f y y ",
"y y y r : , r > r r r , : % J C.G.G.G.D.D.D.D.D.D.G.C.S.G.K.Z.E G.Q J U [ R R E 3 : r , r r t y y y r r r r r r r t r w r y t y ",
"y y y f y y y y y y % O 7 I ! C.Z.C.S.D.S.D.G.D.S.G.P E G.Z.P P R K J K T R R E J - f y y y y y y y y y y y f y f f f y y y y y ",
"y y y y y y t y t y -   7 R ! Q R R E E T Q ! I R E K P R P P P J 3 8 K T I T R R 5 t f y f y y y y y y t t y t t t t t y y y y ",
"y t y r w - - - > > , # 4 I R R R I R I P R I P P I L J P J 7 J 5 # . H I K U R R 4 & r : > r y y r w w > w w > : - : r t t t y ",
"y y y y r : - % - - & O 3 R ! E I K I H J I L Z P G < 7 Z c < 5 2.;.h G P K T I R 8 o - - - r f v r # - - - # & & # : t y y y y ",
"y y t y y t : > : - X + J I T T P J J @ 8 G c d 6 m |.m  .XXz W.%X+XN 6 @ J I I R H # : - - , y y r - - : : : : > w r y y y y y ",
"t r : t f y y r > : : - X 4 W I 8 + 5 >.; m oX$.m %X*XXX&XOX X&X+XoXh o.g Z P K R J # : - - t y y r - : > : > : t t y f t w w t ",
"f r & > t f y t , : : > & H T Z M @.;.%X4.OX&X+X%X*X*X=X*X*X&X+X%X6. .3.b G P K R J # > : - r f f r - : : : : r t y f t w # r t ",
"y r - - w r y y t r : : % 7 7 Z @.%X+X+X%X%X%X&X*X*X*X*X*X*X&X%X}.:.M -.m 2 H K I 8 $ : : - r y y t - : : : r t y y t : - - r t ",
"y r - - : > y y f t r - . o % 6 $.%X:.XX%X%X%X%X&X*X*X*X*X*X%X X[.}.r.oXb O n I K 4 - , : - t y y r - : > w t y y t > - : & t y ",
"y r - - : - > t y y t , - : & 4 O.:.4.$X*X*X&X&X%X&X&X*X*XOX4.@X@Xe.>. Xz ..n Z     O - > & r f f r - : , t y f t > : : : & r y ",
"y r & > : : * > t f y y > - r + #.O. X*X*X&X%X+X+X&X+X&X+Xe.qXaXaXiX#Xo.3.6.7 4 ..4.:.g # - > y y r - > y y f y : - : : : & w y ",
"y w - - > : > - > t y y t > > . :.+X X[. X%X&X{.:.%X+X&X4.7XaXiXaXaXaXt.<..Xb 3 [. XXXXX/ O t y y r : y y y t : : : : : : - r y ",
"y w & > - > : : - > t y v % g | O.OXe.5X3X X+X X}.+X+X+Xe.tXrXyXaXpXaX>Xo. Xd ; 3.3.3.{. Xs > v y y r y y y : : : : > : : - w y ",
"y w # : : - : : : - : t y ,  X4.o.6.2XaXaX3X[.OX$X+X+XXXe.yXtXrXrXyXaX>Xo.XXg s 6.4.3.r. Xm : f y t y y y : - : - > - : - - r y ",
"y r % & - - - - - & - r - ..OX>...3.9XyXaX7X|.+XOXXXXX+X:.7XaXyXrXaXpXt.@.XXz z W.3.3.6. Xx - v y y y t , - - - - - - - - # r y ",
"y t r r r r r r r r r t % O.XX;. .>.7XiXaX7X[.OXXXXXXXXX6.w.qXaXaXiX#Xo.r.oX....4.3.<.{.{.q r v y t y y r r r r r r > > , , t y ",
"y y y y y y y y f f f f % ..oX;.O.6.t.yXtX@X[.oX X X XXXXX<.$.t.@Xw.o.3.XX4.%.%.W.6.{.|.| - y y y y y y t y y y t y t y y y y y ",
"y y r y t y y y y t t t r s |.:.o.oX;.,.w.(.XXXX XXXoXoXoXXX{.;.=.>.}.XXr.%.W.,.O.>.;.h $ y y y y t y t w > : w w : w : w w r y ",
"y r : : - - - - - - : r y % z -.|  XW.}.W.|.|.[.(.w.#.7.&.e.|. X X|.<.<.3.(.-.b . $ $ > y y y f y y y y y - - - - - - - % # r y ",
"y t # # - - & - & - : y y f : : & x %.}.XXW.e.7.~ U.:X5X:XF.q.t.r.{.o.+.o.m 6 S A e v f y t t y t t t y y y : : : : : : - - r f ",
"y w - - : : : - > w f f i r t t , @ = x %.:.8.<XuXaXaXaXaXeXP.B.X.| b Z D s.g.D V + t y > % t f r - - t f y y > : : : : : : r y ",
"y w - - > : > > w y y y r # : y d r # % & - 4 i.<XU.1XuX6X~ 4 A F l.z.b.M.k.F v.s.V : e # # y y y # # - t f f t w : : : : - r y ",
"y w - : : : - r y y y w O # r y c r # # t y r o n.V.c.J.V.B.g.v.h.N.M.b.z.D j.b.k.F + $ - - t y y - % $ - t f y t w : > : - r y ",
"y w - : > : r y y y r # % - r y y t - # O , f r J.E.T.T.E.c.h.l.h.N.M.b.l.S h.s.F S 1 # > # y y r - : : % > t y t t w : : - r y ",
"y w - : w r y y y r # # : - w y y r - : - & > s n Y.R.E.L.5 A n h.m.M.b.b.A N $.M 3 1 % : - t y y - - : - $ : t f f y r - > r y ",
"y w - - r y y y > # & : - - , y y r - : : & # , s 5 P U > X = 1.~ m.v.b.k.a.w.&X[.N 2 s % - t f r & : : > - $ w t f y y w - t t ",
"y r & > y v y r # - : : : - r y f r - : : > % O s s k * % * { [.{ 9 F x.j f :. X(.M M | % - t y y & : : - > - - w t y f t : t y ",
"y r > y y y r # - : : > : - > y y t - : : % s *   @ %.+.z [.[.[.=.5.X.b 2.OXOXXX3.,.W.+.% & t f y % - > : : : - & w t f f t t t ",
"y r y f y r # % : : : : : - r y y r - : % { 2.>.+.-.-.5.6.[.[.-.o.;.@.r.*X$XXX|.+.,.%...# - t y t & : : : > : > : # w t y f f t ",
"y y f y w # # - : : : : - - , y f r - - * o.& j oX[.[.5.5.5./ O. X{. X+XXX}.:.&.} ( ` ] q % y y y - - : : : - : : - # w t y t y ",
"y y y r # # - - - - % - - % , y y r - & & O { >.5.5.(.5.-.{ * m  X*XXX{.3.o.!.~.^.).~._ $ : t y t : - - - - - - & - # - t y t y ",
"y y y r > r r r w , r , r r t y y t , t - { -.j -.2.2.=.z : # $.&X+XXXr.( /.)._ _.'./._ w y y f y y r y t t y t y r t t y y f y ",
"y y y y t y y y y y y y y y y y y y f f > x d g @.x l w w h $.+X+X+X{.,.u u 0 j ].`./.' u i y y y y y y y f y f y v f y f y y f ",
"y y y y t t y t t t y y t t y y y y y t f : - { x - r y w ;.;.| XXXX4./ ^ : ; ] ].).~.' q y y y y t r y y t t y r y y y y y y y ",
"y r y y w - - : - : - - - : t y y t > > : r : r g : r t w ;.d O.<.<.o._ ^ O O (.].`.).' $ : y y y : % - # & & # # # : r y y r y ",
"y y y t r > - & & # & - # # w t y r # - & & - # # - w t r z r ,./ / $._ u - & ` ^.!.!.!.$ : t y t # - : : : - : - > r y y y y y ",
"y t y y y t w : > : : : : - w y f r - - > - > : : w t y f r :  ...k +.g X t *    .;.j 0 $ - y y t - : > : : > : r y v y y r r y ",
"y w > t y y t r : : : : : & w y t t & : > : : > w y y y y w t - j 1.*.a , f t f +X&X,.- # - y y t & : > : : : w y y y y r - r y ",
"t w # > t f f t r : : > : % w y f r - : : : : w r y f r : - r r l (.1.} q t t h +X$X Xz % - r v t - - : : : r t y y y r - - r y ",
"y r & - > t f t t w : : : - r y t t - - : : w y y y t > - - r f @ } 1.*.a : v w :.%XoX$.# % y y t - : w : w t f y y r : : - r y ",
"y r - : - > t f y y w > : - r y f r : : : r t f f y > - : - t f @ g 1.*.} r y t t oX%X}.d $ y y t - : : w t y y y w - : : - w y ",
"y r - : : - : t y y t r : - r y f t & - t r y y t : - : : - e f d @ { { { = = v t O.,.,.h X t y t - - w y f y f r : - > - - w y ",
"y r - : : : : > y y y t w - r y t r - w y y f t > : : : : - t : &   Q.4X4X4Xc $ o 9.0X7XwXp.- v t - : y y y y r - : : > : & w y ",
"y , - : > : - - > t y y t : r y y t : t y y t > - : : > : % # ) 9.7.b A Y 8.N y.u.7.G k.H.8.$ v y - y f y y r - - : : : : - w y ",
"y r & : : : > > - > t f y t t y y t t y y y w - - > : : - : -XwXeXwX2XL C 8.rXaXaXiXI.S d.f.B > f y f f y r - : > : > : : - r y ",
"y w - - : - > - > - : t y y t f y t y y r > - : : : : > . Q.wX0X0X8X8X,X7.pXaXpXpXtXiXp.a.N.4X: f y y y r - : : - : - > - - r y ",
"y , % - - - & - & - & : t y t y y y y y w - & - - - - o B 8X0XqX8X8X8Xp.6XaXaXaXuXyXrXqXT d.J.f y y y e - - - - - - - - - # r y ",
"y t r r w r r r r w r w t y y y y t y t r r t r r t t - N p.u.u.u.u.u.b u.,X;X-X;XQ.p.Q.) C C % y y y t r t r r r r w r r r t y ",
"y y y y y y y y y y f t y y y y y y y y y f y y t y y : 9.5X6X2X,X1X,X9.6XwXqX8X0X8X0X8X0XqX6XB w y y y y y y y y y y y y y y y "
};
