/* XPM */
static char *result[] = {
/* columns rows colors chars-per-pixel */
"64 64 227 2 ",
"   c #070305",
".  c #05060C",
"X  c #09050B",
"o  c #04090C",
"O  c #0B0A0E",
"+  c #170606",
"@  c #1C0C0C",
"#  c #050C12",
"$  c #0D0E13",
"%  c #120E14",
"&  c #1D0F14",
"*  c #0D1116",
"=  c #0E141A",
"-  c #0D1B1C",
";  c #111116",
":  c #1A1114",
">  c #14141B",
",  c #1A151B",
"<  c #14181E",
"1  c #1C1B1E",
"2  c #25080A",
"3  c #36060A",
"4  c #241313",
"5  c #2B1516",
"6  c #28181A",
"7  c #331516",
"8  c #3A1414",
"9  c #331A1A",
"0  c #3D1E1E",
"q  c #030D24",
"w  c #171720",
"e  c #181720",
"r  c #171820",
"t  c #1B1C25",
"y  c #1D1E28",
"u  c #06163A",
"i  c #331E20",
"p  c #0A2526",
"a  c #132425",
"s  c #142529",
"d  c #1E202A",
"f  c #132A2A",
"g  c #1A292B",
"h  c #172D35",
"j  c #1B3335",
"k  c #1A3435",
"l  c #1C3B3B",
"z  c #21222B",
"x  c #282728",
"c  c #362727",
"v  c #3D2122",
"b  c #3C312C",
"n  c #283737",
"m  c #203D3D",
"M  c #363537",
"N  c #520A08",
"B  c #421D1D",
"V  c #491C1D",
"C  c #581616",
"Z  c #6F0D0D",
"A  c #691415",
"S  c #761318",
"D  c #52241B",
"F  c #74240D",
"G  c #452324",
"H  c #4C2626",
"J  c #4F2829",
"K  c #552525",
"L  c #532A2A",
"P  c #5B2D2D",
"I  c #563232",
"U  c #622828",
"Y  c #672730",
"T  c #633131",
"R  c #6B3535",
"E  c #703737",
"W  c #743A3A",
"Q  c #7B3E3E",
"!  c #7F403F",
"~  c #011646",
"^  c #001D5A",
"/  c #1D3B40",
"(  c #303E41",
")  c #001B63",
"_  c #143778",
"`  c #7A3944",
"'  c #1D4545",
"]  c #175A5B",
"[  c #234343",
"{  c #2C4444",
"}  c #244B4B",
"|  c #255353",
" . c #2B5454",
".. c #2E5A57",
"X. c #2C5C5B",
"o. c #365759",
"O. c #325C5C",
"+. c #2E605F",
"@. c #284C67",
"#. c #2A4A71",
"$. c #1C6666",
"%. c #2B6262",
"&. c #2B6A6B",
"*. c #336363",
"=. c #396867",
"-. c #356B6B",
";. c #2F706F",
":. c #39716E",
">. c #376F70",
",. c #287575",
"<. c #357373",
"1. c #3A7474",
"2. c #347A7A",
"3. c #3C7B7B",
"4. c #474747",
"5. c #4E4F52",
"6. c #5A5456",
"7. c #6E4B4D",
"8. c #43696B",
"9. c #467A7A",
"0. c #676868",
"q. c #6A7777",
"w. c #737373",
"e. c #7B7A7A",
"r. c #870400",
"t. c #950202",
"y. c #970D1A",
"u. c #83151E",
"i. c #AE0000",
"p. c #A11C1E",
"a. c #902316",
"s. c #AF3113",
"d. c #8A1922",
"f. c #A91C2A",
"g. c #B81C2A",
"h. c #942A2F",
"j. c #BC212F",
"k. c #A8313A",
"l. c #C80D0D",
"z. c #DA3D1C",
"x. c #C71E26",
"c. c #D23029",
"v. c #CA2235",
"b. c #C73846",
"n. c #834242",
"m. c #8B4646",
"M. c #8F4847",
"N. c #8F4848",
"B. c #934A4A",
"V. c #994B4D",
"C. c #9A4651",
"Z. c #83525A",
"A. c #9E5151",
"S. c #AF4D58",
"D. c #A25252",
"F. c #967070",
"G. c #CF4752",
"H. c #EF5465",
"J. c #FB6070",
"K. c #41827C",
"L. c #002984",
"P. c #0E3582",
"I. c #0E3D9C",
"U. c #063BA8",
"Y. c #19439F",
"T. c #264E8E",
"R. c #3C7F81",
"E. c #1548B4",
"W. c #2F5BB2",
"Q. c #1654CF",
"!. c #1857D9",
"~. c #285CC9",
"^. c #1B5DEA",
"/. c #1E60E6",
"(. c #2469F4",
"). c #2F74FC",
"_. c #3D8282",
"`. c #3D8B8B",
"'. c #438484",
"]. c #448A85",
"[. c #448C8C",
"{. c #498E8E",
"}. c #4A8F90",
"|. c #459292",
" X c #4B9393",
".X c #4D9898",
"XX c #4E9A9A",
"oX c #519C9C",
"OX c #638383",
"+X c #698989",
"@X c #728D8D",
"#X c #7A9999",
"$X c #53A29E",
"%X c #529FA0",
"&X c #55A3A3",
"*X c #54A9A9",
"=X c #57ABAB",
"-X c #5AABAB",
";X c #868686",
":X c #8D9392",
">X c #949797",
",X c #9E9E9E",
"<X c #A49995",
"1X c #B09693",
"2X c #83AAAA",
"3X c #A5A6A6",
"4X c #ACACAC",
"5X c #B6AEAE",
"6X c #B3B3B3",
"7X c #B6BABB",
"8X c #BCBCBC",
"9X c #CFB7A9",
"0X c #BBC7C7",
"qX c #C1C8C8",
"wX c #CBCCCC",
"eX c #DADBCC",
"rX c #CDD4D4",
"tX c #D3D2D2",
"yX c #DBDDDB",
"uX c #E9DCD5",
"iX c #EEF2DF",
"pX c #E4E5E5",
"aX c #E6E9E9",
"sX c #ECEDED",
"dX c #EBF0F0",
"fX c #F4F4F4",
"gX c #FEFEFE",
/* pixels */
"y y y y y t y y t y t t y y y y y y y y t y y y y y y y y y y y y y y y y y y t y y t y y y y y y y y y y y y y y y y y y d y y ",
"y r ; ; ; ; ; ; ; ; > w y y t y y t y y r > e > > < > , > w y y y r ; ; ; ; ; % ; ; ; w y y y y y t y t r > , < > > w e > > y y ",
"y w $ % ; ; ; % ; % > t y y t y y y y y y > % ; $ ; ; ; ; * w y y e $ $ ; % % * * ; > y y y y y y y y y t > ; ; ; ; ; ; ; % < y ",
"y r * > > > > > > w y y y e t y y t r y y y > > > > > > ; * w y y < ; > > > > > > , y y t r r y y e t t y y < > > > ; > ; ; r y ",
"y w ; > > > > > e y d y w $ > t y < $ > y y y , > > w > > ; t y y r ; > > > > w r z y y > $ > y y > $ w y y t w , < > > > ; t y ",
"y w ; > > > > t y d y < $ $ w y d r $ $ w y y y r > > > > ; t y y w % > > > > t < r y r $ $ < y y r $ $ w y y y w > > > ; ; r y ",
"y r ; > > > r y y y w $ $ * w y y r ; % $ < d d y e > > > ; t y z r ; > w > e y , O r $ % * w d y t ; ; $ w y y d w > > > ; t y ",
"y < ; > , r y y y e $ ; > ; w y y t ; ; ; $ < d z z t > * $ = = = * # # * w y z < X O ; > ; , y y r ; ; ; $ w y d y w > > > r y ",
"y e ; > r y d y e $ ; > > ; r d y w ; > > * O r y r ; ; 6 0 H K L L J G v i > ; # 5 6 * > > < z d t ; > > % % < y y y e > ; t y ",
"y r ; r y y y > $ % > , ; ; r y y t ; > > > ; o , G T ! M.M.M.M.N.N.N.N.N.N.Q T v 9 T O # o > < < r ; ; > > ; $ w y d y , ; t y ",
"y w > y z y w $ * > > > > ; r y y r ; > > > O B ! m.n.Q Q Q 7.! Q ! ` ! W W ! n.M.` W T L H @   > r > > > > > ; $ < y y y > w y ",
"y t y y y w $ ; > > > > > ; r y d r ; ; ; ; : L Q E W Q Q ! n.h.m.n.n.n.! ! W W E E R Q T : O d z r ; > > > > > ; $ r y d d t y ",
"y y y y , $ $ > > > > > ; ; w y y r ; %   7 L R E W W Q Q ! ! 7.n.Q 7.h.! W W W E W R W W R v * t t ; ; > ; > > > $ $ w t y y y ",
"y y y r $ % * ; ; ; ; * ; % w y d r ; ; O B 7.N.V.B.N.N.m.m.n.m.m.m.n.m.n.m.m.M.V.Q ! D.A.R 9 ; > r ; ; > ; ; ; ; * $ $ t y y y ",
"y y y r > < r r < < w w w w t y y $   5 K Q n.B.V.A.A.A.D.A.A.A.A.Q B.D.D.m.! D.Q J W m.! R : w z t t w r r r r r r w < t y t y ",
"y y y y y y y y y y d t d y y y d <   9 T Q W R E Q W Q M.B.n.M.m.G W A.n.J I R H H P T P T P : y y y d y y d y d z y y y y y y ",
"y y y y t y y y y y y y y y y y y z * 4 P T R T P R L L R T J T P J L T L L K G 9 H L R T T R 5 r y y y y y y y y y y y y y y y ",
"y y y t > ; ; ; > w > e > > t y t ; : 9 R Q R L L T L L P L L L L B J L B G H >   9 P L L T R 0 = y w > w w > > ; % ; w t t t y ",
"y y y t t ; ; ; ; ; ; ; ; ; r d t O @ G P T T L L G 4 L K 7 v L i a 8 0 g 2 { +.f 6 P L P R T L > t * ; ; ; ; ; * ; ; t t y y y ",
"y t y y y t w > ; > > > > ; r y y t $ . G E L 9 2 x [ 8 x %.6 6 3.].a ]...l XXoX=.8 B B P P T P < r ; ; > > ; > > w y y y y t y ",
"d w > t y y y w > > , > > ; w d z r ; % P P 0 { j 9.9.} .X-XO. X-X&X&X-X'.oXoX=X..1 f 9 L L T P , y ; > > > > > < y d y t > w y ",
"y w ; > y y y y r > > > > * t t y r $ & 5 G x |.oXoXXX*X&X%X-X-X-X-X-X-X-XoX&X.X..:.} B L J T P , r ; > > > > , y y y t w * w y ",
"y < ; ; > t y y t < > > > ; t d y r $ X # 5 b XX'.'.&X%X&X&X&X-X-X-X-X-X-X&X X9.l ..{ B H J P L ; t ; ; , < < y y y y > ; * w y ",
"y w ; > > > y y d y w > > ; w y y r * > = @ b 2.=.'.-X-X&X&X&X=X-X-X-X-X=X X`.[.=.K.{ + 0 L P 0 > t ; > > w y y y y > > > ; w y ",
"y r ; > > > > t d d t < > ; t y y t ; > e % M  .:.=X-X-X&X&X&X&X-X-X-X.X9.+X+X:.<.XXg f v H 5 + > y ; > < t d d t > > > > ; < y ",
"y < ; > , > > > t d y y w ; w d y r ; < y   n oX X[. X=X&XoX].&X&X=XoX9.wXgXgXaXOX..O.-.9 5 . - * % > > y y d t , ; > > > ; < y ",
"d w ; > > > > > > y y y t > r y y r < e a  .l &X1.#X#X|.%X X*.oX$X&X1.wXgXdXgXgXsXO.9.3.9 6 K.XX9.l O y y y y > > > > > > ; < d ",
"y , ; > > > > > ; > y d y t t y y t y % 1. Xl 3.@XgXgX2X[. X&XoXoXXX9.aXpXsXgXgXgX#X&.[.6 g _.3.[.XXj > z y > ; > > > > > ; , y ",
"y w ; ; > > > ; > ; > t d y t y y d , / oX1.j -.0XsXgXwX|.XX.X.XoX X9.aXpXpXaXfXgX#XX. X; m 3.1.1.[.3.> y > > > > > > > > ; r y ",
"d w $ ; ; ; ; ; ; ; ; , y y y y y d ; O. X-.' -.0XsXfX0X`.XX.X.X.XoX*.qXgXpXpXgXsX=.-..X< } R.1.1.'.'.< > ; ; ; ; ; ; ; % $ r y ",
"y t < < r r r e r < r < t y t y y d > } .X*. .3.+XgXfX#X`..X X X X.X3.8.tXgXgXsXOX| '.[.a +.3.1.1.].3.= r r r , < r > r r < t y ",
"y y y y y y y y z y z y y y y y y y y ; R.-.O..XO.OXOX3.}.{.{.}.{.{. X>.O.OXOX=.| 9.{.1.[ :.1.1.3. X[ ; y y y y y y t y y y y y ",
"y y y y t y y y y y t y y y y y y y d > f +.} [.'.<.3.[.}.|.|.`.[.[.[. X'.-.X.<.[.}.>.*.>.1.3.R.[.} $ t w w w w > w w w > w t y ",
"y t ; ; ; ; % ; ; ; ; > y y t y y y y y ; = O [ 1. X}.`.2.o.6.7.6.6.5.=.`.|.{.'.1.>.9.3.&.s s j r * y y t > * ; * % ; ; % $ e y ",
"y w $ * ; % ; ; % * > y y y y y y r y y d > $ X r | <.=.7.F.9XuXuXuX9XF.Z.9.'.-.| &.| n 8 N % > w t y y y y w > > > > > ; ; e y ",
"y w ; ; > > > > > e y y y r r y y t r y y t w > $ $ = i 7.yXeXuXgXgXiX<Xk.` l n i V A S A C 2 w y $ > t y y t w > > > > > * t y ",
"y w ; > > > e > r y y y w $ > y y , $ w y y y w > > > % o K b.k.1X1XM.3 N F p.f.g.g.f.F s.d.C : t $ $ > e y y y w > > > > ; t y ",
"y w ; ; > > > e y y y r $ $ < y y r $ $ w y y y w > > r = Y H.b.b.b.G.D j.a.c.v.j.j.u.s.v.f.u.3 = > $ $ > t y y y w > > > ; t t ",
"d w ; > > > r y y y r $ % ; , y d r ; $ $ w y y y r > , * , G.J.H.J.C.F x.F c.v.g.j.A u.u.S S 3 * > > ; $ w e y y y w > > ; w y ",
"y w ; > > t y d y w $ % > ; r y y r ; > ; $ r y d y w w = = c C.S.C., @ G b z.v.v.j.S c 2. .4 2 2 * > > > $ > t y y y w ; * t y ",
"y w ; > w y d y < % % > > ; r d y r ; > > ; $ w y y y % $ % > f , o ; * &.&.s.c.v.f.y.4.%X[.{ 3 < $ > , > > $ w y y y y > ; w d ",
"y w ; , y d y w $ ; > > > ; < y y t ; ; > > ; $ < t t } ] r o k %.; h %._.&.c D y.v o.'.{.3.{ x | ; ; > > > ; ; > y y d y > w y ",
"y < > y d y w $ ; > > > ; ; r y y t ; > > > > ; * % ' } [ 2.<.| <.&.|.3.X.X.' | =.oX-X.X X1.>.R.1.> > > > > > ; $ w y y d t t d ",
"y t d d y < $ * > > > > > ; r y y r ; > > > > > * $ O k m R.|.R.R.2.`.' ...X'.{.oXoX.XK.:.O.'.1...= ; e > > w > > * > y y d y y ",
"y y y y , $ $ ; > > > > ; ; < y y < * > > > > > > O j &.X.2.<.2.,.,.%.p [ %X&X X].9...@.#.@.#.#._ y * > ; > > ; > ; $ > y y t y ",
"y y y r $ $ ; ; ; ; ; ; ; % < y y t ; ; ; ; ; ; ; $ } * f <.&.;.-./ - [ oX&XoX{.<.#.E.^.Y.T.~.E.L.q $ * * % ; ; % ; * ; t y y y ",
"y y y t > w r r < r w w w w t y y t w r t r r t < < = < X.h g h g w 1.3.[.%X[.'.} E.Q.P.T.).(.Q.^ > y t y t t t t t t t y y y y ",
"y y y y y y y y y y y y y d y y y y y y y y y y y y y a ' * y r ,  .X.$ '..X'.O.~ u u W.)./.Q.U.^ y d y d d d d d d d d y y y y ",
"y y y y y y y y y t y y t y y y y y y y y y y y y y y r < y d d t h t *.+.} &.P.U.u u (.^.!.U.L.u < y y t t y y r y t y y y y y ",
"y t t t > > % ; ; ; ; ; ; > w y y y > , < > w > > < r r t y y t y t ; O./ h *.I.U.u m @.T.P.L.~ > > $ % % ; $ * $ $ ; t y y t y ",
"y y y y r > ; ; % * ; % $ $ w y y r * ; ; ; % ; % ; > y y y y y y y t h h p | h ) q =.$X].=./ $ y ; ; > > > ; > ; > t y y y t y ",
"y t y y y y < > > > > > > * w y y < ; ; > > ; > > > y y y y y y r r y e w ] ] p . . | -X&XXX'.| < X > ; ; e > , e y z y y t r y ",
"y w > y d y t > > > > , > ; r y d w > > > > > > r y d y y > < y r ; t y h ,.,.] # ; e >.XX&XoX[.o.8Xx 1 a $ , r y d y y w ; w y ",
"y > ; > y d y y w w > > ; ; r y t t * > w > > , t y y y > ; < y r ; ; e a $.,.] p > ; % w =. XO.tX<Xr.G.5XI   > z y y r ; ; w y ",
"y w * ; > y d y y w > > > ; r y d w > > > > > y y y t > ; ; t y e ; ; > = / ,.$.h > e w ; $ f 7X1XZ i.i.l.t.v { > y r > ; ; w d ",
"y w ; > ; > y y y y e > > ; r y d w ; > > r y d y y > > > ; < y w ; > > = p $.$./ > e ; > ; r 6.G 7.7.7.S C wX0.* t ; > > ; w y ",
"d < ; > > ; > t y d t < > ; w y y w ; > < y d d y > > > > ; w y w ; > < > p X.O.{ = t w ; > % 6.pXdXpXrXq.7X,X# t ; ; > > ; e y ",
"y < ; > > > > < t y y y , ; w y y t ; < y y d t > > > > > ; r y w > $ $   I 4X3X0X0.> d > $ ( gXgXpXsX:X,X8X$ t > > w > > ; e y ",
"y , ; > > > > ; > y d d t > w d y w > r y y r > ; > > > > ; r y r . M 0.w.4.2 N U G = d y . ,XgXfXfX5Xe.tXz w > ; > > > > ; w y ",
"d r ; > < > > > > > t y y t t y y t y y y y , > > > > > > ; t y $ 0.tXyXyXrXF.N t.h.M w z * 4XgXgXtXw.yX4.$ > ; > w > > > ; w y ",
"d w ; ; > > > > > ; > y y y t y y t y y y > ; > > > > > ; ; y > 5.tXtXtXwX7X8X0.N k.F.= z * ,XgXpXw.tX0.O > ; > > > > > ; ; r y ",
"y , % ; ; ; ; ; ; ; * > t d y y y y y y > ; ; ; ; ; ; ; ; ; t * ;X8X8X8X7X6X3X>XC Z C = z > 5.dX;XwX>X. > % ; ; * ; ; ; ; $ r y ",
"y t w w , w r r r r w < y y t y y t y y < r r t r r r t e r y < 0.;Xe.w.w.0.0.0.4.V 8 ; y y > 4.7X8X* t r t r e < < w w w w y y ",
"y y y d y y y y y y y t y y y y y y y y y z y y d y y y y d r x >X8X4X3X3X3X4X4X6X6X:Xd t z y $ e.z w y y y d y y d y y y y y y "
};
