/* XPM */
static char *result[] = {
/* columns rows colors chars-per-pixel */
"64 64 232 2 ",
"   c #030205",
".  c #0A0304",
"X  c #05060B",
"o  c #04090D",
"O  c #0B0A0D",
"+  c #120B0C",
"@  c #1C0A0A",
"#  c #050D14",
"$  c #0D0D12",
"%  c #0E0F18",
"&  c #120E14",
"*  c #1D0E11",
"=  c #041115",
"-  c #0E1115",
";  c #0D131A",
":  c #0C1C1C",
">  c #111116",
",  c #1D1416",
"<  c #14141B",
"1  c #19151D",
"2  c #15191F",
"3  c #1A1A1E",
"4  c #2D090A",
"5  c #360A0D",
"6  c #3E0E12",
"7  c #221315",
"8  c #2D1516",
"9  c #221619",
"0  c #291B1B",
"q  c #3B1517",
"w  c #341A1B",
"e  c #3B1D1D",
"r  c #3C311C",
"t  c #020D27",
"y  c #0D1E21",
"u  c #171720",
"i  c #191721",
"p  c #171820",
"a  c #1B1C25",
"s  c #1D1E28",
"d  c #041538",
"f  c #241D25",
"g  c #391E22",
"h  c #142325",
"j  c #1B2324",
"k  c #13262A",
"l  c #1E202A",
"z  c #162A2B",
"x  c #1A2C2D",
"c  c #142C34",
"v  c #1B3334",
"b  c #1B393A",
"n  c #23232B",
"m  c #292829",
"M  c #392426",
"N  c #312F31",
"B  c #243B3C",
"V  c #29393A",
"C  c #363739",
"Z  c #4B0D0C",
"A  c #471B1B",
"S  c #660000",
"D  c #790303",
"F  c #7C0C1C",
"G  c #681719",
"H  c #761619",
"J  c #5C3A1E",
"K  c #74210D",
"L  c #6B1C21",
"P  c #442222",
"I  c #4B2424",
"U  c #4F2828",
"Y  c #512424",
"T  c #532A2A",
"R  c #5C2E2E",
"E  c #433535",
"W  c #5F3135",
"Q  c #652B28",
"!  c #702730",
"~  c #643232",
"^  c #6B3535",
"/  c #703737",
"(  c #743A3A",
")  c #7C3E3E",
"_  c #051845",
"`  c #001353",
"'  c #18294C",
"]  c #1B3747",
"[  c #233356",
"{  c #00226E",
"}  c #194547",
"|  c #114D4E",
" . c #155958",
".. c #234343",
"X. c #2D4649",
"o. c #274A4D",
"O. c #254D4D",
"+. c #255353",
"@. c #2A5353",
"#. c #26575B",
"$. c #2C5C5C",
"%. c #365858",
"&. c #2B605F",
"*. c #32615E",
"=. c #335361",
"-. c #176565",
";. c #2D6464",
":. c #276868",
">. c #336464",
",. c #3D6564",
"<. c #346C6C",
"1. c #396C6C",
"2. c #3A746E",
"3. c #287575",
"4. c #337473",
"5. c #3A7474",
"6. c #3D7A76",
"7. c #347B7B",
"8. c #3C7A7A",
"9. c #474748",
"0. c #5C484C",
"q. c #535456",
"w. c #5D5D5D",
"e. c #7F4141",
"r. c #685052",
"t. c #5D5F61",
"y. c #436A6B",
"u. c #5C6968",
"i. c #417D7D",
"p. c #487879",
"a. c #567C7C",
"s. c #676868",
"d. c #767777",
"f. c #7B7B7C",
"g. c #8B0000",
"h. c #8B0E1A",
"j. c #891917",
"k. c #A00000",
"l. c #912D13",
"z. c #B52E19",
"x. c #9A1C28",
"c. c #A41B29",
"v. c #B61B28",
"b. c #B31D30",
"n. c #902F37",
"m. c #BC212D",
"M. c #D10000",
"N. c #D32917",
"B. c #C01E2C",
"V. c #C22132",
"C. c #DB3135",
"Z. c #E42C34",
"A. c #BF411F",
"S. c #943842",
"D. c #C23946",
"F. c #D23A4A",
"G. c #824141",
"H. c #8A4645",
"J. c #8F4849",
"K. c #934A4A",
"L. c #9A4E4E",
"P. c #8D5056",
"I. c #9E5050",
"U. c #A45254",
"Y. c #927675",
"T. c #A87F7E",
"R. c #D64A53",
"E. c #CE5360",
"W. c #F25667",
"Q. c #F96173",
"!. c #38807F",
"~. c #41807D",
"^. c #002E8B",
"/. c #093694",
"(. c #133E90",
"). c #083FAD",
"_. c #1845A6",
"`. c #2957B1",
"'. c #124EC8",
"]. c #1A52C6",
"[. c #1251D1",
"{. c #306ADD",
"}. c #246AF5",
"|. c #2A6FF6",
" X c #2C8287",
".X c #3D8383",
"XX c #3B8989",
"oX c #438584",
"OX c #448B8B",
"+X c #498E8E",
"@X c #5F8585",
"#X c #459292",
"$X c #4B9393",
"%X c #479F9F",
"&X c #4E9A9A",
"*X c #549292",
"=X c #519D9D",
"-X c #788787",
";X c #6E9090",
":X c #529FA0",
">X c #55A4A4",
",X c #57A8A8",
"<X c #5AABAB",
"1X c #5DB0B0",
"2X c #868888",
"3X c #8F9090",
"4X c #949494",
"5X c #9D9D9D",
"6X c #A28A88",
"7X c #97B1B1",
"8X c #A5A5A5",
"9X c #A7ABAB",
"0X c #ABB5B5",
"qX c #B3B4B4",
"wX c #BBBBBA",
"eX c #CEB2A9",
"rX c #A6C2C2",
"tX c #C3C8C8",
"yX c #CCCBCB",
"uX c #DCCEC9",
"iX c #C8D2D3",
"pX c #D3D3D3",
"aX c #D4D9D9",
"sX c #DBDCDD",
"dX c #E4D7CA",
"fX c #E1E0CC",
"gX c #E7E8DC",
"hX c #E2E3E3",
"jX c #EBEBEB",
"kX c #F5F4F4",
"lX c #F9F7F7",
"zX c #FEFDFD",
/* pixels */
"s s s s s a a a a s s a s s s s s s s s s s s s s s a s s a l a l s s s a s a s a s a s s s s s s s s s a s s a s s s s a s s s ",
"s p > > > > > < > % > p s s a s s a s a p 1 1 1 < p p < 1 1 a s l p > > > > > % < > > u s s a s s a a a a < 1 2 p < 1 u 1 p p s ",
"s p $ > - - - $ % & < a s s a s s a s s a 1 - - > > - > - - p s s p $ - > - > & $ - < s s s s s s s s s a 1 > > - > > > - - p l ",
"s p > > < 1 < < 1 u s l s p a s s a p s s a u < < < > < < > p s a p > < < > < 1 < u s s a p a s s i a s s a u < < > < < > - p s ",
"s p > < 1 1 < u p s s s u $ > s s 2 $ u s s a p 1 < < < < - a s s p > > - u 1 < p s s s 1 $ 1 s s 1 $ u s s a p < < 2 < 1 < p s ",
"s p > > < < 1 p s s s 2 $ $ p s s p $ $ p s s s u < 1 1 < > p s s u > - X > 1 p s l s p $ $ 2 s s p $ $ p s s s p 1 < < > > p s ",
"s p > < < < p s f s p $ & - p s s a > $ $ p s l l p ; - - $ p s s a & 1 X $ p s l s p $ $ - p s s p - $ $ u s s s p < < < < a s ",
"s u > < < p s l s p $ - < > p s s p > < - $ ; < u 1 , 9 9 9 1 9 1 - # # , w u n f p $ > < - i s s p < < - $ p s l s p 1 > ; p s ",
"s p - < u s s s p $ - < < > p l l 3 - $ O , e R ( e.H.H.H.H.H.G.S.( U M + R 0 ; ; o - > > > p s l p > > < > $ 2 s s s p < > a s ",
"s p - 1 s n s p $ - < < > > p s l a > e ^ H.H.H.G.n.G.G.G.e.G.) ( e.G.H.e./ ~ e e 8 . X > > p s s a > < < < - $ p s s s u > p s ",
"s p 1 s s s p $ & < < u < > p s j = * e.e.( ) ( e.e.G.G.G.G.G.e.e.( ( ( ( / ( ( P O - 1 < > 2 s s p > < < < < - $ p s s l 1 p l ",
"s a s s s u $ > < 1 < < < > p > , e I ^ ( ( ) ) e.e.G.G.G.G.e.) ( ( ( ( / / ( ( ~ P , - < > p s l p > < < 1 1 < - $ u s l s a s ",
"s s s a u $ $ > < < 1 > > - p ; + I ( e.G.G.e.e.e.e.e.e.G.G.e.G.G.G.G.H.H.( K.U.K.T 7 X $ > p s s p > < < < > < < $ $ p a l s s ",
"s s s a $ $ - > > > - > > $ $ g T ^ L.I.I.I.I.L.L.L.L.L.K.H.L.L.I.G.L.L.^ R K.G.) P X > > > p s s p - > < > > > - - $ $ p s s s ",
"s s s p < p p u p p p p < o + w ~ H.e.( G.J.J.L.I.I.K.I.( R L.I.( T e.~ P T ~ ~ R ^ w - p p a s s a p p p p p p p a p 1 a s a s ",
"s s s s s s s s s s s s l < * U ~ ( ^ ~ ~ ^ R ^ ) ^ R ( T U ~ ^ T T T e g T R ~ ~ ~ R , s s s s s s s l s s l s l l s s s s s s ",
"s s s s s s a a s s s a s a $ 8 ~ ( ~ T R R T R R T T R U I T T P U e + 7 P ~ T ~ ~ ~ 9 a n s s s s s s s s a s s a s s s s s s ",
"s a a a u - < > 1 1 < u $ X P ~ ^ ^ R T R P w R Y q T Y 0 0 I 0 , 8 O.B j I T T ~ ~ ~ 8 - p p s s a 1 1 u 1 1 < < - > p a s a s ",
"s s s s p < $ > - % - - $ O > 7 R ~ T q P 3 , A m x 5 m !.B m .Xh $.:X#XV A e T R R ~ w o & p s l p - - % > - - - - > p a s s s ",
"s a s s s a u 1 < < < < < > 2 , ^ R e x 3 oX..B &X6.B =X<X$X>X&X~.>X:X$X3 m 3 I T T ^ w # > 2 l s p > - < < < < 1 u s s s s a s ",
"s 1 2 a l s s u < < 1 < < < < e P A V +X~.>X$X>X,X=X<X<X,X1X<X<X,X=X>X~.O.5.V Y T T ^ w o < 3 a s p > < 1 < < < p s l s a u u s ",
"s p - 1 s s s s p < < < > > O $ $ 6 %.,XoX&X:X:X>X,X,X,X<X<X<X<X,X=XOX*...$.m A I T R 8 o < a l s a - < < < < p a s s s u $ < s ",
"s p - > 1 a s s a u < < < > 1 l 3 8 %.+X*.*X,X,X>X>X,X<X<X<X<X<X,X#XOX~.1.6., @ I U R 7 $ < 2 s s a - < < < p a s s a 1 > - p s ",
"s p > < ; < a s l s p 1 < > p s a @ %.@.oX,X1X<X=X>X>X,X<X<X<X$X2.-X~.1.oXi.: v I M 4 . > < p s s p > < 1 p s s l a u > < - p s ",
"s p - > < ; 2 a l l a 2 < - p s l . *.+X$X&X>X,X>X=X&X>X>X,XOX@XsXzXlXtXy.O.<.@.A * = : O O a s l p - < p a l s a < ; < < > 2 s ",
"s p > < 1 < > 1 a l s a 1 - a a 2 k *.,X5.oX+X&X>Xi.1.>X>X&Xi.sXlXlXzXzXiX+.+X$.4 V #X+X~.b > l s a > 1 s a s a < < < < < > 2 s ",
"s p > < < < < > 2 a l s s 1 p $ 8.6.%..X3XzXaX$X+X+X&X=X&X#X;XkXsXkXzXzXkXy.8.1.. X.oX8.+X$Xz 1 l p < a l l a 2 < < < 1 < > 3 s ",
"s p > < < < 1 < > 1 a s s s & @.&X>.@.p.sXlXzX7XOX&X=X&X>XXX3XkXhXhXjXlXkXy.6.8.  @.8.5.5.$X>.> l a a s s a 1 < < < < < < - 1 s ",
"s p > > 1 > < < < > < a l l > <.$X;.o.p.hXhXzXrXXX=X$X$X&X#X1.hXzXhXjXzXiX+.8.~.o >.8.5.5.OX4.< l s s s a < > < > < < < > > p s ",
"s p $ - > > > > > - - 1 s l > >.$X@.>.4.0XzXkX;XOX$X$X$X$X$X<.@XhXzXzXiXy.$.$X8.z 1.6.5.5.+X$.> l s s s 1 > - > > > > > > - p s ",
"s a p p p p p p p p p p a l 1 v &X@.2.oX>.7X-X8.$X+X+X$X$X+X$X>.$.a.p.@.$.oXOX<.@.6.5.5.OXoXp p l a s a p p p 3 p p 2 u p p a s ",
"s s s s s s s s l l l l s s l $ @.&.>.$X8.<.7.OX+X#XOXOXOXOX#X$X~.1.1.i.+X+X1.>.5.<.5.oX<.k < l s s s s a s s s s s s a s a s s ",
"s s s s s s s s s s a a s s s s % h : $.oX$X+X.X7.%.q.0.9.9.q.y.XX$X$X6.,.<.8.7.+.% u y % < l s s s s a p u 1 1 u < u u 1 u a s ",
"s a > > - > > > - > > 1 s s a s f i < - c >.8.y.r.T.eXuXgXdXeXY.P.p..X;.#.#.b m Z 6 u a l f s s s s s s a < - % - - - - - $ p s ",
"s u $ - & - - $ > - < s s s s s s l s s > $ y g P.gXfXgXzXzXgXf.n.W x M Y G h.h.H Z 1 s s a s s s p a s s s 1 < < ; < < > - p s ",
"s u - > < 1 < < 1 u s s s p p s s p a a n s % $ # W R.n.6XT.S.Z G K v.v.V.V.x.K j.H 4 u i % a s a $ - s s s s u < 1 1 < < < p s ",
"s u - > 1 < < u p s s s u $ < s s p $ p s s s a = ! W.F.D.D.R.A.m.z.Z.V.m.b.H A.V.x.G * $ % a l a % $ > a s s s u < < 1 < > a s ",
"s u - 1 < < < p s s s p $ $ p s s p $ $ u a s s u f E.Q.W.Q.S.j.H l.C.B.m.c.K v.h.h.F @ % % a l a > - $ > s s s a p < < > > p s ",
"s u > < < < a s s s p $ > > p s s p > $ $ u s s s u g L.U.S.O j | l.Z.V.B.x.5 N @.M Z 4 & - a l a % < > $ u a s l s p < < - a s ",
"s p > < 1 u s s s u $ - > > p s s a > < % $ u u s f y ; $ o & o. XJ N.v.m.c.h.p.,X4.m 5 > % a l a > < 1 > $ < a s s a u < < p s ",
"s p > > a s s s p $ - < < - p s s a > < 1 $ ; } x & 2 :.h j ;.!.!...r H L n C 8.OX5.q X.s $ a s a - < < 1 > $ u s s s s < - p s ",
"s u - 2 s s s p $ - > 1 < > p s s p - < > p ;.$.:.#.O.;.4.8.#XXX3.&.XXN V OX>X#XOX>.$.<.x & a s a - < < < u - $ u a s l s < p s ",
"s p 1 s s s p $ - 1 < < > > p s s p > < , y k   @.%XXX!.7..X!. .O.+.>.6.=X,X&X#X6.5.oX2.x $ s s a > < < < < < < $ u s s l a a l ",
"s a a l s p $ & < < < 1 1 - p s s p < < 2 $ } <.4.7.3.7.3.:.b k 2.=X+X&X$X+X2.o.] ] ] =.c # a s a > < < u < < 1 - - u s s l s s ",
"s s s s p $ $ > < < > 1 > > 2 s l p > < > h &.= } 7.<.<.$.z i O <.>X=XOXi.#.(._._._.).(._ + s s a - > < > 1 > < < > $ 1 a s s s ",
"s s s a $ $ > > > > > > > $ p s s p - > > < ; h $.v z k u i a @.>X:X$X+X$./.[.).(.|.[.^.t & s s s < - & > > - > $ - - - a s a s ",
"s a s p 1 p p p p p p p p p a s s a p p 3 2 > b ] $ < < u h 5.<.oX=XOXi.c t d t `.}.[./.d , s s s s s a a a a a s a a a s s s s ",
"s s s s s s s s s s s s s s s s s s s s s l l 3 k s s f 1 o.$.$ ~.OX~.} ` 1 f < {.{.'.^.d f s s s l s s l l l l s l l l s s l s ",
"s s s s s a a s s a s a s s s s s s s s a s s s a s s s a v h $.&.k >.` _ a i [ |.}.[.^.d a s s s s a a a a a a a a s s s s s s ",
"s a s a u < > > > > < - % > p s s a 1 2 p 1 1 u u < u u s p & ..@.y >.] X > X ' ].(.(.{ t > s s a > - > - - > - $ $ > p s s a s ",
"s s s s a > & - - - $ - $ $ p s s p $ - - - > - - - < a s l s b } } k x 1 1 > X b >.5.@.h O p n i % 1 1 < > > < > 1 a s s s a s ",
"s a s s s a p < 1 < 1 < < > u s l p > < < > < < < 1 a s s a a :.:.-.y < l l i & B <X=X&XOX*.v > n # X o 1 2 1 < p s l l s a p a ",
"s < 1 a l s s p < < < u > > p s s p ; > 1 < < 1 p s s s s 1 < -.3.| : a s s s u > i.,X,X=X=X&.qX4XZ 2Xt.- $ > p s s s s p > p s ",
"s p - u s s s a p < < < 1 - p s l p > 1 < < < u a s s a < - : :.3.| # a s s s s i p B @.&X7.-XpXH M.C.R.S N n p l s s a > > p s ",
"s p - > < a l s s p < 1 < > p s s p > - < < u a s n s u 1 $ o  .-.| $ < a s s s s < & O a V pXQ g.g.D g.Q tX9.2 l s p > > > p s ",
"s u - > < < a l s s p 1 > > p s l p < < u p s s s % $ $   n -Xu.O.k - < > i s s s s u u $ j E 0.9X9X0Xw.9X4Xo l s p < > 1 > p s ",
"l p > > 1 > 2 a s s a p < > p s s p ; < p a s s 1 9.4X8Xd.N r.3X0Xs.o u > > a s s s s i u   f.zXjXjXwX2XyXp s s p > < < < > u s ",
"s p > < < < - 1 a s s a u - p s l p > p s s s > f.pXsXsXsXqXA D L N $ , 1 > < p a s s s $ C zXzXjXsXd.yXq.u f p > < < < < - p s ",
"s p > < < < < - 1 a l l a < p s s p < p s n $ 9.tXyXpXyXeXrX2XS k.Q : < < u > < a s s n # d.zXlXzX4X8X5Xo l a > < < < < < > p s ",
"s p > < < 2 < 1 < < a l s a a s s a s s s a p s.Y.d.2X8XwXtX9XY g.T.j > < < 1 > > a s n # f.zXzXyXf.pXs a a > < 1 < u < < > u s ",
"s p > > < > 1 < < > < a s s a s s a s s s > 3 d.wX8Xf.f.s.t.-XE S n.p > < < > < < % a n ; 9.kXjXf.pXq.% s > > < < 1 > < > > p s ",
"s p $ > > > - > > > - < s s s s s s s s 1 > $ X a 9.t.2X5X4X2Xs.A 4 $ > - > > > > $ % p s % 5X8XwXqXO s > - > > - > > - > $ p s ",
"s a p p p u p p p p 2 u s s a s s a s s p p a p u - # $ n 9.w.3X9Xu.% p u p p p p a i a s s % s.yXn a a p a p p p p u p u p s s ",
"s s s s s s s s s s s a s s s s s s s s s l s s s l l n a < $ > n m a s s s s s s s s s s s p n N i s a s s s s s s s s s s s s "
};
