/* XPM */
static char *result[] = {
/* columns rows colors chars-per-pixel */
"64 64 234 2 ",
"   c #030204",
".  c #040509",
"X  c #0B0608",
"o  c #05090C",
"O  c #0A0A0E",
"+  c #130B0B",
"@  c #1A0A0A",
"#  c #060A15",
"$  c #0D0D12",
"%  c #120E13",
"&  c #160E15",
"*  c #0E1115",
"=  c #0D121A",
"-  c #0E1B1C",
";  c #111116",
":  c #1B1214",
">  c #14141B",
",  c #18151E",
"<  c #15181E",
"1  c #19191D",
"2  c #270A0B",
"3  c #251315",
"4  c #2C1515",
"5  c #231A1B",
"6  c #2C1818",
"7  c #331717",
"8  c #3B1717",
"9  c #341C1C",
"0  c #3A1C1C",
"q  c #000D2B",
"w  c #0D1625",
"e  c #171720",
"r  c #191620",
"t  c #171820",
"y  c #1B1C25",
"u  c #1D1E28",
"i  c #061436",
"p  c #341D22",
"a  c #0C2C2E",
"s  c #122323",
"d  c #1E212A",
"f  c #192729",
"g  c #152C2D",
"h  c #192D31",
"j  c #173537",
"k  c #1A3434",
"l  c #1C3C3C",
"z  c #272626",
"x  c #21222B",
"c  c #322325",
"v  c #273536",
"b  c #223D3E",
"n  c #373335",
"m  c #46090D",
"M  c #580101",
"N  c #480E13",
"B  c #48121A",
"V  c #411E1E",
"C  c #561A17",
"Z  c #6A0F0F",
"A  c #771517",
"S  c #492518",
"D  c #762D09",
"F  c #781722",
"G  c #442222",
"H  c #4C2525",
"J  c #4F2829",
"K  c #532426",
"L  c #532A2A",
"P  c #5B2D2D",
"I  c #5B2E31",
"U  c #453035",
"Y  c #583434",
"T  c #6E2D2F",
"R  c #633131",
"E  c #6B3535",
"W  c #6F3838",
"Q  c #703737",
"!  c #743A3A",
"~  c #7B3E3E",
"^  c #02194E",
"/  c #1F3F41",
"(  c #132B50",
")  c #11316E",
"_  c #002576",
"`  c #194544",
"'  c #1D4154",
"]  c #145252",
"[  c #224242",
"{  c #244C4C",
"}  c #294949",
"|  c #304F4F",
" . c #255353",
".. c #2A5555",
"X. c #265B5B",
"o. c #2C5B5B",
"O. c #325C5C",
"+. c #385F5F",
"@. c #2F605A",
"#. c #2A5164",
"$. c #284777",
"%. c #1D6666",
"&. c #2E6464",
"*. c #2C6868",
"=. c #326464",
"-. c #386563",
";. c #346B6B",
":. c #396E6E",
">. c #2C706F",
",. c #3A716C",
"<. c #247475",
"1. c #327474",
"2. c #3B7473",
"3. c #3D7977",
"4. c #347A7A",
"5. c #3C7B7B",
"6. c #434546",
"7. c #4B4C4D",
"8. c #455658",
"9. c #575051",
"0. c #7F4040",
"q. c #71575A",
"w. c #476C6D",
"e. c #536F71",
"r. c #4C7777",
"t. c #417C7C",
"y. c #557878",
"u. c #69696A",
"i. c #757575",
"p. c #7A7C7D",
"a. c #85080F",
"s. c #86161E",
"d. c #B90000",
"f. c #B21308",
"g. c #8E2710",
"h. c #A93210",
"j. c #891B21",
"k. c #9A1925",
"l. c #AD1D2D",
"z. c #B71C2A",
"x. c #8F3433",
"c. c #AE2327",
"v. c #BB212E",
"b. c #D31C1E",
"n. c #CB3718",
"m. c #CC2A27",
"M. c #C22231",
"N. c #D52537",
"B. c #80403F",
"V. c #E0411B",
"C. c #A03546",
"Z. c #D63849",
"A. c #834242",
"S. c #8B4646",
"D. c #8F454A",
"F. c #8E4848",
"G. c #944B4B",
"H. c #994D4D",
"J. c #8E524F",
"K. c #9F5151",
"L. c #935B5C",
"P. c #B8464C",
"I. c #A15252",
"U. c #965D61",
"Y. c #8D7C7A",
"T. c #A5716E",
"R. c #D7515E",
"E. c #E74B5C",
"W. c #DB5C69",
"Q. c #E75969",
"!. c #35807F",
"~. c #41807F",
"^. c #002986",
"/. c #053089",
"(. c #133E96",
"). c #113DA0",
"_. c #254684",
"`. c #0E47BA",
"'. c #1044B1",
"]. c #2B55AC",
"[. c #407F80",
"{. c #0E4BCA",
"}. c #1A5ADB",
"|. c #2E67D6",
" X c #1A5BE1",
".X c #1D62ED",
"XX c #2968EB",
"oX c #2D75FE",
"OX c #3D8383",
"+X c #3A8788",
"@X c #438484",
"#X c #458985",
"$X c #458B8B",
"%X c #498D8D",
"&X c #5B8282",
"*X c #459191",
"=X c #4B9393",
"-X c #479E9E",
";X c #4F9A9A",
":X c #509797",
">X c #519C9C",
",X c #668787",
"<X c #749090",
"1X c #769696",
"2X c #55A3A3",
"3X c #58A8A8",
"4X c #5AABAB",
"5X c #5DB2B2",
"6X c #888888",
"7X c #889898",
"8X c #989898",
"9X c #AE8982",
"0X c #B4A09F",
"qX c #8BA3A3",
"wX c #96A4A4",
"eX c #90B0B0",
"rX c #A5A6A5",
"tX c #ACB1AF",
"yX c #B7B9B9",
"uX c #C7BEB6",
"iX c #BDC6C7",
"pX c #C5C5C5",
"aX c #CCCCCC",
"sX c #CCD5D5",
"dX c #D4D6D6",
"fX c #DCDCDB",
"gX c #E0D9D1",
"hX c #D6E0E2",
"jX c #E5E6E6",
"kX c #EBECEC",
"lX c #F2F7EC",
"zX c #F4F3F3",
"xX c #FAFAF6",
"cX c #FEFDFD",
/* pixels */
"u u u u u u y u y y u y u u u u u u u u y u u u u u u u u u u u u u y y u u y u u u y u u u u u u u y u u u u u u u u u y u u u ",
"u t ; ; ; ; ; ; ; > ; e u u y u u y u y y > e > > 1 > > > < u u u t > ; ; ; ; ; ; ; ; e y u y u u y u y y > > > 1 > e e > r y u ",
"u t $ % ; % ; ; ; $ > u u u y u u u u u y > ; ; % ; ; ; ; ; t u u t $ % ; ; ; $ % * > u u u u u u y u u y > ; ; ; ; ; ; ; ; t u ",
"u t * > > > > > > e u u u t y u u y t u u y r > > > > > ; ; t u u > ; > > > > > > e u u u t y u u y y y u u t ; > ; > > ; ; t u ",
"u e ; > > > > > t u u u e $ > y u < $ > u u u > > > > > > $ t u u t ; > > > > r t u u u t $ > y u > $ e u u u e > , > < ; ; y u ",
"u t ; > > > > r u u u < $ $ e u d t $ $ < u u u t > > e o o y u u t ; > > > > t u u u t $ $ t u u t $ $ e u u u t > > > > ; t u ",
"u t ; > > > t u d u t $ $ = e u u t ; $ $ , u d u e e ; + $ y d d t $ ; > > y x d x , $ * * t u u t ; $ $ e u u d t > > > > y u ",
"u e ; ; > y u x u r $ % > ; e u u y ; > ; $ t u x x > 3 4 . = > > ; & & : & > > = = O ; > ; t u u y ; > * $ e u d u t > ; ; t u ",
"u t ; > t u u u t $ ; > > ; t d u t ; > ; O O , > < ; R 3 : J E ~ B.A.S.A.A.~ W R G : % # $ t y d t ; > > ; $ < u d u t > ; y u ",
"u t ; r u u u t $ % > , ; ; t u x t ; > > $   6 P P E W ~ S.S.S.B.B.0.x.A.A.S.S.S.F.S.~ P 3 * y x t ; > > > ; $ r u u u e ; t u ",
"u t > u u u t $ * > > > > ; t u u t ; > > > ; . 4 R ! E ! ! ! ! ~ ~ 0.0.B.A.B.0.~ ~ ! B.S.A.E 3 t y ; > > > > ; $ t u u d > t d ",
"u y u d u t $ ; > > > > > ; t u d t ; > > $ : I W ~ Q ! Q Q ! ! ~ 0.0.0.A.S.A.A.B.~ ~ ~ ! ~ E : = < ; > > > > > % $ e u u u y u ",
"u u u u e $ $ ; > > ; > ; ; t u u t ; ; > O + 0 S.I.H.W S.S.~ 0.~ ~ ~ 0.0.0.~ 0.~ ~ ~ ! ! ~ E L J 3 . ; > > > > > % $ t u d u u ",
"u u u t $ $ ; ; ; ; ; * ; % t u d t * ; ; > O V W 0.H.R I H.K.A.H.F.F.G.F.F.F.F.S.S.F.S.F.F.S.~ G + O ; ; > ; ; ; ; $ $ t u u u ",
"u u u t > t t t t t t e t t y u u y t 1 y * 8 W R R R P H I G.R W K.I.F.E K.K.K.I.I.I.I.K.K.K.H.! P p O > t t y t y t > t u u u ",
"u u u u u u u u u u u u u u u u u u u u d > P R R R R L G V P L H W S.I H A.S.~ G.S.A.~ B.~ ! ~ A.R 0 + O t d y u d u u u u u u ",
"u u u u u u u u u u u u u u u u u u u u t 3 R R P P R J 7 + S L J L L L L I P J R ! P L E R R E ! E L + > u u u u u y u u u u u ",
"u y y y > ; ; ; e > > > > , u u u t < , * 0 E R R J L H ; - h V 6 0 L G 0 L L L L P L L R L L E ! P 3 O > e > > ; ; ; e y u y u ",
"u u u u y > % * ; ; ; ; ; * t u u t ; ; O G R P R J J K v 2.$X[ X { 9 3 l 7 L 0 8 L L 4 J L L R W ! P 9 X O ; ; ; * > y u u u u ",
"u u y u u y e > > > > > > ; t u u t ; > $ J R P L H : 6 : =X2X>X[ #X~.b 2X;.3 z ..6 8 - 9 V V P E K 3 : $ $ > > > e y u u y y u ",
"u t > u u u u e > > , > > > t u u y > > $ K R L L S v *.l @X>X2X2X>X4X4X2X5Xt.+.4X5.s 3.O.% z H R P . = > > > > t u u d y > e u ",
"u t ; > y u u u t > > > > ; t u u t ; > $ J P J J H f ;.} :.;X>X2X4X4X4X4X3X4X3X2X3X>X>X=Xt.2.6 J L 3 * > > > r y u u u e ; e u ",
"u t ; ; > u u u u > > > ; ; t d u t ; > $ G P L G 2 z ;.[ 2.$X>X4X4X5X4X4X4X3X2X3X>X>X>X=X>X+X9 0 & @ $ 1 > t u u u y > ; $ e u ",
"u t ; ; > > y u u u t > > > t u u y ; > * @ G L G - > =X@X5.4.[.;X4X4X4X4X4X3X3X2X2X3X2X,.!.$Xp 4 = O * > t u u u u > > > * e u ",
"u t ; ; > > > u d u y 1 > ; t u u t ; O O     0 0 X.k 2.*.,XqXwX&X@X4X4X3X2X2X3X2X3X4X3X:XO.O.c % y ; > > u u u y > > > > ; 1 u ",
"u t ; > , > > > y u u u < ; y u d < O [ :.@X .6 9 5.t.{ qXcXcXcXxX1X+X3X2X2X:X:X2X3X4X2X2X:.2.5 > u ; , u u u u > > > > > ; < u ",
"u t ; > > > > ; > u u u y > t u d % ..>X$X#X!.5 5 @X;.e.cXcXxXzXkXkXr.;X>X3X2.:.2X>X%Xt.5.;X;X> $ , < y u x u > > > > > > ; t u ",
"u t ; > > t > > > > y u u y y u r f =X@X2.2.2.1 1 %XX.qXcXxXcXkXfXxX1X$X2X>X>X=X=X=XeXkX7X3.@Xl 2.* t u u y < ; > > > > > ; r u ",
"u t ; ; > > > ; > ; > u u u u d % / *Xt.2.2.5.s s ;XX.1XcXkXjXjXjXxX,X@X>X>X>X:X-X3XcXcXkXy.:.[ 2X@.; d u > ; > > > > > ; ; > u ",
"u t $ ; ; ; ; ; ; ; ; > y u u d ; b *X5.2.2.t.l j ;X=.-.jXcXkXjXcXdX-.*X:X=X=X:X+XeXcXkXjX,Xo.{ $X@Xt u > ; ; ; ; ; ; ; ; ; t u ",
"u y t < t t t r t 1 t t u u y d y t $XOX2.2.5.{ { =X@X..&XfXxXxXsXw.3.>X=X=X=X=X$X1XcXzXkXt.;.[ $X@Xs t 1 t t < , < < t t t y d ",
"u u u u u u u u d d d u u u u u x % / $X@X5.t.=.@.2.%Xt.....r.w.X.;.%X%X=X%X=X%X*X5.tXkX1X=.5.l %X5.= u u u u u u u y u u y u u ",
"u u u u y u u u u u u u u u u u u u $ h =.=. .:.2.-.2.=X%X,.;.:.@X=X=X*X*X=X=X*X$X$X;.=.&.$Xt.b =Xb ; u e e > e r > r > e e y u ",
"u y ; ; ; ; ; ; ; ; ; > u u y u u y u r O O X y &.5.t.:.;.@X%X%X+Xr.8.O.| 7.w.OX$X$X$X$X$X[.o.` { $ u u y > ; ; ; ; ; ; $ $ t u ",
"u e $ $ ; % ; ; * % > y u u u u u u u u u & N A m x  .X.{ 3.~.e.q.U.9XuXyXT.L.9.o.OX%X$X;.l O $ ; y u u u u e > > > > > ; = y u ",
"u e ; > > > > > > e u u u t t u u t t u y & m C s.k.A B c b [ x.x.iXxXcXcXxXlXgXJ.7. .b $ O y u u $ ; y u u u e > > > > > ; t u ",
"u t * ; > > , > t u u u e $ > u u r $ t > m s.l.g.j.v.v.v.z.g.C 8 K 9XjXrXL.T.Y.c & $ $ $ ; u d y $ $ > y y u u e > > > > ; y u ",
"u e ; > > > > t u u u t $ $ e u u t $ $ @ A k.v.n.A l.c.M.N.V.c.h.x.Z.C.x.Z.Z.N w u < ; ; $ y u y ; ; $ > y u u u e > > ; ; y u ",
"u t ; > > > t u u u t $ ; ; e u u y ; $ 2 Z A a.c.Z k.v.M.N.n.s.b.x.Q.E.E.Q.R.c u e $ ; ; ; y u y ; > ; $ r y y u u e > > ; t u ",
"u e ; > > y u u u e $ ; ; ; t u u t = + 2 4 b @.n 8 l.M.M.N.h.z C @ D.Q.Q.W.Y e t $ > e ; ; u u y ; > > = $ > y u u u t > ; t u ",
"u e ; > r u u u r $ ; > ; ; t u u r % w 2 n !.4Xw.a.k.z.v.m.D <.a   > U I p e e = ; > r > ; u u u ; > > e ; $ e u u u u > ; t u ",
"u t ; 1 u u u t $ ; > > > ; 1 u u y O / b v t.%Xt.z j T F S v 4.o.- > > a a > ; $ > > > ; ; y u y ; > > > > ; % > y u d u > t u ",
"u t > u u u t $ ; > > > > ; t u u y $ ..!.;.:.%X:X>X4.z n +X>.OX*X+X{ b 1.s . * s = ; r ; ; u u y ; > > > > > > = > u u u u y d ",
"u y u u u t $ ; > e > > > ; t u u t $ { -.2.@.#X=X>X3X$X-.w.] o.4.+X+X4.;.&.;.&.*.*.t > > ; y u y ; > > > > e > ; ; e u u u u u ",
"u u u u e $ $ ; ; > > > > ; e u u r e _.$.$.' #.=.#X:X;X:X@X#X2.` >.4.4.OXOX-X&.O l l $ ; $ y u y ; ; > ; > > ; ; ; $ > y u u u ",
"u u u t $ $ ; ; ; ; ; ; ; $ e u u t = _ '.XX].'.).' ,.@X%X2X3X{ * h &.1.4.<.4.1.>.s X = * > u u u ; ; ; = % % * ; ; ; ; y u y u ",
"u y u y > t t t e e e e e e y u u u w _ `..X|.) {.{.) :.=X>X3X@X< & f X.>.1.1.l l &.= y y u u u u u y y u y y y u y y y u u u u ",
"u u u u u u u u u u u u u u u u u y w ^.`.}.oX( q i q O.[.=X>X>X~.[ r y f g {  .$ l t u d u u u u u u d u d d d d u d d u u u d ",
"u u u u u u u u y u u y u u u u u u w _ `.}.oX$.@ : ^ a ,.%X>X..k [.f y , > * X.e = e y y y u u u u y y y y y u y y t u u u u u ",
"u y u y t ; ; ; ; ; > ; ; ; t u d y e _ ). XoX].< < ^ ^.' 3.o.5.* ;.v r ; $ * g $ ; ; ; ; > u u u ; $ ; ; ; ; $ * O ; u u u u u ",
"u u u u y ; ; ; % * ; ; % $ e u d , # _ /.) (.) $ % ^ ^ ' @.# 2.l s y u y > ; $ ; > ; > ; ; y u u ; ; > > > > > ; > u u u u y u ",
"u u y u u u > > > > ; > ; = t u d t $ q ( ,.o.. $ e # = X.l j o.> r u u d u t > > > > e > ; u d y ; > > > > > > 1 u u u u t t u ",
"u > > u u u u > > < > > > ; t u u y $ ; 3.3X>Xh > u - a ] <.` > r > t u u u u e > > > > ; ; y u y % > > > > > t u u u u t ; t u ",
"u e = e u u u u t > > r > ; e u u y O j %X>X2Xh r d w ] <.<.j , y $ ; y u u u y e > > > > ; y u y = > > > > > u u u u t ; ; t u ",
"u t * ; > u u u u r > > > ; t u y t $ =.;X2X=.> x y a %.<.X.- u e ; = ; y u u u u e > r ; ; u u y = > > > r u u u u t > > ; t u ",
"u e ; ; > > t x u u t > ; ; e u u r g @X2X;Xd u x > ` %.<.j ; u e ; > > ; t u u u u r > > ; u u y % ; > t u u u u r ; > > ; t u ",
"u < ; > > > > u u d y , > ; t u u $ f +.-...y x y * j / ` > y u t ; > > ; ; y u u u u e ; ; y u y ; > > u u u u t ; > > > ; t u ",
"u 1 ; > > > ; > y d d y , ; > x : <XhXpXdX9.. = > wXtXrX8X, O > y ; > > > > ; r u u u u > ; y d u ; > u u u u r ; > > > > ; t u ",
"u t ; > > > > > > u u u y > t x $ Y I.g.H 7.i.u.v Y x.C p 7.u.7.* O > > > > > ; y u u u u ; u u y > y x u u t > > > > > > ; r u ",
"u 1 ; > , > > > > > y d u y u > c f.b.Z Y.kXcXcXkXq.M C 7XsXfXdXrXx $ > > > e ; ; t u u u u u u u y d u u t ; > > > > r > ; t u ",
"u e ; ; > ; > > > ; > y u u u t 0Xb.a.i.zXjXzXxXcXcX8.<XpXyXaXaXfXrX, ; > > > ; > % y u u d u u u u u u t ; > > > > ; > ; = t u ",
"u t $ ; ; ; ; ; ; ; % > u u y x P.d.T dXjXkXzXcXcXcXpXY.pXuXaXsXaXdX9.  > > ; ; ; ; ; y u u u u u u u y > ; ; ; ; ; ; ; ; % t u ",
"u y t t e t t t r t , , u u u & M M 7.6X6X6X7X8X8X8X6XU i.i.i.p.p.p.6.. y t t t y t t t u y u u u u y t t t t t t t r t t < y u ",
"u u u u u u u u u u u u u x : } yXsXaXpXpXpXpXpXaXfXpX7.6XrX8X8XyXtX6X> u u u u u u u u u u u u u u u u u u d u u u u u u u u u "
};
