/* XPM */
static char *result[] = {
/* columns rows colors chars-per-pixel */
"64 64 230 2 ",
"   c #060305",
".  c #05050A",
"X  c #09050A",
"o  c #04090D",
"O  c #0B0A0E",
"+  c #170707",
"@  c #080C13",
"#  c #0D0D13",
"$  c #120F13",
"%  c #1A0F13",
"&  c #0E1015",
"*  c #0D1319",
"=  c #0B191B",
"-  c #111116",
";  c #191315",
":  c #14141B",
">  c #1A171E",
",  c #15191F",
"<  c #24090A",
"1  c #39060A",
"2  c #231212",
"3  c #2D1616",
"4  c #261B1B",
"5  c #2B191A",
"6  c #361516",
"7  c #331A1B",
"8  c #3A1E1E",
"9  c #010923",
"0  c #091927",
"q  c #161720",
"w  c #191721",
"e  c #171820",
"r  c #1B1C25",
"t  c #1D1E28",
"y  c #071738",
"u  c #261D24",
"i  c #0D2828",
"p  c #132224",
"a  c #1B2326",
"s  c #1E202A",
"d  c #162A2B",
"f  c #182E35",
"g  c #0B3232",
"h  c #163231",
"j  c #1B3334",
"k  c #1D3B3C",
"l  c #22222C",
"z  c #2A2729",
"x  c #3D2224",
"c  c #332628",
"v  c #36312A",
"b  c #263939",
"n  c #39393B",
"m  c #500A08",
"M  c #431C1D",
"N  c #481F1F",
"B  c #571212",
"V  c #6D0F0D",
"C  c #790000",
"Z  c #671417",
"A  c #761519",
"S  c #55261D",
"D  c #72250E",
"F  c #432222",
"G  c #4B2525",
"H  c #4F2829",
"J  c #552726",
"K  c #532A2A",
"L  c #5B2D2D",
"P  c #5A3535",
"I  c #612B2B",
"U  c #622B36",
"Y  c #643232",
"T  c #6B3535",
"R  c #6D3838",
"E  c #703737",
"W  c #743A3A",
"Q  c #7B3D3D",
"!  c #7E403F",
"~  c #011646",
"^  c #011F5D",
"/  c #183543",
"(  c #233E40",
")  c #001B62",
"_  c #0C337B",
"`  c #173979",
"'  c #593D42",
"]  c #1E4747",
"[  c #145252",
"{  c #224444",
"}  c #284B4C",
"|  c #344A4A",
" . c #28544F",
".. c #274D51",
"X. c #265252",
"o. c #2C5555",
"O. c #255858",
"+. c #2C5C5C",
"@. c #395556",
"#. c #315C5B",
"$. c #19605F",
"%. c #31605F",
"&. c #1D546C",
"*. c #2A496A",
"=. c #2A5565",
"-. c #294872",
";. c #1C6868",
":. c #256566",
">. c #2C6363",
",. c #2E6C6B",
"<. c #336363",
"1. c #3A6765",
"2. c #356A6B",
"3. c #386C6C",
"4. c #35726E",
"5. c #297474",
"6. c #357373",
"7. c #3A7474",
"8. c #3B7871",
"9. c #347A7A",
"0. c #3C7B7B",
"q. c #484849",
"w. c #505155",
"e. c #5A5456",
"r. c #67494C",
"t. c #7B4444",
"y. c #655255",
"u. c #41696A",
"i. c #457676",
"p. c #5F7F7F",
"a. c #686868",
"s. c #6D7777",
"d. c #737373",
"f. c #7A7A7A",
"g. c #960202",
"h. c #940A0B",
"j. c #88131F",
"k. c #AE0000",
"l. c #A01D1D",
"z. c #922517",
"x. c #B32F17",
"c. c #8C1922",
"v. c #AA1C2B",
"b. c #B61A28",
"n. c #9F313B",
"m. c #BC212F",
"M. c #A52F36",
"N. c #BD2230",
"B. c #CD2313",
"V. c #CC2228",
"C. c #CE3026",
"Z. c #CB2235",
"A. c #803844",
"S. c #BD3946",
"D. c #CA3746",
"F. c #834242",
"G. c #8B4646",
"H. c #8F4847",
"J. c #8F4848",
"K. c #944B4B",
"L. c #9A4C4D",
"P. c #8F4D56",
"I. c #9E5151",
"U. c #AB4A57",
"Y. c #A25252",
"T. c #8F7575",
"R. c #CF4957",
"E. c #E9495C",
"W. c #E85364",
"Q. c #F65D6D",
"!. c #41827D",
"~. c #012A87",
"^. c #0E398F",
"/. c #063CAA",
"(. c #254D8D",
"). c #3B7E80",
"_. c #1346B1",
"`. c #2E59AE",
"'. c #1756D6",
"]. c #295CC7",
"[. c #1B5DEC",
"{. c #1F61E8",
"}. c #2A6FF8",
"|. c #3C8282",
" X c #3E8C8C",
".X c #438383",
"XX c #458A86",
"oX c #448B8B",
"OX c #498E8E",
"+X c #449191",
"@X c #4B9494",
"#X c #4E9798",
"$X c #4E9A9A",
"%X c #519C9D",
"&X c #658585",
"*X c #6A8989",
"=X c #779797",
"-X c #55A4A4",
";X c #57ABAB",
":X c #5AABAB",
">X c #5CB0B0",
",X c #7DA1A1",
"<X c #848484",
"1X c #879999",
"2X c #949494",
"3X c #AD9795",
"4X c #A7A59D",
"5X c #91A7A7",
"6X c #A4A4A4",
"7X c #A9A8A8",
"8X c #AFB5B5",
"9X c #B3B3B3",
"0X c #B7B7B8",
"qX c #BCBCBC",
"wX c #CAB2A8",
"eX c #B7C2C2",
"rX c #C7C9C9",
"tX c #CED2CE",
"yX c #C7D5D5",
"uX c #D4D4D4",
"iX c #DCDDDB",
"pX c #E0DCC9",
"aX c #E9DCD4",
"sX c #DDE3E3",
"dX c #E3E4E4",
"fX c #E8E7E7",
"gX c #EBECEC",
"hX c #EDF1F1",
"jX c #F6F5F5",
"kX c #FEFEFE",
/* pixels */
"t t t r t t w t w t t r t t t t t t t t r t t t t s t t t t t t t t t w t t t w t t w t t t t t t t t t s t t t t t t t t t t t ",
"t w : - - - - : - - - q t t w t t r r t e : > : : : > : , : r t u , : - - - - : - - : q t r r t t r t r w : : , > : q : : , r t ",
"t e # & - - - - - - : t t t t t t t t t t : - - - - - - & & , t t , # - $ - * $ $ & : t t s t t t s t r t : - - - - - - - # , u ",
"t w - - : : : : : e t t t r w t s e w t t t , : - : - : : - w s t e & - : : : : : q t t r w w s t w e t t t : : : - : : - * e t ",
"t , - : : : : : w t t t e # : t t , # w t t t , : : > : : - e s t q * : : : : : e t t t > # : t t e & , t t t : : : : , : - w s ",
"t e - - > : : w t t t > @ # , t s , # O : t t t w : : - # : w t t q $ : : : : w t s t e # # , t t e @ O , t t t w : : : : - w t ",
"t , - : : : w t s t , # - - , t s w - - # w t t s w q . # - , l t w : : : q r l s t > # # - , t t w - & # w t t s w : : : & e s ",
"t e - : : w s t t e # - : - : t s e - - - # , s s t - X - : e r e * o o @ * e e r : # - : - , t t e : : $ # , t s s w : : : e t ",
"t e - : w t t t q # - : : - w s s e - : : & # w l e 7 3 o o ; 5 x G H H H H G x 4 O o @ - - w t s e - : : - # , t t t w : : w s ",
"t e - w t t t e # & : : : - , t s e - : - - O . * # Y 7 x Y F.H.J.J.J.J.H.H.J.J.G.! Y F ; O w s s w - : : : - # , t t t : - e t ",
"t e : t s t e # $ : : : - - , t s w - : #   2 G H Y W Q H.F.! W Q Q Q t.t.! Q Q W ! F.G.! 8 @ s s w - : : : : - # e t t s : e s ",
"s w t t t e # - : : : : : - > t s w - : : : o 2 Y W T W R W Q ! ! F.F.F.F.t.n.t.! Q W W Q H ; : w , - - > : : : $ # e t s t r s ",
"t t s r : # $ - : : - : : - e t t e * - $ O F Y Q W W W E W W W Q Q ! A.F.! ! Q ! W W W W Y L 3 o , - - : : : : - # # e t s t t ",
"t t s w # # - - - - - - - # e t t e - - O O 7 W I.Y.W Q K.G.H.G.F.G.F.G.G.G.G.G.H.H.J.K.K.J.! 8 ; : - - - - - - - - # & w t t t ",
"s r t w : , e e e e e e e e r t t r w e r * % T W J.R H ! Y.! G.Y.I.K.Q I.I.I.I.I.I.I.I.L.K.F.W J 2 o O , w e w e r w : w t r t ",
"t t t s t t t t t t t t t t t t t t s t t ; Y Y Y L L H G R L H F.I.W H G.H.F.K.G.Q Q W R T Q W Y 7 X , s t s t s s a t t t t t ",
"t t t t t t r t t t t t t t t t t t s l : 5 T Y Y Y K G 3 G K H K Y K K L Y G Y R K L Y L Y Y Y L 2 - l l t t t t t t t t t t t ",
"t r r r q - - - : q : : : > r t s w : e # F Y Y K L L 3 X ; G F M K H M L K K L L K K L K L E Q Y 7 ; # : : : : - - - e r t w t ",
"t t t t w : - - - - - - - - w s t e & - O L Y Y L H L 5 h %.b < d 8 6 p 7 J 8 3 J K 2 G K K Y L L G + o # - - - - - : w t t t t ",
"t r r t s r q : : : - : - - e s t e - - $ L L Y L F F 6 3.%X%Xb o.XXa XX0.4 4 +.z 6 { z < 7 L E F o # : : : : : : : t t t t t t ",
"t , : r s s t q : : : > : - e r s r - : % Y L J K 7 d 4 o.-X%X%X.X;X-X-X:X@X#.;X@X{ .X8.j } 8 L K ; - : : : : : : t s t e : e t ",
"t e - : r t t r q : : : : : e s t w - - $ Y Y H K M X.4.+.#X-X-X;X:X>X;X:X:X:X-X-X-X%X-X#XoXz M 3 % & : : : : : t t t r : * e t ",
"t , - : : t t t r > , : : & w s r e - : # J K K G M X.o.b 0.@X-X:X>X:X:X:X-X;X-X-X%X-Xi.XX@Xc 3 * & O : : : w t t s t : - & q t ",
"t w - - : : r s t t , : : - e t t r - : @ F L K 8 + | .X2.OX|.@X:X:X:X:X;X;X-X-X-X:X;XXX2.8.c % s e - : , w t t t t : : : - e t ",
"t , - : : - , t t s t : : - w s t e - e # + 7 H 7 i j %X7.3.*X*Xi.$X:X:X;X-X-X-X-X:X:X;X2.+.z ; s e ; : , e s l r : : : : - w s ",
"t , $ : : : : : r t t t > - e s t e : # # = . 7 7 4.o.X.&XgXkXkXyXi.$X-X-X-XXX$X-X;X@XoX@X#Xb X s r & : s t s e , - : : - - e t ",
"s w - - > : : - : t t t e , , t r r O b .X#X0.5 3 ).8.1.hXkXkXhXkXeX7.-X%X%X<.@X%X+X,X=X7.%Xk o.e , : r l t s : ; : : : : - e t ",
"t w - : : : q : - , w l t t w t s * k %XXX0.|.l 2 OX>.1XkXkXkXgXdXdXi.#X%X%X-XOX X5XkXkX*X0.k @X7.@ t t t r : : : : : : : - , t ",
"t e - - : : : - : - : t s t t t s : .XoX7.6.0.j : #X+.1XkXhXfXdXfXsXi.#X%X#X%X#XOXyXkXhXqX2.j 7.#Xb , s r : - : - : : : - - e t ",
"t e # $ - - - - - - - : r t t s r p XX.X7.7.0.{ = #X2.u.hXkXdXdXkXeX>.$X@X#X@X#XoXyXjXjXeX2.{ 7.@Xo.: s , & - - - - - - - $ e t ",
"t r , , e e e e w w e , t t e t t , 0.XX7.7.i.+.h OX.XX.*XgXkXkXyXu.i.#X@X@X@X@X X=XkXkX&X9.o.2.#X{ : t w w e e w e e e e e r t ",
"t t t t t t t t s s s s t t s t s : { @X0.7.0.2.{ 0.OX0.X.1.*X&X#.6.#XOXOXOXOXOX@X6.&Xp.>.@X<.3.0.* t t r t s r t t r t r t r t ",
"t s t t w t t t r t r t t t t t t t # X.oX.X0.7.3.%.7.OXoX7.>.2..X@XOX+XXX X+X+XOXOX9.9..XOX .>.p : u t w e q q : q q : q e w s ",
"t w - - - - - - - : - : r t r t t t t # 0 j p i 2.0.0.7.7..XOXOX Xu.w.y.e.r.w.@.0.XXOX@X7.( O * : t t t w : * $ - - $ - & # w t ",
"t e # # - - - - - $ : t t t s t t r t s > # + m 6 b X.>...1.|.i.P.T.wXpXaXaXwXT.y.u.6.X.e # w t t q t t t t : : - : : : : - e s ",
"t e - : : : : : : q t t a w w t t w w r l , < B Z A A M z b { Q n.4XfXkXkXiXpXpXt.5 * - * - t s w * * r t t t q : : : q : - w s ",
"t e - - : : : , e t t t : # : t t , # q r ; Z c.l.D v.b.b.v.l.Z m 6 L.3X3XM.S.J = 0 w w & # t s t # # - t t t t e : : : : & w s ",
"t e - : q : : w t t t e # # e t t w # # * 1 j.v.Z.x.j.N.V.Z.C.z.x.B E.D.D.R.E.U r l : - - - w t r - $ # - r t t t w : : : & e t ",
"s w - : : : w t t t e # - - , t s e - - . 1 A A j.z.A N.m.V.C.V V.D U.Q.W.Q.R.u t : & : : - r t t * : : # q t t s r : : : - e s ",
"t w - - : w t t t q # - - - w t s w - & < < > O.9.x A N.m.C.C.v n + w U.U.I.c r w - - : - - t t w - - : - # - t t s t , : - e s ",
"t e - - w t s t , # $ : : - e t t w : - - 1 | OX%X' h.v.Z.V.x.,.:.. & q r i q : o O : : - - t t t - : : : - # q t t t t : - w s ",
"t e - , s t t w # - : : - - , t s e - - X.z } i.OX.X@.x j.J v 5.0.+.f e >.j . e X.{ , : : - e l w - : : : q - - : t t s t : e s ",
"t e : t s t e # - : : : : - w t s e - p 7.0.2.8.@X#X:X%X#.X.} +.O.). X,.5.X.6.9.] { ] @ : & t t t - : : : : : - # e t t s r r t ",
"t r s t t : # - : : > : : - w s t w & , %.8.!.+.8.XX#X%X%XOXXX#Xo.]  X9.|.|.+X9.k d O : : - w t r - : : : q : : - - q r t s t t ",
"t t s s w @ $ - : - : : - - , t s w $ y ` -.=.*.*.=.#.!.XX@X;X$X( i :.6.9.9.9.9.>.,.j $ : & e l r & - - - : : : - - # : r t t t ",
"t t t e # # - - - - - - - # e t t w # 9 ~._.].(._.{._.-.7.@X$X-X#X] 0 ( ,.,.,.6.= = ] @ - * t s t : - - & - - $ - - - & r t r t ",
"t t t w : , w , e e e e e e w s t t r * ^ '.}.}.(.^.'._....XOX%XXX0.7.: d f d f >., , w r r t t t t t w t r w t t r r r t t t t ",
"t t t t t t t s t t t t t t t t t t u w ^ /.'.{.}.`.y y ~ o.XX@X.Xo #.o.: r u - ] a t s s s s t t s s s s s s t s s s s t t s t ",
"t t t t t t r t r t t r t t t t t t s w ~ ~._.'.[.}.0 ~ /.^.>...%.#.p j w r t e , q t w w t t t t t r r e t t r r e r t t t t t ",
"t w t r e - - - - - - - - - w t u r : , & ~ ~._ (.&.h ~ _.^.<.h / %.- e : & # & # $ * $ * : t t t - # - - - & # # - - r t t r t ",
"t t t r w : - - - - & $ # # e t t , & - - O / 1.XX-Xo.9 ) f  .0 j d w s r : : : : - : : - - r t r - - : : : : : - : r t t s t t ",
"t t r t t t : : : : : : : & e s r : - O = o.XX#X-X;X| $ o i $.$.$ > s t s t w : : : : : : - t t t - : : : : : : , u s s t w e r ",
"r e , t t t t : > : : : : : r : l s b 0X@.oX#X-X#X3.s r & [ 5.5.r - w t t t t : : : : : - - t s w - : : : : : w t t t s e - e t ",
"t , - : t t t t q : : q : o o P 9XC.g.7XrX#.#X<.r > s w i ;.5.;.= * - w t t t t e : : q : - w s r - : q : : : t t t t e - - e t ",
"t w - - : t t s t q : : $ | x g.B.k.k.C 3X8Xi : t s s : g ;.5.] : : - : w s t t t , : : - - t t r - : : : : t t t t w : - - e t ",
"t , - - : : r t t r w :   a.rXB A r.y.r.G e.w s s w : @ g ;.;.i > - - : - e t t t s w : : - r t r - - : , t s t t e - : : - e t ",
"u , - : : : : t t u e e :   6X8Xs.iXdXhXsXq.* u w > $ @ ..#.+.0 w : : : : : w t t s r q - - t s r $ : e t t t s e - - : : - w t ",
"t , - - : : - : t t t t e * @ rX2X2XgXfXkXkXn * , : @ s.eX7X7X'   . @ : : - - w t t s t : - w s r - : t t t t e - : : q : - e t ",
"t e - : : : : : : t t t r w * z uXf.0XjXjXkX2X. > : X G I m 1 q.d.a.n . q : : - e s t s t - t s r : r s t t w : : : : : : - e t ",
"t e - : > : : : : : t t t w t * w.iXd.uXkXkX6X. , # n l.g.m <XtXiXiXtXa.X q : : - w t s t t t t t t t s t e - : : q : : : - e t ",
"t e & - : : - : : - : r t t t l @ d.tXd.fXkX2X  , O T.M.m a.rX0XrXuXuXtXq.@ > - - - e s t t t t t t t t e - - : : : - : - - w t ",
"t e & - - - - - - - * : t t r t s o 6XrX<XgXq.O > # S C N 6X6X9X0XqX0XqXf.o : - : & : w t t t s t t t w : - - - - - - - - # e t ",
"t r w e , w q e e e e q w t t t t t # rX9Xq.- , , & 6 N q.a.a.a.d.d.f.<Xa.: q w e w e e r t t t t r t r e w w e e e e e e e r t ",
"t t t t t t t t t t t t t t t t t t q z f.@ t l r l 2X9X9X7X7X7X6X6X8XqX2Xz w t t t s t t t t t t t t t t t s t t t t t t t t t "
};
