/* XPM */
static char *result[] = {
/* columns rows colors chars-per-pixel */
"64 64 228 2 ",
"   c #040204",
".  c #04060A",
"X  c #0B0508",
"o  c #05090C",
"O  c #0C0A0E",
"+  c #190404",
"@  c #130B0D",
"#  c #1B0B0C",
"$  c #060A10",
"%  c #0D0E13",
"&  c #0E0E19",
"*  c #110D14",
"=  c #021313",
"-  c #0E1115",
";  c #0D1219",
":  c #0E1B1D",
">  c #111116",
",  c #1B1214",
"<  c #14141B",
"1  c #19161D",
"2  c #15191E",
"3  c #1B1A1D",
"4  c #2A0709",
"5  c #350B0C",
"6  c #360D10",
"7  c #221415",
"8  c #221619",
"9  c #2A1919",
"0  c #381415",
"q  c #331A1B",
"w  c #3A1C1C",
"e  c #030C25",
"r  c #0B1924",
"t  c #171720",
"y  c #191621",
"u  c #171820",
"i  c #1B1C25",
"p  c #1D1E28",
"a  c #051537",
"s  c #201F2A",
"d  c #371D20",
"f  c #0D2527",
"g  c #142225",
"h  c #172426",
"j  c #1E212A",
"k  c #162A2B",
"l  c #1A2B2C",
"z  c #162A34",
"x  c #1A3334",
"c  c #1C3B3C",
"v  c #222225",
"b  c #21222B",
"n  c #27282A",
"m  c #2C2A2C",
"M  c #3D2122",
"N  c #39262C",
"B  c #222530",
"V  c #2C3636",
"C  c #243B3C",
"Z  c #363839",
"A  c #4F0B0A",
"S  c #441C1C",
"D  c #491818",
"F  c #780203",
"G  c #700E0D",
"H  c #681617",
"J  c #731617",
"K  c #76230E",
"L  c #571F23",
"P  c #442222",
"I  c #4C2424",
"U  c #4F2828",
"Y  c #512525",
"T  c #532A2A",
"R  c #5C2E2E",
"E  c #473232",
"W  c #5C3033",
"Q  c #652829",
"!  c #712F31",
"~  c #643131",
"^  c #6B3535",
"/  c #6F3838",
"(  c #703737",
")  c #743A3A",
"_  c #7C3E3E",
"`  c #061742",
"'  c #001253",
"]  c #1A3847",
"[  c #1C3059",
"{  c #263F41",
"}  c #24375D",
"|  c #00206A",
" . c #7A3D46",
".. c #124848",
"X. c #165556",
"o. c #254447",
"O. c #234B4B",
"+. c #2C4E4E",
"@. c #3B4A4B",
"#. c #284D55",
"$. c #255252",
"%. c #2A5454",
"&. c #265959",
"*. c #2C5C5C",
"=. c #375556",
"-. c #315E5D",
";. c #32615E",
":. c #215765",
">. c #2C6464",
",. c #266A6A",
"<. c #326464",
"1. c #346B6B",
"2. c #396969",
"3. c #337371",
"4. c #327474",
"5. c #3B7574",
"6. c #3D7874",
"7. c #357B7B",
"8. c #3D7B7B",
"9. c #444446",
"0. c #4C4B4C",
"q. c #5B484E",
"w. c #575759",
"e. c #6E4C4D",
"r. c #5A605F",
"t. c #416767",
"y. c #426B6C",
"u. c #576969",
"i. c #417D7D",
"p. c #4B7A7B",
"a. c #577B7B",
"s. c #676566",
"d. c #6B6B6B",
"f. c #747475",
"g. c #7C7C7D",
"h. c #960101",
"j. c #890E12",
"k. c #89121C",
"l. c #8C2E0F",
"z. c #932117",
"x. c #AF3719",
"c. c #9B1C28",
"v. c #A51A29",
"b. c #B41C2A",
"n. c #8B353E",
"m. c #923F3E",
"M. c #BB212D",
"N. c #A42939",
"B. c #BD2032",
"V. c #D20100",
"C. c #CB2F1C",
"Z. c #C01E2C",
"A. c #C22231",
"S. c #DB3237",
"D. c #E32B36",
"F. c #CA3948",
"G. c #824141",
"H. c #8A4545",
"J. c #924A4A",
"K. c #9A4E4E",
"L. c #85535C",
"P. c #9E5050",
"I. c #A04955",
"U. c #A45254",
"Y. c #8E6C6B",
"T. c #A87C7C",
"R. c #D14950",
"E. c #F25666",
"W. c #41807E",
"Q. c #002B86",
"!. c #0A3795",
"~. c #0C3990",
"^. c #1A4498",
"/. c #2B7F84",
"(. c #1846AD",
"). c #114DC5",
"_. c #1350CD",
"`. c #2659C3",
"'. c #1F64ED",
"]. c #2B6FF3",
"[. c #3C8282",
"{. c #3C8888",
"}. c #3D8E91",
"|. c #438484",
" X c #438987",
".X c #458B8B",
"XX c #4F8888",
"oX c #498D8D",
"OX c #469292",
"+X c #4B9393",
"@X c #479F9F",
"#X c #4E9A9A",
"$X c #539393",
"%X c #519D9D",
"&X c #658686",
"*X c #778E8E",
"=X c #539FA0",
"-X c #55A5A5",
";X c #57A8A8",
":X c #5AABAB",
">X c #5DB0B0",
",X c #848384",
"<X c #878B8B",
"1X c #988887",
"2X c #879A9A",
"3X c #919191",
"4X c #A28B87",
"5X c #98B0B0",
"6X c #A5A5A5",
"7X c #A8ACAC",
"8X c #AAB2B2",
"9X c #B3B8B8",
"0X c #BCBCBC",
"qX c #CFB2A8",
"wX c #B8C6C6",
"eX c #C7C9C9",
"rX c #D3D2D1",
"tX c #D3D4D4",
"yX c #DBDBDB",
"uX c #E2DACA",
"iX c #DEE5D4",
"pX c #EBE6DE",
"aX c #DDE1E1",
"sX c #E3E4E4",
"dX c #EBEBEB",
"fX c #EEF0EB",
"gX c #F5F5F5",
"hX c #FDFDFD",
/* pixels */
"p p p p p p i p i i p i p p p p p p p p p p i s p i p i p p p p p p p p p i p i p i i p p p p p p p p p i s p i i p p p p i p p ",
"p u > > > > > > > > > t p i i p p i i i y 2 2 2 2 1 t 1 2 2 u p s u > > > > > > > > > u p p i p p i i i y 2 2 1 2 1 2 y 2 1 u p ",
"p 2 % * * * * * > > 2 i p p p p p i p p i 2 * * > * * & * * y p p u % > > * & > * > < p p p p p p p p p i 2 > * * & > * > * u s ",
"p u > < < < 2 < < y p p p i y p p i u p p i t < > < < < < > u p p 1 > > < < < < < 2 p p i u i p p i u p p i 2 < < > < < > > u p ",
"p t > < 2 < 2 < u p p p 2 % > p p 2 % 1 p p p t 2 2 < 2 < % 2 p p u > < 2 < < < u p s p 1 % < i p 2 % t p p p 2 < < 2 < 2 > u p ",
"p u * < < < < y p p p 1 % % t p j u % % t p p p y < < < >   2 p p y > < < 1 1 u p j p 1 % % 2 j p y % % u p p p y < < < < * i p ",
"p y > 2 < 2 y p p p 2 % % > y p p u > % % u p p p y < 2 % X u j p u % & < ; 2 i j p u > - > 1 j p u > * % u p p p y 2 < < < u p ",
"p 2 > > < y p p p u % > < > t p p i > < % % t p s s i % q , ; t < < , , 8 8 8 8 1 > . o - > 1 s p t > < % % u p s p y 2 > > u p ",
"p u > > u p p p u % * < < > 1 p p u > < < % O < u 2 : 7 R @ q U ( G.H.H.H.H.H.H.G.) R M 7 o - h s u > > < - % 1 p p p u < > u j ",
"p u > 1 p p p u % * < < < * u p j u > 2 2 *     9 P w ~ / G.H.H.G._ _ _ _ _ G.G.G.G.H.H.H./ M 1 p i > < 2 < * % u p s p y > u p ",
"p u 2 p p p u % > < < 2 < > u p p u > > < < 2 %   P ) ) / ) ) ) ) _ e.n.G.H.G.G.G._ _ ) _ _ _ 7 ; u > < < < < * % u p p p 2 u j ",
"p i p p p u % * < 2 < < < > t p j u < < < 1 % , P ~ / / / / / ) ) _ _ n.G.G.G.G.G._ _ ) / _ / I w 8 O < < < 2 < * % 2 p p p p p ",
"p p p p 2 % % < < < > < > > u p p u > > < >   7 T H.U.J./ H.H.G.H._ _ G.G.G.G.G.G._ G.G.G.G.G.) I O . > 2 < > < > % % t i p p p ",
"p p p u % % * * > > > > > * u p j u - > < > < o M _ G.J.R ~ K.K.G.P.K.K.H.J.K.K.K.K.K.K.P.P.P.K.) U w O O % > > > > % % u s p p ",
"p p p u 2 2 1 u u u t u u 2 i p p i i u 2 3 - q ( ~ ~ ~ T U ~ G.T ) P.K.R / P.J.K.K.K.J.J.G._ _ G.^ w @ O 2 u u i u u 1 u p p p ",
"p p p s p p p p p p p p p p p p p p p i j j 1 T ~ ~ ~ R U M w T U U ^ ^ U T ) ~ ^ _ ^ T ^ ~ R ^ ) ^ T @ < b b p j j p p p p p p ",
"p p p p p i i s p i p p p p p p p p p p i p 1 ~ ~ R T R P 7 @ M T P U U I U R U T R R U R R T ~ ) ^ 9 % i i i p i p p p p p p p ",
"p i i i 2 & * < 2 t 2 < 2 1 u p p p 2 2 1 > 9 ~ ~ ~ U R I 3 c O.9 3 9 I 9 9 I U w I R w P R T R ^ ^ ~ P X % 2 < < & > t i p i p ",
"p p p p i & * > * * * * * * u p p u - > < $ 0 ~ R ~ U w D Z OX=X;.: 8.n C W.n 5 k n D 9 3 P 0 T ~ ~ 7 @ % % * * * * > i p p p p ",
"p i p p s i 2 2 < < < < > & u b p 1 > > 1 $ q ^ T T Y 3 n 3 OX=X-Xi.#X-X+X:X%XC 6.%XC {  X3 k M R ^ , $ 2 < < < < 1 p p p i i p ",
"p 2 2 i p p p t 2 < < 2 < > u p p u * < 2 % q ^ U U Y m 7.O.8.-X%X;X;X:X>X;X:X:X-X;X-X+X-X8.oXC S P w % 2 < 2 < 2 p p p i 2 2 p ",
"p t * 2 i s p i t < < < < > i p p i > > < % 9 R U U I m -.C <. X%X;X:X:X:X:X;X;X-X=X=X=X#XXX-X+.0 @ O X < < < y i p j i < & t i ",
"p 1 * > 2 i p p p 1 < < > > u p p u < < 1 % 7 R T U # , 8.2.|..XoX-X:X:X:X:X;X;X-X-X;X;X+X<..X@.6 < ; - < 2 1 i s p p < > > t p ",
"p t > < > < p s p i t 2 < < i p p i > > 2 < X # M I l : 8.oX<.a.&Xi.+X:X:X;X;X-X-X=X:X>X;X.X$.=.# 2 < < 2 1 i p p i < < < > t p ",
"p u > > < & 1 p p p i 1 < * u p p u > 2 & * 2 = @ S o.5.O.2.wXhXhXiX&XoX;X-X-X%X%X-X;X-X+X+X|.t.X 2 < < 1 i j j p < > < < > u s ",
"p t * 2 < < > < p p p p 2 > u p p u > * x W.oXOX{ 5 +.+XO.wXhXhXgXgXsXXX#X-X-X5.6.-X#XoXXX5.;X<.h 2 % 1 p p j i 2 > < < < * 1 p ",
"p u > < 1 < < > < i j p i 2 u p b u & h +X.X5.|.%.+ 2.8.y.gXhXhXgXaXgX*X|.-X%X+XOXoX$XtXhX2Xi.%.3.i.% u p j p < > < < 2 < > u p ",
"p t > < < < 2 < < < p p p i i p p p * <.OX5.5.8.%.  6.8.2.gXgXdXdXaXgX*X[.%X#X%X#X}.5XhXgXsXp.O.<.%X%.> b i < < < 1 < < < > 2 p ",
"p 1 > > 2 > > 2 < > < i p p i p p p > 1.oX5.5.8.1.o 8.|.$.wXhXdXsXhXfXy..X#X+X#X%X.X5XhXaXdXp.o.*.OX2.< p < > < < 2 > < > > u p ",
"p u * % > > > > > > > 2 p p i p p b < %.OX5.5.5.5.k 6.OX*.y.eXhXhXsX&X1.+X+X+XOXOXoX$XgXhX0X3.<.+.+X1.> 2 > > > * > > > > * u p ",
"p i u 2 i t t t 1 1 u 2 i p p p p p i 2 W..X5.5.8.+.1.|.oX*.%.a.&X*.>.oXoXOXoX+XoX+X8.&X5X<.|.i.%.#Xc < i u u u u y 2 1 u u i p ",
"p p p p p p p p j j j j p p p p p p p < g 1.|.5.1.5.2.1..XoXi.1.1.8.+XOXOX|..XoXOXoX+X7.<.i.OX1.*.%.% s i p p p i p i p p i p p ",
"p p p p p p p p s i i i p p p p p p p p 1 % g i = #.5.5.5.1.5.+XOX{.2.w.0.0.q.q.-.8.|.oXOX|.<.: u - i p y 2 < 1 t 2 1 t 2 2 i p ",
"p i > > * > > > * & < 2 i p i p p i p p i 1 < & 6 A d C &.&.;.W.p.L.Y.qXuXpXuXqXT.q.y.8.2.x > < u j j j i < & * * * * & * * y p ",
"p t % * - > * * > * < p p p p p p i p p i < & * A J c.J H L n l W N.f.iXhXhXpXuXfXY.d f > & s b p u i p p p 2 > < > < < < > u p ",
"p u > > < < < < < u p s p u u s p i u p p p & 4 H c.K c.A.b.b.b.K H A n.T.4Xn.F.! ; < y 2 > i s i - > i s p p y 2 < 2 < < > u p ",
"p t > > 1 < < 2 u p p p 2 % < i p 2 % t p p , H c.B.C.J b.M.A.D.x.A.x.R.F.F.R.E.n.r p t % % p j i % % < i p p p 2 < < < > > i p ",
"p 2 * 2 < < < y p s p u % % 2 p p t % % y i # J k.k.M.K v.M.B.D.z.J z.m.E.E.E.R.N i t % > * i p i > & % > i p p i y < < < > u p ",
"p u > < < < u p j p u % * > u p p i * % % 2 4 6 M O.V 5 c.M.Z.D.l.X.p .  .U.I.E t u > > < > i p i > < > % 2 i p s p 2 < < > i p ",
"p u > > 2 u p p p 1 % * < > u p p i > > > * 4 M 4.-X|.j.v.M.M.C.Y /.o.* y p r r 1 % % < < - p p i > > 2 > % < p p p p 2 < ; u p ",
"p u > > u p p p 2 % * < < * u p p u > < & u C 0 3.XX8.Z h Q J E { 7.[.>.l l >.r   : ] 2 % - i p p & < 2 < < * 2 p p p p 2 & u s ",
"p y > 1 p s p u % * < < < > u p p u > < < l 1.*.<. X+X-X.XZ N }.>.3.{.}.8.4.1.O.*.1.*.>.g % i p i * > < < 2 > & 2 i p p i < u s ",
"p u 2 p p p u % * 2 < < > > u p p u > < < n 3.XX6.6.+X$X;X%X7.2.$.$.&.7.[.7./.[.@X&.o f u % p p i * < < < < < > * 2 p s p p p p ",
"p i p p p y % > < 1 < < < > u p p i > 2 * ` :.{ ] ] O.6.oX+X#XoX%X6.f c ,.4.7.4.4.3.3.o.% > i p p > > 1 < < < 2 > & 2 i p p p p ",
"p p s p t % % > < > < 2 > > 2 p p u - < @ ` ~.(.(.^.(.~.&.6..X=X-X3.O * : *.4.4.4.O.$ >.g O u b i * > < > 2 > < 2 > % 2 i p p p ",
"p p p u % % > > > > > > > % t p p u - - > e | _.].^.(._.!.$.oX+X%X;X%.: O - h k x *.k - : < p j p < * > > * * > * * % > u p p p ",
"p i p u 2 u u u u u u y u u i p p p u i < a !._.'.`.e a e z 6..X=X.X1.6.l u 2 y O c c < u p p p p p i i p i p i i i i i p p p p ",
"p p p p p p p p p p p p p p p p p p j j 1 a !._.'.].1 3 * ' ] W.W.W.- ;.+.1 B b j g 2 j j j p p p p j j j p p j j p b p p p p p ",
"p p p p p p i p p i p p p p p p p p p p 3 a Q.).'.].} j s ` ' *.z %.*.g x y p i i u i i i p p p p p i i i p i p u p i p p p p p ",
"p i i i 1 & > > > > > > * > u p p i 1 2 1 e | ~.^._.[ 1 p & ] 2.f %.o.* % % % % > > * & % < p p p > % > * * % % % % > i p p i p ",
"p p p p i < > > * * * - * % u b j < > O O g %.6.;.c   i j u l f ..O.] h i < > < < < > < > > i p p > > < < < > < > 2 i p p s i p ",
"p i p p p i 2 < < 2 < < 2 & % ; g v O k -. X#X%X:Xo.1 j p j 1 : X.,.,.p s p t t < < < 2 < > p p u > < < < < 1 < u p s p p u u p ",
"p 2 1 i p j i y 1 < < > $ + w.1XA <XwX;.#X#X-X;XW.u p p i < i - X.,.,.f p p p t < < < 2 2 * i p p * * 2 < < < 2 p p p p u > u p ",
"i t & 2 p p p i 1 < * v Z A R.S.V.j.rX*X4.#X=.C j p p p < > i > ..,.,.g p p p p 1 < < < > > i p i > < 2 < < 2 p p p p i > * u p ",
"p t > > 2 i s p i u $ Z eX~ h.F G h.H tX@.u & y p p p 2 > > 3 2 ..,.X.o t p p j b 1 < < 2 * p p i > > < < t p p p p u > < > u p ",
"p y > > > 2 i p p p i   <X8Xw.8X7X7Xq.9.n ; p p j i < > < < i u f +.u.*Xm . t < > p y < > * i p i > < 2 1 i p p p y > < < > u p ",
"p 2 > < < < < i j p p 2 * eX3X7XdXfXhX,X$ s p p i 2 > < < > i < u.9X3Xe.V f.6X3X0.1 i 2 < > i p p & > 1 p p p p u > > 1 < * y p ",
"p 1 > < < < > 2 i j p j $ 9.rXf.yXdXhXhX9.t s i < < < < < - i u E L F A 7XyXyXyXyX,Xi j < > p j i > 2 p p p p y > < < < < & u p ",
"p 1 > < 1 < < > < p j p s   3X7X<XhXhXhXg.% p 2 > < < < > > u i L h.F *XeXqXeXtXeXeX0.& b > p p i < i p p p u < < < < 2 < > u p ",
"p u > < < < < < > 1 i p s i 1 eX,XeXhXhXg.$ y < < 2 2 2 > < u u 1Xh.S 6X0X9X7X<Xf.g.d.v i p p p p p b p p u > < 2 < < < < > y p ",
"p u * > 2 < < < > > < i p s & 0.tXY.dXgX0.O < < < < < < > > u u ! F U *Xr.d.g.g.6X9Xg.v u b p p p p p p u > < < > < < < > > u p ",
"p u - > > > * > > > * 2 p p b $ 7X0X5X7X$ > > < * * > > > > p 2 4 I s.,X3X6X,Xs.0.i X < p p p p p p p u < > > > > > > > > * u p ",
"p i u u u y u u u u t t p p p p p eXd.% 2 u u u i u u u y u s > r.6X<Xr.9.b % $ % t u u p p p p p p p u u u u u u u 2 y u 2 i p ",
"p p p p p p p p p p i p p p p p t m n u s p p p p p p s p p s y n n & & t i p p s b p p p p p p p p p p p p s p p p p p p p p p "
};
