/* XPM */
static char *result[] = {
/* columns rows colors chars-per-pixel */
"64 64 227 2 ",
"   c #0E0E13",
".  c #070918",
"X  c #0D0E1B",
"o  c #100F15",
"O  c #0F1015",
"+  c #0E111B",
"@  c #111116",
"#  c #1A1615",
"$  c #1C1915",
"%  c #14141B",
"&  c #18171B",
"*  c #16181F",
"=  c #1C1A1C",
"-  c #2B1E0F",
";  c #231C13",
":  c #271E15",
">  c #39260D",
",  c #2B2215",
"<  c #352915",
"1  c #3D2D1B",
"2  c #3C3618",
"3  c #161720",
"4  c #171820",
"5  c #1B1C25",
"6  c #1D1E28",
"7  c #201F28",
"8  c #1F2027",
"9  c #1E202A",
"0  c #242225",
"q  c #2A2423",
"w  c #2C2B24",
"e  c #24262B",
"r  c #322B22",
"t  c #3C2E20",
"y  c #2F302D",
"u  c #383627",
"i  c #353631",
"p  c #422D0C",
"a  c #4E330B",
"s  c #55350B",
"d  c #473713",
"f  c #45331D",
"g  c #423A1A",
"h  c #563C14",
"j  c #623F10",
"k  c #57470E",
"l  c #5C4511",
"z  c #68470C",
"x  c #71470C",
"c  c #74490C",
"v  c #65540C",
"b  c #725A0D",
"n  c #694A17",
"m  c #724C14",
"M  c #735716",
"N  c #7C5314",
"B  c #77620B",
"V  c #7E6118",
"C  c #4A4524",
"Z  c #59562D",
"A  c #6A5A26",
"S  c #766F31",
"D  c #6F714A",
"F  c #8C570B",
"G  c #935906",
"H  c #855C16",
"J  c #83680C",
"K  c #93720F",
"L  c #886917",
"P  c #986C16",
"I  c #AE730D",
"U  c #A87819",
"Y  c #8E6C24",
"T  c #8B7429",
"R  c #AB7D24",
"E  c #9B8210",
"W  c #AC860D",
"Q  c #BC970E",
"!  c #BA8618",
"~  c #BA9A15",
"^  c #988935",
"/  c #A98526",
"(  c #B48628",
")  c #B49A22",
"_  c #BB9030",
"`  c #BEA72C",
"'  c #C08317",
"]  c #C5911E",
"[  c #DDA700",
"{  c #DEA804",
"}  c #DDAB0C",
"|  c #D5AA17",
" . c #DCAC13",
".. c #E4A700",
"X. c #ECA600",
"o. c #E3A804",
"O. c #E4AB0A",
"+. c #E9AB09",
"@. c #F4A500",
"#. c #FCA500",
"$. c #FEAC01",
"%. c #F6AB0B",
"&. c #FFB401",
"*. c #FEBB01",
"=. c #FFBA08",
"-. c #E3B21D",
";. c #E7B81B",
":. c #FAB618",
">. c #C79227",
",. c #CB9C22",
"<. c #D29A24",
"1. c #C69B37",
"2. c #D1B12C",
"3. c #DAA934",
"4. c #EBBB25",
"5. c #F7BC26",
"6. c #E9BD35",
"7. c #FFC301",
"8. c #FFCC00",
"9. c #FFCD0B",
"0. c #FFD400",
"q. c #FEDB00",
"w. c #FFD60A",
"e. c #FECD15",
"r. c #FDC418",
"t. c #FFD310",
"y. c #FFDA17",
"u. c #FEE003",
"i. c #FEE20D",
"p. c #FEE112",
"a. c #FDE419",
"s. c #D7C439",
"d. c #EAC22E",
"f. c #F4C829",
"g. c #FFD429",
"h. c #FFDF2B",
"j. c #EBC839",
"k. c #F8C736",
"l. c #FFCF3B",
"z. c #F4D43B",
"x. c #FFD43C",
"c. c #FFDA3C",
"v. c #FDE724",
"b. c #FEE72D",
"n. c #FCE92D",
"m. c #FBEA37",
"M. c #FFE339",
"N. c #FCEB3A",
"B. c #8E8C50",
"V. c #989755",
"C. c #A2A159",
"Z. c #B8AF57",
"A. c #A3A768",
"S. c #B4A768",
"D. c #D2AB42",
"F. c #DDB441",
"G. c #D7B74A",
"H. c #C8B951",
"J. c #DCBC51",
"K. c #E2BA46",
"L. c #E0BE50",
"P. c #C2B56F",
"I. c #DAC549",
"U. c #D0C552",
"Y. c #E9C74A",
"T. c #F5C945",
"R. c #EDD648",
"E. c #F6D546",
"W. c #FCD34D",
"Q. c #E7C755",
"!. c #F4CE51",
"~. c #EED559",
"^. c #F6DA55",
"/. c #FADA57",
"(. c #F0D358",
"). c #F4DB5A",
"_. c #FBDA5A",
"`. c #FCEC43",
"'. c #F9E14A",
"]. c #FFE54B",
"[. c #FEEB4D",
"{. c #FAF04E",
"}. c #FCE451",
"|. c #FCEC54",
" X c #F7E15A",
".X c #FCE45C",
"XX c #FDEB5B",
"oX c #FAF155",
"OX c #FAF25B",
"+X c #D1C469",
"@X c #DBD775",
"#X c #E8D968",
"$X c #F5DA64",
"%X c #F2DC6C",
"&X c #E8D97B",
"*X c #F5DF70",
"=X c #F6E266",
"-X c #FCE464",
";X c #FEED63",
":X c #FBE56C",
">X c #FEEB6C",
",X c #FBF362",
"<X c #FBF36B",
"1X c #EBE87B",
"2X c #F4E273",
"3X c #F6E977",
"4X c #FDEC74",
"5X c #FCEE7B",
"6X c #FDF273",
"7X c #FEF27D",
"8X c #F8F87A",
"9X c #ECE582",
"0X c #F5EA86",
"qX c #FEF586",
"wX c #FDF986",
"eX c #F7F688",
"rX c #FEF689",
"tX c #FDF593",
"yX c #FAF991",
"uX c #FEF69B",
"iX c #FEF8A4",
"pX c #FCF9B9",
"aX c #FDFAC5",
"sX c #FDFBD8",
"dX c #FEFCE3",
"fX c #FEFDF3",
"gX c #FEFEFD",
/* pixels */
"6 6 6 6 6 6 5 6 6 5 6 5 6 6 6 6 6 6 6 6 6 6 6 6 6 9 6 6 8 5 8 9 6 6 5 5 6 6 5 6 6 6 5 6 6 6 6 6 6 6 6 6 6 9 6 6 6 6 6 6 6 6 6 6 ",
"6 4 @ @ @ @ @ @ @ @ @ 3 6 6 5 6 6 5 5 5 5 % 3 % % % * % * * 5 5 6 4 % O @ @ @ @ @ @ @ % 6 6 6 6 6 5 6 5 4 % % * * % * % * & 4 6 ",
"6 4   o @ o @ @ @ o % 6 6 6 6 6 6 6 6 6 5 % @ O o o @ @ O O * 9 6 3 O O O @ O @ @ o % 6 6 6 6 6 6 5 6 6 6 % @ o @ o o o @ o 4 7 ",
"6 4 @ @ % % % % % 3 6 7 6 4 3 6 6 5 4 6 6 5 3 % % % % % + O 4 8 6 3 O + % % % % % 3 6 6 6 4 4 6 6 5 4 6 6 6 % % % % % % @ @ 4 6 ",
"6 4 @ % % % % % 4 6 9 6 3   % 5 6 %   3 6 6 6 * % % % * % @ 8 9 9 4 + % % % % % 4 6 6 6 4   % 6 6 %   % 6 9 6 3 % * % % % @ 4 6 ",
"6 4 @ % % % % 3 6 6 6 4     3 6 6 4     % 6 6 6 4 % % % % o 4 9 6 % @ % % % % 4 6 9 6 4     * 6 6 4     4 6 6 6 4 % % % % @ 5 6 ",
"6 4 @ @ 3 % 5 6 7 6 %   o @ 3 6 6 5 @ @   * 6 6 7 4 % % % @ 8 y e 5 @ % % % 4 0 6 6 4     O 4 6 6 4 @ o   % 6 9 9 4 % % % @ 4 6 ",
"6 4 @ % % 4 6 7 6 4   o % @ 4 6 0 4 @ @ @   * 6 6 6 5 % q D A.S.A.D q % % 5 6 6 6 4   @ @ @ 4 6 6 5 @ % @   4 6 7 6 4 % % % 4 6 ",
"6 4 @ % 4 6 7 6 4   @ % % @ 4 6 6 4 + % % O   * 6 9 5 i V.@XeXwXwX1XV.i * 8 8 8 *   O + @ @ 4 6 7 4 @ % @ @   * 6 6 6 4 % @ 5 6 ",
"6 4 @ 4 6 6 6 4   @ % % % @ * 6 6 5 @ % % % @   4 6 i V.1XqXqXeXrXrX1XC.i 8 8 *     + * % @ 4 6 6 4 @ % % % @   4 6 6 6 3 @ 4 6 ",
"6 4 % 6 9 6 %   o % % % % @ 4 6 6 4 @ @ % % % @   0 B.9XeXqXqXrXqXqXwX1XV.y +   O % % % % O 4 6 6 5 @ % % % % @   3 6 6 6 % 4 9 ",
"6 5 6 6 6 4   o % % % % % @ 4 6 6 4 % % % * % % @ Z @XrXqXrXqXqXqXwXwXwX@XS $   % * % % % O 4 6 6 4 @ % * % % % @   4 6 9 6 6 6 ",
"6 6 6 6 *     % @ % % % % @ % 6 6 4 @ % % % % @ u Z.eXwXwXqXqXqXeX8XeXyXeXU.r   % % % % % O 4 9 6 4 @ % % @ % % %     * 6 9 6 6 ",
"6 6 6 4     @ @ @ @ @ @ o   4 6 6 4 O @ @ % @ = S 1XrXqXwXwXqX7X8XyXsXdXpX2X^ $ @ @ O O O O 4 5 6 4 O @ @ + @ @ @ @     4 6 6 6 ",
"6 6 6 4 % * 4 4 4 4 * 4 4 * 6 6 6 5 4 4 4 5 3 u +X0XqXqXwX8X8X<X8XpXgXgXfXpXU.C * 4 4 * * 4 5 6 6 6 4 4 4 5 4 5 4 4 4 * 4 6 6 6 ",
"6 6 6 7 6 6 6 6 6 6 6 6 6 6 6 6 6 6 9 6 9 6 e T 1XwXqXqX8X<X,XOX<XpXfXgXgXdX3X^ w 6 9 8 6 6 6 6 6 6 6 9 6 6 6 6 6 0 6 6 6 6 6 6 ",
"6 6 6 6 5 6 6 5 8 6 6 6 6 6 6 6 6 6 8 6 8 5 u H.qXqXqX<XOXOXoXOXOXiXfXgXgXfXuXs.C 5 8 8 6 6 6 6 6 6 5 6 8 8 5 5 5 9 5 5 6 6 6 6 ",
"6 5 6 5 3 @ @ @ % * % * * % 5 6 6 5 * & % = A &XwX8X,X|.{.{.{.{.oX,XsXgXgXfXeX'.S = % * % * 5 6 6 5 4 % * * * % @ + % % 5 6 5 6 ",
"6 6 6 5 5 % @ o O @ O O @ O * 9 6 *   O X ; / eX6XoX`.`.`.`.`.`.`.`.3XaXsXiX|..X2.> . + O   4 6 9 4 O @ O O O O @ O % 5 6 6 6 6 ",
"6 6 6 6 6 5 3 % % % % % @ @ 4 8 w g k B B K I.<X{.m.N.N.m.m.m.m.m.m.N.OX;X|.qXtXR.E b v v k g w 9 4 O @ % % % % % * 5 6 6 6 6 6 ",
"9 % % 6 6 6 6 4 % % % & 2 v L ^ S.P.+X&X1X9X0X`.n.n.n.n.n.n.n.n.n.n.n.n.|.rXsXdX3XR.Q.I.I.2.` ) E J b 2 % % * % 4 5 9 9 5 % 4 6 ",
"6 * @ % 5 6 6 6 4 * g K ) G.#X3X5XqXtXuXyX6X|.n.v.v.v.a.v.v.v.v.v.v.`.,XqXiXdXsXyXwXwX8X4X;XXX|.|.R.2.~ J 2 = 4 6 6 6 6 %   4 6 ",
"6 4 o @ % 5 6 6 r B ~ E..X4XrXrX7X6X7X,Xm.a.p.a.a.a.a.a.a.a.p.a.b.[.<XrXqXrXiXuXqXqXrXwXqX7XqXXX`.[.|..Xj.Q b w 6 6 5 % @ O 4 6 ",
"6 4 o % % % 5 u E -.'.>XwX6X7XwXrXqX;Xb.i.i.p.i.i.i.i.i.i.i.p.b.XXqXrXqXqXqXqXqXqXwXwXwXwXwX6Xn.i.p.v.`.|.z.| b 0 5 % % % O 4 6 ",
"6 4 @ % % + : J ;. X6X7XqXqXqXrXqX|.a.u.u.u.u.u.u.u.u.u.u.i.N.<XqXqXqXqXqXrXrXrXqXqXqXqXqXqXN.i.u.u.u.q.[.6Xf.W g 3 % % % @ * 6 ",
"6 4 @ % 3 X 2 Q z.4X7XqXqXqXqX5X`.w.q.q.q.q.q.q.q.u.u.q.w.`.7XwXwXqXqXqXqXqXrXqXqXqXqXqXqX|.y.q.q.u.q.b.<XwX'.| l X % * % @ * 6 ",
"6 4 @ % % X k O.).6XrXqXwXqX<XM.w.q.q.q.q.q.q.q.q.q.q.y.].7XqXqXwXqXqXqXqXwXqXqXqXqXwXrX;Xy.q.q.q.q.y.;XqXqX;X;.v + % % % @ * 6 ",
"6 % @ % 3 X k -.=XqXqXqXwX>Xh.w.0.q.0.0.0.0.0.0.0.0.w.[.qXqXqXqXqXwXqXqXqXqXrXqXqXqXwX<Xh.0.0.0.0.w.`.7XqXqX=X| l + % % % @ * 6 ",
"6 4 @ @ % + d |  XwXwXqX.Xg.0.0.0.0.0.0.0.0.0.0.0.t.].qXqXqXqXqXqXqXrXrXqXqXqXrXwXqX7Xc.0.0.0.0.0.h.6XrXqXqXR.! d @ % % % @ * 7 ",
"6 4 @ @ @ X < W T.7XqX].y.0.8.8.0.8.8.8.8.8.8.0.t.].qXqXqXqXqXqXqXqXwXrXqXqXqXqXwX7X].9.8.8.8.0.w..XqXwXqX7Xk.J $ @ @ @     4 6 ",
"6 6 * % * * = b 4.=X'.t.8.8.8.8.8.8.8.8.8.8.8.9.].7XqXqXqXqXqXqXqXrXqXqXqXqXqXqXqX}.e.8.8.8.8.8.c.5XwXqXwX X,.h 3 3 * * * * 6 6 ",
"6 6 6 6 6 9 6 f ~ k.t.7.7.8.7.8.7.8.7.8.8.7.9.c.7XwXqXqXqXqXqXqXwXrXqXqXqXqXqXqX.Xe.8.8.7.8.7.e.XXqXqXqX3X6.V 0 5 6 5 6 6 5 6 6 ",
"6 7 5 6 6 6 5 7 N  .f.7.7.7.7.7.7.7.7.7.7.9.x.5XqXqXqXqXwXqXrXrXqXqXqXrXqXqXrX>Xe.7.7.7.7.7.7.c.7XwXqXqXR.U 1 3 * % % * % % 6 6 ",
"6 4 @ % o o % @ , P ;.e.7.7.7.*.7.*.7.*.7.x.6XqXqXqXqXqXqXrXqXqXqXqXqXqXqXqX>Xg.7.7.7.*.7.7.e.-XrXrX7X/.] a O O @ O @ + @ @ 4 6 ",
"6 4     o @ o @   > I ;.r.*.*.7.*.*.*.9.E.4XqXqXqXqXwXqXqXqXqXqXqXqXqXqXwX4Xg.&.*.*.*.*.*.*.c.7XrX7X_.,.n 7 3 @ % % % % % @ 4 9 ",
"6 4   % % % % % @ 3 f U 4.r.&.*.*.*.=.x.5XwXqXqXqXqXqXrXrXqXqXqXqXqXqXqX4Xx.=.&.*.*.*.*.*.r.-XrX7X/.,.m e 6 6 3 % % % % % @ 4 6 ",
"6 4 @ % 3 % % * 4 6 9 f ! 5.r.&.&.=.x.4XqXqXqXqXqXqXqXqXrXqXqXqXqXqXqX4Xx.&.&.&.&.&.&.&.&.W.5XqX_.,.z ; 6 6 6 6 3 % % % % @ 5 6 ",
"6 * @ % % % % 4 6 9 8 5 p U 6.:.=.l.5XwXqXqXqXqXqXqXrXqXqXqXwXqXqXqX5Xl.&.&.&.&.&.&.&.&.:.>XqX_.,.z #   @ 5 6 6 5 4 % % @ @ 4 6 ",
"6 4 @ % % % 4 6 0 6 *   o > R 6.l.4XwXqXqXqXrXqXrXrXqXrXqXrXwXrXqX5Xl.=.$.$.$.$.$.$.$.&.W.wX7X6.N # + %   3 6 6 9 6 * % % O 4 9 ",
"6 4 @ @ % 4 6 6 6 *   @ % # L T.>XqXqXqXqXwXqXqXqXrXqXqXqXqXqXrX:Xk.$.$.$.$.$.$.$.$.$.:.>XrXrX!.A o % % @   @ 6 6 6 5 * % % 4 9 ",
"6 3 @ % 4 6 6 6 3   o % % - R $XqXqXqXqXqXqXqXqXwXqXqXqXqXqXqX$X5.#.#.$.#.#.#.#.#.#.#.W.qXqXqX$XY ; % % % %   3 6 6 9 6 % O 4 9 ",
"6 4 @ * 6 7 6 4   o % % % - ' $XqXqXqXqXqXqXqXqXqXqXqXqXqXqX_.5.#.#.#.#.#.#.#.#.#.#.5.4XrXqXqX:X( , % % % % @ @ 3 5 6 9 6 % 4 6 ",
"6 * % 6 6 6 4   @ % % * X > <.>XqXqXqXqXqXqXqXqXqXqXrXrX:XW.%.#.#.#.#.#.#.#.#.#.#.%./.qXqXqXqX:X>.> + % % % % @   3 6 9 9 5 5 9 ",
"6 5 7 6 6 3   o % % # * @ d 3.4XqXqXqXqXqXqXqXqXwXrX7X_.5.%.#.#.@.@.@.#.@.@.@.@.#.k.5XqXqXqXqXqX3.a % 4 % % % 3 @ @ % 6 6 9 6 6 ",
"6 6 7 6 3     % % + % % % l 3.qXqXqXqXwXqXqXqXrXqX$XT.%.@.@.@.@.@.@.@.@.@.@.@.@.:.$XrXqXqXqXqXrXK.l o % @ % % @ @ @ O % 5 6 6 6 ",
"6 6 6 4     @ @ @ @ o @ # m K.qXqXqXqXqXqXrXqX4X!.:.@.@.@.@.@.@.@.@.@.@.X.@.@.%.!.qXqXqXqXqXqXrXY.N # o @ @ @ @ @ @ O O 5 6 5 6 ",
"6 6 6 4 % * * * 3 3 5 3 : M K.qXqXqXqXrXqX4X_.4.X.X.X.X.X.X.@.X.X.X.@.X.X.X.@.k.5XqXqXqXqXqXqXrXQ.H q 5 5 5 5 5 6 5 5 5 6 6 6 6 ",
"6 6 6 6 6 6 6 6 6 6 6 7 7 M F.qXqXrXqX3X/.6.X.X.X.X.X.X.X.X.X.@.X.X.X.X.X.X.4.4XqXqXqXqXqXqXqXrXQ.Y r 6 9 9 9 9 9 9 9 6 9 6 6 9 ",
"6 6 6 6 6 6 6 6 5 6 6 6 0 n 3.:XrX5X^.4.+.X.X...X.X...X.X.o.+.-.+...X.o.o.4.:XqXqXqXrXqXqXqXqXrXQ.Y < 5 6 5 5 5 5 5 5 6 6 6 6 6 ",
"6 5 6 5 4 @ @ @ @ @ @ @ # j <.=X-Xj.O...................o.:.Y.$X!.4.o.o.4.:XrXqXqXqXqXqXqXqXqXqXQ.P - X o @ o o     @ 5 6 6 6 6 ",
"6 6 6 6 5 @ o @   @ @ o @ a >.!.} ..{ ....{ ..{ [ [ O.-.K.*X*XQ.L.(.j.d.:XwXqXqXqXqXqXrXqXqXwX4XF.H : @ % @ % @ @ % 5 6 6 6 5 6 ",
"6 6 5 6 6 6 % % % % % % @ > ! Y.;.[ { { [ [ [ { } -.j.%X2X%X1.H H _ (.:X5XqXqXwXrXqXqXqXqXqXqX3X<.x : % % & % % 3 6 9 7 6 5 3 6 ",
"5 3 % 6 9 6 6 * % % % & @ - G 3.).4.} } }  .4.6.Q.%X2X%XD.P h 0 = s P G.*X3X0XqXqXqXqXqXqX0X5X%X>.s & % % & % 3 6 6 6 6 3 @ 3 6 ",
"6 3 @ % 5 9 6 5 3 3 % % % # j ! Q.2X~.Y.Y.(.#X3X3X$XD.U x , 3 6 * o , m ( J.2X3X3XwXqXqXqXqX5XK.I p X & % % 3 6 6 6 6 5 @ o 3 6 ",
"6 4 @ @ % 6 9 9 6 3 % % % o < G I L.*X2X2X2X%XL.1.U m p & o 5 7 3 @ @ # f N R J.*X3X3X3X3X2XL.' c ; X % % 3 5 6 6 6 4 @ % @ 3 6 ",
"6 % @ % % % 5 6 7 5 3 3 % o 5 f F I R >.>.( U H j r & % % o 3 7 3 @ % % # = f N R 1.G.L.F.>.I F f   % % 3 6 7 7 6 4 % @ % @ 3 6 ",
"7 * @ % % @ % 6 6 7 5 3 % @ 3 7 r h x x x j f 0 0 % % % % @ 4 5 3 % % % % @ 4 0 f n N F G G x t 6 @ % 3 6 6 6 6 4 @ % % % o 3 6 ",
"6 * @ % * % @ % 6 6 6 6 % @ 3 6 9 5 # = 0 0 7 6 * @ % % % + 5 8 3 o % 3 % % @ 5 6 7 0 , < : 0 7 5 o % 6 6 6 6 4 % % % * % o 3 6 ",
"6 * @ % & % % @ % 5 6 6 5 % 3 6 6 4 % 5 6 7 5 % @ % % % % O 4 5 3 @ # % % % @ % 5 6 6 6 6 + 5 6 5 @ 6 7 6 6 4 % @ % % % % @ 3 7 ",
"6 * @ % % % % % @ 3 6 6 6 5 5 6 6 5 5 6 6 5 % % % % % % % @ 5 6 3 @ % % % % % % @ 5 6 6 7 6 7 7 6 6 6 6 7 4 @ % % % 3 % % @ 3 6 ",
"6 3 o % % % % % % @ % 6 6 6 6 6 6 6 6 6 5 * O % % % % % % O 4 5 3 o % % % % % @ @ @ 5 6 6 6 6 6 6 6 6 6 4 @ % % % % % % % @ 3 6 ",
"6 * o o @ @ @ @ @ @ + % 6 6 5 6 6 5 6 6 * O O % @ @ @ @ @ @ 5 6 4 o o @ @ @ @ @ @ @ @ 5 6 6 6 6 6 6 6 5 % @ o @ o @ @ @ o   * 6 ",
"6 5 * 4 4 4 4 * * * % 3 5 6 6 6 5 6 9 5 * 4 4 4 4 4 4 5 4 4 5 6 5 4 3 3 3 3 5 3 4 4 4 5 6 6 6 6 6 5 5 5 4 4 4 4 * * * * * * 6 6 ",
"6 6 6 6 6 6 6 6 6 6 6 6 6 6 6 6 6 6 6 6 6 8 6 6 9 8 9 5 6 6 6 6 6 6 6 6 6 6 6 6 6 6 6 6 6 6 6 6 6 6 6 6 6 6 7 6 6 6 6 6 6 6 6 6 "
};
