/* XPM */
static char *result[] = {
/* columns rows colors chars-per-pixel */
"64 64 218 2 ",
"   c #0D0E13",
".  c #100F15",
"X  c #0F1015",
"o  c #111116",
"O  c #14141B",
"+  c #18171F",
"@  c #16181F",
"#  c #1A181E",
"$  c #171720",
"%  c #171820",
"&  c #1B1C25",
"*  c #1D1E28",
"=  c #211E24",
"-  c #201F29",
";  c #1E202A",
":  c #222125",
">  c #23222B",
",  c #2E292F",
"<  c #2A2730",
"1  c #2C2A32",
"2  c #322D34",
"3  c #363239",
"4  c #3A353B",
"5  c #3C353A",
"6  c #43393E",
"7  c #443C41",
"8  c #4B3E43",
"9  c #513F42",
"0  c #4C4044",
"q  c #4B4249",
"w  c #524448",
"e  c #55464B",
"r  c #5B4A4D",
"t  c #5B4D52",
"y  c #5F5055",
"u  c #6C4E52",
"i  c #645256",
"p  c #6B5458",
"a  c #6D595B",
"s  c #73565A",
"d  c #735A5D",
"f  c #7D5C5E",
"g  c #7C5D61",
"h  c #7A6264",
"j  c #9F0E0D",
"k  c #A00D0D",
"l  c #A80E19",
"z  c #A51514",
"x  c #AA1716",
"c  c #A61813",
"v  c #AA1816",
"b  c #A71219",
"n  c #AA131B",
"m  c #A61D1D",
"M  c #AE1819",
"N  c #B1171E",
"B  c #B3191D",
"V  c #A7221F",
"C  c #AC1323",
"Z  c #AB1B22",
"A  c #AF1829",
"S  c #B21323",
"D  c #B51B20",
"F  c #BC1A24",
"G  c #B91829",
"H  c #B51F32",
"J  c #AC2A25",
"K  c #AD2628",
"L  c #B2232F",
"P  c #B52834",
"I  c #B7323B",
"U  c #B6363B",
"Y  c #C11B27",
"T  c #C41C29",
"R  c #CA1E2B",
"E  c #CE202C",
"W  c #D3232D",
"Q  c #DA262E",
"!  c #DE282F",
"~  c #C62A38",
"^  c #D62932",
"/  c #DF2830",
"(  c #CA303C",
")  c #D6333C",
"_  c #E42B31",
"`  c #EA2E32",
"'  c #ED3033",
"]  c #E4373D",
"[  c #F43335",
"{  c #F53739",
"}  c #F53A3C",
"|  c #BB3543",
" . c #BD3C46",
".. c #B43C48",
"X. c #BD3E4A",
"o. c #C63942",
"O. c #CA3845",
"+. c #CD3E4A",
"@. c #D53A44",
"#. c #DC3B43",
"$. c #D33F48",
"%. c #E83E43",
"&. c #F63E40",
"*. c #9E444D",
"=. c #884C52",
"-. c #934D56",
";. c #825459",
":. c #A9424D",
">. c #BB4349",
",. c #AD4E58",
"<. c #B94B56",
"1. c #BC4B56",
"2. c #A4545C",
"3. c #AD545D",
"4. c #B7545C",
"5. c #895C61",
"6. c #995960",
"7. c #A55E64",
"8. c #B45C64",
"9. c #BC5C65",
"0. c #876568",
"q. c #8D696C",
"w. c #92676B",
"e. c #9A6A6D",
"r. c #8C6E72",
"t. c #956D71",
"y. c #9A7274",
"u. c #A6686D",
"i. c #B4656B",
"p. c #BA646C",
"a. c #A76C71",
"s. c #BB6C71",
"d. c #A87679",
"f. c #B67377",
"g. c #BD7176",
"h. c #C3414E",
"j. c #D4414B",
"k. c #DC444C",
"l. c #C54956",
"z. c #CB4A54",
"x. c #DA4750",
"c. c #D24A54",
"v. c #DA4951",
"b. c #C5575A",
"n. c #C2545E",
"m. c #CB545E",
"M. c #C45B5C",
"N. c #D8545D",
"B. c #EA4347",
"V. c #E2474D",
"C. c #E4494F",
"Z. c #EA4B4F",
"A. c #F54345",
"S. c #F44749",
"D. c #F64B4D",
"F. c #E34A50",
"G. c #EC4D50",
"H. c #F34F51",
"J. c #E85357",
"K. c #F65254",
"L. c #F65758",
"P. c #F65C5E",
"I. c #C75562",
"U. c #CA5664",
"Y. c #C45B64",
"T. c #CB5B64",
"R. c #CA5D6A",
"E. c #D35661",
"W. c #D95C64",
"Q. c #F65F60",
"!. c #C56169",
"~. c #CC626C",
"^. c #D9646D",
"/. c #CB6974",
"(. c #D36671",
"). c #D16C75",
"_. c #DB6A72",
"`. c #C17479",
"'. c #D5737D",
"]. c #DA757C",
"[. c #DE787F",
"{. c #F66364",
"}. c #F66A6C",
"|. c #EA6E71",
" X c #E8787C",
".X c #F57476",
"XX c #F87A7C",
"oX c #D67A83",
"OX c #D57B86",
"+X c #DD7981",
"@X c #E37B82",
"#X c #EB7E82",
"$X c #F77F81",
"%X c #D8818A",
"&X c #DB8C96",
"*X c #ED8084",
"=X c #E78389",
"-X c #F48385",
";X c #F98183",
":X c #F68788",
">X c #F5888A",
",X c #E28C92",
"<X c #E99095",
"1X c #F19698",
"2X c #DE9FA7",
"3X c #ECA1A5",
"4X c #E3A6AD",
"5X c #F1A5A7",
"6X c #E5AEB5",
"7X c #EBB4B9",
"8X c #EBC1C6",
"9X c #F2C6C9",
"0X c #F7CCCD",
"qX c #F5D5D7",
"wX c #F6E2E4",
"eX c #F9E8E9",
"rX c #FCF4F4",
"tX c #FEFDFD",
/* pixels */
"* * * * * & & * * & * & * * * * * * * * * * * * * ; * * ; * * * * * * * % * * & * * & * * * * * * * * * * * * * * * * * * ; * * ",
"* % o o o o o o o o o $ * * & * * & & & & O $ O O O % O O + % ; * % O o o o o o o o o $ * * & * * & & * % O O + + O % O O + % * ",
"* %   . o o . . o . O * * * & * * * * * & O o X . . o o X X % * * %     o o o . X X o * * * * * * & * * * O X X X X X o o X % ; ",
"* % o o O O O O O $ * - * $ & * * & % * * & $ O O O O O O o % * * % o O O O O O O % * ; * + % * * & % * * * % O O O o O o o % * ",
"* % o O O O O + % * ; * $   o * * O   % * * * $ O O O + O o % * * % o o O O O + + * * * +   O * * O   O * ; * O O + O O O o & * ",
"* % o O O O O % * * * %     $ * > %     $ * * * % O O $ O o & * * $ o O O O O % * ; * %     % * * %     % * * * + O O + O o % * ",
"* % o o $ O & * * * O     o $ * * % o o   $ * * * % O O O o & * * $ O O O O % * ; * +     X % * * % o X   % * * ; % O O O o % ; ",
"* % o O O % * * * %   o O o % * ; % o o     $ * - * % O o o % * * % o O O % * - * +   X O X % * * & o O X   $ * ; * % O O o % ; ",
"* % X O % * ; * %   o O O o + * * % o O O o   $ * * * + O o % * * % o O + * ; * +   X O O o % * ; % o o O X   + * ; * % o o & * ",
"* % X + * * * +   o O + O . + * * % o O O O     + * ; * % X % * * $ o $ * * * +   X O O O o % * * & o O O O X   + * * * % o % * ",
"* + O ; ; * +   o O O O O o + * * & o O O $ O X   % * * ; @ + * * % O * ; * +   o O O O O o % * * + o O O O O X   + * ; * O % ; ",
"* * * * * +   X O O O O O o + * * $     X X X X X   @ * ; * * * * & * - ; +   o O @ O O o X % ; ; & o O O @ O O X   + * ; * * ; ",
"* * * * O   X O O O O O O X + % * 3 8 t a i r 4 O     O ; ; * * * * * * +   X o X X O ; # O o ; ; + X O O O O O o     @ * ; * * ",
"* * * +     X o . o o o X   * t 0.-.:.n.R.b.<.*.f 6     % * * * * * * &     o 2 r d =.=.w.q.a 5 * + X X O X X X o X     % * * * ",
"* * * % O + % + + + $ % # 2 0.i.h.o.U.OX%XoX(.z.h.,.f , % ; * * * * * % o 8 t.*...~.E.m.m.m.>.7.r.6 + % + % % % % & + @ % * * * ",
"* * * ; * * * * * * * & e d.1.I n.2XwXtXtXrXeX3Xc.O. .-.4 % * ; * * & 2 g ,.U.N.U.^.(.(.(.%X&X&Xn.a.t ; ; ; ; * ; ; * * * * * * ",
"* * * * * * * * ; ; & 0 f.>.U !.%X9XrXtXrXrX0X1X*X|.j.( 2.q ; ; * < y 2.X.N.^. X=X=X=X@X<XqXtXeX6X/.i.i > * * * * * * * * * * * ",
"* % * % O o o o @ O , a.>.U !.+X[.=X<X3X5X1X>X$X-X-X.Xv.( i.u 6 8 g s.) x. X:X:XXX#X#X#X=X9XtXtXtX8XI.s.r O O + o X o O * * & * ",
"* * * * & o X X X o f 4.P b.].[. X X@X*X-X-X-X$X.X}.P.K.B.) ..`.s.| $.B.{.-X:X:X:X:X:X-X*X3XeXtXtXtX2Xl.a.6   o X o O & * * * * ",
"* * * * * * % O X 0 i.U ..).[.[.#X#X*X-X:X;X.XQ.K.K.K.K.H.Z.) @.$.#.Z.K.Q.XX;X-XXXXX.X}.|. X5XeXtXtXwXR.h.e.- O O O * * * & * & ",
"* $ O * * * * $ # y.>.J M.].[.@X#X*X-X:X$X}.K.K.K.K.K.K.K.K.K.D.G.H.K.K.K.P.{.{.P.K.K.K.G.G.J.<X9XwX9X%XI.9.a o $ * ; ; & O $ * ",
"* % o O * * * & w i.P U ).[.%X X#X-X:X;X}.K.K.K.K.K.K.K.K.K.K.K.K.K.K.K.K.K.K.K.K.K.K.K.K.G.G.v.W.@X+X4X4XU.u.1 & ; * * O X $ * ",
"* % o o O * * * r.>.V >.]. X X=X*X-X;X}.K.K.K.K.K.K.K.K.K.K.K.K.K.K.K.K.K.K.K.K.K.K.K.K.K.K.G.F.V.W.@X7XwX).8.p & * * O o X % * ",
"* % o O o O & 3 a.>.V M.[.[.#X#X*X-X.XL.K.K.K.K.K.K.K.K.K.K.K.K.K.K.K.K.K.K.K.K.K.K.K.K.K.K.H.F.F.v.^.,X6X/.~.q.* & O o O X % * ",
"* % X o O O O e 2.K J b.[. X#X#X-X$XQ.K.K.K.K.K.K.L.K.K.K.L.K.K.K.K.K.K.K.K.L.K.K.K.K.K.K.K.H.G.C.k.N.].+X/.R.6.3 O O O O o % * ",
"* @ o O O O   i 4.Z J z.].@X=X#X-X.XL.K.K.K.K.K.K.K.K.K.K.K.K.K.K.K.K.K.K.K.K.K.K.K.K.K.K.K.H.G.C.k.x._.+X'.I.2.7   O O O o % * ",
"* % o O $ O   g M.m J o.N.^. X#X.XQ.K.K.K.K.K.K.K.K.K.K.K.K.K.K.K.K.K.K.K.K.K.K.K.K.K.K.K.K.H.G.C.V.k.W.oX'.I.8.w   O O O o % * ",
"* % o O O O X h Y.m J o.j.v.J.J.J.K.K.K.K.K.K.K.K.K.K.L.K.K.K.L.K.K.K.K.L.K.K.K.K.K.K.K.K.K.H.G.C.V.$.N.'.oXU.9.r o $ O O o $ * ",
"* % X o O O   h T.m J j.j.j.V.C.Z.H.K.K.K.K.K.K.K.K.K.K.K.K.K.K.K.K.K.K.K.K.K.K.K.K.K.K.K.H.H.G.V.k.k.c.'.oXU.8.e X O O o o % * ",
"* % X X o o   a 4.m J o.j.j.k.F.G.H.K.K.K.K.K.K.K.K.K.K.K.K.K.K.L.K.K.K.K.K.K.K.K.K.K.K.K.H.G.Z.V.k.$.c.'.oXU.3.0   X X o . % * ",
"* * O % % % O i 4.V J ( j.c.k.F.G.H.K.H.K.K.K.K.K.K.K.K.K.K.K.K.K.K.L.K.K.K.L.K.K.K.K.K.K.H.G.G.k.k.$.c.].'.Y.2.5 + + @ + + * * ",
"* * * * ; ; * q 2.J J P ( ) ) #.#.B.S.D.H.K.K.K.K.K.K.K.K.K.K.K.K.K.K.K.K.K.K.K.K.K.K.K.K.H.G.C.k.k.$.z.'./.).w.< * * * * & * * ",
"* * * * * * * 1 a.U z K T R E Q _ _ ' { &.A.D.D.K.K.D.K.K.K.K.K.K.K.K.K.K.K.K.K.K.K.K.K.G.G.G.V.k.j.+.z.oXI.R.g $ $ $ $ $ $ & * ",
"* % o o o o o   h  .k v F R R Q / _ _ [ [ [ { { A.D.K.K.K.K.K.K.K.K.K.K.K.L.K.K.K.K.K.K.G.G.F.k.k.$.+.m.oXR.3.9   X X o     $ * ",
"* +   o X X X   0 i.K j D Y R E Q ! _ ` [ [ [ [ { } D.K.K.K.K.K.K.K.K.K.K.K.K.K.K.K.K.H.G.F.V.k.j.$.+.U.R./.a.- O O O O o o % * ",
"* % o o O O O O = d.| k v F R E W Q _ _ [ [ [ [ [ [ [ } D.K.K.K.K.K.K.K.K.K.K.K.K.K.H.G.G.V.k.k.$.+.+.R.R.p.g O O O O O O o & * ",
"* % o O + O O + O d 9.Z z M Y R E Q Q _ ` [ [ [ [ { [ [ { D.K.K.K.K.K.K.K.K.K.K.K.H.G.G.V.V.k.$.+.O.+.I.R.d.1 * % O O O O o & * ",
"* + X O O O O % * , d.>.z z B T E E Q ! / ` ' [ [ [ [ [ [ { &.D.K.K.K.K.K.K.K.K.H.G.G.F.V.k.$.O.O.P | X.s.y * - * % O O o o & * ",
"* % o O O O + * ; & e s.K z v F R E W Q / _ ` ' [ [ [ { [ [ [ } A.D.K.D.K.K.K.D.Z.B.B.V.@.@.~ R T G H 1.g $ & - * * % O O o % * ",
"* + X O O + * ; * + X f 1.z z v F T E E Q / _ ` [ [ [ [ { [ [ [ [ [ } &.&.A.A.%.] ] ) ^ R R T F G C | a.<   . & * * * O O X & * ",
"* + X O + * * * + X   , d.>.z z B T R E W Q / _ _ ` [ [ [ [ [ [ [ [ [ [ [ ` ` _ ! ! W R R T Y G S P s.w O o X $ * * ; * O o & * ",
"* % X + ; ; * +   o O O r g.P z c B T R E W Q / _ _ ` [ [ [ [ [ [ [ [ [ ' _ _ ! Q W W R T T G S A 9.f & O O o X O * * ; * O % * ",
"* + O * ; * @   o O O O + u /.L z c D F R E W Q ! _ _ ` ` [ [ [ [ [ [ ` _ _ ! Q W E R T Y S C C n.5.: O O O O O   $ * * * * & * ",
"* & ; ; * +   X O O O O o # h !.n z z B T T E E Q Q _ _ ` ` ` ` ` ` _ _ ! ! Q W E R T F N l C n.q.* o % O O O O O   O * * * * * ",
"* * ; ; O     O O O O O O   > r.T.C z z B F R E W W / ! _ _ _ _ _ _ _ ! Q W W R R T F M b n n.t.1   o O o O O o O X X O & * * * ",
"* * * %     X X X X X X X X + 3 t.4.C z z B F T R W W Q Q / _ _ / _ Q Q W E R R F B x b C 1.q.2 & O o . X X X X X X X X & * * * ",
"* * * % O @ + % @ @ + + + % & & 2 t.n.A z z M F T R E W Q Q Q Q Q W W W E R T B M z b A <.0.2 * * * * & * & % * * & & & * * * * ",
"* * * * * * * ; * * ; * * ; * ; * 2 q.9.L z c M D T R R E W W W W W W R R Y B x x l P 9.g 1 * * * * * * ; ; ; ; ; * ; * ; * * * ",
"* * * * * * * * * % * * * * * * ; & , g i.I b c z B F T E E E E E E R T B M z l l | p.s > & * * * * * & & & & * & & & * * * * * ",
"* % * * + O X X o o o o o o % * ; & O O t f.| b c c v B F T T T T T F B M z z C X.f.t     O * * * o o   o o o       o & * * & * ",
"* * * * & o X X X o o X     % * ; + X X . 6 s.h.l z c c M B D D B B v c z z L 1.e.7 O O O X & * & o o O O O O O o O & * * ; * * ",
"* * & * * * O O O O O O O X $ * ; @ X O O O 6 e.n.L z x c z z z c z z b b | i.p - o O O O X * * & o O O O O O O + * ; ; * % + & ",
"& O O * ; * * O + O O + O o % * ; % X O O O O , 5.i.o.l n n n b x b l L 1.u.t $ O + O + o o * * *   O O O O O % * * * * % o % ; ",
"* % X O * ; * * % O O O o o % * ; % o O + O O O > e 5.9.>.A C C C I ~.i.s 3 * & $ O O O O o & * & o O O O O O * * * * * o o % * ",
"* % X O O * ; * * O O O O o % * ; + X O O O + * * & 1 q u 7.g.`.7.;.r 5 * & * - & $ O O o o * * & o o O O + * * * * % o o o % * ",
"* @ X o o O * * * * $ O O o % * ; % o O + + & ; * * O   = 2 6 7 4 - o   o & * * - * O + O   * * *   O O % * * * * % o O O o % * ",
"; + o o O o @ & - * * O O o % ; ; % X O % * * * * @ O + o   o @ O   O + O . % * * * * $ o o & * * o O O * * * * % o o O O o % * ",
"; + o O O O o + * ; * * O o % * ; % o + * * ; * O o O O O o & ; & o O O O O O % * * * * O o * ; & o O * * * * & O o $ O O o % * ",
"; + o O @ O O o O * ; * * O % * ; % O & * ; * O X O O O O o % ; $ o O O O O o O & * * ; * o * * & O * ; * * & o o $ O O O o % * ",
"; + o O O O O O o O * * * % * * ; % & * ; % O O O O O O O o % * $ o O O O O O O o % * * * * * * * * * * * % o O O O O O O o % * ",
"* @ X o O O O O O o O * * * * * * * * * ; @ X O O O O O O X % ; % . O O O O O O o o & * * * * * * * * * % o o O O o O O O . % * ",
"* + X X X X X o o X X O * * * * * & * & O o X X o o o X X X % ; % . . o o o . . o   o & * * * * * * * % O o o o o o o o o . % * ",
"; % + % @ @ + + % + O + * * % * * * * & @ @ + % % + & % + % & * * + % % % % $ % % * % % * * * * * * * % % % % % % % % % % O * * ",
"* * ; ; * * ; * * ; * * * * * * * * * ; ; ; * ; ; * ; ; * * * * * * * * * * * * * * * * * * * * * * * * * * ; * * * * * * * * * "
};
