/* XPM */
static char *result[] = {
/* columns rows colors chars-per-pixel */
"64 64 230 2 ",
"   c #08080E",
".  c #0E0E13",
"X  c #0B0C15",
"o  c #0F1015",
"O  c #0F111A",
"+  c #111116",
"@  c #1E1817",
"#  c #14141B",
"$  c #19171A",
"%  c #16181F",
"&  c #19181D",
"*  c #251B15",
"=  c #231D1B",
"-  c #2B221D",
";  c #382818",
":  c #161720",
">  c #171820",
",  c #1B1C25",
"<  c #1D1E28",
"1  c #1F202A",
"2  c #242225",
"3  c #2B2623",
"4  c #29282C",
"5  c #352B24",
"6  c #36322E",
"7  c #3A342D",
"8  c #2E2E31",
"9  c #343334",
"0  c #3A3432",
"q  c #3A3835",
"w  c #432D16",
"e  c #4D331A",
"r  c #5D3E1C",
"t  c #613F14",
"y  c #402E22",
"u  c #473724",
"i  c #493723",
"p  c #6B4718",
"a  c #7C4F13",
"s  c #5C472C",
"d  c #484438",
"f  c #775525",
"g  c #695331",
"h  c #745D3A",
"j  c #4D4B43",
"k  c #514C46",
"l  c #5A564A",
"z  c #5F5F54",
"x  c #6B624C",
"c  c #756748",
"v  c #6D6A57",
"b  c #7B7864",
"n  c #925B0C",
"m  c #875512",
"M  c #99600F",
"N  c #956013",
"B  c #AA690B",
"V  c #B97409",
"C  c #AE6F11",
"Z  c #B87B19",
"A  c #865F24",
"S  c #87632A",
"D  c #986C2A",
"F  c #977131",
"G  c #A97B2E",
"H  c #C27B09",
"J  c #866F48",
"K  c #817451",
"L  c #BC8D33",
"P  c #BB8F35",
"I  c #CB8308",
"U  c #D38F02",
"Y  c #D48C0B",
"T  c #D69401",
"R  c #D89702",
"E  c #D99B01",
"W  c #D79509",
"Q  c #D9930C",
"!  c #DB9B0B",
"~  c #CC8B17",
"^  c #DA9B16",
"/  c #D79518",
"(  c #E09F0E",
")  c #DCA301",
"_  c #DEAB01",
"`  c #DEA30B",
"'  c #DEA80F",
"]  c #DDA319",
"[  c #E0AD04",
"{  c #E2A90A",
"}  c #E3B302",
"|  c #E6BC02",
" . c #EBBA07",
".. c #E4B40A",
"X. c #E9B70A",
"o. c #E4BC0C",
"O. c #ECBD0C",
"+. c #E3AA15",
"@. c #E3B613",
"#. c #E6B717",
"$. c #E3BA1C",
"%. c #EABF1B",
"&. c #F2BF17",
"*. c #C68F2A",
"=. c #C89227",
"-. c #D99F28",
";. c #DDA325",
":. c #DFA926",
">. c #DDA42A",
",. c #DEA736",
"<. c #DAA93B",
"1. c #DCB73F",
"2. c #E3AB22",
"3. c #E0AC2B",
"4. c #E6B527",
"5. c #E5BD26",
"6. c #F2BC26",
"7. c #E3AF33",
"8. c #E2B336",
"9. c #E5BC3C",
"0. c #E7C104",
"q. c #E6C30B",
"w. c #EBC508",
"e. c #ECC40C",
"r. c #F3C40E",
"t. c #F5CB0D",
"y. c #F9CE0E",
"u. c #EDC613",
"i. c #E8C515",
"p. c #EBC518",
"a. c #EBCB1B",
"s. c #F4CB13",
"d. c #FACD12",
"f. c #F7C91B",
"g. c #FDD013",
"h. c #F8D11B",
"j. c #EAC225",
"k. c #ECCB24",
"l. c #E6C32C",
"z. c #ECCC2C",
"x. c #F5C423",
"c. c #F3CE24",
"v. c #F1CD2D",
"b. c #ECD12B",
"n. c #F7D427",
"m. c #F3D12B",
"M. c #E7C433",
"N. c #E8C633",
"B. c #EACC33",
"V. c #EBC83A",
"C. c #F3CC33",
"Z. c #ECD434",
"A. c #EDD239",
"S. c #EEDA39",
"D. c #F2D134",
"F. c #F2D43B",
"G. c #F3DA3D",
"H. c #B19347",
"J. c #B39A55",
"K. c #878267",
"L. c #9B926C",
"P. c #989577",
"I. c #A79D73",
"U. c #B6AA74",
"Y. c #CCA747",
"T. c #D7AE47",
"R. c #D5B857",
"E. c #E3B64D",
"W. c #E4B950",
"Q. c #C1AC69",
"!. c #E9C948",
"~. c #EED543",
"^. c #EEDB42",
"/. c #EDD54A",
"(. c #EFDA4C",
"). c #F1D644",
"_. c #F7DB49",
"`. c #F0DF4D",
"'. c #EFDA53",
"]. c #EBD45A",
"[. c #EEDC5A",
"{. c #F1DA57",
"}. c #F1DE5C",
"|. c #F0E04D",
" X c #F0E355",
".X c #F1E45A",
"XX c #E7C266",
"oX c #EEDA66",
"OX c #F3DC64",
"+X c #F0DE6B",
"@X c #E9C974",
"#X c #EEDB76",
"$X c #F3E364",
"%X c #F1E866",
"&X c #F2E56C",
"*X c #F2E96C",
"=X c #F3EB73",
"-X c #F1E57A",
";X c #F3EC7C",
":X c #F5F17E",
">X c #A5A383",
",X c #ADA988",
"<X c #BCB889",
"1X c #C6B987",
"2X c #CCC697",
"3X c #D4CC95",
"4X c #DAD99A",
"5X c #EDD888",
"6X c #F1DF9B",
"7X c #EEE38C",
"8X c #F4ED83",
"9X c #F3EB88",
"0X c #F5F184",
"qX c #F5F48B",
"wX c #EAE79D",
"eX c #F6ED94",
"rX c #F2E399",
"tX c #F6F593",
"yX c #F8F796",
"uX c #F7F895",
"iX c #F6FA9A",
"pX c #FBFC9D",
"aX c #D5CFA5",
"sX c #F5ECA8",
"dX c #F7F2A6",
"fX c #FBFEA3",
"gX c #FFFFA9",
"hX c #EEEBB1",
"jX c #F7F3B7",
"kX c #F8F6C0",
/* pixels */
"< < < < < , , , , , , , 1 < < < < < < 1 < < < < , < < < < < < < < < , , < < , < , , , , 1 , < < < < < < 1 < < < < < < < < < < < ",
"< > + + + + + # O # # : , < , < < , , , : $ : $ # > : $ > # , < < > # + + + + + # + # % < < , < < , < , : # $ : # # $ : # > : < ",
"< > . o o o o o + + # , < 1 , 1 , < < < < # + o + + o o + o > < < > . . + + o + . o # < < 1 1 < < , < < , $ + o + + + + o o > 1 ",
"< % o # # # # # # : , 1 , : , < 1 , > , < , > # # # + # + o , < < > o # # + # $ # % < 1 , > > 1 < , , , < , > # # # O # # + > < ",
"< > o # # % # $ : < < < : . # , < % . % < < < % # # # $ # + , < 1 : + + # : # # > < 1 < # . # < < $ . # < < , > # : # # # # > 1 ",
"< % o # # # $ > < 1 < : . . : 1 1 > . . % < < < : $ # # # + : < < : + # $ # # : < < < > . . % < < > . . > < < < : $ # # + + > < ",
"< > + # # # > < 1 , $ o . + : 1 1 > + . . % < < < : : : O + : < < : + # : # : 1 1 < # . o + % < < : # o . > < < < : # $ # o > 1 ",
"< > + # # > 1 1 1 : . . # # : , 1 > + # . . % < < < : # # + , < < > + # # : < 1 < > . + # + % < < : + # o . > < < < > # # # > < ",
"1 > + + > < < < : . O # # + : < < > + # # o . % < 1 < : # o , 1 < > + $ % < 1 < % . . # # + % < 1 > + + # + . % < 1 < > # + : 1 ",
"< > + : < < < % . + # # # + $ < < , + # # # + . : < 1 1 > O > < < > + > < 1 < % . + # # # + % < < , + # # # . . > < 1 < : + : < ",
"< > $ < < < % . . # # $ # + : < < > + + # # # + X > 1 1 , O # , : X + < 1 1 & . + # # $ # o % 1 < > + # # # # o . > < < < # , 1 ",
"< , < < < > . + # $ # # # + : < < , + # # # % # X o q z K.P.>X>X>X>XP.b k 4   + # # # # # o % , 1 > + # & # # # o . > < 1 < , < ",
"< < < < :   o # # $ + # + O : < < : O # + o + q b ,X2X4XsXgXgXfXgXgXfXwX3X<XP.l 2 + + # # o % 1 1 > + # # # # # + . . > < 1 < < ",
"< < < > . . + + o + + + + + & < < , o . # d P.aXhXgXpXpXiXiXiXiXiXdXiXpXfXgXfX4X<Xv 4 o o + % 1 < > o + # o o + # o . . > < < < ",
"< < < > # > > : > > : > > > , < < < : 8 b aXjXpXyXuXuXtXiXiXiXiXiXiXiXiXuXtXtXyXyXwXU.d 1 # , , < , > > > , > > > > > % , , < < ",
"< < < 1 < < < < < < < < < < < < < 1 j ,XhXgXqXqXqXqXuXtX0X;X;X-X-X;X8X0XuXqXqXqX0XqXeX3Xb 6 1 1 < < 1 1 , 1 1 < 1 1 < < < < < < ",
"< < < < , < , < < , < < < , < < < v aXdXyX8X8XqX0X=XoX!.8.:.] / ^ ;.:.9.].$X:XqXqX0X:X0X7XI.9 < 1 < < < < , < < , , < < < < < < ",
"< , < , : + + + : $ $ : $ : , < k aXdX;X;X;X:X&X/.3.W Q / ;.>.>.>.>.^ / Q ] 9.[.=X;X;X-X;X7XP.8 , , # $ : : $ : # + + : , < : < ",
"< < < < , # + + o o o o o o > z 1XeX-X;X=X&X/.4.W ^ 1.].-XtXfXfXfXiX9X+X!.>.W ] V.}.=X=X&X=X#XL.9 > o o + + + o o o + , < < < < ",
"< < , < < , : # # # # # + + u 1XdX&X&X&X.XM.( ^ 9.+XqXiXiXiXuXuXiXiXiXiXiX9X].3.Q +.~.$X&X&X$X#XK 2 o # # + # # # : < < < < < < ",
"< > # < < < < : # # # % O 3 I.rX&X$X$X_.5.R +.oX0XqXqXqXqXqXqXqXqXqXqXqXqXqXqX=X!.! ' V..X$X}..X@Xv + # # % # # > < 1 < , # : < ",
"< > + # , < < < : # % # o c 5X&X'.{.(.5.R 4.$X;X:X:X:X:X:X:X:X:X0X:X:X:X:X:X:X0X=X!.! ' B.'.}.'.}.U.6 O $ # $ > , < 1 , # o : < ",
"< > + + # , < < , : # # 6 Q.OX(.'.(.5.E $.'.=X=X=X=X=X=X=X=X=X=X=X=X=X=X=X=X*X=X=X=X~.` { B.'.'._.oXK > # # > , < < , $ + o > < ",
"< > + # + $ < < < < : # K oX).(.(.k.[ ' /.%X%X%X%X%X%X%X%X%X%X%X%X%X%X%X%X%X%X%X%X%X$Xl.{ @.A.(.~.).Q.u O % , 1 1 , # # # o > < ",
"< > o + # + : < < < < 0 U.F.Z.A.z...[ z. X.X.X.X.X.X.X.X.X.X.X X X.X X.X.X.X.X.X.X.X.X|.$.) p.A.).b.].c > < 1 2 , # # # # o > < ",
"< : + # # # + $ , < , x W.D.Z.z.q.) @.S.|.|.(.|.|.|.|.|.|.|.|.|.|.|.|.|.|.|.|.|.|.|.|.|.b._ } k.A.C.V.J.0 , 1 > # # # # # o > < ",
"< > + # # # # + : < < K V.k.B.k.} _ a.S.S.^.^.S.^.S.^.^.S.^.^.^.^.S.^.^.^.S.S.^.S.^.S.^.S.o._ o.z.B.k.R.k : < # # # # # # + > < ",
"< > + # # $ $ # # : u J.C.z.D.p.} | k.S.S.S.S.Z.S.S.Z.S.S.Z.S.Z.S.Z.S.S.S.S.S.S.S.S.S.Z.S.i._ | k.D.x.!.c < # $ # # # $ # o > < ",
"< > o + # # # # # . d T.C.Z.Z.e.} | b.Z.Z.b.Z.Z.Z.Z.Z.Z.Z.Z.Z.Z.Z.Z.Z.Z.Z.Z.Z.b.Z.Z.Z.Z.Z.a.} | k.D.C.V.J 3 # # + # # # + + % < ",
"< > o o + + + + + X g 1.v.A.z.O.} q.b.Z.Z.Z.Z.Z.Z.B.Z.Z.B.b.Z.Z.Z.Z.Z.Z.B.Z.Z.Z.Z.Z.B.Z.Z.k.| } p.D.C.z.H.2 o + + + + + + o > < ",
"< , > > > > > > , : c 9.v.D.v.0.| q.Z.B.B.B.B.B.B.B.B.Z.B.Z.B.B.B.B.B.B.Z.B.B.B.B.B.B.B.Z.k.w.} u.D.D.z.Y.8 % > > > % % > > , < ",
"< < < < < < < < < , J V.v.F.c.w.| i.B.B.B.B.B.B.B.B.B.B.B.B.B.B.B.B.B.B.B.B.B.B.B.B.B.B.B.z.q.| e.D.F.c.R.u > < < < < , < , < < ",
"< < , < , < < < < : J C.m.G.k.w.| i.N.B.N.z.N.N.B.B.N.B.B.N.M.B.B.N.B.B.B.N.B.N.N.N.B.N.B.l.q.0.e.m.G.c.T.7 + % % $ : # : # , < ",
"< , + + + + + + O O S C.h.D.m.w.0.$.M.M.B.N.N.N.M.N.N.N.N.N.M.B.l.N.M.M.N.N.N.N.M.M.B.N.N.l.q.0.u.m.m.s.T.7 X + o o + + o o > < ",
"< : o o + + o o + X h j.s.s.s.t.0.o.l.l.l.M.M.M.M.M.M.V.M.M.M.M.M.M.M.M.M.M.M.l.M.l.l.l.l.$.o.w.s.s.s.s.Y.0 O # # # # # # o > < ",
"< : + + # # # # # : h 8.t.t.t.r.q.} ....@.@.@.$.$.$.5.5.5.5.5.5.5.5.5.l.5.5.$.$.$.@.....} } o.u.t.t.t.f.P 9 , % # # # $ # # : < ",
"< > + # # # : # : , s Y.d.d.y.s.a.o._ _ [ [ [ _ _ _ } _ _ } _ _ } _ [ [ _ _ _ _ [ _ [ _ _ _ i.s.t.t.t.x.G 8 < < > # # # # + , < ",
"< : + + # # # > < < u P f.y.d.d.b.k._ _ ) ) _ _ _ ) _ _ ) _ _ _ _ ) _ _ _ _ _ _ _ _ _ _ _ @.b.h.y.d.d.6.h 1 < 1 < > # # + + > < ",
"< : + $ : # > < < < , F x.y.d.d.b.A.4.) ) [ _ ) ) ) ) ) ) ) _ ) ) ) ) ) ) ) ) _ ) ) _ ) _ 5.D.n.y.d.d.7.i O < 1 < < : # # + > 1 ",
"< : O # $ : < 1 < >   g 4.h.d.d.h.^.!.' ) ) ) ) ) ) ) ) ) ) ) ) ) ) ) ) ) ) ) ) ) ) ) _ ] A.G.n.g.d.f.L ; X # , < < < > # + > < ",
"< $ + # : < 1 < > . o y *.c.d.d.h.n.[.9.E E ) E ) ) E E ) ) ) E ) ) E ) ) ) E E ) ) E ' !._._.d.h.d.6.S = + o # < < < < # + , < ",
"< > + $ < 1 < : . o + & D 6.d.d.g.n.`.+X8.E ) E E E E ) E E E ) E E E E E E E ) E E E !.OXOXn.h.d.f.-.u # # # o # , < < < # > < ",
"< > # < < < > . o # # # i =.f.d.t.s.m.$X#X7.E E E E R E E E E E E E E E E E E E E ! W.&X$X_.y.y.d.6.S = # # # # + # < < < < , < ",
"< , < 1 < : . o # # : # & A +.f.s.t.s.G.&X5X8.E R R R R R R R R R R R E R R R T ! W.-X&X}.f.&.t.&.*.u # # # : # # o : < < < < < ",
"< < < < :   o # # # + $ O ; G #.r.r.r.f._.-XrXXX-.T T T T T T T R R T T T T R 2.XX9X-XOXc.r.&.&.+.A $ + # + # + # + . # , < < < ",
"< < < , . . + + + + + + + + p ~ X.O.O.&.p.G.=XdX5XE.2.Q T U T T U T T T / 3.E.5XeX0XOXx.O.O.O.+.D = o o . O + + o + + + , < , < ",
"< < , : $ % > > > > > > : : < f / #.O.X.O.O.Z..XqXjX6XXXT.<.<.;.>.,.,.T.@XsX9X8X8X].&. .O.X.+.G y , , , < , , , , , , , < < < < ",
"< < < < < < < < < < < < 1 1 < 2 f / ..} X.X.X.%.).*X8XdXkXjXsXwXrXhXsXdXeX8X-XOXV.X.X.X.X.{ Z u 1 2 1 < 1 1 1 1 1 1 1 1 < 1 < < ",
"< < < < < , < < , < < , < < < < 2 f ~ { [ ....} ..%.B.(.%X*X=X0X:X*X=X&X'.!.N.@.} { X.{ ^ C i < < < < : , , , , , , , < < < < < ",
"< , , , : # + + + + # + + + : < < 2 p Z ( _ [ [ { } _ _ $.5.l.l.l.5.5.5.@.[ [ { } [ { Q N w , 1 < O + + o + + o . . + , < < , < ",
"< < < < : # o o + o o + o o > < 2 > + w N Y { ` _ ) _ ' _ _ _ _ _ _ _ _ _ _ _ _ ` ! Z p = O , 1 < + + # + # # # + # , < < < < < ",
"< < < < < < $ # # # + # + + > < < , + + * t B Y W ` _ _ ) ) ) ) ) _ ) ` _ ) E Y H n w $ # + , 1 : + # # # $ # # > < 1 1 < , : , ",
", : # < 1 < < > # # # $ # + : < < > + # # # ; t N V U U W E ) ) ) ) E U Y I V m e = # # # + < < < + # # # # # > < 1 1 1 > + > < ",
"< # + # , 1 < , : : # # # o : < < > + # # + O % 4 u r a M B V V C V B m p e 5 2 # # # # + o , < , + + : # # # < < < < : + + > < ",
"< > o + # , 1 1 < : # : + + > < < , + # # # % < , , , & * * - 3 - * @ $ , < < < < % # # # O < 1 < + # # # > < < < < : # + + > < ",
"< > + # # # , 1 < , : # $ + > < < > + # % > < < 1 , % + + o : , % o o o + > , < 1 < > : + O , 1 : + # # > < < < < > + # # + > < ",
"< % o # # # # , < < , : # + : < , , o # % , 1 < , # + # + o % , % o # # o + % , < < , # # o : 1 , + + : < 1 < < : + + : + + > < ",
"< % + # # # # # < < < < $ + > < < , + % < < < > # + + + + . % , O o o + + + + % , , < < $ o < 1 , + : < < < < : + # # : # + > < ",
"< % + # # # # + $ , < < < # > < < > # , 1 1 , # + # # # # o % , % o o # # # # o : 1 < 1 , # , < , # < < < < : # # # # # # + > < ",
"1 % + # % # $ # + : < < < , , < < , , < < , # # # # # # # + > 1 % o # % # # # # + > < < < < < < < , 1 1 1 : + # $ : # # # + : < ",
"< % + + # # # # # + # < < < , < < < < < , % + + # # # # # o > , > + + # # # # + + + : < < < 1 < < < < < > + + $ # $ + # + + : < ",
"< % + + + o o + + . O # < < < < < , < , % + + + + + + + + + , 1 > + + + + + + + + o # , < < < < < < < , # + + + + + + + + o > < ",
"< , > > > > > > > > : # < , < < < < < , % % > , > % > , > > , < , > % > > % > > > , > > < < < < < < < : > : : > : > > > > > , < ",
"< < < < < < < < < < < , < < < < < < < < 1 1 < < 1 < < 1 < < < < < < < < < < < 1 < < < < < < < < < < < < < < 1 < < < < < < < < < "
};
