/* XPM */
static char *result[] = {
/* columns rows colors chars-per-pixel */
"64 64 77 1 ",
"  c #000000",
". c #0C0C0C",
"X c #0D0E14",
"o c #131313",
"O c #13141C",
"+ c #171818",
"@ c #1B1A19",
"# c #151720",
"$ c #232323",
"% c #2F2F2F",
"& c #232636",
"* c #2E2F37",
"= c #252938",
"- c #353434",
"; c #3B3B3B",
": c #2E3242",
"> c #303548",
", c #353A4E",
"< c #3C4256",
"1 c #434343",
"2 c #484746",
"3 c #40424F",
"4 c #4B4B4B",
"5 c #474A59",
"6 c #4B4E5E",
"7 c #555555",
"8 c #5D5D5D",
"9 c #4E5162",
"0 c #515566",
"q c #656565",
"w c #6C6C6B",
"e c #706F6E",
"r c #757575",
"t c #7D7A77",
"y c #7B7B7A",
"u c #807D7B",
"i c #838383",
"p c #8A8684",
"a c #8B8B8B",
"s c #949494",
"d c #989390",
"f c #979798",
"g c #9C9C9C",
"h c #A19A95",
"j c #A09F9E",
"k c #A0A09F",
"l c #A8A19C",
"z c #A4A4A3",
"x c #ABA4A0",
"c c #A9A8A7",
"v c #ABABAB",
"b c #B1ABA6",
"n c #B4ADA8",
"m c #B4B4B4",
"M c #BFB9B5",
"N c #BBBABA",
"B c #C5BDB7",
"V c #CCC2BC",
"C c #C3C3C3",
"Z c #CBCBCB",
"A c #DDD2CA",
"S c #D2D2D2",
"D c #D8D8D8",
"F c #E1D5CE",
"G c #E0D7D1",
"H c #E2D9D3",
"J c #E5DEDA",
"K c #E9DFD9",
"L c #E7E0DC",
"P c #EAE2DD",
"I c #EEE6E1",
"U c #EFE9E6",
"Y c #F1E7E0",
"T c #F0EAE7",
"R c #F1EBE8",
"E c #F9F2EE",
"W c #F9F4F1",
/* pixels */
"                                                                ",
"                                                                ",
"                                                                ",
"                                                                ",
"                                                                ",
"                                                                ",
"                                                                ",
"                                                                ",
"                                                                ",
"                                                                ",
"                                                                ",
"                                                                ",
"                                                                ",
"                                                                ",
"                                                                ",
"                                                                ",
"                                                                ",
"                                                                ",
"                                                                ",
"                                                                ",
"                                                                ",
"                                                                ",
"                                                                ",
"                                                                ",
"                                                                ",
"                                                                ",
"                                                                ",
"                                                                ",
"                                                                ",
"                                                                ",
"                                                                ",
"                                                                ",
"                                                                ",
"                                                                ",
"                                                                ",
"                                                                ",
"                                                                ",
"                                                                ",
"                                                                ",
"                                                                ",
"                                                                ",
"                                                                ",
"                                                                ",
"                               .                                ",
"                          o  .ws.  .$@                          ",
"                         qq .aSg owzN1                          ",
"                        ;Zs qNZsofNZg                           ",
"                     @  aCN$sNZcrNmD8owiiw$                     ",
"                    $f +cNSskmNmmmmCrgCNDz@                     ",
"                    qDeocmNmmvczzvvvmmmSg                       ",
"                    uCSrgmvzsaassaascvmC4;7;.                   ",
"                    iNCCmcsaafcfagsaagvvvNNmz1                  ",
"                 21 8Nvvzaagks1 1gfgfpscmmNSZw.                 ",
"                 wSw-zNcaaggi<;7ygffggpsvmZy.                   ",
"                 qCSNvvaakffaitwqrggffgafmz81@                  ",
"                 <NmCmgagffgw$+O#O%igfffizmNNz1                 ",
"                 .sNvvasgsk8X*<:<<&OyksgsdvmNCC1 .              ",
"               $% +smkagsgrX><,=:><=@sfffivmZNvy                ",
"@@@@@@@@@@@@@@o2VcakNkszjc7>09935969*ekgzfvNi;$$@@@@@@@@@@@@@@@@",
"JLJJJJJJLLJLJJJJYRERIPPPPPLLLLLLLLLLLLLILILIHDHJJJJJJJJJJJJJJJJL",
"TPLPKTYYITITYIIYPPPPIPUPIIIIIIIIIIYPIIIIIIIIIIYTITIIIYIIIIYKPPYY",
"RnbhnETTTTTTTTTTRRRRRRRUURRUUUURRRRTTTRTRTTTTTTTTTTTTTTTTTUhxlMW",
"KppeaKGHGHHHHHHHHHHHHHHHHHHHHHHHHHHHHHDHHHHHHHHHHHHHHHHHHHGwutdY",
"FVBBBFAAAAAAAAAAAAAAAAAAAAAAAAAAAAAAAAAAAAAAAAAAAAAAAFAAAAABVVVF"
};
