/* XPM */
static char *result[] = {
/* columns rows colors chars-per-pixel */
"64 64 174 2 ",
"   c #040306",
".  c #07070B",
"X  c #0A040B",
"o  c #07090A",
"O  c #0A0B0E",
"+  c #0F0712",
"@  c #0E0E13",
"#  c #130315",
"$  c #110D15",
"%  c #160219",
"&  c #1A021C",
"*  c #150B19",
"=  c #1A0B1C",
"-  c #0E1015",
";  c #111117",
":  c #151817",
">  c #14141B",
",  c #1A141D",
"<  c #16191E",
"1  c #191A1D",
"2  c #251F1D",
"3  c #1C201E",
"4  c #1E0121",
"5  c #1E0921",
"6  c #0E1122",
"7  c #161720",
"8  c #1D1322",
"9  c #171820",
"0  c #1B1C26",
"q  c #1D1E28",
"w  c #230326",
"e  c #220B24",
"r  c #260429",
"t  c #2A032D",
"y  c #270C2A",
"u  c #2A0E2C",
"i  c #221125",
"p  c #221D24",
"a  c #261129",
"s  c #2C142D",
"d  c #2A1C2D",
"f  c #361B26",
"g  c #2E0431",
"h  c #2F0932",
"j  c #310535",
"k  c #320A36",
"l  c #340538",
"z  c #36093A",
"x  c #390A3D",
"c  c #2E1231",
"v  c #331336",
"b  c #351539",
"n  c #39173C",
"m  c #3C193F",
"M  c #1E2223",
"N  c #1F2029",
"B  c #222326",
"V  c #232826",
"C  c #2E2A22",
"Z  c #24242B",
"A  c #2A232A",
"S  c #262B29",
"D  c #2A2D2C",
"F  c #372E2C",
"G  c #2C302F",
"H  c #272730",
"J  c #2B2B32",
"K  c #372936",
"L  c #312E34",
"P  c #3C2138",
"I  c #3B2D3A",
"U  c #2D3332",
"Y  c #323434",
"T  c #323A36",
"R  c #323338",
"E  c #3B343B",
"W  c #353C3A",
"Q  c #393C3C",
"!  c #4B3F36",
"~  c #41373F",
"^  c #3F4133",
"/  c #36403B",
"(  c #3A413E",
")  c #6C5E38",
"_  c #3C0E41",
"`  c #3D1542",
"'  c #3E1B41",
"]  c #3E3D42",
"[  c #421B45",
"{  c #441549",
"}  c #461949",
"|  c #4A1D4E",
" . c #4C1E50",
".. c #482B4A",
"X. c #453644",
"o. c #403E42",
"O. c #463E48",
"+. c #4D3B4B",
"@. c #4D2052",
"#. c #512256",
"$. c #364243",
"%. c #3D4542",
"&. c #3E4843",
"*. c #444245",
"=. c #494747",
"-. c #414B46",
";. c #464549",
":. c #4A474C",
">. c #444E4A",
",. c #4D4A4C",
"<. c #5E464C",
"1. c #504C4F",
"2. c #46514C",
"3. c #48524E",
"4. c #574C53",
"5. c #455152",
"6. c #4B5551",
"7. c #4E5954",
"8. c #545154",
"9. c #5A5756",
"0. c #5A565A",
"q. c #5C5A5C",
"w. c #6A5E4A",
"e. c #625D5E",
"r. c #68624B",
"t. c #7A6841",
"y. c #63605F",
"u. c #5E4A60",
"i. c #615D60",
"p. c #666364",
"a. c #6C6768",
"s. c #6D696B",
"d. c #726D6E",
"f. c #74726F",
"g. c #726E71",
"h. c #796D7B",
"j. c #767274",
"k. c #7A7775",
"l. c #7D747A",
"z. c #7E7A7A",
"x. c #85714D",
"c. c #8A7D63",
"v. c #827E7D",
"b. c #9A8D69",
"n. c #85807E",
"m. c #867B87",
"M. c #878181",
"N. c #8A8484",
"B. c #8D8B86",
"V. c #8F8A89",
"C. c #938D8C",
"Z. c #96928E",
"A. c #969292",
"S. c #9A9492",
"D. c #9E9A97",
"F. c #A09997",
"G. c #A49E9C",
"H. c #A6A09E",
"J. c #A8A29F",
"K. c #A69EA7",
"L. c #ABA3A2",
"P. c #A9A8A5",
"I. c gray66",
"U. c #B3B0B3",
"Y. c #B8BAB7",
"T. c #C5B489",
"R. c #D6CA8F",
"E. c #FFE690",
"W. c #FFED98",
"Q. c #F3E4AA",
"!. c #FCEAB0",
"~. c #FFFDB9",
"^. c #C4C6C4",
"/. c #D7D9D7",
/* pixels */
"q 0 0 9 9 0 9 0 0 9 9 0 0 0 q 0 q 0 q 0 p q.D.S.i.J q q q 0 q 0 N 0 0 9 0 9 0 9 Z :.N.G.g.J 0 q 0 q 0 q 0 0 0 0 0 0 0 0 0 0 q 0 ",
"0 9 > > > ; > $ ; > > 7 0 q 0 q 0 0 0 0 0 q.H.A.9.9 - - - - : > > > ; ; > ; ; > < =.N.G.g.J 0 q 0 0 0 0 7 7 < < > < 7 > < > 9 q ",
"q 7 @ @ $ ; $ @ @ $ > 0 q q 0 0 q 0 0 > > R 4.X.d 5 e e y y u u a e = + o - ; ; , *.N.J.g.J 0 0 q 0 0 0 9 < ; ; $ @ ; ; @ > 7 q ",
"0 7 @ ; ; > > > > < 0 q 0 9 7 0 q - $ w h z j j z x z z l x z x _ ` } ' a + @ > 0 :.N.G.g.Z 9 q q 9 9 0 0 0 7 > > > $ > ; $ < q ",
"0 7 ; > > > > > 7 0 q 0 > @ > q > & j l z j j j j j g j j g j g g g g x | } * ; q :.N.G.s.0 > 0 0 7 ; > 0 0 0 9 > > > > > ; 7 0 ",
"q < ; ; > > > 7 0 q 0 > @ @ > q @ r j j g j l z j j j j j k j j l j z g g `  .* Z 8.N.K.s.B < 0 0 7 @ @ 7 0 0 0 < > > > > @ 7 q ",
"0 7 $ > > > 7 0 q 0 < @ @ $ 7 q 7 # t t g g g g j j j j j j j j j j j l j g { ` Y v.S.H.N.1.N 0 q 7 > @ @ 7 0 0 0 7 < > > ; 7 q ",
"q < > ; > 7 0 q 0 < @ @ > $ 7 q q @ 4 r w w r r r t t t t j j j j k j g l j l  .s v.J.G.G.d.Z 0 q 7 ; ; @ @ > 0 q 0 7 > ; > 7 0 ",
"0 7 ; > 9 0 0 0 > @ @ ; > ; 7 q 0 - % t w r r r r r w r w r r g j j j j j j g { ` ,.F.G.V.8.N 0 q 7 $ > > @ @ > 0 q 0 7 > $ 7 0 ",
"0 > > 7 0 q 0 < @ @ > > $ ; < 0 N < @ t r w r w r r r r r r r t j j j j j j j l } A N.G.g.A < q q < ; ; > > @ @ < 0 q 0 7 > 7 q ",
"0 7 7 0 q 0 7 @ ; > > > > > 7 0 N > % r r w y t t g g g t g g g g j g l j j j g } a k.L.s.p < 0 q < ; > > > > @ @ < 0 q 0 < 9 q ",
"q 0 0 0 0 7 @ @ > > > > ; $ < q 0 > & t r g l l l k j l l k l l l l l l l l l j { c f.L.s.q < 0 q 7 ; ; > > > ; @ @ > 0 0 0 0 q ",
"0 q q 0 > @ @ $ > ; > ; @ @ 7 0 N - + 4 & r t t r t r r r r w w w 4 4 4 = & 4 = e % 1.J.s.p < 0 0 < - > > - > > ; @ @ > 0 q 0 q ",
"q 0 q 7 @ @ ; ; @ > @ > ; ; 7 q 0 * u u c v v b b n n m m m m m ' ' ' ' [ [ [ k z t E H.s.q < q q 7 ; @ > > @ > ; ; @ ; 7 q q 0 ",
"q 0 0 7 > < 7 7 7 < 7 < 7 7 0 0 9 5 { #.#.#.#.#.#.#.#.#.#.@.#.@.@.@.@.@.@.@.| g j t I H.d.Z 9 q 0 0 7 7 7 7 9 9 9 9 7 > 0 0 0 0 ",
"0 0 q q 0 0 0 0 0 0 q 0 0 q 0 0 9 = x |  . .| @.@.|  .| @.@.| @.@.@.@.@.@.@.| j k t I H.d.J q q 0 0 q 0 0 q 0 0 0 0 0 0 0 q 0 q ",
"q 0 0 0 0 0 0 9 0 0 0 0 0 0 q q 0 = x @.@.@.@. .| @.| |  .| @.| | | | } } } { l l g I H.d.J 0 q q 0 0 0 0 0 0 0 0 0 7 0 q 0 q 0 ",
"0 0 0 0 7 > ; > > > > 7 > < 9 0 - % z z z k k k k t h g h t t t t t r r r r r w w 4 B D.g.Z 7 q 0 0 < < 7 > > > $ ; > 9 0 0 0 q ",
"0 0 0 0 9 > @ ; @ ; > $ $ ; < < 1   & & & % % % % & & & & & & & & w w w r w w t t t 4 K y.B < 0 0 7 @ $ ; ; ; ; ; @ > 9 0 0 0 q ",
"q 0 0 0 0 9 7 > > ; > $ > @ @ S V & g g g g j j j j j j j l l l l j l l l l l j j j l r 2 Z < q q < - > > > $ $ > 7 9 0 q 0 0 0 ",
"0 7 > 0 q q 0 7 > > > > > > > 1 % g j j j j j j j j j j j j j j j j j j j j j k j j j l r : 7 q 0 7 ; > > > > > 7 0 q q 7 7 7 0 ",
"0 7 @ < 0 0 0 0 7 > > > - - : < w g j j j j j j j j j g j j j j j j j j j j j j j j j l t O 9 q q 7 - > > > > < 0 q q 7 7 ; 7 0 ",
"0 7 @ $ > 0 0 q 0 7 > > > @ ; $ w t j j j j k j j j j j j j j k j j j j j j j j j j j k t , Z q q 7 > ; > > 7 0 0 0 9 7 ; ; 7 9 ",
"0 7 > $ > > 0 0 0 9 < > > > > + w t j j j j j j k j j j j j j j j j j j j j j j j j j l w ,.J 9 q < ; > > < 0 0 0 0 > > > ; 9 0 ",
"0 7 > > > > > 9 0 0 0 7 > ; 7 ; & r t j j j j j j j j j j j j j j j j j j j j j j j l t A 9.Z q q 7 > > < 9 q q 0 > ; > ; ; < q ",
"0 7 ; - > $ > > 0 0 0 0 > > > U V % w r t t t j j j j j j j j j j j j j j j j j t w & X O O ; q q 7 $ > 0 q q 9 > $ ; > > $ < 0 ",
"0 7 ; > > > > ; > 9 0 q 0 > 9 9 ^ C i = = & 4 w t t t t j g t g t g g t g t t % : ; : D V V : : q 7 < 9 q q 9 < > > > > > > 7 0 ",
"0 < @ > > > > > > < 0 q 0 0 q 6 ) W.!.R.! 8 o.8 % % & & & & & & & & & & % # # . : : T %.( *.T ; N 9 0 0 0 0 > > > > > > @ $ 7 q ",
"q 7 ; ; > ; > ; > $ > 9 q q 0 0 2 x.c.<._ K Z.B.1.; o 1 S G G G V ; o O O - : @ G S / T T Q S 7 N 0 q 0 7 > > $ > > > > ; ; 7 0 ",
"0 7 ; @ ; ; ; ; > - ; < 0 0 0 q $ & l  .` 4 ..+.C B D G U G U G V : o @ > > > @ ; V >./ $.%.S 7 q 0 0 0 < ; @ > @ - - - @ $ 7 0 ",
"0 0 < 7 7 7 7 7 < 7 < 9 0 q 0 q q , u s r g l l e -.3.3.2.2.2.>.>.>.&.1 - > - < < 1 U T ( W < 0 q 0 0 0 7 < 7 7 < < > < 7 7 0 0 ",
"q 0 0 0 0 0 0 0 0 0 q 0 q 0 0 0 q 0 # 4 g j j l k W / U T T T T T Q 3.0 w g y > N V D : o : 9 q q 0 0 0 0 0 0 9 0 0 0 0 0 0 0 0 ",
"0 0 0 9 0 0 7 0 9 0 7 0 0 0 q 0 0 0 0 * & g j l t Y 2.%.&.%.%.( / %.&.w l j x c + M 6.2.&.( 0 0 0 0 0 0 9 9 7 7 7 7 7 7 6 < 7 q ",
"q 7 > > ; @ > > $ > > < 0 0 0 q q 0 q 0 , r t g w D ( Y T W T W W -.D w j j g x F r.T $.5.T 9 0 N 0 0 0 9 > ; $ $ @ ; ; @ $ 7 0 ",
"0 7 - @ @ $ @ $ $ > > 0 q 0 0 q 0 0 0 0 q ,.v.X.# W -.( ( ( / Q T &.S 4 g g z 4 w.~.T.b.) 0 0 N 0 7 0 0 q 0 7 > ; ; ; ; > @ 7 q ",
"0 < $ - > > > > > < 0 q 0 7 9 q 0 0 0 0 p 0.L.*.$ >.W T W W W ( Q >.Y # = r g 4 v c.Q.E.t.N 0 0 9 - > 0 q q 7 9 7 ; 7 > > > 7 q ",
"0 7 > > > > > > 7 0 q 0 > @ > 0 0 7 ; > q q.S.D W 3.( ( ( T T T T ( 3.> . % w w @.` P f L Z < N 0 - @ > 9 0 q 7 7 > $ > @ > < 0 ",
"q 7 ; @ 7 $ > 7 0 0 0 < @ @ < 0 0 7 @ @ 1 q.C.L ( 2.W T Q Q %.$.( >.2.Y @ 7 * * a } j u q.B 7 N 9 ; @ @ > 9 q q 0 7 > > > - 7 0 ",
"0 7 > $ $ 7 9 0 0 0 > @ @ @ 7 0 0 7 ; @ 0 p.C.G %.2.( W W T W T Y %.5.D 9 R R J J ~ 4.N.k.D 0 q 9 ; > ; @ 7 9 q 0 0 < > > > 7 q ",
"0 7 @ > 7 9 0 q 0 < ; @ > ; 7 q 0 7 ; > o.M.Z.G %.>.Q ( ( %.%.%.%.>.>.S :.g.s.s.d.v.G.L.C.8.Z 0 0 ; ; > ; @ > 9 0 0 0 < ; ; 7 q ",
"0 7 @ > 7 0 q 0 < @ @ > $ > 7 0 N 9 - 9 q.F.A.G >.3.Q T T T Y T U %.2.D s.G.Z.Z.S.S.G.H.G.g.J q 0 ; > > > ; @ > 0 0 q 0 7 ; 7 0 ",
"q 7 > < 0 q 0 < @ @ > > > @ 7 0 0 9 ; 7 8.Z.Z.1 S Y / %.&.>.>.-.>.>.%.3 p.V.v.m.n.C.F.J.S.p.H q 0 ; ; > > > ; ; 7 0 0 q 0 > 9 0 ",
"0 < < 0 q 0 > @ @ > > > > @ 7 q N 9 - > D d.S.d & & & = = , 8 , , * # . d D Y E *.p.C.G.z.Q 0 q 7 $ ; > > > > ; @ 7 9 0 0 0 0 q ",
"q 0 0 0 0 7 @ @ > > > > @ > < 0 0 9 > ; , e.v.# g l j g g g g g t t t t w & + $ i O.N.G.s.N 0 N 7 > ; > > > > > $ ; 7 0 0 q q 0 ",
"0 q q 0 < @ @ $ > > ; $ > - 7 0 0 < ; ; > 8.q.h.' 5 g w w r r r g l l j l g w g j k m.J.a.p 9 q 0 @ ; > ; ; > ; ; @ @ > 0 0 q 0 ",
"q 0 0 7 @ @ @ > ; ; ; ; @ - 7 0 0 < > @ 1 *.q.^./.m.t w # # # # w j g j g # g l l t +.J.s.Z 0 N 0 > ; @ ; > ; ; ; > @ > 0 0 0 q ",
"0 0 0 0 > > 7 7 7 7 7 7 7 7 0 0 0 0 9 < Z S A.P.A.Y.K.* > 7 7 > e l l l r B a w t t b Z.g.A 0 0 0 0 9 0 0 9 0 9 9 0 9 0 0 0 q 0 ",
"0 q 0 0 0 0 0 0 0 0 0 0 0 0 q 0 q 0 N q 9 5 h u.U.I.0.7 q q q q N 8 % = # &.2.( Y L Z v.l.J 0 N q q q 0 0 N q q q q N q q q q q ",
"q 0 q 0 0 0 9 9 0 0 0 0 7 7 0 0 q 0 q 0 8 t g 4 w h.< 7 q 0 0 q 0 N 0 7 1 2.3.6.7.6.Y N.j.H q q 0 0 9 0 9 0 9 9 9 9 9 q q 0 q 0 ",
"0 0 0 0 7 > > ; ; ; ; > > > 7 q 0 0 < > y j j z 4   7 9 0 0 0 0 0 0 N 9 ; M T ( ( W D S.d.Z 9 q 0 > ; ; ; $ ; ; @ > > 9 0 q 0 q ",
"0 q q 0 7 > @ @ ; ; @ @ @ @ 7 q 0 7 - @ g j g g w @ > 0 0 q q 0 0 0 0 N ; 1 G S D : 0.G.s.p 9 q 7 > ; > ; > > $ > > 9 0 q q 0 0 ",
"q 0 0 0 0 0 < > > $ > > > @ 7 0 0 7 ; O 4 i d L %.U > 0 q 0 0 0 0 7 N < B ( ( -.U 3 N.L.s.p 0 N 0 @ ; > > > > > < 0 q q q 7 9 0 ",
"0 7 7 9 0 q 0 7 > > > > > $ 7 0 0 7 > @ / 2.2.6.7.%.< q 7 7 9 q < > > < >.6.3.6.7.-.U a.g.q 9 N 7 ; > > > > > 7 0 q 0 0 7 > 7 0 ",
"0 7 ; > 0 0 0 0 7 > > > > @ 7 0 N 7 : O U 6.2.&.%.S < q < > 9 q 7 > @ U 6.2.3.2.2.7.-.: E H 9 p 7 > ; > ; > > 0 0 0 0 < $ ; 7 0 ",
"0 7 ; ; 7 0 0 0 0 7 > > > - 7 0 q 7 > : 1 V D D G B %.] E Q o.o.] Q 1 ( 6.3.6.3.3.>.7.*.S L q q 0 - > > > > 0 q q 0 7 > @ > 7 0 ",
"0 7 ; ; > > 0 0 q 7 > > > > < q 0 7 - 1 Y 1 V D G ,.N.N.m.n.N.N.M.M.*.D U G T ( >.2.7./ W ] R 0 9 > ; > < 0 q 0 0 7 - > > ; 7 0 ",
"0 < $ > > ; > 9 q 0 0 < * @ < 0 0 7 @ O T >.>.>.,./ 8.N.M.M.N.N.N.M.v.d.e.=.Y A D D 1 1 / T R 7 9 > > 7 0 0 q 0 7 > > > ; ; < 0 ",
"0 < ; ; > > > > 9 q q 0 < > 7 q 0 > : W 7.3.3.3.3.3.S R *.%.;.:.*.%.*.;.;.,.;.~ o.,.4.,.Y J Z q 0 $ > 0 q 0 0 < $ > $ > > @ 7 0 ",
"0 7 ; > > > > > < 0 0 q 0 < 7 q < S ( 7.2.2.3.3.2.3.( @ < > 7 0 9 $ > > > > : > Z 8.S.L.d.Z 9 q 7 7 0 0 0 0 < > > > > > > @ 7 q ",
"q 7 ; $ > > > > > > 7 q 0 9 0 0 > %.W 6.2.3.3.2.2.3.&.; $ @ < 0 7 > ; > > > > - 9 :.N.G.d.D 0 p 0 0 q q 0 7 ; > > > > > $ > 7 0 ",
"0 7 - > > > ; $ ; ; 7 9 0 0 0 0 > ( 3 V G D V D D S V - - > < 0 < > > ; ; > > $ < ;.N.G.h.J 0 q q q 0 0 7 > @ ; > > @ > ; > < 0 ",
"q 7 @ @ - > @ > ; ; ; 7 0 0 0 0 < - @ O ; Y q.s.*.1 O ; - > 7 0 < @ @ > ; ; ; ; < ;.N.G.g.J 0 q 0 q q 9 > > $ > @ @ > > ; @ 7 0 ",
"0 0 7 7 7 7 7 7 7 7 7 9 0 q 0 q q 0 q 0 0 q.L.D.i.S 1 9 7 7 0 0 7 7 7 7 7 7 < 7 q :.N.H.g.H q q 0 0 0 0 7 7 7 7 7 < 7 7 7 7 9 0 ",
"0 0 q 0 0 0 0 0 0 0 0 0 0 0 q 0 q q q 0 B q.S.A.i.J 0 N q 0 0 0 q 0 0 q 0 0 0 0 Z 5.N.L.g.H 0 q 0 0 0 0 0 0 q 0 0 0 q 0 0 q 0 q "
};
