/* XPM */
static char *result[] = {
/* columns rows colors chars-per-pixel */
"64 64 69 1 ",
"  c #090A0E",
". c #0E0E13",
"X c #100F15",
"o c #0F1015",
"O c #111116",
"+ c #14141B",
"@ c #16181F",
"# c #19191E",
"$ c #171720",
"% c #171820",
"& c #1B1C25",
"* c #1D1E28",
"= c #1F2026",
"- c #1E202A",
"; c #222226",
": c #24242B",
"> c #2A2B2E",
", c #262730",
"< c #272830",
"1 c #2C2C32",
"2 c #2F3037",
"3 c #2F3038",
"4 c #333334",
"5 c #34353B",
"6 c #37383E",
"7 c #3B3B3C",
"8 c #3C3C42",
"9 c #3F4044",
"0 c #424243",
"q c #484847",
"w c #454549",
"e c #47484D",
"r c #4B4B4C",
"t c #4E4E51",
"y c #4F5053",
"u c #545454",
"i c #55565A",
"p c #57585A",
"a c #5C5C5C",
"s c #60605F",
"d c #5E5E61",
"f c #636363",
"g c #656569",
"h c #6B6B6C",
"j c #706F6F",
"k c #6E6E71",
"l c #737374",
"z c #767679",
"x c #7C7C7C",
"c c #7F7F80",
"v c #848484",
"b c #878789",
"n c #8B8B8B",
"m c #90908F",
"M c #8F8F91",
"N c #939393",
"B c #9C9C9C",
"V c #9E9DA0",
"C c #A3A3A3",
"Z c #ACACAC",
"A c #B4B4B4",
"S c #BBBBBB",
"D c #C3C3C3",
"F c #CBCBCB",
"G c #D3D3D3",
"H c #DBDBDB",
"J c #E5E5E5",
"K c #ECECEC",
"L c #F2F2F1",
/* pixels */
"*****&&&*&*&********&****:**&&*&**&&&*%***&************-**-*****",
"*%OOOO+OOOO$*&&**&&*%$$+++++$$*&-%+O++OOOOO$&*&**&*&%$++%++$@@%*",
"*%.XXXXXOX+&*****&**&+OoOOOOO.$**%..O.OOOX+******&**&+OOOXOOXX%-",
"*%OO+++++$--&&$**&%&**$++O+++O%**%O++++++$***%%**&&&*&$+++O++O%*",
"*%O++++@$***$.+&*%.$***%++$++O$**$O+++++%***+.+**+.$&*&%@+$++O%-",
"*%O++++$***@..$**%..%**&$$+$+O$&*$O+$++&***%..%**%..%***%+++OO%*",
"*%O+@+&*-*@.XO$**%Oo.%*-*$O.+:58,:*+OO$***%..O%**%O..%***$+++O%:",
"*%OO+%*-*@.X+O$**&OOo.%&&8zMVASAZCMzgt8*&@.O+O%**&O+..%*--%++O%*",
"*%O+%*-*$.X++O#**%O++o.8NSFHHGGHJKLJFZnl8..+OO%**%OO+O.$*-*$+O%-",
"*%O%*-*+.X+@+X@**&O+O;kAFFSSAASSSDGJKHSCnd<++O%-*&O+++..$*-*@X%*",
"*%+***$.X++++O@-*%O+8MSSAZAAAAAAAZAAFJJDCNz8+O@**%O++++O.@***+&*",
"*&***%.O+++++X@*-%owCSAZZZZZZZZZZAZZZSHKFBnc7O#**&++++++X.@*-*&*",
"****+..+++O++X@*-+6BAZZZZZZZZZZZZZZZZCZGKSbbl1+**%O++++++X.$*-**",
"***%..OOOOOOXX@**5bZCCZCCnvzzcMBCCCCCZCZGHZxxs<**%oOOOOOOX..%***",
"***%+%%$%%$#$%*&>zZCVCBza00qtahzMBBVCCCVCGHMljt-*&%%%%%%%%%@&*&*",
"***************&gCBBBns7408<3533evNBBVBBBZHFxgf5**--**:**-**&***",
"****&**&*******8nBNBcu4785>&&&*&*5gNNNBBBNAHCssq-*********&*****",
"*&*&$OOO+@+@+@$kBMNvt700;OX$&&&**&<gbnNNNmBFFjuu1&@+$+++OO+$&*&*",
"***&&+OXXXXXXX5vNMba000;.O+%****-*&<hbnmmmnZFNur7%OOXOOOOO+%****",
"**&**&$++++++Xamnbg00r4+++***&***&&&8xvbnmnmDSsuw:OO+++++$&**&*&",
"-++****$@+++O=hnbzuqqq:+%*--&++**%+&*ixxvnvcZDvuy>o++++++**-&+$*",
"*@O+&**&$++@o9vvcstru7+#&**&+O%**%O+&4jxcvvcmDCuu5o+++++**-*+X$*",
"*%OO+&**&@+@.rbxlauut>+=--&++O%*-%OO+;sjxcxxxSAsu0#+++%**-*+Oo%*",
"*%O+++*--*%O&acxjupa8$&=-&+++O%**%O+++7hlxcxxCSxur=O@@***&++OO%*",
"*%OO+++****+1lxchaas8%:*&+O++O%**%O++O:llcccxNSnuu:O%&=-&+O++O#*",
"*%O+++O@&=-$5cvxfssa5**&++++OO%**%OO+O:glxvccnSBup:O***&+++@+O@*",
"*%O+@++++&-$8bvxhfhu&*&++++++O@**%O+++%rlcvvvvSBpp1&*-&@++++OO#*",
"*%O+++++++*&8bvxhhju**+++++#+O%**%O++@O<xcvbvvZBsp7*-&+++++++O$*",
"*%OO+++O+O$$8bbxjjla%+O++O+++X%**%OO++X1xcbbvvZVfa7-&@O+O++++O%*",
"*%.oOOOOOOOO8cxzjjza+OOOOOOOOX%**%oO+O.1vxccxvVBfa8*+OOOOOOOO.%*",
"*&@%%%%%%%%+8ccxzzxa$%%%%%%%+%&**&%%#%+5vxxxcvCBfa7*%%%#%%@@%%&*",
"*********-:&8vvcxxvs**:*****-****&&&&*$5vvvvvvVNha8-&******&*&**",
"****&***&&&%8bvvccbd&*&**-***-*-%OOO+O.2vvvvvnBmfs9=%$+$$+$+$+**",
"*&OOOOOO++++8bbbbvng$$+$+++$++&&%oOOOO 1bbnvvnBmss6-&OOOOOOOXX%*",
"*$..OXOO.O+%8vbnbnMh$+OOOOOOOo%-%OO++++wnbbnnnNvas2&**+++++++O%*",
"*$X++++++$*%5xnnmnMx3*$+++O++o%-%O+++O:hnnnnnmNxsa<%:-*++++++O%*",
"*%O+$+++$**&-fmnMNNNt&*$+++@OO&&$O++++,xmmnnmmnlay#O****%+++OO&*",
"*+O++++$**&& rNnNNNBp&**%++++O%*$O++++5bNmmmmmvsp0# O***&%+++O%*",
"*%OO++%***%..9bNmBVCj:&--$+@+o%*$+++$-dMNmNmmnzup4++.+**-*%+++&*",
"*%O++&***$.OO:lNmBCVB8O---$++O&&$XO$*1xNNmNmnvhut;O+O.+***&%OO%*",
"*%O+%*-*%.O++.uMnNVCZh++*:*$OO%-$O+*=ebmnmnnvxuu9%+++O.$****$O%-",
"*%O$***%.O+++O5xnnBZZC7 %-**%O%*%+&:1jbbbbbvchtr5OO++$OO$&*-&+&&",
"*%+*:*$.O++++O#dvvbVAZv; %*-*+&*%***uvvvvvvxzur0:.+++++O.$&*-&&&",
"*&***+.O+++++O+5jcxvCAAl+ #-*-&****ezcxxxxxzfr06&O++$++++o$&--&-",
"***&$..OO+++Oo%*tzzznCSAz; +&&&&*:wlxzzxzzljr07:*OO++O+++O.$&-**",
"***%...OOOOOOo%&>slllxBASNr;,:,>5pjzllllljju771=&+oOOOOOOO.O&&*&",
"***&+%%$%%%%%%&&*2sjjjjvVAZMzdpsgkhhhhjhhfa774;-**&&&&&&&&&&&***",
"*************-****7shhfhhlvnnxjhhhhhhhhhfa774;==*-*----------*--",
"******&**&*&****-&-5affgfgffsffffffsffffu741******&&*&&&&&&*****",
"*&*&%OOOOOOOOO&*-&$%1ufasaasssssssssssar71>+.O***O.oOOo...O&**&*",
"**&&&OOoOOXO..$&&%oOO*7uaaaapaaaaaaaau04>;$OOO**&OO++++OO+&***&*",
"*&***&$++++++O$*-%OO+O@>0tuuppuupuut04>;##+++O**&O++++++#*--*&%&",
"&$$&***%+++$+O%*-%++$++$#>50qqqrq74>:;;%+++#OO***.+++++$****%O%*",
"*%O+&**&&+++OO%*&&O++++%&*-=@@&:&###&:*&#++++.&*&O++++$****%OO%*",
"*%OO$&--&$+++O%**%O+++%&-**+OO#*#OO+%****#+++O**&O++++****&OOO%*",
"*%O+O+&-**$++O%*-%O++%&&*&+O+O%*#O++O#****#++.***.++$****&O++O%*",
"*@O++O+***&@+O%--%++$&--&+O++O%-+O++OO&****$OO***X+$****$O+++O$*",
"*#O++++@&-**+O$*&&O$&&-&+++++O%&#OO+++O%****+O&*&X+****%+O+$+X%*",
"*@O++++O+***&+#*-%$&--&+O+O+Oo@%+oO++OOO$&&**O**&+&-**%+O++++O%*",
"*@O+@+++++***&&*&&&&-&+OO++OOo$&@oOOO++OO$*******&--*%O++$+++O$*",
"*@X++O+++O+***&*-&--&+O++++++O%-%OO+++++OO&*********%O++++O+OO$*",
"*@XXOOOOOOO+**&*&-&*$OOOOOOOOO&&%.OOOOOOOOO&******-%OOOOOOOOOX%*",
"*&#$%%%%%%$+&***&&&&$%%&%&%&%%&*&%$%%$$%%&%%*******%%&%%%%@%%%&*",
"***********&****-&-----&-&-&************************************"
};
