/* XPM */
static char *result[] = {
/* columns rows colors chars-per-pixel */
"64 64 68 1 ",
"  c #090A0F",
". c #0E0E13",
"X c #100F16",
"o c #0F1015",
"O c #111116",
"+ c #14141B",
"@ c #16181F",
"# c #18181E",
"$ c #171720",
"% c #171820",
"& c #1B1C25",
"* c #1D1E28",
"= c #1F202A",
"- c #222225",
"; c #23242B",
": c #28272C",
"> c #27282F",
", c #2B2B2D",
"< c #262730",
"1 c #2D2D34",
"2 c #2E3038",
"3 c #323335",
"4 c #34343A",
"5 c #37383E",
"6 c #3A3B3D",
"7 c #373840",
"8 c #3B3C43",
"9 c #3F4048",
"0 c #434344",
"q c #444449",
"w c #47484B",
"e c #4B4B4C",
"r c #4C4D52",
"t c #545455",
"y c #585857",
"u c #555559",
"i c #57585A",
"p c #5B5B5C",
"a c #5E5E61",
"s c #5F6063",
"d c #636363",
"f c #67676B",
"g c #67686C",
"h c #6C6C6C",
"j c #737373",
"k c #787877",
"l c #757578",
"z c #7C7C7C",
"x c #7F7F80",
"c c #838384",
"v c #888887",
"b c #878789",
"n c #8C8C8C",
"m c #939393",
"M c #979798",
"N c #979899",
"B c #9B9B9B",
"V c #A4A4A4",
"C c #A7A7A8",
"Z c #ABABAB",
"A c #B4B4B4",
"S c #BBBBBB",
"D c #C3C3C3",
"F c gray79",
"G c #D3D3D3",
"H c gray87",
"J c #E4E4E4",
"K c #E7E7E8",
/* pixels */
"****&&&&&*&&********&*******=******&*&&***&*********************",
"*%OO+O+X+O+$*&&**&*&&+$++##+++&**%+OOOOXOOO$*&***&&&%++#@+$+#+&*",
"*%.XOXXOXX+&*********OOOOOXOOO%**@..XOOXXO+******&**&+OOOOOXOO%*",
"*%OO+++++#***&%**&%**&%++O+++O%**#O++++++$***%%**&%***%++O++OO%*",
"*%O+++++%*=*$.+&*@.+***@+++#+X%**#++++#+%*=*+.+**+.$***++#+++O%*",
"*%O++++$***+..+*=%..+***$++++O%**+XX+++%***%..@**%..$***%++++O%*",
"*%OO#+&***#.XO%**%OO.%*=*$+++X%***#-#+%*=*%..O%**%OX.@***%+++O&*",
"*%O++%***%.X+O$*=%OOO.%==*&++#-,30etq2=**+.O+O%**&O+..%*;*@+++%*",
"*%O+%*=*%.O++O#**@o++o #==-#--30pjccxhe;+.O+OO%**%O++O @***%+O&*",
"*%O%***+.O+++X$**&o+++O.#=-,,3edcMMnnvzrOX+++O%=*%O+++O.$***$O%*",
"*%+***%.X++#+O@**@o++++O #-,,edzBBmmnccjq++++O+**%O++++O.$***+&*",
"*&*=*%.O+++++O$**&o++@++O#330yjnBBmnnvcxj3+++O%**&O+#+++..$*****",
"****+..+++O+OO+**@o++++++,36yfzmBBMnvcczcd+++X$**%O+++++O..%*=**",
"***%..OOOOOOOX%*=@ooOOOO-36edjvmBMxbMnzzbc6.OO@**%oOOooOOo.o%***",
"***%+@%%%%@%%@***&&##&##360yhjnmBh6rMSmzcma$%%****%%%&&%&%@+%***",
"******************=&==-,60ehhknmz3&$8VAncmc5&*****==****==******",
"***********************300phhznnq&**$jACbnNt%=******************",
"*&&&+OOO+$+$#+***%%+@+&60ehjhxnj1&*&+4NZmnBd%+***%@+#+++OOO+&*&*",
"*****OXOOXOOXO%**%OOOX-0etjjhxve****&+xZNnBc:.%*=%.OXOOOOX+&&***",
"**&**&$++O++OO%**%OO+X,erpkhhcx3&&***&gVNnNB4 &*=%OO+++++$&***&*",
"=++****%+++#+o%*-%O+++3trhkhjzf1&$$&**rnNnMCq.%=*%O++++++***&$$*",
"*@O+&***%++++o&**#O++#8ttkzdjxe=*$X+&*4bMnmCp+%=*&o+++++***&+X+*",
"*%XO+****+@++o&**%O++-wyixzsjz8%*%XO+*>zmvnVz;+=*%++@+%**=*@OO%*",
"*%O+++&***@++o%*=%O+O:rpavzdjz4%*%O++O;jncnVm,@=*%o++@****+++O%*",
"*%OO+++****++O&***o+@1iahnkdjk4&*&O++O&gvxcVB3+==%O+@&*=%++++O#*",
"*@O+++++****+o%=*%O+%4pahnkdjh1%*$O+@X%dckcBC6O=*&O+**=*@+++OO#*",
"*%O++++O+**=*+@**%+*&5aajmjdjd>&*%OO++%pxjzBZ6+=*%+&**&+O++@+O%*",
"*%O+#+++O+***%*****=*6apkmhyha>&*%O@++#rkjjmZ9@***&***+++++++O%*",
"*%OO++O++O+&**&*****$4dpzMhydp:&*$OO+++ejhjmC9$=*&***+O+++O+OO@*",
"*#ooOOOOOOO@********O3dpzBhyfe&**#XO+X+ehhhnC9$=****+OOOOOOOOX@*",
"**+%%%%%%%#@**&**&**@5dixBjyfe-***%%%#%rhdfmZ9$**&*&@@%#%%@@@+**",
"********====********&8syxBhpdp1***&&*&*rfadnC9$***********&*****",
"********************&8dyzVjyfs1&%OOO+O+edpdnC0%=***&&+$$+$$$++**",
"*%OOXOXO.OO+&****&*&+4ayzZxida1&%..OO.+tdydmV0%=****&+XXO.OXXX%*",
"*@.XXOXXOO+*********%4pyjCctdf2&%O@+++%uptdmV6%=*%&***$+++++Oo%*",
"*%OO++++O$***%%**$&*&4iyhZmtdj4%%OO+#+%tpedMB3@;&.O***&$++++++%*",
"*%O+#+++&***+.+**$.$*1yiaABydj6&$X+#+O&ttefVn1$=&..+&***+@+++O%=",
"*#OO+++&***%..%**%..@>upyZCpdk7%%X+++#*er0hBz;%=*OO.+&***++++O%*",
"*%O+++%***$.OO%**%.. #tdyBAhdj7%%+O+$*2eeejVi+&*&O+O.@&&**@@+o&*",
"*%O++%***$.OOO%**&O+O eatnSzdjp>+O+#**qe0tcB9 **&.O+O.+&***+++%*",
"*$O+%***%.O++O$**&O@@.4ptjDMajz4+O$*=*ee8ynB7 ***X+$++.$****$o%*",
"*%O#***%.O+++O$**%OOOO;pysDZajc5++*=**000hmc1.**%O++@+O.@**=*+%*",
"*%+***%.O++#+O#**&O++++ipyASjjzy****&306ezmd$.***XO+O++O.$******",
"*&***$.O+++++X#**%O+#++0symGmhxx2&=*O0e6pcMe.O&*&O+$+++@O.+*****",
"****$..OO+O+OO%*=%O++++*fdzGAjzba*&$=060jck4.X**&OO++O+++O.@****",
"***%..OOOOOOOo%**%OOOOOXthjAGnzbb8&O300dkndXOO***OOOoooOoo.o%***",
"***&++%%@%%%%%%***%%%%%%1jjmHZzbmxuqerdhzxq%&******%&&&**&&&****",
"****=*****************;*=ixcDGmcmmbxkjjhzg*;=*****====*==*=**=**",
"*********&*********=*****1kbBJSnmnncxkjjj8&*&******%**%*&&&*****",
"*&*&%OOOOOOOXO%***+++++$++8cmSKSmnnczjjzw..X.+***OoOOOO...O&**&*",
"***&&OooXO.O..%**%ooOOOOOX+qcVFJSncczzxu+O++OO&*&OO+++O+O+******",
"*&****++++++OO%*=%oO++O+@$&*8lCFKGZMNNr$+$+++X**&O++++++@****%@*",
"*+%****++$+++O%**%++++O@+**=%>qfnZABlr*+++++OO***.+++++%****%O%*",
"*%O+****%++++O%**%o+$O@$&***+.@;;-14<***$++++O&*&O+++++****%OO%*",
"*%oO+****$+++O%**%O++++***&%OO**$...%*=**%++OO**&XO+++*=**%+OO%*",
"*$OO++***&#++O%***O++%****+O+O%*$O+++%****%++X&**X++#*=**%O++O%*",
"=+X++++****#+O%**%+O%*=**%o@+O&&$O++O+&&***$OO&**X+$****&O+++X$*",
"*#O+++O+****+O$*=%o@***&@OO@+o%&$O+++OX&****+O*=&O+****&O++++X%*",
"*#O++++O#&**&+%**%+&**&+.oOOo.+%@..OOO.X+&&**O**&O****&OO++$+O%*",
"*%O+#+++++&***&**&&***+oOOOOo.+@O..OXOOX.+&**********%O++#+++O$*",
"*%OO+++++O@***&******@O+@O@OOO%*%oO+++++OO&*********%OO++O++OO$*",
"*%.OOOOOO..+*****&*&+OoOoOOOoo&*%XOOOOOXOOO&*******&+OOOOOOOOX#*",
"**%%%%%%%%+%&*&*****%%&%%%&&%&&*&%$%%%$%%%%%*******%%%%%%%%%%+**",
"******************************************************=*********"
};
