/* XPM */
static char *result[] = {
/* columns rows colors chars-per-pixel */
"64 64 66 1 ",
"  c #09090E",
". c #0E0E13",
"X c #0F1015",
"o c #111116",
"O c #14141B",
"+ c #16181F",
"@ c #191A1E",
"# c #171720",
"$ c #171820",
"% c #1B1C25",
"& c #1D1E28",
"* c #1F2027",
"= c #1F202A",
"- c #232327",
"; c #24242B",
": c #2A2B2E",
"> c #30302F",
", c #252630",
"< c #272831",
"1 c #2B2C33",
"2 c #323235",
"3 c #383837",
"4 c #35353C",
"5 c #37383F",
"6 c #3B3B3D",
"7 c #3C3C42",
"8 c #3F4046",
"9 c #434344",
"0 c #45464B",
"q c #47484D",
"w c #4B4C4D",
"e c #50504F",
"r c #4D4D52",
"t c #4F5055",
"y c #535354",
"u c #555559",
"i c #5B5B5C",
"p c #5F5F61",
"a c #636364",
"s c #666669",
"d c #67686C",
"f c #6C6C6C",
"g c #6F6E70",
"h c #6F7073",
"j c #737374",
"k c #797977",
"l c #767679",
"z c #7B7B7C",
"x c #7D7E80",
"c c #838383",
"v c #898887",
"b c #878788",
"n c #8B8B8B",
"m c #939393",
"M c #9B9B9B",
"N c #9F9FA2",
"B c #A3A3A3",
"V c #ACACAC",
"C c #B3B3B3",
"Z c #BDBDBD",
"A c #C4C4C4",
"S c #CCCCCC",
"D c #D3D3D3",
"F c #DBDBDC",
"G c #E4E4E4",
"H c #E9E9E9",
/* pixels */
"&&&&%%%%%%%&&&&&&&&&%&%&&&&%%&&&&&%%%%&%%%%%&&&&&&&&%&&&&&&&&%&&",
"&$ooooOOoOOO&%%&&%%&$#+++OO@@@%%&#oOOooOOoO#&%%&&%&&#+@OO+OOO%%&",
"&$.XoooX.oO%&%&&&%&&%OoXXXoo..#&&#X.oXXXXXO&&&&&&&&%%+XXXXXoo.%%",
"&#XOOOOOO#&&%%%&&%$%&&#OOOOOOX%&&#XOOOOOO#&&&##&&%#&&%#OOOOOOX%%",
"&+oO+OOO%&&&#.O%&@.#&&&+OOOOOO#&&OoOOOOO#==&+.O&&O.O&&&#O@OOOo%%",
"&#ooOOO%&&&#..@&&$..+&&&#OOOOO%&&@oOOOO%&&&#..@&&#..#&&%#OOOoo%&",
"&$oO+O#&&&O..X#&&%oX.+&&&#OOOo#&&#oOOO%%&&@..X#&&$o..@&&&#OOOo#&",
"&+oOO#&&&#.oOo#&&$oo..@*&=%OO.%%%%OOO#&&&O.XOX#&&%OOX.#&=&@OOO$&",
"&@XO#&&&#.oOOo@&=$oOOX.@&&&$o.@&%OoO@%-&#..OOo#&&$XOOX.#&&&%OX#&",
"&#O#=&&O.XOOOo%&=$oOOOo @%&-42:242:1:-%#.oOOOX#&&#XOOO..#&&&OO$&",
"&#O&=&@.XOOOOoO&&$oO+oOOO-izfywweyyew93@oOOOOX@&&%OO+OOX.#&&&O%&",
"%%&&&#.XOOOOOo#&=$oOO@--emvjiyiippppppie3%OOOX#&&#XOOO+OX.#&&&&&",
"&&&&+..OOOOOOo@&&$oO@->fNcpipasfssffsffaaw-Ooo#&&$oO+oOOO..#&&&&",
"&&&#..XXXXXX.X#&=$X@>>jNjiifffgfffffffffffp>oo#&&$XooooooX..$&&&",
"&&&$O@######@#%&*%->3amjifjgjjjggfffffjjgjja6#%&&&$$$$$%$$$@$&&&",
"&&&&&&&&&&&&&&&&*->3pmfagjkjjjjgffjzkjfjkljld6&&&&&&&&&&-&&&&&&&",
"&&&&%&%&&%&&&%&&&23wnzfjkkkzkjglbnMVVBMbkkzkzs1&&&&&&&&&&%%%&&&&",
"&%&%#ooo#OO#O@%%166fxfjzxzckjjgirrrtxCACNczxzxp;&%++O#OOOOO#%&%&",
"&&&&%OoXXXoXO.#;66yzjjxcccckju4,##$#=7bZZVmcccxq&#...oXX..O%%&&&",
"&%&&&%#OOOOOO.%299jzkcvvbbxkw;#&&&==&$;zCZVmbbnj1@XOOOOOO#%&&&%&",
"%++%&&&#OO+OOX-6wwfkznnnnbxu&O#&&##%==$,cCCVmnnnt#oO+OO@#&&&%##&",
"&+XO%&&&#OOOOo:wwikcnnnmncs;Oo+&&#XO%==$5mCVBmnmj;oOOOO#%&&%Oo#%",
"&#oOO%&&&@OOOO3ywfcvmmMmnc5OOX$&&$ooO%&==uBVVMmmn0XO+O#%&&%@OX#&",
"&#ooO+%&&%#+o@9eikvmMMMmma&XOo$&&$oOOO%=&4nBBBMMNs.OO@%&&%OXOX#&",
"&#oOOo@%&&%#o%yescnMMMMmm3.Ooo$&&$oOOo+&&&uBNNNMBz&O#&&&&+OOOX#&",
"&#XOOOo@%&&&+:uijnmMMMMmk:oOOo$&&$ooOOoO&%7mNNMMMm9O&&&%+oOOO.%%",
"&@XOOOOoO%&&*3ipzmmMMMmmrO@OOo@&&$oOOOOOO$1hMMmMMMi#&&%OoOO@OX@&",
"&#XOO+OOO@&&-0ifvmmmMmmm8.@OOo#&&#oOOOOOO#%tmmmmmMa%&&OOOOOOOO#%",
"&#XOOOOOooO%;rigmmmmmmnn6.OOXX#&&$XOOOOOOooqmnnmmMd&%OOOOOOOoo#&",
"&$XXXXooooX+;rijmmmmmmnk>.OOXX#&&$XXoooXoo.7cnnnmMj1+XXXXXXXX.#&",
"&%#+#@##$$%#,uikMmnmmmvf1O####%&&%$$$$$$$%#4zbbbmml7@#%$##@@$#%&",
"&&&&&&&&&&-%,uikBmvvnvcf1%&&&&&&%%%%*%%%%%#7jcxccbg7%&%&%&%&&%&&",
"&%%%%&%%%%&%:yizVmxcxccy%&%&=%%=$OooOooOOoo4hzzzccj7#@O#O##O##%&",
"%%OOO.OOOoOO;yikVmzxzzct$++#O$%%$..XXXooXo%7gkkzzzg7#OoooXoo..#&",
"&#...o.oXXO%;uikVmxzzzca;XXOXX$=$oOOOOOo#&%5fjjjzxg4&&OOOOOOOX#&",
"%%.OOOOOO#&&;eykVMkzzkkd:oOOXX$=$oOOO++$&&%7dggjkzp,&=&#OOOOOo%&",
"&#oOOO@O#&&&%9ufBBkkkklg2o#+OX%&#oOOOO+%-&$7gfffjzrO%&&&+OOOOo%&",
"&#oOOOO%&&&#o6yfBVxjjkjz7.O+Oo$%#oOOO+%&&&o4faafjzr O%&&%#O+oo#&",
"&#oOOO%&&%#.o>ypMZcgjjjz7OOOOo#&#XOO@&&&*O.3aaafjkrXXO&&&&#OOo%&",
"&OoOO#&&&@.Xo:yynAnfgfggu;++OX%%#oOO&&&&O.-yiipfgf5oo.O%&&&$oo$&",
"&#oO#&&&@..Oo%eyzZNjfffjh2%%OX$=#X+%&&&OoX1auiifju%O+o.#&&&&#o$&",
"&#o@&&&#.XOOOO7ysCZkgjfjk7&=#o#&#+%&&%+Xo#7uyyffkioOO#o.+&&&&O$&",
"&%O&&%#.XOOOOo>yeMSmkkkkkg<%&#$%%&&&%+Xoo;iewijkj7oOOOOo.#%&&&%&",
"%%&&&@.oOO++Oo-wekACckkkzz0&&&&&&&&&@.OO@8wwefkcfOo+O+O+oo#%&&&&",
"&&&&#..Oo+oOOX$6eiVDMxcxxcl4&&&&&&&#.oOO3y99akcxuoOOoOOOOo.+&&&&",
"&&&#..XXooooXX@1wecDZbccccbs=&&&&&#O.XX;w99ikvbx1Oo.o.oXXX.X%&%&",
"&&%%O@#####@#$%&8uaVFBnnnnnng2%$%&&%%&7q66yxnnnr&&&%%&%%%%%%&&&&",
"&&&&&&&&&&&&&&&&:yakSDMmnmnmml01<&=1<8q66pvnnmj:&=&&========&&&&",
"&&&&&%%&&%%&%%%&%7agMFSMmmmmmmmca4>ey99yjnmmMn7%&&%%%%%%%%%%&&&&",
"%%&%#ooooooOOO%&&&wjzCGSNmMMmMMMmcfasgxmMMmNM8#=%o.oX.XX..O%&&%&",
"&&&&%OXXoXXXX.#&=@@yznZHDVMMMNMNNNMNNNNNMMBNq.%=&oOOOOOOoO%&&&&&",
"&%&&&%@OOOOOOoO&=$.&ucmAGFCBBBBBBNBNBBNBBVNqOo%=#.OOOOOO@&&&&%$%",
"&O+%&&&#O#OOOX#&&$oo&rcMCGHSCBBBBBVBBBVVZb7OO.&=&oOOOOO#&&&&#o#&",
"&#X+%&&%#OOOOX#&&%o+O+7gmVSGGDACCVCCCZANu;o#OX%&%oOOOO#&&&&$OX#&",
"&#Xo+%&&&#OOOo#&&$ooOO+,rhmVADFFDSAAZBs7%O#OOX%=%oO#O#%&&&$OOo#&",
"&#oOOO%&&%@OOo#&&%oOO@&&&;<7uidxxlhy<,%%&&#OOo%=%ooO#%&&&$ooOo#&",
"&@XOOoO%&&%#OX#&&%oo$&&&%OXOOo@&#oOO.o#&&&%#OX%=%XO#&&&&$OOOOX#&",
"&@oOOOO@&-&&OO#&-$o#&&&%OOO@Oo$&#oOOOOO%&&&&@X%=%X+&&&&%oOOOOX#&",
"&#oOOOOoO%&&%O#&&$+$&&%+oOOOOo%&%oOOOOoo#&&=%O%&%O&&&&#oOOOOOX#&",
"&#XOO@OOOO&&&%%&&$&&&%+oO+OOOo$&OOOOOOOOO%&&&%&&&%&&&#oOOO@OOO#&",
"&+XoOOOOOoO%&&%&&$&&&OoOOOOOOX$&#oOOOOOOOX#%&&&&&&&&$oOOOOOOoX#&",
"&#XoooXoXXX+&&%&&&&&OooOXXoXo.$&#.oooooooXO%&&&&&&&%oXooXoooXX#&",
"&%##@#####++%&&&&&&&$$$$$$$%#%%&%#######%$#$&&&&&%%%$%$#@@###@%&",
"&&&&&&&&&&&&&&&&&&&&&=&&&&&&&&&&&&&&&&&&&&&&&&&&&&&&&&&&&&&&&&&&"
};
