/* XPM */
static char *result[] = {
/* columns rows colors chars-per-pixel */
"64 64 188 2 ",
"   c #020204",
".  c #05050A",
"X  c #0B020D",
"o  c #07090B",
"O  c #0A0B0D",
"+  c #0C100F",
"@  c #0E0311",
"#  c #0D0D13",
"$  c #0F001A",
"%  c #0E0F18",
"&  c #130215",
"*  c #110B14",
"=  c #180D13",
"-  c #16011A",
";  c #1A021D",
":  c #170C1A",
">  c #1B0B1C",
",  c #0F1115",
"<  c #111116",
"1  c #171817",
"2  c #14141B",
"3  c #1A141E",
"4  c #16191D",
"5  c #1A1C1D",
"6  c #24141E",
"7  c #1C201F",
"8  c #25221D",
"9  c #1E0122",
"0  c #171720",
"q  c #1E1223",
"w  c #171820",
"e  c #1B1C25",
"r  c #1D1E28",
"t  c #220225",
"y  c #220B25",
"u  c #250329",
"i  c #2A042D",
"p  c #270A2A",
"a  c #2A0C2C",
"s  c #211323",
"d  c #271827",
"f  c #2A112C",
"g  c #2E0332",
"h  c #2D0B31",
"j  c #310535",
"k  c #330A36",
"l  c #340638",
"z  c #360939",
"x  c #3A0C3E",
"c  c #2E1531",
"v  c #331336",
"b  c #351439",
"n  c #3A153D",
"m  c #381D3A",
"M  c #1E2221",
"N  c #1F202A",
"B  c #212524",
"V  c #242927",
"C  c #2C2B24",
"Z  c #21222B",
"A  c #2B242C",
"S  c #262B2A",
"D  c #292C2C",
"F  c #2B312E",
"G  c #33332D",
"H  c #39332D",
"J  c #2D2A31",
"K  c #392537",
"L  c #2E3432",
"P  c #2F3A37",
"I  c #323534",
"U  c #323936",
"Y  c #39353B",
"T  c #353C39",
"R  c #3A3C3C",
"E  c #4F392D",
"W  c #463639",
"Q  c #36403C",
"!  c #3A423E",
"~  c #48453D",
"^  c #52493D",
"/  c #62512C",
"(  c #776239",
")  c #3C0D41",
"_  c #3E1741",
"`  c #3E2541",
"'  c #421346",
"]  c #411C44",
"[  c #45164B",
"{  c #47194B",
"}  c #4A1D4E",
"|  c #4C1F51",
" . c #412344",
".. c #4A3E4C",
"X. c #4D2151",
"o. c #522256",
"O. c #56245B",
"+. c #4F3F50",
"@. c #553D57",
"#. c #3D4542",
"$. c #3F4844",
"%. c #424342",
"&. c #4B4747",
"*. c #414A46",
"=. c #444D49",
"-. c #4B4B4B",
";. c #47514D",
":. c #49524E",
">. c #585549",
",. c #4F4F50",
"<. c #584459",
"1. c #4B5551",
"2. c #4E5955",
"3. c #555555",
"4. c #525A57",
"5. c #5A565B",
"6. c #525C58",
"7. c #5C5C5C",
"8. c #604141",
"9. c #635C47",
"0. c #6A5E5D",
"q. c #56625D",
"w. c #59635F",
"e. c #7A6F50",
"r. c #665968",
"t. c #636364",
"y. c #686867",
"u. c #6C6C6C",
"i. c #6F706D",
"p. c #7F7960",
"a. c #716972",
"s. c #747474",
"d. c #7B7879",
"f. c #7C7C7C",
"g. c #81775A",
"h. c #837A5D",
"j. c #8D7F64",
"k. c #8C7B76",
"l. c #898166",
"z. c #978B69",
"x. c #AA9D75",
"c. c #B1A57B",
"v. c #C8AB5A",
"b. c #7F7F80",
"n. c #838383",
"m. c #8B878B",
"M. c #8C8C8C",
"N. c #97908E",
"B. c #969696",
"V. c #989992",
"C. c #9B9B9B",
"Z. c #A59F85",
"A. c #A39D96",
"S. c #9EA09E",
"D. c #AFA480",
"F. c #A0A09F",
"G. c #A3A3A3",
"H. c #AEA5A5",
"J. c #ABABAB",
"K. c #B5A8AC",
"L. c #AEAFB3",
"P. c #B0AFB0",
"I. c #B3B3B3",
"U. c #BBBBBA",
"Y. c #C4B68A",
"T. c #D9C994",
"R. c #E5D59C",
"E. c #EAD8A4",
"W. c #F4DFA2",
"Q. c #FCE6AB",
"!. c #FFF8A9",
"~. c #FFEDB2",
"^. c #FFF0B3",
"/. c #FFFFBD",
"(. c #BFC0C0",
"). c #C5C5C4",
"_. c #CBC6C5",
"`. c #CBCBCB",
"'. c #DACFD1",
"]. c #D3D3D3",
"[. c #D7D7DC",
"{. c #DCDCDC",
"}. c #E1D9C9",
"|. c #E0DFE0",
" X c #E4E4E4",
".X c #ECECEC",
"XX c #F4F4F4",
"oX c #FEFEFE",
/* pixels */
"r r r r r e r r r r r r r r r r r r r r e r r r r r r r r r e r r r e e e e r e r r r r r r r r e r r r r e r r r r r r r r r r ",
"r w < < < < * < < % * 4 r e e r r r e r w 2 0 4 4 2 2 4 4 4 w r d w 2 % 2 , < < < < < 0 e r e r r e r e 0 4 4 2 w 2 0 4 4 2 e e ",
"r w # * , < , % , # 2 r r r r r r r r r r 2 , % % * * < < , w N N w # , * # < < , # 2 e r r e r r r r r e 4 < < * * % # < * w r ",
"r w , 2 2 2 2 2 4 0 r r r e w r r w w r r r 0 < 4 4 4 w 2 2 w r N e 2 4 0 4 2 2 2 w N Z r e e r r 0 e e r e 0 2 2 2 2 4 < < w r ",
"r w < < 4 4 2 2 w r r r 0 # < r r w # w r N Z w * # .   o o < 2 % #     o % 2 w e 0 : < , , 4 d r 0 # 0 r r e w 4 2 2 2 4 < e r ",
"r w < 2 2 2 0 w r r r w # # 0 r N w # , 0 2 O 2 J =.t.n.G.I.).).U.J.M.u.,.L # . < - g 9 @   , 5 r w # # w r r r w 2 2 2 < < w r ",
"r w < 2 2 2 0 N d N w # , , w r d N #   # #.f.)..XoXoXoXoXoXoXoXoXoXoXoXoX.X).d.B t l l g i & o , 4 * # # w r r r w 2 4 2 < w r ",
"r w < < 2 0 d N N w # < < < w N 0 o r i.`.oXoXoXoXXX.X X X X X X X X X.XXXoXoXoXf.$ k k g l l i & . # , , # 4 r r r 0 4 2 % e r ",
"r w % % w r r r w # , 2 < < e % M n. XoXoXXX.X X X X X X X X X X X X X X X X XXXr.& i g j j g j l t X * * O # 4 r r r w 2 < w r ",
"r 4 2 4 r r r 0 # , 2 2 w # o t.|.oXoX.X X X|. X X X.X X X X X X.X X{.{. X X X|.A ; p u i j j j j l g ; > : O # 0 r N r 4 < e r ",
"r w 2 N d N w # , 2 2 w O 5 I.oXoX.X X X X X].]. X X X X|.{. X.X X`.{. X X X.Xs.& u u u u i j j j j j j t f c o # w r r r 4 w r ",
"e e r N N w # # 2 2 w . .. XoX.X X X X X X X X`.`.{. X X].{. X{.`.{. X{.]. Xn.@ u u p u u i j k j j j j j y i _ & o w r r r r r ",
"N N N e 4 # # 4 < 4 . :.XXoX X|.|.|.|. X X X X X`.`. X|.`.|.|._.].{.`.`.U.f.> u u u u u u g j j j j j j j l 9 h [ : o w e r r r ",
"r e N w # # # * 4   -.oXXX X|.{.].`.`.`.].].{. X[.).].{._.].].`.`._.].].5.; & 9 p u u u g j j j j j j l j j z > j } > O e r r r ",
"r e r w 4 0 0 e % I .XXX X X[.].`.`.`.`.`.`.`.].{.`.`.].`.`.`.`.].`.M.*.f O.] y & i j j j j j j j j j j j j z a t x { * 0 r e r ",
"r r r N r r r r # ).oX X{.`.`._.`.`.`.`.`.`.`.`.`.`.`.`.`.`.`.].F.3.7.d } X.| o.b y t l j j j j j j j k l j l n t j ' n < r r r ",
"r r r r e r r # n.oX X{.`.`.`.`.).`.`.`.`.`.`.`.`.`.`.`.`.`.].m.-.C.0.k o.} } } o.} f ; i j l l k j l j k j j n u j k | q w N r ",
"r e r e 0 < # w  X.X{.`.`.`.`.].].].`.].].].].`.`.`.`.`.`.].n.7.M.y.# i ' } o.X.} | o.] p t u t i l j j j j l n u l g { v < r r ",
"r r r r e 0   b.oX{.`.`.).].].G.n.s.u.i.s.n.G.`.].`.`.`.].C.-.&.& - t & 9 k [ } X.X.X.| o.a 5.n. .t j l j j z b t l j ' n < N r ",
"r r e r r e 2 )..X].`.`.].I.t.-.s.M.M.M.m.s.-.t.B.`.].].U.-.A - i l l l ; & u x { X.} X.' r.{.(.`.a.a u k j ) y i j g ' ] # r r ",
"e 0 4 e N 0 I  X|.`.`.].F.-.n.F.G.C.C.C.C.G.C.M.3.u.J.).n.~ ; i g j j j i t & ; i ' } | _ I. Xf.`.oXU.+.t j n t l j g ' _ # 4 e ",
"r w , 2 N # t.XX].`.].G.-.B.C.B.B.B.B.C.B.B.C.C.G.3.V I T A t i j j k j i u g t - 9 z z b.{. X.X XXXoXXXB. .- i l j g [ v o w r ",
"r w * 2 0 # B.XX`.`.(.-.M.C.B.C.C.B.C.B.C.B.B.B.B.4.F M T < ; p j j j g j j j z l t X Y `..X X XoXXXoXoXXX{.a.h i l g | s # w r ",
"r w % 2 2 % I. X_.].a.f.J.C.B.B.B.B.B.B.B.C.C.C.P.u.+ D F U V t j j j j j j j ; X :   a.|.n. XoXoX|.[..X.XoX.XU.+.t l } : , w r ",
"r w , 2 < w `.[.`.U.t.U.I.J.J.J.G.G.J.G.J.J.P.I.J.! T D M T U y g g j j j l 9 l.9.1 G Y G.).oXoXoXXXI.].XX X.XoXXXF.] b O < w r ",
"r w # 4 * Z {.].].s.d.U.J.I.I.I.I.I.I.I.I.I.P.U.s.P 1.T B 1 7 & t i j j l t ^ /.T.8 5 G S d.].oXXX.X XJ.I.). XoX{.I.a.. 2 < w r ",
"r w < 4 # L |.`.`.t.G.I.I.I.L.I.I.I.I.I.I.I.I.I.R M 1.T F T 3.s.> t p j z ; g.Y.V.).V A G H x.A.{.oX.X{. X.X.XoX{.J.<.X 4 < w r ",
"r 0 * 4 # %. X`.U.i.I.I.I.I.I.I.I.I.I.I.I.P.I.M.B F B B B 1 y.s., - u i z t 9.l.[.oX0.O I Z c.R.Z.J. XoXoXoXoX.XXXM.; * 2 < w r ",
"r 0 < 2 o ,. X].G.s.I.I.I.I.I.I.I.I.I.I.I.J.I.m.7 ;.;.L 4 3.7.# e # - u i j 6 >.'.8.+.8.  >.T.^.W.Y.N.`.oXoX X X_.m # 2 < % w r ",
"r w # 2 . 3.|.].l.y.I.L.I.I.I.I.I.I.I.I.I.G.J.J.&.G I >.e.3.O 2 N 4 . & u g i X y.H.Z.E.l.E./.Q.Q.~.W.D.V..XJ.G.r.X # 2 * , w r ",
"r e w e # ,.[.].u.a.L.L.J.I.I.I.I.I.I.I.I.G.G.L.D.Q.T.!.v.t k p 2 * # V : 9 i i . 8 9.p.g.e.p.Y.~.~.Y.9.C 3.M.y.- % w w w w e r ",
"r r r N % -.].].w.b.U.G.J.I.L.I.I.I.I.I.I.G.G.F.Y z.Y.x.E t l l t @ M q.L = - u g i t 9 9 t 9 - j.Q.G % S 4 & ; O N r e e r r r ",
"r r e r 4 ` `.].7.f.I.C.I.I.I.I.I.I.I.I.I.C.G.S.p ) b j u t l g u ` 1.F S ;.L : 9 i j z k z z g d x.~ 3.%.C - & 1 w 0 4 0 0 e r ",
"r e < 2 + V `.].5.n.G.C.I.J.I.I.I.I.I.J.I.C.C.I.,.h } _ 9 i j g > M.[.k.L 6.w.P X ; u g g j j z ; z.}.K.k.H X + * < < * # # w r ",
"r w , , + M U.[.7.f.C.G.G.J.I.I.I.I.I.G.J.C.C.J.S.,.& & - 9 y K F D U.oXt.*.$.q g ; * ; u g j l t >._.g.&.  # 2 2 < 2 2 4 < w r ",
"r w % < 2 , G.{.w.s.F.B.G.I.G.I.U.J.I.J.C.C.C.F.B.B.M   5 L =.L F L =.i.I , q j i V L 8 - t i k j > a.a.X 4 w 0 4 2 4 2 < < w r ",
"r w , 2 0 o M. Xy.a.S.C.s.A , I n.I.I.J.B.B.C.B.F.i.  7 U ;.U B $.2.! , F F ; i e L ! !   o & $ t 9     V L 0 r 4 2 2 2 2 < e r ",
"r w < < w . 7. Xf.y.G.d.o o 4 2 O 7.U.J.C.B.B.B.F.` o P =.T M $.*.V #.$.5 ! U X 5 #.! 2 y O 8 / 1 8 S M 1 < r r e 0 2 4 2 < w r ",
"r w < 2 0 # D ].S.y.G.D o 2 w N N o t.I.B.C.B.C.m.O O $.=.M *.:.$.T *.S T T U ! 7.L 5 > x - ( !.h.P 1.! 1 2 e r r e 0 2 2 < w r ",
"r w < 2 2 0 0 J.(.u.k.o 2 < w r r w # n.C.B.B.G.3.@ 9 5 *.M ! :.;.;.S V R ! 7 G ]._.-.t u t m E.~.h.D 5 # # 2 e r r r 0 2 < w r ",
"r 0 < < w Z % d.].s.3.o 2 < w r r e o R A.B.B.C.D - i 9 e ! 1 ! 1.V D =.F 1 T S f..XV.; u n ) W T.T.3 # 0 < # 0 r r r r 0 < w r ",
"r w < 0 r Z 0 J ).s.R o # # 4 N N e < O b.G.S.` - g g j t B $.7 M P U U M U 1.1.M 4 y t p y X.[ m 6 < 0 2 4 < % 0 r r r e 2 e r ",
"r w 4 r r r 0   F.d.2 M R 7 , e < # <   w.V.D - h l g g l t B *.L ! #.1 L =.T B 2.5 # : & ; 9 a 9 # 2 2 2 2 4 * # 0 e r N e e r ",
"r e e r r 0 # . 5.s.  T :.:.M o S T Q y b c ; k l g l l i l t B *.U M U ;.;.U ! #.< 2 4 2 # : 2 4 < 2 2 2 4 2 4 2 # 0 r r r r r ",
"r r r r 0 # # < < s.7 #.;.=.T V T 2.$.p j g j j g g l g t u l 9 5 *.D D :.;.:.! , < 2 < < < e Z e < 2 2 < 4 < 2 4 < # 4 r r r r ",
"r r r w # # , < # I F #.:.$.=.L T 1.$.u l j j g l g t X @ u u j t 4 ! S F :.$.< # < , < , 2 r N e 2 , , < % * < # % # , w r r r ",
"r e e e 4 w w w 4 o D =.;.=.1.T ! 1.$.a l g g g 9 : , 0 # . ; u z g > ! B 5 e 4 r e e e e r r r r r e e e e e r e r e e r r r r ",
"r r r r r r r r e e $.1.;.=.$.L T 1.;.a j h s - 2 e N N < ..b.@.u u 9 o 4 r N Z r N N N N r r r r r r N N N r N r r N r N r r r ",
"r r r r r e e r 2 V ;.;.=.2.L o M $.#.3 @ 3.U 4 r r r d 2 t.L.`.].n.q 0 r r e w e e e e e r r r r r e e r e e r e e r r r r r r ",
"r e e e 0 2 < < # R 1.2.q.%.< r 4 < O # , -.w 4 4 < 2 e 2 C.U.M.S.`.` 0 < # , , , < , * # < r r r < # < < * # # # # < e r r e r ",
"r r r r e < # # 4 ;.2.6.w.L 2 r N 0 1 4 < 4 O * # 4 < q 9 m <.m.U.7.# N e 2 % 2 < 4 2 2 < < r r e < < 4 2 < 2 < < 4 e r r r e r ",
"r r e r r e w # D :.6.w.;.2 0 r r 2 V ;.$.V O 1 T =.A j l g i 9 v S w N N r w 2 2 2 2 2 4 < e N r # 2 2 2 4 2 2 w r r r r w e e ",
"r 0 4 e r r r # $.2.6.=.4 # w N r < L ;.:.;.7 M =.1.I g j g j z i . e e r d N 0 2 4 2 2 < < r r e * < 2 2 4 2 0 r r r r w 2 w r ",
"r 0 # 4 r r r < B J B # < < w r r < L ;.;.#.! D $.1.#.t l g i g & , < w r r N r 0 2 2 2 2 % e r e % 2 2 2 2 0 r r r r w < * w r ",
"r 0 # < 4 e r r 0 # # 4 2 < w r e 1 P =.:.=.;.L P 1.=.s l i : e 4 < 2 % 0 r r r r 0 2 2 2 % r r e < 2 4 2 0 e r r r e < < < w r ",
"r 0 < 2 < 0 e r N r w 4 2 < w r w 1 ! ;.;.;.-.*.S 1.2.R & # w r w , 2 2 < w r r r r w 2 2 * e r e < < 4 0 r r r r w < 2 2 , w r ",
"r w * 2 2 < 4 e N r e 0 2 < w N w 5 ;.;.=.2.I e 1 I L 4 , , e e w , 2 2 * < e r r r e 0 < < e r e % < 0 r N r r e < 2 2 2 < w r ",
"r w < 2 2 2 < 4 e r r r 0 * w N 0 V ;.;.2.:.w 0 % # # * 2 < w r w < 2 2 0 < 2 w r r r r 4 < r r r , 0 r r r r w < 2 2 2 2 * w r ",
"r w < 2 0 2 < < 4 e r r e 2 w N 2 L :.2.w.$.4 4 < 4 2 4 2 , e e w < < 2 2 2 < 2 e r r r e 2 e r e < r r r r e * 2 2 2 2 2 < w r ",
"r w < 2 2 2 4 2 < 4 r r r e e r 1 Q 6.6.q.T % 2 < 4 4 4 2 < w r w < 4 4 2 2 0 < < e r r r r r r r r r r r e < 2 2 2 2 0 2 < 0 r ",
"r w < < 2 < 4 2 2 2 2 e r r e e 2 #.2.w.2.2 , 2 2 2 2 2 2 % w e w < < 2 2 2 2 2 < < e r r r N r r r r r e < < 2 < 4 < 2 < < w r ",
"r w # < < < * < , , % 2 r r N w 5 1.2.*.4 # , 2 < * < % < , e r w # < < * < < % < < < e r r r r r r r w < < < < < < < , < # w r ",
"r r w w w w 0 4 w w 0 0 r r r e 4 S N 1 2 e w w e w e w w w e r r w w w w w w w e w w w r r r r r e r e 0 w e w 0 w 0 w w 0 r r ",
"r r r r r r r r r r e r r r r r e w e N N e r r r r r r r r r r r r r r r r r r r r r e r r r r r r r r r r r r r r r r r r r r "
};
