/* XPM */
static char *result[] = {
/* columns rows colors chars-per-pixel */
"64 64 180 2 ",
"   c #060209",
".  c #07070A",
"X  c #0B040D",
"o  c #0A0B0E",
"O  c #0E0211",
"+  c #0E0D12",
"@  c #130215",
"#  c #120B15",
"$  c #160219",
"%  c #1A031C",
"&  c #150D19",
"*  c #1B0C1D",
"=  c #0F1114",
"-  c #0F1018",
";  c #111116",
":  c #1D1914",
">  c #14141B",
",  c #19121A",
"<  c #16191D",
"1  c #1A1C1D",
"2  c #21091E",
"3  c #1C211F",
"4  c #1E0122",
"5  c #1E0B21",
"6  c #171720",
"7  c #1C1322",
"8  c #171820",
"9  c #1B1C25",
"0  c #1D1E28",
"q  c #220225",
"w  c #220B25",
"e  c #260329",
"r  c #29032D",
"t  c #250A29",
"y  c #290C2C",
"u  c #221424",
"i  c #291427",
"p  c #231D26",
"a  c #2B112E",
"s  c #2E0432",
"d  c #2E0C31",
"f  c #310535",
"g  c #310934",
"h  c #340639",
"j  c #350939",
"k  c #3A0B3E",
"l  c #2F1231",
"z  c #311334",
"x  c #3A143D",
"c  c #361838",
"v  c #1E2222",
"b  c #1F202A",
"n  c #222524",
"m  c #2A2326",
"M  c #242927",
"N  c #23242A",
"B  c #262B29",
"V  c #2A2D2C",
"C  c #302A2D",
"Z  c #2B312E",
"A  c #36362E",
"S  c #2F2830",
"D  c #2E3432",
"F  c #323635",
"G  c #323A36",
"H  c #3B3837",
"J  c #353D3A",
"K  c #393F3D",
"L  c #453636",
"P  c #37413C",
"I  c #39423E",
"U  c #53472D",
"Y  c #544E3C",
"T  c #675E3D",
"R  c #3C0E41",
"E  c #3D1640",
"W  c #3E1841",
"Q  c #383D41",
"!  c #411345",
"~  c #421A45",
"^  c #451649",
"/  c #47184B",
"(  c #4A1C4E",
")  c #4D1E51",
"_  c #4B3F4C",
"`  c #4E2151",
"'  c #512155",
"]  c #542359",
"[  c #513D53",
"{  c #3C4441",
"}  c #3F4844",
"|  c #414A46",
" . c #484845",
".. c #444D49",
"X. c #4D4C4D",
"o. c #47514D",
"O. c #48534F",
"+. c #5C5249",
"@. c #5A495B",
"#. c #4B5551",
"$. c #4E5955",
"%. c #515B56",
"&. c #535D5A",
"*. c #664D47",
"=. c #635A44",
"-. c #7A5C5C",
";. c #58625E",
":. c #6A6249",
">. c #71654E",
",. c #6F6A55",
"<. c #756A57",
"1. c #7E7157",
"2. c #655266",
"3. c #675369",
"4. c #6D5B6F",
"5. c #626563",
"6. c #6C6C6B",
"7. c #7A7665",
"8. c #716472",
"9. c #737372",
"0. c #7E777F",
"q. c #837855",
"w. c #847171",
"e. c #8C8769",
"r. c #978B67",
"t. c #9C9171",
"y. c #A39573",
"u. c #A49973",
"i. c #C9AC5E",
"p. c #827084",
"a. c #888588",
"s. c #8A8A8A",
"d. c #96948E",
"f. c #929392",
"g. c #999895",
"h. c #9A9995",
"j. c #9C9B9C",
"k. c #A29C8D",
"l. c #A69597",
"z. c #9FA29F",
"x. c #B9AB81",
"c. c #BDB080",
"v. c #A19BA2",
"b. c #A2A2A2",
"n. c #AAA1A6",
"m. c #ACACAC",
"M. c #B6B4B6",
"N. c #B5B9B5",
"B. c #BCBBBC",
"V. c #CDBD8D",
"C. c #C4B9B8",
"Z. c #CEC08B",
"A. c #D6C491",
"S. c #DAC792",
"D. c #E1CC95",
"F. c #EDD59C",
"G. c #E0D0A0",
"H. c #EDDBA2",
"J. c #FCE6A9",
"K. c #ECE0BD",
"L. c #FFEFB4",
"P. c #FFF7B9",
"I. c #FFFBBB",
"U. c #C5C5C5",
"Y. c #C9CAC9",
"T. c #D2C5C7",
"R. c #D0CFD0",
"E. c #D4D4D4",
"W. c #DBDDDB",
"Q. c #DEE0DE",
"!. c #DCDEE1",
"~. c #E0DFE0",
"^. c #E4E4E4",
"/. c #E6E9E6",
"(. c #EDEDED",
"). c #F0F0EF",
"_. c #EEEFF0",
"`. c #F4F4F4",
"'. c #F7F8F8",
"]. c #FDFDFD",
/* pixels */
"0 0 0 0 0 9 9 0 0 9 0 0 0 0 0 0 0 0 0 0 9 0 0 0 0 0 0 0 0 0 0 0 0 0 0 0 9 0 0 9 0 0 9 0 0 0 0 0 0 0 0 0 0 0 0 0 0 0 0 0 0 0 0 0 ",
"0 8 ; ; ; ; ; ; - & ; > 0 0 9 0 b 8 0 0 8 < 6 > > 6 > > > 6 0 0 0 8 ; ; ; ; - & > ; - 6 0 0 9 0 0 9 0 9 9 > > > < > 6 > > < 9 0 ",
"b 8 + # = ; & ; = ; > 0 0 0 0 0 0 0 0 b 8 < + + ; ; ; ; + + 8 0 0 6 + ; # ; = = # = ; 0 0 0 0 0 0 0 0 0 9 > ; + ; ; ; & ; = 8 0 ",
"0 8 = > > > > > > 8 0 0 0 8 8 0 0 0 8 b b 0 6 < > > > > < ; 8 0 0 < = ; < > > > > 6 0 0 0 < 8 0 0 9 8 9 0 0 6 < > ; > > ; = 8 0 ",
"0 < ; > > > > > 8 0 0 0 6 + > b 8 ; o - > > , ; # + o + o = < 0 0 9 ; ; < > > > 8 0 0 0 6 + > 0 0 > + 6 0 0 0 > > > 6 > > ; 9 0 ",
"0 8 ; > 6 > > 6 0 0 0 8 + o = + * t l c a w # O X O @ @ @ X O o + ; ; > ; < > 6 0 0 0 9 + + < 0 0 8 + + 8 0 0 0 8 > > > > ; 8 0 ",
"0 8 = ; > > 9 0 0 0 8 +   & l W ! ! y y t q e s f f h f f f f s r $ + ; > > 9 0 0 0 8 + + = 8 0 0 8 ; = + 8 0 0 N 6 ; > > ; 9 0 ",
"0 8 ; > > 8 0 0 0 8 + . l ) ! k r % w f f f f f f f f f f f f f h e + > > 6 0 0 0 8 + ; ; ; 8 0 0 9 ; ; - + 6 0 0 0 6 < > - 8 0 ",
"0 8 ; > 8 0 b 0 8 + o W ) j s r 5 k h f f f f g f f f f f f f s s $ + ; 8 0 0 0 8 + # > > - 8 0 0 8 ; ; > ; + 6 0 0 0 8 ; ; 9 0 ",
"0 6 ; > 0 0 0 8 + . x ) f s f 5 E f f f f f f f f g f f r e e e q O = 8 0 0 0 8 + ; > > > ; 6 0 0 9 ; > > > + + 8 0 b 0 8 ; 9 0 ",
"0 8 < 0 0 0 8 + o w ` j f h 4 z k f f f f f f f f f f r w e e e % + 8 0 0 0 8 + ; > > < ; ; > 0 0 8 > > > > ; - + 8 0 0 0 < 8 0 ",
"0 9 0 b 0 8 + = o W / s f f % x f f f f f f f f f f f e e e w e $ 8 0 0 0 6 + ; > > > > < ; 8 0 0 9 ; > > > < > & + 8 0 0 0 0 0 ",
"0 0 0 0 < + + = * ) j f f s y R f f f f f f f f g f f e e r e e % < 0 0 6 + + > > > ; > > ; 6 0 0 8 ; ; > > ; < < + + 6 0 0 0 0 ",
"0 0 0 8 + + - + a ( f f f r l k f f f f f f f f f f f s q e e e % ; 0 9 + + = = ; ; ; ; ; + 8 0 0 8 ; ; > - = ; - + + + 8 0 0 0 ",
"0 0 0 8 > < 8 = l / f h f r l k f f f f f f f f f f f f f e r y q + 0 9 > 6 6 6 8 < 8 8 6 8 0 0 0 0 9 8 8 8 9 8 8 8 8 < 8 0 0 0 ",
"0 0 0 0 0 b b > x j q e e q e f e r s g z c y s f f s r r e % % %   9 0 0 0 0 0 0 0 0 0 0 0 0 0 0 0 0 0 0 0 0 0 0 b 0 0 0 0 0 0 ",
"0 0 0 0 0 9 0 - t 2.0.p.s.f.l.n.m.M.B.U.Y.Y.v.u @ * % 2 t a a a z l - b 0 0 0 0 9 0 0 0 0 0 0 0 0 0 0 0 0 0 0 0 0 0 0 9 0 0 0 0 ",
"0 9 9 9 6 - ;   @.N./.].].`.].'.].].].'.M.s./.@.~ ` ' ' ' ` ' ' ] ( ; 9 6 ; - ; > 6 > 6 < < 0 0 0 9 > < 6 6 > > ; # ; > 9 0 9 0 ",
"0 0 0 0 9 > = @ p.j.R.].`.^.`.).'.'.'.(.E.E.W.3.! ' ( ) ( ( ( ( ) ~ & 9 9 ; + = & = - + + + 8 0 0 8 + + ; ; ; ; = = < 9 0 0 0 0 ",
"0 0 9 0 0 0 > O 4.`.].'.E.Y.W.W.Y.E.`.'.^.^.W.4.! ' ' ` ` ` ` ` ` ( & 0 0 0 < > > ; > < ; = 8 0 0 9 ; ; > ; > > > 8 9 0 0 0 9 0 ",
"0 8 > 0 0 0 0 O 3./.).].'.E.m.m.Y.'.].]./.(.W.8.! ( / / / ^ ^ ^ ^ E # 9 0 0 0 6 > 6 > > > ; 9 0 0 9 > ; > > > > 6 0 0 0 9 6 6 9 ",
"0 8 ; > 9 0 b O @.W.~.].].].W.^.`.).].].^.f.Q.8.q y e e q q q 4 4 $   < 0 0 0 9 8 > > > > ; 8 0 0 8 ; ; 6 > > 6 0 0 0 9 6 + 6 0 ",
"0 8 - ; < 9 b   _ f.f.].].].'.`.]._.].].).b.E.X.  e q q % % % 2 e e @   < 9 p 0 0 6 > 6 ; - 8 0 0 9 - > > > 8 0 0 0 9 > ; - 6 0 ",
"0 8 ; ; - < b - # 0.B.B.B.m.b.j.h.d.k.k.6.6.X.M , % f h f s e f h f f $ + > 0 0 0 0 8 > < - 8 0 0 8 = > > 8 0 0 0 9 < < ; = 6 0 ",
"0 8 ; < > ; 8 < % % D m =.V.A.S.D.F.A.:.n m V V > o & f f f r f f f s r O ; > 0 0 0 9 6 ; ; 9 0 0 0 ; > > 0 0 b 0 < > > > ; > 0 ",
"0 > ; ; 6 ; > ; % # 1 F V x.P.J.J.P.u.p F S ; : Y A.>.4 j f f f f f s r # + > > 9 0 0 0 6 ; 8 0 0 8 ; > 0 0 b 0 > = > > > ; 8 0 ",
"0 8 ; > 6 > < > X m  .1 = t.I.L.P.I.V.8 , : 9.!.t.P.u.% h f f f f f s e $ = > ; < 9 b 0 0 < 6 0 0 8 > 0 0 b 0 > ; > > 6 > ; 8 0 ",
"0 6 ; > > > ; >   C l.M.H x.x.+.<.c.H.:.q._ w.].n.A.1.4 j f f f f f r e # - , > ; < 0 0 0 9 9 0 0 0 8 0 0 0 > ; > > > > > ; 8 0 ",
"0 6 - ; > > > >   H *.l.K.q.@ 4 4 4 L Z.G.n.-.T.f.r.i s f f f f s r r q . > > ; ; ; > 0 0 0 9 0 0 0 0 0 0 > ; > > ; > > > ; < 0 ",
"0 8 + = ; ; ; ; X O g.C.e.w f j h h q 5 T 7.s.5.: p s f f s r s r e q   + ; ; ; - + ; 8 9 0 0 0 0 0 0 8 > = ; ; ; ; ; - # = 8 0 ",
"0 0 > 8 8 8 8 8 1   u H 2 r j f f f j f 4 %   X e s f s r e q @ @ @ X * 7 ; 6 8 9 9 9 > 0 0 9 0 0 0 0 0 8 8 8 8 8 8 < > > < 0 0 ",
"0 0 0 0 0 0 0 0 p > O % f f f f s s s s s s s g y r q % % @ # X e 5 s k R z 7 7 < ; < 0 0 0 0 0 0 0 0 0 0 0 0 0 0 0 0 0 0 0 0 0 ",
"0 0 0 0 0 0 0 0 9 0 > O 4 4 q q q q q 4 4 % $ $ % @ , 1 Z v I p s r f f s f k e % d $ o 6 0 0 0 0 0 9 9 8 6 > 6 > 6 > 8 6 8 9 0 ",
"0 9 ; ; = ; ; ; - - > < ; + O . + O + + + + + o D 3 { #.B v J # r s f f f f s e ) f *.i.U - 9 0 0 0 0 0 0 ; - ; = ; - & = + 8 0 ",
"0 6 + ; + ; # ; = + ; 0 N 0 0 0 0 0 0 0 0 > - + v < n J 9.a.z.9.4 f r f f f e l ( L J.J.=.{ J 8 9 6 0 0 0 0 6 ; < ; > > ; = 8 0 ",
"0 6 ; ; > > > > ; 9 0 0 0 9 9 0 0 8 8 0 0 0 < 5 * # % Z ).).E.5.@ e e q $ @ $ y k r.P.,.Q $.} v - + - 9 0 0 0 6 > > > > > > 8 0 ",
"0 8 ; < 6 > > > 9 0 0 0 < + < 0 0 > + 6 0 0 0 5 f @ * p K 6.H M ..n u > : ; # > $ y.H.P $.I > v { G = - 9 0 0 0 6 ; > > > ; 8 0 ",
"0 > ; ; > > > 9 0 0 0 6 + + > 0 0 8 + + 8 0 0 < y u G Z B P M F ..#.o...J B ; N > 9 A F I v D } J { Z o - 0 0 0 0 6 > < ; > 9 0 ",
"0 8 ; > > > 9 0 0 0 6 + # = 8 0 0 0 - + + < b b > ; v P ..| } 3 J o...#.{ D 1 0 b <   3 : Z o.J J G { V o < 9 0 0 0 6 > < ; 8 0 ",
"0 8 & > > 6 0 0 0 8 + + > ; 6 0 0 8 ; > = + < b 8 v 3 J G Z ..B J ..o.o.| G n ; < = > = = 3 P P J { { B o + - 9 0 0 0 6 ; = 9 0 ",
"0 6 ; < 6 0 0 0 < + = > > ; 8 0 0 8 ; ; > ; + 8 0 9 M 1 I | o.P v J O.o.X.I F ; = > > ; 1 J 1 I I G 3 o + > + 6 0 0 0 0 > + 9 0 ",
"0 8 ; > 0 0 0 8 + ; > > > ; 6 0 0 8 ; > > > ; + 8 8 B n J O.O.O.B I ....#.| v . + ; > > + 1 ; 3 M 1 o + > > ; ; < 0 0 0 0 < 8 0 ",
"0 8 < 0 0 0 8 + ; > > > ; ; 8 0 0 8 > > > > > ; + ; v n 1 ..} B n Z { #.P 1 % $ = V > > - + V V n = ; > > > > ; + > 0 0 0 9 0 0 ",
"0 8 0 0 0 6 + = > > < > > ; 8 0 0 8 = > > > > > = + > B M M 1 M J } P N % e e 4 o I 1 > > + o G Z . > > 6 > 6 > - - 6 0 0 0 0 0 ",
"0 0 0 0 6 + + ; > ; < > ; = < 0 0 8 ; ; > > > > > = o ; ; F I } P B * q s s f 4 > 3 ; ; ; ; 9 + o ; > > ; > > ; > - + < 0 0 9 0 ",
"0 0 0 8 + + ; ; ; - # - - + 8 0 0 0 - ; ; ; ; ; - - = . X < D , % e r q s f f r v = + + + < 0 b 0 > # ; - = = ; = - + + 9 0 0 0 ",
"0 0 0 8 < 6 9 6 6 8 8 8 8 8 9 0 0 9 8 8 9 8 9 8 8 9 ; N C.s.% s f s % % f f s f $ < 8 0 9 0 0 0 0 0 8 v 0 8 9 0 0 9 0 9 0 0 0 0 ",
"0 0 0 0 0 0 0 0 0 0 0 0 0 0 0 0 0 0 0 0 0 0 0 0 0 b 6 F j.m.S @ r r @ % f f f s # N N 0 0 0 0 0 0 b b b b b 0 b b 0 b 0 0 0 0 0 ",
"0 0 0 0 9 0 9 0 9 0 0 0 0 0 0 0 0 0 0 b 0 0 b 0 0 b - 5.m.j.j.K @ O . % s f r & + > 0 8 0 8 0 b 0 0 8 0 0 9 0 0 8 0 0 0 0 0 0 9 ",
"0 9 9 9 6 > ; ; ; - ; ; - ; 8 0 0 9 > > > > > 8 > 8 ; w c [ v.M.; > > 4 f f e B J 3 o = ; > 0 N 0 ; + = ; ; + + + + ; 9 0 0 9 0 ",
"0 0 0 9 9 ; + + & + + + + + 6 0 0 8 = ; ; ; ; # & ; + r f e q 5 8 N 6 e f f q I $.I ; = + o > 8 0 ; ; > > > ; > ; > 0 0 0 0 0 0 ",
"0 9 0 0 0 0 6 < > < < > < = 6 0 0 9 ; ; > > > > ; 6 > r s f f s t 6 8 r f f t ..O.K B V M D B > 8 ; > > > > > > < 0 b 0 0 8 8 9 ",
"0 6 > 0 b 0 9 6 > > > > ; ; 6 0 0 8 > ; > > > > 8 0 0 7 r f f f s & ; t f s N #.O.D J | ..#.{ > 9 ; > > > > > 8 0 0 0 0 9 ; 8 b ",
"0 6 + < 0 0 0 0 8 6 > > > ; 6 0 0 8 ; > > > > 6 0 0 b 8 e h f e p { 8 + e q K #.o.B ......#.D ; 0 # > > > > > 0 0 0 0 9 ; # 8 0 ",
"0 6 + - < 9 0 0 0 6 > > > ; 8 0 0 8 ; > 6 > > 0 0 0 0 - 4 r w D o.O.G ; + = } O.P 1 K ..o...Z > 0 + < > > 6 0 0 0 0 9 ; ; - 8 0 ",
"0 < - > ; < 9 0 0 0 9 > ; ; 6 0 0 0 ; > > 8 0 0 0 0 < + + V | #.O.O.Z + > < # n 1 < I o.o.} M > 0 = ; > 6 0 0 0 0 6 ; ; < = 8 0 ",
"0 6 = < > > > 0 0 0 9 6 > ; 8 p 0 8 ; < 6 9 0 b 8 < > > ; ..#.O...B 1 ; + > 8 0 > V &...O...M < 0 & > 6 0 0 0 0 8 ; > > > = 8 0 ",
"0 6 ; ; > > ; > 9 0 0 0 > ; 8 b 0 8 ; 6 0 0 0 0 < ; > > = 1 ..G v J } D 1 + > 8 0 8 o.O.o...v 8 0 ; > 0 0 0 0 6 ; > > > > & 8 0 ",
"0 8 ; > > > > > > 0 0 0 0 > 8 0 0 8 < 8 0 0 9 > > > > > + 1 M 1 ..#.} O.O.< # > 6 N &.&.O...b 0 0 - 9 0 0 0 6 > > > > > > ; 8 0 ",
"0 8 > > , > > > > > 0 0 0 9 0 0 0 9 9 0 0 9 > > > > ; ; } &.;.I I ....o.O.G o > + B &.&.$.| 1 8 0 0 0 0 0 9 ; > > > > 6 > = 8 0 ",
"0 8 = ; > > > ; ; ; - 9 0 0 0 0 0 9 0 0 0 > ; > > > + ..;.;.&.$.o.O.o.o.O...1 ; - < %.&.%.} < 9 0 0 0 0 9 ; ; > ; < ; > ; ; 8 0 ",
"0 8 + ; ; ; ; ; ; - - < 9 0 9 0 0 0 0 0 < ; ; ; ; o M &.%.%.O.O.O...P ..P G > + ; o { ;.#.{ ; 0 b 0 0 8 ; + ; ; ; ; ; = ; + 8 0 ",
"0 0 8 8 8 8 8 8 8 8 < < 0 0 9 0 0 0 0 0 < 8 8 8 0 ; K #.O.O...} D B n 1 ; = > 1 1 < > } $.{ + b 0 0 0 8 8 9 8 9 6 8 6 8 6 8 0 0 ",
"0 0 0 0 0 0 0 0 0 0 0 9 0 0 0 0 0 0 0 0 0 0 0 0 b > F | F M < ; ; > 8 8 8 0 0 0 b b 8 > V V = b 0 0 0 b 0 0 0 0 0 0 0 0 0 0 0 0 "
};
