/* XPM */
static char *result[] = {
/* columns rows colors chars-per-pixel */
"64 64 178 2 ",
"   c #030004",
".  c #060409",
"X  c #0B040C",
"o  c #07090B",
"O  c #0A0B0E",
"+  c #0E0310",
"@  c #0E0D13",
"#  c #0C0E18",
"$  c #130315",
"%  c #130D16",
"&  c #190F15",
"*  c #16031A",
"=  c #1B021D",
"-  c #160B19",
";  c #1A0B1C",
":  c #0F1014",
">  c #111116",
",  c #151A16",
"<  c #14141B",
"1  c #1C131E",
"2  c #16181E",
"3  c #1A1C1D",
"4  c #25181C",
"5  c #1C211F",
"6  c #1E0221",
"7  c #1E0B22",
"8  c #171720",
"9  c #1B1423",
"0  c #171820",
"q  c #1B1C25",
"w  c #1D1E28",
"e  c #220225",
"r  c #220C24",
"t  c #260329",
"y  c #2A032E",
"u  c #260B29",
"i  c #2A0B2D",
"p  c #231226",
"a  c #281627",
"s  c #201C22",
"d  c #2A122D",
"f  c #2B1A2D",
"g  c #2E0432",
"h  c #2E0B31",
"j  c #310535",
"k  c #300934",
"l  c #340539",
"z  c #350939",
"x  c #390C3D",
"c  c #2E1231",
"v  c #321335",
"b  c #371639",
"n  c #39123D",
"m  c #1E2322",
"M  c #1F202A",
"N  c #222524",
"B  c #2F2122",
"V  c #242827",
"C  c #2A2A25",
"Z  c #21222C",
"A  c #2A242C",
"S  c #262B29",
"D  c #2A2D2C",
"F  c #352527",
"G  c #2A312E",
"H  c #38362C",
"J  c #2D2D31",
"K  c #392132",
"L  c #2E3431",
"P  c #2D3735",
"I  c #313634",
"U  c #323936",
"Y  c #3D3931",
"T  c #353C39",
"R  c #393F3C",
"E  c #4A3E34",
"W  c #37413C",
"Q  c #39413E",
"!  c #4E453C",
"~  c #3C0D45",
"^  c #3D1241",
"/  c #400F46",
"(  c #411445",
")  c #421C45",
"_  c #46164A",
"`  c #471A4B",
"'  c #4A1D4E",
"]  c #4C1E50",
"[  c #442C46",
"{  c #443946",
"}  c #4D2151",
"|  c #512255",
" . c #552259",
".. c #533A55",
"X. c #3C4542",
"o. c #3F4845",
"O. c #414A46",
"+. c #4F4D42",
"@. c #444D4A",
"#. c #4C4C4C",
"$. c #5A4544",
"%. c #47514D",
"&. c #48524E",
"*. c #545344",
"=. c #5B4E5C",
"-. c #4B5651",
";. c #4E5955",
":. c #535857",
">. c #535D59",
",. c #5C5C5C",
"<. c #685D4D",
"1. c #665953",
"2. c #745D59",
"3. c #59635F",
"4. c #72684E",
"5. c #736D56",
"6. c #736E5A",
"7. c #7A5F62",
"8. c #5A6561",
"9. c #646262",
"0. c #6A6A6A",
"q. c #7D7A72",
"w. c #7D757E",
"e. c #7C7D7C",
"r. c #84703D",
"t. c #897175",
"y. c #978655",
"u. c #8D8362",
"i. c #988A68",
"p. c #9C916A",
"a. c #A1946D",
"s. c #A99A75",
"d. c #AFA377",
"f. c #B5A97A",
"g. c #837A83",
"h. c #848484",
"j. c #898389",
"k. c #8B8A8B",
"l. c #99968E",
"z. c #918C92",
"x. c #929392",
"c. c #9A9996",
"v. c #999699",
"b. c #9D9D9D",
"n. c #B29C9B",
"m. c #9FA29F",
"M. c #A9A599",
"N. c #A19CA1",
"B. c #A5A5A5",
"V. c #ABA9AB",
"C. c #BAB0A8",
"Z. c #B2B2B2",
"A. c #BCBCBC",
"S. c #C5B887",
"D. c #C0B4B7",
"F. c #D3C28F",
"G. c #D6C492",
"H. c #DCCB95",
"J. c #DFD098",
"K. c #E8D29A",
"L. c #F9E5A9",
"P. c #FDE9AE",
"I. c #FFEDB2",
"U. c #FFF4B6",
"Y. c #FFFFBA",
"T. c #C3C3C3",
"R. c #C5C6C8",
"E. c #CCCBCB",
"W. c #D1D2D1",
"Q. c #D7D9D7",
"!. c #DDDEDE",
"~. c #F1EADA",
"^. c #E4E4E4",
"/. c #EDE6E5",
"(. c #EBEBEB",
"). c #EFF0F1",
"_. c #F3F3F3",
"`. c #FDFDFD",
/* pixels */
"w w w w w q q w q w w q w w w w w w w w w w w w w w w w w w w w w w w q w w q q w q w q w w w w w w w w w w w M w w w w w w w w ",
"w 0 > > > > > > > % > 8 w w q w w q q q q < 8 8 < < 2 < < 2 w w w 2 < > > > > > < > > 8 w w q q w q q q 0 0 < < 2 < 8 < < 2 q w ",
"w 0 @ % > > > % > > < w w w q w w w w w q < > > > % > > > @ 0 w w < % : > : % @ : @ < w w w q w w q w w q < > > > % : > > @ 0 w ",
"w 0 : < < < < < < 0 w w w 8 q w q q q q w q 8 > > < < < < > 0 w w 0 > < < 8 < < < 0 M M w q q w w q q q w q 8 < < < < < > > 0 w ",
"w 0 > < < < < 8 0 w w w 8 @ > w w 0 @ 8 w w q 8 < < < 2 < > 0 M q < O @ @ @ @ @ > 9 8 < > o : m w 8 @ 2 w w w 0 < 2 < < < > q w ",
"w 2 > < 8 < < 8 w w w 0 @ @ 0 w w 0 @ @ 0 w w w q < < < < > : X X + + $ $ + X X + * r c v c p - # > O @ 0 w w w 0 < < < < > 0 w ",
"w 0 : < < < 8 w w w 0 @ @ : 0 w w 0 > : @ 0 w w w q < < < O 6 g g j j j l j j j y e e u u h ( ( n d @ o @ 2 w s w q < < < > 0 M ",
"w 0 > > < q w w w 0 @ > < : 8 w w q > > : @ 0 w w w 8 < > + j j j j j j j j j j j l l j h 7 = j ~ ` ` r o @ 0 w w w 0 < < < 0 w ",
"w 8 > < 0 w w w 0 @ > < < > 8 w w 0 > < < : @ 8 w w w 0 < o 6 g g g j j j j j j j k j j j z v = g g x | d O @ 0 w w w q < > q w ",
"w 0 > 0 w w w 0 @ > < < < > 8 w w 0 > < < < : @ 0 w w w 0 : * t t t t y j j j j j j j j j g x k = l g x | r o @ 8 w M w 8 > 0 w ",
"w 0 < M w w 0 @ @ < < 2 < > 0 w w q > < < < < > @ 0 w w w < X e y e t t g j j j j j j j j j g ~ i y j g ^ ] % @ @ 8 w s w < q w ",
"w q w w w 0 @ > < < < < < > 0 w w q > < 8 < < < % @ 0 w w M @ = t e u u y j j j j j j k j j j l b 6 l j j ] d @ > @ 0 w M q q w ",
"w w w w 8 @ @ > < < > < < > 0 w w 0 > > > < < < < : @ 8 q M @ 6 t u e e g j j j j j j j j j j j v = j j g ( ) X > @ @ 0 w w w w ",
"w w w 0 @ @ : > > > > > % @ 0 w M 0 : > > > : > > > @ @ q w @ e t e u y j j j j k j j j k j l j x 7 j j j z ] % : : @ # q w w w ",
"w w w 0 < 0 0 8 0 0 0 2 0 2 q w w q 0 0 q q 0 q 0 0 0 < q 0 - y t e y j j j j j j j g j l j l j n e j z l z ] r 2 q 0 < q q q w ",
"w w w w w w w w w w w w w w w w w w w w w w w w M M M w w < + 6 = e y y y g j j g v b h h i y t g $ e e t 6 ~ f 0 w w w w w w w ",
"w w w w q w w q w w w w w w w w w w M w w w w w w q w w q - b c d d u r ; ; = $ { A.E.R.T.A.Z.V.B.v.z.j.w.w...r 0 M w q w w w w ",
"w q w q 8 > > > < 8 < 8 < < q w w 0 < 0 < 2 2 < < > > 8 0 7  .} | | | | | } } n g.Q.0.!.`.`.`.`._.`._.`.`.W.b.a o < > 8 q w q w ",
"w w w q q > > % % : > > > > 0 w w 0 > > > > % > % : < q 0 r } ' ' ' ' } ' ' | ( g.!.R.!.)._.`._._.(.(._.`.B.v.[ . : < q w w w w ",
"w w q w w w 0 < < < < < < > 0 w w 0 > > < < > < < 8 q Z 2 9 | } } | } } } | | ( k.^./.^.`.(.E.E.^.E.E.^.`.`.W.f X 0 q w w q w w ",
"w 0 < w w w w 8 < < < < < > 0 w w 0 > < < < < 2 2 w w s < r _ ( ( ` ( ` _ ' ] ^ k.(.(.(.`.`.(.T.V.A.^.`.`.).R.d @ w w w q 8 8 w ",
"w 0 > < w w w w 0 < < 8 < : q w w q > < < < < 8 w w w q > X e e e e e t e t y e m.E.x._.`.`.(._.Q.(.`.`._.!.A.r < M w w < @ 0 q ",
"w 0 : > < q w w q 0 < < > < 0 M w q > < 8 < 0 w w w w < . = t t = = = 6 e u e   e.E.B.`.`._.).`.).`.`.`._.q.j.% # Z w < > : 0 w ",
"w 0 > < < < q w w w 0 < < > 0 w w 0 > < < 8 w s w w < . e j j l j u j j z y $ 3 L 9.0.q.M.l.l.c.c.B.Z.A.T.Z.=.X q w < > < > 0 w ",
"w 0 : > < < < w Z w w < < > 0 w w q : < 8 q w M q < @ $ y j j j y y l j y & o 3 D D B C u.K.K.H.G.F.f.Y D N 6 * 0 < > < < > 0 w ",
"w 0 > < < < > < q w w w 2 > q w w 0 > < w w w q < < @ 6 t j j j j j j j e d.f.H % , D U D G.I.P.P.I.6.D D , * - < < < < < > 0 w ",
"w 0 > < 8 < < > < w w M q < 0 w w q < w w M q 2 > < @ e y j j j j j j l 4 J.K.V.!.#.> @ Y L.U.U.U.I.! : A +.4 X < < < 2 > > 0 w ",
"w 0 > < < < < < > < w w w q q w w q q w M q 2 > < < @ = t y j j j j j j = S.t.R./.$.2.6.i.L.a.1.<.H.4.:.E.t.& . < < < < < > 0 w ",
"w 0 > > < < < < < > < w M w q w w q w w q < > < < < : + t t y j l g j j e E r.Z.n.7.C.P.p.F = e 6 a d.~.t.1.& X < > < < > > 0 w ",
"w 0 @ : > > > > > > > < w w w w w w w q < > > > > % > o $ t e y y y g g z e B D e.h.5.E = y j z z t F l.D.9.  : > > > > > > 0 w ",
"w q 0 8 0 0 0 0 0 0 0 2 q w q w w q w w q q q 0 0 < > 9 % X * * = t t g g l g = . X 6 e l j j j j j t 4 R * @ 0 0 0 0 0 8 0 q w ",
"w w w w w w w w M M M M w w w w w w w w w < < 8 9 p n ~ z e e = O + * = 6 e y g k j g j g g g g k k z y * + 0 w w w w q q w w w ",
"w w w w w w q w w w w w w w w w w w q < + t c * j z j j j j y j J P 5 S 2 < * * * = = 6 6 6 6 e e e 6 = @ > 8 8 < 8 8 8 < 0 q w ",
"w 0 > > > > > > > > > < w w q w q 8 , r.f.K / ) u j g j j j j e 3 W 5 W -.G m m o # % : % @ + @ @ + @ < q < @ > > % > > : @ 0 w ",
"w 0 @ > : > % % % : < w w w w w w X.W y.Y.f.b | u j y j y y j ; x.x.k.9.U 1 C 3 < w M M w q w M w 0 M M w w 8 > < < < < > : 0 w ",
"w 8 > > < < < < < 0 w w w > < @ S ;.;.U s.U.$.~ 6 = $ = e y e > x.!.`.T.% t & u 9 M M q < % q M q : > q M w w 8 < < < < < > q w ",
"w 0 > < 8 < 2 2 0 w w w < 3 W T 3 5 &.o.*.L.$.* % O , , 1 q G O.3 &.0.S q - = j 8 M q 0 @ @ q w q @ @ > w w w w 8 < < < < > q w ",
"w 0 > > < < < 8 w w w < > U X.W o.S S O.L Y , 0 2 , I R %.&.&.O.D G W V I L u r q w < > > > q M q : % @ > w w w w 0 < < < > 0 w ",
"w 0 > < < < 0 w w w 8 : T R U W U %.5 5 > > M s 2 q I O.&.&.@.L N %.O.&.S 3 O q w < : < < > q M q > < < # < w w w w 8 < < > q w ",
"w 8 > < < 0 w M w 0 O : U X.W U X.U > @ @ % 0 w < D R @.&.@.O.D I O.S X.S N 5 q 0 % > < > > q w q > > < : @ > w w w w 8 < > 0 w ",
"w 0 > < 0 w w w 0 @ @ @ > V W X.T 5 T : < > @ < m U X.&.@.%.L N O.%.O.T 3 G 2 8 : < < < > > q M w > < < < > @ 8 w w w w < : q w ",
"w 8 > < w Z w 0 @ : < > O O 3 V , 3 > > < < O o @ D -.&.@.O.L L -.&.&.N m m > : > < < < < % q M q > < < < 8 > > < q w M w < 0 w ",
"w 0 < w w w 8 @ > < < 8 > @ O G 5 N . < < 2 G . = * V O.-.U G N G @.W 3 J < : > 8 < < < < > w w q % < < < < < > : 0 w M M q q w ",
"w q w M w 8 @ > < < < < , % O X.N O , > > S G X t y e - G X.X.I N 3 V N N @ > < < < < 2 > > q M q : < < < 8 < 8 # > < w w M w w ",
"w w w w 8 @ @ > < > < < > > > @ < 0 : < < : 5 & t g j y 6 ; G X.X.W D @ @ : < < < < > < > > 0 M q : > > > < < > < > : < q w w w ",
"w w w 0 @ @ > > > > > > > : 0 w w q : > > % 3 p g j j y 6 g 6 ; N G - + O : : : > > > @ > > w M w < > > > : > > # > : : q w q w ",
"w q w q < 0 0 0 0 0 0 0 0 0 q w w q 0 0 0 q : e l j j g = 6 j j e A Z.N.2 q q w q q w w q w w w w w w q q q q q q q q q w w w w ",
"w w w w w w w w w w w w w w w w w w w w w M q ; l g j g * 6 t y X :.Z.t.q M M M w M w M Z w w w w M w w M M M M M M M w w M w w ",
"w w w w w w w w q w q w q q w w w w w w w 0 < > r y j g $ . + ; ,.B.m.B.I < w w q q q q q w w w w w q q q q q q w q q w w w w w ",
"w q w q 0 > > > > % < > > < q w M w 2 8 > > V W f y j j - 0 o #.E.g.[ v * O @ : : : : % # > w w w > @ > > > : @ @ @ > q w w q w ",
"w w w w q > : > > : : : @ @ 8 w 0 > X @ O 3 %.&.A g j j 6 q M < 6 6 y l e : < > < > < < > > w w q > > < < < < < > < q w w w q w ",
"w q q w w q 8 < < < < < < @ 8 q 3 G G V L N O.-.I e j j r 0 9 h g l g l 6 2 0 < 8 < < < < > w w w > < < < < < < 0 w M M w 0 0 w ",
"w 8 8 q w w q 0 < < 8 < < > 0 q N O.;.O.&.D W -.@.r l j ; : 6 l l g g e 9 M q 0 < < < < < > q w q @ > 8 < < < < w w w w 0 > 0 w ",
"w < > < q M w q 0 < < < < > 8 q 3 O.&.O.&.W I &.-.J t 7 @ D W 7 g j z 6 q Z M q 0 < < < > > q w q > < < < < 8 w w w w q > > 0 w ",
"w 0 : > < w M M w 8 < < < > 8 q 2 W @.&.O.L 3 %.&.L X @ , X.-.O.f u g $ 0 w w w w 8 < < < : w w w : < < < < w w w w q > > > 0 w ",
"w 0 > < < < q w w w 8 8 > : 0 w > L @.&.@.I : N 3 > 2 : : W -.@.&.W w o > 0 w w w w 0 2 < % q w q % < < 0 w M w w 8 > < < > 0 w ",
"s 8 > < < > < w w w w < < < 0 w > L @.&.&.-.M 0 q 0 > O < m I &.&.;.T @ < > q w w w w 8 > > q w w # > 8 w w w w q > > 8 < > 8 w ",
"w 2 > < < < < < w w w w < > 0 w > G -.@.;.o.0 s < > @ S U O.G N X.Q > < < > > 0 w w w w < > w M q : 8 w w w w q > > < 8 > > 8 w ",
"w 0 > < < < < < < w w w q < 0 M < D &.;.>.&.q < < @ V ;.O.O.;.T 5 S , @ < < < > q w w w w > w w q > w w w w q % < < < < < > 0 w ",
"w 0 > < 2 < < < < < q w w w 0 M < N &.;.>.;.2 > > > O.&.%.@.@.T O.3.;.I % < < < > 0 w w w w w w w w w w w 0 > < < 8 < < < > 0 w ",
"w 0 > > < < > < < > < w w w q M 0 N -.>.3.@.> < @ N -.&.&.&.&.@.;.>.>.8.I @ < < > > q w w w w w w w w w q > > < < < > < < > 0 w ",
"w 0 % > > > > > > : > < w w w w 0 N @.;.3.S O < @ m T X.o.X.@.&.&.-.>.>.-., @ > > > > q w w w M w w w q > > > > > > > > % @ 0 w ",
"w q 0 0 0 0 0 0 0 0 2 < q w w w 0 3 &.;.T @ 2 0 2 > : < m N S U o.&.-.-.-.m < q 0 q 0 0 w w w w w q w 0 0 0 q 0 0 0 0 0 0 0 q w ",
"w w w M w w w w w w w w w w w w q 2 I m < w M w M M w q 0 2 2 > > 3 S T O.M 8 w w w M q w w w w w w w w w w w w w w w w w w w w "
};
