/* XPM */
static char *result[] = {
/* columns rows colors chars-per-pixel */
"64 64 126 2 ",
"   c #040306",
".  c #05070A",
"X  c #0A050C",
"o  c #060A09",
"O  c #0A0A0E",
"+  c #0D0411",
"@  c #0E0E12",
"#  c #140215",
"$  c #130B16",
"%  c #160218",
"&  c #1A021C",
"*  c #150C19",
"=  c #1A0C1D",
"-  c #0F1114",
";  c #111116",
":  c #161917",
">  c #14141B",
",  c #1A141D",
"<  c #16191E",
"1  c #1A1C1D",
"2  c #1C211E",
"3  c #2C261B",
"4  c #1E0221",
"5  c #1D0B21",
"6  c #171720",
"7  c #1D1422",
"8  c #171820",
"9  c #1B1C25",
"0  c #171928",
"q  c #1D1E28",
"w  c #220225",
"e  c #220D25",
"r  c #260429",
"t  c #2A032D",
"y  c #260C2A",
"u  c #2A0D2C",
"i  c #231225",
"p  c #201923",
"a  c #201428",
"s  c #2B142C",
"d  c #29182C",
"f  c #2E0432",
"g  c #2E0A33",
"h  c #310535",
"j  c #320A36",
"k  c #340539",
"l  c #350A39",
"z  c #3A0C3E",
"x  c #2E1432",
"c  c #321335",
"v  c #37173A",
"b  c #38163B",
"n  c #37183A",
"m  c #3A183D",
"M  c #1E2321",
"N  c #1F202A",
"B  c #212424",
"V  c #232927",
"C  c #21212C",
"Z  c #252B29",
"A  c #292E2C",
"S  c #2B312E",
"D  c #3F3726",
"F  c #2F2432",
"G  c #302F34",
"H  c #3C283E",
"J  c #2E3532",
"K  c #2F3833",
"L  c #303634",
"P  c #323936",
"I  c #3C373E",
"U  c #353D3A",
"Y  c #383F3D",
"T  c #3A423E",
"R  c #504328",
"E  c #3D0D41",
"W  c #3E1242",
"Q  c #411445",
"!  c #421A45",
"~  c #46164A",
"^  c #461B4A",
"/  c #4A1C4E",
"(  c #4C1E51",
")  c #511E57",
"_  c #4B204F",
"`  c #4E2052",
"'  c #502154",
"]  c #4F3451",
"[  c #3D4542",
"{  c #3F4944",
"}  c #3E4948",
"|  c #414A46",
" . c #444E4A",
".. c #594049",
"X. c #46514C",
"o. c #48524E",
"O. c #4A5551",
"+. c #4E5954",
"@. c #505B56",
"#. c #605B42",
"$. c #6E6853",
"%. c #606261",
"&. c gray45",
"*. c #AD975D",
"=. c #BBA056",
"-. c #938765",
";. c #B29C64",
":. c #A29771",
">. c #A59972",
",. c #E7CC75",
"<. c #857887",
"1. c #8E858F",
"2. c #8B898B",
"3. c #969696",
"4. c #999B99",
"5. c #A79CA8",
"6. c #ABACAB",
"7. c #B8B7B8",
"8. c #C4B686",
"9. c #CBBA8D",
"0. c #D8C893",
"q. c #F2DD9D",
"w. c #F3E1A7",
"e. c #FFF9B9",
"r. c gray79",
"t. c #DEE0DE",
/* pixels */
"q q q q q 9 9 q 9 q q q q q q q q q q q 0 9 q q q N q q N N q N N q q 9 9 q 9 q q q 9 q q q q q q q q q q q q q q q q q q q q q ",
"q 8 ; ; > ; ; ; ; ; ; 6 9 q 9 q q 9 q q 8 < > < > > ; > - ; > 8 8 > - ; > ; ; * ; ; ; 6 q 9 9 q q 9 q 9 8 > > 8 , > 6 6 > 1 9 q ",
"q 8 @ $ $ - ; ; @ ; > q q q 9 q q q N 9 < @ O O $ $ = 7 e y s s s i * O . @ ; ; - ; ; q q q q q q 9 q q 9 > ; ; ; - - ; ; @ 6 q ",
"q 8 - > > > > > > 6 q q q 6 9 q N < @ = s u g j j l z E z z E z W W Q Q b 5 O ; > 8 q q q 8 8 q q 9 9 9 q q 8 > > > ; > ; ; 8 q ",
"q < ; > > > > , 8 q N q 6 @ ; q 8 # t k k k h h h h h h f h h f h f f l W ( W $ > N N q 6 @ > q q > @ 6 q q q > > < > > > ; 9 q ",
"q 8 ; > > > > 6 q q q 8 @ @ 8 q ; w k h h h h g h h h h h h h h h h h h f h ~ / = 8 N < @ @ 8 q q 8 @ @ 6 q q q 8 , > > ; ; 9 q ",
"q 8 - > 6 > 9 q q q 8 @ - ; 8 q < # t f f h h h h h h h h h h h h h h h h h f ~ ^ $ < $ @ - 8 q q 8 ; @ @ 6 q q q 8 > > > ; 8 q ",
"q 8 ; ; > 8 q q q 8 @ $ > ; 8 q N + w r r r t t t t f f f h h h h k h h h j h f ( x . ; ; ; 8 q q 9 ; > - @ 6 q N q 8 > > ; 0 q ",
"q 8 ; > 8 q q q 8 @ ; > > ; 8 q C > # t r r r r w e r r w t t f h h h h h h h h z ` $ ; > ; 8 q N 8 ; ; ; ; @ < q q q 8 > ; 8 N ",
"q 8 ; 8 q q q 8 @ - > 6 > ; < q q < X w r r r r r r w r r w w w f f h h h h h h h / i - > ; 6 q q 9 ; > > > ; @ 8 q q q 6 ; 8 q ",
"q 8 > q q q 8 @ @ > > > > ; 6 q q 8 + r r r e r r t r t t t t t f h h h h h h h f ~ v @ > ; < q q 8 ; > > > > ; @ 8 q q q > q q ",
"q 9 q q q 8 @ ; > > > > > ; 8 q q > + r r w t f f h h h f h h h h h j h h h h h h E ! + > ; 8 q N 8 > > , > > > ; @ 6 q N q 9 q ",
"q q q q 6 @ @ ; > > ; > ; - 8 q p < # t t f k k h k k k k h h k h f f f f f f f t f W @ ; ; 8 q q 8 ; > > > ; > ; @ @ 8 q N q q ",
"q q q 8 @ @ - ; ; ; ; - ; $ 8 q q ; X & % % w & & * & & & * % * % & & = 4 5 e e y u c * O ; 8 q q 8 - - > ; ; ; ; ; @ @ 8 q q q ",
"q q q 8 > 8 8 6 8 8 8 8 8 < q q 9 * c n n n b b m m ! ! ! ! ^ ^ ^ / _ _ ` ` ` ` W z E w - 8 q q q q 0 8 8 8 9 8 9 8 8 < 8 9 q q ",
"q N N p q q q q q q q q q q q q 9 * l ` ' ' ' ' ' _ ) ( ` ` ` ` ` ` ` ` ( ` ` / j f k 4 > N q q q q q N q q q q N N q q q q q q ",
"q q q q q q q 9 q q q q q q q q q $ h / _ ( / ` ` _ ` ` ` ` ` ` ` ( ` _ ` ` ` _ l h j 4 > N q q q q q q q q q q q q q q q q q q ",
"q q q 0 > ; - ; > 6 > 6 , > 9 q q $ j _ ` ( / ( ( / / / / / / / / / ^ ~ ~ ~ ~ ~ z h k w - 8 8 q q 8 < > < > > > ; ; ; > q q 9 q ",
"q q q q 9 ; ; - @ ; ; ; ; - 9 9 - + h l j j j j g t f t r r r w w w w w 4 4 4 4 w 4 w % . - 8 N N 8 @ ; $ ; ; ; ; ; ; 9 q q q q ",
"q q 9 q q q 6 > > > > > ; ; 8 > 1   % % % # % % % % % % % % & & & & 4 4 w r r t r t t r % . 8 q N 8 ; ; > > > > > 6 q q q 9 q 9 ",
"q 8 > q q q q 8 > , > > > > ; V Z % t f h h h h h h k h h k k h k k k k k k k h h k h h k 4 @ N q 8 ; > > > > > 8 q N q 9 > 6 q ",
"q 8 ; > 9 q q q 8 > > < ; ; ; 2 % h j h h h h h h h h h h j h h h h h h h h h h h h h h h k # q q 9 ; > > > > > q q q q > ; 6 q ",
"q 8 ; ; > 9 q q q > > > > ; : 1 w t h h h h h h h h h h h h h h h h h h h h h h h h h h h h 4 1 N 8 > > > > 8 q q q q > ; - 6 q ",
"q < ; ; > > q q q q 8 > > ; ; > w t h h h h h h h h h h h h h h h k h h h h h h h j h h h j w < q 8 ; > > 8 q C q 9 > > ; - 8 q ",
"q 6 ; ; > > > q N q q > ; > < + r t h h h h h h h h h h h h h h h h h h h h h h h h h h h h & 1 N 8 ; > < q q q q > > > > ; 1 q ",
"q 8 ; > > > > > 9 N q q < - 0 O % t t h h f h h h h h j j h h h j h h h h h h h h h h h k w O q N 9 ; > q q q q > ; > > > ; > q ",
"q 8 ; > > > > ; > q N q 9 > > Z 7 4 t u f f t h h f h h h h h h h h h h h h h h h h h h w   O > 8 q > 9 q q q > > > > > > ; 8 q ",
"q 8 ; > , > > > ; > q q q q 9 N K + + + % w r t f f f f h f f h h h f h h g f f t * = X : 1 1 1 - 8 q q q 9 > > > > > > > ; 8 q ",
"q 8 ; ; > > > > > ; > q q q N > R ;.>.-.#.X # % 4 4 w w w w w w w w r w w w w % X . 1 2 T T Y T Z > N N q > ; > ; > > > ; - 8 q ",
"q 8 @ - ; ; ; ; ; ; ; > q q q 0 D ,.w.8...& o @ O O O + , p p 7 7 , $ O X O X O @ 1 M Z [ P U T V > q q > - ; ; ; ; - ; ; $ 8 q ",
"q q > 8 8 8 8 8 8 1 8 8 q q 9 N * e s j ( u > 7 ; - O : V S J J L V - O 8 8 < 8 6 1 V L T P U U 1 6 N q 8 8 8 8 8 8 > 8 < < q q ",
"q q q q q q q q N N N q q q q q 9 4 E _ b r z b = 9 |  .[ T T T P L S M ; 8 8 q q > o T | } } U > 9 q q q q q q q q 9 q q q q q ",
"q q q q q q q q q q q q q q q q N < % w r h h h k F X.T [ [ | |  .X.X.+.Z X 5 * O > O 1 B 2 M 2 < q q q 9 > 6 6 6 > 6 > 6 > q q ",
"q 8 ; ; $ ; ; ; @ ; ; > 9 q 9 q q N > & t f h h h x | P L J L J L S P X.p t h l e @ M P P : 1 9 8 q q q 9 > @ ; * ; ; - - - 8 q ",
"q 8 @ ; - - ; ; ; ; > q q q q q q q q < $ r f h h e | [ [ [ } { { [  .T w h h h z , - T @.o.@.J > 9 q q q q > > > > > > > ; 8 q ",
"q 8 ; ; > > > > > 6 q q q 8 9 q q 8 0 q 9 5 r r t 5 [ L L L J J L L T L w h h h j p :.$.J } { 1 9 - ; 8 q q q 6 > > > > > ; 8 q ",
"q 8 ; ; > > 8 > 6 q q q > @ > q q < @ 8 q q q > # p X.[ { { [ { [ [ | A w t f h f = 0.e.9.*.3 0 q @ @ ; q q q q 8 > > > ; ; q q ",
"q 8 ; > , > > 8 q q q 8 @ @ 8 q q 8 @ @ 8 q q 6 X Y { J K J P P P U | T X % 4 f 4 j _ :.q.=.< N q ; - @ ; 9 q q q 8 > > > ; 8 q ",
"q 8 ; > > > 8 q q q 8 @ @ ; 6 q q 8 - @ @ > N ; Z o. .T T [ T T Y U [ o.2 @ > w 4 b ) g u % 8 N 9 - > > @ 6 9 q N q > > > ; 8 q ",
"q 6 ; > > 8 q q q 6 @ ; > ; 8 q q q ; ; ; @ 8 ; S X.[ P U U U T Y [  .X.J > N * & $ v ! f @ N p 9 $ ; > ; @ > 9 q q q < > ; 0 q ",
"q 8 ; > 8 q q q 6 @ $ > > ; < q q 8 ; > > ; @ @ J o.| U T U U U P L [  .S - q > - ; - @ @ - 9 q 9 ; > , > ; @ 6 q q q q > - 0 q ",
"q 8 ; , N N q 8 @ ; > > > ; 8 q q 9 ; > > > - O L o.[ Y T [ [ [ { {  . .S - > ; ; > , > > ; 9 q 9 - > > > 6 ; ; > q q N q > 8 q ",
"q 8 > q q q 8 @ ; > > > > ; < q q 8 ; ; , > ; - T O.[ L L J J J L J | X.S @ ; ; > > > < > ; q q q @ > > > > > ; @ 6 q N N 9 q q ",
"q 9 q q q 6 @ - > > 6 > > - 8 q q 8 > > < > > O 1 P T { | X.X.X. . . .| Z O > > 8 > > > ; @ 9 q 9 ; > > 6 > > > ; ; > q q q q q ",
"q q N q 6 @ @ ; > ; > > ; ; > q N 8 - > > > > O % % 4 5 5 , 1 7 7 1 7 = X o $ - > > > > ; ; 9 q 9 ; ; > ; > > > ; ; @ > q q q q ",
"q q q 8 @ @ ; ; ; ; ; ; ; - 8 q q 8 - ; ; ; -   r j f h h f t t t r r r w & % % O @ ; - ; ; q q q ; ; ; ; - ; - ; - - - 8 N q q ",
"q q q 8 > 8 8 8 8 8 6 8 8 8 9 q q q 8 8 8 9 > I c w h f r t t t t f h h h h h w t f f a q q q q q q 9 q q 8 9 q q 9 9 9 q q q q ",
"q q q q q q q q q q q q q q q q q q q q N N @ 6.t.1.t r & % % & & f h h h h w t k h h f q q q q q q q q N N q q N N N N q q q q ",
"q q q q q 9 q q 9 q q q q q q q q q q N N ; %.6.3.7.r.] + > - ; @ y k h h h $ e t f f h 5 q q q q q q 9 q 8 q q 8 q q 9 q q q q ",
"q 9 q 9 6 > ; ; ; ; ; ; - ; 8 q q q > > 8 O H <.7.4.3.&.@ N N q q q r w w & U T A d s d ; ; q q q ; @ @ ; ; - @ @ @ ; 9 q q 9 q ",
"q q q 9 9 ; ; - @ * - - @ @ 8 q q 8 - ; @ & f 4 w 5.2.O N q q q q q 9 ; > $ | +.O.o.o.{ < @ 9 q q ; ; > > > > > ; > 9 q q q q q ",
"q 9 q q q q > > > > > > > ; 8 q q 8 ; - , f f j r + 6 9 q 0 q q 9 8 q N C 1 L {  .X.O.U @ ; q q 9 ; > > > > > > 1 q q q q 9 8 9 ",
"q > > q q q q > > > > 6 > ; 8 q q 8 ; > t k h h k + < N q > 8 q 6 ; 8 q C q $ V A J J M @ ; q q 9 $ > > > > > > q q q q 6 > 8 q ",
"q 8 - 6 q N q q 9 > > > ; ; 8 q q 9 > - w t t t y p > q > - < q 8 - ; 0 q > < S Z A 1 O > - 9 q q - ; > > > 6 q q q q 9 ; $ 8 q ",
"q 8 - ; > q N q 9 6 > > > ; 8 q q 8 ; - B G P T  .o.M > ; - q q 8 ; ; > ; Z  . . .| A @ - ; 9 q q ; > 6 > 8 q q q q 9 ; ; ; 8 q ",
"q 6 ; ; ; > q q q q 6 > > ; 8 q N 8 ; $ L O.+.O.o.+.V @ > ; 8 q 8 ; > - >  .O.o.o.O.+.| $ O q q 8 - ; > 8 q q q q 8 ; ; > - 8 q ",
"q < ; > > ; > q q p 9 > > ; 8 N q 8 > @ B { | [ T Z > ; > ; 8 q 8 ; > O J O.o.o.o.X. .+.[ : > q q ; > 8 q q q q 0 ; > > > ; 8 q ",
"q , ; > > > > 6 q N q q > ; 8 q N 8 ; > > 1 V A J M @ 6 > ; 8 q 8 ; > > U  .X.o.o.o.o.X.o.P V 9 q ; > N q q q 9 ; ; > > > ; 8 q ",
"q 8 ; > > > > ; > q N q 9 > 8 N q 8 > q > ; S U T M @ > ; ; 8 q 8 ; > ; 1 2 V L T T | X.| L U > 9 ; q p q q 8 ; > > > > > ; 8 q ",
"q 8 > > > > > > > > q q q q 9 q q q > @ Z | o.O.O.o.Z @ 6 ; 8 q 8 ; > > ; $ @ O - < 2 9 ; P L 1 q q q q q 8 > > > > > 6 > ; 8 q ",
"q 8 - ; > > ; > > ; > q q q 9 q q > 9 P @.O.X.X.X.O. .; - ; 8 q 8 ; ; > > > > > - @ 6 ; - > > q q q q q 8 ; ; > > > ; > > ; > q ",
"q < $ ; ; - ; ; ; - ; > q q q q > V P O. .X.o.o.X.X.O.Z O - 9 q 8 $ ; ; ; ; ; ; > ; ; q N q q q q q q 9 > ; ; ; ; ; ; ; $ - 8 q ",
"q 9 8 8 8 8 8 8 8 8 > > q q q q 6 T A o.X.o.X.X.X.X.o.J - 9 q q q < 8 8 8 8 6 8 8 8 8 8 q q q q q q q 8 8 8 8 8 8 8 8 8 8 < q q ",
"q q N N q q q q q q q q q q q 9 1  .Z V P L J S S A S B > q q q q q q q q q q q q q q q q q q q q q q q q q q q q q q q q q q q "
};
