/* XPM */
static char *result[] = {
/* columns rows colors chars-per-pixel */
"64 64 183 2 ",
"   c #C81500",
".  c #CC1A01",
"X  c #D01D00",
"o  c #D22200",
"O  c #DA2400",
"+  c #D52B01",
"@  c #DD2B00",
"#  c #D62809",
"$  c #DB3501",
"%  c #DD341F",
"&  c #E02D00",
"*  c #E33301",
"=  c #E63B00",
"-  c #EB3D01",
";  c #E83504",
":  c #E33210",
">  c #E13A22",
",  c #E54501",
"<  c #EB4302",
"1  c #EB4A02",
"2  c #EA440D",
"3  c #EE4B0A",
"4  c #E34903",
"5  c #F14500",
"6  c #F24D00",
"7  c #E55203",
"8  c #EA5403",
"9  c #E75A05",
"0  c #EB5B04",
"q  c #EC5508",
"w  c #EB5C09",
"e  c #E1520C",
"r  c #F45301",
"t  c #F85700",
"y  c #F35C02",
"u  c #FA5D00",
"i  c #F25F0B",
"p  c #EA4610",
"a  c #EB4910",
"s  c #F15B16",
"d  c #ED6305",
"f  c #ED6A03",
"g  c #ED620A",
"h  c #F46401",
"j  c #FC6401",
"k  c #F36B03",
"l  c #F86C02",
"z  c #F06309",
"x  c #EC7109",
"c  c #F47303",
"v  c #F87304",
"b  c #F67B01",
"n  c #FA7C03",
"m  c #F27409",
"M  c #F87608",
"N  c #F47B0C",
"B  c #F87C0A",
"V  c #EC6712",
"C  c #E96715",
"Z  c #F06710",
"A  c #EF7B14",
"S  c #EF7319",
"D  c #F37414",
"F  c #F57B11",
"G  c #EC6E20",
"H  c #FA8401",
"J  c #F78906",
"K  c #FC8A03",
"L  c #F5830D",
"P  c #F9830C",
"I  c #F78B0F",
"U  c #FB8C0C",
"Y  c #FD9301",
"T  c #F79900",
"R  c #FE9B01",
"E  c #FE930A",
"W  c #F59F0E",
"Q  c #FF9B0C",
"!  c #F78111",
"~  c #F58C12",
"^  c #F49110",
"/  c #FD9C11",
"(  c #FEA401",
")  c #FFAB02",
"_  c #FEA40C",
"`  c #FEAD0C",
"'  c #FFB603",
"]  c #FFBC01",
"[  c #FFB40C",
"{  c #FFBA0B",
"}  c #FEA414",
"|  c #FDAB13",
" . c #FEA41A",
".. c #FCAC1A",
"X. c #FFB413",
"o. c #FFBC13",
"O. c #F7B419",
"+. c #FDB41B",
"@. c #FFBC1B",
"#. c #F79323",
"$. c #FA9C2D",
"%. c #FB9C22",
"&. c #F78F37",
"*. c #FFA625",
"=. c #FBAC21",
"-. c #F7A32B",
";. c #FFAE28",
":. c #F8A42A",
">. c #FFB421",
",. c #FEBC24",
"<. c #F9B02E",
"1. c #FEBC2D",
"2. c #FEA232",
"3. c #FFAD33",
"4. c #FBA83C",
"5. c #FCB532",
"6. c #FFC400",
"7. c #FFCD00",
"8. c #FFC50B",
"9. c #FFC90E",
"0. c #FFD100",
"q. c #FFD800",
"w. c #FFC312",
"e. c #FFCA12",
"r. c #FFC11C",
"t. c #FFCA1A",
"y. c #FFD313",
"u. c #FFDC16",
"i. c #FFC324",
"p. c #FFC921",
"a. c #FFC52B",
"s. c #FFC92E",
"d. c #FFD720",
"f. c #FFD12B",
"g. c #FFC530",
"h. c #FFCA33",
"j. c #FFC73C",
"k. c #FFD733",
"l. c #FFD930",
"z. c #FFD13D",
"x. c #F68F46",
"c. c #FC9F4D",
"v. c #FAA155",
"b. c #FFBC56",
"n. c #FFBB5F",
"m. c #FCB465",
"M. c #FFC84B",
"N. c #FFD440",
"B. c #FFDA40",
"V. c #FFD648",
"C. c #FFC65B",
"Z. c #FFDD50",
"A. c #FED258",
"S. c #FFE542",
"D. c #FFE65E",
"F. c #FFC86D",
"G. c #FFD560",
"H. c #FFD864",
"J. c #FFDC6A",
"K. c #FFDD73",
"L. c #FFD87F",
"P. c #FFE160",
"I. c #FFE66F",
"U. c #FFEB6E",
"Y. c #FFE870",
"T. c #FFDE80",
"R. c #FFD68B",
"E. c #FFDA94",
"W. c #FDD799",
"Q. c #FFDF9A",
"!. c #FFE380",
"~. c #FFE694",
"^. c #FFE990",
"/. c #FFEFA0",
"(. c #FFE2AB",
"). c #FFEFA8",
"_. c #FFEDC5",
"`. c #FFF2C2",
"'. c #FEE8D1",
"]. c #FFF4D5",
"[. c #FFFDF0",
"{. c white",
"}. c None",
/* pixels */
"}.}.}.}.}.}.}.}.}.}.}.}.}.}.}.}.}.}.}.}.}.}.}.}.}.}.}.}.}.}.}.}.}.}.}.}.}.}.}.}.}.}.}.}.}.}.}.}.}.}.}.}.}.}.}.}.}.}.}.}.}.}.}.}.",
"}.}.}.}.}.}.}.}.}.}.}.}.}.}.}.}.}.}.}.}.}.}.}.}.}.}.}.}.}.}.}.}.}.}.}.}.}.}.}.}.}.}.}.}.}.}.}.}.}.}.}.}.}.}.}.}.}.}.}.}.}.}.}.}.",
"}.}.}.}.}.}.}.}.}.}.}.}.}.}.}.}.}.}.}.}.}.}.}.}.}.}.}.}.}.}.}.}.}.}.}.}.}.}.}.}.}.}.}.}.}.}.}.}.}.}.}.}.}.}.}.}.}.}.}.}.}.}.}.}.",
"}.}.}.}.}.}.}.}.}.}.}.}.}.}.}.}.}.}.}.}.}.}.}.}.}.}.}.}.}.}.}.}.}.}.}.}.}.}.}.}.}.}.}.}.}.}.}.}.}.}.}.}.}.}.}.}.}.}.}.}.}.}.}.}.",
"}.}.}.}.}.}.}.}.}.}.}.}.}.}.}.}.}.}.}.}.}.}.}.R.~.1.{ 6.] o.o.}.}.}.}.}.}.}.}.}.}.}.}.}.}.}.}.}.}.}.}.}.}.}.}.}.}.}.}.}.}.}.}.}.",
"}.}.}.}.}.}.}.}.}.}.}.}.K.~.V.z.}.}.}.}.m._.{.{.{.Z.7.0.0.0.0.7.6.{ ' ' ' 6.q.d.`.L.}.}.}.}.}.}.}.}.}.}.}.}.}.}.}.}.}.}.}.}.}.}.",
"}.}.}.}.}.}.}.}.}.}.M.f.`./.q.q.7.{ ) 3.{.{.{.{.{.k.7.0.0.0.0.0.0.q.6.' ' 6.q.7.B.T.X.}.}.}.}.}.}.}.}.}.}.}.}.}.}.}.}.}.}.}.}.}.",
"}.}.}.}.}.}.}.}.}.;.7.7.7.0.7.6.{ _ ' ' g.A.T.Y.B.7.7.7.0.7.0.0.0.0.q.0.6.) ) 6.6.' { o.}.}.}.}.}.}.}.}.}.}.}.}.}.}.}.}.}.}.}.}.",
"}.}.}.}.}.}.}.}.}.H ) 6.] ' T { ( [ { ' ' ' ] 6.6.6.7.7.0.7.7.0.7.0.0.0.0.6.T f b R _ U B }.}.}.}.}.}.}.}.}.}.}.}.}.}.}.}.}.}.}.",
"}.}.}.}.}.}.}.}.q 8 0 K 8 7 X.[ { { { ' ' ' ' ' 6.6.7.7.7.7.0.0.0.0.0.0.0.0.6.K @ 9 N 8 8 D }.}.}.}.}.}.}.}.}.}.}.}.}.}.}.}.}.}.",
"}.}.}.}.}.}.}.}.8 8 8 9 f _ [ o.{ { { [ ' ' 8.' T K n T R ] 6.0.7.0.0.0.0.q.q.6.v @ f 9 w N }.}.}.}.}.}.}.}.}.}.}.}.}.}.}.}.}.}.",
"}.}.}.}.}.}.}.C 8 9 8 w | [ o.{ { { { 8.y.y.U 1 & & O @ & - l R 7.0.0.0.0.0.0.0.' 8 d 8 9 B }.}.}.}.}.}.}.}.}.}.}.}.}.}.}.}.}.}.",
"}.}.}.}.}.}.}.V w 9 m { X.o.o.{ { e.u.u.m & O O O O & ; - - 5 5 l 6.0.0.0.0.0.0.0.R v 0 w B }.}.}.}.}.}.}.}.}.}.}.}.}.}.}.}.}.}.",
"}.}.}.}.}.}.}.S w x { | o.r.o.w.u.u.t.$ O O O O & }.}.}.}.}.}.}.}.h ] 0.0.0.0.0.q.6.h P w ~ }.}.}.}.}.}.}.}.}.}.}.}.}.}.}.}.}.}.",
"}.}.}.}.}.}.}.S L X._ @.r.o.r.u.u.+.b 8 O O & }.}.}.}.}.}.}.}.}.}.}.}.6.0.0.0.0.0.6.K h Q } }.}.}.}.}.}.}.}.}.}.}.}.}.}.}.}.}.}.",
"}.}.}.}.}.}.}.}.I o.@.r.r.@.y.U.W.b b b y * }.}.}.}.}.}.}.}.}.}.}.}.}.| 7.0.0.0.0.6.) t U }.}.}.}.}.}.}.}.}.}.}.}.}.}.}.}.}.}.}.",
"}.}.}.}.}.}.}.}.~ | r.r.r.t.S.].! b b b x.}.}.}.}.}.}.}.}.}.}.}.}.}.}.}.6.0.0.0.0.] ' j l }.}.}.}.}.}.}.}.}.}.}.}.}.}.}.}.}.}.}.",
"}.}.}.}.}.}.}.}...@.i.r.@.u.I.#.b b b x.}.}.}.}.}.}.}.}.}.}.}.}.}.}.}.}.` 7.7.0.0.) ) H u }.}.}.}.}.}.}.}.}.}.}.}.}.}.}.}.}.}.}.",
"}.}.}.}.}.}.}.}.X.i.i.r.i.u...b b b x.}.}.}.}.}.}.}.}.}.}.}.}.}.}.}.}.}.}.6.0.7.6.( T K H }.}.}.}.}.}.}.}.}.}.}.}.}.}.}.}.}.}.}.",
"}.}.}.}.}.}.}.+.+.i.i.i.t.u.b b b &.}.}.}.}.}.}.}.}.}.}.}.}.}.}.}.}.}.}.}.' 0.6.( K K R K c.}.}.}.}.}.}.}.}.}.}.}.}.}.}.}.}.}.}.",
"}.}.}.}.}.}.}...,.i.i.i.t.W * h L }.}.}.}.}.}.}.}.}.}.}.}.}.}.}.}.}.}.}.}.( 6.) H J J Y R $.}.}.}.}.}.}.}.}.}.}.}.}.}.}.}.}.}.}.",
"}.}.}.}.}.}.}.O.s.i.i.i.w.x O @ }.}.}.}.}.}.}.}.}.}.}.}.E.(.}.}.}.}.}.}.}.R R K H H J K R 2.}.}.}.}.}.}.}.}.}.}.}.}.}.}.}.}.}.}.",
"}.}.}.}.}.}.}.+.a.i.i.i.@.7 O : }.}.}.}.}.}.}.}.}.}.}.8.B.N.{ *.}.}.}.}.}.Y b H H J H 7 h n }.}.}.}.}.}.}.}.}.}.}.}.}.}.}.}.}.}.",
"}.}.}.}.}.}.}.=.s.a.s.a...7 O }.}.}.}.}.}.}.}.}.}.}.b ( 6.' ' '  .}.}.}.K n v b H J f   $ t }.}.}.}.}.}.}.}.}.}.}.}.}.}.}.}.}.}.",
"}.}.}.}.}.}.}.<.1.s.a.a.+.= @ }.}.}.}.}.}.}.}.}.}.( c 8 b ' ' { { *.}.}.K l v c n H 8 o * 1 }.}.}.}.}.}.}.}.}.}.}.}.}.}.}.}.}.}.",
"}.}.}.}.}.}.}.5.+ C a.a.i.8 & }.}.}.}.}.}.}.}.}.}.K K 8 1 c { { { o.;.[ l j j l b b 0 , = 3 }.}.}.}.}.}.}.}.}.}.}.}.}.}.}.}.}.}.",
"}.}.}.}.}.}.}.:.  e a.s.a.} * }.}.}.}.}.}.}.}.}.}.Z H n 8 8 c o.o.@.| Q l l l l l + k 1 = 3 }.}.}.}.}.}.}.}.}.}.}.}.}.}.}.}.}.}.",
"}.}.}.}.}.}.}.4.+ A a.s.h.,.y }.}.}.}.}.}.}.}.}.}.}.z ( n 8 8 f o.X.w.l l l j h h 1 l = = }.}.}.}.}.}.}.}.}.}.}.}.}.}.}.}.}.}.}.",
"}.}.}.}.}.}.}.}.9 =.s.s.s.s...}.}.}.}.}.}.}.}.}.}.}.}.F [ K 8 8 c o.E l l l l h j n 6 = = }.}.}.}.}.}.}.}.}.}.}.}.}.}.}.}.}.}.}.",
"}.}.}.}.}.}.}.}...h.s.s.a.s.s.} }.}.}.}.}.}.}.}.}.}.}.}.! | E M o.[ v l l l l l v v = @ # }.}.}.}.}.}.}.}.}.}.}.}.}.}.}.}.}.}.}.",
"}.}.}.}.}.}.}.}.C.h.h.h.s.s.s.s. .}.}.}.}.}.}.}.}.}.}.}.}.D | y.` v l l l l l l n r o   % }.}.}.}.}.}.}.}.}.}.}.}.}.}.}.}.}.}.}.",
"}.}.}.}.}.}.}.}.' g.h.g.s.s.s.a.a.Q Q o.}.}.}.}.}.}.}.}.}.J.P._ c l v l l l l v j X   . }.}.}.}.}.}.}.}.}.}.}.}.}.}.}.}.}.}.}.}.",
"}.}.}.}.}.}.}.}.' X.h.h.h.s.h.s.,./ Q Q o.u.y.y.w.w.k.).[.{.m.v c l l v l l v l O . . > }.}.}.}.}.}.}.}.}.}.}.}.}.}.}.}.}.}.}.}.",
"}.}.}.}.}.}.}.}.6.' >.h.h.h.s.a.} E U E E Q ` o.e.w._.{.'.v.v v v c v v l v M X $ T d }.}.}.}.}.}.}.}.}.}.}.}.}.}.}.}.}.}.}.}.}.",
"}.}.}.}.}.}.}.}.q.6.( ,.h.s.>./ I M B B B M P P P P M M M M M v v v v v M H @ 7 { ' ] }.}.}.}.}.}.}.}.}.}.}.}.}.}.}.}.}.}.}.}.}.",
"}.}.}.}.}.}.}.h.q.0.) q Q / E ! B P B B P B B B M B M M M M M M v v v M n 1 $ k ' { ' ] 1.}.}.}.}.}.}.}.}.}.}.}.}.}.}.}.}.}.}.}.",
"}.}.}.}.}.}.}.H.Y.0.] , y / B P ! B P B B B B M B B M M M M M n M v H n j , M 8 k [ { ' ' 1.}.}.}.}.}.}.}.}.}.}.}.}.}.}.}.}.}.}.",
"}.}.}.}.}.}.}.}.{.0.7.f @ 6 B U P ! B P B B P B B M B B M M M M n P l j j  .Q f 8 f { ' ' ' o.p.}.}.}.}.}.}.}.}.}.}.}.}.}.}.}.}.",
"}.}.}.}.}.}.}.}.I.0.7.T d , 5 k P I ! P L B P B B B M B M M P M t < u j j P @.E h 8 d ' { 8.6.7.7.j.3.;.2.}.}.}.}.}.}.}.}.}.}.}.",
"}.}.}.}.}.}.}.}.}.7.6.v 8 8 g y 6 u M U U U P P B P P P B l 5 = = = t j j }.b.+.E k 8 N _ { ' ] 6.0.h.Q h }.}.}.}.}.}.}.}.}.}.}.",
"}.}.}.}.}.}.}.}.}.}.R y 7 8 8 w v r 5 t u j l v l h 3 - = = = = = < r }.}.}.}.F.} E K Q l P [ ' ' 6.~.A.d }.}.}.}.}.}.}.}.}.}.}.",
"}.}.}.}.}.}.}.}.}.}.}.k 7 q 8 w x } M 3 < t u u t = = = * = = < 3 }.}.}.}.}.}.}.b.E _ K v v n [ { ' I.{.~.}.}.}.}.}.}.}.}.}.}.}.",
"}.}.}.}.}.}.}.}.}.}.}.}.}.I P Q }.}.}.}.}.}.p 3 r r 3 1 2 a }.}.}.}.}.}.}.}.}.}.}.Q E U K v l P ' ' ' ).{.^.}.}.}.}.}.}.}.}.}.}.",
"}.}.}.}.}.}.}.}.}.}.}.}.}.}.}.}.}.}.}.}.}.}.}.}.}.}.}.}.}.}.}.}.}.}.}.}.}.}.}.}.}.+.| E E K v l B ) ' o.z.*.y < }.}.}.}.}.}.}.}.",
"}.}.}.}.}.}.}.}.}.}.}.}.}.}.}.}.}.}.}.}.}.}.}.}.}.}.}.}.}.}.}.}.}.}.}.}.}.}.y * : %.a.+.Q E K v c M { _ = O O & }.}.}.}.}.}.}.}.",
"}.}.}.}.}.}.}.}.}.}.}.}.}.}.}.}.}.}.}.}.}.}.}.}.}.}.}.}.}.}.}.}.}.}.}.}.}.c c 8 * 8 / i.i.} E K n o.k @ & O O ; }.}.}.}.}.}.}.}.",
"}.}.}.}.}.}.}.}.}.}.}.}.}.}.}.}.}.}.}.}.}.}.}.}.}.}.}.}.}.}.}.}.}.}.}.}.R R R K 0 = 8 ..i.i.+.Q w.k $ & & O * }.}.}.}.}.}.}.}.}.",
"}.}.}.}.}.}.}.}.}.}.}.}.}.}.}.}.}.}.}.}.}.}.}.}.}.}.}.}.}.}.}.}.}.}.}.{ 7.( R R R 0 , 8 ,.a.i.o.n = * * $ ; }.}.}.}.}.}.}.}.}.}.",
"}.}.}.}.}.}.}.}.}.}.}.}.}.}.}.}.}.}.}.}.}.}.}.}.}.}.}.}.}.}.}.}.}.}.6.7.6.' R R R Y 8 = d ,.s.K j = ; * < }.}.}.}.}.}.}.}.}.}.}.",
"}.}.}.}.}.}.}.}.}.}.}.}.}.}.}.}.}.}.}.}.}.}.}.}.}.}.}.}.}.}.}.}.}.6.7.0.7.Y 1 R R R Y 8 = g } j j = 5 t }.}.}.}.}.}.}.}.}.}.}.}.",
"}.}.}.}.}.}.}.}.}.}.}.}.}.}.}.}.}.}.}.}.}.}.}.}.}.}.}.}.}.}.}.}.$.y.y.0.T = = }.R R R K , * i u j j }.}.}.}.}.}.}.}.}.}.}.}.}.}.",
"}.}.}.}.}.}.}.}.}.}.}.}.}.}.}.}.}.}.}.}.}.}.}.}.}.}.}.}.}.}.}.}.}.:.P.T 1 = }.X.) R R R 0 $ * }.}.}.}.}.}.}.}.}.}.}.}.}.}.}.}.}.",
"}.}.}.}.}.}.}.}.}.}.}.}.}.}.}.}.}.}.}.}.}.}.}.}.}.}.}.}.}.}.}.}.}.}.f l , }.g.7.7.] R H < = * }.}.}.}.}.}.}.}.}.}.}.}.}.}.}.}.}.",
"}.}.}.}.}.}.}.}.}.}.}.}.}.}.}.}.}.}.}.}.}.}.}.}.}.}.}.}.}.}.}.}.}.}.}.q }.s.7.6.7.6.) r 6 * }.}.}.}.}.}.}.}.}.}.}.}.}.}.}.}.}.}.",
"}.}.}.}.}.}.}.}.}.}.}.}.}.}.}.}.}.}.}.}.}.}.}.}.}.}.}.}.}.}.}.}.}.}.}.}.a.0.7.0.7.6.v 6 < 2 }.}.}.}.}.}.}.}.}.}.}.}.}.}.}.}.}.}.",
"}.}.}.}.}.}.}.}.}.}.}.}.}.}.}.}.}.}.}.}.}.}.}.}.}.}.}.}.}.}.}.}.}.}.}.}.}.7.B.l.7.H H r < }.}.}.}.}.}.}.}.}.}.}.}.}.}.}.}.}.}.}.",
"}.}.}.}.}.}.}.}.}.}.}.}.}.}.}.}.}.}.}.}.}.}.}.}.}.}.}.}.}.}.}.}.}.}.}.}.}.^ !.!.T K l r }.}.}.}.}.}.}.}.}.}.}.}.}.}.}.}.}.}.}.}.",
"}.}.}.}.}.}.}.}.}.}.}.}.}.}.}.}.}.}.}.}.}.}.}.}.}.}.}.}.}.}.}.}.}.}.}.}.}.}.L J Y Y h }.}.}.}.}.}.}.}.}.}.}.}.}.}.}.}.}.}.}.}.}.",
"}.}.}.}.}.}.}.}.}.}.}.}.}.}.}.}.}.}.}.}.}.}.}.}.}.}.}.}.}.}.}.}.}.}.}.}.}.}.}.s H H j }.}.}.}.}.}.}.}.}.}.}.}.}.}.}.}.}.}.}.}.}.",
"}.}.}.}.}.}.}.}.}.}.}.}.}.}.}.}.}.}.}.}.}.}.}.}.}.}.}.}.}.}.}.}.}.}.}.}.}.}.}.}.}.u }.}.}.}.}.}.}.}.}.}.}.}.}.}.}.}.}.}.}.}.}.}.",
"}.}.}.}.}.}.}.}.}.}.}.}.}.}.}.}.}.}.}.}.}.}.}.}.}.}.}.}.}.}.}.}.}.}.}.}.}.}.}.}.}.}.}.}.}.}.}.}.}.}.}.}.}.}.}.}.}.}.}.}.}.}.}.}.",
"}.}.}.}.}.}.}.}.}.}.}.}.}.}.}.}.}.}.}.}.}.}.}.}.}.}.}.}.}.}.}.}.}.}.}.}.}.}.}.}.}.}.}.}.}.}.}.}.}.}.}.}.}.}.}.}.}.}.}.}.}.}.}.}.",
"}.}.}.}.}.}.}.}.}.}.}.}.}.}.}.}.}.}.}.}.}.}.}.}.}.}.}.}.}.}.}.}.}.}.}.}.}.}.}.}.}.}.}.}.}.}.}.}.}.}.}.}.}.}.}.}.}.}.}.}.}.}.}.}.",
"}.}.}.}.}.}.}.}.}.}.}.}.}.}.}.}.}.}.}.}.}.}.}.}.}.}.}.}.}.}.}.}.}.}.}.}.}.}.}.}.}.}.}.}.}.}.}.}.}.}.}.}.}.}.}.}.}.}.}.}.}.}.}.}."
};
