/* XPM */
static char *result[] = {
/* columns rows colors chars-per-pixel */
"64 64 212 2 ",
"   c #2A1B1C",
".  c #3D1C14",
"X  c #341C19",
"o  c #3B221E",
"O  c #332224",
"+  c #3D282A",
"@  c #3A2627",
"#  c #373337",
"$  c #301F21",
"%  c #421E11",
"&  c #471E19",
"*  c #4D160E",
"=  c #76140C",
"-  c #46240F",
";  c #48250F",
":  c #5A260F",
">  c #5F290E",
",  c #54250F",
"<  c #462214",
"1  c #4C2312",
"2  c #4F2811",
"3  c #42231A",
"4  c #462A1D",
"5  c #4D2C1C",
"6  c #4A261A",
"7  c #522512",
"8  c #5A2511",
"9  c #552B13",
"0  c #5B2D13",
"q  c #522C1C",
"w  c #5A311A",
"e  c #4D321D",
"r  c #642B0E",
"t  c #6A2E0E",
"y  c #6B330E",
"u  c #75320D",
"i  c #79380D",
"p  c #622C11",
"a  c #692D10",
"s  c #633215",
"d  c #6A3516",
"f  c #673519",
"g  c #733211",
"h  c #763B19",
"j  c #452B24",
"k  c #4B2D23",
"l  c #4D2F28",
"z  c #4D3421",
"x  c #4A3129",
"c  c #543422",
"v  c #5B3424",
"b  c #543B23",
"n  c #5C3B25",
"m  c #52352C",
"M  c #5C3C2C",
"N  c #55392C",
"B  c #553B35",
"V  c #593F37",
"C  c #4E3632",
"Z  c #623925",
"A  c #633D2B",
"S  c #6B3D26",
"D  c #723E23",
"F  c #613F31",
"G  c #5D422B",
"H  c #5A4527",
"J  c #5B423C",
"K  c #69432C",
"L  c #65462B",
"P  c #794327",
"I  c #6A4836",
"U  c #724E3A",
"Y  c #774B33",
"T  c #6A5234",
"R  c #775638",
"E  c #6F512F",
"W  c #7A663A",
"Q  c #3F4046",
"!  c #5D4640",
"~  c #5A4B49",
"^  c #4A494F",
"/  c #634E48",
"(  c #614A44",
")  c #785542",
"_  c #6A5956",
"`  c #67514C",
"'  c #756159",
"]  c #696569",
"[  c #766764",
"{  c #6F7279",
"}  c #7D7373",
"|  c #77787E",
" . c #5D6067",
".. c #80370C",
"X. c #84390C",
"o. c #8C3C0B",
"O. c #913F0B",
"+. c #883B10",
"@. c #913E10",
"#. c #8A130D",
"$. c #84470E",
"%. c #97410A",
"&. c #9C430B",
"*. c #884314",
"=. c #9A4412",
"-. c #955510",
";. c #A3460C",
":. c #A7480C",
">. c #AC4A0D",
",. c #B24D0E",
"<. c #B84F0E",
"1. c #BC510E",
"2. c #A14610",
"3. c #A95219",
"4. c #AE6A14",
"5. c #87573A",
"6. c #8B5029",
"7. c #A55A2C",
"8. c #886A3D",
"9. c #C3540F",
"0. c #C65916",
"q. c #C6723B",
"w. c #C76729",
"e. c #885D43",
"r. c #925E41",
"t. c #89654A",
"y. c #976649",
"u. c #877040",
"i. c #887041",
"p. c #977C48",
"a. c #927846",
"s. c #9A775B",
"d. c #906B52",
"f. c #A06C4C",
"g. c #A87654",
"h. c #B67E59",
"j. c #B27A54",
"k. c #AD7648",
"l. c #877974",
"z. c #CF7F49",
"x. c #E6910A",
"c. c #F7A80B",
"v. c #FCBA31",
"b. c #AC864C",
"n. c #B38956",
"m. c #B68964",
"M. c #BC9A75",
"N. c #AB8666",
"B. c #928177",
"V. c #C1865E",
"C. c #CB8C5D",
"Z. c #CEA65D",
"A. c #CC8F65",
"S. c #C28861",
"D. c #C9966D",
"F. c #D7986C",
"G. c #D89B6F",
"H. c #D8AF62",
"J. c #D3A47A",
"K. c #EDAA79",
"L. c #E5A575",
"P. c #EFB07F",
"I. c #FDCF71",
"U. c #7A7F85",
"Y. c #81858A",
"T. c #928B8B",
"R. c #8C9197",
"E. c #94979C",
"W. c #868B91",
"Q. c #A9998C",
"!. c #A39285",
"~. c #989DA4",
"^. c #A4A3A5",
"/. c #BBAEA0",
"(. c #A3AAB0",
"). c #ACAEB1",
"_. c #A9B0B6",
"`. c #AFB6BC",
"'. c #B2B8BE",
"]. c #B3B5B9",
"[. c #B2A396",
"{. c #D7B58B",
"}. c #D4B38C",
"|. c #F2B886",
" X c #E6B98B",
".X c #C4B8AB",
"XX c #E9C698",
"oX c #F6C492",
"OX c #F7CA99",
"+X c #FAD29F",
"@X c #F5C18F",
"#X c #CDC3B5",
"$X c #F3D3A2",
"%X c #FFDFAC",
"&X c #FBD6A5",
"*X c #FFE5BE",
"=X c #B5BCC2",
"-X c #B8BEC2",
";X c #B9C0C6",
":X c #BCC5CA",
">X c #C1C8CD",
",X c #C3CBD1",
"<X c #C9CED2",
"1X c #C6D1D6",
"2X c #CDD1D5",
"3X c #C9D4D9",
"4X c #D5D9DC",
"5X c #DCDFE2",
"6X c #E6E8EA",
"7X c #E1E4E6",
"8X c #F2F3F5",
"9X c None",
/* pixels */
"9X9X9X9X9X9X9X9X9X9X9X9X9X9X9X9X9X9X9X9X9X9X9X9X9X9X9X9X9X9X9X9X9X9X9X9X9X9X9X9X9X9X9X9X9X9X9X9X9X9X9X9X9X9X9X9X9X9X9X9X9X9X9X9X",
"9X9X9X9X9X9X9X9X9X9X9X9X9X9X9X9X9X9X9X9X9X9X9X9X9X9X9X9X9X9X9X9X9X9X9X9X9X9X9X9X9X9X9X9X9X9X9X9X9X9X9X9X9X9X9X9X9X9X9X9X9X9X9X9X",
"9X9X9X9X9X9X9X9X9X9X9X9X9X9X9X9X9X9X9X9X9X9X9X9X9X9X9X9X9X9X9X9X9X9X9X9X9X9X9X9X9X9X9X9X9X9X9X9X9X9X9X9X9X9X9X9X9X9X9X9X9X9X9X9X",
"9X9Xm l 9X9X9X9X9X9X9X9X9X9X9X9X9X9X9X9X9X9X9X9X9X9X9X9X9X9X9X9X9X9X9X9X9X9X9X9X9X9X9X9X9X9X9X9X9X9X9X9X9X9X9X9X9X9X9X9X9X9X9X9X",
"9X9XB T.k 9X9X9X9X9X9X9X9X9X9X9X9X9X9X9X9X9X9X9X9X9X9X9X9X9X9X9X9X9X9X9X9X9X9X9X9X9X9X9X9X9X9X9X9X9X9X9X9X9X9X9X9X9X9X9X9X9X9X9X",
"9X9XJ :X).V 9X9X9X9X9X9X9X9X9X9X9X9X9X9X9X9X9X9X9X9X9X9X9X9X9X9X9X9X9X9X9X9X9X9X9X9X9X9X9X9X9X9X9X9X9X9X9X9X9X9X9X9X9X9X9X9X9X9X",
"9X9XJ -X=X).l 9X9X9X9X9X9X9X9X9X9X9X9X9X9X9X9X9X9X9X9X9X9X9X9X9X9X9X9X9X9X9X9X9X9X9X9X9X9X9X9X9X9X9X9X9X9X9X9X9X9X9X9X9X9X9X9X9X",
"9X9XV =X_.'.'.V 9X9X9X9X9X9X9X9X9X9X9X9X9X9X9X9X9X9X9X9X9X9X9X9X9X9X9X9X9X9X9X9X9X9X9X9X9X9X9X9X9X9X9X9X9X9X9X9X9X9X9X9X9X9X9X9X",
"9X9XJ =X~._.:X-X! 9X9X9X9X9X9X9X9X9X9X9X9X9X9X9X9X9X9X9X9X9X9X9X9X9X9X9X9X9X9X9X9X9X9X9X9X9X9X9X9X9X9X9X9X9X9X9X9X9X9X9X9X9X9X9X",
"9X9X_ =X`.W.>X2X'./ 9X9X9X9X9X9X9X9X9X9X9X9X9X9X9X9X9X9X9X9X9X9X9X9X9X9X9X9X9X9X9X9X9X9X9X9X9X9X9X9X9X9X9X9X9X9X9X9X9X9X9X9X9X9X",
"9X9X[ -X-XU._.3X5X:XV 9X9X9X9X9X9X9X9X9X9X9X9X9X9X9X9X9X9X9X9X9X9X9X9X9X9X9X9X9X9X9X9X9X9X9X9X9X9X9X9X9X9X9X9X9X9X9X9X9X9X9X9X9X",
"9X9X[ -X:X(.U.`.6X<XT.9X9X9X9X9X9X9X9X9X9X9X9X9X9X9X9X9X9X9X9X9X9X9X9X9X9X9X9X9X9X9X9X9X9X9X9X9X9X9X9X9X9X9X9X9X9X9X9X9X9X9X9X9X",
"9X9X[ :X:X`.U.=X;X6X=XV 9X9X9X9X9X9X9X9X9X9X9X9X9X9X9X9X9X9X9X9X9X9X9X9X9X9X9X9X9X9X9X9X9X9X9X9X9X9X9X9X9X9X9X9X9X9X9X9X9X9X9X9X",
"9X9X' =X1X=XR.R.'.8X:X` 9X9X9X9X9X9X9X9X9X9X9X9X9X9X9X9X9X9X9X9X9 a p 9X9X0 a a 8 9X9X9X9X9X9X9X9X9X9X9X9X9X9X9X9X9X9X9X9X9X9X9X",
"9X9X! =X:X;X'.{ `.2X4X).m 9X9X9X9X9X9X9X9X9X9X9X9X9X9X9X9X9X9X+.9.9.9.,.g :.9.9.9.=.9 9X9X9X9X9X9X9X9X9X9X9X9X9X9X9X9X9X9X9X9X9X",
"9X9X9X} =X<X`.R.~.'.8X:X! 9X9X9X9X9X9X9X9X9X9X9X9X9X9X9X9X9Xa 9.9.9.9.9.9.,.9.9.9.9.@.p 7 9X9X9X9X9X9X9X9X9X9X9X9X9X9X9X9X9X9X9X",
"9X9X9XJ =X,X;X_.U.`.7X,Xl.9X9X9X9X9X9X9X9X9X9X9X9X9X9X9X9X9X=...@.,.9.<.<.9.9.0.9.9.9.O.>.a 9X9X9X9X9X9X9X9X9X9X9X9X9X9X9X9X9X9X",
"9X9X9X9Xl.-X1X`.U.(.:X6X-XB 9X9X9X9X9X9X9X9X9X9X9X9X9X9X9X9X..=.q.z.q.d f 6.7.q.0.9.:.:.;.,.p 9X9X9X9X9X9X9X9X9X9X9X9X9X9X9X9X9X",
"9X9X9X9XC -X1X=X(.U.`.8X:X_ 9X9X9X9X9X9X9X9X9X9X9X9X9X9X9X9Xt p h h D g.K.S.y.P D r t o.&.9.8 9X9X9X9X9X9X9X9X9X9X9X9X9X9X9X9X9X",
"9X9X9X9X9XT.;X:X`.U.(.2X5X^.9X9X9X9X9X9X9X9X9X9X9X9X9X9X9X9X9XY +XoX&X%X*X X$X{.@Xd %.%.%.;.,., 9X9X9X9X9X9X9X9X9X9X9X9X9X9X9X9X",
"9X9X9X9X9XV :X1X=X~.R.=X8X:XJ 9X9X9X9X9X9X9X9X9X9X9X9X9X9X9X9XY %X%X$X5.P o.:.@.m.P %.%.X.@.9.p 9X9X9X9X9X9X9X9X9X9X9X9X9X9X9X9X",
"9X9X9X9X9X9XT.;X:X`.{ =X7X2Xl.9X9X9X9X9X9X9X9X9X9X9X9X9X9X9X9Xh g.%XM.2.9.9.>.9.A r.o.S m.h 9.g 9X9X9X9X9X9X9X9X9X9X9X9X9X9X9X9X",
"9X9X9X9X9X9XV :X3X=XR.R.:X6X].l 9X9X9X9X9X9X9X9X9X9X9X9X9X9X9Xg 2.g.XXf &.O., ..Y t.5.%XL.g.=.8 9X9X9X9X9X9X9X9X9X9X9X9X9X9X9X9X",
"9X9X9X9X9X9X9XT.:X,X`.| `.8X>X/ 9X9X9X9X9X9X9X9X9X9X9X9X9X9X9Xp p e.%XS.A I A k.L.K.+XU j.S.*.@.9X9X9X9X9X9X9X9X9X9X9X9X9X9X9X9X",
"9X9X9X9X9X9X9X! :X3X'.Y.(.2X4XE.9X9X9X9X9X9X9X9X9X9X9X9X9X9X9X9X4 y.%X{.d.) s.|.K.A.K.f.h.f...<.8 > 9X9X9X9X9X9X9X9X9X9X9X9X9X9X",
"9X9X9X9X9X9X9X9XT.:X:X).U.=X8X:X! 9X9X9X9X9X9X9X9X9X9X9X9X9X9X9Xe.OX%X%X%X%X$X XP.F.5.5.h.S O.,.r t 9X9X9X9X9X9X9X9X9X9X9X9X9X9X",
"9X9X9X9X9X9X9X9XC :X3X=X| _.7X2X[ 9X9X9X9X9X9X9X9X9X9X9X9X9X9Xs.t.*X%X%XoX}.%X%XOXK.K.m.p &.&.g o.o.% 9X9X9X9X9X9X9X9X9X9X9X9X9X",
"9X9X9X9X9X9X9X9X9XT.;X:X(.Y.:X6X].B 9X9X9X9X9X9X9X9X9X9X9X9X9X5.&X*X%X%X%Xf.F.|.K.K.K.w.X.X.>.,.&.%.1 9 2 < 9X9X9X9X9X9X9X9X9X9X",
"9X9X9X9X9X9X9X9X9Xm :X3X=X| '.8X>X! 9X9X9X9X9X9X9X9X9X9X9X9X8 v oX&X|.G.|.h.6.q.6.7.1.9.,.o.9.9.,.%.> 0 9 0 < 9X9X9X9X9X9X9X9X9X",
"9X9X9X9X9X9X9X9X9X9X^.:X:X~.R.3X4XT.9X9X9X9X9X9X9X9X9X9X9X. 7 i Y e.Y S.j.D &.9.9.t @.9.9.:.9.9.9.%.r 9 9 2 2 % 9X9X9X9X9X9X9X9X",
"9X9X9X9X9X9X9X9X9X9X! :X3X`.{ =X8X>X! 9X9X9X9X9X9X9X9X9X% < > 1.@.k.j.o.2.,.9.9.,.<.> 1.9.9.1.9.9.&.r d s 9 s 9 % 9X9X9X9X9X9X9X",
"9X9X9X9X9X9X9X9X9X9X9X^.:X:XR.~.6X2X' 9X9X9X9X9X9X9X9X% p 1 i 1.3.&XXX*.O.9.:.<.:.,.u X.9.9.9.&.9.;.t 9 9 0 9 9 p % 9X9X9X9X9X9X",
"9X9X9X9X9X9X9X9X9X9X9X/ :X3X).U.>X7X).m 9X9X9X9X9X9X9X% 0 7 o.,.3.A y.v O.;.<.O.;.;...t ,.9.9.:.<.;.t r 0 9 0 y 2 . 9X9X9X9X9X9X",
"9X9X9X9X9X9X9X9X9X9X9X9X(.:X;XY.(.8X:XJ 9X9X9X9X9X9X9X% 9 > &.o.u @...u r O.;.:.&.O...t O.9.9.O.O.O.> r 9 s ; s 0 0 o 9X9X9X9X9X",
"9X9X9X9X9X9X9X9X9X9X9X9X/ :X3X(.U.4X4XT.9X9X9X9X9X9X9X. e , : r @.>.&.&..., u O.O.&.u u O.,.<...&...2 2 ; s 9 s 0 0 . 9X9X9X9X9X",
"9X9X9X9X9X9X9X9X9X9X9X9X9X^.,X;XU.].8X;XV 9X9X9X9X9X9X< }.9 %.,.9.9.9.9.,.&.u : : u r $.&.:.O.t %.; 0 0 0 9 ; s 2 0 - 9X9X9X9X9X",
"9X9X9X9X9X9X9X9X9X9X9X9X9XJ :X3XE._ ].<X_ 9X9X9X9X9X. d.%Xp 9.9.9.9.9.9.9.9.:.&.i u > %.O.u @.7 , 2 9 0 9 0 9 > 9 ; < 9X9X9X9X9X",
"9X9X9X9X9X9X9X9X9X9X9X9X9Xl ^.,X[ ] l.` ^.n 9X9X9Xx l.M {.u 9.9.9.9.9.9.9.9.9.O.i i y i o.r r 7 > - - - - ; - . e < 9X9X9X9X9X9X",
"9X9X9X9X9X9X9X9X9X9X9X9X9X9X/ '.! ]  .] B.s A V [ ~ B V 6.d 9.9.9.9.9.9.9.9.9.i c.I.v.4., o.1 q L w U U L U N.M.A.Z 9X9X9X9X9X9X",
"9X9X9X9X9X9X9X9X9X9X9X9X9X9Xl ].! ] ^ _ s Z Y.] j @ I %X4.$.9.9.9.9.<.9.9.9.9.*.x.x.c.x.r r   R P.%X%X%X%X%X%X+XK.Z 9X9X9X9X9X9X",
"9X9X9X9X9X9X9X9X9X9X9X9X9X9X9XA ( n v f 0 Z w e 9X9XM $Xd $.9.9.9.1.;.9.<.<.,.7 g -.4.-.i 8   A |.%X%X%X%X%X%X%XK.Z 9X9X9X9X9X9X",
"9X9X9X9X9X9X9X9X9X9X9X9X9X9X9X0 0 0 0 d d d h 9X9Xv t.N.S p ,.,.9.<.;.9.,.:.@.2.9.:.t r X.&   j 5.Y m.+X%X%X%X%XK.Y 9X9X9X9X9X9X",
"9X9X9X9X9X9X9X9X9X9X9X9X9X( ! | U.Z 0 l ! m }.M s.$X%X|.5.:.u O.9.>.;.9.>.;...;.9.&.S K q 6 c 1 7 7 Z t.%X%X%X%XK.e.9X9X9X9X9X9X",
"9X9X9X9X9X9X9X9X9X9X9X9XB | _ x q f 6 U ) M I R D.%X%X%X5.O.t O.1.:.&.9.&.:.@.=.6.Y f.F.F.w 7 9 0 2 1 f t.%X%X+XK.e.9X9X9X9X9X9X",
"9X9X9X9X9X9X9X9X9X9X9Xj B j 9X9X9Xd.$X%X%X%XU U L.%X%X%X5.O.p p ,.;.;.,.%.,.O.g Y g.A A.K.5.s 7 1 f < 9 v XX%X+XK.e.9X9X9X9X9X9X",
"9X9X9X9X9X9X9X9X9X9X9X9X9X9X9X9XK &X%X%X$Xs.e.m XX%X%X%X6.D A.P O.%.&.%.%.;.%.8 h.|.oXOX&X&Xv p 1 7 p 7 7 t.%XoXK.A 9X9X9X9X9X9X",
"9X9X9X9X9X9X9X9X9X9X9X9X9X9X9X9X9XS.&X%X{.$X%XM.t.%X%X%XK.S.K.L.t %.%.%.%.%.%.> 5.oX%X%X%X%XD.& f % f 1 0 q oXK.A.A 9X9X9X9X9X9X",
"9X9X9X9X9X9X9X9X9X9X9X9X9X9X9X9X9XR &X%X%X%X}.) ) d.%X|.K.S.K.K.p %.%.%.%.t ; X I A.OX%X%X%X+Xq p 0 1 f & 7 S.f.K 9X9X9X9X9X9X9X",
"9X9X9X9X9X9X9X9X9X9X9X9X9X9X9X9X9Xv |.%X%X{.}.%XI {.M.K.K.r.K.) X u d 1 .     O U K.%X%X%X%X%Xr.1 d < d 1 0 q n.b.9X9X9X9X9X9X9X",
"9X9X9X9X9X9X9X9X9X9X9X9X9X9X9X9X9X9Xy.OX%X%X%X$Xq D.G.K.K.r.) @   X     O + + + m G.|.%X%X%X%XD.& d 2 p 7 c k H.8.9X9X9X9X9X9X9X",
"9X9X9X9X9X9X9X9X9X9X9X9X9X9X9X9X9X9XA D.%X$XN.m V q m.K.n.6   + X $ + + + + + + + v A.&X&XOX|.L.< d 7 q     4 H.b.9X9X9X9X9X9X9X",
"9X9X9X9X9X9X9X9X9X9X9X9X9X9X9X9X9X9X9XZ D.U C x Q Q j A < X   O O   + + + O   + j m S.K.K.K.K.G.q Z O       3 H.b.9X9X9X9X9X9X9X",
"9X9X9X9X9X9X9X9X9X9X9X9X9X9X9X9X9X9X9X9Xn 3 ^ ^ # 3 & 9X9XX   o O   O + @   $ + + O B 5.G T L j @           5 H.H.K 9X9X9X9X9X9X",
"9X9X9X9X9X9X9X9X9X9X9X9X9X9X9X9X9X9X9X9X9X. O & = #.* 9X9X9Xo 4 z j j H 4 o G L M k m L e o z z e 4 3 8.b.Z.H.H.H.Y 9X9X9X9X9X9X",
"9X9X9X9X9X9X9X9X9X9X9X9X9X9X9X9X9X9X9X9X9X9X9X* = 8 9X9X9X9Xq R W b.p.a.T b H.H.H.H.H.b.R b.a.b.p.T e H.H.H.H.Z.b.E 9X9X9X9X9X9X",
"9X9X9X9X9X9X9X9X9X9X9X9X9X9X9X9X9X9X9X9X9X9X9X9X9X9X9X9X9X9X9Xc H W T T 5 < 9 R 8.n 9X9Xe z W R E e 5 9X9XK 9X9X9X9X9X9X9X9X9X9X",
"9X9X9X9X9X9X9X9X9X9X9X9X9X9X9X9X9X9X9X9X9X9X9X9X9X9X9X9X9X9X9X9XL 8.u.W b 9X9X9X9X9X9X9X9XL i.i.8.H e 9X9X9X9X9X9X9X9X9X9X9X9X9X",
"9X9X9X9X9X9X9X9X9X9X9X9X9X9X9X9X9X9X9X9X9X9X9X9X9X9X9X9X9X9Xe L H W p.p.H z 9X9X9X9Xq e Z n E i.b.H 6 9X9X9X9X9X9X9X9X9X9X9X9X9X",
"9X9X9X9X9X9X9X9X9X9X9X9X9X9X9X9X9X9X9X9X9X9X9X9X9X9X9X9X!.c W i.8.u.i.W H I #X#X#X' H W 8.i.i.u.W H 6 9X9X9X9X9X9X9X9X9X9X9X9X9X",
"9X9X9X9X9X9X9X9X9X9X9X9X9X9X9X9X9X9X9X9X9X9X#X#X#X#X#X#Xl.c G G H G b b z M #X#X#XG G G G G G H H z 6 [.#X#X#X#X9X9X9X9X9X9X9X9X",
"9X9X9X9X9X9X9X9X9X9X9X9X9X9X9X9X9X9X9X9X9X9X9X#X#X#X#X#X#X#X/.Q.Q.Q.Q./.#X#X#X#X#X#X.XQ.Q.Q.Q.Q.Q./.#X#X#X#X#X9X9X9X9X9X9X9X9X9X",
"9X9X9X9X9X9X9X9X9X9X9X9X9X9X9X9X9X9X9X9X9X9X9X9X9X9X9X9X9X#X#X#X#X#X#X#X#X#X#X#X#X#X#X#X#X#X#X#X#X9X9X9X9X9X9X9X9X9X9X9X9X9X9X9X",
"9X9X9X9X9X9X9X9X9X9X9X9X9X9X9X9X9X9X9X9X9X9X9X9X9X9X9X9X9X9X9X9X9X9X9X9X9X9X9X9X9X9X9X9X9X9X9X9X9X9X9X9X9X9X9X9X9X9X9X9X9X9X9X9X",
"9X9X9X9X9X9X9X9X9X9X9X9X9X9X9X9X9X9X9X9X9X9X9X9X9X9X9X9X9X9X9X9X9X9X9X9X9X9X9X9X9X9X9X9X9X9X9X9X9X9X9X9X9X9X9X9X9X9X9X9X9X9X9X9X"
};
