/* XPM */
static char *result[] = {
/* columns rows colors chars-per-pixel */
"64 64 217 2 ",
"   c #000000",
".  c #050309",
"X  c #0B0907",
"o  c #140E06",
"O  c #0B0712",
"+  c #0E0A14",
"@  c #120C1C",
"#  c #19171B",
"$  c #121106",
"%  c #271B0C",
"&  c #201714",
"*  c #25240E",
"=  c #2B2B11",
"-  c #392812",
";  c #3C3A1C",
":  c #160F23",
">  c #1A1524",
",  c #20182E",
"<  c #261D39",
"1  c #3C3825",
"2  c #2C223D",
"3  c #322C36",
"4  c #3D3537",
"5  c #2D272E",
"6  c #432E14",
"7  c #483518",
"8  c #593717",
"9  c #4F2B10",
"0  c #653D19",
"q  c #623A17",
"w  c #453C28",
"e  c #4C333F",
"r  c #6D441D",
"t  c #71471F",
"y  c #454323",
"u  c #494624",
"i  c #4C4926",
"p  c #4F4D29",
"a  c #474429",
"s  c #514E29",
"d  c #55522D",
"f  c #59562F",
"g  c #4B4436",
"h  c #564B3B",
"j  c #595630",
"k  c #5D5A33",
"l  c #55523D",
"z  c #674724",
"x  c #734A21",
"c  c #7A5329",
"v  c #625F36",
"b  c #65503C",
"n  c #795635",
"m  c #694938",
"M  c #656238",
"N  c #6C683C",
"B  c #2A1F40",
"V  c #2D2044",
"C  c #31224C",
"Z  c #352949",
"A  c #372C46",
"S  c #3C3548",
"D  c #352552",
"F  c #3A2C53",
"G  c #3A2A5C",
"H  c #382759",
"J  c #3D3356",
"K  c #311B66",
"L  c #341E69",
"P  c #3E2B64",
"I  c #36206A",
"U  c #3A236D",
"Y  c #3E2A6B",
"T  c #3C2471",
"R  c #42384B",
"E  c #453D53",
"W  c #433559",
"Q  c #5A3B43",
"!  c #412C6E",
"~  c #412D67",
"^  c #4D3B6C",
"/  c #4B3864",
"(  c #422B76",
")  c #442B7A",
"_  c #482D7E",
"`  c #4B3575",
"'  c #4B3579",
"]  c #543D7D",
"[  c #513E72",
"{  c #703F70",
"}  c #594C4B",
"|  c #4C435C",
" . c #484254",
".. c #52495E",
"X. c #51455D",
"o. c #5D545B",
"O. c #4B4245",
"+. c #634248",
"@. c #634B5C",
"#. c #755459",
"$. c #6F5A4F",
"%. c #786941",
"&. c #69645F",
"*. c #544D61",
"=. c #57476B",
"-. c #5A5266",
";. c #5E556A",
":. c #5A447A",
">. c #574679",
",. c #5F5770",
"<. c #63596D",
"1. c #67556D",
"2. c #655C71",
"3. c #695D75",
"4. c #655575",
"5. c #755C76",
"6. c #6B467F",
"7. c #6A6567",
"8. c #6E657A",
"9. c #6A6176",
"0. c #72697E",
"q. c #736F70",
"w. c #797575",
"e. c #875D2E",
"r. c #8C6432",
"t. c #856137",
"y. c #936936",
"u. c #956E3A",
"i. c #916735",
"p. c #9A713B",
"a. c #86425D",
"s. c #9E7946",
"d. c #9A7441",
"f. c #886C58",
"g. c #906F4C",
"h. c #A67C43",
"j. c #847C7A",
"k. c #957175",
"l. c #AF874C",
"z. c #88857C",
"x. c #C39E69",
"c. c #4C3282",
"v. c #513685",
"b. c #533C82",
"n. c #553A8B",
"m. c #583E8C",
"M. c #533789",
"N. c #5C428E",
"B. c #5C4883",
"V. c #5E4391",
"C. c #644D8B",
"Z. c #604A87",
"A. c #695988",
"S. c #644A95",
"D. c #684D9A",
"F. c #604594",
"G. c #6C519D",
"H. c #6E5795",
"J. c #725B96",
"K. c #735B9C",
"L. c #765483",
"P. c #6E638D",
"I. c #756D81",
"U. c #77678B",
"Y. c #797085",
"T. c #7E758A",
"R. c #796498",
"E. c #776991",
"W. c #7156A0",
"Q. c #7459A3",
"!. c #785EA6",
"~. c #7A5FA8",
"^. c #7D64A5",
"/. c #7E63AB",
"(. c #7661A0",
"). c #85788C",
"_. c #857C93",
"`. c #867699",
"'. c #826C96",
"]. c #A17E85",
"[. c #836AAD",
"{. c #836AA8",
"}. c #8971A8",
"|. c #9077A5",
" X c #856AB1",
".X c #886FB4",
"XX c #8B72B5",
"oX c #8F75B9",
"OX c #8F78B4",
"+X c #9379BC",
"@X c #937AB6",
"#X c #875689",
"$X c #997EC1",
"%X c #918F84",
"&X c #99938C",
"*X c #8E8392",
"=X c #948A99",
"-X c #9D9A96",
";X c #8E8C82",
":X c #A98987",
">X c #A59898",
",X c #A3A195",
"<X c #AEAD9E",
"1X c #A6A39B",
"2X c #978AA9",
"3X c #9F95AD",
"4X c #A496A7",
"5X c #AFADA0",
"6X c #ABA3A5",
"7X c #B1ABAD",
"8X c #BBBAA9",
"9X c #B7B5A5",
"0X c #C8C6B6",
"qX c #9D83C4",
"wX c #A389C9",
"eX c #D9D9C7",
"rX c #EEEDD9",
/* pixels */
"                                                                                                                                ",
"                                                                                                                                ",
"                                                                                                                                ",
"                                                                                                                                ",
"                                                                                                                                ",
"                                                            h w                                                                 ",
"                                                          g.l.t.w                                                               ",
"                                                        g s.s.s.n                                                               ",
"                                                        $.d.d.d.x W X                                                           ",
"                                                      *.o.d.d.e.+.OX,..                                                         ",
"                                                    # oX{.%.%.b G.$X.XJ                                                         ",
"                                                . . E $XoX$XJ.5.$X$X2XB.: 5                                                     ",
"                                                .  X| Q.}.qXoXoX.X].2X' W.>.                                                    ",
"                                                  /.P.^.k.S.Q.S.3X4X/.C.N.F                                                     ",
"                                                  [.P.XXoX X+X X$XXXW.>./.> .                                                   ",
"                                                  Z.>. XoXQ./.W./.$XT @.f..                                                     ",
"                                              Z k.V.B.+X[.G.(.J.K.+X#.f.x.6.F                                                   ",
"                                          1 j j.0XR.G.B.P.qX+XoXoX3.m.:X|.&X|.s w X                                             ",
"                                    > :.4.k k } >X2X+X/.[.A.P.P.J.!. X+X|.<X&.f k } C.>                                         ",
"                                . ^.qX+X+Xp k p eX&X+X+X.X+X+X+XXX.X+X4XeX=Xg M d E.+X+XC..                                     ",
"                                oXqXoX+X+Xa k j -.L.4XU.Q.G.!.Q.!. X*Xa.=X1Xd k a +X+X+X+XK..                                   ",
"                              / qX+X.X/.+Xg j %.y 2XrXj.>X>X.X2X).].rX'.+Xg N k a /./.+XoXD.P                                   ",
"                              ^.oX+X+XV.(.O.j v j } T.oX7X5X#X0X&XoX4X-X<.s N k 1 m./.+X+X.Xv..                                 ",
"                            K.+X+X+X+XD.' g d k %.i o.oX4X).+X4X-X+X+Xo.i N v d w M.+X+X+X+X[.'                                 ",
"                          / +X+X+X+X+XV.T y d k k j u g @X.X+X[.{.+Xo.i k k k d u m.XX+X+X+X+XV.C                               ",
"                           X+X+X+XoX/.) Y y j k k k i y R.+X[.Q.+X+X; i k k k k i W !.+X+X+X+XQ.(                               ",
"                        O $XoX+X$XXXD.U H u M k k k k y 2.+Xm.S.XX}.y d k k k v s 2 V.+X+X+X+XG.T @                             ",
"                        =.+X+X+XoXG.) I @ ; N k k k k p R T I T T =.i k k k k M u   m.G.+X+X[.m.) :                             ",
"                        O +X[.W.V.M.I D   * v N k k k d 1 T T c.T 3 p k k k M M ;   < m.M.M.n.M.T @                             ",
"                        W +X+XV.c.T C     $ d M M k k u 1 D.n.n.Q.g y k k M M k *     < M.c.T T L C                             ",
"                        H.+X^.M.T Y         p d k p k y X.v.v.n.V.R ; k d k s d X       G V. XW.T Y                             ",
"                        H.*X-X=X3.T         ; u j u i 4 D.D.M.n.F.G.A u y d i ;         ` =X6X7X=X^                             ",
"                      X 9X9X9X<X,Xw.        & = y g 4 n.v.n.c.M.m.n.I 3 4 u = =         w.&X<X<X8X8X#                           ",
"                        8X8X<X-X%X7.          # 7.Y.0.>.B.:.b.>.b.b.[ X.S 3 3           o.%X,X<X8X8X$                           ",
"                        ,X0X8X<X%X#           _.T.I.Y.Y.I.3.<.9.3.2...R S  .S 3         X z.<X9X0X,X                            ",
"                        &.0X5X,Xw.          ,.I.I.8.2.2.I.T.0.,...E R  .2.0.| S A         q.,X<X0Xw.  $ 6 X                     ",
"                          <X<X&X*         # ,.*.0.Y.9.*....... . ...2.8.8.8...R S .       X |.R.R.2 7 r.r.r                     ",
"                          j.`.U.O         [ c.| ;.0.T._...| ........*.<.Y.<.E J ' b.      Z +X+X+XG.+.c 0 8                     ",
"                      2 J.oX+X@X3.+     Z oX+X X^ | -.T.4X0...-.;.<.I.Y.8...J [.+XXX^     C.+X+X+XoX:.7 %                       ",
"                    W }.XXOXU./ W 1.:   [.+X+X+XQ.' | 0.0.0._.Y.Y.Y.Y.9.| E S.+X+X+X+X    C.XX+X+XQ.'                           ",
"                    A.'.'.R.Z     .   > $X+X+X+XW.n.L E -.;.Y.Y.2.0.2. .G M.G.+X+X+X+X^ - n S.!.N.' +                           ",
"                    V '.L.[.Z         J.+X+X+X+Xm.n.T K P S *.,.*.| J K K M.M.oX+X+X`.g.p.x Q v.G                               ",
"                      > W ^ X         [.+X+X+X~.n.M.K U .     > ,     ! K c.M.Q.|.g.p.y.e.0 o                                   ",
"                                      (.+X+XoXV.m.T L :               . T U #.u.p.y.y.y.x 8                                     ",
"                                      H.+X+XQ.n.c.L D                 - n p.u.y.y.y.e.x q o                                     ",
"                                    . $X+X.Xn.n.T P               % u.p.y.u.y.u.r.c 0 q 8                                       ",
"                                    Z qX+XW.n.c.T               z p.u.y.y.y.y.e.t t t 8 /                                       ",
"                                    G +X+XS.v.L L <           6 p.u.y.y.y.y.r.t t t 0 z :.                                      ",
"                                    O .XoXn.n.n.c.G           u.y.y.y.y.y.i.e.t t r q 5.V                                       ",
"                                      C.V.n.V.n.c.U         7 u.y.y.y.y.y.r.e.t t 0 9 F.                                        ",
"                                      K.+X+XXXn.) !         t.y.y.y.y.y.y.r.t t t q m .X                                        ",
"                                      >.+X+X+XV.) P         r.y.y.y.y.p.y.t t 0 t 8 OXK.                                        ",
"                                      < +X+X+XS.) H         c y.y.p.h.i.t t t r 9 #.@X^                                         ",
"                                        +X+X+XW.) D         r i.l.l.i.t t t r q m @XqXO                                         ",
"                                        H.+X+XQ.) B         8 r t t t t t r q +.+X+X[.                                          ",
"                                        O wX+X!.) B         X 8 t t t t q 8 e G.+XqXF                                           ",
"                                          H.+XXXc.<           X % 9 6 7 6 & ) [.+X^.                                            ",
"                                          O qX+XD.H                       < n.+X+XZ                                             ",
"                                          F +X+X~.(                       G S.+X+X>.                                            ",
"                                      . [ oX+X+XF.!                       H v.oX+X+XC..                                         ",
"                                    ^ .X+X X!.S.N.G                       C v.F.!.[.+XXXZ..                                     ",
"                                  / W.[.F.S.[./..X~                       D ~.[.!.D.D.!.W.B.                                    ",
"                                  ] N.F.b.] ] ' ' @                       . ~ ' b.] b.F.N.B.                                    ",
"                                                                                                                                "
};
