/* XPM */
static char *result[] = {
/* columns rows colors chars-per-pixel */
"64 64 207 2 ",
"   c #2C1A1A",
".  c #3D1B13",
"X  c #3F2018",
"o  c #382526",
"O  c #362E30",
"+  c #4D160E",
"@  c #441E11",
"#  c #491F11",
"$  c #75150E",
"%  c #46240F",
"&  c #5A260F",
"*  c #55260F",
"=  c #452113",
"-  c #4C2411",
";  c #4F2811",
":  c #452519",
">  c #492619",
",  c #4B2B1A",
"<  c #472A1C",
"1  c #522411",
"2  c #592610",
"3  c #542A12",
"4  c #5B2D13",
"5  c #532D1B",
"6  c #582D19",
"7  c #5E3014",
"8  c #5B321D",
"9  c #50321E",
"0  c #6B2E0E",
"q  c #642C0E",
"w  c #75320D",
"e  c #7C350D",
"r  c #632B10",
"t  c #633214",
"y  c #6C3212",
"u  c #67351D",
"i  c #7B3711",
"p  c #753817",
"a  c #6F300D",
"s  c #492C25",
"d  c #4D3328",
"f  c #543425",
"g  c #5B3424",
"h  c #5B3A2B",
"j  c #543927",
"k  c #543932",
"l  c #593D34",
"z  c #4D3630",
"x  c #643A25",
"c  c #643D2B",
"v  c #653B27",
"b  c #723F24",
"n  c #594B2A",
"m  c #5A4429",
"M  c #5A423C",
"N  c #584339",
"B  c #6B432E",
"V  c #67482C",
"C  c #764429",
"Z  c #62512E",
"A  c #6C4531",
"S  c #674738",
"D  c #774C36",
"F  c #6A5832",
"G  c #7D533B",
"H  c #755934",
"J  c #786439",
"K  c #3A3A40",
"L  c #3F4046",
"P  c #5D4541",
"I  c #564340",
"U  c #4A474C",
"Y  c #664D46",
"T  c #67514B",
"R  c #755948",
"E  c #665552",
"W  c #705E5A",
"Q  c #776158",
"!  c #656469",
"~  c #736462",
"^  c #786A67",
"/  c #7E716E",
"(  c #75787F",
")  c #7E787A",
"_  c #707176",
"`  c #81370C",
"'  c #853A0D",
"]  c #883A0E",
"[  c #923F0A",
"{  c #833A13",
"}  c #923F10",
"|  c #872618",
" . c #97410A",
".. c #9B430B",
"X. c #884516",
"o. c #974718",
"O. c #995510",
"+. c #A3460D",
"@. c #A7480D",
"#. c #AC4A0C",
"$. c #B24D0D",
"%. c #B84F0E",
"&. c #BB500E",
"*. c #A44711",
"=. c #864A26",
"-. c #83563D",
";. c #885B3A",
":. c #824D30",
">. c #85643B",
",. c #956D3B",
"<. c #986629",
"1. c #B16C0D",
"2. c #C3540F",
"3. c #CD7237",
"4. c #D37B13",
"5. c #865D44",
"6. c #8C684E",
"7. c #956346",
"8. c #97674A",
"9. c #8A7242",
"0. c #977C48",
"q. c #957644",
"w. c #926D53",
"e. c #996F52",
"r. c #977556",
"t. c #8D6B51",
"y. c #AB7553",
"u. c #A77856",
"i. c #B57C58",
"p. c #A56F4C",
"a. c #887A76",
"s. c #8A7267",
"d. c #A27E60",
"f. c #C1794B",
"g. c #E49412",
"h. c #F4B035",
"j. c #B28A4E",
"k. c #B98159",
"l. c #B58A59",
"z. c #978475",
"x. c #A78565",
"c. c #B88E6A",
"v. c #BB9973",
"b. c #C1865F",
"n. c #C79A55",
"m. c #E1AB43",
"M. c #CC8F65",
"N. c #C9936A",
"B. c #D6976A",
"V. c #D39E75",
"C. c #D8AF62",
"Z. c #D5AA7E",
"A. c #C2A17B",
"S. c #EDAB7A",
"D. c #E2A273",
"F. c #EFB17F",
"G. c #CEA65D",
"H. c #7A7F85",
"J. c #757980",
"K. c #82858B",
"L. c #848286",
"P. c #948C8B",
"I. c #868B92",
"U. c #97979A",
"Y. c #8C9197",
"T. c #A3968F",
"R. c #989DA4",
"E. c #A09EA0",
"W. c #9DA3AA",
"Q. c #A3A2A4",
"!. c #A3AAB0",
"~. c #ABAEB0",
"^. c #A9B0B6",
"/. c #AFB6BC",
"(. c #B2B6BA",
"). c #B2B8BE",
"_. c #CFAE86",
"`. c #DAB88D",
"'. c #EAB686",
"]. c #F1B786",
"[. c #F4BC8B",
"{. c #E5BE90",
"}. c #F5C18F",
"|. c #F7C896",
" X c #FAD29F",
".X c #EBCA9B",
"XX c #CDC3B5",
"oX c #FCD5A2",
"OX c #FFDFAC",
"+X c #FDD8A5",
"@X c #B5BDC3",
"#X c #B8BEC3",
"$X c #B8C1C6",
"%X c #BDC6CB",
"&X c #C2C9CE",
"*X c #C1C6CB",
"=X c #C4CDD3",
"-X c #C8CDD1",
";X c #C6D1D6",
":X c #CBD4D9",
">X c #D2D6D9",
",X c #D7DBDE",
"<X c #FFECCE",
"1X c #E6E8EA",
"2X c #EBEDEE",
"3X c #FAFAFB",
"4X c None",
/* pixels */
"4X4X4X4X4X4X4X4X4X4X4X4X4X4X4X4X4X4X4X4X4X4X4X4X4X4X4X4X4X4X4X4X4X4X4X4X4X4X4X4X4X4X4X4X4X4X4X4X4X4X4X4X4X4X4X4X4X4X4X4X4X4X4X4X",
"4X4X4X4X4X4X4X4X4X4X4X4X4X4X4X4X4X4X4X4X4X4X4X4X4X4X4X4X4X4X4X4X4X4X4X4X4X4X4X4X4X4X4X4X4X4X4X4X4X4X4X4X4X4X4X4X4X4X4X4X4X4X4X4X",
"4X4X4X4X4X4X4X4X4X4X4X4X4X4X4X4X4X4X4X4X4X4X4X4X4X4X4X4X4X4X4X4X4X4X4X4X4X4X4X4X4X4X4X4X4X4X4X4X4X4X4X4X4X4X4X4X4X4X4X4X4X4X4X4X",
"4X4X4X4X4X4X4X4X4X4X4X4X4X4X4X4X4X4X4X4X4X4X4X4X4X4X4X4X4X4X4X4X4X4X4X4X4X4X4X4X4X4X4X4X4X4X4X4X4X4X4X4X4X4X4X4X4X4X4X4X4X4X4X4X",
"4X4X4X4X4X4X4X4X4X4X4X4X4X4X4X4X4X4X4X4X4X4X4X4X4X4X4X4X4X4X4X4X4X4X4X4X4X4X4X4X4X4X4X4X4X4X4X4X4X4X4X4X4X4X4X4X4X4X4X4X4X4X4X4X",
"4X4X4X4X4X4X4X4X4X4X4X4X4X4X4X4X4X4X4X4X4X4X4X4X4X4X4X4X4X4X4X4X4X4X4X4X4X4X4X4X4X4X4X4X4X4X4X4X4X4X4X4X4X4X4X4X4X4X4X4X4X4X4X4X",
"4X4X4X4X4X4X4X4X4X4X4X4X4X4X4X4X4X4X4X4X4X4X4X4X4X4X4X4X4X4X4X4X4X4X4X4X4X4X4X4X4X4X4X4X4X4X4X4X4X4X4X4X4X4X4X4X4X4X4X4X4X4X4X4X",
"4X4X4X4X4X4X4X4X4X4X4X4X4X4X4X4X4X4X4X4X4X4X4X4X4X4X4X4X4X4X4X4X4X4X4X4X4X4X4X4X4X4X4X4X4X4X4X4X4X4X4X4X4X4X4X4X4X4X4X4X4X4X4X4X",
"4X4X4X4X4X4X4X4X4X4X4X4X4X4X4X4X4X4X4X4X4X4X4X4X4X4X4X4X4X4X4X4X4X4X4X4X4X4X4X4X4X4X4X4X4X4X4X4X4X4X4X4X4X4X4X4X4X4X4X4X4X4X4X4X",
"4X4X4X4X4X4X4X4X4X4X4X4X4X4X4X4X4X4X4X4X4X4X4X4X4X4X4X4X4X4X4X4X4X4X4X@ @ 1 @ @ 4X4X4X4X4X4X4X4X4X4X4X4X4X4X4X4X4X4X4X4X4X4X4X4X",
"4X4X4X4X4X4X4X4X4X4X4X4X4X4X4X4X4X4X4X4X4X4X4X4X4X4X4X4X4X4X4X4X# # 1 $.2.2.2.$.# 4X4X4X4X4X4X4X4X4X4X4X4X4X4X4X4X4X4X4X4X4X4X4X",
"4X4X4X4X4X4X4X4X4X4X4X4X4X4X4X4X4X4X4X4X4X4X4X4X4X4X4X4X4X4X@ r #.{ 2.2.2.2.2.2.{ 2 2 @ 4X4X4X4X4X4X4X4X4X4X4X4X4X4X4X4X4X4X4X4X",
"4X4X4X4X4X4X4X4X4X4X4X4X4X4X4X4X4X4X4X4X4X4X4X4X4X4X4X4X4X# [ 2.2.&.2.2.2.2.2.2.%.2.2.2 4X4X4X4X4X4X4X4X4X4X4X4X4X4X4X4X4X4X4X4X",
"4X4X4X4X4X4X4X4X4X4X4X4X4X4X4X4X4X4X4X4X4X4X4X4X4X4X4X4X- ] &.2.2.#.$.2.2.&.$.{ 0 ` @.*.@ 4X4X4X4X4X4X4X4X4X4X4X4X4X4X4X4X4X4X4X",
"4X4X4X4X4X4X4X4X4X4X4X4X4X4X4X4X4X4X4X4X4X4X4X4X4X4X4X4X2 ` i %.$.} 4 i { a 2 # 1 2 0  .@ 4X4X4X4X4X4X4X4X4X4X4X4X4X4X4X4X4X4X4X",
"4X4X4X4X4X4X4X4X4X4X4X4X4X4X4X4X4X4X4X4X4X4X4X4X4X4X4X4X1 -  .1 :.7.N.[.N.M.'.}.[.[.}.o.@ 4X4X4X4X4X4X4X4X4X4X4X4X4X4X4X4X4X4X4X",
"4X4X4X4X4X4X4X4X4X4X4X4X4X4X4X4X4X4X4X4X4X4X4X4X4X4X4X4X- 0 0 p. X XOXOXOXOXOX+X_._._.u.# 4X4X4X4X4X4X4X4X4X4X4X4X4X4X4X4X4X4X4X",
"4X4X4X4X4X4X4X4X4X4X4X4X4X4X4X4X4X4X4X4X4X4X4X4X4X4X4X4X# w > D G -.D w.`.OXA.b =.=.=.g x 4X4X4X4X4X4X4X4X4X4X4X4X4X4X4X4X4X4X4X",
"4X4X4X4X4X4X4X4X4X4X4X4X4X4X4X4X4X4X4X4X4X4X4X4X4X4X4X4Xx y y 2.$.%.%.$.w.OX;.#.@.$.#.r S 4X4X4X4X4X4X4X4X4X4X4X4X4X4X4X4X4X4X4X",
"4X4X4X4X4X4X4X4X4X4X4X4X4X4X4X4X4X4X4X4X4X4X4X4X4X4X4XA {.`.b 0 0 D B r c.OX_.g c g 5 5.c.B 4X4X4X4X4X4X4X4X4X4X4X4X4X4X4X4X4X4X",
"4X4X4X4X4X4X4X4X4X4X4X4X4X4X4X4X4X4X4X4X4X4X4X4X4X4X4Xc i.x D.M.D T.s.7.oXOXOXw.s.T 7.y.y.g 4X4X4X4X4X4X4X4X4X4X4X4X4X4X4X4X4X4X",
"4X4X4X4X4X4X4X4X4X4X4X4X4X4X4X4X4X4X4X4X4X4X4X4X4X4X4Xi ;.C M.].x.6.A.`.OXOXOXy.G v._.e.y.h 4X4X4X4X4X4X4X4X4X4X4X4X4X4X4X4X4X4X",
"4X4X4X4X4X4X4X4X4X4X4X4X4X4X4X4X4X4X4X4X4X4X4X4X4X4X2 } 2 #.3.[.+XOXZ.x.OXOXOX|.;.r.y.u 5 w 4X4X4X4X4X4X4X4X4X4X4X4X4X4X4X4X4X4X",
"4X4X4X4X4X4X4X4X4X4X4X4X4X4X4X4X4X4X4X4X4X4X4X4X4X@ ] 2 *.2.2.3.i.3.B oXOXOX<X<XM.[.G 2.w } # @ @ @ 4X4X4X4X4X4X4X4X4X4X4X4X4X4X",
"4X4X4X4X4X4X4X4X4X4X4X4X4X4X4X4X4X4X4X4X4X4X4X@ @ 2 e $.2.2.&.a ..%.5 y.D.|.OXoXB.7.4 $.%.0 +.2 % 4 - @ 4X4X4X4X4X4X4X4X4X4X4X4X",
"4X4X4X4X4X4X4X4X4X4X4X4X4X4X4X4X4X4X4X4X4X4X= 4 1 ..#.2.2.$.r &.2.%. .{ x 7.M.y.6 w @.2.2.` r { 7 u 3 4 = @ 4X4X4X4X4X4X4X4X4X4X",
"4X4X4X4X4X4X4X4X4X4X4X4X4X4X4X4X4X4X4X4X4X= 3 ; = &.2.&.%.& #.2.2.2.2.%.@.i p p ..%.2.$.@.+.w *.1 ; t 7 3 1 % 4X4X4X4X4X4X4X4X4X",
"4X4X4X4X4X4X4X4X4X4X4X4X4X4X4X4X4X4X4X4X= 3 t 4 1 $.2.+.[ e $.$.%.+.$.%...X.V.k.[  .#.%.%.$.[ r * t t 3 3 t - % 4X4X4X4X4X4X4X4X",
"4X4X4X4X4X4X4X4X4X4X4X4X4X4X4X4X4X4X4X4X3 3 = 7 1 [ #.+.q  ...$. .$.#. .=.8.].].:.0 ` [ ` ` ` & e 3 = 7 4 3 3 7 @ 4X4X4X4X4X4X4X",
"4X4X4X4X4X4X4X4X4X4X4X4X4X4X4X4X4X4X4X= t 3 ; ; 2 0  . .1  . .[  . .e * 8 8 C C  .[ w 0 0 0 0 1 e r 3 3 7 4 ; 3 = 4X4X4X4X4X4X4X",
"4X4X4X4X4X4X4X4X4X4X4X4X4X4X4X4X4X4X4X1 4 7 4 t t - ' w &  .e & & & 0 [ +.+.+.+.%.2.%.%.$.%.+.$.4 = 3 % t 7 3 4 t @ 4X4X4X4X4X4X",
"4X4X4X4X4X4X4X4X4X4X4X4X4X4X4X4X4X4X@ 3 3 t 3 3 4 ; & ` 1 # w ..#.$.&.2.2.2.2.2.2.2.2.2.2.2.@.] 0 3 ; 4 3 ; 4 3 - = 4X4X4X4X4X4X",
"4X4X4X4X4X4X4X4X4X4X4X4X4X4X4X4X4X4X. = % - 3 = % @ @ [ w  .%.2.2.2.2.2.2.2.2.2.2.2.2.2.2.2.2.q r ; 3 t t t t t t - 4X4X4X4X4X4X",
"4X4X4X4X4X4X4X4X4X4X4X4X4X4X4X4X4X4X4X< 6.> 9 t.c.i.=  . .2.2.%.$.2.2.2.2.2.2.2.2.2.2.2.' 2.2.w - D f % % % % - . = 4X4X4X4X4X4X",
"4X4X4X4X4X4X4X4X4X4X4X4X4Xk 4X4X4X4X4XD OXOXOXOXOX'.- [  .e ` a #.2.2.2.2.2.#.2.2.2.2.2.w +.&.C Z.J x v.r.6., c p.; 4X4X4X4X4X4X",
"4X4X4X4X4X4X4X4X4Xk P Q P.E.U.W P k . x.OXOXOXOXOX].g 0 3 n.m.4 #.2.%.$.2.2...2.2.2.2.2.e 4 <.x M.S.Z.r.g % = B % % 4X4X4X4X4X4X",
"4X4X4X4Xk l Y a.Q.=X#X#X=X,X>X*X$X#XU.s.R d._.OXOXN.A 3 g.h.g.q +.2.#.@.2.2. .&.%.#.2.$.7 1.<.C 7.S. XOXOX+X.X'.M.c 4X4X4X4X4X4X",
"4X4X4Xs E.-X#X@X).#X:X>X&X%X,X2X3X1X>X%X$X(.P.Q Q 5.R 7 4.O.y 1 [ 2.$.+.2.2. .%.%.+.2.#.4 8 a.s b S.oXOXOXOXOX|.S.g . 4X4X4X4X4X",
"4X4X4X4Xk U.@X/.!.R.K.U.!././././.*X,X2X3X1X>X&X$X(.P.Y l x @.e ' #.%.[ &.&. .$.$.+.2.[ q 8 I s A S. XOXOXOXOXoXS.D . 4X4X4X4X4X",
"4X4X4X4X4Xz ~ #X/.@X^.R.K._ ( K.R.~././.(.&X,X2X3X1X>X&X*X(.a.Y h i +. .@.2.[ @.$...@.w ` S E   h S.oXOXOXOXOXoXS.8.: 4X4X4X4X4X",
"4X4X4X4X4X4X4XM ~.@X%X#X/././.!.Y.H.H.J.I.W./././.*X,X2X3X1X:X&X%X~.a.S c p ] .... . .1 *.P I   f OXOXOXOXOXOXoXS.7.. 4X4X4X4X4X",
"4X4X4X4X4X4X4X4Xk P.#X%X=X%X@X@X/./././.R.I.J.J.J.R.!././.=X,X2X3X1X,X&X%X~.a.Y v i e w r ^ z s @ OXOXOXOXOXOXoXS.7.4X4X4X4X4X4X",
"4X4X4X4X4X4X4X4X4X4XE @X#X%X=X;X:X;X%X%X@X/././.^.R.K._ ( L.R.^.(.&X,X2X3X1X>X=X%XQ.^ x t L.5 b S +XOXOXOXOXOX|.S.G 4X4X4X4X4X4X",
"4X4X4X4X4X4X4X4X4X4X4Xl / Q.(.%X#X$X$X%XQ.@XP./.%X#X@X(./.!.Y.H.H.( I.W./.*X,X2X3Xa./ a.4 a.g g V.OXOXOXOXOXOX|.S.c 4X4X4X4X4X4X",
"4X4X4X4X4X4X4X4X4X4X4X4X4X4Xk d Y E a.l w.> w.c a.R.%X:X;X%X%X$X)./.R.I.J.J.H.R.T a.I.s.t 5 G y.[.OXOXOXOXOXOX}.S.g 4X4X4X4X4X4X",
"4X4X4X4X4X4X4X4X4X4X4X4X4X4X4X4X4XA M.5.c.B x.i.B w.s %X$X$X%X;X;X:X=X%X#X@X!.U.I ! U U u 5 p.i.[.OXOXOXOXOXOX[.M.h 4X4X4X4X4X4X",
"4X4X4X4X4X4X4X4X4X4X4X4X4X4X4X4X4X> y.i.].r.oXS.r.k.: k M ~ P.Q.%X%X$X%X%X;X:X:XE ! ! l 7 f -.v [.OXOXOXOXOXOXS.u.o . 4X4X4X4X4X",
"4X4X4X4X4X4X4X4X4X4X4X4X4X4X4X4X4X4XA b.b.B.S.M.F.D.: o o o   o z M M ~ P.^.%X%X@XW I 8 4 5 D p.+XOXOXOXOXOX+XS.D U . + 4X4X4X4X",
"4X4X4X4X4X4X4X4X4X4X4X4X4X4X4X4X4X4X4X. B A 7.-.-.-   o O o     o O o     s z M M ^ V 4 R 6 G S.}.[. XOXoXOX[.D.h O $ $ 4X4X4X4X",
"4X4X4X4X4X4X4X4X4X4X4X4X4X4X4X4X4X4X4X4X4X4X4X4XB f . . < X . . : X . . X X . . . = t 8 ! 4 s F i.k.S.S.S.F.S.7.I O | $ 4X4X4X4X",
"4X4X4X4X4X4X4X4X4X4X4X4X4X4X4X4X4X4X4X4X4X4X4X4X,.C.C., n n n m j , j.j.j.C.C.l.j.9 m W M m n X 8.>.G 5.g c A f L o + + 4X4X4X4X",
"4X4X4X4X4X4X4X4X4X4X4X4X4X4X4X4X4X4X4X4X4X4X4X4X:.j.q.V 0.>.J F j H C.C.C.C.G.j.j.V m ) d 9.j., H ,.j.5 4X4X4X4X. . 4X4X4X4X4X4X",
"4X4X4X4X4X4X4X4X4X4X4X4X4X4X4X4X4X4X4X4X4X4X4X4X. . > = q.0.0.9.9 = : = : : = = , . N ^ V q.H = 4X4X4X4X4X4X4X4X4X4X4X4X4X4X4X4X",
"4X4X4X4X4X4X4X4X4X4X4X4X4X4X4X4X4X4X4X4X4X4X4X4X4X4X4X, 9 Z J Z < 4X4X4X4X4X4X4X4X4Xs s V m j < 4X4X4X4X4X4X4X4X4X4X4X4X4X4X4X4X",
"4X4X4X4X4X4X4X4X4X4X4X4X4X4X4X4X4X4X4X4X4X4X4X4X4X4X, , 9 H 9.Z , 4X4X4X4X4X4X4X4X4XP _ m H m f 4X4X4X4X4X4X4X4X4X4X4X4X4X4X4X4X",
"4X4X4X4X4X4X4X4X4X4X4X4X4X4X4X4X4X4X4X4X4X4X4X4X4X, >.0.0.>.>.F j 4X4X4X4X4X4X4X4X4Xd d q.0.0.0.D , 4X4X4X4X4X4X4X4X4X4X4X4X4X4X",
"4X4X4X4X4X4X4X4X4X4X4X4X4X4X4X4X4X4X4X4X4X4X4XXXP.f Z F J F F n m XXXXXXXXXXXXXXXXXXh Z J J J J Z , XXXX4X4X4X4X4X4X4X4X4X4X4X4X",
"4X4X4X4X4X4X4X4X4X4X4X4X4X4X4X4X4X4X4X4XXXXXXXXXXXz.R f f j d S z.XXXXXXXXXXXXXXXXXXT.S h j f m f N XXXXXXXXXX4X4X4X4X4X4X4X4X4X",
"4X4X4X4X4X4X4X4X4X4X4X4X4X4X4X4X4X4X4X4X4X4XXXXXXXXXXXXXXXXXXXXXXXXXXXXXXXXXXXXXXXXXXXXXXXXXXXXXXXXXXXXXXX4X4X4X4X4X4X4X4X4X4X4X",
"4X4X4X4X4X4X4X4X4X4X4X4X4X4X4X4X4X4X4X4X4X4X4X4X4X4X4X4X4X4X4X4X4XXXXXXXXXXXXXXXXXXXXX4X4X4X4X4X4X4X4X4X4X4X4X4X4X4X4X4X4X4X4X4X",
"4X4X4X4X4X4X4X4X4X4X4X4X4X4X4X4X4X4X4X4X4X4X4X4X4X4X4X4X4X4X4X4X4X4X4X4X4X4X4X4X4X4X4X4X4X4X4X4X4X4X4X4X4X4X4X4X4X4X4X4X4X4X4X4X",
"4X4X4X4X4X4X4X4X4X4X4X4X4X4X4X4X4X4X4X4X4X4X4X4X4X4X4X4X4X4X4X4X4X4X4X4X4X4X4X4X4X4X4X4X4X4X4X4X4X4X4X4X4X4X4X4X4X4X4X4X4X4X4X4X",
"4X4X4X4X4X4X4X4X4X4X4X4X4X4X4X4X4X4X4X4X4X4X4X4X4X4X4X4X4X4X4X4X4X4X4X4X4X4X4X4X4X4X4X4X4X4X4X4X4X4X4X4X4X4X4X4X4X4X4X4X4X4X4X4X",
"4X4X4X4X4X4X4X4X4X4X4X4X4X4X4X4X4X4X4X4X4X4X4X4X4X4X4X4X4X4X4X4X4X4X4X4X4X4X4X4X4X4X4X4X4X4X4X4X4X4X4X4X4X4X4X4X4X4X4X4X4X4X4X4X"
};
