/* XPM */
static char *result[] = {
/* columns rows colors chars-per-pixel */
"64 64 208 2 ",
"   c #2A1B1D",
".  c #381D18",
"X  c #3B221B",
"o  c #2F1E20",
"O  c #342224",
"+  c #3D282A",
"@  c #3C2626",
"#  c #3A363A",
"$  c #421E12",
"%  c #4A1A14",
"&  c #55170F",
"*  c #46240F",
"=  c #54250F",
"-  c #5C270F",
";  c #452113",
":  c #4B2412",
">  c #4C2C1B",
",  c #45261B",
"<  c #522512",
"1  c #542B13",
"2  c #5C2D13",
"3  c #532C1C",
"4  c #5C2913",
"5  c #5F3014",
"6  c #58321E",
"7  c #4D341F",
"8  c #642B0F",
"9  c #6B2E0E",
"0  c #6D330E",
"q  c #65340F",
"w  c #74320E",
"e  c #7B350D",
"r  c #632C11",
"t  c #6A2E10",
"y  c #633214",
"u  c #693414",
"i  c #64341A",
"p  c #723211",
"a  c #7B3815",
"s  c #462B24",
"d  c #4D312A",
"f  c #483228",
"g  c #533422",
"h  c #5D3523",
"j  c #533D23",
"k  c #5A3923",
"l  c #51342B",
"z  c #5B3B2B",
"x  c #583F38",
"c  c #4F3833",
"v  c #613A25",
"b  c #643D2B",
"n  c #643824",
"m  c #723F23",
"M  c #7E410E",
"N  c #5C4329",
"B  c #5C433D",
"V  c #594137",
"C  c #66432C",
"Z  c #69432D",
"A  c #654D2D",
"S  c #774528",
"D  c #694635",
"F  c #734B35",
"G  c #764D37",
"H  c #675531",
"J  c #7D513A",
"K  c #735735",
"L  c #786339",
"P  c #746037",
"I  c #3F4046",
"U  c #5C4744",
"Y  c #515157",
"T  c #634C47",
"R  c #68534E",
"E  c #6C5854",
"W  c #6D5C58",
"Q  c #745C51",
"!  c #79645A",
"~  c #5E5C61",
"^  c #7B6B68",
"/  c #756764",
"(  c #75767B",
")  c #6D6B70",
"_  c #80370D",
"`  c #84390D",
"'  c #8C3C0C",
"]  c #923F0B",
"[  c #853B11",
"{  c #913E10",
"}  c #B41A0E",
"|  c #97410A",
" . c #9C430B",
".. c #894212",
"X. c #994613",
"o. c #925515",
"O. c #A3460C",
"+. c #AB490D",
"@. c #A7480C",
"#. c #B24D0D",
"$. c #B84F0E",
"%. c #BC510E",
"&. c #A14510",
"*. c #A9541E",
"=. c #B16C09",
"-. c #884824",
";. c #83543B",
":. c #8B5B3D",
">. c #855A38",
",. c #8E592D",
"<. c #A04F21",
"1. c #85683D",
"2. c #96653C",
"3. c #AF6535",
"4. c #C3540F",
"5. c #C05614",
"6. c #CC6625",
"7. c #C16F13",
"8. c #895C42",
"9. c #8B6348",
"0. c #966648",
"q. c #897041",
"w. c #977C48",
"e. c #987544",
"r. c #866B5A",
"t. c #9B785A",
"y. c #9D6F53",
"u. c #A16C4C",
"i. c #AB7553",
"p. c #B67D58",
"a. c #B67D58",
"s. c #856E63",
"d. c #867B7A",
"f. c #8E796D",
"g. c #C97B47",
"h. c #DE890E",
"j. c #E3A11F",
"k. c #F6AA14",
"l. c #AE8450",
"z. c #AB8A69",
"x. c #BB8762",
"c. c #B6926E",
"v. c #BE9C76",
"b. c #96826F",
"n. c #C1865F",
"m. c #C68C64",
"M. c #C39269",
"N. c #CB966C",
"B. c #D7996D",
"V. c #C79972",
"C. c #D8AF62",
"Z. c #D3A67C",
"A. c #EDAA79",
"S. c #E5A575",
"D. c #EFB17F",
"F. c #CEA65D",
"G. c #FCCA61",
"H. c #7A7F85",
"J. c #80858B",
"K. c #8A8587",
"L. c #918888",
"P. c #9C8A86",
"I. c #888C91",
"U. c #8C9197",
"Y. c #92979E",
"T. c #9A9696",
"R. c #A89889",
"E. c #B2A396",
"W. c #989DA4",
"Q. c #9DA3AA",
"!. c #A8A8AB",
"~. c #A3AAB0",
"^. c #ABB1B6",
"/. c #AFB6BC",
"(. c #B1B6BB",
"). c #BBAEA0",
"_. c #CDAB83",
"`. c #DAB98E",
"'. c #D6AC82",
"]. c #E7B889",
"[. c #F1B684",
"{. c #F4BD8B",
"}. c #C4B8AB",
"|. c #F4C18F",
" X c #E7C699",
".X c #EAC596",
"XX c #F7C997",
"oX c #F9D29F",
"OX c #CDC3B5",
"+X c #FFDFAC",
"@X c #F9D5A3",
"#X c #EBCEB0",
"$X c #FFE3B6",
"%X c #B5BCC1",
"&X c #B9BFC3",
"*X c #B9C1C7",
"=X c #BCC4CA",
"-X c #C1C9CE",
";X c #C3CCD1",
":X c #C8CDD1",
">X c #C5D0D5",
",X c #CCD1D5",
"<X c #D4D8DB",
"1X c #DCDFE2",
"2X c #E6E8EA",
"3X c #E6E9EA",
"4X c #F0F1F3",
"5X c None",
/* pixels */
"5X5X5X5X5X5X5X5X5X5X5X5X5X5X5X5X5X5X5X5X5X5X5X5X5X5X5X5X5X5X5X5X5X5X5X5X5X5X5X5X5X5X5X5X5X5X5X5X5X5X5X5X5X5X5X5X5X5X5X5X5X5X5X5X",
"5X5X5X5X5X5X5X5X5X5X5X5X5X5X5X5X5X5X5X5X5X5X5X5X5X5X5X5X5X5X5X5X5X5X5X5X5X5X5X5X5X5X5X5X5X5X5X5X5X5X5X5X5X5X5X5X5X5X5X5X5X5X5X5X",
"5X5X5X5X5X5X5X5X5X5X5X5X5X5X5X5X5X5X5X5X5X5X5X5X5X5X5X5X5X5X5X5X5X5X5X5X5X5X5X5X5X5X5X5X5X5X5X5X5X5X5X5X5X5X5X5X5X5X5X5X5X5X5X5X",
"5X5X5X5X5X5X5X5X5X5X5X5X5X5X5X5X5X5X5X5X5X5X5X5X5X5X5X5X5X5X5X5X5X5X5X5X5X5X5X5X5X5X5X5X5X5X5X5X5X5X5X5X5X5X5X5X5X5X5X5X5X5X5X5X",
"5X5X5X5X5X5X5X5X5X5X5X5X5X5X5X5X5X5X5X5X5X5X5X5X5X5X5X5X5X5X5X5X5X5X5X5X5X5X5X5X5X5X5X5X5X5X5X5X5X5X5X5X5X5X5X5X5Xs 5X5X5X5X5X5X",
"5X5X5X5X5X5X5X5X5X5X5X5X5X5X5X5X5X5X5X5X5X5X5X5X5X5X5X5X5X5X5X5X5X5X5X5X5X5X5X5X5X5X5X5X5X5X5X5X5X5X5X5X5X5X5X5X! R 5X5X5X5X5X5X",
"5X5X5X5X5X5X5X5X5X5X5X5X5X5X5X5X5X5X5X5X5X5X5X5X5X5X5X5X5X5X5X5X5X5X5X5X5X5X5X5X5X5X5X5X5X5X5X5X5X5X5X5X5X5X5X/ *X^ 5X5X5X5X5X5X",
"5X5X5X5X5X5X5X5X5X5X5X5X5X5X5X5X5X5X5X5X5X5X5X5X5X5X5X5X5X5X5X5X5X5X5X5X5X5X5X5X5X5X5X5X5X5X5X5X5X5X5X5X5X5X/ *X/.^ 5X5X5X5X5X5X",
"5X5X5X5X5X5X5X5X5X5X5X5X5X5X5X5X5X5X5X5X5X5X5X5X5X5X5X5X5X5X5X5X5X5X5X5X5X5X5X5X5X5X5X5X5X5X5X5X5X5X5X5X5X/ =X~./.^ 5X5X5X5X5X5X",
"5X5X5X5X5X5X5X5X5X5X5X5X5X5X5X5X5X5X5X5X5X5X5X5X5X5X5X5X5X5X5X5X5X5X5X5X5X5X5X5X5X5X5X5X5X5X5X5X5X5X5X5XE *X*XW./.^ 5X5X5X5X5X5X",
"5X5X5X5X5X5X5X5X5X5X5X5X5X5X5X5X5X5X5X5X5X5X5X5X5X5X5X5X5X5X5X5X5X5X5X5X5X5X5X5X5X5X5X5X5X5X5X5X5X5X5XE *X,X~.Y./.^ 5X5X5X5X5X5X",
"5X5X5X5X5X5X5X5X5X5X5X5X5X5X5X5X5X5X5X5X5X5X5X5X5X5X5X5X5X5X5X5X5X5X5X5X5X5X5X5X5X5X5X5X5X5X5X5X5X5XB =X1X*XH.^.*X^ 5X5X5X5X5X5X",
"5X5X5X5X5X5X5X5X5X5X5X5X5X5X5X5X5X5X5X5X5X5X5X5X5X5X5X5X5X5X5X5X5X5X5X5X5X5X5X5X5X5X5X5X5X5X5X5X5X5XW ,X<X/.J./.=X^ 5X5X5X5X5X5X",
"5X5X5X5X5X5X5X5X5X5X5X5X5X5X5X5X5X5X5X5X5X5X5X5X5X5X5X5X5X5X5X5X5X5X5X5X5X5X5X5X5X5X5X5X5X5X5X5X5X5X!.3X/.W.W.%X=X^ 5X5X5X5X5X5X",
"5X5X5X5X5X5X5X5X5X5X5X5X5X5X5X5X5X5X5X5X5X5X5X5X- p [ r 5Xr r t 5X5X5X5X5X5X5X5X5X5X5X5X5X5X5X5X5XU -X3X/.H./.=X=XW 5X5X5X5X5X5X",
"5X5X5X5X5X5X5X5X5X5X5X5X5X5X5X5X5X5X5X5X5X5X5Xt 4.4.4.{ { 4.4.4.@.5X5X5X5X5X5X5X5X5X5X5X5X5X5X5X5X! ,X,X^.J./.>X*XT 5X5X5X5X5X5X",
"5X5X5X5X5X5X5X5X5X5X5X5X5X5X5X5X5X5X5X5X5X4 w 4.4.4.4.4.4.4.4.4.$.t 5X5X5X5X5X5X5X5X5X5X5X5X5X5X5X!.2X%XI.~.*X=XL.5X5X5X5X5X5X5X",
"5X5X5X5X5X5X5X5X5X5X5X5X5X5X5X5X5X5X5X5Xt +.+.4.4.4.4.6.<.*.%.&.[ { 5X5X5X5X5X5X5X5X5X5X5X5X5X5XT -X2X/.H./.>X*XR 5X5X5X5X5X5X5X",
"5X5X5X5X5X5X5X5X5X5X5X5X5X5X5X5X5X5X5X5X+.O.O.+.5.3.m -.n [ g.g...e 5X5X5X5X5X5X5X5X5X5X5X5X5X5Xd.<X,XQ.U.%X;X!.5X5X5X5X5X5X5X5X",
"5X5X5X5X5X5X5X5X5X5X5X5X5X5X5X5X5X5X5X< $. .` 8 r :.M.D.{.u.-.S i r 5X5X5X5X5X5X5X5X5X5X5X5X5X5X(.4X(.H./.;X*XE 5X5X5X5X5X5X5X5X",
"5X5X5X5X5X5X5X5X5X5X5X5X5X5X5X5X5X5X5X&.O. .| ` M.c.M.V.`.+X@X@X8.5X5X5X5X5X5X5X5X5X5X5X5X5X5XR -X2X/.H./.>X%XB 5X5X5X5X5X5X5X5X",
"5X5X5X5X5X5X5X5X5X5X5X5X5X5X5X5X5X5Xr 4. .9 ' 0 ].-.4.O.X.;.+X+X8.5X5X5X5X5X5X5X5X5X5X5X5X5X5Xd.,X-XU.Q.=X=X^ 5X5X5X5X5X5X5X5X5X",
"5X5X5X5X5X5X5X5X5X5X5X5X5X5X5X5X5X5X9 $.,. XS t _.] _ #.$.-.+Xx.a 5X5X5X5X5X5X5X5X5X5X5X5X5Xl (.4X^.H./.>X=XR 5X5X5X5X5X5X5X5X5X",
"5X5X5X5X5X5X5X5X5X5X5X5X5X5X5X5X5X5Xr X.0.m. XF '.p r p _ 8.@X[ u 5X5X5X5X5X5X5X5X5X5X5X5X5XV -X2X!.I.%X=XL.5X5X5X5X5X5X5X5X5X5X",
"5X5X5X5X5X5X5X5X5X5X5X5X5X5X5X5X5X5Xp ] i.p.;.[.A.S.F P.G {._.< 8 5X5X5X5X5X5X5X5X5X5X5X5X5Xd.1X:XJ.^.;X*XT 5X5X5X5X5X5X5X5X5X5X",
"5X5X5X5X5X5X5X5X5X5X5X5X5X5X5X5X5X- e | :.a.n.a.B.A.z.9._.+X.Xb 5X5X5X5X5X5X5X5X5X5X5X5X5Xl (.4X/.H./.>X!.5X5X5X5X5X5X5X5X5X5X5X",
"5X5X5X5X5X5X5X5X5X5X5X5X5X5X5X5X= ' p  .S G S B.A.@X$X+X+X+X+Xy.5X5X5X5X5X5X5X5X5X5X5X5X5XT -X<XW.W.-X*XE 5X5X5X5X5X5X5X5X5X5X5X",
"5X5X5X5X5X5X5X5X5X5X5X5X5X5X; * <  ._ ' ] r S.A.[.@XXXx.+X+X$X#X9.5X5X5X5X5X5X5X5X5X5X5X5Xd.1X-XJ./.>X%XB 5X5X5X5X5X5X5X5X5X5X5X",
"5X5X5X5X5X5X5X5X5X5X5X5X5X$ : 5 8  .%.4.`  .6.S.B.B.N.x.+XoX+X+X:.5X5X5X5X5X5X5X5X5X5X5Xx /.3X^.J.*X=Xb.5X5X5X5X5X5X5X5X5X5X5X5X",
"5X5X5X5X5X5X5X5X5X5X5X5X: 1 1 y 9 O.4.4.] 4.4.+.a 6...u.A.a.].{.n : 5X5X5X5X5X5X5X5X5X5XW :X1XI.~.;X=XU 5X5X5X5X5X5X5X5X5X5X5X5X",
"5X5X5X5X5X5X5X5X5X5X5X. 1 2 5 1 9 +.4.4.#.4.%.r 4.4.#.' 3.3.m i ' 4 $ 5X5X5X5X5X5X5X5X5XL.2X=XH.%X;XY.5X5X5X5X5X5X5X5X5X5X5X5X5X",
"5X5X5X5X5X5X5X5X5X5X5X: 2 1 1 y 9 #.4.#.4.4.` ] #.$.$.4.] ,.#X*.4.9 : $ 5X5X5X5X5X5X5Xx %X4X~.U.;X*XT 5X5X5X5X5X5X5X5X5X5X5X5X5X",
"5X5X5X5X5X5X5X5X5X5X; u * 2 1 1 9 $.+.%.4.%.= +.O.+.+.+. .;.A.2.#.e : : 5X5X5X5X5X5X5XW ,X<XJ.^.>X/.5X5X5X5X5X5X5X5X5X5X5X5X5X5X",
"5X5X5X5X5X5X5X5X5X. 1 1 5 5 1 5 9 O.| 4.4.O.= | |  .#. ...F J X.+.' 1 < $ 5X5X5X5X5X5XL.2X*XH.=X=XW 5X5X5X5X5X5X5X5X5X5X5X5X5X5X",
"5X5X5X5X5X5X5X5X5X; 5 5 1 1 1 5 8 | ' #.%.| = |  . .| w r | | e 9 e : * $ 5X5X5X5X5Xl &X4XY.W.>X(.T 5X5X5X5X5X5X5X5X5X5X5X5X5X5X",
"5X5X5X5X5X5X5X5X5X; 5 5 q 5 * 5 = ' e O.+.| 0 '  .e - t  .#.#.#.] : 3 3 5X5X5X5X5X5XR ,X,XH.&X-XL.5X5X5X5X5X5X5X5X5X5X5X5X5X5X5X",
"5X5X5X5X5X5X5X5X5X; 5 1 y * 5 1 1 - 0 | ' | e < = w ' +.4.4.4.4.4.#.n _.; 5X5X5X5X5XL.3X/.I.-X*XV 5X5X5X5X5X5X5X5X5X5X5X5X5X5X5X",
"5X5X5X5X5X5X5X5X5X; * * * 1 1 5 * * = e - | | w e ` %.4.4.4.4.4.4.4.S @Xd d 5X5X5Xx /./ B K.;X!.5X5X5X5X5X5X5X5X5X5X5X5X5X5X5X5X",
"5X5X5X5X5X5X5X5X5X5Xk :.k ; ; ; * * - = w - M =.j.e 4.4.4.4.4.4.4.4.u c.) c x 5X5XZ d.I.( U =XE 5X5X5X5X5X5X5X5X5X5X5X5X5X5X5X5X",
"5X5X5X5X5X5X5X5X5X5X0.[.+X+X X_.z.9.F   w q k.G.k.=.%.4.4.4.4.4.4.4.o.,.l , ) ^ z y x ( Y U /.l 5X5X5X5X5X5X5X5X5X5X5X5X5X5X5X5X",
"5X5X5X5X5X5X5X5X5X5X9.{.+X+X+X+X+XoX9.  t u h.h.7.M #.4.4.$.#.4.4.4.o.o.t.5X5Xd ^ Q y B ~ W ^ 5X5X5X5X5X5X5X5X5X5X5X5X5X5X5X5X5X",
"5X5X5X5X5X5X5X5X5X5X0.|.+X+X+X+XoX{.;.  : _ 0 u ..{ ..+.4.$.@.4.%.$.0 :.D 5X5X5Xy y 5 5 2 5 5 5X5X5X5X5X5X5X5X5X5X5X5X5X5X5X5X5X",
"5X5X5X5X5X5X5X5X5X5X0.XX+X+X+X'.h 3 3 > X 8 - | 4.4.` O.$.$.O.4.+.' ` p..Xc.C z y.1 k 2 n D h 5X5X5X5X5X5X5X5X5X5X5X5X5X5X5X5X5X",
"5X5X5X5X5X5X5X5X5X5X0.{.+X+X`.Z 1 < 1 2 1 9.i.C X.4.e O.+.$.| 4. .0 ' B.+X$X].8.D s U > u l H./ x 5X5X5X5X5X5X5X5X5X5X5X5X5X5X5X",
"5X5X5X5X5X5X5X5X5X5X0.[.+X+XD 4 $ y 4 4 n A.0.8.;.' ' +. .%.| %.` 9 ' {.+X+XZ.b D @X`.f.C 5X, f U W d 5X5X5X5X5X5X5X5X5X5X5X5X5X",
"5X5X5X5X5X5X5X5X5X5X0.{.$X`.1 < 2 : 2 6 x.{.S.n.S.b ` +.| +.| +.r S r V.+X+XXXD r.+X+X+XoXF 5X5X, x s 5X5X5X5X5X5X5X5X5X5X5X5X5X",
"5X5X5X5X5X5X5X5X5X5X;.A.XXF < < y : i h +X+X+X+XD.- | | | | | ' u.n.a.[.+X+X X9.'.l. X+X|.D 5X5X5X5X5X5X5X5X5X5X5X5X5X5X5X5X5X5X",
"5X5X5X5X5X5X5X5X5X5XF 0.A.3 : i : y : M.+X+X+XXXx.: 8 | | | | w A.n.n.D.+X XG c.+X+X+X+Xp.5X5X5X5X5X5X5X5X5X5X5X5X5X5X5X5X5X5X5X",
"5X5X5X5X5X5X5X5X5X5X5Xe.9.3 : u % u , oX+X+X+X{.;.o   $ 2 ` | 9 y.A.n.A.@Xt.Q z.t.+X+X+XJ 5X5X5X5X5X5X5X5X5X5X5X5X5X5X5X5X5X5X5X",
"5X5X5X5X5X5X5X5X5X5X5XC.b 2 < 2 1 2 n @X+X+X+X{.y.+ @ O   X < X d m.n.A.N.].Z +X+X+X+XS.b 5X5X5X5X5X5X5X5X5X5X5X5X5X5X5X5X5X5X5X",
"5X5X5X5X5X5X5X5X5X5X5XC.C   z : 5 i J oX+X+XXXN.b + + + + O     + O J A.S.p.z F @X$X@XJ 5X5X5X5X5X5X5X5X5X5X5X5X5X5X5X5X5X5X5X5X",
"5X5X5X5X5X5X5X5X5X5X>.C.C     O h 4 ;.A.A.[.[.0.@ + o + + + O O +   . Z i.s + U D v.x.b 5X5X5X5X5X5X5X5X5X5X5X5X5X5X5X5X5X5X5X5X",
"5X5X5X5X5X5X5X5X5X5X1.C.C         X g 8.x.n.:.V + +   o + +     O   . 5X$ + I Y s J D 5X5X5X5X5X5X5X5X5X5X5X5X5X5X5X5X5X5X5X5X5X",
"5X5X5X5X5X5X5X5X5X5X2.C.l.K z , f j j N l V > . f l > X X s X X @ . . 5X5X& % + # . 5X5X5X5X5X5X5X5X5X5X5X5X5X5X5X5X5X5X5X5X5X5X",
"5X5X5X5X5X5X5X5X5X5X2.C.C.C.C.l.N H 1.1.L A F.C.C.C.C.6 H P P L K 7 5X5X5X- } & . 5X5X5X5X5X5X5X5X5X5X5X5X5X5X5X5X5X5X5X5X5X5X5X",
"5X5X5X5X5X5X5X5X5X5Xk H 2.2.S A > N P 1.K > 6 1.2.J K 3 j A 1.1.k 5X5X5X5X5X& 5X5X5X5X5X5X5X5X5X5X5X5X5X5X5X5X5X5X5X5X5X5X5X5X5X",
"5X5X5X5X5X5X5X5X5X5X5X5X5X5X5X5X7 H L P j 5X5X5X5X5X5X7 N L L H 5X5X5X5X5X5X5X5X5X5X5X5X5X5X5X5X5X5X5X5X5X5X5X5X5X5X5X5X5X5X5X5X",
"5X5X5X5X5X5X5X5X5X5X5X5X5X5X5X5X7 P l.P 6 > 7 5X5X5X5X7 N w.q.N : , 5X5X5X5X5X5X5X5X5X5X5X5X5X5X5X5X5X5X5X5X5X5X5X5X5X5X5X5X5X5X",
"5X5X5X5X5X5X5X5X5X5X5X5X5X5X5X5Xj P w.q.l.l.P N OXOXOXN H l.q.w.w.q.g 5X5X5X5X5X5X5X5X5X5X5X5X5X5X5X5X5X5X5X5X5X5X5X5X5X5X5X5X5X",
"5X5X5X5X5X5X5X5X5X5X5X5XOXOXOXR.@ N N N j N N 7 E.OXOX@ N 7 N N N N j ).OXOXOXOX5X5X5X5X5X5X5X5X5X5X5X5X5X5X5X5X5X5X5X5X5X5X5X5X",
"5X5X5X5X5X5X5X5X5X5X5XOXOXOXOXOXR.r.s.s.s.s.s.R.OXOXOXE.b.! r.s.s.f.R.OXOXOXOXOXOX5X5X5X5X5X5X5X5X5X5X5X5X5X5X5X5X5X5X5X5X5X5X5X",
"5X5X5X5X5X5X5X5X5X5X5X5X5X5X5XOXOXOXOXOXOXOXOXOXOXOXOXOXOXOXOXOXOXOXOXOXOX5X5X5X5X5X5X5X5X5X5X5X5X5X5X5X5X5X5X5X5X5X5X5X5X5X5X5X",
"5X5X5X5X5X5X5X5X5X5X5X5X5X5X5X5X5X5X5X5X5X5X5X5X5X5X5X5X5X5X5X5X5X5X5X5X5X5X5X5X5X5X5X5X5X5X5X5X5X5X5X5X5X5X5X5X5X5X5X5X5X5X5X5X",
"5X5X5X5X5X5X5X5X5X5X5X5X5X5X5X5X5X5X5X5X5X5X5X5X5X5X5X5X5X5X5X5X5X5X5X5X5X5X5X5X5X5X5X5X5X5X5X5X5X5X5X5X5X5X5X5X5X5X5X5X5X5X5X5X"
};
