/* XPM */
static char *result[] = {
/* columns rows colors chars-per-pixel */
"64 64 132 2 ",
"   c #272A37",
".  c #272938",
"X  c #292B39",
"o  c #2D313E",
"O  c #2E3341",
"+  c #313543",
"@  c #383746",
"#  c #343946",
"$  c #393847",
"%  c #363C4A",
"&  c #393E4B",
"*  c #3A3D51",
"=  c #413D4E",
"-  c #3C414E",
";  c #3D4453",
":  c #3F4858",
">  c #40414F",
",  c #414554",
"<  c #484557",
"1  c #424956",
"2  c #494F56",
"3  c #414659",
"4  c #454D5B",
"5  c #4A4D5C",
"6  c #504D5D",
"7  c #47505D",
"8  c #4A525E",
"9  c #50565E",
"0  c #4A4F61",
"q  c #524F60",
"w  c #475060",
"e  c #4C5462",
"r  c #4F5864",
"t  c #4D566A",
"y  c #4E586B",
"u  c #525563",
"i  c #595666",
"p  c #515A66",
"a  c #595C66",
"s  c #525769",
"d  c #545D6A",
"f  c #5A5D6B",
"g  c #565F73",
"h  c #595E70",
"j  c #57616D",
"k  c #5A626E",
"l  c #556074",
"z  c #5B6572",
"x  c #5E6875",
"c  c #5A657B",
"v  c #5F697B",
"b  c #60676F",
"n  c #626573",
"m  c #626A76",
"M  c #686F76",
"N  c #62667A",
"B  c #686778",
"V  c #646D7B",
"C  c #6A6D7A",
"Z  c #697077",
"A  c #67707E",
"S  c #6B727D",
"D  c #70777F",
"F  c #646C81",
"G  c #6A6E83",
"H  c #667182",
"J  c #6B7483",
"K  c #6E7886",
"L  c #6B768B",
"P  c #6E7A8A",
"I  c #717582",
"U  c #737A84",
"Y  c #787F87",
"T  c #73768B",
"R  c #737C8B",
"E  c #797D8B",
"W  c #6D7A92",
"Q  c #747D93",
"!  c #7D7E92",
"~  c #727F98",
"^  c #76808E",
"/  c #7B828D",
"(  c #768191",
")  c #7B8493",
"_  c #7E8897",
"`  c #75829B",
"'  c #7C849A",
"]  c #7E8999",
"[  c #7987A1",
"{  c #7B8AA4",
"}  c #7F8EA8",
"|  c #818494",
" . c #838A95",
".. c #84869A",
"X. c #838C9C",
"o. c #898D9C",
"O. c #86909E",
"+. c #8B929D",
"@. c #868DA2",
"#. c #8B8FA4",
"$. c #8791A1",
"%. c #8B94A4",
"&. c #8F98A7",
"*. c #8190AB",
"=. c #8D95A9",
"-. c #8E99A9",
";. c #9095A3",
":. c #939AA5",
">. c #939BAB",
",. c #999FAB",
"<. c #979FB0",
"1. c #989FB1",
"2. c #94A0AF",
"3. c #9BA2AD",
"4. c #96A1B1",
"5. c #9BA4B3",
"6. c #9DA8B7",
"7. c #9EA5B8",
"8. c #9EA9B9",
"9. c #A1A6B3",
"0. c #A3AAB6",
"q. c #A3ACBB",
"w. c #A8AEBC",
"e. c #A5B0BF",
"r. c #ABB2BE",
"t. c #A7B2C1",
"y. c #ADB4C2",
"u. c #B0B7C3",
"i. c #B3B9C5",
"p. c #B6BCC9",
"a. c #BBC2CD",
"s. c None",
/* pixels */
"s.5.e.e.8.4.2.-.{ ^ J v z y l c v v L O.0.0.w.0.0.3.3.+. ._ ] { { { { { { ` ` ` ~ ~ ~ W L L R ) ^ K A m j r 8 1 d y y l 4.e.e.6.",
"5.t.t.q.6.4.-.$.] ^ J x z j y c v H >.5.0.0.w.0.0.0.0.3.3.:.O.] { { { { { { { ` ~ ! ~ W W W ^ R K J V x j e 7 ; y y H 8.t.t.8.5.",
"e.e.8.8.4.2.-.$.) ^ H v l j w c V +.3.3.5.6.3.0.0.3.3.3.:.:.+.+./ } } } ' |  .+.o.! T L W L T T J Z x k j 7 7 ; l H 5.t.t.8.6.4.",
"8.8.8.4.2.-.$.] ( ^ H z j j : c D :.:.:.3.3.3.3.3.3.3.:.:.:.+.+._ _ } ^ ..o.O.%.o...! B W F J G V x z j 9 7 : : H -.8.8.8.4.4.2.",
"4.4.2.2.-.} ] ( ^ ^ v z j r : y / :.:.:.:.3.3.3.:.:.:.:.:.+.+. .| G B E | ........| E B z V V x x z j e 8 1 - t ] -.4.4.4.2.-.-.",
"<.-.-.%.$.] ( ^ J A v z j w ; O / +.+.:.+.;.;.:.:.:.:. .+.+.+. .U i i I ! ) | | ! E I n & z x z j d r 8 1 - o J } -.2.2.-.-.-.{ ",
"$.$.$._ _ ( ^ ^ H x z j y 7 - # D /  .+. .+.+.;.:.+.+. . . ./ Z D & i B B G I I I B B f , d p d r e 7 2 ; o e ^ ] O.$.$.$.] _ _ ",
"] ] ) ^ ( P H H v c j j w : X # M Y / |  . . .+.+. .+._ / Y Y D b X < i B n B B B n a i % e 7 7 7 7 4 % O o A ( _ _ _ ] ] ( ^ ^ ",
"( ^ ^ ^ P K A v x j j w : ;   o f C Y U Y / Y / / Y D Y U D S M & . + 6 i f f f f 6 6 < O ; 4 4 : ; - o   : v ^ ( ( ^ ^ ^ ^ ^ H ",
"^ P P K A v x z j d r w : O     4 f N M D U U Y D U D D D S z 5 . . X $ < 6 6 q i 6 6 @ X % & % - o o     d x ^ V A ^ ^ H ^ H v ",
"z v v v v z z j j r w : #       . e f h m S S M Z D A n b f e # C +.:.i $ < = < < < =     X o o         O j x x V V V x V v v x ",
"z z z z z d r y : : : -   ; V ^ e + 4 f d k z f k k z f d 4 X a ) / ..E 2 X @ = = @ X .                 - j j z z x x z x x z l ",
"j j j j d d e w 4 1 & o x -.2.2.&.R - # 5 d d d d d s 8 $ X   a Z I D D k o X   . o 5 G X.$.:.O.A 8 o     r d j j j j j j j j d ",
"j y d y w 4 4 4 : % # A -.>.:.2.&.X.U ; X + $ & & $ +     X X 1 a b b 9 9 o   O f ..-.5.7.0.7.:.2.} ^ -   - : d d r r j d y r w ",
"e 8 : : 4 4 ; ; o X H X.] =.%.%.$.X.R x O .   X   X $ $ & # X o , 2 9 2 -   2 R %.&.&.>.5.7.7.7.2.-./ D -   : : : w 7 e 7 : : : ",
": : : : ; % O X X z ( X.X.X.O.X.( ) K V < . X   , P $.>.,.>.^ 1 X + # o   2 U X.@.&.%.>.<.5.3.4.2.-.( ^ x     - : : : : : : : r ",
"s.s.s.s.o   X   ; A ^ ( _ _ _ ) ( R V m d   X ; R X.&.>.5.8.3.&.k X X   & V ( ] X.$.%.-.>.>.2.>.-.+.) ^ m ; o # o X o o o o X s.",
"A D s.s.o     X j V A ^ ^ ^ ^ R K H m z d + X z R O.%.-.>.6.>.>. .d     p M Q ( R _ $.%.] X.&.-.) ) ^ S M 8 o k j   - e e 1 + s.",
"-.-.>.O.f o X O p z x V v A A k x z z p r + , k A ) +.-.>.,.$.%.( M , o d c J Q ! _ X.X.O.O.$.] ^ ^ ^ x j r   : 1 Z $.&.-.&.) s.",
"-.-.O.-.:.J X X r d z z z z z j z d p e 8 o ; p m J ^ _ O.$.$.X.T x e O u z x V K L ^ ) ) ) ^ ^ ^ ^ A b j p     x O.$.-.>.X.,.O.",
"&.-.>.3.>.O.z   7 8 7 d j j d d 8 8 8 7 1 X & y k A Z P ^ ^ R R J k 8 X 2 y z x m V J J K K K K A A b b j r   : ) X.$.&.>.>.4.>.",
"$.&.-.>.>.O.^ 1 - 2 2 8 8 8 8 8 8 7 7 7 -   + 8 r j x H J K J S z j - X - 8 d z v m V V Z m A A x z j j p :   j ( ] @.%.&.>.2.&.",
"X.) O.&.%.] ^ M o ; 2 1 : 7 2 2 7 1 1 - O X o ; 8 d j j k z j j d p + X X 1 8 e j z x m x j k j j j d r r - o V Q ) X.X.) %.%.+.",
") X.X.] ^ ) R M - o - - ; : : ; ; ; - + X ; + O ; 8 9 r j j r p p 1     X + 1 4 e e e p 9 j j j d p r 8 : O o z J Q ) _ _ O.^ ) ",
"( ( ) ( A ^ A b r   o - % - - # - o o o , E X.+ + ; 4 7 e r 8 7 1 o     X X % 1 7 7 8 8 r r r r 8 e e : - X o j z T R ( ) ) P R ",
"J K K K ^ D m j p o     O + o o o o o o ; n J ; O O + & ; : ; - O 1 T $.$.K ; + ; 1 7 7 8 8 8 7 7 2 : - O   o 9 z m H J K U K J ",
"m z V V Z x j d 7 - ; A X X X X o       X @ & X   X O O + + O % J @.>.,.,.5.:.e O % - ; ; : 1 : ; - - + + 8   2 8 z m x z V V M ",
"f d z z j d d r : # ^ 0.n X X @ 9 D  .3.,.:.+.T z % X   X X - L X.$.&.-.>.-.>.$.w   O % - # - # - # o   o z o - 4 8 d j j z z j ",
"w r 9 r r 8 2 7 ; - 2 Z - 8 | 9.r.r.y.w.w.9.3.;. ./ 1     $ V P X.o.@.&.$.@.&.$.) & + f 8 X o o : m M Z 9 X   X ; 2 8 8 e r r r ",
"4 7 7 2 7 7 2 : - o   - / 3.0.w.r.e.w.w.0.9.3.;.o./ I o X p m m R ) ) X.@.$.@.| ^ m & ) ,.- 2 +.8.r.p.a.a.0.k   o ; - 1 7 8 8 7 ",
"- ; 1 ; : ; - - O o 7  .,.%.,.9.0.0.0.0.9.7.:.o.o.I U < & p x m V P R ^ ( ^ R R R A , e z 1 +.5.0.r.u.p.a.a.0.Z   o - - 1 ; 1 1 ",
"o # - - - # # o o o / +.,.,.1.9.5.3.9.5.1.:...o. .U I 9 1 e j x M V H J U K A K J m f X X U &.3.5.0.r.u.i.r.0.2.r   o o # % - # ",
"M + O O X O O O X a E  .;.,.,.,.,.:.:.,.;.o.|  .E U I 2 ; 8 r d z v V A A A A A V z k # - Y o.2.3.3.0.r.r.3.6.:.Y   . X o o o o ",
"s.s.G f O O X X . f E | | o.#.;.:.;.o.+.o.o.| / U D S 1 - 7 8 e r p p k z x x z k j j - 4 D /  .+.3.3.9.0.3.:.+.| - 2 < X X o 8 ",
"s.s.s.s.3 + X X   n U | | | |  ..... ... .| Y U U S C + # ; 4 2 e r 8 p p j p j d p p ; - Z Y |  .+.+.+.+.+.+./ Y 2 9 a X % e s.",
"s.L ..*.=.=.~ =   u Z I Y | | | |  .| / Y D I I D B p     - ; 4 7 w e r r r r r p w w * o b b U / / Y  .+. ./ / D 9 X 1 T @.#.=.",
"G ! ..@.@.#.*.! 3 = M B M D I U U U C U D S D C B n # . X X & ; : : 7 w 8 e 8 e e 4 ; % X 8 b Z M D Y ^ / D U D G @ < T ' @.@.#.",
"c Q ~ @.@.@.@.Q G # u M C C C D S D D S C Z B B b <     X X X % ; - ; : 1 ; : 1 ; ; ; X X $ 9 k k M Z Z D Z Z M z + h F ~ ..@.[ ",
"N N T T T L Q T G 0 X f b B B B B B B n k n n n , % C :.5.>.Y - o # - - - - - - - % X X X   - 7 9 j b M M b b a , , h F F L T L ",
"s N F F L G G G N s . + u f k b n b n n f f u $ 1 X.>.1.5.$.$.R - X X X O + O + X   + d J 9 + % 2 2 2 9 9 8 8 2 X , q h B F G G ",
"0 q d g N N F h d s . . X & u s s a s a 2 $ X # J X.$.>.>.%.X.R j X o ^ 2.O.p X   - ) %.>.>.%.m o # - > > , & X X * 0 0 s h N N ",
"= 0 u s s s s s s 3 & ..) e X + o + & - $ X X 1 H U ) ) ) ( R A j # v %.>.X.R , o S ] O.$.&.%.&. .1 X   o + d U u X & , 0 u u s ",
"3 * 3 0 0 0 t < 4 # R _ R u X + n X.7.5.-.V o ; z A V K K J m j e + K ^ ) R V 4 - v ( X.o.$.$.$.%.) 1   X K X.&.X.4 O * * w 0 0 ",
"s.T N 3 3 3 3 3 $ % m m z & 5 ) ,.5.5.5.,.&.m # r d p j z d r e - o j m A k j % & z M R Q X.X.X.X.^ J - # m R R J 4 . X O * w = ",
"s.s.s.s.= * O X X + 4 0 ; 8 ( X.%...>.,.=._ ! & ; e p r y r 4 & o   & w t w *   % e d V J J J K Z J A k + w k z 0 O + & * 0 * E ",
"5.7.q.q.1.=._ d # X X X # C ( X.$.X.&.$.$.X.R p X & ; 4 1 ; + X - 8 f e % o   u 4 ; e d z z V V V v k j 3 X # & h _ <.7.t.1.1.>.",
"7.7.9.1.@.1.<.X.A 8   X 4 m J R ( X.X.) Q R J d X   o X O 4 J &.4.6.5.5.&.2 % ) X.; ; 4 r d j d j d p r ; X , R <.1.7.7.7.7.>.#.",
"7.1.1.1.-.<.>.@.J m ;   4 d z A J J K J J V z p + X X 8 Q $.=.,.4.4.3.>.%.X.& m F k o ; ; ; w e e 8 7 : % & K @.<.<.1.1.1.1.1.>.",
"<.<.-.<.>.-.=.#.K m j X ; e p k x x x x x j p 8 # o p ^ X.@.@.&.>.>.>.=. .O.z ; w 4   . O & ; ; ; ; ; & o j K  .-.>.<.>.-.>.>.-.",
"=.$.@.=.=.%.X.P K z p # O : 8 e 9 j j r r e 8 : o 7 A ^ X.X.X.$.%.$.&.%.$.X.T o O X 2 J ] V 1 o O o + O o x J A ( @.=.-.#.=.=.=.",
"R ( Q ! R K J J F d p - o + - 7 7 8 8 7 8 2 : -   j m x R ) X.X.@.X.X.X.X.R K , X d @.>.<.>.X.j X + ] J + z V V T R U R ( E ! R ",
"J J K J x H A m k d p -   o + % ; : 1 ; ; ; # o o e x A G L R ( _ ) ( R J m V 8 O T @.>.<.<.%.R p - -.J - j j x V V K J K K A c ",
"z V m x z z j j p w e O       O + % % + + O o     1 e z V V H J J K J J J A z 4 , K X.-.4.-._ P z & S m - e d z j p z x m m x k ",
"j d j d j p d r r 1 ; O V $.$.] e X o   o o B ( % % 8 e k z m M V G V M x j d 7 & m R X.+._ ^ S p % 7 4 O ; e p j j j j d j d d ",
"p d p p r r e w 4 & X V 4.4.t.q.6.5.p     x &.5._ + ; 8 e r d j d z z p d p e 4 % d J K ^ P Z z e o X o   + 4 4 9 r r d r d p p ",
"7 w w 7 4 4 ; ; O     H ] $.5.5.4.4.%.d % S R ) ^ 1 + ; 7 e e r r p p e r r 4 & o 4 d z z z j d - X # , + O % : : : 4 w w w 4 4 ",
": ; : : ; % O - X     7 H ( ] $. .X._ g & z V A m -   # - : 7 7 7 e e e 8 : - O   & 4 t p y e ; 4 U R R A 9 - X % ; : ; : ; ; g ",
"s.s.s.s.v _ $.] ( J d - : F L ^ L R v 4 X ; w 0 4 o   X O - - - : 4 : : ; - - O d + & ; ; ; + u X.X.( R J j 1 - X p 2 o O O , @.",
"s.s.2.6.6.4.2.%.] Q A V d - e c c g 1 o 3 1 2 4 1 1 X     O $ - - - % % % % O ; ^ p X # # X ; _ X.( R K A j 7 : , ) ( + 4 X.8.6.",
"s.8.t.e.8.$.2.%.X.( H v z y O   X X a 9.r.y.u.u.i.r.w.3.) j & o O % # # O X   O z e 4 @.q.p V X._ ( P V j e 2 : O r 4 J q.t.q.4.",
"8.t.t.q.6.2.-.%._ ^ H x z d ;   X 9 9.r.r.u.u.u.u.r.r.r.0.0.:.D @ . X .   X ; s i $ @ N ^ 5 ^ ) T U J v j e 7 -   o R e.t.e.8.5.",
"e.5.6.5.2.-.-.] ( ^ A z z y 7   + ;.0.3.w.w.r.w.9.0.w.0.9.9.9.;.Y = X X z ] ;.;.#...S = O e R U J V z p r 8 1 #   ^ 6.e.4.8.5.2.",
"4.6.4.4.2.-.} ` ( P A x j t 7   b ;.,.3.0.9.0.w.w.0.0.3.3.3.;.| | 9 o B ..! o.@.o...E B o z A A V x z r 8 7 ;   V -.8.4.8.4.<.-.",
"2.4.4.-.O.^ _ ( ^ J x z j t :   / ;.;.:.3.3.3.0.9.9.9.,.:.+.o. .| f < E ! ! ......E I B & m z x z j d e 8 4 + r O.-.4.-.4.2.-.] "
};
