/* XPM */
static char *_7ff93b11e1b46adcf6926a9cc076c96vgGiQ7a7xPh1F13l[] = {
/* columns rows colors chars-per-pixel */
"50 50 5 1 ",
"  c black",
". c #101010",
"X c #131313",
"o c gray8",
"O c #252525",
/* pixels */
"                                                 X",
"                                                 X",
"                                                 X",
"                                                 X",
"                                                 X",
"                                                 X",
"                                                 X",
"                                                 X",
"                                                 X",
"                                                 X",
"                                                 X",
"                                                 X",
"                                                 X",
"                                                 X",
"                                                 X",
"                                                 X",
"                                                 X",
"                                                 X",
"                                                 X",
"                                                 X",
"                                                 X",
"                                                 X",
"                                                 X",
"                                                 X",
"                                                 X",
"                                                 X",
"                                                 X",
"                                                 X",
"                                                 X",
"                                                 X",
"                                                 X",
"                                                 X",
"                                                 X",
"                                                 X",
"                                                 X",
"                                                 X",
"                                                 X",
"                                                 X",
"                                                 X",
"                                                 X",
"                                                 X",
"                                                 X",
"                                                 X",
"                                                 X",
"                                                 X",
"                                                 X",
"                                                 X",
"                                                 X",
"                                                 X",
"XXXXXXXXXXXXXXXXXXXXXXXXXXXXXXXXXoXXXXXXXXXXXXXoXO"
};
