/* XPM */
static char *c5fb59dc513f42a2835a6114037df40fLk9VDSveySln9rVP[] = {
/* columns rows colors chars-per-pixel */
"50 50 100 2 ",
"   c #449A4A",
".  c #4B9E48",
"X  c #4EA24C",
"o  c #52A44C",
"O  c #58A74E",
"+  c #54AA4D",
"@  c #5AAB4E",
"#  c #5FB14E",
"$  c #57B94F",
"%  c #4CAB51",
"&  c #52AC53",
"*  c #5BAC51",
"=  c #46B555",
"-  c #49B052",
";  c #4EBB56",
":  c #55B453",
">  c #5BB453",
",  c #57B854",
"<  c #5CBB55",
"1  c #54BC5A",
"2  c #5FBF59",
"3  c #60AF4F",
"4  c #62B34F",
"5  c #63B552",
"6  c #63BC55",
"7  c #6CBD55",
"8  c #64BD58",
"9  c #6ABE58",
"0  c #73BF53",
"q  c #5DC355",
"w  c #54C758",
"e  c #5CC359",
"r  c #56CA5C",
"t  c #5ECD5A",
"y  c #5DD05B",
"u  c #65C156",
"i  c #6DC156",
"p  c #65C857",
"a  c #6FC857",
"s  c #66C459",
"d  c #6CC35A",
"f  c #62CC5B",
"g  c #6CCC5C",
"h  c #74C456",
"j  c #7AC757",
"k  c #76C957",
"l  c #79C957",
"z  c #73C65A",
"x  c #79C658",
"c  c #74CA5B",
"v  c #7BCD5B",
"b  c #64D25E",
"n  c #6CD35E",
"m  c #75D25E",
"M  c #7DD15D",
"N  c #77D85F",
"B  c #7DDA5F",
"V  c #76CE60",
"C  c #79CE60",
"Z  c #6ED461",
"A  c #6CD861",
"S  c #73D361",
"D  c #7CD461",
"F  c #73DA62",
"G  c #7DDB62",
"H  c #7FE163",
"J  c #81CE5B",
"K  c #83D45D",
"L  c #8AD65E",
"P  c #86D85F",
"I  c #8ADA5F",
"U  c #92D95F",
"Y  c #8AE05F",
"T  c #83D561",
"R  c #8CD660",
"E  c #85DB62",
"W  c #8BDC62",
"Q  c #92DD63",
"!  c #99DF63",
"~  c #85E164",
"^  c #8DE265",
"/  c #83E268",
"(  c #8FE669",
")  c #94E465",
"_  c #99E665",
"`  c #95E866",
"'  c #9BEA66",
"]  c #94E669",
"[  c #9AE668",
"{  c #95E969",
"}  c #9DEB69",
"|  c #9FF069",
" . c #A1ED67",
".. c #A2EE69",
"X. c #A3F16A",
"o. c #AAF46C",
"O. c #B0F76D",
"+. c #B5F96F",
"@. c #AAEF73",
"#. c #A8F170",
/* pixels */
"} }  ... .[ [ ] ) W E W ) ] ' { ' { ^ ] ] E ~ ^ E E S Z Z s 2 2 a g d c M M M K K E W W W W W L ) [ ",
"' }  .[ [ ..[ ) ) ) ) W ) ] { | ' ^ D E ^ E ~ E E D V Z g s g d c v v v M M K P K K W W R T R T P _ ",
"' '  . .} ' [ [ _ ] ) ( _ ` ` ' ) C S D E / E D D V g g g g V D B I Q Y W W P W W W W T T J K R P W ",
"Q [  . .} _ [ [ { ) ) ) ) _ ' ' W v c g D S S S Z g Z V g d D D I ) ) ) ) ) ^ I T T I I T T v K W I ",
"^ I [  .} _ ) _ _ ) ] ) ) _ ' [ T z z V g g V V g s 8 < : & d W ` ` ) ) ) Y ) W W L K T T K C v K Q ",
") _ Q ) [ _ ` ) ) _ ) ` _ [ } } #.W c z d V d d > > 9 v z C P }  .} } } ' ) Q ) W W W K P W T v v E ",
"K ) } ' _ { _ ) ` ` ` ` ` '  .X..._ v J _ x d x + > T _ [ [ }  .X.o.X. .X.| ` ) W W E T K P R K k c ",
"c L ' X.} { _ ] ` ) ) _ ` ' X...o.) v ..#.x v T T T M ` X...X.X. .X.X. .| | ' Y W W P K K v M W T c ",
"M P ) }  .X.' { _ ] _ ' X.o.o.o... .o.+.o.c z [ L W ' { o.X.X.X.X.|  .| | ' ` Q ^ ^ W P K M k P E E ",
"W E ^ ) ` ' | | } } { ' } X.O.o.O.o.o.O.[ v k _ o. ...X.#.X.X.X.| X.o.| X.} ' ` ) ^ ) ^ K v T M T ) ",
"W ) ) ) ] ^ W I E W ^ E E I ' } ..o.X..._ [ ] {  .X.X.X.| | | | | ' | | X.' { ( W ( ( ^ E ( M d v P ",
"W ^ _ ] ) ` ) W D D T ^ ( ) _ _ }  . .....o.X.} } } } } ' ' | | ' ` ` ` ` ` ) ^ ^ W ^ ` ( W m z c T ",
"W W ] ] ] }  .' ' ] E E E W } o.#.o.o.o.X.} ..X.| | | | | ' | { ^ ` Y ` ) ] ^ ( E E T ^ ^ E E D m D ",
"E E W ^ _ [ _ ' [ [ { ( ] ^ ) ) Q _ ' ' } } } ' ` ^ `  .| | | ` ` ) ' ` ` ( W E T D D G E T E E D E ",
"E R E P ^ _ _ [ } } _ ] { {  .X...} ' ' ' _ ^ I I ^ Y ` | | | ` ` ` ` ` ) ( W T T D T E E G C C K E ",
"K T K P P W ] [ [ } _ ) ) ^ E W W Q ) E E ) _ ` ) ) ` ) ` ` ` ` ` ` Q ^ ^ K D D D T T E ^ ^ E v k x ",
"J J R R L R ! ! U Q ' Q E ) I I E T L T m K W ) ) Q Q  . . ._ _ ) ) Q J K K T D v G D G T T E W T v ",
"J J R R U Q ! ! Q U ! ' Q I ) ) W P Q W W I I U K M J '  . . . .! ) ) Y ) I E M S c C D C D T v K K ",
"R R R U ! ! R U Q L J Q Q Q I ) _ T P I Q U Q Q ) _ Q Q U _ ! U W [ _ W W E P N V d d V V x T J J R ",
"Q ! ! U R L U J j J L I I Q ) U ) ) P P I Y Y Q ) [ ' _ _ ! ' Q z D W E E E D G D d s > 5 9 J R R R ",
"! ! ! ! L J J J j j L L I I Q _ I W W J K T W Q ! _ _ ) Y ' ' ! T z M K V V S D S V 8 8 8 8 C J L R ",
"J R J R U L L J 0 J J K W I U ) I P W P v M P Q U Y _ _ Q L Y K P T z c c c z c d d g 8 d s 9 c J v ",
"C C C x 0 0 0 j v K J v K W W W W K I W v x K I Y Y U _ ' U l l x x x d 9 g d 8 d d 8 d 8 8 8 8 z C ",
"9 C J J K K K J J J J J v I W Q W P v I M i v K L L P U _ ' ) P z 8 8 9 9 8 d 8 d d 8 9 8 d 8 d z z ",
"9 9 d 7 5 5 7 j K v J K j K L W I L h K P k i K M l M K Q _ U _ W C x i 9 d d 9 9 d 8 d d d a c V x ",
"v C z d 5 4 4 7 l K l K v j K L P K x h K x 7 v l J J P I _ ) U Q Q Q L x d d d d 9 d g g d 6 i c z ",
"j J v v l k x x h l k l v j x v v j x 5 7 x i k M l K P L Q Q U L Q Q W I K M x c z z c z d i i x k ",
"J J J v M v M M v l h h v j h h h h x 4 > z 5 7 l z M K L W W Q K K W W W P P W W E P K M K K K P K ",
"J K K K l M M M v h j h h h h h 7 5 j 0 O # # 4 5 7 h M P K I I R x v W P I K x T W P P K K K K K K ",
"v l v l v l l l v x h h h x 0 h 4 4 7 7 @ # # # 3 3 5 i v M K I L T 9 v W R P K P L P P K K K K l v ",
"K K M l K K l l x x k x x z 7 9 5 @ @ @ @ O @ @ 3 @ > 6 u M k M K K v 5 v P K T P K K K P K v v K K ",
"J l K L K h M K c z z z d d 9 + o o . @ O O o @ @ > $ < q z D z R K P z > k x k M K K K T x h z h v ",
"h x K M M C v c c c z g V 8 5 * O o o O * o . X , 1 , , q p s z c M K P h 5 v v k K P K P J v x i u ",
"k d i k M T M v z 6 5 9 d 8 9 9 * O o   & > 2 + < g n $ , f p g c d u z P v v P K K Q ! Q _ ! ) ! L ",
"Q W v x v J v k 0 > o 5 > o 5 5 5 9 u : 2 c D G c H / N p t b f g d 7 9 x K K K P W ) Q Q ! ! W Q Q ",
"M K P v J T P J v 5 * 5 X > 5 5 d c D H / ( ^ ` ( ( ( _ M n b b g c x v K K K L W E I ) Q R K P T K ",
"x k c M v v v M v J J 8 & > 8 , n F E ~ ~ ( ( ] { { ] ] ) / n y y f g u 7 z K K R W ! v T T K v v v ",
"v z c x k z x x v J x 5 * s p Z n F F F ~ ( { { { { ] ] ] ' / F b y f 8 * 5 K K T Q [ W 5 d v P K v ",
"v z z x k z z x x z u 8 z M g g N B ~ ( { { { ] { { ] ` ] ^ / G F Z g g d 6 z K K P Q ! R * 0 K J v ",
"d 7 z j x k z z d u a a u s M ^ ( ` ' | ' { ) { { ] ] ( ) G H A A A A b p 6 9 v 9 5 K Q W K * 9 c x ",
"z d c x c c z u 8 6 g G E E E ^ _ P ^ ` ` ` ` ` ] ) ^ ) ^ ^ n b b t t q < < > > : > < k v v M h i z ",
"d c v c v k z a 7 8 6 u k E ^ ] ( M P ^ ^ ^ I ^ ( ^ _ { _ ) E m n t f u < < % % % & # > d z x M C z ",
"V c c v c h z z z d d c m g c D P ) ` } }  .X.o. .} ' ' ` ) E E N m n s g < : : + < 6 u u d c g c v ",
"C v c v v M i 9 z c c c M ^ ` { ' }  . . . .X.X.X...} ' ` ` ^ E E N m b g u 2 u u u u g i d d d z x ",
"z v J C v C T x 9 d M E ^ ^ ` ` } }  . .} X...#.X.....} ' ] ^ D B B N f e < % & > 6 9 7 M M T D v v ",
"W W ) [ Q R L W T z C / ) ` ` ' | ' } } X.X...@...} ..] { ] ^ S g B n w - % < > 6 9 d d K W [ ' _ ) ",
"} _ ) [ [ ! W W ) W T v E ^ ' ' ' ' } } } X...[ [ ] W E E ( ( V f t ; - & 8 8 d d z v C C W I Q [ } ",
"} [ _ ) ) ] ) ^ Q ) ) E E P ` ` ' } } ` { _ ' [ [ { W G G F E b 1 % & 8 c V d z c v v T T W ) Q Q [ ",
"} [ [ } [ ) ) Q ) Q ( ( Q W ^ ' { ' ' ` ) W W ] ] ] W S S Z b r = % > 8 z c k V M K E W K P ) ) [ } ",
"}  .}  . .[ ] ) ^ W Q Q Q ( ] ] { { ] ' W ^ ~ E ] W E S Z Z e 1 : : d v C C x T T W W W W K L ) [ } "
};
