/* XPM */
static char *result[] = {
/* columns rows colors chars-per-pixel */
"64 64 104 2 ",
"   c #0C0C10",
".  c #0C0C11",
"X  c #0D0D11",
"o  c #0D0D12",
"O  c #0D0D13",
"+  c #0D0E13",
"@  c #0E0E13",
"#  c #0E0F13",
"$  c #0F0F13",
"%  c #0E0F14",
"&  c #0F0F14",
"*  c #0F0F15",
"=  c #0F1015",
"-  c #101015",
";  c #101016",
":  c #111016",
">  c #101116",
",  c #111116",
"<  c #101117",
"1  c #111117",
"2  c #111217",
"3  c #121217",
"4  c #111118",
"5  c #121118",
"6  c #111218",
"7  c #111319",
"8  c #121218",
"9  c #121318",
"0  c #121219",
"q  c #131219",
"w  c #121319",
"e  c #131319",
"r  c #12131A",
"t  c #13131A",
"y  c #14131A",
"u  c #13141A",
"i  c #13141B",
"p  c #14141A",
"a  c #14141B",
"s  c #15141B",
"d  c #14151B",
"f  c #14141C",
"g  c #14151C",
"h  c #15151C",
"j  c #15151D",
"k  c #15161C",
"l  c #15161D",
"z  c #15161E",
"x  c #16161E",
"c  c #16171E",
"v  c #16171F",
"b  c #17171F",
"n  c #16181F",
"m  c #171720",
"M  c #161820",
"N  c #171820",
"B  c #171920",
"V  c #171821",
"C  c #171921",
"Z  c #181821",
"A  c #181921",
"S  c #181A21",
"D  c #181922",
"F  c #181A22",
"G  c #191A22",
"H  c #191A23",
"J  c #191B23",
"K  c #191A24",
"L  c #191B24",
"P  c #1A1A24",
"I  c #1A1B24",
"U  c #1A1C24",
"Y  c #1B1C24",
"T  c #1A1C25",
"R  c #1B1C25",
"E  c #1B1D25",
"W  c #1B1C26",
"Q  c #1B1D26",
"!  c #1B1C27",
"~  c #1B1D27",
"^  c #1C1C26",
"/  c #1C1D26",
"(  c #1C1D27",
")  c #1D1D27",
"_  c #1C1E27",
"`  c #1D1E27",
"'  c #1C1D28",
"]  c #1D1D28",
"[  c #1C1E28",
"{  c #1D1E28",
"}  c #1D1F28",
"|  c #1D1E29",
" . c #1D1F29",
".. c #1E1E28",
"X. c #1E1F28",
"o. c #1E1E29",
"O. c #1E1F29",
"+. c #1E1F2A",
"@. c #1E202A",
"#. c #1F202A",
"$. c #1F202B",
"%. c #1F202C",
"&. c #20212C",
"*. c #20212D",
/* pixels */
"{ { / ^ ^ ^ ^ ^ ^ / W / { { { { { { { { ( ` ` ` ` ` ` ` ` ` { { { { / ^ ^ ^ ^ ^ ^ / W / { { { { { { { { ( ` ` ` ` ` ` ` ` ` { { ",
"{ G w 4 6 4 4 4 6 4 0 v ) ) W { { W ( ^ G c x x x x x x x c I { { G w 4 6 4 4 4 6 4 0 v ) ) W { { W ( ^ G c x x x x x x x c I { ",
"{ M @ & - - - - - - a / { { _ { { ( { ` R d , ; ; ; ; : - & A { { M @ & - - - - - - a / { { _ { { ( { ` R d , ; ; ; ; : - & A { ",
"{ N ; e a p a p p m { O._ G H { { K H ( { ^ v p t t t a 0 > S { { N ; e a p a p p m { O._ G H { { K H ( { ^ v p t t t a 0 > S { ",
"{ N 1 t h h h h Z | O.{ m o g ` { c + m {  .( N h h h h t 2 F { { N 1 t h h h h Z | O.{ m o g ` { c + m {  .( N h h h h t 2 F { ",
"{ N , t h a a Z | O.{ N . o n { { A O . N { { ( N s a h t 1 F { { N , t h a a Z | O.{ N . o n { { A O . N { { ( N s a h t 1 F { ",
"{ N , t h a Z | O.{ N o & > N { { G 1 $ o N { O.| Z a h t 2 F { { N , t h a Z | O.{ N o & > N { { G 1 $ o N { O.| Z a h t 2 F { ",
"{ N 1 t h Z | O.{ N X - e 1 N { { F 2 e - X N { O.| Z h t 2 F { { N 1 t h Z | O.{ N X - e 1 N { { F 2 e - X N { O.| Z h t 2 F { ",
"{ N , t Z | O.{ N X - a t , N { { F 1 t a - X N { O.| Z t 2 F { { N , t Z | O.{ N X - a t , N { { F 1 t a - X N { O.| Z t 2 F { ",
"{ N 1 b | O.{ N X - a h t , N { { F 1 t h a - X N { O.| b 2 F { { N 1 b | O.{ N X - a h t , N { { F 1 t h a - X N { O.| b 2 F { ",
"{ B k { O.{ N X - a a h t , N { { F 1 t h a a - X N { O.{ l G { { B k { O.{ N X - a a h t , N { { F 1 t h a a - X N { O.{ l G { ",
"` I ` O.{ N o - a h h h p 1 N { { F 2 y h h h a - o N { O.` E { ` I ` O.{ N o - a h h h p 1 N { { F 2 y h h h a - o N { O.` E { ",
"{ { O.( m . & e t t t p 0 ; M { { A > 0 y t t t e $ . m ( O.{ { { { O.( m . & e t t t p 0 ; M { { A > 0 y t t t e $ . m ( O.{ { ",
"{ { { G o o > 1 , , , 1 ; & B { { F = > 2 1 1 1 2 1 O + H { { { { { { G o o > 1 , , , 1 ; & B { { F = > 2 1 1 1 2 1 O + H { { { ",
"{ ( ` H g n N N N N N N M B T { { W F A F F F F S F A c K ` ( { { ( ` H g n N N N N N N M B T { { W F A F F F F S F A c K ` ( { ",
"{ { { { { { { { { { { { { { { { { { { { { { { { X.X.} { { { { { { { { { { { { { { { { { { { { { { { { { { { { { X.X.} { { { { { ",
"{ { { { ( / / / ) ` ` ` ` ` { { { { ` ` ` ` ` ( / / W ( { { { { { { { { ( / / / ) ` ` ` ` ` { { { { ` ` ` ` ` ( / / W ( { { { { ",
"{ W ( W v 0 4 0 j x x x x c I { { I c x x x x l 0 4 0 v W ( W { { W ( W v 0 4 0 j x x x x c I { { I c x x x x l 0 4 0 v W ( W { ",
"{ { { ' I t - - ; ; ; : - & A { { A & - : ; ; ; - - t I ' { { { { { { ' I t - - ; ; ; : - & A { { A & - : ; ; ; - - t I ' { { { ",
"{ ( ( { { W v a t t t a 0 > S { { S > 0 a t t t a v W { { ( ( { { ( ( { { W v a t t t a 0 > S { { S > 0 a t t t a v W { { ( ( { ",
"_ v l R O.O.( N h h h h t 2 F { { F 2 t h h h h N ( O.O.R l v _ _ v l R O.O.( N h h h h t 2 F { { F 2 t h h h h N ( O.O.R l v _ ",
"` n ; g W O.{ W m g a h t 1 F { { F 1 t h a g m W { O.W g ; n { { n ; g W O.{ W m g a h t 1 F { { F 1 t h a g m W { O.W g ; n ` ",
"{ N ; 3 l R O.X.^ m g h t 2 F { { F 2 t h g m ^ X.O.R l 3 ; N { { N ; 3 l R O.X.^ m g h t 2 F { { F 2 t h g m ^ X.O.R l 3 ; N { ",
"{ N 1 e e k R O.X.^ m h t 2 F { { F 2 t h m ^ X.O.R k e e 1 N { { N 1 e e k R O.X.^ m h t 2 F { { F 2 t h m ^ X.O.R k e e 1 N { ",
"{ N , t a 8 k R O.X.W N y 2 F { { F 2 y N W X.O.R k 8 a t , N { { N , t a 8 k R O.X.W N y 2 F { { F 2 y N W X.O.R k 8 a t , N { ",
"{ N , t h p 9 k R O.{ ( x 1 F { { F 1 x ( { O.R k 9 p h t , N { { N , t h p 9 k R O.{ ( x 1 F { { F 1 x ( { O.R k 9 p h t , N { ",
"{ N , t h a p 8 k R O.O.R g F { { F g R O.O.R k 8 p a h t , N { { N , t h a p 8 k R O.O.R g F { { F g R O.O.R k 8 p a h t , N { ",
"{ N 1 p h h h a e l W O.{ R T { { T R { O.W l e a h h h p 1 N { { N 1 p h h h a e l W O.{ R T { { T R { O.W l e a h h h p 1 N { ",
"{ N ; 0 p t t t e 3 d R { { ( { { ( { { R d 3 e t t t p 0 ; M { { M ; 0 p t t t e 3 d R { { ( { { ( { { R d 3 e t t t p 0 ; N { ",
"{ B & ; 1 , , , 1 > > l ( { ( { { ( { ( l > > 1 , , , 1 ; & B { { N & - 1 , , , 1 > > l ( { ( { { ( { ( l > > 1 , , , 1 - & B { ",
"{ T N M N N N N A F A A ( { ( { { ( { ( A A F S N N N N M B T { { T C N B B B C F G F A ( { ( { { ( { ) A A G S N N N N N B T { ",
"{ { { { { { { { } X.} { { { { { { { { { { { ..{ { { { { { { { { ) W R R R R R R R R R ( { { { { { ( { { Q ( ( ( ( / / / / ( _ { ",
"{ { / / / / / / / / W ( { { { { { { { { ` ` ` ` ` ` ` ` ` ` { { G w 4 8 8 8 8 8 8 4 g W { W { O.{ ( ( Q A x x x x x x x x c I { ",
"{ G 0 4 4 4 4 4 4 4 0 v ) ) W { { W ( ^ G c x x x x x x x c I ( M @ & - - - - - & 8 R | { [ { O.{ ( {  .R t ; ; ; ; ; ; - & A { ",
"{ M @ & - - - - - - a / { { _ { { ( { ` R d , ; ; ; ; : - & A ` N ; e a p a p t z ( +.| ( I ` O.( V W O.O./ l t u t t a 0 > S { ",
"{ N ; e a p a p p m { O._ G H { { K H ( { ^ v p t t t a 0 > S _ N 1 t h h h f b ] +.{ ( l ; R +.R % 0 R O.+.] b f h h h t 2 F { ",
"{ N 1 t h h h h Z | O.{ m o g ` { c + m {  .( N h h h h t 2 G ( N , t h a a v ( O.{ ( c @ # R +.R %   r R | O.( v a a h t 1 F { ",
"{ N , t h a a Z | O.{ N . o n { { A O . N { { ( N s a h t , F ( N , t h a v ( O.{ ( z = , - R +.R : ; o 0 W O.O.( v a h t 2 F { ",
"{ N , t h a Z | O.{ N o & > N { { G 1 $ o N { O.| Z a h t 1 F ( N , t f v ( O.{ ( z * 0 t - R +.R ; t 8 o l W { O.( v f t 2 F { ",
"{ N 1 t h Z | O.{ N X - e 1 N { { F 2 e - X N { O.| Z h t 2 F ( N , t b ( O.{ ( z * 8 h e - R +.R ; e h 8 o t W O.O.( b t 2 F { ",
"{ N , t Z | O.{ N X - a t , N { { F 1 t a - X N { O.| Z t , G _ N , l ] O.{ ( z * 8 h h e - R +.R ; e h h 8 % z ( { O.{ l , F { ",
"{ N 1 b | O.{ N X - a h t , N { { F 1 t h a - X N { O.| b 2 F ( N u / +.{ ( z * 8 h a h e - R +.R ; e h a h 8 * z ( { @./ i F { ",
"{ B k { O.{ N X - a a h t , N { { F 1 t h a a - X N { O.{ l G ( J ~ O.o.( z * 8 h a a h e - R +.R ; e h a a h 8 * z ( O.O./ T { ",
"` I ` O.{ N o - a h h h p 1 N { { F 2 y h h h a - o N { O.` E _ [ O.| ( c = 0 h h h h h t - R +.R ; t h h h h h 0 = c ( { O.[ { ",
"{ { O.( m . & e t t t p 0 ; M { { A > 0 y t t t e $ . m (  .{ { { { ( l @ , t e e e e t 8 = R +.R ; 8 t e e e t t 1 @ l ( { [ { ",
"{ { { G o o > 1 , , , 1 ; & B { { F = > 2 1 1 1 2 1 O + H { { { ( { I ; # - - - - - - - = 7 / O./ i ; ; ; ; ; ; ; ; & ; I { ( { ",
"{ ( ` H g n N N N N N N M N T { { W F A F F F F S G A c K ` ( { { | { W W W R R R R R R R / { O.{ / R R R R R R R R R R ` { { { ",
"{ { { { { { { { { { { { { { { { { { { { { { { { { { { { { { { { $.%.%.&.*.*.&.#.+.#.#.#.#.O.O.{ O.O.+.@.@.@.@.@.@.@.@.O.O.O.O.O.",
"{ { { { ( / / / / / / / / / { { { { ` ` ` ` ` ` ` ` ` ` { { { { { | | { R R R R R R R R R / { O.{ / R R R R R R Y U Y ( { { { { ",
"{ W ( W v 0 4 4 4 4 4 4 4 0 G { { I c x x x x x x x c G ^ ( W ( ( { { P < + @ % = - - - * w / O./ w * - - - = % @ + 1 I { { ! { ",
"{ { { ' I t - - - - - - & @ M { { A & - : ; ; ; ; : d R { { { { ( { { ..R g 0 e e e e t 8 ; R +.R ; 8 t e e e e 0 g R ..{ { ( { ",
"{ ( ( { { W v a p a p a e ; N { { S > 0 a t t t p x W { { ( ` ( G H { O.#.{ b h h h h h t ; R +.R ; t h h h h h b { #.O.{ H G ( ",
"_ v l R O.O.( N h h h h t 1 N { { F 2 t h h h h N ( O.O.R l A ( M 6 D { { O.( v a d a h e ; R +.R ; e h a d a v ( O.{ { D 6 M { ",
"` n ; g W O.{ W m g a h t , N { { F 1 t h a g m W { O.W d > A _ N - 1 F { { O.( v a d h e ; R +.R ; e h d a v ( O.{ { F 1 - N { ",
"{ N ; 3 l R O.X.^ m g h t , N { { F 2 t h g m ^ X.O.R l 3 > G _ N 1 8 8 D { { O.( v a h t ; R +.R ; t h a v ( O.{ { D 8 8 1 N { ",
"{ N 1 e e k R O.X.^ m h t , N { { F 2 t h m ^ X.O.R k e e 2 F ( N , t e 8 D { { O.( v h t ; R +.R ; t h v ( O.{ { D 8 e t , N { ",
"{ N , t a 8 k R O.X.W N p , N { { F 2 y N W X.O.R k 8 a t 1 F ( N , t h 0 8 D { { O.( b e ; R +.R ; e b ( O.{ { D 8 0 h t , N { ",
"{ N , t h p 9 k R O.{ ( x 1 N { { F 1 x ( { O.R k 9 p h t 1 F ( N , t h f q 8 D { { O.{ j ; R @.R ; j { O.{ { D 8 q f h t , N { ",
"{ N , t h a p 8 k R O.O.R g B { { F g R O.O.R k 8 p a h t , F ( N , t h a f 0 8 D { { #.W t R @.R t W #.{ { D 8 0 f a h t , N { ",
"{ N 1 p h h h a e l W O.{ R L { { T R { O.W l e a h h h y 2 G ( N 1 p h h h h e 8 G { O.O./ { O.{ / O.O.{ G 8 e h h h h p 1 N { ",
"{ N ; 0 p t t t e 3 g R { { ( { { ( { { R d 3 e t t t y 0 > S _ N ; 0 p t t t t 5 1 D ` { O.O.{ O.O.{ ` D 1 5 t t t t p 0 ; N { ",
"{ B & ; 1 , , , 1 ; ; l ( { ( { { ( { ( l > > 2 2 1 1 2 > = F { B & ; 1 , , , 1 1 - 8 K { { { O.{ { { K 8 - 1 1 , , , 1 ; & B { ",
"{ T B N N N N N N N n v ( { ( { { ( { ( A A F F F F F F S F W { T B N N N N N C F G A J ( ( { O.{ ( ( J A G F C N N N N N B T { ",
"{ { { { { { { { { { ` _ { { { { { { { { { { { { { { { { { { { { { { { { { { { { { { { [ { { { O.{ { { [ { { { { { { { { { { { { "
};
