/* XPM */
static char *bbf7b24789fa4ea3d9c173b3b978685bvRnmHebs4oEVM92U[] = {
/* columns rows colors chars-per-pixel */
"50 50 221 2 ",
"   c None",
".  c #4E202D",
"X  c #4C232F",
"o  c #6D2929",
"O  c #742B2A",
"+  c #773626",
"@  c #7B6039",
"#  c #A53F1B",
"$  c #913B25",
"%  c #C22D09",
"&  c #C43006",
"*  c #C53008",
"=  c #C7360C",
"-  c #CE3F0D",
";  c #C83615",
":  c #C63B24",
">  c #C93E28",
",  c #AE5D1F",
"<  c #B3561A",
"1  c #894E2C",
"2  c #8A4638",
"3  c #A15622",
"4  c #B25F3C",
"5  c #9A782B",
"6  c #B9742C",
"7  c #CE4208",
"8  c #CB430C",
"9  c #CC400E",
"0  c #D14804",
"q  c #D0430C",
"w  c #D64A08",
"e  c #D04E0F",
"r  c #D45706",
"t  c #D85303",
"y  c #DB5903",
"u  c #DC5E02",
"i  c #DB5A06",
"p  c #D5580B",
"a  c #DB5A0F",
"s  c #CE451D",
"d  c #D24C16",
"f  c #DE6203",
"g  c #DC6601",
"h  c #DF6703",
"j  c #DA6308",
"k  c #D9670E",
"l  c #DF6D0B",
"z  c #D96513",
"x  c #DE6411",
"c  c #D97210",
"v  c #E06906",
"b  c #E16E05",
"n  c #E16F05",
"m  c #E26709",
"M  c #EC650C",
"N  c #E66F08",
"B  c #E57105",
"V  c #E37705",
"C  c #E57E07",
"Z  c #E3720B",
"A  c #E47308",
"S  c #E57408",
"D  c #E7730E",
"F  c #E5750E",
"G  c #E37A0A",
"H  c #E57C08",
"J  c #EC7D0B",
"K  c #EF7D0E",
"L  c #F37909",
"P  c #F27D0C",
"I  c #FF7E09",
"U  c #E37713",
"Y  c #CB4526",
"T  c #CC452A",
"R  c #D1482F",
"E  c #CB4C37",
"W  c #C56A26",
"Q  c #DB6622",
"!  c #DF6C29",
"~  c #DE7E23",
"^  c #DB6F3F",
"/  c #E27F21",
"(  c #BE564D",
")  c #B76A47",
"_  c #A07141",
"`  c #CC5B4E",
"'  c #CA5B56",
"]  c #D25650",
"[  c #D55F51",
"{  c #D66F48",
"}  c #CD7460",
"|  c #8E803D",
" . c #9A8F3D",
".. c #BE9D27",
"X. c #DD8210",
"o. c #E78305",
"O. c #E98C06",
"+. c #E6800E",
"@. c #EE820D",
"#. c #E38D0F",
"$. c #E8890A",
"%. c #EE8F09",
"&. c #F1830C",
"*. c #F1850E",
"=. c #F68C0C",
"-. c #EE9501",
";. c #EB940A",
":. c #E8900F",
">. c #EC940C",
",. c #EB9A0B",
"<. c #FA9C0B",
"1. c #E78313",
"2. c #E08C10",
"3. c #EA8811",
"4. c #E88812",
"5. c #E49712",
"6. c #ED9010",
"7. c #EE9010",
"8. c #EB9711",
"9. c #EC9016",
"0. c #E59D12",
"q. c #EB921B",
"w. c #E8971F",
"e. c #F39613",
"r. c #F09915",
"t. c #F79B17",
"y. c #F1A203",
"u. c #F5A50E",
"i. c #ECA310",
"p. c #EFA712",
"a. c #EBAB12",
"s. c #EEAF11",
"d. c #F0A114",
"f. c #F9A317",
"g. c #F5AF11",
"h. c #F2A71A",
"j. c #F3A71E",
"k. c #F4AF1C",
"l. c #EFB115",
"z. c #ECB915",
"x. c #F4BA16",
"c. c #F8BE18",
"v. c #F8B91E",
"b. c #DC9B20",
"n. c #D0953C",
"m. c #EF9D23",
"M. c #DAAF20",
"N. c #F1A420",
"B. c #F3A922",
"V. c #F4AA25",
"C. c #F5AE27",
"Z. c #F5B320",
"A. c #F9B121",
"S. c #F8B726",
"D. c #F7B92A",
"F. c #F8BE28",
"G. c #FBC70F",
"H. c #EFC115",
"J. c #F3C615",
"K. c #F3C815",
"L. c #F9C41A",
"P. c #F6D015",
"I. c #FDD111",
"U. c #FFD211",
"Y. c #F8DA17",
"T. c #FBDE16",
"R. c #F7D71A",
"E. c #FAD11B",
"W. c #FED11C",
"Q. c #FCD31C",
"!. c #FBE514",
"~. c #FCEC17",
"^. c #F9E01F",
"/. c #FEE31E",
"(. c #FCEA1F",
"). c #FDF11A",
"_. c #FEF519",
"`. c #FEFA1C",
"'. c #F7C222",
"]. c #FDCB21",
"[. c #F9C029",
"{. c #FBC12E",
"}. c #F9CB2C",
"|. c #F9D926",
" X c #FCD926",
".X c #FBD72F",
"XX c #FCDF2F",
"oX c #FCCD34",
"OX c #F8D433",
"+X c #FCE828",
"@X c #FCED29",
"#X c #FEF424",
"$X c #FEF82B",
"%X c #FBE631",
"&X c #FCEA3B",
"*X c #A8865D",
"=X c #C38159",
"-X c #C29C55",
";X c #E7834E",
":X c #D4A444",
">X c #F7B747",
",X c #F6BF41",
"<X c #C7AE62",
"1X c #CBAF7E",
"2X c #CCB47E",
"3X c #CECB41",
"4X c #FACD44",
"5X c #FEDA41",
"6X c #F6C551",
"7X c #F6D65E",
"8X c #FEF240",
"9X c #FEFD4A",
"0X c #FBEB5A",
"qX c #FAEB5F",
"wX c #FADD68",
"eX c #E4C670",
"rX c #FFF16C",
"tX c #F1E575",
"yX c #F2D381",
"uX c #F5DF8E",
"iX c #FEFDBE",
/* pixels */
"                                                                                                    ",
"                                                                                                    ",
"                                                                                                    ",
"                                                        3X3X                                        ",
"                                                      @ 9X9X@                                       ",
"                                              X o       |  .                                        ",
"                                              , z                                                   ",
"                                                                                                    ",
"                                                <XM.z.M...5                                         ",
"                                    _ <XtXrXrXXXv.$.F 7.u.G.Y._                                     ",
"                                  2X0X8X0X4Xj.3.1.H +.g g g $.J.b.                                  ",
"                              =X7X$X~.qX4XO.V H 7.C d.j.9.H n s.a.i.n.                              ",
"                            eX{.G.).0XD.o.o.O.u.G.O.d.D.Z.Z.'.H.0.$.#.w.)                           ",
"                          eX].P.(.&XA.%.-.y.,.g.L.O.d.'.D.}.P.s.d.3.#.2.$.W                         ",
"                          >Xc.).(.c.y.g.,Xk.y.l.k.,.'..X.Xs.p.J A $.5.#.X.G ~                       ",
"                        yXe.L.).I.F.7XoXwX}.g.L.OX.X.X.X'.H.7.&.&.F +.#.X.X.G 6                     ",
"                      1X6X-.Y._.T.]..XQ.Q. X XXXXX|.]..X.XK.p.7.3.*.K 5.X.S ~ 1.                    ",
"                      yXO.g.^.G.~.!.I.I.Q.I.G. X XXXQ.%X%XK.H.7.&.K @.X.X.3.V.n r                   ",
"                    1X>Xy.^.+XT.).`._.~.(.!.!.+X8X XR.^.XXK.H.s.%.&.3.#.Z.OXw.  j                   ",
"                    tXg.#X$X_.).).)._.`.$X`._.#X+XT.^.^.|.K.z.l.s.5.1.j.7.Z #.  p r                 ",
"                  uXC.].`.9X9X(.~.).).).#X$X).~.!.T.^.R.K.J.z.l.0.J >.F r p B 8.  i                 ",
"                2X5Xc.+X!.Q.OX$X~.~.).).).@X$X~.!.Y.^.|.J.J.z.l.k.S.S.v r p j     a                 ",
"                wX].R.J.<.<.x.+X@X~.~.~.~.~.@X@XT.Y.R.XXa.%.l.}.f.h.U Z r v m >.  8 d               ",
"              *X}.z.J.,.=.g.K.+X%XY.!.!.!.!.+X+XY.R.P.L.C.C.{.h.u.n w A v B F   8.  s               ",
"              -Xx.i.g.z.x.E.Y.%X&X%X@X+X&X+X^.Y.R.P.K.%.{.{.9.u.g.8 A t.B S B 8.    -       +       ",
"              :Xa.a.l.J././.Y./.&X+X_.$XiX&X!./.E.K.H.>.7.&.@.L.H 0 3.U.B k N r.    -     k I       ",
"              :Xi.a.z.Q.d.l f 3.j.d.c.K.OX/._.#X+X|.H.s.@.K 7.L.i m &.V.S A z       8     *.N k     ",
"              :X,.0.x.h.y t y f D D 4.h V p.K.).).@X%X'.7.J 0.E.U m A 8.S v V               P a     ",
"              n.,.0.x.H t u u u u u 9.f y t i >.E.(.).+XOXb.#.E.p.A F N.S l q.                      ",
"              6 ,.2.l.n y u u y u u +.f y y t t F G L././.E.#.p.E.3.3.V.&.m N.                      ",
"              3 O.2.,.n u u f n n n @.n v f u y x 0 0 7.E./.E.p.W.'.B.C.q.4.[.                      ",
"              @ w.2.H V g n H H V V e.n g f f y L m 0 x F #.Q.Q.L.Q.'.k.Z.N.t.                      ",
"                w.2.c C V $.o.C V C g.n g m f y <.L t m m 7 l v.E.L.L.k.Z a a 8   R                 ",
"                , 9.c V $.>.$.o.C o.g.n b f f y =.J t @.f.t 0 j Z.Q.3.8 % p e = 8                   ",
"                  c c u a.,.,.O.o.o.h.V b b b f 3.G t %.r.f m y 2.Q.F 8 8 l - s R                   ",
"                  , U z V.x.,.>.O.;.C.C V V V b m.j.n j.7.g n g $.].h & p Q - s                     ",
"                    c m.m.oXc.i.-.y.F.O.o.C C H j.C.Z.C.m.n G n d.v.q & q Q R (                     ",
"                    $ U / D A.c.6XyXoXi.O.$.o.$.D.4.h.m.C.$.H +.v.1.* * 8 ^ =X_                     ",
"        # D <         # t 0 n f.oXuXwXx.;.>.O.k.D.$.o.>.D.j.3.v.j.7 ; % T ^                         ",
"        z =.<.D O       # t 7 z e. X5XoXF.l.Z.}.v.>.O.,.v.S.].f.w ; T ] `                           ",
"        < =.s.u.M o       # q 7 0 t.D.f.oX5X5X5XF.<.e.S.A.f.F q : : T '                             ",
"        X J <.u.L #         $ 7 - x z t U D.D.{.S.=.e.C.x q ; T : > '                               ",
"            3 , 1               3 a i * % 1.9 d x % d / Y > E ] E ]                                 ",
"                      k           2 W * d ! ; d ! > E ;X[ ] ] ] `                                   ",
"                                      2 4 { E E { { [ ` } )                                         ",
"                                                                                                    ",
"                                                                                                    ",
"                                                                                                    ",
"                                                                                                    ",
"                                                                                                    "
};
