/* XPM */
static char *b2622e71db9444e19e7cc18479e79f6dBsBNSjivzAwmL2Rg[] = {
/* columns rows colors chars-per-pixel */
"50 50 235 2 ",
"   c #6F713E",
".  c #AF2F2D",
"X  c #BC2C2C",
"o  c #BB3729",
"O  c #BD3B2D",
"+  c #D42B1C",
"@  c #D9351C",
"#  c #D33A1E",
"$  c #E03E1D",
"%  c #C32B2A",
"&  c #C5332A",
"*  c #C63A29",
"=  c #CA3B2A",
"-  c #D43C25",
";  c #BD5C1A",
":  c #8F5236",
">  c #B8502E",
",  c #B65836",
"<  c #976E3B",
"1  c #BB6937",
"2  c #B3723A",
"3  c #DC471F",
"4  c #E5431C",
"5  c #E7591B",
"6  c #F2591E",
"7  c #CD6818",
"8  c #D46B18",
"9  c #DA751A",
"0  c #E8651F",
"q  c #F0671F",
"w  c #F36A1E",
"e  c #E6751C",
"r  c #E57B1C",
"t  c #EA7B1D",
"y  c #F27A1F",
"u  c #F67A1D",
"i  c #CB4528",
"p  c #D34426",
"a  c #DB4525",
"s  c #D54A27",
"d  c #DC4C26",
"f  c #D24728",
"g  c #C65E2F",
"h  c #D95528",
"j  c #E64822",
"k  c #E34C23",
"l  c #E25324",
"z  c #E85822",
"x  c #EC5A21",
"c  c #F05722",
"v  c #F05A21",
"b  c #D0712D",
"n  c #D8752B",
"m  c #C76733",
"M  c #E96B22",
"N  c #F06423",
"B  c #F26B21",
"V  c #F16F2B",
"C  c #E67723",
"Z  c #EC7B21",
"A  c #F1712A",
"S  c #F6792A",
"D  c #F37B2E",
"F  c #8D5740",
"G  c #955D40",
"H  c #926945",
"J  c #987946",
"K  c #74984B",
"L  c #57AA4E",
"P  c #4EAA50",
"I  c #4BB454",
"U  c #5BB555",
"Y  c #56B955",
"T  c #5DBC56",
"R  c #7AB24D",
"E  c #72AE50",
"W  c #60B552",
"Q  c #64BC56",
"!  c #6ABD55",
"~  c #65BE58",
"^  c #69BF58",
"/  c #5BC859",
"(  c #64C156",
")  c #6CC257",
"_  c #65C35A",
"`  c #6CC45A",
"'  c #64CA5B",
"]  c #6CCB5D",
"[  c #74C457",
"{  c #7AC956",
"}  c #72C55A",
"|  c #76C858",
" . c #74CB5B",
".. c #7BCD5B",
"X. c #64D55E",
"o. c #6DD45D",
"O. c #74D25E",
"+. c #7DD25D",
"@. c #7BD95F",
"#. c #57DA61",
"$. c #68CB60",
"%. c #77CE60",
"&. c #69D662",
"*. c #74D461",
"=. c #7CD461",
"-. c #75DC62",
";. c #7DDB62",
":. c #7EE265",
">. c #A9893E",
",. c #AFAB3D",
"<. c #B8B53F",
"1. c #EE831D",
"2. c #F58D14",
"3. c #F4831E",
"4. c #FA851B",
"5. c #F58C1D",
"6. c #FA8D1A",
"7. c #F79514",
"8. c #FA9C15",
"9. c #F09418",
"0. c #F5921C",
"q. c #FA9618",
"w. c #F69A1B",
"e. c #F99B1A",
"r. c #FAA80D",
"t. c #FFB50D",
"y. c #FAA414",
"u. c #FAAC13",
"i. c #F8A319",
"p. c #F3A918",
"a. c #F9AA1C",
"s. c #FBB314",
"d. c #FDBB15",
"f. c #FCBA1B",
"g. c #CF8E2C",
"h. c #DA8829",
"j. c #C7993A",
"k. c #EB8624",
"l. c #F58221",
"z. c #F58923",
"x. c #F48C2B",
"c. c #F59529",
"v. c #F38533",
"b. c #F58C34",
"n. c #E69030",
"m. c #F59537",
"M. c #D4A12B",
"N. c #CCB83B",
"B. c #D0B335",
"V. c #EDAA2E",
"C. c #FAAD22",
"Z. c #F6A42C",
"A. c #FBB325",
"S. c #FCBB23",
"D. c #FAB42A",
"F. c #FDBB2C",
"G. c #F7B636",
"H. c #FBBC32",
"J. c #B8C539",
"K. c #FDC31B",
"L. c #C7C936",
"P. c #FDC425",
"I. c #FCC22C",
"U. c #FDC234",
"Y. c #FBC839",
"T. c #FDD03F",
"R. c #8C9148",
"E. c #A78E42",
"W. c #AF9349",
"Q. c #AA9B49",
"!. c #9AA749",
"~. c #8EAD53",
"^. c #8DB752",
"/. c #98B855",
"(. c #B6A646",
"). c #B6B846",
"_. c #B0B74D",
"`. c #ABAB52",
"'. c #A9B855",
"]. c #C59E47",
"[. c #D89B44",
"{. c #F39942",
"}. c #F8A64B",
"|. c #F8AF50",
" X c #F9B86C",
".X c #8AC855",
"XX c #80CF5C",
"oX c #99CB57",
"OX c #83D45D",
"+X c #89D55E",
"@X c #86D85F",
"#X c #8AD95F",
"$X c #9AD45D",
"%X c #B9C647",
"&X c #A7C756",
"*X c #AACC58",
"=X c #83D561",
"-X c #8BD760",
";X c #85DB62",
":X c #8BDC62",
">X c #93DE64",
",X c #9CDE62",
"<X c #A7D762",
"1X c #84E164",
"2X c #8DE265",
"3X c #8DEB6B",
"4X c #92E265",
"5X c #93E465",
"6X c #95E566",
"7X c #99E565",
"8X c #98E766",
"9X c #95E967",
"0X c #99E966",
"qX c #9BEA67",
"wX c #95E769",
"eX c #9AE768",
"rX c #96E969",
"tX c #9CEB69",
"yX c #9EEB69",
"uX c #99F66B",
"iX c #A8E465",
"pX c #A1ED67",
"aX c #A2EE69",
"sX c #A4F16A",
"dX c #A9F26C",
"fX c #A2FA6E",
"gX c #ACF570",
"hX c #A6FA72",
"jX c #C8CC4D",
"kX c #FDC943",
"lX c #FDD64A",
"zX c #FDD950",
"xX c #FCD564",
"cX c #FECF79",
"vX c #FBD284",
/* pixels */
"yXyXyXpXaXyX7X4X4X>X:X:X:XwXqX9XqXrX9X2XrX3X:X1X:X1X;.*.*.&.$.T T `  .] } O.+.OXOXOX@X:X:X:X:X-X:X-X",
"qXyXyXaXyXyXeX6X6X>X4X:X:X6X9XeXeXrX:X=.:X2X;X;X;X;X=.*.%.$.$._ ` |  .| ....@.OXOX@XOX@X:X-X:X=X=X-X",
"qXqXpXyXyXyXeXeXwXwX>XwX6XrXeXqXyX:XO.=.=.;X;X;X;X=.*.$.] ] $.%.*.+.#X#X:X:X#X@X+X:X:X=X-X=X=X..=X-X",
">XqXyXpXyX6XqXeXwXwXwX>X6X6XeXyXqX;X}  .*.*.=.%.*.%.$.%.%.] ` %.;.@X5X5X5X5X9X4X:X#X;X+X:X-X=XXX..@X",
">X#XqXpXqX6XeX6XwXwXwXwX4X6XqXyX5X..} %.} ] ] %.%.] ` ` T Y U ~ @X5XqX6X6X5X2X5X4X:X:X@X@X@X@XOXOX+.",
"5X5X>X5XyX6XqX6XwX>XR.oX9X7XyXqX6XyX.. .` ` %.} _ Q Y ~ } ^ ` ..6XpX9XqXqXqX6X5X4X2X:X:X@XOX@X@XXX..",
"@X5XyX7X7XeX6X6X3XwX/.J >XqXqXaXdXeX5X .OX>X .^ ) P U OX7X6X>XeXqXsXsXpXyXpXtXqX4X2X:X:X=X@XOX:X=X=X",
"..#XqXsXyX6X9X9XuXuXuX!.R.uXuXfXfXsX2X| aXaX} XX.... . .5XaXsXaXsXdXiXsXsXsXpXuX5X>X:X#X=XOXOX..=X=X",
"..@X5XpXsXuX,XoXQ.E.!.J F J '.Q.Q.*X<XiXhXdX} ..,X=.:X6X3XsXhXhXiX]._.fXaXsXyXqX4X4X2X:X#X@XXX=.| =X",
":XOX2X9X7Xj.b 8 4 4 = > m , i 5 M k.k.n.jXyX    7XaX>XhXgXiX'.`.g j *XgXaXaXyXeXqX5X4X2X:X:XOX ...=X",
">X>X2X$Xn 5 5 v N w w C S b.b.z.c.x.x.B S ).^.G /.hX<X'.hX`.* * i l ).uXsXsXaXrX9X4X2X2X4X2X;X;X=X..",
":X5X7Xn 5 0 v c v N q V D v.m.v.z.x.m.m.B B *X/.J uXW.= ,X, O O f c *XuX7XyXeX9X5X2X2X2X9X2XwX;X) ` ",
"-X3X].5 0 0 c c v q B A D v.{.{.z.x.c.|.m.N {.&XH /.; % , O X * d l _.3X5X9X9XrX2X;X1X:X2X3X3X;X@XO.",
"1XoXM 5 0 x c v v q B A D v.{. Xm.x.m.}.cXw S [.H !.1 X X X . i s W.9X9X5X9X5X2X2X;X=X=X=.;X;X-X@X+.",
"1X(.6 5 w v x c v B B A D v.b.vX}.z.m.k.[.A M 1 F H g % > o O i m '.oX,X9X9X9X2X;X=X=.=.=X;X=.=.;.;X",
";Xn 6 0 N 6 v c q q N A D v.b.|.m.C 9 8 8 7 : F G G : ; 7 9 n C l.e g `.9X7X5X;X;X=.=X=X;X;X2X;X..| ",
"{ b 4 3 q v c c N B N A D v.x.r 9 9 t 3.3.3.n h.9.9.g.r 4.5.0.i.9.w.9.).:X:X@X..=...=X=X=.;X;X:X1XOX",
"XXn 3 # 6 c v c N B N A D z.r 9 r z.3.3.3.3.7.q.e.e.u.y.3.5.0.e.i.w.5.q.).;X#X;X;XO.*.=.=.=.=X=X=X@X",
"OXb 4 # k k z c N B M V l.1.9 r 5.3.3.l.3.4.0.0.e.e.p.f.8.5.0.w.i.s.w.0.q.%X;X:X=.O. .%.%.=X%...OX..",
"=X].4 - 4 a a k z q N S z.e e 5.3.u l.l.3.0.z.0.w.i.i.S.f.0.z.e.i.A.S.5.e.G.oX1X;X*.` ` ` ` ^ ..OXOX",
"4X'.k - # k a d h 6 N l.3.r 1.5.3.3.l.l.4.0.5.0.w.e.y.f.kXy.0.e.i.a.xXC.5.D.B.=.=.=.*.` ~ T U } OX-X",
">X7Xb $ # j k d z z N 5.t r 5.5.u l.Z 3.5.0.5.0.w.i.i.r.vXY.7.w.i.y.xXkX2.e.p..X*.| %.%.~ ~ ` Q | +X",
"..-X/.s # # k k h z y 5.t t 5.3.l.3.u 3.5.0.5.0.w.i.a.r.cXxX2.w.i.r.kXlX7.z.y.,.$. .` ` ` ~ ` ~ ~ | ",
"..%.O.!.# + - l h z y 3.t 1.0.3.l.z.l.3.0.5.5.0.w.8.p.r.Y.lX7.w.i.y.U.zX8.0.y.M._ ` ` ~ ~ ~ ~ T Q Q ",
"`  ...@./.> + @ a z y Z e 1.5.3.3.l.u 3.0.5.5.0.w.e.y.u.U.lX8.w.i.y.U.lXy.5.8.M.^ ~ ` ` ~ ^ ( ` ` ^ ",
"` ` ^ ! Q W R.< E.g.Z e 9 r 5.3.l.l.l.3.0.5.5.0.w.i.p.u.I.lX8.w.i.u.F.lXy.3.8.M.` ` ^ ^ ` ` `  .%.%.",
".. .` } ! L W ( O...h.e 8 e 3.3.u 3.l.3.0.5.5.0.w.i.i.r.I.kX8.w.i.i.I.Y.8.1.e.M.^ ^ ` ` ` ` ) ) W } ",
"| XX....{ | { { } .XV.c.V.G.G.Z.c.3.3.3.0.5.5.0.w.w.p.u.I.Y.8.w.y.y.I.P.7.5.q.M.%.} } }  .} ) ) ^ Q ",
"OX{ +.XX....+.+...&XY.U.F.D.F.G.U.Z.C Z 0.5.5.0.w.e.y.u.I.P.0.w.i.p.I.d.5.5.2.B.;X-X:X:X@X+.+.@.OX=X",
"XX+.XXOXOX{ +.{ +.| <.C.D.D.H.D.F.H.k.M 0.8.0.0.w.i.p.p.P.s.0.w.i.p.K.y.1.5.2._.=.OX:X:X@XOX@X@XOXOX",
"XX+.+.{ { { { +.{ | ) h.c.U.H.H.D.S.n.1.0.5.5.0.w.i.y.s.K.y.0.e.i.s.t.0.3.5.c.+X@XOX@X@X#X#XOXOXOXOX",
"XXXXOX..OX+.{ | { { %XV.C.a.a.C.C.C.A.k.t 5.3.5.0.0.e.s.s.0.0.0.i.s.y.3.3.4.).=.+X;XOXOXOXOXOXXXXXXX",
"{ OXOXOX#X{ +... .L.d.d.d.p.a.a.i.C.D.D.k.5.z.5.0.7.0.i.i.1.5.3.e 8.1.Z 4.g.] ..| ^./.@.@X#XOX{ } } ",
"{ { OXOX+.| .. ..XG.H.H.D.C.A.A.C.D.D.H.c.3.5.5.0.0.e.p.0.3.5.5.M h h z C !.R.) O.>.h /.@X#X.. .[ ! ",
") ) [ { +.OX+...L.d.f.D.G.D.D.A.D.D.H.H.Z.1.0.5.0.0.e.e.3.5.5.w.y k s s s m s E.;.2 j s Q.2X,X5X>X>X",
"#X+.[ [ [ OX...XY.f.s.H.H.D.S.G.H.H.T.Z.M C 5.5.0.0.e.5.1.4.4.t B z l s s i i f E.m a - g >X>X,X>X>X",
"@X#X#X..OXOX=.jXd.t.F.kXG.S.B.R L.U.kXjXj.C 1.5.6.7.n.k.c.M.,.Q.!.b j l s s f f s g d f d '.>X,X>X#X",
"{ +...+.....oXL.J.J.&X&XN.).! Y ).P.jX;X:.2X$X%XN.%X7XeX6X1X:.&.#.!.k d d s s s d s d d d g $X=XXXXX",
"{  . .| ....{ ....O.=X~ W P ( / oX%X-.-.:.:.3X3XrX3XrXrXrXrX5X=X' R h p p - p k l d d l a g Q OXXXOX",
"OX{ ` [ | } } { { XX[ ^ Q {  .' o.o.-.@.:.2XwX6X6XrXrXrXrX5XrXwX1XQ.4 - = & & & f d d k d `.~ W =.XX",
"} } } | ..|  .[ } } ) ( ( | O.OX;.1X5XqXeXtXrXrXwX6X9X9X5X9X1X1X;.-.^.2 * = = & & & % = W.$X$XE R XX",
"^ ! [ | | } [ } ` ` ` O.O.] ` =X2X5X9XeXtXtXrX9XrX6X6X5X2X5X1Xo.&.X.#.&.1 a p - = & X X ~.#X.XoXR ! ",
"} } ......} } ` Q W Q ] @X2X5X3XyX2XOX:X9X2X9X5XwX2X5X2X5X4X4X@.o.o./ E.v s = & % X X > E ` | ..XX..",
"}  ...| |  .}  .} ) ~ ~ ( [ +.@.OX:X;X:X2X5X2X2XwXrX5X5XqX9X4X:X;.*. .1 i % % % X . & R.Y W ! } | =.",
".. ....... .!  . .` `  .+.@.O.OX;X5X9XqXaXsXaXgXdXdXaXeXtXeX9X2X;X;.O.o.R R.J < K K R./ ( ' ) ] ` ` ",
" .%.%. ...OX| ! ` %. .%.O.:X4XqXqXqXqXaXaXaXaXaXaXaXsXeXtXrX9X4X=X;X@.@.X.X./ / / Y / ` _ ` ) ) %.} ",
"| =.=XXX....=X=X` ` ..;X1X9X2X9XqXyXtXsXaXaXaXaXdXsXsXsXeXeXwX2X;.@.;.@.X./ Y U P P Q W Q } @X;X=X=X",
">X:X7XeX6X-XOX-X:X..| =X2X9XqX9XqXtXqXtXtXaXaXaXgXyXeXeXwX6X6X4X;.' @.o./ I P U Q U Q ` } } @X:X6XyX",
"aX4X4XeXyXeX>X:X>X4X;X=.=.-X6XeXeXyXtXtXtXtXsXsX6XeX6X;X2X;X1XwX+.' ' I I P ^ ~ ^ ` ` } ..=.XX:X:X>X",
"yXaXeX7X4X4X4X4XwX>X4X>X;X=X:X6X9XeXtXyXtX9X5X9XqX9XeX:X-.;.-.;X&.Y I P W  .} %.` %.=...XXOX=X:X>X4X"
};
