/* XPM */
static char *f1e12c337e6a4ce3ad746adcabeee034wosn8l1QD0H5TSEF[] = {
/* columns rows colors chars-per-pixel */
"50 50 63 1 ",
"  c #000000",
". c #080706",
"X c #0A0907",
"o c #0C0B09",
"O c #110E0B",
"+ c #13110E",
"@ c #131313",
"# c #191712",
"$ c #1C1A15",
"% c #1E1C18",
"& c #201C16",
"* c #211E19",
"= c #25221D",
"- c #29241E",
"; c #2B281F",
": c #262421",
"> c #2A2621",
", c #2D2924",
"< c #2F2C28",
"1 c #332C26",
"2 c #332E29",
"3 c #382F29",
"4 c #36312C",
"5 c #3A332D",
"6 c #3F382F",
"7 c #373430",
"8 c #3C3631",
"9 c #3E3934",
"0 c #41362D",
"q c #44392E",
"w c #4B3A2D",
"e c #403733",
"r c #433B34",
"t c #4A3E34",
"y c #453E39",
"u c #493F39",
"i c #46403B",
"p c #4B433D",
"a c #534337",
"s c #584637",
"d c #52453C",
"f c #584739",
"g c #54493F",
"h c #634E3D",
"j c #4D4541",
"k c #4E4843",
"l c #504744",
"z c #524A45",
"x c #5B4D42",
"c c #554D49",
"v c #584F4B",
"b c #585047",
"n c #5B534C",
"m c #5C5752",
"M c #604F41",
"N c #645345",
"B c #6A5645",
"V c #66584D",
"C c #725D4C",
"Z c #605751",
"A c #635A53",
"S c #6A6158",
"D c #746B62",
/* pixels */
"                                                 @",
"                                                 @",
"                                                 @",
"                                                 @",
"                                                 @",
"                                                 @",
"                                                 @",
"                                                 @",
"                                                 @",
"                               .O&r-             @",
"                          O%,25uahh3             @",
"                    .o@:4izijlpfsww;             @",
"                $,29ilzczkuyyutasws1             @",
"               oDAmvlliiyreeyryyVaCr             @",
"               XVzmy98yyy97899urxtBq             @",
"                kc7y929yyy3t5lmrxtNr             @",
"                2meyw13jzltxecAyaqx7             @",
"                2cucM33lcltx4vZ7r0f2             @",
"                2zyvM14pclrl3jc<10u<             @",
"                <u9vx,4pclru7jc3eey>             @",
"                :94lz>3jvcee4jc3uee:             @",
"                :84lx,3ucle5,ul383e:             @",
"                <84ld>1ucly5>ep4117*             @",
"                >82lu*3tcje8>yl4317-             @",
"                >e3lf-3illee>pce4;-$             @",
"            @4-#193ii-3pcj7e>ep3;1r5-$O.         @",
"            +41->95pw-3dcj28:eu1=5i9w1>+         @",
"             27%>e4pr*3pjy77*3e3*=1:=**X         @",
"            .<<:>53y6%1uyi56*133%=nij7:o         @",
"             <,:>51r6%>6yr55*138%:<=*=$.         @",
"            .47%:2,93$-35544*>27$%<m77<o         @",
"             74:,,-31#=;11>;=>32@$j<::*o         @",
"             :9:=<=>;@=;;;==$=;;+=b$97*o.        @",
"             -4=:;*;=#==;=&=$=;;+$9i9=:@         @",
"             ,,:=;&==$===;$&$;=&+=p97:<O         @",
"             @<%,;***$*=*&$$=;=&@:i:9<#.         @",
"            o4iipii63===&$%#*===$$7;b9=.         @",
"           ,z9gd6;=6d6;3;*=;=#@*$=92=*=o         @",
"          .Sbi6ii1rpi2ri56q5rbp<#;k<;7:o         @",
"          Xb6,5zipSmrdz9<465;<ri9r7@7=@.         @",
"           -=44=@5mDnr22-,2-*-*5r5&$$%+          @",
"            X>,$o,>55-==>zy519>-+o$==$@.         @",
"              .  ,,3=$%$=,$%-3$#$#oo-=o          @",
"                  o%+$$%+++o>-@$#X               @",
"                      .     .XX.                 @",
"                                                 @",
"                                                 @",
"                                                 @",
"                                                 @",
"@@@@@@@@@@@@@@@@@@@@@@@@@@@@@@@@@@@@@@@@@@@@@@@@@:"
};
