/* XPM */
static char *result[] = {
/* columns rows colors chars-per-pixel */
"64 64 207 2 ",
"   c black",
".  c #080707",
"X  c #090708",
"o  c #17000F",
"O  c #100D0E",
"+  c #1A0112",
"@  c #191415",
"#  c #1B1617",
"$  c #23001C",
"%  c #240B1C",
"&  c #270D23",
"*  c #2A0E26",
"=  c #2F0E29",
"-  c #270521",
";  c #2D1027",
":  c #2F1229",
">  c #321329",
",  c #3E142C",
"<  c #301227",
"1  c #2F1934",
"2  c #321331",
"3  c #341C36",
"4  c #391D36",
"5  c #371F3B",
"6  c #3A1E39",
"7  c #272021",
"8  c #282021",
"9  c #302729",
"0  c #362C2E",
"q  c #36203D",
"w  c #3B213C",
"e  c #3B2134",
"r  c #3D3133",
"t  c #43162D",
"y  c #45182F",
"u  c #541B33",
"i  c #5B1E37",
"p  c #5C1F38",
"a  c #47253F",
"s  c #47393C",
"d  c #443638",
"f  c #6A223B",
"g  c #66213B",
"h  c #70243D",
"j  c #3E2644",
"k  c #3D2948",
"l  c #3E2947",
"z  c #412644",
"x  c #432A44",
"c  c #452C4B",
"v  c #492E4B",
"b  c #4C2A44",
"n  c #493045",
"m  c #4A334C",
"M  c #52354C",
"N  c #53394C",
"B  c #4C3355",
"V  c #4F3853",
"C  c #4F395B",
"Z  c #533B53",
"A  c #583F52",
"S  c #543D5A",
"D  c #583F5C",
"F  c #532646",
"G  c #742640",
"H  c #752A42",
"J  c #7B2842",
"K  c #612F50",
"L  c #612A4D",
"P  c #543F61",
"I  c #4F4042",
"U  c #544246",
"Y  c #58474A",
"T  c #594052",
"R  c #5C445E",
"E  c #5B4755",
"W  c #644D51",
"Q  c #60495F",
"!  c #655255",
"~  c #73595D",
"^  c #594566",
"/  c #5E4C70",
"(  c #634C63",
")  c #674B67",
"_  c #68526D",
"`  c #795E63",
"'  c #695171",
"]  c #735B78",
"[  c #714B6A",
"{  c #7B6368",
"}  c #75637C",
"|  c #832A45",
" . c #8B2D48",
".. c #88344C",
"X. c #8B3B53",
"o. c #873951",
"O. c #8F455D",
"+. c #90465D",
"@. c #BE515F",
"#. c #94655B",
"$. c #924E64",
"%. c #955166",
"&. c #9B546A",
"*. c #9D5469",
"=. c #A8576A",
"-. c #A15A70",
";. c #B35566",
":. c #83656B",
">. c #9E6E68",
",. c #976969",
"<. c #9E746D",
"1. c #906E73",
"2. c #9C6F75",
"3. c #9E7971",
"4. c #99777D",
"5. c #896F74",
"6. c #A86864",
"7. c #AC6B7B",
"8. c #A57E78",
"9. c #A47977",
"0. c #AB7069",
"q. c #C65B6A",
"w. c #D16472",
"e. c #CC707C",
"r. c #A5817B",
"t. c #7B6382",
"y. c #846988",
"u. c #9A7D82",
"i. c #88788F",
"p. c #AB6F83",
"a. c #BD6B82",
"s. c #A97A84",
"d. c #B37A8D",
"f. c #BC7687",
"g. c #B97F92",
"h. c #C97B8E",
"j. c #C67987",
"k. c #C17590",
"l. c #C06E84",
"z. c #A8858B",
"x. c #B4848B",
"c. c #BE8393",
"v. c #BC8C94",
"b. c #B58F96",
"n. c #B6939A",
"m. c #BE99A0",
"M. c #DD848B",
"N. c #D6828E",
"B. c #CE879E",
"V. c #C5899B",
"C. c #CC8E9C",
"Z. c #C58497",
"A. c #D98B9A",
"S. c #D68895",
"D. c #C6939C",
"F. c #D3949F",
"G. c #C6818C",
"H. c #E18E94",
"J. c #E49399",
"K. c #E59297",
"L. c #C59AA3",
"P. c #D397A5",
"I. c #D89BA6",
"U. c #E297A2",
"Y. c #E59CA6",
"T. c #E59EAB",
"R. c #EB9DAB",
"E. c #D5A3AD",
"W. c #D3ACB3",
"Q. c #D5B3B7",
"!. c #C7A2A9",
"~. c #E5A1AE",
"^. c #EAA3AC",
"/. c #E8A7AB",
"(. c #EBA5B2",
"). c #ECABB5",
"_. c #EDADB9",
"`. c #E5A9B7",
"'. c #F2A5B2",
"]. c #F4ADBC",
"[. c #F2A9B7",
"{. c #EEB1BD",
"}. c #F7BAB6",
"|. c #F4B2BC",
" X c #F7B9BD",
".X c #F6B4B6",
"XX c #F2A4AD",
"oX c #E6BCC4",
"OX c #ECB7C3",
"+X c #F1B6C1",
"@X c #F4BAC4",
"#X c #F2BCCA",
"$X c #F9BEC9",
"%X c #F9BDC7",
"&X c #EDC1CA",
"*X c #F9C2C6",
"=X c #F5C2CB",
"-X c #FAC4CB",
";X c #FCCBCD",
":X c #FBC5C7",
">X c #FBD0CE",
",X c #FCCBD3",
"<X c #F7C9D2",
"1X c #EFD6D2",
"2X c #FFD2D5",
"3X c #FFD1DA",
"4X c #FFDCDD",
/* pixels */
"                                                                                                                                ",
"                                                                                                                                ",
"                                                                                                                                ",
"                        W.1X1X1X1X1X1X1X1X1X1X1X1X1X1X1X1X1X1X1X1X1X1X1X1X1X1X1X1X1X1X1X1X1X1X1X1X1X1X1X1X1XQ.                  ",
"                        <XP.B.B.B.B.B.B.Z.h.h.h.h.h.h.h.h.h.h.h.h.h.h.h.h.h.h.h.a.a.a.f.k.k.l.a.a.k.k.k.k.k.oX                  ",
"                        &XOX3X2X4X4X4X4X4X>X>X>X>X>X;X2X>X>X>X>X>X>X>X2X>X>X>X>X>X>X2X4X4X4X>X;X4X4X4X3X3XT.W.                  ",
"                        Q.OX3X=XP.P.P.P.P.P.P.P.P.P.P.P.P.P.P.P.P.P.P.P.P.P.P.P.P.P.P.P.P.P.C.C.C.C.F.3X3X(.!.                  ",
"                        W.-X3X=X{.#X#X#X#X#X#X#X#X#X#X#X#X#X#X#X#X#X#X#X#X#X#X#X#X#X#X#X#X#X#XOX`.`.S.3X3X_.n.                  ",
"                        L.#X3X#X=XO.H H H H h H H h H h H H H h H H H H h h H h H h H H h H H H O.3XA.3X3X~.z.                  ",
"                        L.@X3X=X=XX.u , , , t t y t y t y y y y t t t y y y y y y y y y t t t g o.3XS.3X3X~.u.                  ",
"                        n.@X3X@X=XX.u ; ; ; ; : > > > > > > > > > > > > > > > > > < > > ; ; ; p X.3XA.3X3X~.:.                  ",
"                        z.@X2X{.@XX.u ; ; ; : ; ; > > > > > > > > > > > > > < > > > < > : ; ; p O.3XA.3X3X_.{                   ",
"                        u.+X3X+X@XO.u ; ; ; > > > % + + % < > > > , > > , # + o % > > : = : = p $.3XA.3X3X(.!                   ",
"                        u.OX3X+XOX%.u ; > ; ; > & o o o + % > , > > > > % + o o + 8 > < < : < G %.3XA.3X3X~.Y                   ",
"                        5.+X3X#X+X%.u ; ; 3 w w % + + % + $ n n N n n x $ $ $ $ $ * n m v : : G &.,XN.3X3XT.s                   ",
"                        { {.3X,X^.%.u ; > e w a $ $ $ $ $ $ e x N N n e $ $ $ $ $ $ a r m : ; G *.(.U.3X3X(.9                   ",
"                        ` +X3X,X(.&.u : < e > $ $ $ $ $ $ $ $ = M m = $ $ $ $ $ $ $ $ 2 m > > J *.^.J.2X,X{.@                   ",
"                        ! {.$X%X(.&.u : : w 2 $ $ $ $ $ $ $ $ = M N = $ $ $ $ $ $ $ $ > m > ; h *.^.Y.3X@X|.X                   ",
"                        E _.].@X(.-.u ; ; a w $ $ $ $ $ $ $ $ = N A = $ $ $ $ $ $ $ $ > m < > h 7.^.U.3X@X`.                    ",
"                        Y _.].@X`.&.i = ; w w $ $ $ $ $ $ $ $ = A T = $ $ $ $ $ $ $ $ 2 m < > H 7.^.U.3X@XE.                    ",
"                        N [.+X+X^.p.f ; ; w 4 $ $ $ $ $ $ * - = T T > $ $ $ $ $ $ $ $ 4 n > ; J f.^.Y.3X@XE.                    ",
"                        d '.].+X(.d.f < < e 4 $ $ 5 c C ^ / 2 > T T 4 $ $ $ = 2 x c c 6 x ; >  .f.J.{.3X`.m.                    ",
"                        r ~.].+X(.d.f ; ; a 4 $ $ / / / / / c 6 A A n C ^ / / / / / S 6 a > ;  .f.J.).2X(.b.                    ",
"                        9 _.+X|.T.c.f ; ; w 4 $ - P / / / / / Z A A V / / / / / / / C 4 x > >  .G.J.{.2X(.z.                    ",
"                        ; ).|.+X(.c.f ; < w 4 $ $ C / / / / / C R ( V / / / / / / / C 6 x ; >  .G.J._.3X+X4.                    ",
"                        @ _.|.|.~.V.f ; < 4 w $ $ S / / / / / S ( ( C / / / / / / / C 4 x : >  ./.J._.3X_.:.                    ",
"                        O _.].].^.C.f ; ; w x $ $ C / / / / / S R ( S / / / / / / / C e a ; ;  ./.J.@X2X^.`                     ",
"                        X _.].+X^.C.f ; : e x $ $ B / / / / / S R Q S / / / / / / / C e x ; >  .}.H.;X2X~.W                     ",
"                          `.].+X(.oXf : : w j $ $ z / / / / / S R Q B / / / / / / / C l a > y  .}.M.;X2X_.U                     ",
"                          E.[.|.^.&Xf ; : e w $ $ z / / / / / B R R m / / / / / / / C q l ; y  .}.M.;X2X).s                     ",
"                          P.^.|.).&XJ ; * 6 w $ $ z / / / / / m D R m / / / / / / / R w w ; y  .}.M.;X2XY.0                     ",
"                          P.'.]./.2X| ; ; 6 w $ $ z / / / / / B D D v / / / / / / / C a w ; t | }.N.;X2XY.8                     ",
"                          D.(.[./.2X| * * 4 w $ $ 3 / / / / / V D D v / / / / / / / C w j ; y o.}.A.;X2X).@                     ",
"                          v.'.]._.2X| * ; 6 w $ $ 2 / / / / / V D D m / / / / / / / C w 6 * y ..}.K.;X2X_.                      ",
"                          z.'.].).2X .* * 3 j = $ 2 / / / / / B S S B / / / / / / / C 5 6 * t o.}.M.>X:X`.                      ",
"                          z.'.].).2X .& L [ ^ ' 6 2 / / / / / B V v c / / / / / / / P w 3 * i o.}.M.2X;XI.                      ",
"                          4.'.].).2XO.% L [ w 6 6 = / / / / / v x c 5 / / / / / / / P j 3 * i X.}.K.2X-XD.                      ",
"                          4.R.].).>Xo.% a K w * $ $ / / / / / w c c 5 _ / / / / / / P w 3 * i X.;XJ.2X-Xz.                      ",
"                          1.^.-X).2XX.& F ' j v m m v m m m m c j z x m B m m B B m v k 3 * i O.2XY.2X@X8.                      ",
"                          :.@X,X^.2XX.; F _ k j k j j j k i.] ] t.y.y.y.y.i.z j j j j j 3 * i $.2X^.2X X1.                      ",
"                          { @X3X/.*XX., > m j j j l j l j ] _ _ ] t.t.] ' } j k j l j j 3 * i %.:X^.2X@X:.                      ",
"                          ~ +X3X/.@XX.t * w j 3 3 3 3 3 1 3 q w l j k 5 1 5 5 3 3 1 5 q 3 * i %.-X^.2X=X~                       ",
"                          W @X3X).*XX., * q j q Z Z ( ) ( R n q k j k 4 Z U ^ ^ ( Q m q 1 * g &.-X^.;X[.W                       ",
"                          Y |.3X).*X+.t * w j 1 k k k k k k q q j j k 1 l l l k l l q q 3 * G &.-X^.].R.U                       ",
"                          U (.3X_.$X$., * w j 1 k k k k k k q 5 j j j 1 j k k k l l q 5 1 * G &.;X(.].R.d                       ",
"                          d |.3X_.=X$., * q j 1 k k k k k k q 5 j j j 1 j k k k l l 5 5 3 * G p.-X(.].(.0                       ",
"                          r _.3X_.=X&., * w j 1 k k k k k k q 5 j j j 3 j k k k l k j 5 2 * G d.%X(.].(.7                       ",
"                          0 |.3X).*X&., * w j 1 k k k k k k q 5 j j j 1 j j k k l l 5 5 : * G x.%X'.].Y.@                       ",
"                          8 +X3X_. X&., * w j 3 k k k k k k q 5 j j k 1 j k k k k k j q 2 * G g.$X(.].Y.X                       ",
"                          # |.3X_.|.&.t & j j 1 k k k k k k q 5 j j k 1 k k k k k k 3 3 : * J Z.$X(.+XT.                        ",
"                          @ {.3X_.|.-.u * 5 k 1 k k k k k k q 5 k j k 1 k k k k k k 3 q 2 *  .V.$X=X3XP.                        ",
"                          O `.3XOX|.d.u * 5 j 1 k k k k k k q 5 j k k 1 k k k k k k j q : *  .L.$X=X,XZ.                        ",
"                            (.3X|.|.d.u * w k 1 k k k k k k 5 q c B B 1 k k k k k k j 1 1 & | oX+X$X,Xs.                        ",
"                            ~.3X].+Xd.u * 5 j 1 k k k k k k 5 j B B B 1 k k k k k k q q 2 *  .&X].-X-Xp.                        ",
"                            F.,X(. Xg.u * w j 1 k k k k k k 5 j B B B 1 k k k k k k q 3 2 &  .<X[.<X,X1.                        ",
"                            F. XR.+Xg.u * w j 1 k k k k k k q j B B B 1 k k k k k k 3 j : ;  .3X].-X-X:.                        ",
"                            C. X^..XZ.u * w j 1 k k k k k k q j B B B 1 k k k k k k q 5 : *  .3X[.,X#X~                         ",
"                            G. X/.'.V.u * 5 j 1 k k k k k k q j B B B 1 k k k k k k q q : >  .3X[.3X$XW                         ",
"                            x..X/.'.P.u * 5 j 3 k k k k k k q j B B B 1 k k k k k k q 6 1 t  .3X(.3X$XU                         ",
"                            s..X^.(.&Xi * w j 1 1 1 1 1 1 1 1 k B B B 1 1 1 1 1 1 1 1 e * t o.3X(.3X@Xd                         ",
"                            9.].^..X=Xf * j j m n Z T T T V V c B B B v B B B m m n m l * t X.3X'.3X].0                         ",
"                            2..X/..X<Xf * w j j l l j k c B B B B B B B B B B c z j l l * t X.3X].3X{.;                         ",
"                            ,..X).}.:X6.#.,.>.>.<.,.<.<.9.9.9.8.8.r.8.r.r.r.r.3.3.3.3.3.,.#.0.:X X2X).#                         ",
"                            W v.e.w.w.w.w.w.w.q.@.@.w.w.w.w.w.w.w.w.w.w.q.@.@.@.@.@.q.w.;.;.;.e.e.e.b..                         "
};
