/* XPM */
static char *d131d3100d0d4b92c5553b9a41cfe39a3EPSJMSyBDdL7oTL[] = {
/* columns rows colors chars-per-pixel */
"50 50 210 2 ",
"   c #0E0709",
".  c #0F0E0A",
"X  c #110D0B",
"o  c #14120E",
"O  c #15190F",
"+  c #160E11",
"@  c #180E10",
"#  c #161511",
"$  c #191613",
"%  c #1C1A15",
"&  c #1F1C19",
"*  c #211D16",
"=  c #221519",
"-  c #221E1A",
";  c #2B1D1E",
":  c #1E2818",
">  c #25221D",
",  c #29251E",
"<  c #25291C",
"1  c #281E21",
"2  c #262421",
"3  c #2A2621",
"4  c #2D2923",
"5  c #2F2C29",
"6  c #312627",
"7  c #322C26",
"8  c #352B28",
"9  c #342E2A",
"0  c #3C2D2C",
"q  c #283420",
"w  c #373729",
"e  c #36312C",
"r  c #3B342D",
"t  c #3C2F31",
"y  c #3C3631",
"u  c #3E3933",
"i  c #442F29",
"p  c #41362D",
"a  c #49352E",
"s  c #44392E",
"d  c #4C3B2E",
"f  c #403734",
"g  c #433B34",
"h  c #4B3E33",
"j  c #423538",
"k  c #453E39",
"l  c #493D3A",
"z  c #543D37",
"x  c #2C4827",
"c  c #3F462F",
"v  c #39572D",
"b  c #3C4430",
"n  c #3B6934",
"m  c #414D2F",
"M  c #4D4035",
"N  c #474837",
"B  c #46413B",
"V  c #4B433D",
"C  c #554333",
"Z  c #5B4534",
"A  c #53463B",
"S  c #56493D",
"D  c #5B4A3B",
"F  c #495938",
"G  c #585F3D",
"H  c #634F3E",
"J  c #436736",
"K  c #4E613C",
"L  c #4D6A3D",
"P  c #51653C",
"I  c #526C3D",
"U  c #547B3A",
"Y  c #61663E",
"T  c #4C3E40",
"R  c #4D4542",
"E  c #4F4943",
"W  c #514643",
"Q  c #534B45",
"!  c #5A4F45",
"~  c #52474A",
"^  c #554D4A",
"/  c #5A4F4B",
"(  c #5C5147",
")  c #565F42",
"_  c #57514C",
"`  c #59574A",
"'  c #5A534C",
"]  c #5D5651",
"[  c #5E5853",
"{  c #63564A",
"}  c #65584A",
"|  c #71594D",
" . c #665756",
".. c #635B53",
"X. c #546541",
"o. c #5A6A42",
"O. c #5C654C",
"+. c #527E44",
"@. c #587E44",
"#. c #61674D",
"$. c #616F49",
"%. c #647748",
"&. c #6A6155",
"*. c #666C52",
"=. c #686C54",
"-. c #66605A",
";. c #6D655D",
":. c #796050",
">. c #72695E",
",. c #677855",
"<. c #6C7058",
"1. c #75785C",
"2. c #6C6660",
"3. c #746A62",
"4. c #7D7369",
"5. c #827970",
"6. c #4A843E",
"7. c #4D8F45",
"8. c #5C8843",
"9. c #5A994B",
"0. c #639449",
"q. c #66994A",
"w. c #668952",
"e. c #728E52",
"r. c #6B9A56",
"t. c #709952",
"y. c #5FB14F",
"u. c #5CAC52",
"i. c #56B556",
"p. c #5BBB56",
"a. c #67A04D",
"s. c #6BA24D",
"d. c #6AA94D",
"f. c #6EA550",
"g. c #62AE51",
"h. c #6EAA54",
"j. c #6CAD59",
"k. c #74A957",
"l. c #7DA45F",
"z. c #64B451",
"x. c #69B252",
"c. c #63BC56",
"v. c #6DBD55",
"b. c #64BD58",
"n. c #6EB95C",
"m. c #74B052",
"M. c #79B354",
"N. c #73BC54",
"B. c #74B65A",
"V. c #76BE5C",
"C. c #7BBD5B",
"Z. c #7C8166",
"A. c #5BC15A",
"S. c #6DC156",
"D. c #67C55C",
"F. c #6CC35A",
"G. c #6CCA5C",
"H. c #74C456",
"J. c #7AC757",
"K. c #76CA57",
"L. c #7BCC57",
"P. c #73C65A",
"I. c #7CC55B",
"U. c #75CA5B",
"Y. c #7BCD5B",
"T. c #6DD35E",
"R. c #73D15D",
"E. c #7DD25C",
"W. c #7EDA5C",
"Q. c #74CE60",
"!. c #79CE61",
"~. c #6ED862",
"^. c #75D261",
"/. c #7DD461",
"(. c #75DA64",
"). c #7DDA63",
"_. c #82BC56",
"`. c #899F68",
"'. c #82C45A",
"]. c #81CE5B",
"[. c #83D35D",
"{. c #8AD55E",
"}. c #85D95F",
"|. c #8ADA5F",
" X c #92D95F",
".X c #85E05F",
"XX c #96C867",
"oX c #83D561",
"OX c #8CD661",
"+X c #85DB62",
"@X c #8BDC62",
"#X c #93DD63",
"$X c #94DB67",
"%X c #99DF63",
"&X c #9DDA70",
"*X c #8DE165",
"=X c #8AE568",
"-X c #8EE568",
";X c #94E465",
":X c #9AE666",
">X c #95E866",
",X c #9BE967",
"<X c #95E669",
"1X c #9AE46A",
"2X c #94E969",
"3X c #9CEB69",
"4X c #9CF16B",
"5X c #A1ED69",
"6X c #A1F06A",
"7X c #A0F86D",
/* pixels */
"3X3X5X5X5X,X:X;X;X@X@X@X2X<X>X,X<X<X-X>X;X+X=X*X+X(.^.~.G.D.p.D.F.U.F.L.E.W.}.[.}.{.+X@X+X@X@X}.;X:X",
":X5X5X,X,X5X:X;X>X$X#X@X;X>X,X3X3X*X).oX*X=X+X+X+X/.Q.G.G.D.D.G.R.E.U.P.C.l.f.}.[.}.@X@XOXoXOXOX{.>X",
"3X3X3X5X5X:X:X:X>X;X;X;X;X>X:X,X>X!.R./.+X+X).).(.^.~.~.T.Q.!.!.t.e.Y H { z o.;X+X+XOXOXoX].Y.OX}.#X",
"#X:X5X5X3X:X<X:X<X;X;X;X>X>X,X3X@XU.U.G.^.).(.R.Q.F.j.k.w.=.] R l l C Z C a %..X{.{.oX}.oXoX].[.+X|.",
"#X|.:X5X3X:X>X>X>X;X;X;X>X>X:X,X}.Y.Q.Q.F.j.r.,.O._ Q l u u k l A D D M d i %.;X@XOX}.[.oX[.oXY.[.;X",
";X>X#X;X:X<X:X>X>X>X>X;X;X3X3X$XXX`.,.O.] R T T V R V B T R R V M D C g d i P ;X@X+XOX}.+XOXoXY.Y.oX",
"[.;X3X3X;X<X>X;X:X>X:X;X1X`.1.-.` ~ R R R R R E R V k k k f g g g M } Z d } G +X;X@X{.oX[.}.OX[.K.U.",
"U.{.5X6X3X:X:X;X;X;X>X>X&X/ /  .^ Q R E R k k k g y r f l g f W W B { M Z :.P  X@X+X}.[.[.E.Y.+XoXU.",
"E.[.>X3X5X6X:X<X>X>X:X3X5X..! ] ^ T p r u k f u B k u y k R u u u f S d C | o..X;X*X@X}.[.E.U.[.+X+X",
"*X}.@X>X>X3X6X6X4X:X3X3X&X..A l u k y r k R V l k e 6 p 7 9 ^ ] k g A h M | $.;X;X*X;X*X[.E.[.E.[.#X",
";X@X;X;X;X*X@X}.+X+X*X@X@X<.R V y e s 7 > 9 V Q R R r D y k 4...B g D h d } o.;X*X*X;X*X+X-XE.F.Y.+X",
"@X;X>X<X>X>X;X{.E./.E.=X<X=.W R W g Z r 3 g ^ ' ^ B s { e g 3...R g h p s ( X.@X*X+X=X;X-X*XE.G.U.oX",
"+X@X;X2X<X:X5X5X:X2X@XoX+X=.R k ^ A D s 6 r Q ! / V s { 0 g 3. .k u k p g W X.@X+X+XoX*X*X*X+XE.R./.",
"+X+X@X;X<X:X:X1X:X3X2X2X<X<.R R ^ W H r 3 e ^ ^ ^ W p ! e y .._ y e r s f l K +XoX/.oX/.oX/.+XoXoXoX",
"@X+X+X+X*X2X:X,X3X3X<X2X2X<.k T Q W H r 4 r R ^ ~ R f Q r f ..Q y e 7 f r l X.^.oX/.oX+X@X).!.E.}.+X",
"].[.[.{.}.#X>X:X:X3X:X;X<X*.u y V V H 0 4 r R _ ~ R y V r g ..^ y r g h y f ) /./.oX).+X*X=X+XY.P.L.",
"Y.[.OX{.].{.%X1X X;X:X;X$XO.y e k R ! 9 ; p V _ ^ W r k 9 r } _ y y V g r 0 L W.U./././.oXoX+X+XoXY.",
"[.].{. X$X#X%X%X%X X X:X$XO.9 9 k R S p > k E _ ^ W r f 3 9 ' ^ y g k f f y P oX^.R././.!.].[.E.[.[.",
"].#X X$X%X%X%X{.#X{.].#X;X*.5 9 k A ( r , C V _ ~ V y V ; 8 ' W e r r e y t P ).G.F.G.Q.P.Y.].].].[.",
"$X:X X X{.{. X].H.].{.+X$X=.7 e k V S 7 * g V ~ _ W r k > 7 Q V r r 7 6 f 8 I )./.P.b.i.p.n.oXOXOX#X",
" X%X%X%X{.].].].J.J.[.{.;X*.6 4 g R A 7 * h V ^ ^ V r k * 7 ..W y y 9 7 y 6 L ).U.Q.F.c.b.c.I.oX{.@X",
"].{.{.OX X{.{.'.N.].].[.#X#.8 6 u k S w - h V ~ R R r V > 9 ..Q g f r 3 e 3 L U.F.F.D.c.F.D.D.U.'.Y.",
"!.Y.I.I.N.S.N.J.].{.[.J.@X*.0 7 u R Q 0 > r h ^ W W r l , 7 &.Q f g 7 5 3 = J G.G.G.G.D.b.c.c.b.P.Y.",
"P.U.Y.].{.].}.[.e.%.G m m g y 9 u T V 9 ; g A _ ~ k 9 g ; 4 ..V r r 5 3 g V ) w.w.@.+.g.b.D.F.v.F.P.",
"F.F.F.v.z.z.v.Y.N 1 - 2 $ 6 h e g V M 6 - A ! ^ ^ l 4 f 2 6 ^ V 7 e > 0 { V V d i , = J Q.P.G.U.!.Y.",
"Y.P.P.S.z.y.z.S.g.R e 3 & r k 9 u R h 4 > M Q W W B 4 u > 3 V A 4 e - , 7 * 3 3 * > - J Q.F.c.S.U.U.",
"L.Y.Y.L.K.K.K.L.a.e 5 2 % 5 k 7 9 k h 4 - k Q V R g 5 u ; > V r u k & & e y 3 3 2 - & 9.G.v.S.S.H.K.",
"[.Y.].Y.L.E.Y.}.8.9 u e & e f , 9 l g 4 * g V l R l 5 g > , g r 7 y & $ B ;.B _ R 4 - q..XE.[.}.}.[.",
"Y.].[.[.Y.Y.L.[.a.u 5 5 > 9 r 3 9 g g 2 * p V g B V 4 g > , p u e u & > w 2 # 5 2 > % d..X[.[.[.[.[.",
"Y.L.Y.L.Y.L.E.L.k.5 5 2 % 5 e 4 9 k g 2 # w f g r r 9 g * , u 9 e y % 2 b 9 E > 9 2 3 h.|.[.[.[.L.Y.",
"[.[.L.].[.[.K.L.h.e e 2 - 4 7 3 7 f r > $ w 9 w p r 7 r * , w 7 y y % & & _ 2.9 ' 5 4 s.*XY.].Y.[.].",
"].L.[.{.}.H.Y.W.j.B y > 5 5 7 , > 7 r * $ 7 7 7 7 4 , 7 % , w , 5 e # # e y > > & & & a.@XJ.F.H.K.Y.",
"H.L.Y.[.Y./.Y.U.j.4 2 > & 2 5 < > 7 7 % O 4 4 < 7 , > < % > 4 , 4 7 O o -._ o u R : & 0.+X].Y.K.v.S.",
"K.F.S.K.E.oXE.E.n.y E e & 3 5 > * 3 7 O $ , 4 , < , * 4 # % , 4 > , @ O u 2 # u k 2 & k.:X$X%X;X#X{.",
"%X+XY.P.Y.].Y.L.x.w 2 2 & 4 5 & % , 4 $ % , 4 , , , % , # % , , > , $ O R R [ b 2 & 2 w.;X$X$X#X#X#X",
"E.}.{.Y.].oX[.[.B.B 5 7 2 4 3 % > 4 > & > , > , , > o > # > , > $ , $ o y e y R 5 5 2 8.:XOX}.}.oX}.",
"L.P.U.Y.E.Y.Y.[.M.> > % # < 3 % $ > - # % < , > > % % & % , 7 , O > $ $ ..B o & - % % q.+X[.[.Y.Y.Y.",
"L.P.U.J.P.P.H.E.N.< 9 r 3 B e 4 , > > * - * % % * % % & > , 4 > * 4 % O e > u [ -.3 < I.c.P.Y.}.].Y.",
"Y.P.P.P.L.P.P.Y.t.B Q V V V B R V V r 7 - 4 > * $ > - $ % > > < > 7 $ o E 9 5 E u 5 > _.;Xu.N.[.[.Y.",
"v.v.P.J.J.K.h.<.B 9 ( ` V r 9 7 , f M k r 4 9 u $ * > % 3 % . O o , # o y 5 4 & & & & s.;X].u.v.P.J.",
"F.P.P.Y.K.K.Z. .B M u 3 u w 7 , > B ! B r e V 4 p r r p 4 r u 4 4 > > 5 _ ] V > _ 5 1 9./.Y.Y.H.F.P.",
"P.U.U.L.Y.V.>.` A g e g ..k r ! _ [ g * g Q R y w p g B 7 V ;...^ < o & u w o 7 y 2 $ 6.G.P.L.[.Y.P.",
"U.P.U.U.E.n...B 3 < u R ^ u ! ' ' E r ^ &.R e 5 7 V g u 4 $ > , y E E V B > $ u 3 # o 7.G.F.G.P.U.Y.",
"Y.!.Y.U.Y.E.$.+ 4 N 9 7 o X e ( 4.5...g 4 4 e > $ > * % . 7 , - 7 g R V 4 & o % 4 % # y.G.F.F.F.F.Y.",
"U.!.].!.Y.[.I.8.b 2 3 >   o 4 g g V Q u 4 7 y < V V E V 3 y 4 2 4 4 $ o % $ , % o o & g.E.[./.Y.Y.Y.",
"@X@X#X:X#X[.}.>XV.X.w w U '.c > > 4 < - & - $ X ( g 3 e & y u < % % $ o X & $ ; 9 X < x.E.@X:X3X:X;X",
"1X;X;X,X1X:X#X+X;X-XE.Y.*X4X%.5 1 j + % % > & # e % $ % $ e 5 % % & $ X x 9.n F 7 q d.!.Y.@X+X;X:X3X",
"5X3X:X;X;X;X;X;X@X;X;X@X/.@X@XM.q.o.> > - $ - $ O * * % $ 6 & o @ X $ v P.R.R.G.x.H.oX[.oX+X;X#X#X,X",
"3X3X:X3X,X>X;X#X;X$X*X;X@X@X>X4X7X>X@X'.m.q.q.f.I.'.I.x.9.8.q : x n 7.F.U.P.P.U.[.}.}.OX[.oX;X;X,X3X",
"5X3X3X5X3X:X;X;X*X@X@X;X@X;X<X<X:X<X3X3X<X2X2X-X2X=X=X^.(.~.A.i.i.A.G.U.Y./.Y./.}.+X@X@X@X}.{.$X:X3X"
};
