/* XPM */
static char *result[] = {
/* columns rows colors chars-per-pixel */
"64 64 224 2 ",
"   c #000000",
".  c #0B0501",
"X  c #0C0902",
"o  c #110501",
"O  c #160D04",
"+  c #1C0D01",
"@  c #1B0700",
"#  c #1B1403",
"$  c #13100A",
"%  c #240C01",
"&  c #2C0D03",
"*  c #350D01",
"=  c #231503",
"-  c #2B1A03",
";  c #26170B",
":  c #341C02",
">  c #381705",
",  c #332401",
"<  c #3C2508",
"1  c #3B310F",
"2  c #382E17",
"3  c #342D21",
"4  c #3A3224",
"5  c #4A0F01",
"6  c #411502",
"7  c #491901",
"8  c #531B02",
"9  c #581804",
"0  c #671A02",
"q  c #7A1B04",
"w  c #492805",
"e  c #542A05",
"r  c #4B3508",
"t  c #5B3B08",
"y  c #44381C",
"u  c #583919",
"i  c #682D02",
"p  c #612904",
"a  c #752202",
"s  c #6F3509",
"d  c #423624",
"f  c #554604",
"g  c #574010",
"h  c #6B460B",
"j  c #6E5101",
"k  c #7A570C",
"l  c #674B14",
"z  c #7C461A",
"x  c #765112",
"c  c #554C2F",
"v  c #786027",
"b  c #756C5C",
"n  c #911F01",
"m  c #8B2B01",
"M  c #8A2106",
"N  c #992803",
"B  c #8A3804",
"V  c #943C02",
"C  c #AB2201",
"Z  c #AB3205",
"A  c #A33303",
"S  c #CB1901",
"D  c #C82802",
"F  c #D32501",
"G  c #DA2400",
"H  c #DE2D00",
"J  c #D22802",
"K  c #CA3903",
"L  c #DD3402",
"P  c #DA3B02",
"I  c #D53703",
"U  c #E13200",
"Y  c #E63A00",
"T  c #864907",
"R  c #994205",
"E  c #8A5908",
"W  c #855F1D",
"Q  c #A64C04",
"!  c #B34E04",
"~  c #A45A07",
"^  c #BD5A06",
"/  c #976907",
"(  c #8E6516",
")  c #966818",
"_  c #8E6D10",
"`  c #BF7102",
"'  c #AA6F0B",
"]  c #A26226",
"[  c #C84506",
"{  c #D84303",
"}  c #C85702",
"|  c #DB5C0A",
" . c #E34401",
".. c #EA4200",
"X. c #E64B03",
"o. c #EA4D00",
"O. c #F14E00",
"+. c #E75202",
"@. c #EB5403",
"#. c #EB5B04",
"$. c #EA5C08",
"%. c #F65601",
"&. c #F25C01",
"*. c #C36601",
"=. c #DD7C0E",
"-. c #D0730E",
";. c #EE6202",
":. c #EA6509",
">. c #ED6F0A",
",. c #F56403",
"<. c #FB6301",
"1. c #F36B03",
"2. c #F86B02",
"3. c #F16F0D",
"4. c #EE7908",
"5. c #F37302",
"6. c #F97304",
"7. c #F57B04",
"8. c #F97B04",
"9. c #F87608",
"0. c #F37C0A",
"q. c #F87C0A",
"w. c #F47008",
"e. c #EF7E1A",
"r. c #BA8B07",
"t. c #BC9218",
"y. c #AD8310",
"u. c #BB8F3D",
"i. c #AB8D24",
"p. c #D99F00",
"a. c #DD8F12",
"s. c #C78F08",
"d. c #ED8105",
"f. c #F48303",
"g. c #F98501",
"h. c #FB8C01",
"j. c #F9820C",
"k. c #F88909",
"l. c #EB960A",
"z. c #F69301",
"x. c #FC9400",
"c. c #F69C05",
"v. c #FD9A01",
"b. c #FD940B",
"n. c #FB9A0C",
"m. c #F4970C",
"M. c #F78519",
"N. c #E69D1A",
"B. c #F89817",
"V. c #E58F14",
"C. c #D4A50F",
"Z. c #E0AC02",
"A. c #E2AA08",
"S. c #FCA301",
"D. c #FDAB02",
"F. c #FBA40D",
"G. c #FDAE0B",
"H. c #F6A909",
"J. c #E6B90D",
"K. c #FEB403",
"L. c #FEBB02",
"P. c #FEB20C",
"I. c #FFBA0B",
"U. c #F3B504",
"Y. c #E7A418",
"T. c #FDA414",
"R. c #FEAC1C",
"E. c #FDB413",
"W. c #FFBC13",
"Q. c #FFBD1A",
"!. c #F8B616",
"~. c #E7B510",
"^. c #CC9D33",
"/. c #F19520",
"(. c #FA933D",
"). c #DCB22A",
"_. c #F7A724",
"`. c #E8B424",
"'. c #FDB422",
"]. c #FEBC23",
"[. c #FEBD29",
"{. c #ECAB2D",
"}. c #FEC401",
"|. c #FFCD00",
" X c #FCC10B",
".X c #F6C50C",
"XX c #FFD100",
"oX c #FFD10B",
"OX c #FFCA15",
"+X c #FFC31D",
"@X c #FFCC1C",
"#X c #FFC615",
"$X c #FFD515",
"%X c #FFD51C",
"&X c #FFC223",
"*X c #FFC62B",
"=X c #FFC92E",
"-X c #FFD626",
";X c #EDCD3D",
":X c #FFC932",
">X c #FBC836",
",X c #FFDC3D",
"<X c #DDAC42",
"1X c #DEB440",
"2X c #FAA254",
"3X c #E4C04F",
"4X c #FCC04C",
"5X c #F1C057",
"6X c #FFDC5A",
"7X c #FBD86B",
"8X c #FADC71",
"9X c #FFE66A",
"0X c #B3A386",
"qX c #DECF93",
"wX c #FEDB81",
"eX c #F2CB90",
"rX c #FDE18C",
"tX c #FFE49A",
"yX c #FCE8A5",
"uX c #FFF2BE",
"iX c #ECE0B4",
"pX c #ECE0CD",
"aX c #FEEFDB",
"sX c #FFFEFC",
/* pixels */
"                                                                                                                                ",
"                                                                                                                                ",
"                                                                                                                                ",
"                                                                                                                                ",
"                                                                                                                                ",
"                                                                                                                                ",
"                                                                                                                                ",
"                                                                                                                                ",
"                                                                                                                                ",
"                                                                                                                                ",
"                                2 2 1 # X X d b 0XeX`.}. XJ.r.j , , r f f c #                                                   ",
"                            2 _ qX;X.Xs.' ' pXsXsXuX-XXX|.|.XX|.Z.p.U.XXoX8X^.x                                                 ",
"                          ; t..X,X$X|.I.D.G.8XyXyX6XoX|.XX|.XXXXXX|.L.L.}.@XQ.Y.;                                               ",
"                        . ! g.S.c.c.G.P.I.I.K.L.}.}.|.|.|.|.XXXXXXXXXXU.7.1.b.f.^ #                                             ",
"                        : +.@.:.>.H.E.I.I.K.K.I.K.S.v.S.K.}.|.XXXXXXXXXXL.+.#.;.$.7                                             ",
"                        e +.@.#.m.W.I.I.I.I.oXG.7.o. .X.#.5.S.XXXXXXXXXXXXd.+.$.:.w                                             ",
"                        s $.0.F.W.W.W.OX$XE.X.G G D C n q q m *.L.|.XXXXXX}.g.,.:.w                                             ",
"                        e j.F.E.Q.W.OX$XF.;.G G C * @ .       % k Z.XXXXXX|.x.6.4.<                                             ",
"                        ; n.E.Q.+XOX,X4X7.5.P q *               @ / XXXXXX|.D.6.-.#                                             ",
"                          a.].&X+X,XwX0.7.0.u                     . U.XX|.|.K.g.R                                               ",
"                        $ Y.&X&X@X*XB.7.e.z                         r.|.XXL.S.h.^ $                                             ",
"                        1 !.&X&X@XT.7.0.z O                         / }.|.S.x.x.=.;                                             ",
"                        k +X&X&X!.X. .T .             . 4 3 .       T K.D.g.g.x.B.r                                             ",
"                        _ *X*X&Xn.L J o             # _ 3X1X)       ~ h.g.g.g.5.7.e                                             ",
"                        ) =X*X&XB.L n             . w l.#XW.H.h .   ` 6.8.g.7.{ o.e                                             ",
"                        ] /.[.*XB.L 5             , ' ;.f.S.I.!.x r 6.2.2.7.,.P L 6                                             ",
"                        ( I _.=X_. .5             : *.<.#.7.P.W.N.s.,.2.2.1.;.@.I >                                             ",
"                        l P _.=X[.3.8             X i f.,.@.0.E.!.b.<.2.2.&.&.@.K &                                             ",
"                        O M.*X=X=X].-..               s m.k.:.n.n.6.2.2.2.2.&.Y N                                               ",
"                          {.:X=X=X=X'.t .             . ~ l.b.G.8.w.2.2.2.2. .G M                                               ",
"                          t.:X:X=X=X=XY.' h #           u <X*Xq.6.2.2.2.6.#.F S &                                               ",
"                        X L.[.:X:X=X=XR.b.b.I.!.~.C.).yXaXeXM.6.2.6.2.6.&.L L M                                                 ",
"                        r |.G.'.>X[._.b.j.j.j.b.b.n./.2X(.e.9.9.6.w.6.#. .z.S.(                                                 ",
"                        g XXK.d.R.R.b.j.q.q.q.q.q.q.9.9.9.6.9.9.6.6.2. .+.K.K.A.g                                               ",
"                        c 9X|.5.#.q.j.q.q.j.q.q.q.q.9.q.9.9.9.9.8.8.<.q.;.9.G.K.U.k r #                                         ",
"                        $ 9XXXv.+.@.1.j.M.j.j.q.q.q.q.q.9.9.q.&.&.<.6.T.n.#.5.H.I.L..Xt.( ( 2                                   ",
"                          i.|.v.@.@.&.,.q.j.j.j.j.q.j.j.9.2.@...O.<.R ) N.9.#.0.P.L.L.}.`.N.B                                   ",
"                          # / | +.@.$.w.$.+.%.,.2.&.%...Y Y Y K N 8     y V.b.b.6.n.P.L.6XtX] .                                 ",
"                            X > B Q Q E e 7 a A K { K K Z N 9 > .         h m.x.8.6.g.K.Q.tXiXv #                               ",
"                                = - - +     X % > 6 6 7 & &               t T.b.k.8.6.v.P.>X7X=.B                               ",
"                                                                    + R { [ B.[.T.b.8.q.n.k.L G D                               ",
"                                                                  . ` h.g.o.$.B.&XE.n.n.#.U H J 0                               ",
"                                                                # E K.v.x.5.o.;.[.[.Q.8.Y U H M %                               ",
"                                                              r Z.|.L.h.x.x.8.o.>.'.b.%.Y I 0 .                                 ",
"                                                              ' oXXXx. .! v.v.g...| 1.@.m 6                                     ",
"                                                              l >X+X#.N ~ S.v.x. .I A 7 #                                       ",
"                                                                e } B y..X}.D.g.Y D 7                                           ",
"                                                                . & _ .XXX|.v.,...9 .                                           ",
"                                                                    y.%X-XL.g.,.Z o                                             ",
"                                                                    = u.5Xx.8.{ o                                               ",
"                                                                      = R g.} e                                                 ",
"                                                                        % Q i o                                                 ",
"                                                                                                                                ",
"                                                                                                                                ",
"                                                                                                                                ",
"                                                                                                                                ",
"                                                                                                                                ",
"                                                                                                                                ",
"                                                                                                                                ",
"                                                                                                                                ",
"                                                                                                                                ",
"                                                                                                                                ",
"                                                                                                                                ",
"                                                                                                                                "
};
