/* XPM */
static char *result[] = {
/* columns rows colors chars-per-pixel */
"64 64 66 1 ",
"  c #0B0B0F",
". c #0E0E13",
"X c #0F1015",
"o c #111116",
"O c #14141B",
"+ c #18171E",
"@ c #16181F",
"# c #19191E",
"$ c #171720",
"% c #171820",
"& c #1B1C25",
"* c #1D1E28",
"= c #1F2027",
"- c #1F202A",
"; c #212126",
": c #23232C",
"> c #27282F",
", c #272730",
"< c #2D2D34",
"1 c #302F33",
"2 c #343236",
"3 c #363539",
"4 c #38373B",
"5 c #3B393E",
"6 c #3D3D43",
"7 c #403F44",
"8 c #444246",
"9 c #46444A",
"0 c #48464C",
"q c #4A494E",
"w c #4C4B51",
"e c #524F52",
"r c #555255",
"t c #595557",
"y c #575558",
"u c #59565A",
"i c #5D595C",
"p c #605C5F",
"a c #625E61",
"s c #666265",
"d c #696567",
"f c #676468",
"g c #6B6669",
"h c #6D696B",
"j c #716D6E",
"k c #736E71",
"l c #767174",
"z c #7A7676",
"x c #7D7979",
"c c #827C7C",
"v c #868182",
"b c #8C8786",
"n c #8E8887",
"m c #8D8788",
"M c #8E8989",
"N c #928C8C",
"B c #96908F",
"V c #969090",
"C c #9C9595",
"Z c #9F9897",
"A c #A39D9B",
"S c #A7A09E",
"D c #A8A19F",
"F c #AAA3A1",
"G c #AFA8A5",
"H c #B0A8A6",
/* pixels */
"****&&&*&*&&********%iFCa,&********&&*&&*qNHz:*-&***&&-*&-******",
"*%oooXooooO$**&**&**$yFCi*O$@@%*-%OooooOO8nFl:&*-&*&&@@OO@O++O&*",
"*$.XoooXooO&**&*****$yFCu%XXoX%**$oXXXXXo8bHz:&****&&OoXoooooo$*",
"*@XOOOOOO$***$&*-%%*&uFCi&OOoo&**$XoOOOO@0MHk-&**$&*-&$OOOoOoO$*",
"*$oO@OO@$*-&$.O&*%.%&iFCi=@@oo%*-$oOOO@O&wMHjOO**O.O-*&$@OOOoo&*",
"*%oo@OO$-;*@..@*-%..OuFCi&.oo.$&&O.oooo$-qMHjo@**&. $**&@OO@Oo$*",
"*$oOOO$***@.oo$**%o.6cFZvdpsapssaaaaaaafgxAFMe&&*&Xo.@*-*$OOOo&&",
"*@oOO$--*$.ooo$**%oXsFFFSAAAAAAAAAAAAAAAAAADFc;&-$oOX.$**-$OOO$-",
"*$oO$*-&$.oOOo$**%OO7vFZbhhhdsghkgddhhhhgcCFBr&**&oOoo.@*-*$Oo$-",
"*$o+*-*@..OOOo$**&oOOyFCa<::%@*::&O&:::&O9mHl#+**$oOOOo.$&-*OO$-",
"*$O--*$.oOOOOo$-*%oOorFCy*&**@%*&@O&-&@ O7bHj@@**&oO+OOX.@&-&+&&",
"*&***$.oOOOOOo$**%oOOrFCu@@***&*-&--&@.X+9mHk+$**@oOOOOOo.$--*&-",
"**-&@..oOOOOoo$**%oO.rFCi+ #****&--&$.XOO9nHjO$-*&ooOOOOo..@&-&-",
"&-&&..ooXooooo$**%oo.rFCi# .%*****-&..ooO7nHjO$&*%XXoOXooX..&*-&",
"-**&O@$$@@@@$$&***%&$yFCa;@@&*&***&$O@$@&9nHl&&-*&%&%%%$&$$@&&&-",
"&&-&-&-*-&**--&***-*%iFCa>*******&-*&***-eMHl:*;******-*---*****",
"-***&*&&*&***&-&-*&*&uFCa>&**********&&&;qMHl;****&*****&&******",
"*&*&$ooo$OO$$+&&*&@@OtFCu&X@&&&**&*&$oOo%0bHk*&**&@@OOO@OooO&*&*",
"****&ooooooooo$-&$oo.eFCu%O&********&OXXO8bHj+%;-+ooooooooO&&***",
"*&****$OOoOOoo&&-$oOXrFCi*&-**&***&**&$O@9bHj+%-*@oXOOOOO$&*-*&*",
"&@$&-**$OOOOOo%**$oOouFCp,*-*O%**$$&***$@9bHj+%**%oOOOOO$&--&$$*",
"-$oO***&@@O@Oo&**&oOoeFCp:%%o.O&&O X$$*&$8bHj+%;-%XO+OO$****Oo$&",
"*$XoO&**&$OOoo%-*%oO:gFAl0664366663366777aNHc2&*-%oOO@@&*-*OoX$*",
"-$oOOO***&$@@o%**&oopADACVMMNMNNNNNNNNVVNCAFAj;**%OOO@&**&OoOo$*",
"&$oOOO+&**&+Oo%**%ooiZFSCMmmnmMNNmmMMnMMNCADAj**-&oO#&**&OoOOo@*",
"-@XOOOo+&*-*@o%-*%o$-sFCf<:>>;><<,-:>::><uNGz:%**%o@***&OOOOOo@*",
"&@oOOOOo+&-*&O%**%$*&uFCu%XoX.O&*O.XOoo.OqMHl@%*&%O&--&+OOO+Oo@-",
"-@oOO@OOo@&**&***&&*&uFCi=O$@o%**&X$@O@O+9MHz-****&&-&@oOOOOOo$&",
"*$ooOOOOOoO&**&*****%yFCi&o@oo%**$ooOOoOO8MHl:******&OoOOOOOOo@&",
"-$XXoooooXX@**&*****orFCp#ooo.%**@XXXoooO7nHl:&**&-&@oooooooo.@-",
"&&@$$$$$&#%%&****&**OuFCp;@%%%&**&@@%%#$&qMHl,&****&&$&&@+@@$$&*",
"-*-&-*-&**-*********&iFCp>&******&*&*&&&*wMHk:*-*&*-&&&&*&&***&*",
"***&**&&&&&&********&uACa>&*****%OXoOooOO8nHz;--&&*&$$$$$O$$O$&*",
"*&ooooooooO@&*&**&**OuFAi*@@@@&*$.oXXXooO8NFl:&-***-&Oo.oooo..$*",
"*$..oooooXO*********$uFCu#Xoo.%*$oOOOOOo%wMHl-*-*$&-*&$OOOOOoo&*",
"*$oOOOOOO$*-*%%**$$:$uACu;oOoo%*%oo@O@OO-wMHk@&-&Xo&--&$OOOOOo$*",
"*$oo@OOO$*-*@.O**$.$&uFCp;OO@o%*&oOOOO$*:qNHjO&-&X.O&**&$OOOOo$-",
"*$oOOOO&--*$ .@**$..opFAp+XOo.%&OoooOO*&*0bHjO&-&Xo.O&--*$OOOo$*",
"*$oOOO$*-&$.oX$*&&o.OpAAg1-:;;,<:--:,<1<1eMHz;&-&oOo.O&***$OOo&*",
"*$oOO$*-*@.XOo%**&oo7vFAbkhhgghjhhghhhkhdcADBt&-&ooOo.O&***$Oo$*",
"*$oO$*-&%..oOo%**%oOaSFSAZCCCAZZAACAZZZZZAADFx--&oO@@o.$****$o%*",
"-$o@*--$.XO@Oo$**&oouZFACNNMmbMMbbbbMmmmmVADAj--&XoOO@o.O***&O&*",
"&@O*-&+.XOOOoo$**%OO>gFZh8666566677766346aVGc1**&oOOOO@o.$&*-&&*",
"-&*-*@.oOO$O@X%**%oO.rFCuoO&&&%%&&&$o.Xoo7mHjO&-&oo@OOOOO.$*****",
"**--$ .OOOOOoo%**%oOXyFCi#.@*******$.o$oO9bHjO&:&XoOoOOOOoXO****",
"&-&$..oooo.ooo%**%oo.eFCi%..&*****&X.XoXO7bHj$&**OooooXoXXXo%***",
"-&&&O@$$$%%%%%%***%&$uFCp;$$&&******&**&-qMHz-*-**&&&&&&&&&&****",
"*-****************-*%uFCa>*******:*------eMHz:*****:-------**-**",
"******&**&*&&******-%iFCa,&*********&&*&;wMHl:&;**&&&&&&&&&&****",
"*&*&OOoooooooO$**&%OOyFCi*O%&&&&***$o...o7bHk#&-&o.XooX...o&**&*",
"****&oooooooX.$**%oo.eFCu&O*********&OOoO9bHj+&-*ooOOOOOoO&*****",
"**&**&@OOOOOoX$**%oOXyFCi-%*****$$**:*$O+9bHkO&-&.O$OOOO+---*&$*",
"&$@&--&$OOO@Oo$**%OOXyFCi>**&@%*$o$****O+9MHj+&-&.o$OOO$&---$o$-",
"&$XO&**&$OOOOo$**&oOXyFCa>&&@o%*$OO&**-*$9nHk+&-*oOOOOO*--&%oX$*",
"-$XoO&--*$OOOo$-*%oO:gFCk9642156522256677pNHc1&*&oOOO$&-**$oOo$-",
"*$oOOO&--&$OOo$**%ooiZFSZNNNNNNNMmVNNNNNNAAAAl--&.OO$***-$OoOX$*",
"-$ooOo+&--&$Oo$-*%oopZFSANNnNNNNNMNMMnNNNCAAAl--&oO@&-**$OOOOo$-",
"*@oO+Oo@&;**Oo$**%o$<lFZj767658976776667qfVGc4**&oO*-**$ooOOoo$*",
"*@oOOOOoO&-*&O$-*&O*&uFCt#XOX.@%O.XoXXoo$wMHl+&-&O&-**$OOOO@Oo$-",
"*@oOO+OOOO&-&&&-*&&**uFCp;O@Oo&&$OO@@++oOqMHz-*-*&*-&&oOOOOOOo$*",
"*$oOOOOOOoO&-*&**&**$tDCu#o+OX@*@XOOOOOoO8MHl:-*--*&$oOOOOO+oo$*",
"*@oXoXXooooO&-******orFCp+ooXX&*@oXoXoooO7nHl:*-&**&ooXoXXXooX$*",
"-&@@$$$$$$@@**&**&**@uFCp;@&$&&*&@@$$@@$&0MHl:&--&*$$&&$@@$$$$&-",
"*&-&-&-**-*&********&uFCa>********-&-**-:wMHl:*-***-*-&-&-&*-*-&"
};
