/* XPM */
static char *result[] = {
/* columns rows colors chars-per-pixel */
"50 50 233 2 ",
"   c #000000",
".  c #090505",
"X  c #0B0907",
"o  c #07070A",
"O  c #0E0B0A",
"+  c #120C0B",
"@  c #15110C",
"#  c #19150E",
"$  c #0E0F11",
"%  c #0E1115",
"&  c #131313",
"*  c #1B1413",
"=  c #1B1913",
"-  c #17161A",
";  c #1B1A1E",
":  c #221816",
">  c #2B1C1C",
",  c #381E1D",
"<  c #2A2518",
"1  c #322A1C",
"2  c #3C331E",
"3  c #1C1921",
"4  c #261E22",
"5  c #351E20",
"6  c #1E252C",
"7  c #282627",
"8  c #25232B",
"9  c #2C292C",
"0  c #342423",
"q  c #392927",
"w  c #342629",
"e  c #3C2B2B",
"r  c #3B3527",
"t  c #242832",
"y  c #2D2A32",
"u  c #332D35",
"i  c #332F38",
"p  c #293034",
"a  c #373538",
"s  c #33333D",
"d  c #3B3A3B",
"f  c #512119",
"g  c #442424",
"h  c #432D2C",
"j  c #4B2B2B",
"k  c #562E29",
"l  c #433926",
"z  c #45342D",
"x  c #453C2C",
"c  c #483829",
"v  c #4A3D2A",
"b  c #452E33",
"n  c #433232",
"m  c #4B3335",
"M  c #4C3A33",
"N  c #49373B",
"B  c #553535",
"V  c #543D35",
"C  c #543B3C",
"Z  c #593C3D",
"A  c #6D312E",
"S  c #773928",
"D  c #663A34",
"F  c #46472B",
"G  c #52452D",
"H  c #574B2D",
"J  c #48433A",
"K  c #544432",
"L  c #594436",
"P  c #5B4B33",
"I  c #5B433C",
"U  c #5C4A3C",
"Y  c #5C5332",
"T  c #5D543C",
"R  c #614D38",
"E  c #73493C",
"W  c #635336",
"Q  c #665739",
"!  c #6C5B3B",
"~  c #725B3C",
"^  c #5C653C",
"/  c #6B623C",
"(  c #666939",
")  c #74633E",
"_  c #79673D",
"`  c #76733C",
"'  c #393D40",
"]  c #473A43",
"[  c #5C3E42",
"{  c #3D4248",
"}  c #3F5A7E",
"|  c #484949",
" . c #5A4745",
".. c #595347",
"X. c #4C4D53",
"o. c #484B56",
"O. c #504F50",
"+. c #4D5158",
"@. c #54585A",
"#. c #634446",
"$. c #644D42",
"%. c #694946",
"&. c #654449",
"*. c #6A464B",
"=. c #6C494D",
"-. c #714C49",
";. c #695447",
":. c #645942",
">. c #6D5B42",
",. c #6C5C4B",
"<. c #725C43",
"1. c #765949",
"2. c #6B4D52",
"3. c #734C52",
"4. c #655755",
"5. c #775757",
"6. c #5E6748",
"7. c #53655B",
"8. c #6B6545",
"9. c #746242",
"0. c #7A6641",
"q. c #776D46",
"w. c #7C6A42",
"e. c #7B7644",
"r. c #6F6953",
"t. c #786659",
"y. c #797954",
"u. c #4D5363",
"i. c #535966",
"p. c #425973",
"a. c #5B6567",
"s. c #556D73",
"d. c #7C6A63",
"f. c #6E756C",
"g. c #96353F",
"h. c #904631",
"j. c #AB5338",
"k. c #B05337",
"l. c #C15A3B",
"z. c #925F4F",
"x. c #826D43",
"c. c #846D4A",
"v. c #857145",
"b. c #897446",
"n. c #897548",
"m. c #837C48",
"M. c #8D7A4A",
"N. c #917B4C",
"B. c #816C5E",
"V. c #877959",
"C. c #876C61",
"Z. c #867366",
"A. c #8B7664",
"S. c #937668",
"D. c #957E6B",
"F. c #947872",
"G. c #B2726F",
"H. c #79813B",
"J. c #7D8443",
"K. c #7B8456",
"L. c #778968",
"P. c #6E8B7C",
"I. c #768D71",
"U. c #7B9679",
"Y. c #8B834A",
"T. c #868A49",
"R. c #93854C",
"E. c #958D4E",
"W. c #8D9148",
"Q. c #969A4A",
"!. c #959A4E",
"~. c #858A56",
"^. c #968856",
"/. c #8A975A",
"(. c #969856",
"). c #A1954E",
"_. c #A39C53",
"`. c #9FA04E",
"'. c #9CA657",
"]. c #A3A355",
"[. c #A6AB58",
"{. c #ACB55B",
"}. c #ACB85C",
"|. c #B4BD5D",
" X c #B9BF5D",
".X c #958769",
"XX c #899966",
"oX c #949965",
"OX c #878C72",
"+X c #988574",
"@X c #A68978",
"#X c #A89875",
"$X c #99A865",
"%X c #8CA574",
"&X c #9CB275",
"*X c #A7AB63",
"=X c #ABBA63",
"-X c #B5BB62",
";X c #BEA67C",
":X c #C0A27B",
">X c #B6C25D",
",X c #B9C45E",
"<X c #BBC95F",
"1X c #B6C667",
"2X c #BBC461",
"3X c #BCCA63",
"4X c #C1CA5E",
"5X c #C1CD62",
"6X c #C5D364",
"7X c #C7D467",
"8X c #CBD965",
"9X c #C9D768",
"0X c #CBDA69",
"qX c #D0DF6A",
"wX c #D8E86F",
"eX c #6F7C80",
"rX c #718F8E",
"tX c #7B8889",
"yX c #6D9389",
"uX c #77988A",
"iX c #779895",
"pX c #7BA398",
"aX c #5893A5",
"sX c #67A8B5",
"dX c #73C1D1",
"fX c #929A94",
"gX c #AB9587",
"hX c #B39E8E",
"jX c #B4A594",
"kX c #C0AE99",
"lX c #D1B8A4",
"zX c #CAC58A",
"xX c #FFE9CB",
/* pixels */
"                                              o                                                   & ",
"                                            O yX-                                                 & ",
"                                              aXsXO                                               & ",
"                                          o s.sXdXp.%                                             & ",
"                                          6 sXaX} } %                                             & ",
"                                            { oXQ.K.O                                             & ",
"                                          o [.6X{.4Xe.                                            & ",
"                                      # F r <XT.^.e.].: < <                                       & ",
"                                      = e.'.!.:XxX;XE./ W 0                                       & ",
"                                      o T |.2X*XzXM.,Xq.r o                                       & ",
"                                      F ..` .XY.!.6X|.H K l O                                     & ",
"                                  % ~.[.y.~.* - x T.^.>.;.v.Q p                                   & ",
"                                7 P.3Xy..Xy.  .   . ,.D.$.>._.iXs.@                               & ",
"                            t W.%XuX*X8.zXd.k A A g.S.gXR ,.4X$XpXL.#                             & ",
"                          7.pX3X8.f.t.A.$XF.S.G.G.@XF.+XW C =XoXs.r.Q ^ ;                         & ",
"                        ( %XiX$XW.y ..lXD.T.oX.XS.D.q.P U n Q L.u._ `.&XiX7.$                     & ",
"                      - oX%XiXXX8XK.OXt. .,.` Q.T.T.Y : 2.I W.I.yX<X,XP.pXpXXX<                   & ",
"                      t $X1XrXXX`.'.hX .9 5. .r J z w * d.5.(.yX=X=XOXpXpXyX1X'.                  & ",
"                      s 7.Y.y.@.| K.oXV U Z.+XlXF.4.C r  .9.K.'.=XrXiXU.U./.8X'.6                 & ",
"                    a x u.{ 0.>.O.P.>X5X8.Z. .+X.  .5.R ~ E.3XoXuXiX%X'.>X8X6Xf.s X               & ",
"                  ' +.! ! 8.O.9.` '.5X0X-X# d.kXd. .H ` / q. X/.1X2X5X9X8X=XL.i.d <               & ",
"                + +.u.:.x.v.Q J T.9X5X6X|.m.oX.X.XJ.$X&XP.U v.).[.].(.=X/.a.i.i.r ..o             & ",
"                < ..u.u.O.U r 1 / 6X5X6X[.].8X<X5X3XU.I.(.) v 0.w.0.Q J  .X.u.O.< O.t             & ",
"            .   1 ;.+.i.u.:.v.) G (.6XqX|.{.8X6X6X6X5X}.3XR.P l w.! 0.w.x.) 9._ | o.|             & ",
"                H v.J | +.O.) n.( 2 v.E.T.T.9X9X7X8X9X0X].N.v + !.3X,X X[.R.w...u.' 9.@           & ",
"              * 9.x.9._ 0.Q w.w.[.J.q.].9X[.m._.].]._.E.b.~ + . <X0X3X=X1XU.uXs.+.8.M.v           & ",
"              [ V Y x.N.n.N.N.Q ^ 6XwX9X}.9X!.` Y.~ ! w.Y l 1   J.qX6XK.I.OXyXuX..x.n.x.*         & ",
"            = $.&.[ M H ~ ~ 2 & J Y !.2XJ.2XqX9X5X5X|.-X!.w.v   r 0X7X5X<X4X>X|.! x.x.;.h         & ",
"            h =.M C &.[ C h ; > R J ! v.Q T.7X,X3X7X5XR.Q Y O     J.qX0X9X7X0X5X) 9.U =.#.o       & ",
"            Z *.[ Z m [ &.=.5.I :.4.G Q Y l N.` m.E.W 1 H #       = q.'.,X,X>X(.>.[ =.3.&.@       & ",
"          o m C *.3.3.=.[ [ [ N J ..,.Z.+Xe c H P P @   . .       o t.,.8.V.V.@XB.3.5.Z [ q       & ",
"          X [ e h C #.*.3.*.N | 9 x t.jXxXlXC C $. . .%.C 1 8 8     ,.C.t.d.5.V.5.b b b &.b       & ",
"          + 3.*.m w # . . 9 7.| { 5 e hXjXjXgXj ;.a.| <.I e 9 - .   7 @X#X@XS.@X$.[ =.=.*.L       & ",
"          & C [ 3.5.3.Z e s +.d ' S S kXlXgX1 g $.e e ,. .5 + - 4 - @ t.,.A.@XA.n =.#.I >.U * &   & ",
"          > 3.m 0 n B  .7 r @.' t D h.R d.c f k > 8 9 4 8 u i 8 ; ; + D..XS.B.J ;.B I I %.[ j -.O & ",
"          > =.3.*.B M z H.6.p d 9 B k.h.E h.k.l.D { 7.X.y 9 y 4 u 9 0 t.B.A.A.D.C.*.*.&.[ %.h c q & ",
"          r >.C &.=.[ 8.0Xr Y J i b S h.h.k.j.D A d @...{ a 9 y s [ c A.A.t.t.A.&.B Z C Q ! M q j - ",
"          2 _ 0.) Q K W.}.].3XF 4 u : S z.E j.y n d @.w d a u s 7 V e t.@XD.+XC. .q.P T.-XP j > + = ",
"          = 0.0.x.w.Y !.!.'.1X8.< u 6 k #.u %.w o.| { @.f.f.' C L R 3.M (.Y.W.H e.6X/ ! n.v h :   & ",
"            l ) x.0.e <.'.!.}.>XM.Q r 4 9 @.fXtXa.z L X.rXfXjXZ.1.z.;.z x._.Y.! ~ v.P Q N.l   .   & ",
"              = l ! V &.[ ;.w.Y.n.9.P c I ] eXtXtXa.E Z i.d.Z.t.5.D Z z ! x.~ _ ! M.b.) G         & ",
"                  o m *.[ &.[ Z [ j q B x.Z u.tXhX+X-.B s b o = , , h I x.n.n.v.! ! x #           & ",
"                    m =.*.=.#.&.B 5 k j D -.u 4.a r N j ] i & 8 . . o < v 1 l l : +               & ",
"                  @ U m m m C [ j j B D j g N ] + u b g e 8 o O * * : > 0 e w                     & ",
"                < Y.R.e.K P V I V j g > , k ] o.* o 3 X +   o m 3.3.&.[ &.3.[                     & ",
"              @ y.(.}.!.].-Xm.M.x.0 + + : : e $   . O .     0 =.#.U R ;.Q <.I o                   & ",
"              @ 2 H Q e.Y.e.q.M.b.H   . X . o     .       + ! c.n.! 0.0.) w.<.H o                 & ",
"                    . X + O @ @ @ +     .       .         @ v H G v H L U P R v O                 & ",
"                                                                        . .                       & ",
"& & & & & & & & & & & & & & & & & & & & & & & & & & & & & & = & & & & & % & & & & & & & & & & & O 7 "
};
