/* XPM */
static char *result[] = {
/* columns rows colors chars-per-pixel */
"50 50 239 2 ",
"   c #020101",
".  c #0A0808",
"X  c #110E0D",
"o  c #1B1615",
"O  c #27100F",
"+  c #251B17",
"@  c #341E1C",
"#  c #1C2C14",
"$  c #292219",
"%  c #38291D",
"&  c #2B381B",
"*  c #1D1C23",
"=  c #292628",
"-  c #382927",
";  c #3B3329",
":  c #2B2D33",
">  c #322D34",
",  c #2F3237",
"<  c #393739",
"1  c #412624",
"2  c #452D2C",
"3  c #522E2C",
"4  c #47372B",
"5  c #57332F",
"6  c #452D32",
"7  c #4B3333",
"8  c #4D3A32",
"9  c #47383A",
"0  c #543436",
"q  c #533B33",
"w  c #543C3B",
"e  c #593D3D",
"r  c #693630",
"t  c #314B25",
"y  c #386231",
"u  c #454A2F",
"i  c #55472D",
"p  c #49453B",
"a  c #5A4A33",
"s  c #574539",
"d  c #595734",
"f  c #624D3C",
"g  c #684B38",
"h  c #7B473B",
"j  c #645536",
"k  c #65573A",
"l  c #6B563C",
"z  c #6C5B3A",
"x  c #725D3C",
"c  c #55683B",
"v  c #4E7039",
"b  c #6D623B",
"n  c #68673A",
"m  c #73633D",
"M  c #78693E",
"N  c #66733C",
"B  c #75763B",
"V  c #3C3B42",
"C  c #453C46",
"Z  c #5C3D41",
"A  c #633E47",
"S  c #3E4548",
"D  c #48494A",
"F  c #5E4142",
"G  c #554B47",
"H  c #4A554B",
"J  c #5D5444",
"K  c #5B5548",
"L  c #474956",
"P  c #504C54",
"I  c #4C5756",
"U  c #585A56",
"Y  c #634445",
"T  c #664A47",
"R  c #664448",
"E  c #6C4A4D",
"W  c #665748",
"Q  c #745A47",
"!  c #704B50",
"~  c #734E52",
"^  c #6C5C54",
"/  c #775957",
"(  c #5A6643",
")  c #547444",
"_  c #5D605A",
"`  c #6A6A46",
"'  c #746442",
"]  c #786645",
"[  c #7C6A42",
"{  c #6B734D",
"}  c #7C7242",
"|  c #787B45",
" . c #7A6858",
".. c #494E62",
"X. c #4B5261",
"o. c #525964",
"O. c #5A6565",
"+. c #51746B",
"@. c #6E716C",
"#. c #853D2A",
"$. c #8A4732",
"%. c #994B34",
"&. c #B05336",
"*. c #826D43",
"=. c #857344",
"-. c #877A46",
";. c #8C7A49",
":. c #84745D",
">. c #8A7566",
",. c #937169",
"<. c #967E6D",
"1. c #B47471",
"2. c #4A813E",
"3. c #618A3F",
"4. c #5A8845",
"5. c #559747",
"6. c #51914C",
"7. c #718A4D",
"8. c #689849",
"9. c #50AD51",
"0. c #55B655",
"q. c #5BB453",
"w. c #5DBA55",
"e. c #67A54C",
"r. c #65AC50",
"t. c #77AC53",
"y. c #63B452",
"u. c #63BC56",
"i. c #6CBB55",
"p. c #65BE58",
"a. c #76B953",
"s. c #5D9B62",
"d. c #68836D",
"f. c #768867",
"g. c #738971",
"h. c #7B9577",
"j. c #74AC67",
"k. c #59C559",
"l. c #6DC157",
"z. c #66C559",
"x. c #6CC45A",
"c. c #6DCB5D",
"v. c #73C556",
"b. c #73C65A",
"n. c #7AC658",
"m. c #75CA5B",
"M. c #7BCD5C",
"N. c #69D45F",
"B. c #75D25D",
"V. c #7DD15C",
"C. c #76CE60",
"Z. c #6FD262",
"A. c #73D260",
"S. c #7CD462",
"D. c #7EDA63",
"F. c #7CE267",
"G. c #898A4B",
"H. c #93864C",
"J. c #97964E",
"K. c #8B8754",
"L. c #8D9551",
"P. c #999754",
"I. c #9B9C51",
"U. c #A19A54",
"Y. c #87A354",
"T. c #99A456",
"R. c #86B859",
"E. c #A4A455",
"W. c #A6AA58",
"Q. c #ABB55B",
"!. c #A9B75C",
"~. c #B1B35B",
"^. c #B3BC5C",
"/. c #95886D",
"(. c #879865",
"). c #839B72",
"_. c #A68B76",
"`. c #A8947E",
"'. c #97A868",
"]. c #94AA74",
"[. c #A9B864",
"{. c #B1BB62",
"}. c #ACA274",
"|. c #87CA59",
" X c #82CE5B",
".X c #83D35D",
"XX c #8BD55E",
"oX c #86D95F",
"OX c #89DB5F",
"+X c #B8C35E",
"@X c #83D561",
"#X c #8CD661",
"$X c #85DB62",
"%X c #8BDC62",
"&X c #90D761",
"*X c #93DC63",
"=X c #99DE63",
"-X c #ACCD6C",
";X c #B9C561",
":X c #BCC962",
">X c #87E567",
",X c #8DE164",
"<X c #94E465",
"1X c #99E666",
"2X c #96E966",
"3X c #9BE967",
"4X c #95E668",
"5X c #98E768",
"6X c #95E969",
"7X c #9CEB69",
"8X c #9FF06A",
"9X c #A2EE69",
"0X c #A7EE6A",
"qX c #A3F16A",
"wX c #AAF36C",
"eX c #AAFB6D",
"rX c #ACFA6F",
"tX c #C1CE63",
"yX c #C5D365",
"uX c #CAD866",
"iX c #CBD867",
"pX c #D2E26A",
"aX c #707B82",
"sX c #779986",
"dX c #73908D",
"fX c #759C93",
"gX c #77AA91",
"hX c #5A8BA7",
"jX c #6EB5B2",
"kX c #7CD081",
"lX c #6CB6C5",
"zX c #95948B",
"xX c #A79582",
"cX c #B19D89",
"vX c #B4B180",
"bX c #BBA895",
"nX c #C5AE94",
"mX c #DACC98",
"MX c #EED5B8",
/* pixels */
"7X7X9X9X1X1X1X<X<X%X%X%X4X4X2X3X6X6X,X4X,X>X$X%X$XD.A.A.Z.z.0.k.l.v.v.m.M.V..X.X.XoXOX,X%X%X#X.X<X3X",
"1X9X9X9X9X3X5X1X<X<X,X%X<X1X3X7X7X,XS.$X,X$X>X$X$XS.A.B.c.c.z.m.B.M.B.m.V..X.XoX.XoXoXOX#X@X@X#XoX1X",
"1X7X7X3X7X3X1X5X4X<X<X<X<X2X3X2X<XS.B.S.>X>X$XA.S.Z.c.c.c.c.A.S.oXOXOXOX,XOXOXOX%X$X%X#X@X X X@XoX%X",
"*X3X9X9X7X1X1X5X2X<X<X<X<X2X3X7X%XM.m.c.A.kXgXz.A.Z.Z.c.z.x.S.D.OX<X<X<X<X,XOX,X.X#XoXoX@X@X.X.X%XXX",
"%X%X1X9X7X1X1X<X<X2X<X<X<X1X3X1X.Xb.x.C.z.s.lXgXu.z.z.w.0.0.x.%X<X1X1X<X<X,X<X,X%X%X.X@X$X.X.XM.@X%X",
"<X<X<X<X1X5X4X<X1X<X<X<X<X3X7X3X0X%XM.x.j.jXlXhX+.q.i.M.b.M..X7XqX3X3X8X3X<X,X<X%X%X%X@XoX#X@XM.M.%X",
".X<X7X3X1X3X1X1X2X2X4X4X3X3X9XqX9X1XM.V.j.hX+...+.w.S.2X1X1X9X9X0XqXqXqX9X3X2X*X%X%X.X#X.X.X%X.Xm.m.",
"M.XX3XqX3X4X2X<X2X<X<X1X2X3X9X0XwX1XM.wX*XK.^.;XY.v.V.4XwX9XqXqXqXqXqXqX8X8X2X*X%X%X.X.X.XV.M.%X.Xm.",
"V..X<X7X9X9X3X6X1X<X2X3X9XwXwXwX9X9X0X0X-X;XT.E.E.Y.1X*X9XwX9XwXqX8X9XqX8X3X<X<X<X,X,XoX.XV.m..X,X%X",
"%X$X,X<X2X3X8X8X7X7X3X7X7XwXrXrXwXrXY.G.T.P.}.nXU.B n 7.wX9XqX7X8XqXqX9XqX8X2X2X<X,X,X,X.XM..XV..X%X",
"%X<X<X<X4X,X%XoX$X%X,X%XoXOX2X7X0XrXR.b +XE.mXmXP.E.3 t.eX8X8X8X8X8X8X8XqX3X2X<X%X,X<X,X,X,X.Xx.B.oX",
"%X,X4X1X<X2X<X%XS.S.S.%X,X<X1X1X7X<X|.` J.T.P.E.tX-.i N n.2XqX8X2X2X<X<X4X4X4X>X$X,X,X<X,X>XB.c.m.@X",
"%X%X<X6X4X3X9X1X3X6X%X$X@X%X9XeXR.Y.K. .' = ; | !.' f f k ) XX3X<X<X<X2X6X4X>X%X$X$X$X,X,X,X$XV.V.S.",
"$X$X%X<X4X1X9X1X5X3X6X6X4X,X,Xt.d.[.K.(.s       - `.Q ~ -.f.d.a.2X3X2X<X4X4X%X$X@XS.@XS.@XS.$X$XS.$X",
"%X%X$X%X,X6X1X1X7X7X1X4X,Xj.!.f.gXT.] vXA 3 r r r bX*.Z E.-XfX@.8..X2X2X<X<X%XD.@XS.@X$X$X@XS.M..X$X",
"M..X.X.X.X,X1X1X1X7X6X%Xj.g.[.| _  ./.}.,.,.1.1.,._.] w H.'.+.` n 7.8.n.2XV.@XS.S.@XD.$X>X,X$XM.v.M.",
"M. XXXXXXXXX*X1X*X<X1XY.].fX].I.< ^ bX:.G.'./.K.K.j s 9 k (.X.] E.(.dX@.r.oX@XS.A.S.S.S.@X@X%X#X@XM.",
".X.XXX&X&X=X*X=X*X=Xa.'.[.dXf.yXL.xX^ G W n B n M + w w J.].sX;X[.h.gXsXT.a.$XS.B.B.S.@XC..X.XC.@X.X",
"XXXXXX*X=X=X*X&X&X%X4._ !.sXf.B W.xX9 4 / _ ^ T 2 + C E -.g.[.'.sXgXfXh.yX7.M.S.x.x.c.c.C.C. X X X.X",
"&X1X=X&XXXXX&X Xn.a.c P U =.U D h.T.m W <.<.nX; / w q k L.T.].fXdX(.(.^.yX_ 8.>XC.C.p.w.y.i.@X#X#X&X",
"=X=X=X=XXX|. X Xa.H a K D J *.d f.:XuXB p >.@.- ^ i m =.;X(.).).'.^.iXuX'...y C.A.C.z.p.p.p.C. XXX%X",
" XXX|.XX&XXXXX X) ..d *.=.J J H.!.:XuXW.u xXxX .n J.f.J H.Q.+X^.;XiX[.f.o...6 ) c.x.x.u.x.p.p.C. XM.",
"M.C.M.n.a.l.v.a.( I o.W ' a ; -.pXyXyXE.Q.~.W.^.'.).h.m i *.;.;.` ` _ X.o.C 7 D 5.z.p.l.p.u.u.p.m.m.",
"b.m.M.@X.X.XXXa.` P o.X.K j i a W.yXuXQ.{.iXuXyX;X'.~.U.j 4 ' z l k z W W k t L ) z.p.p.p.z.x.p.b.b.",
"b.p.x.i.u.r.l.e.m W D I P ' H.d i J.E.G.W.iXyXiXuXuX:XH.z + G.E.W.W.J.=.m W S P c w.x.l.x.b.c.m.m.m.",
"M.b.v.l.y.r.r.c *.' z m W Q M J.n b I.^.L.I.~.Q.W.E.H.[ %   I.pX;X+X[.h.@.o.P ] z 4.x.x.x.x.u.l.b.m.",
"M.M.M.M.n.B.8.w a z =.;.-.-.z N :XuXyX^.+X7.=.;.m m m i %   B pX+X(.).h.fXO.k =.*.d u.m.x.x.l.i.n.M.",
".X XM. XM.v.` s Y s a j b 4 + 4 n I.Q.H.tXuXyX:XQ.W.J.B a   & +XuX;X:X+X[.T.z =.Q s e.OXV..X.XoX.X.X",
" X X.X XV.a.s Y w w Z Z q - = J i j =.k I.:X+X+X+XE.M j +     N yXuXuXyXpXT.l l T A c oX.XoXoX X.X.X",
"M.M.M.M.V.e.Y R R Z w F Y ~ e W K s j i i [ k G.M $ % +       o ` J.Q.Q.W.K.Y R ~ Y p n..XV..X.XM. X",
" X.XV.M.XX4.6 w ~ ~ ~ ! R e 9 < D ' xXcXs ; f a % o o o .     X W / Q :.:._./ E Z w q e.OX.XM.V..X X",
"M.V..XXXoXc Z 2 - - 6 w e 9 H , - W bXMXbX! s W U W Y 2 < :     p <.>.:.:.>.w 7 w F 0 3.%Xn.v.v.v.M.",
"v.n.V..XV.c A ~ F 6 + X = I D S 3 5 bXbXxXK q ^ < J Q 7 @ X X   = <./._.`.:.0 ~ ! E f v .X.XM.v.i.l.",
"n.l.l.v.v.( 7 7 F E ! 9 = H S : h $./.bXG O - - @ ; < - = * = * o  .:. . .w w e a f T 8 k a.1X1X=XXX",
"<XOXV.v.n.` ! F 2 ; 8 i c D < : 5 &.r i r %.#.> S S = = > = * * = >.,./.:.:./ Z R R Y 7 3 c &X*X%X*X",
"V..XoX XM.` Y R E E w T.` = t , - %.%.%.&.&.%.2 I U D > = : > 9 f  . ./  .>.Y Z Z w f q 1 8 a.oX#X.X",
"M.n.v.V.M.| x l l s k ^.G.E.{ = 9 @ $.$.%.$.> 9 I G : V : : = 7 q >._.<.<./ f f f U.M 8 1 + t.V.M.M.",
"m.v.m.n.m.N x =.*.d B T.T.yX{ o ; * r T 8 g , L < D o.@.D 7 q f T s K.P.K.q I.E.d J.k - + t n..X.XM.",
"M.v.v.M.B.8.d m *.i f H.T.W.~.M j > - < U @.@.P s D aXzXzX>.Q Q Q s G.J.} l -.} j *.b v e.r.v. X XM.",
"l.i.v.m.n.m.5.u a a e Y W ] H.-.m 8 7 Z P fXdXO.W h D @.,. .! g e q z *.' x [ =.z g 8.4X*X Xq.l.m.b.",
"x.v.m.m.m.m.c.y.5.c R R Y Z Z s 2 1 5 h s O.zX_.@.r 6 9 + + @ @ - g [ *.=.b j d v v q.n.V.V.V.v.x.v.",
"v.m.m.m.M.b.v.m.z.) Z Y R Y R 0 1 5 5 E 0 C G - C 3 2 V o o       + ; $ u ) y 2.9.0.q.q.l.l.n.V. Xb.",
"C.b.m.M.M.v.v.b.y.} q 2 7 w Z 7 3 5 5 1 1 P > o 9 - - = . X - - - - - 7 ( k.w.0.9.q.k.z.z.v.m.v.m.M.",
"C.m.M.M.M.M.x.r.7.J.U.G.} j g W 1 @ O % 3 C >   .         C ~ ! Y Y E E ( k.u.w.k.z.l.l.z.z.v.z.b.m.",
"m.M.S. XM. X@XN n P.P.P.~.K.P.;.1   X . . o     t 4.&   $ E Q k l m ' m d 6.9.9.w.u.p.i.V.M..XV.M.m.",
"*X%X*X4X#X#X.Xe.v d d n d a b n c # . & & .   3.0XrX7Xv k [ x l x l Q l z 4 9.u.y.p.v.v.V.,X1X7X1X<X",
"3X<X<X1X3X5X%X<X4X$XM.i.v..XXXOX2X<X|.1XqX|.v XX7X%X,X4XC.t.8.4.v v v c ) v y.x.x.b.M.C.M.%X%X*X1X9X",
"9X7X1X<X<X<X<X%X<X4X4X%X$X,X2X9X3X7X8X3X2X8X8X5X6X3X>XV.F.F.F.N.k.9.9.q.x.C.c.b.M.C.M..X@X%X,X<X*X5X",
"3X3X5X9X5X4X*X*X*X,X4X,X*X,X<X1X6X2X3X2X,X%X%X4X4X4X*XA.A.Z.N.k.9.9.0.p.C.b.b.m.S..X$X%X.X.X<X<X1X7X",
"7X9X7X9X3X5X4X4X<X%X%X*X%X4X4X4X6X2X1X2X*X%X>X$X>X%X$XA.Z.Z.k.0.9.0.z.Z.C.M.M.@X.X%X%X%X%XXXXX<X1X7X"
};
