/* XPM */
static char *result[] = {
/* columns rows colors chars-per-pixel */
"64 64 236 2 ",
"   c #000000",
".  c #0A0505",
"X  c #0B0807",
"o  c #0D0B0A",
"O  c #07070A",
"+  c #120C0B",
"@  c #14110C",
"#  c #19150E",
"$  c #0E0E11",
"%  c #0E1115",
"&  c #131313",
"*  c #1B1413",
"=  c #1B1914",
"-  c #1C1A1E",
";  c #16161A",
":  c #2C1C1C",
">  c #221817",
",  c #381E1E",
"<  c #292517",
"1  c #322A1C",
"2  c #3C331E",
"3  c #1C1921",
"4  c #271E22",
"5  c #351E20",
"6  c #1E252C",
"7  c #26232B",
"8  c #2C292C",
"9  c #282727",
"0  c #342323",
"q  c #342629",
"w  c #382628",
"e  c #3C2A2A",
"r  c #382A28",
"t  c #3C3321",
"y  c #3B3629",
"u  c #2D2A32",
"i  c #242932",
"p  c #342D35",
"a  c #332F38",
"s  c #3B3A3B",
"d  c #35343A",
"f  c #293034",
"g  c #432C2C",
"h  c #4A2B2B",
"j  c #432425",
"k  c #562E29",
"l  c #433926",
"z  c #463C2C",
"x  c #4A3D2A",
"c  c #46362B",
"v  c #452E33",
"b  c #423233",
"n  c #4B3335",
"m  c #4C3A33",
"M  c #49373B",
"N  c #543D34",
"B  c #52353C",
"V  c #543B3B",
"C  c #593C3D",
"Z  c #583532",
"A  c #793927",
"S  c #663A35",
"D  c #6D322E",
"F  c #512119",
"G  c #51452C",
"H  c #564A2D",
"J  c #48433A",
"K  c #544432",
"L  c #5B4B32",
"P  c #5B433C",
"I  c #5B4739",
"U  c #5C5332",
"Y  c #5D543C",
"T  c #45452A",
"R  c #624D3A",
"E  c #65543B",
"W  c #6C5A3B",
"Q  c #665638",
"!  c #735A3C",
"~  c #734A3C",
"^  c #68653A",
"/  c #74633D",
"(  c #79683E",
")  c #76743B",
"_  c #5C653C",
"`  c #363C40",
"'  c #483A44",
"]  c #5C3E42",
"[  c #623B4A",
"{  c #3D4248",
"}  c #3F5A7E",
"|  c #484849",
" . c #5A4845",
".. c #595347",
"X. c #494B55",
"o. c #4D5158",
"O. c #565858",
"+. c #504F50",
"@. c #634446",
"#. c #634D41",
"$. c #654449",
"%. c #6A474A",
"&. c #6C494D",
"*. c #694A46",
"=. c #704A4C",
"-. c #6D5C42",
";. c #6C5C4B",
":. c #685546",
">. c #725C43",
",. c #785949",
"<. c #734C52",
"1. c #635754",
"2. c #765657",
"3. c #6A4D52",
"4. c #53655C",
"5. c #5E6748",
"6. c #6B6446",
"7. c #746242",
"8. c #7A6641",
"9. c #7C6A42",
"0. c #766D46",
"q. c #757140",
"w. c #7D7747",
"e. c #786659",
"r. c #787A54",
"t. c #6F6953",
"y. c #4D5363",
"u. c #535966",
"i. c #425973",
"p. c #586B6E",
"a. c #737268",
"s. c #96353F",
"d. c #914732",
"f. c #AC5338",
"g. c #B05337",
"h. c #C15A3B",
"j. c #925F4F",
"k. c #826D43",
"l. c #846D4A",
"z. c #857145",
"x. c #897446",
"c. c #897448",
"v. c #8D7A4A",
"b. c #837C48",
"n. c #917B4C",
"m. c #816C5F",
"M. c #86785A",
"N. c #866B61",
"B. c #8B7664",
"V. c #857366",
"C. c #957D6C",
"Z. c #937468",
"A. c #947872",
"S. c #A36D6C",
"D. c #79813B",
"F. c #7D8444",
"G. c #7B8456",
"H. c #768868",
"J. c #6E8A7B",
"K. c #7A9579",
"L. c #758D72",
"P. c #8B834A",
"I. c #868948",
"U. c #958E4E",
"Y. c #93854C",
"T. c #8D9146",
"R. c #95994C",
"E. c #868955",
"W. c #948856",
"Q. c #899759",
"!. c #989856",
"~. c #A39C54",
"^. c #A1954E",
"/. c #9AA558",
"(. c #9FA04E",
"). c #A3A254",
"_. c #A6AB59",
"`. c #ABB45A",
"'. c #ACB95C",
"]. c #B4BD5D",
"[. c #B9BF5D",
"{. c #958769",
"}. c #8C9964",
"|. c #869868",
" X c #949765",
".X c #8D8476",
"XX c #988676",
"oX c #809875",
"OX c #8B8464",
"+X c #A58978",
"@X c #A89875",
"#X c #99A866",
"$X c #8DA573",
"%X c #9CB275",
"&X c #A9AC62",
"*X c #ABBA63",
"=X c #B4B963",
"-X c #BEA67C",
";X c #C0A27B",
":X c #B9C45E",
">X c #B7C45D",
",X c #BCC461",
"<X c #BCC962",
"1X c #B6C667",
"2X c #C1CB5E",
"3X c #C1CD63",
"4X c #C5D364",
"5X c #CCD965",
"6X c #C9D768",
"7X c #CBDA69",
"8X c #C6D467",
"9X c #D0DE6B",
"0X c #D8E86F",
"qX c #6F7C80",
"wX c #58959D",
"eX c #7D8787",
"rX c #6E9388",
"tX c #779889",
"yX c #759895",
"uX c #6E9090",
"iX c #7CA397",
"pX c #68AAB6",
"aX c #5891AD",
"sX c #73C1D1",
"dX c #AA9587",
"fX c #B39E8E",
"gX c #B8A695",
"hX c #B0A695",
"jX c #929A94",
"kX c #C1B49F",
"lX c #C0AC97",
"zX c #D1B9A4",
"xX c #CAC58A",
"cX c #DAC2AC",
"vX c #FEEFBB",
"bX c #FFE9CB",
/* pixels */
"                                                            .                                                                 & ",
"                                                        O yXuX;                                                               & ",
"                                                        O wXuX;                                                               & ",
"                                                          wXwXpXo                                                             & ",
"                                                      . p.pXpXsXi.% %                                                         & ",
"                                                      i pXaXaXi.qX% %                                                         & ",
"                                                        { }.}.R.t.O X                                                         & ",
"                                                        { |.}.(.r.O o                                                         & ",
"                                                        _.5X4X`.<Xw.w.                                                        & ",
"                                                = = T y >XP.P.W.0./.(.< < <                                                   & ",
"                                                = = q./.R.;X;XvX-XU.U.^ Y 1                                                   & ",
"                                                = = q._.R.-XlXvX;XU.U.W E 0                                                   & ",
"                                                O O Y >X].&X=XxXE.>X>X9.t O                                                   & ",
"                                                T T ..^ }.I.E.U.4X].].L K l X o                                               & ",
"                                            % E.&X_.r.E.- * * s I.W.W.>.:.l.Q Q f .                                           & ",
"                                        9 9 rX1Xb.b. Xa.          1...{.#.;.~.~.iXp.@ o                                       & ",
"                                        9 9 J.<Xw.M.{.a.          1.;.C.#.>.~.).jXp.o o                                       = ",
"                                    6 T.$X$XtX*X6.;.xXe.k D D s.s.Z.Z.dXR :.2X2X#XiXH.H.=                                     & ",
"                                  4.iX1X6.6.p.r.a.N.#XXXS.S.S.S.S.dXA.XXQ B `.&X#Xp.t.t.^ _ 6                                 & ",
"                              ^ ) $XyX#XR.U.u ..zXzX{.I.!.{.{.B.OX9.0.U P b Q Q H.i.7.( ).#XyX4.4.$                           & ",
"                            % #X/.$XyX|.7X5Xr.{.a.e.3.:.) R.T.I.U.U U - 3.P T.T.L.rX:X:X:XL.iXiXiX|.1                         & ",
"                            ; !./.$XyX$X5X7Xr..Xe.e. .:.) T.R.I.T.U U > 3.P T.T.K.K.2X2X:XL.iXjXjX|.1                         & ",
"                            i #X#X1XuX|.(.)._.fX ...q 2.I y y K e q w * N.2.!./.rX*X*X*XoXyXyXrXrX>X(.                        & ",
"                            ` O.u.F.r.O.J J H.!.K J I V.C.cXcX.X3.] V t  .7.G.G./.*XrXuXiXK.K.|.K.5X/.6                       & ",
"                          y m y.y.| 8.:.+.| J.>X:X2X^ V.J XXXXO ..2.2.#./ U.:X<X}.tXiXiXoX/.>X5X7X4Xa.d O O                   & ",
"                        O y z y.y.{ 9.-.+.+.J.>X:X2X6.V. .XX+XO +.2.2.E ! T.<X<X}.tXyXiXoX!.[.5X5X<Xa.` O O                   & ",
"                        ` o.W W W 6.+./ ) )  X3X7X7X,X@ N.lXlXa. .H T ) 6.7.].>X!.1X1X1X4X5X5X].>XH.u.s < <                   & ",
"                    + o o.o.:.z.z.z.-.M I.I.7X3X8X8X>Xw. X{.{.{.w.#X#X%XJ.Y k.9.^._.).).Q.`.Q.p.p.o.u.p ....O                 & ",
"                    1 1 Y y.y.+.+.Y 2 1 ^ / 4X3X8X8X_.).6X:X<X:X<XoXK.L.!.( x x 8.8.8.( Q |  .+.+.y.+.< X.o.i                 & ",
"                    1 1 :.o.u.y.y...z.! G G !.4X9X7X>X`.6X4X4X4X3X2X2X'.<XY.L L l k.Q W ( ( k.>.7.-.( J X.X.|                 & ",
"                    1 1 ..o.u.y.y...x./ G G R.4X7X7X>X'.6X4X<X4X3X3X2X].3Xn.L L l k.W W ( k.k./ 7./ ( J X.{ |                 & ",
"                    H H z.J +.o.o.X./ x.^ ^ l k.U.U.I.I.7X7X7X6X6X6X5X7X).n.x x + ~.:X,X[.]._.Y.Y.k...u.| ` 7.@               & ",
"                  * 7.7.z.>.( 8.9.Q 9.9.)._.F.) ).).8X_.b.).~.).).~.~.U.x.! @ o . >X6X7X<X*X<XtXK.yXp.o.-.6.x.x               & ",
"                  ] K N U k.n.c.c.v.n.Q ^ _ 4X0X7X7X`.7XR.q.q.Y.! W W 9.U l 1 1   F.9X9X4XG.H.oXK.K.rX..9.k.c.z.* *           & ",
"                . V N N U k.n.x.c.v.v.Q _ ^ 4X0X7X7X'.7XR.q.) P.! W W k.U l 1 1   I.9X9X<XQ.L.oXoXJ.tX..k.k.c.z.# *           & ",
"                = #.$.%.C m H / ( W 2 * m z Q R.,X<Xw.,X7X6X6X4X:X>X].=XR.0.x z   t 7X7X6X<X>X:X2X=X*X^ k.9.k.&.g g           & ",
"                g <.m m V [ ] V V e > 4 ....x W z.z.Q T.4X:X:X<X3X3X3XY.Q U + +     F.F.9X5X6X8X7X7X:X/ ( / R %. .] X         & ",
"                V %.] ] C B C %.@.<.2. .1...1.K Q Q U l v.( ) w.U.U Q 1 H =         = = q./.>X>X>X>X!.6.C  .&.<.@.@.*         & ",
"            O   n V <.%.<.2.=.] ] ] C n M J ..;.m.V.XXy c L I L R # #   . X         X O 2.;.;.M.M.M.+XN.&.&.<.C ] ] w         & ",
"              . n n &.&.<.<.=.] ] ] ] n J J ..-.V.V.XXg l K K L L # #   . X         X O e.;.-.M.M.M.+XN.=.<.2.] ] C w         & ",
"            o X ] e g e V @.$.<.<.%.J { 9 9 T t.gXkXbXkXK P V :. .P  .#.V 0 7 7 4       t.m.m.m.N.;.M.e.v n g n %.%.v         & ",
"            o + <.%.n n q * X . o q 4.| { { 1 e dXfXlXgXdXh h :.u.| | >.S w u u ;       0 +X@X+XXXC.+X@.] ] &.=.$.%.N         & ",
"            * * V ] <.<.2.=.] p r d o.` ` ` A D kXkXzXdXq w w  .e e g ;. .0 + + - 9 ; ; @ e.;.B.B.+XB.v &.&.@.P W :.R * &     * ",
"            * * V ] &.<.<.<.C w p d +.` ` { S A kXgXcX+Xq w w #.e j e ;.P 0 + + - 7 % ; + e.;.B.M.+XB.v &.&.@.I -.W R > #     & ",
"            > : =.n w 0 n m  .0 1 y O.{ i i S d.S R a.j F F k : 9 8 8 9 9 u a a 7 - - - o Z.{.C.C.M.V :.B B P P *.*.@.h *.+ o $ ",
"            4 : <.<.%.%.N m c D.D.5.f d i i m g.d.d.A f.g.h.h.D { 4.4.X.u i 8 8 7 p 8 8 r e.m.B.B.B.C.N.$.$.*.[ ] ] @.g k r r & ",
"            t t >.V @. .&.[ 6.7X6Xy H J d a c A d.d.d.g.f.L S D s O.O...| a i 9 7 a ] ] c B.B.e.e.e.B.3.B ] V V #.E W c w h h = ",
"            t t 8.( ! / E K I.`.`.).3XJ 3 - p > A d.j.~ g.p u b s O.O.r d s p p p 9 V V r e.+XC.C.XXe.P 0.0.I P.,X,XL c : + + * ",
"            t 2 ( ( / / Q K T.`.`.).2XJ - - p > A A j.~ g.u u b s O.O.r ' ` p p p 0 V N e e.+XC.C.XXN.P 0.0.L P.,X,XL n < + + * ",
"            = = 8.9.k.k.9.L R.Q.Q._.>X6.< < r 6 k k #.y =.4 w X.| | J u.qXp.M ` Z N :.E 2.n !.I.I.T.G w.4X4X^ W z.b.l g > .   & ",
"                l / k.k.0.e >.!.!.(.`.,Xv.v.W p 4 < 8 u.jXuXeXu.c C S X.eXjXhXhXB.,.j.,.:.c z.^.~.P.! ! z.x.L Q n.n.l   .     & ",
"                  * l l W V $.S ] :.9.P.c.c.7.L b m P M qXeXyXeX4.~ ~ C y.a.V.A.e.2.S S C v W k.k./ ( W n.c.x./ G G .         & ",
"                        . n *.@.@.[ B V P C j j N N ,.N o.eXjXdX.X2.:.Z b b . O - , 1 , g P k.z.x.c.z.W W W z #               & ",
"                      . . c %. .@.$.] B C C h j N Z j.S o.J.eXhX.X<.&.S d p . . > , , , g I z.x.x.c.z.W W W z #               & ",
"                          n &.%.%.%.%.@.n n , Z h h *.~ p 3.1.b y B m h ' a & * 4 . . X . : x 1 1 l l > o +                   & ",
"                        @ P n n n n V @.v n h Z S S h , ' ' ' ; p b v j w 7 O   $ * * * > 4 5 e e w                           & ",
"                    < = I.Y.q.H H H N R N N h j : : 5 k ' X.X.- O 4 - . +   . . n <.<.<.@.] $.<.<.]                           & ",
"                    < < w.Y.w.H H L N P N N h j : : 5 k ] X.X.; X 3 4 X +     . n <.<.<.$.] $.<.<.]                           & ",
"                  @ F.r.!.*XR._./.=Xw.P.k.k.1 + + + > > w $ $     $ $       9 0 <.$. .P I -.E >.-.I X                         & ",
"                  & t t H Q w.P.P.w.0.v.x.x.H   . . X   .       .         o W W k.l.! W 9.9.>.9.9.W K .                       & ",
"                          . o + + o @ @ @ @ +   . .       .   .           @ x G H G x x K L U U L E z o                       * ",
"                                                                                            . . .                             $ ",
"                                                                                            .   .                             $ ",
"& & & & & & & & & & & & & & & & & * & * & & & & & & & * & & & & & & & & & & & * * & & & & & $ $ & & & & & & & & & & & & & $ $ 9 "
};
