/* XPM */
static char *result[] = {
/* columns rows colors chars-per-pixel */
"64 64 216 2 ",
"   c black",
".  c #080707",
"X  c #090708",
"o  c #181415",
"O  c #23001C",
"+  c #201A1B",
"@  c #2B0521",
"#  c #290E26",
"$  c #260823",
"%  c #390C29",
"&  c #330A28",
"*  c #2D1027",
"=  c #2E132D",
"-  c #32132C",
";  c #3C142E",
":  c #2F1933",
">  c #321731",
",  c #331B36",
"<  c #341D38",
"1  c #3D1C36",
"2  c #272021",
"3  c #2B2223",
"4  c #362C2D",
"5  c #302729",
"6  c #36203B",
"7  c #3C233C",
"8  c #3B2E31",
"9  c #3E3335",
"0  c #4B1533",
"q  c #441B34",
"w  c #4C1E39",
"e  c #441230",
"r  c #561937",
"t  c #561B39",
"y  c #5C1D3B",
"u  c #611F3B",
"i  c #46243D",
"p  c #55223D",
"a  c #5B233F",
"s  c #46393C",
"d  c #47383B",
"f  c #64213E",
"g  c #6B233F",
"h  c #74253F",
"j  c #3E2645",
"k  c #3E2947",
"l  c #3D2948",
"z  c #412645",
"x  c #422946",
"c  c #442C4A",
"v  c #482E49",
"b  c #5E2440",
"n  c #4B334C",
"m  c #4D3D40",
"M  c #51394E",
"N  c #472F50",
"B  c #4C3355",
"V  c #4F395B",
"C  c #4C3855",
"Z  c #553D52",
"A  c #543C59",
"S  c #553856",
"D  c #642742",
"F  c #6B2945",
"G  c #6E2440",
"H  c #7E2E4A",
"J  c #772843",
"K  c #683952",
"L  c #543F61",
"P  c #534145",
"I  c #574649",
"U  c #5A4559",
"Y  c #644E52",
"T  c #655355",
"R  c #6C5256",
"E  c #72585D",
"W  c #7B414E",
"Q  c #564164",
"!  c #594669",
"~  c #5E4C70",
"^  c #684B63",
"/  c #69556F",
"(  c #765D62",
")  c #6B5574",
"_  c #7E537A",
"`  c #745979",
"'  c #7A4E6D",
"]  c #6F6161",
"[  c #7B6368",
"{  c #7D627B",
"}  c #832B46",
"|  c #8B2D48",
" . c #862D48",
".. c #85334D",
"X. c #983C55",
"o. c #85545E",
"O. c #BE515F",
"+. c #A45C5E",
"@. c #875964",
"#. c #835B7B",
"$. c #875772",
"%. c #894B65",
"&. c #A44B64",
"*. c #AB536A",
"=. c #AD5C75",
"-. c #85666C",
";. c #916368",
":. c #916167",
">. c #86617E",
",. c #876976",
"<. c #916671",
"1. c #926C73",
"2. c #9A6E78",
"3. c #8C7176",
"4. c #99727F",
"5. c #94747A",
"6. c #BE6A7B",
"7. c #B9657B",
"8. c #A6747F",
"9. c #C45A6A",
"0. c #CD6F7B",
"q. c #CF6270",
"w. c #D16472",
"e. c #D36B79",
"r. c #CD727E",
"t. c #7E5B81",
"y. c #805D83",
"u. c #826186",
"i. c #8A6781",
"p. c #8C6B83",
"a. c #886788",
"s. c #8E6C8B",
"d. c #836A88",
"f. c #906E8D",
"g. c #906689",
"h. c #89748B",
"j. c #987984",
"k. c #887992",
"l. c #9B7B95",
"z. c #9A7C9D",
"x. c #937994",
"c. c #A67D83",
"v. c #B57A88",
"b. c #C17187",
"n. c #C77B8D",
"m. c #988A9E",
"M. c #AD848B",
"N. c #A5858B",
"B. c #B3818C",
"V. c #B9848C",
"C. c #A88993",
"Z. c #B98C92",
"A. c #B79399",
"S. c #9E87A0",
"D. c #A792A4",
"F. c #A98AA1",
"G. c #B3A4B6",
"H. c #DA828A",
"J. c #CE879E",
"K. c #C78A97",
"L. c #D78A95",
"P. c #CA949D",
"I. c #D18995",
"U. c #E2929A",
"Y. c #E5989E",
"T. c #C69DA4",
"R. c #DD95A3",
"E. c #DF9AA7",
"W. c #DF9EAC",
"Q. c #D697A4",
"!. c #E49EAB",
"~. c #E89DA7",
"^. c #C9ABB5",
"/. c #D7ABB3",
"(. c #CEA7AF",
"). c #E9A1A7",
"_. c #EFA8A7",
"`. c #E6A1AD",
"'. c #EBA5AE",
"]. c #E9A4AA",
"[. c #F0A9A8",
"{. c #EBA4B2",
"}. c #ECABB5",
"|. c #E4A8BB",
" X c #EDADB9",
".X c #E4A5B4",
"XX c #F2A6B5",
"oX c #F1AAB5",
"OX c #F4ADBB",
"+X c #F0A7B8",
"@X c #EEB2BD",
"#X c #EEB0B6",
"$X c #F7BAB7",
"%X c #F3B3BD",
"&X c #F8B5BE",
"*X c #F7B9BC",
"=X c #F8B7B9",
"-X c #F4B0AE",
";X c #EBBCC0",
":X c #E2B8C0",
">X c #F1B6C1",
",X c #F4BAC4",
"<X c #F3BDC9",
"1X c #F8BAC6",
"2X c #EDC2C7",
"3X c #EEC2CB",
"4X c #F6C2CB",
"5X c #FAC1CA",
"6X c #FBC3C6",
"7X c #FCC5D0",
"8X c #FDCCD4",
"9X c #FECFD8",
"0X c #FFD2D5",
"qX c #FFD1DA",
"wX c #F9DAD8",
"eX c #F5D5D5",
/* pixels */
"                                                                                                                                ",
"                                                                                                                                ",
"                                                                                                                                ",
"                      T ] ] ] ] ] ] ] ] ] ] ] ] ] ] ] ] ] ] ] ] ] ] ] ] ] ] ] ] ] ] ] ] ] ] ] ] ] ] ] ] ] s                     ",
"                      qX2X2X2X2X2X2X2X;X;X;X;X;X;X;X;X;X;X*X*X;X*X2X@X;X;X2X*X;X;X;X;X2X2X;X;X;X2X2X<X2X2Xj.                    ",
"                      3X>X<X<X<X<X<X<X>X'.'.{.{.'.{.'.{.'..X.X]..X'.{.{.'.'.'..XR.R.|.|.|.R.R..X|.|.|.|.W.3.                    ",
"                      :X>XqXwXwXwXwXwXwXwXwXwXwXwXwXwXwX^.F.p.C.^.eXwXwXwXwXwXwXwXwXwXwXwXwXwXwXwXwX9XqX}.(                     ",
"                      ^.>XqX>XW.J.J.J.J.J.J.J.J.J.J.J.J.s.t.k k l 7 n ^ $.v.J.J.J.J.J.J.J.J.J.J.J.I.qXqX`.T                     ",
"                      (.8XqX<X7Xn.=.=.=.=.=.=.=.=.=.=.=.y.t.j j l j j j j j v K ' ' %.*.=.=.=.R.>X!.qXqX!.I                     ",
"                    . A.>XqX<X4X&.y t r r r r r r r r r $.t.j j j j j j j j x k l 6 * * ; t H b.1XW.qXqX!.d                     ",
"                      A.>XqX<X4X&.0 O O O O O O O O O O _ t.j j j j j j c x c c c k - * # # H I.>X`.qXqX}.5                     ",
"                      A.;XqX;X<X&.0 O O O O O O O O O O _ t.j j j , 6 c c c v v x c 7 * # # ..W.,X`.qX;X>Xo                     ",
"                      N.>XqX>X,X&.0 O O O O O O O O O O _ t.j z 7 O O x v v v 7 O 7 v = * * H W.,X`.qX,X>X.                     ",
"                      j.>XqX>X,X&.0 O O O O O O O O O O _ t.j x > O O , n n n * O # n 7 * * } W.>X.XqX,X%X                      ",
"                      3.>XqX>X,X7.r O O O O O O O O O O #.t.x c # O O # n n n O O $ c i * *  .W.!.>XqX,X/.                      ",
"                      ,.>XqX>X,Xb.r O O O O O O O O O O f.u.x - $ O O $ v M i O O O 7 x * * | E.R.>XqX X/.                      ",
"                      -.>XqX8X>Xb.r O O O O O O O O O O s.u.c # O O O O ; M O O O O - 7 * - | U.U. X9X{.T.                      ",
"                      ] >X8X<X{.b.r O O O O O O O O O O s.u.c - O O O O > Z O O O O O 7 - ; | #XU. X9X{.A.                      ",
"                      R  XOX1X{.b.y $ O O O O O O O O O s.p.v - O O O O ; U O O O O O 7 & ; | *XU. X9X XN.                      ",
"                      I  X>X1X.Xb.y O O O O O O O O O O s.f.c > O O O O ; M O O O O O 8 - 1 | *XU.,X9X>X5.                      ",
"                      P +X+X>X{.b.y O O O O O O O O O O s.u.c > O O O > > Z O O O O O 7 * q | *XH.8XqX{.,.                      ",
"                      s +X>X1X{.b.a O O O O O O O O O O g.a.z - O V ~ ~ > M O O O @ > i * q | $Xn.8XqX`.(                       ",
"                      i |.>X1X{.W.u O O O O O O O O O O f.f.c > O ~ ~ ~ < Z c A ! ~ Q 7 & w  .$XH.8XqX{.T                       ",
"                      8 ~.OX>X{.W.u O O O O O O O O O $ z.z.z - O ~ ~ ~ S B ~ ~ ~ ~ L 8 * w  .$XH.8X9X>XI                       ",
"                      2  X>XOX{.W.u O O O O O O O O O O z.z.z - O Q ~ ~ n A ~ ~ ~ ~ Q 1 * w &.$Xn.8XqX`.s                       ",
"                      +  XOX>X!.W.u O O O O O O O O O O z.z.l - O V ~ ~ N U ~ ~ ~ ~ L , * p &.$XU.8X0X!.4                       ",
"                      o  XOXOX'.W.g O O O O O O O O O O l.z.l & O V ~ ~ c S ~ ~ ~ ~ L , # p &.$XH.0X0X!.*                       ",
"                      X +XOX>X'.W.G O O O O O O O O O O l.z.l = O V ~ ~ c V ! ~ ~ ~ L : # p &.$XH.0XwX#Xo                       ",
"                        }.OX%X'.W.G O O O O O O O O O O l.z.j = $ V ~ ~ c V L ~ ~ ~ L , + a &.$XH.0X5X}.                        ",
"                        .XOX%X'.}.G O O O O O O O O O O l.z.j , O V ~ ~ c B Q ~ ~ ~ L = # a &.$XH.0X<X].                        ",
"                        Q.oX%X}.0XG O O O O O O O O O O s.a.j , O V ~ ~ c B Q ~ ~ ~ Q = # D *.$XH.0X,XP.                        ",
"                        P.XX>X}.0XJ O O O O O O O O O O p.a.j , O V ~ ~ c B Q ~ ~ ~ L = # G 6.$XU.0X6XP.                        ",
"                        T.XXOX#X0Xh O O O O O O O O O O i.a.z > O j ~ ~ c B L ~ ~ ~ L : # F 6.-XY.0X,XM.                        ",
"                        P.}.oX'.0Xh O O O O O O O O O O i.a.j , O j ~ ~ c B ! ~ ~ ~ L = # F 6._.Y.0X*XN.                        ",
"                        Z.{.oX}.0Xh O O O O O O O O O O g.s.j , O z ~ ~ c B L ~ ~ ~ Q > # F 6._.Y.0X%X3.                        ",
"                        B.{.%X}.0X} O O O O O O O O O O l.S.` U z c ~ ~ z N L ~ ~ ~ C , # F 6._.Y.0X,X-.                        ",
"                        c.{.OX{.0X} O O O O O O O O O O C.G.m.m.< t.) ~ z j L ~ ~ ~ N , # F 6.[.].0X<XE                         ",
"                        c.{.OX}.0XX.O O O O O O O O O O m.G.` ^ > B ~ ^ c j L ~ ~ ~ B > # J I.*X#X0X@XY                         ",
"                        1.'.5X{.0X&.O O O O O O O O O O D.G.d./ l l N N c j c B C S c < # H E.*X%X0XoXI                         ",
"                        -.}.0X'.0X&.O O O O O O O O O O >.s.k./ j j l h.) ` ` ) j j x > # H W.-X#XwX*Xs                         ",
"                        -.,XqX).0X&.O O O O O O O O O O i.s./ A j j j k.) d.d.) k j j , # H W.}.@X0X*X4                         ",
"                        E >X0X).0X&.O O O O O O O O O O i.s.j j < < < j j j j j j j j , # } W.$X#XwX#X*                         ",
"                        R >XqX~.6X&.@ O O O O O O O O O i.s.l j < U ^ U n l < 6 x C n , * } W.*X#X8X].o                         ",
"                        Y >XqX}.1X&.& O O O O O O O O O i.s.j j : l l l c j < 6 C S U < * } W.1X{.OX].X                         ",
"                        P %XqX}.6X&.% O O O O O O O O O i.s.j j : l l l l j j : k k k < # | 5X,X{.OX~.                          ",
"                        s %XqX@X6X6.% O O O O O O O O O i.s.j j : l l l l j < < l k k , # | 0X%X{.OXQ.                          ",
"                        s OXqX}.<Xb.% O O O O O O O O O i.s.j j : l l l j j j , l l l < * | 0X%XXXXXK.                          ",
"                        8  XqX}.5Xb.e O O O O O O O O O i.s.j j : j l l l j < , l l l < - | 0X%XXXXXB.                          ",
"                        5 %X0X@X5Xb.e O O O O O O O O O >.s.j j : l l l l j < < l l l < ; | 9X+X}.+Xv.                          ",
"                        2 @XqX X1Xb.e O O O O O O O O O >.s.j j : l l l l j j : l l l = ; | 9X>X+X+X5.                          ",
"                        o @XqX X&Xb.e O O O O O O O O O >.f.j j : l l l l j < < l l l = 1 | qX>X7X1X-.                          ",
"                        o  X0X X&Xv.0 O O O O O O O O O s.z.j j : l l l l j j < l l j = q &.qX+X9X1XE                           ",
"                        X {.qX@X&Xb.0 O O O O O O O O O s.z.j j : l l l l N j < l l l = q &.qX{.qX4XY                           ",
"                          {.qX@X>XW.0 O O O O O O O O O s.z.j j : l l l c B j < l l l = w &.qX}.9X<XP                           ",
"                          `.8X].&XW.0 O O O O O O O O O s.z.j j : l l l l B l < l l l = w &.qXoXqX>Xd                           ",
"                          I.*X).&XW.0 O O O O O O O O O s.z.j j : l l l l B j < l l l : b &.qXoXqXOX4                           ",
"                          P.*X).&X!.r O O O O O O O O O a.f.j j : l l l l B l , l l l = p &.qX+XqX%X3                           ",
"                          K.*X].,XW.r O O O O O O O O O i.f.j j : l l l l B l < l l l : b *.8X+XqXOXo                           ",
"                          V.*X).XX`.t O O O O O O O O O #.f.j j : l l l l B j : l l k = b b.7XXXqX}.X                           ",
"                          v.=X).XX!.t O O O O O O O O O i.f.j j : : : : l N j : : : : = D v.7XOX9X!.                            ",
"                          8.=X_.&X}.y O O O O O O O O O >.f.j j n Z A Z B B c 6 7 6 < = D b.7X>XqXQ.                            ",
"                          2.=X].1X0XD O O O O O O O O O ` f.j j j j j B B B B B B z z = F b.7X>XqXK.                            ",
"                          <.OX_.-X6X+.W @.:.:.:.;.;.@.@.c.v.<.<.<.<.2.4.p.j.4.2.@.@.o.K ..7.]. XqXv.                            ",
"                          R K.v.w.w.w.w.w.w.9.O.9.w.w.q.w.w.w.w.w.w.e.9.9.9.9.9.9.w.w.r.0.0.0.0.K.-.                            "
};
