/* XPM */
static char *result[] = {
/* columns rows colors chars-per-pixel */
"50 50 206 2 ",
"   c #020404",
".  c #080A0D",
"X  c #0E1206",
"o  c #13130D",
"O  c #191B0D",
"+  c #060B14",
"@  c #0A0E14",
"#  c #0F1113",
"$  c #0B111B",
"%  c #141513",
"&  c #161916",
"*  c #1A1B16",
"=  c #12161C",
"-  c #17191A",
";  c #1B1C1B",
":  c #1F210C",
">  c #1F2015",
",  c #1E211E",
"<  c #222508",
"1  c #212414",
"2  c #2A2E15",
"3  c #21231C",
"4  c #25291A",
"5  c #2B2C1D",
"6  c #2D3519",
"7  c #333918",
"8  c #151B23",
"9  c #1B1E23",
"0  c #1E2223",
"q  c #1F272C",
"w  c #1E2632",
"e  c #232524",
"r  c #262925",
"t  c #2A2B25",
"y  c #22262B",
"u  c #25292C",
"i  c #2B2D2B",
"p  c #302F2C",
"a  c #2F3225",
"s  c #2E312C",
"d  c #323425",
"f  c #363C23",
"g  c #383B22",
"h  c #32332D",
"j  c #363B2C",
"k  c #393B2B",
"l  c #232A34",
"z  c #2B2E32",
"x  c #272D38",
"c  c #2D3233",
"v  c #2D323C",
"b  c #343533",
"n  c #363934",
"m  c #3A3B35",
"M  c #33363A",
"N  c #363A3C",
"B  c #3B3D3B",
"V  c #3B422C",
"C  c #3E4134",
"Z  c #3E413D",
"A  c #4C542D",
"S  c #424434",
"D  c #464A34",
"F  c #4B4C37",
"G  c #42433D",
"H  c #45493C",
"J  c #4B4D3D",
"K  c #4C533B",
"L  c #343B43",
"P  c #393E42",
"I  c #393F49",
"U  c #374341",
"Y  c #3E4143",
"T  c #3B4149",
"R  c #374852",
"E  c #434543",
"W  c #454944",
"Q  c #4A4C46",
"!  c #42464B",
"~  c #484649",
"^  c #454A4B",
"/  c #4A4C4B",
"(  c #4D5144",
")  c #4E514C",
"_  c #535544",
"`  c #52544D",
"'  c #55594E",
"]  c #5A5C4D",
"[  c #404752",
"{  c #434A53",
"}  c #4C4F51",
"|  c #4E5252",
" . c #4B5659",
".. c #535553",
"X. c #555955",
"o. c #595B54",
"O. c #52565A",
"+. c #58565D",
"@. c #555A5A",
"#. c #5A5D5B",
"$. c #605E5D",
"%. c #5E6057",
"&. c #57615C",
"*. c #5D615D",
"=. c #62635D",
"-. c #676A5D",
";. c #4E5563",
":. c #565C62",
">. c #5B5E62",
",. c #5C5D6A",
"<. c #5D6263",
"1. c #5F6965",
"2. c #5E636A",
"3. c #5C696E",
"4. c #546871",
"5. c #626563",
"6. c #656965",
"7. c #696B65",
"8. c #626669",
"9. c #686669",
"0. c #646A6C",
"q. c #6B6D6B",
"w. c #6D716D",
"e. c #72746C",
"r. c #656D71",
"t. c #6B6E73",
"y. c #667173",
"u. c #6C7273",
"i. c #6F7874",
"p. c #6C7778",
"a. c #6E797A",
"s. c #727573",
"d. c #757975",
"f. c #7A7C75",
"g. c #71767A",
"h. c #757A7B",
"j. c #7A7D7B",
"k. c #74807E",
"l. c #7E817D",
"z. c #85857B",
"x. c #82847D",
"c. c #6C7D81",
"v. c #747E83",
"b. c #7A7E80",
"n. c #778182",
"m. c #7D8283",
"M. c #7F8987",
"N. c #778389",
"B. c #7A858B",
"V. c #7D8A8A",
"C. c #7E8B94",
"Z. c #828583",
"A. c #858985",
"S. c #8A8C84",
"D. c #828689",
"F. c #858B8B",
"G. c #8A8D8B",
"H. c #8F9085",
"J. c #86918F",
"K. c #8D918D",
"L. c #909186",
"P. c #92948D",
"I. c #96988F",
"U. c #858D93",
"Y. c #8A8E92",
"T. c #869293",
"R. c #8C9393",
"E. c #8D9896",
"W. c #8C959A",
"Q. c #8A989B",
"!. c #939693",
"~. c #959994",
"^. c #9A9C94",
"/. c #929799",
"(. c #949B9C",
"). c #9A9D9B",
"_. c #9FA197",
"`. c #9DA19B",
"'. c #A4A59B",
"]. c #A2A49C",
"[. c #8E9DA3",
"{. c #949CA1",
"}. c #9C9EA1",
"|. c #95A1A4",
" X c #9CA4A4",
".X c #9AA7AB",
"XX c #9DA5A9",
"oX c #A3A5A3",
"OX c #A4A9A5",
"+X c #ABADA3",
"@X c #A3ABAC",
"#X c #A9ADAD",
"$X c #AEB1A7",
"%X c #AAB1AE",
"&X c #B3B6AC",
"*X c #B8BBAF",
"=X c #A7AFB0",
"-X c #A5B2B5",
";X c #ACB3B4",
":X c #ACB9BB",
">X c #B5BAB3",
",X c #B9BDB5",
"<X c #B1BEC0",
"1X c #BAC5C5",
"2X c #C6D4D5",
"3X c #D8E4E2",
/* pixels */
"W Q ..X.q.h Q Z.D.oX'.!.~.G Z l.l.( Z 6.X.Z n i.d.A.k.` s p.S.W = ) w.] s T.F.f.E h.=.o.Y G.X.J #.#.",
"..E O.s.E S j.s.!.+X'.).` 5 K.~.7.Z d.M.w.n 3.k.k.l.y.n N / 0.0.t %.w.X.Q =.1._ C w.#.Z ) G.=./ l.j.",
"~ >.d.` b 5.8.q.m.P.`.X.m o.A.m.X.M.R.l.1.0.y.6.w.6.s 0 ^ ^ ^ s <.J.J.M.7.-.~._.P.z.%.V q.F.=.W j.z.",
"0.Z.=.S N ;.9.t.Z.K.` ^ !.m.7.) | J.A.y.M.J.`.M.h Y m W <. .W a.M.`. Xh.Q w.&X&X*X$Xl.Z D.~.~ m S.G.",
"d./ Z _ C R #.9.6.Q ^ n.g.E.>X`.d.&./ k.V.@X X&.s a.k.1.E b 3.J.C.:XE.u.s.0.OX&X*X&Xw.Z F.h.b 4 b.d.",
"E b d.OX^.z.' d =.o.c Y <. X>X%X.X6.&.J.T. XJ.3.1.V.V.V.W , p.n.T.T.k.K X.#.&.<.l.+X5...G.o.q.e.#.y ",
"p g.D.G.!.^.e.X.(.OX' Z 6.) 1.y.) 3.`.V.T.k.@.3.y.k.V.k.i  .V.V.n.M.1.*.F. X|.y.Y N s w.s./ d.`.>X).",
">.A.!.).G.s.#.!. XF.X.`.*Xf.*.' ( Q.T.V.i.n | ) V &.p.&.q 4.n.B.M.1.j | y.`.1X2X1XA.s @.7.Z n Q %.b.",
"f.Z.).).l.o.Z.(.G.5.S.`.OX&XS.D E.T.n.p.Z R p.p. .^ a.6.Z R 4.p.p.n y.k.%.&.n.1X3X3X;Xl.Q ~ 9...| ` ",
"Z.Z.Z.e.W w.F.m.#.!.].OX].^.w.3..X-X.X&.Z y.y. .U a.V.T.J.&.Z  .Y &.-X XJ.' m <.{.:X:XE.E 7.s.#...W ",
").`.x.b ) 9./ ~ A.$X_.I.H.l.#.q.y.V.k.( n.y. .u p.J.M.F.E.&.4.&.Y T.C.`.M.e <.6.j 3.9.m X.j.e.7.Q 6 ",
"].^.o.$.Z.e.a #.K.x.A.S.OX..a.|.J.y.V Z k.1.( 1.V.Q.E.E.V.s y. .k.|.[.|.&.t 3.F.F k.l.G q.Z.q.%.n ` ",
"oX$.=.j.7.B ~ j.w.f.H.OXs.@.v.C.-X1X1X.X7.) 6.1.} R 4.V.Z U  .n V.T..XT.3 ) a.E.) y. Xw.X.l.d.6.p Z.",
"o.~ A.=.E E #.8.0.j.G.7.m / 0.N.T..X<X2X2Xl.s i.M.&.c 0 ' <X-X`.@. .y.c h X.h./.w.Y m.l.g J X.~ b j.",
"5 b ~ G b o.<.<.6.w.7.Z ( @./ 2.N.[..X[.|.X.X.J.a.a.1.C k. X|.@X*.r &.Z m Y b.T.d.n  .5.H 9.5.n t Z.",
"H.z.e.m ; v | { ^ X.Z 5.m.m.7...3.c.N.N.y.^ M.h.u.y.| c k.T.E.M.B / v.i.m ^ b.T.d...#.o.} d.e.H t K.",
"]._.^.~.=.e = l e 3 q./.m.U.!.f...@.2.:.Y y.k.y.9.3.B ^ Q.Q.U.h.s E r.@./ a.(.oXl.| / P } j.7.W t Z.",
"!.oX'.)._.S.W * O Q @X@X@XXX(.s.} g.5.H Z g.r.y.3.<.c V.{.Q.T.m.b E <.^ i h.=XOX`...#./ 8.Z.5./ e 9.",
"8.d.K.`.~._.'.F 2 j.).}.=X;X(.#.{ #.@.` 6.2.2.r.r.B  .}.W./.T.<.e / X.Y e v. X#X`.=.~ M h.x.q.o.i >.",
"L L { 8.d.j.A.#.B m./.R.(.R.d.W } ) ^ E r.@.>.9.5.M t.U.U.W.h.W 1 N | B 4 m.|.Y.h...h B m.x.d.q.G I ",
"8 v I T ^ } / m { b.D.D.F.s.~ 4 / m g ] 8.8.9.>.W t [ a.D.Y.q.b 7.=.m t 1 Y [ M #.Q e Y D.Z.e.9.S 7 ",
"* % l L N l i M | u.h.h.q.E t ] -.o.F _ #.<.8.} j Q u 9 [ r.b E S.j.f.7.S ; + $ P E ; T j.w.5.m C K ",
"' Q z M M r n ! <.<.X.X.~ e ' f.-.f.f.-.( F s.~ v (.!.7.b e ; 5.s.x.A.~.G.e...e $ e e O.m.q...- $.'.",
"e.q.^ / D 7 ^ 8.O...| ~ r Q z.d.e.e.z.L.z.( -.G x (.`.A.w.t B t.5.d.S.^.~.H.L.x...* u <.F.6.Q e h.!.",
"j.s.7.s.5.J +.O.} } ~ M - ! 7.e.e.e.z.L.z.e.H 4 I oX).j.5.B N 5.q.Z.P.~.^.^.A.j.s.m M s.G.9.G b G.g.",
"j.x.d.=.n d Y E ..X...S 3 @ M s.z.z.z.z.f.9.] e { {.!.Z.5./ p y i +.^._.+X'.z.f.9.9 ! b.!.w./ b b.j.",
"j.w.#.b Q o.=.W h G #.$.p   @ l f.I.f.f.z.e.$.i { G.G.d.7.X.` b z - z t.D.x.s.q.G % Y Z.^.s...u ,.Z.",
"9...h / Z.7.s.d.` 5 m r X.G     9 e.L.e.e.e.o.t 8.D.D.e.9.Q M s.j.S 4 r , o ; l 3 1 v /.).e.~ b j.j.",
"^ b b s.7.s.l.f.$.( 3 y ,XI.h o   @ >.z.e.e.] & b.d.d.s.5.i B j...X.` m / d.5.b Q ] e g.s.q.Q B Z.9.",
"; ; u.7.q.d.x.f.5.` % 5.Z.K.x.` e e $ ~ e.7.p * g.s.d.d.o.r >.s./ X./ m <.!.x.d S s.` i E / p | G.w.",
"e 9.d.5.e.s.s.5.5.h z O.} 5.s.j.b p t # M G 5 h >.u.h.d./ B j.X...` G B u.Z.5.` k S.f.9.b 1 - 9.j.j.",
"@.x.q.e.e.7.q.=.) 0 E P ..+.$.` > C e.=.G m F Q N M N m e >.G.../ B m E j.j.%./ B f.e.f.$.p m G.f.j.",
"A.q.7.e.7.9.#.B * M B P ~ / } e b I.L.x.w.e.=.=.` o.' m 7 d Y X./ N k O.G.l.7.E Y j.j.d.$.p W ).K.G.",
"w.9.q.e.5.=.n   9 i e M B B e i l.H.l.j.w.f.s.7 ` P.'.I.f.$.` E B g S >.D.s.q.G E Z.S.d.$.p ~ ).^.oX",
"Y 9.9.7.9.` ; ; ; z ..B ~ G t s.f.s.S.h.h.w.5.D j.G.^.'.+X_.I.z.J V #.8.Z.q.5.p ) S.Z.d.#.n i S.G.}.",
"; e  .` ` h % b / ~ ,.~ ~ B q.Z.s.j.F.g.w.6.H ) G.L.P.^.&X+XI.S._ f >.j.G.7.X.3 X.G.f.f.$.G % Z.P.I.",
"' t & e i % t / 5.#.E Y N +.l.s.j.D.b.7.#...j 0.K.~.P.A.^.'.I.P.` W >./.A.<.~ % #.l.d.l.=.) * j.!.oX",
"o./ * e n t i b +.$.~ +.E d.d.d.b.M.m.9.X.C 2 q.^.'.'.I.S.z.x.f.W ~ t.v.l.+.n o =.S.Z.l.=.#.& 5.G.^.",
"} t & } $.5.] t ; G B z 8.l.s.w.D.G.d.5.~ j.~ 8.L.S.~.P.~.S.l.=.h P s.v.e.~ p O =.G.Z.s.9.$.% | Z.Z.",
"B o z #.X.X.9.$.m 0 e / A.f.7.t.R.Z.9.) d.}.^ q.Z.G.L.~._.^.x...p ..d.s.#.Z t O X.Y.j.x.5.9.* } b.d.",
"3 e } o.X.#.+.` Z > & q.d.w.9.Y.D.s.X...,.t.^ 5.f.L.'.^.'.^.L.` i t.G.w...B , < ^ b.d.s.q.0.3 P D.f.",
"* ^ 5.X.#.#.*.Q p % y s.s.<.v.Y.h.q.} ~ h e ! t.8.d.S.^.'.$X_.Q n v.j.9.E t t : s 2.<.:.,.w.; x v.j.",
"=.@.5.5.5.X.X.B 3 # N s.9.8.b.t.q.>.W 6 _ $.B ! / } +.Z.`._.S.G ~ j.t.$.p 9.&Xd.h y w 8 l I * q ,.D.",
"o.@.5.6.9.#...h * e +.t.#.c.t.8.8.X.k A / q.q.~ p L M P #.9.$.b / D.q.) Y oXA.G.K.$.z   . @ o l [ Y.",
"..@.o.#.5.X...* 9 #.q.<.8.t.8.0.o./ _ $.7.Z.Y.!.7.b v 9 = u z e 5.f.<.B >.).s.v.D.K.l.#.h O o y L t.",
"E X.X.>.X.o.i @ ! q.>.5.t.8.8.5.} B ] 7.d.b.G.Y.OXZ.~ z B z = B h.q.+.n ~ D.G.!.Y.Y.D.v.j.7.j ; L { ",
"~ ^ X.X.+.~ ; c q.<.8.t.8.>.>.#.~ Q +.t.t.Z.U.{.{.oXP.E P } b O.s.X.) G , u 8.Y.!.Y.Y.b.m.!.G.=.t 8 ",
"^ Q +.#...b t ;.0.5.9.0.<.#.O.^ b g $.>...Z.U.W.@X}.#XP.b % y ! 9.X.) B p m 0 L g.G.!.Y./.(.!.`.P.Q ",
"B / ..@./ h x R 8.5.8.r.#.O.) n d V V s.7.s.b.Y.XX;X@X=X#X( X I t...~ b n 9.] 1 e [ s.m.Y./.).(./.K.",
"B ~ ~ / E r w ^ <.@.2.8.>...E e t / G / $.q.b.Y.XX;X:X;X;XOXQ e j.X.B 3 J #.O.5.g * L O.l.K.!.}.}./."
};
