/* XPM */
static char *result[] = {
/* columns rows colors chars-per-pixel */
"64 64 216 2 ",
"   c #000000",
".  c #0C0503",
"X  c #0D0C0B",
"o  c #130805",
"O  c #1F0D09",
"+  c #1B0C07",
"@  c #1F120E",
"#  c #1A1817",
"$  c #2C130C",
"%  c #26130C",
"&  c #33150D",
"*  c #3B1A0E",
"=  c #37180F",
"-  c #2C1A1A",
";  c #2A1A14",
":  c #331A11",
">  c #3C1C13",
",  c #3E1F18",
"<  c #280F0A",
"1  c #39231A",
"2  c #392522",
"3  c #392526",
"4  c #33312D",
"5  c #2F2A29",
"6  c #451C0E",
"7  c #421D11",
"8  c #4A1F10",
"9  c #75150E",
"0  c #45230F",
"q  c #4D210E",
"w  c #5A260F",
"e  c #54250F",
"r  c #432112",
"t  c #4C2411",
"y  c #4F2811",
"u  c #442519",
"i  c #45291B",
"p  c #4C2C1B",
"a  c #49251A",
"s  c #522511",
"d  c #592711",
"f  c #542A12",
"g  c #5B2D13",
"h  c #552D1B",
"j  c #5F3014",
"k  c #5B321D",
"l  c #50341F",
"z  c #6B2E0E",
"x  c #652C0E",
"c  c #75320D",
"v  c #7C350D",
"b  c #642B11",
"n  c #633214",
"m  c #6C3212",
"M  c #66351C",
"N  c #7A3611",
"B  c #763918",
"V  c #6F300D",
"C  c #482C25",
"Z  c #4C3329",
"A  c #533424",
"S  c #5B3423",
"D  c #573B28",
"F  c #483A36",
"G  c #593D34",
"H  c #643C25",
"J  c #643E2D",
"K  c #673C28",
"L  c #723F24",
"P  c #594B2A",
"I  c #5A4429",
"U  c #58423B",
"Y  c #6A432D",
"T  c #674A2C",
"R  c #764429",
"E  c #62512E",
"W  c #684736",
"Q  c #774C35",
"!  c #6A5832",
"~  c #7D533B",
"^  c #755934",
"/  c #786439",
"(  c #3A3A40",
")  c #3F4046",
"_  c #484444",
"`  c #5B4642",
"'  c #575553",
"]  c #67514B",
"[  c #755948",
"{  c #665654",
"}  c #6A524B",
"|  c #67625B",
" . c #7B6155",
".. c #656469",
"X. c #756765",
"o. c #6F7279",
"O. c #75787F",
"+. c #7E7778",
"@. c #777070",
"#. c #81370C",
"$. c #853A0D",
"%. c #883A0F",
"&. c #923F0A",
"*. c #843B13",
"=. c #923F10",
"-. c #852518",
";. c #97410A",
":. c #9B430B",
">. c #8F4C17",
",. c #A3460D",
"<. c #A7480D",
"1. c #AC4A0C",
"2. c #B24D0D",
"3. c #B84F0E",
"4. c #BB500E",
"5. c #A34711",
"6. c #864A26",
"7. c #85583C",
"8. c #824D30",
"9. c #85643B",
"0. c #956D3B",
"q. c #986629",
"w. c #B16C0D",
"e. c #C3540F",
"r. c #CC7137",
"t. c #D37B13",
"y. c #865D44",
"u. c #87644C",
"i. c #946346",
"p. c #97674A",
"a. c #8A7242",
"s. c #977C48",
"d. c #957644",
"f. c #936E53",
"g. c #977556",
"h. c #8B6A50",
"j. c #AB7553",
"k. c #A77856",
"l. c #B57C58",
"z. c #A26D4B",
"x. c #867A75",
"c. c #8B7466",
"v. c #A27E60",
"b. c #C1794B",
"n. c #E49412",
"m. c #F4B035",
"M. c #B28A4E",
"N. c #B98159",
"B. c #B58A59",
"V. c #948477",
"C. c #A68464",
"Z. c #BA8E69",
"A. c #BB9973",
"S. c #C1865F",
"D. c #C79A55",
"F. c #E1AB43",
"G. c #CC8F65",
"H. c #C9936A",
"J. c #D59A6E",
"K. c #D8AF62",
"L. c #D5AA7E",
"P. c #C2A17B",
"I. c #EDAB7A",
"U. c #E2A273",
"Y. c #EFB17F",
"T. c #CEA65D",
"R. c #7A7F85",
"E. c #757980",
"W. c #82858B",
"Q. c #8B8586",
"!. c #948C8B",
"~. c #868B92",
"^. c #969699",
"/. c #94928E",
"(. c #A49E99",
"). c #A7978E",
"_. c #989DA4",
"`. c #A09EA0",
"'. c #9DA3AA",
"]. c #A3A2A4",
"[. c #A7ACB0",
"{. c #A9B0B6",
"}. c #AFB6BC",
"|. c #B2B6BA",
" X c #B2B8BE",
".X c #B4AB9F",
"XX c #CFAE86",
"oX c #DAB88D",
"OX c #EAB686",
"+X c #F1B786",
"@X c #F4BC8B",
"#X c #E5BE90",
"$X c #C0B7AA",
"%X c #F5C18F",
"&X c #F7C896",
"*X c #FAD29F",
"=X c #EBCA9B",
"-X c #CDC3B5",
";X c #FFDFAC",
":X c #FCD6A3",
">X c #B5BDC3",
",X c #B8BEC3",
"<X c #B8C1C6",
"1X c #BDC6CB",
"2X c #C2C9CE",
"3X c #C1C6CB",
"4X c #C4CDD3",
"5X c #C8CDD1",
"6X c #C6D1D6",
"7X c #CBD4D9",
"8X c #D2D6D9",
"9X c #D7DBDE",
"0X c #FFECCE",
"qX c #E6E8EA",
"wX c #EBEDEE",
"eX c #FAFAFB",
/* pixels */
"                                                                                                                                ",
"                                                                                                                                ",
"                                                                                                                                ",
"                                                                                                                                ",
"                                                                                                                                ",
"                                                                                                                                ",
"                                                                                                                                ",
"                                                                                                                                ",
"                                                                                                                                ",
"                                                                      $ 7 7 7 & .                                               ",
"                                                              . $ 7 t 2.e.e.e.2.7 .                                             ",
"                                                            < s 1.#.e.e.e.e.e.e.$.e 7 <                                         ",
"                                                          6 $.e.e.4.e.e.e.e.e.e.4.e.e.s +                                       ",
"                                                        $ $.3.e.e.1.3.4.e.3.2.$.z v 1.5.=                                       ",
"                                                        q $.N 3.1.=.b B $.c s 8 s d z &.7                                       ",
"                                                        8 t ;.f 8.i.H.@XH.G.OX%X@X@X%X>.7                                       ",
"                                                        t z z z.:X:X;X;X;X;X;X;XXXXXXXk.>                                       ",
"                                                        6 c s Q ~ ~ Q f.oX;XP.B 6.6.6.k p                                       ",
"                                                      ; S M m e.2.2.2.3.f.;X7.1.1.1.1.M W %                                     ",
"                                                      D #XXXR z z Q R g Z.;XXXS J S h y.Z.1                                     ",
"                                                      S l.H U.S.Q ).c.u.:X;X;Xf.c.} i.j.j.i                                     ",
"                                                    + N 7.R G.+XC.h.P.oX;X;X;Xk.~ A.XXf.j.a                                     ",
"                                                  o e =.b 5.r.@X:X;XL.C.;X;X;X&X7.k.z.M h x .                                   ",
"                                                . * %.d 5.e.e.r.l.r.Y :X;X;X0X0XG.@XQ e.m =.8 * = = o                           ",
"                                            . : 7 f v 2.e.e.4.m ,.3.h j.U.&X;X:XJ.i.g 2.3.z 5.d 0 f r : .                       ",
"                                          . * f s :.1.e.e.2.b 4.e.3.&.*.H i.G.j.h c 1.e.e.#.b #.n m f g 7 &                     ",
"                                        . * g t q 4.e.4.4.d 2.e.e.e.e.3.1.B B N :.3.e.2.<.<.V 5.t f n j f t =                   ",
"                                        > f n g s 2.e.,.&.v 2.2.3.,.2.3.,.;.P.l.&.;.1.3.3.2.&.b s b n f f n f =                 ",
"                                      + f f 0 j q &.1.,.x ;.:.1.&.2.2.&.6.p.+X+X8.z #.&.#.#.$.w N g 0 g f f f j $               ",
"                                      > n f y y f z ;.;.s ;.;.;.:.&.v e h k K 6.;.&.c z z z z s N g f f n g f f r o             ",
"                                    o t g j g n b t %.c e ;.v w w w z &.<.,.,.<.3.e.3.3.2.3.,.1.w t f 0 n j f g n *             ",
"                                    & f f n f f g y w #.s q c ;.1.2.3.e.e.e.e.e.e.e.e.e.e.e.<.%.z f y g f y g f t r .           ",
"                                    & 7 0 y f 0 0 r 7 &.c ;.2.e.e.e.e.e.e.e.e.e.e.e.e.e.e.e.e.z g y f n n m n n n t +           ",
"                                      1 u.i p  .C.l.7 ;.;.e.e.4.2.e.e.e.e.e.e.e.e.e.e.e.%.e.e.c q Q S 7 0 > 0 0 1 0 o           ",
"                        o ; o       . W ;X;X;X;X;XOXs &.;.v $.m 1.e.e.e.e.e.2.e.e.e.e.e.V ,.3.R L.9.D A.g.u.p J z.0             ",
"              . % 2 F { Q.].^.{ F 2 % g.;X;X;X;X;X+XS z f D.F.w 1.e.3.2.e.e.&.e.e.e.e.e.v g q.K G.I.L.g.S q r Y 0 t .           ",
"      . 2 F G +.].4X>X>X5X9X8X1X<X,X^.c.[ v.XX;X;XH.W s n.m.n.m ,.e.1.1.e.e.&.e.3.1.e.2.b w.q.6.i.I.*X;X;X;X=XOXG.Y o           ",
"      1 `.1X>X}.|.<X7X8X2X1X9XwXeXqX8X1X<X|.!. . .y.[ j t.5.n t &.e.2.,.e.e.&.3.3.,.e.1.d A x.C K I.:X;X;X;X;X&XI.S O           ",
"        C ^.>X}.[._.W.^.[.}.}.}.}.2X8XwXeXqX8X3X<X|.!.] G M 5.c $.1.3.&.3.e.&.3.2.,.e.&.b k U 2 Y I.*X;X;X;X;X*XI.Q <           ",
"          - { >X}.>X{._.W.o.O.W._.{.|.|.|.2X9XwXeXqX8X3X3X|.x.} S B ,.&.<.e.&.1.4.&.<.c $.W { : H I.:X;X;X;X;X*XI.i.;           ",
"            . F [.>X3X<X}.}.}.[.~.R.R.E.~.'.}.}.>X,X9XqXeXqX8X3X1X[.x.Q J B %.&.,.&.&.w 5.` ` - A ;X;X;X;X;X;X*XI.i.<           ",
"              . 2 Q.,X1X6X1X>X X}.>X}.}._.~.E.E.R._.[.>X>X3X9XqXeXqX8X4X,X[.x.} K N v m z X.F C 7 ;X;X;X;X;X;X*XI.i.<           ",
"                  @ ]  X>X1X2X6X7X6X1X1X>X}.}.}.{._.W.o.E.R._.>X|.2X9XwXeXqX8X4X2X].X.K k W.S J W ;X;X;X;X;X;X*XI.[ o           ",
"                    . F X.].}.1X>X,X<X1X].>X!.|.,X>X>X>X{.[.~.R.R.E.~.'.>X3X9XqXeXx.@.c.b x.S S J.:X;X;X;X;X;X%XI.D             ",
"                        . o 1 3 G ] x.G f.a f.J x.].,X7X4X4X1X>X>X}._.~.E.E.R._.] x.W.x.b h 8.j.@X;X;X;X;X;X;X&XI.A             ",
"                                  G G.y.Z.Y C.k.J h.Z 3X,X,X1X4X6X6X6X1X>X>X{.^.` ..' _ M C z.l.@X;X;X;X;X;X;X+XG.A             ",
"                                  % l.l.Y.f.:XY.v.l.a Z ` X.Q.].2X1X,X,X1X5X7X7X{ ....G b h y.K &X;X;X;X;X;X;X+Xj.2 :           ",
"                                  . K S.S.J.Y.G.OXU.7 3 3 3 ; C Z U ` X.^.[.1X1X>X| ` b g h Q z.:X;X;X;X;X;X:XI.Q ) 7 $         ",
"                                    . O 1 Y i.~ 7.i - 2 3 5 - 2 3 3 3 - - C Z ` ` X.Y g [ g ~ Y.@X+X&X;X:X;X@XU.D ( 9 9 .       ",
"                                                H S > > i i 1 * i , > > , , , > > r n M ..h p Q l.Z.I.I.I.I.I.i.F 4 -.-..       ",
"                                              o 0.K.K.i P P P P A l M.M.M.K.K.M.M.p I | U I P p 0.9.~ y.S J J A _ 3 6 &         ",
"                                              o 8.M.d.T d.9./ ! A ^ K.K.K.K.T.M.M.T I +.Z a.s.p Q p.M.p .     . - $             ",
"                                              . < + ; r d.s.s.a.Z > 1 0 i u > 1 > % U X.T s.^ r + o o o                         ",
"                                                      & l T / E u .               . C C T I I 1                                 ",
"                                                    ; 1 l ^ a.E i                 . ] o.I ^ I p <                               ",
"                                                  1 9.M.M.^ / ! l 4 4 4 4 | F 4 4 4 i Z d.s.s.s.E ;                             ",
"                                        X 4 | x.c.A P ! / ! ! P I -X-X-X-X-X-X-X-X-XD E / / / / E p /.V.| F X                   ",
"                                      # $X-X-X-X-XV.[ A A A Z W V.-X-X-X-X-X-X-X-X-X).W D D C I D I -X-X-X-X-X4                 ",
"                                        # _ @./.(.-X-X-X-X-X-X-X-X-X-X-X-X-X-X-X-X-X-X-X-X-X-X-X-X-X.X/.+.' #                   ",
"                                                      # 4 4 4 4 ' | | | | | | | | | | 4 4 4 4 5                                 ",
"                                                                        .                                                       ",
"                                                                                                                                ",
"                                                                                                                                ",
"                                                                                                                                "
};
