/* XPM */
static char *result[] = {
/* columns rows colors chars-per-pixel */
"64 64 216 2 ",
"   c #000000",
".  c #0B0503",
"X  c #0D0C0B",
"o  c #140905",
"O  c #180C08",
"+  c #1D120F",
"@  c #1A1817",
"#  c #230E09",
"$  c #29140B",
"%  c #37190D",
"&  c #3B1A0D",
"*  c #34160B",
"=  c #2A1A16",
"-  c #2A1B1C",
";  c #271713",
":  c #3C1D13",
">  c #331C15",
",  c #392416",
"<  c #35201C",
"1  c #39241A",
"2  c #301F21",
"3  c #332224",
"4  c #3B2525",
"5  c #3D292A",
"6  c #3B2828",
"7  c #33312D",
"8  c #2B2927",
"9  c #441E13",
"0  c #52190F",
"q  c #46240F",
"w  c #4D220D",
"e  c #5A260E",
"r  c #5E290E",
"t  c #55250F",
"y  c #442315",
"u  c #4C2312",
"i  c #4F2811",
"p  c #462B1C",
"a  c #4B2B1D",
"s  c #44241A",
"d  c #512512",
"f  c #552B12",
"g  c #5B2D13",
"h  c #532B1B",
"j  c #5C3019",
"k  c #4D321D",
"l  c #642B0E",
"z  c #6A2D0E",
"x  c #6B330E",
"c  c #75320D",
"v  c #7A370D",
"b  c #642D12",
"n  c #633215",
"m  c #6A3516",
"M  c #663519",
"N  c #743715",
"B  c #432B24",
"V  c #492D21",
"C  c #452F29",
"Z  c #4D3421",
"A  c #47332C",
"S  c #533422",
"D  c #5A3423",
"F  c #553B23",
"G  c #5C3B2B",
"H  c #573828",
"J  c #4B3935",
"K  c #533C36",
"L  c #593F35",
"P  c #522F24",
"I  c #653D2B",
"U  c #663C26",
"Y  c #723E23",
"T  c #613F31",
"R  c #76140C",
"E  c #5D422B",
"W  c #594628",
"Q  c #57433E",
"!  c #66442C",
"~  c #794327",
"^  c #6A4837",
"/  c #724E3A",
"(  c #754B34",
")  c #6A5234",
"_  c #765638",
"`  c #69512F",
"'  c #7A663A",
"]  c #3F4046",
"[  c #4A4747",
"{  c #5B4946",
"}  c #575553",
"|  c #675346",
" . c #795743",
".. c #695A57",
"X. c #67625B",
"o. c #7C614D",
"O. c #5D5F66",
"+. c #5D6067",
"@. c #6A6467",
"#. c #756966",
"$. c #6F7279",
"%. c #7A7679",
"&. c #80370D",
"*. c #84390C",
"=. c #8C3C0B",
"-. c #913F0B",
";. c #863A10",
":. c #903E10",
">. c #8A130D",
",. c #84470E",
"<. c #97410A",
"1. c #9C430B",
"2. c #884314",
"3. c #9A4412",
"4. c #955510",
"5. c #A3460C",
"6. c #A7480C",
"7. c #AC4A0D",
"8. c #B24D0E",
"9. c #B84F0E",
"0. c #BC510E",
"q. c #A14610",
"w. c #A95219",
"e. c #AE6A14",
"r. c #87573A",
"t. c #8A4F29",
"y. c #A55A2C",
"u. c #846D3F",
"i. c #C3540F",
"p. c #C65916",
"a. c #C6723B",
"s. c #C76729",
"d. c #885E44",
"f. c #925E41",
"g. c #8A664B",
"h. c #966649",
"j. c #877040",
"k. c #887041",
"l. c #977C48",
"z. c #927644",
"x. c #98765A",
"c. c #8B6551",
"v. c #A06C4C",
"b. c #A87654",
"n. c #B67E59",
"m. c #B27A54",
"M. c #B17548",
"N. c #83746A",
"B. c #CF7F49",
"V. c #E6910A",
"C. c #F7A80B",
"Z. c #FCBA31",
"A. c #B08753",
"S. c #89827E",
"D. c #928177",
"F. c #B68964",
"G. c #BC9A75",
"H. c #AB8666",
"J. c #C1865E",
"K. c #CB8C5D",
"L. c #CEA65D",
"P. c #CC8F65",
"I. c #C28861",
"U. c #C9966D",
"Y. c #D7986C",
"T. c #D89B6F",
"R. c #D8AF62",
"E. c #D3A47A",
"W. c #EDAA79",
"Q. c #E5A575",
"!. c #EFB07F",
"~. c #FDCF71",
"^. c #7A7F85",
"/. c #8E8787",
"(. c #84868A",
"). c #9A9388",
"_. c #8C9197",
"`. c #97989C",
"'. c #868B91",
"]. c #A9998C",
"[. c #B3A79B",
"{. c #989DA4",
"}. c #A4A4A6",
"|. c #BBAEA0",
" X c #A3AAB0",
".X c #ACAEB1",
"XX c #A9B0B6",
"oX c #AFB6BC",
"OX c #B2B8BE",
"+X c #B3B5B9",
"@X c #D7B58B",
"#X c #D4B38C",
"$X c #F2B886",
"%X c #E6B98B",
"&X c #C2B7AA",
"*X c #F7C896",
"=X c #F7C896",
"-X c #FAD29F",
";X c #EDC495",
":X c #CDC3B5",
">X c #FFDFAC",
",X c #F7D4A3",
"<X c #FFE5BE",
"1X c #B5BCC2",
"2X c #B8BEC2",
"3X c #B9C0C6",
"4X c #BCC5CA",
"5X c #C1C8CD",
"6X c #C5CCD1",
"7X c #C6D1D6",
"8X c #CBD2D7",
"9X c #D5D9DC",
"0X c #DCDFE2",
"qX c #E6E8EA",
"wX c #E1E4E6",
"eX c #F2F3F5",
/* pixels */
"                                                                                                                                ",
"                                                                                                                                ",
"                                                                                                                                ",
"    1 =                                                                                                                         ",
"    J /.>                                                                                                                       ",
"    K 4X XC                                                                                                                     ",
"    K 2XoX.XB .                                                                                                                 ",
"    K 2XXXoX+XA .                                                                                                               ",
"    K 1X{.XX4X3XJ .                                                                                                             ",
"    { 2XoX'.4X8XoX{ .                                                                                                           ",
"    ..2X2X^.XX7X0X4XA                                                                                                           ",
"    ..2X4X X(.OXqX6X/..                                                                                                         ",
"    @.2X4XOX^.oX3XqXOX6                                       .                                                                 ",
"    ..2X7XoX_._.+XeX5X{ .                                     . & w w * . * w w & .                                             ",
"    C 1X6X1XOX$.oX8X9X.X=                                   o v i.i.i.8.z 6.i.i.i.&.&                                           ",
"    . #.1X7X+X_.{.OXeX4XJ                                   w i.i.i.i.i.i.8.i.i.i.i.3.e & .                                     ",
"      A 2X7X2XXX^.oXwX6X%..                               . 3.v :.8.i.9.8.p.i.i.i.i.i.-.7.t .                                   ",
"      . #.4X4X1X^. X4XqX2XB                               . ;.3.a.B.a.m M t.y.a.p.i.6.6.5.8.&                                   ",
"        B 1X7X1X X^.XXeX4X{ .                               e b N Y Y b.W.I.h.~ N b z =.1.i.0                                   ",
"        . (.1X7XoX^.XX7X9X}.+                               . ! -X*X,X>X>X;X,X@X*XM <.<.<.5.8.*                                 ",
"          C 5X7X1X{._.1XeX3XA                               . ! >X>X,Xr.;.;.7.:.F.~ <.<.&.-.i.e                                 ",
"          . S.3X4X1X$.1XqX6X%..                               g b.>XU.1.i.i.w.i.I r.=.! F.Y i.z                                 ",
"            C 4X8X1X_.`.5XqX+X>                               l q.b.;XM -.-.e *.( f.r.>XW.b.:.e                                 ",
"            + /.4X4XoX%.XXeX5XQ                               w g d.>XF.^ ^ I v.Q.!.*X_ b.I.3.;.O                               ",
"              J 4X7X1X^. X8X9X_.+                               > h.>X@Xc. .x.W.W.P.W.v.n.v.&.0.t *                             ",
"              + /.4X4XXX^.1XeX4XA                             = d.=X>X>X>X>X,X;X!.Y.r.r.n.Y -.8.l z .                           ",
"                C 4X8X1X^. XwX8X...                           / c.<X>X>X*XE.>X>X*XW.W.F.n 1.-.c =.=.% . .                       ",
"                + /.4X4X X(.4XqXoX<                           ( ,X<X>X>X>Xx.Y.$XW.W.W.s.&.&.8.8.1.<.u f u % .                   ",
"                  C 5X8XoX%.oXeX5XK                         & D *X,X%XY.$XF.t.a.t.y.0.i.8.=.i.i.8.<.e n f g &                   ",
"                  + {.4X4X{._.8X9X/.o                   . $ d v ( d.( P.m.N -.p.i.z :.i.i.6.i.i.i.<.l i f i i & .               ",
"                    J 4X8X1X$.1XeX4XA                 . * u g i.1.M.M.-.5.9.i.i.8.0.r 0.i.i.0.i.i.5.l m n f n f $ .             ",
"                    ; `.4X4X_.{.qX8X..                # g y c 9.w.,X%Xt.-.9.6.i.6.7.c *.i.i.i.1.i.1.z f i g f f g O             ",
"                      Q 4X7XXX^.5XwX.X=               & f e =.8.w.I h.D -.5.9.-.5.1.&.z 8.i.i.5.8.1.l l g f g x i & .           ",
"                      =  X4X4X(. XeX4XJ               & f r 1.=.c :.&.c l -.1.7.<.<.&.z <.i.i.1.1.-.e l f n q n g g $           ",
"                        Q 4X8X X^.9X9XS..             : k t e l -.6.1.1.&.e c -.1.1.c c <.8.9.v <.v i i q n f n f g %           ",
"                        - }.6X4X^.oXeX3XC             : #Xi <.8.i.i.i.i.8.-.c l e c e =.<.5.<.z <.i g g g f i n i j &           ",
"                          K 4X8X_...+X6X|           $  .>Xg i.i.i.i.i.i.i.i.7.-.v x l <.-.c -.u t i f j g g f g f w ,           ",
"                          = }.4X#.@.N...}., .   O C N.Q @XN i.i.i.i.i.i.i.i.i.1.c ,.x c =.l z u r q q q q q q & k 9 O           ",
"                          . Q OX{ O.O.#.D.j V K @.{ K Q t.M i.i.i.i.i.i.i.i.i.v C.~.Z.e.t *.9 h ! j / / ! / H.G.P.D             ",
"                            = OXQ +.} ..b U (.@.B ; H >Xe.,.i.i.i.i.8.i.i.i.i.2.V.V.C.V.l z - d.!.>X>X>X>X>X>X-XW.D             ",
"                            o D  .D D M g U j >     Z -Xx ,.i.i.i.i.5.i.9.9.8.d N 4.e.4.v r - I $X>X>X>X>X>X>X>XW.D             ",
"                            $ r g e b m m m M . + B o.H.! r 8.7.i.8.5.i.8.6.:.q.i.6.z z ;.: - B r.( F.,X>X>X>X>XW.!             ",
"                          6 Q %.^.U g P Q H #XH c.,X>X$Xr.5.c <.i.7.5.i.7.6.&.q.i.5.U Y P u D 9 d d U d.>X>X>X>XW./             ",
"                      ; J %...4 : M s | | G ^ _ T.>X>X>Xt.1.z =.9.6.1.i.-.7.:.q.t.^ v.Y.Y.j d g b u u M g.>X>X-XW._             ",
"                      > J < O   = h.,X>X>X>X/ / Q.>X>X>Xt.-.b b 8.5.5.8.-.8.-.c ( b.I P.W.r.n d u M 9 g D ;X>X,XW._             ",
"                      . .       C ,X>X>X,Xx.d.D ;X>X>X>Xr.Y P.~ -.1.1.1.1.5.-.e n.$X=X=X,X-XD n u d g u d g.>X=XW.I             ",
"                                o F.,X>X#X,X>XG.c.>X>X>XW.I.W.Q.z <.<.1.-.-.-.l d.*X>X>X>X>XU.9 m 9 M d g a $XW.P.s             ",
"                              . . _ ,X>X>X>X#X . .c.>X$XW.I.W.W.g <.<.<.-.c w > I P.*X>X>X>X,Xh g g u m u h I.v.G               ",
"                                  S $X>X>X@X#X,X^ @XG.W.W.h.W. .> c z d > - - 3 / W.>X>X>X>X>Xr.u m 9 N i g h F._               ",
"                                  o h.=X>X>X>X,XS U.T.W.W.f./ 6 2 - - - 3 5 5 5 H Y.*X>X>X>X>XU.9 m d g f k V R._               ",
"                                    B U.>X,XH.H K P n.W.n.s - 5 2 - 4 5 5 5 6 5 4 D P.-X>X=X$XQ.9 M h h - - p R.A.              ",
"                                      H U./ J B [ ] V G # = - 4 3 - 5 5 5 4 2 5 5 H I.W.W.W.W.T.h I > - - - 1 R.A.O             ",
"                                      . V 9 [ [ 7 4 *     > - 3 3 - 3 B 6 - - 5 5 2 L r.W ^ ! B 4 - - - = - k R.R.,             ",
"                                          ; 8 9 R >.#     O , , V A B G Z 1 ! E G V H ! k , Z Z Z p p r.A.L.R.R.R.F             ",
"                                          . o 0 R 0 .       > _ u.l.l.z.` k R.R.R.R.R.A._ A.k.A.l.` F R.R.R.R.L.u.W             ",
"                                              . o . .       . p W ' _ ` p , $ p Z , o . , F ' _ ` k s , , , , . . .             ",
"                                                                ! j.k.' k o               F k.k.' W ,                           ",
"                                                      .   ; p F W _ l.l.W ,         > a k G ) z.A.W y                           ",
"                                              . @ 7 } X.X.k ' k.u.k.k.' W ^ :X:X:Xo.! ' u.j.j.k.' W p X.7 8                     ",
"                                          X N.+X:X:X:X:XN.S E W ! W F F Z G :X:X:XE W E ! ! W F W Z y [.:X:X:XD.8               ",
"                                            [ S.[.:X:X:X:X:X[.].].].].|.:X:X:X:X:X:X&X].].].].].].|.:X:X:X&X).} X               ",
"                                            .       8 7 Q X.X.X.X.).).).).).).).).).).).).#.X.X.X.[ 7 7                         ",
"                                                                                                                                ",
"                                                                                                                                "
};
