/* XPM */
static char *result[] = {
/* columns rows colors chars-per-pixel */
"64 64 216 2 ",
"   c #000000",
".  c #0A0403",
"X  c #140905",
"o  c #1D0D08",
"O  c #1D120E",
"+  c #16100E",
"@  c #25110B",
"#  c #2B150C",
"$  c #3C1B0D",
"%  c #36160C",
"&  c #2B1B15",
"*  c #271B18",
"=  c #2A1B1C",
"-  c #241512",
";  c #331B14",
":  c #361D18",
">  c #210F09",
",  c #39231A",
"<  c #2F1E20",
"1  c #282522",
"2  c #3D292A",
"3  c #382525",
"4  c #33312D",
"5  c #3A363A",
"6  c #461C0D",
"7  c #501811",
"8  c #48230E",
"9  c #53240E",
"0  c #5A260F",
"q  c #5F290E",
"w  c #432112",
"e  c #4B2412",
"r  c #4B2B1C",
"t  c #44271B",
"y  c #522612",
"u  c #542B13",
"i  c #5B2D13",
"p  c #562D1B",
"a  c #4D341F",
"s  c #5F3014",
"d  c #59321D",
"f  c #642B0E",
"g  c #6B2E0E",
"h  c #6D330E",
"j  c #65340F",
"k  c #74320E",
"l  c #7B350D",
"z  c #632C12",
"x  c #6A2E10",
"c  c #633214",
"v  c #693414",
"b  c #64341A",
"n  c #773816",
"m  c #442A23",
"M  c #472D26",
"N  c #48322B",
"B  c #533424",
"V  c #533C23",
"C  c #593727",
"Z  c #4A3A36",
"A  c #563E38",
"S  c #623A24",
"D  c #633D2A",
"F  c #663923",
"G  c #7E410E",
"H  c #5D4226",
"J  c #5C4529",
"K  c #59433A",
"L  c #67452D",
"P  c #774528",
"I  c #674736",
"U  c #7A4E36",
"Y  c #734C37",
"T  c #675531",
"R  c #755536",
"E  c #6B502E",
"W  c #786339",
"Q  c #746037",
"!  c #3F4046",
"~  c #5B4A46",
"^  c #584643",
"/  c #515157",
"(  c #60504C",
")  c #6B5D5A",
"_  c #685958",
"`  c #775A49",
"'  c #67625B",
"]  c #7E6555",
"[  c #5E5C61",
"{  c #766C68",
"}  c #77767A",
"|  c #6C686B",
" . c #80370D",
".. c #85390D",
"X. c #8C3C0C",
"o. c #923F0B",
"O. c #853B11",
"+. c #923F10",
"@. c #B41A0E",
"#. c #97410A",
"$. c #9C430B",
"%. c #884413",
"&. c #994613",
"*. c #965814",
"=. c #A3460B",
"-. c #AB490C",
";. c #A7480C",
":. c #B24D0D",
">. c #B84F0E",
",. c #BC510E",
"<. c #A14510",
"1. c #A9541E",
"2. c #B16C09",
"3. c #82543B",
"4. c #88593B",
"5. c #894E27",
"6. c #A04F21",
"7. c #84673C",
"8. c #9B603C",
"9. c #AF6535",
"0. c #C3540F",
"q. c #C05614",
"w. c #CC6625",
"e. c #C16F13",
"r. c #885C42",
"t. c #8C6347",
"y. c #916246",
"u. c #9C694A",
"i. c #897041",
"p. c #977C48",
"a. c #967646",
"s. c #866B5A",
"d. c #9A785A",
"f. c #9D6F53",
"g. c #A16C4C",
"h. c #AA7553",
"j. c #B67D58",
"k. c #B67D58",
"l. c #856E63",
"z. c #867E7E",
"x. c #807972",
"c. c #8E796D",
"v. c #C97B47",
"b. c #DE890E",
"n. c #E3A11F",
"m. c #F6AA14",
"M. c #AE8450",
"N. c #AB8A6A",
"B. c #BB8762",
"V. c #BA9570",
"C. c #96826F",
"Z. c #C1865F",
"A. c #C68C64",
"S. c #C39269",
"D. c #CB966C",
"F. c #D7986C",
"G. c #D89B6F",
"H. c #C79972",
"J. c #D8AF62",
"K. c #C8A57E",
"L. c #DCA67A",
"P. c #EDAA79",
"I. c #E5A575",
"U. c #EFB17F",
"Y. c #CEA65D",
"T. c #FCCA61",
"R. c #7A7F85",
"E. c #80858B",
"W. c #8B8687",
"Q. c #9A9388",
"!. c #9A9287",
"~. c #888C91",
"^. c #8C9197",
"/. c #92979E",
"(. c #999697",
"). c #9C8A86",
"_. c #A89A8D",
"`. c #B3A79A",
"'. c #989DA4",
"]. c #9DA3AA",
"[. c #A9AAAD",
"{. c #A3AAB0",
"}. c #ABB1B6",
"|. c #AFB6BC",
" X c #B1B6BB",
".X c #BBAEA0",
"XX c #CEAB83",
"oX c #DAB98E",
"OX c #D6AC82",
"+X c #F1B684",
"@X c #F4BD8B",
"#X c #E7B889",
"$X c #C3B8AB",
"%X c #F4C18F",
"&X c #E7C699",
"*X c #EAC596",
"=X c #F7C997",
"-X c #F9D29F",
";X c #CDC3B5",
":X c #FFDFAC",
">X c #F9D5A3",
",X c #EBCEB0",
"<X c #FFE3B6",
"1X c #B5BCC1",
"2X c #B9BFC3",
"3X c #B9C1C7",
"4X c #BCC4CA",
"5X c #C1C9CE",
"6X c #C4CCD1",
"7X c #C5D0D5",
"8X c #CCD1D5",
"9X c #D4D8DB",
"0X c #DCDFE2",
"qX c #E6E8EA",
"wX c #E6E9EA",
"eX c #F0F1F3",
/* pixels */
"                                                                                                                                ",
"                                                                                                                                ",
"                                                                                                                                ",
"                                                                                                                                ",
"                                                                                                                O :             ",
"                                                                                                              @ ) ~             ",
"                                                                                                            + _ 3X)             ",
"                                                                                                          + _ 4X|.)             ",
"                                                                                                        + _ 3X}.|.'             ",
"                                                                                                      . ~ 3X2X'. X)             ",
"                                                                                                    . ~ 4X7X{./.1X)             ",
"                                                                                                    N 4X0X3XR.{.3X)             ",
"                                                                                                    ( 8X0X}.E.1X4X)             ",
"                                                                                                  - }.wX1X/./.1X5X)             ",
"                                              . % q g $ o 6 6 7 @                                 N 3XqX|.R.1X4X4X(             ",
"                                            o 0 0.0.0.o.<.0.0.0.=.>                               ) 8X8X}.E.|.7X4XN             ",
"                                        . 8 g 0.0.0.0.,.0.0.0.0.,.9                             = [.qX1X~.{.3X4XW..             ",
"                                        f -.-.0.0.0.0.w.6.1.0.<. .O.                            Z 5XqX|.R.|.7X3XA               ",
"                                      # -.=.;.-.q.9.n 5.F O.v.v.%.k                             { 9X8X].^. X5X[.*               ",
"                                      w >.$...f z r.S.+X@Xu.5.P b 6                           *  XwX1XR. X5X4X~                 ",
"                                    o $.=.$.$. .S.V.S.H.oX:X>X>Xr.                            A 5XqX|.R. X7X X2                 ",
"                                    $ 0.$.g ..k oX&.0.<.&.4.:X:XU                           . { 9X6X^.].3X4X| .                 ",
"                                    9 >.5.&XP v K.+.l :.:.5.:XB.v                           &  XwX XR.|.7X4XZ                   ",
"                                    6 &.u.A.*XY OXn z k ..4.>XO.x                           N 6XqX{.~.1X5XW..                   ",
"                                    f o.h.j.3.+XP.I.Y ).U %XXX6 %                         . { 9X7XE.}.6X3XA                     ",
"                                . 0 l $.4.k.Z.k.F.P.N.s.K.:X*XD                           * }.eX XR.|.7X{.*                     ",
"                                6 X.k $.P U P F.P.>X:X>X:X:X<Xf.I                         A 5XqX'./.4X4X~                       ",
"                            @ % e #. .X.o.z I.P.U.-X-XB.:X:X<X,X`                       . } 9X5XE. X7X1X3                       ",
"                        . $ e s f #.,.0. .$.w.I.F.F.D.B.>X>X:X:X3..                     ,  XwX}.E.3X4X} .                       ",
"                        $ u u c g =.0.0.o.0.0.-.n w.%.g.P.k.+X@XF w                     ^ 6X0X^.{.7X4XN                         ",
"                      @ u u c u g -.0.0.>.0.,.z 0.0.:.O.9.9.P d X.u %                 . z.qX4XR.1X5X(.+                         ",
"                    X e i u u c g :.0.:.0.0...o.>.>.0.0.$.5.,X1.0.g e %               1 1XeX{.^.5X4XA                           ",
"                  . $ v 8 i u i g ,.;.,.0.,.0 ;.=.-.-.:.&.4.P.8.:.l y e .             ~ 8X9XE.}.7X|.*                           ",
"                  O e u s i u i g =.#.0.0.=.9 #.o.$.:.$.G Y U &.-.X.y y @           . z.qX3XE.4X4X(                             ",
"                  $ s s u u u s f #...,.>.#.0 #.$.$.o.k z #.#.l h l e 8 #           : 2XwX/.'.7X1XN                             ",
"                  $ s s s s 8 s 8 X.l =.-.#.k X.$.l 0 k $.:.:.:.o.8 r r X           ^ 8X9XR.1X4Xz..                             ",
"                  8 s u c 8 s u u 0 h #.X.#.l 8 9 k o.-.0.0.0.0.,.:.n _.#         . W.qX|.~.6X4XN                               ",
"                  , 8 8 8 u u s 9 8 9 l q #.#.k l  .,.0.0.0.0.0.0.q.n -XM =       N }.{ K W.7X(.O                               ",
"                    C 4.C w w w 8 8 9 e k 0 G 2.n.l 0.0.0.0.0.0.0.0.c V.} Z Z - % C } ^.} ^ 5X~                                 ",
"                    t.+X:X:X&XXXN.t.Y = k j m.T.m.2.,.0.0.0.0.0.0.0.*.5.B t [ { C v A | [ ~  X=                                 ",
"                    y.@X:X:X:X:X:X-Xt.= z v b.b.e.%.:.,.0.>.:.0.0.0.*.%.d.  - m { ` b ^ [ _ '                                   ",
"                    y.%X:X:X:X:X-X%X3.= y  .j h %.X.+.-.,.>.=.0.,.,.j 7.I @   X v c s s s s s                                   ",
"                    y.=X:X:X:XOXC p r r t z 0 $.q.0.l =.,.>.=.0.;.o. .B.*XN.C , f.i C i S Y d *                                 ",
"                    y.%X:X:XoXL i 9 i i y r.h.L &.0. .=.-.,.#.0.$.g X.F.:X<X#Xr.I t ~ r b B } | Z X                             ",
"                    y.+X:X:XD i 7 b y i C P.y.y.U O.+.-.=.>.o.0...g O.@X:X:XL.D I -XoXd.L . - m ~ _ 2                           ",
"                    u.+X:XoXp y i e i s S.+XI.Z.I.F O.:.o.-.o.-.v F q H.:X:X%XY f.:X:X:X-XV     @ A :                           ",
"                    U P.=XY y r s w b C :X:X:X:XU.f $.o.o.$.$.o.g.Z.v.#X:X:X&Xs.XXC.*X:X@Xm       .                             ",
"                    , f.P.p y z e b e S.:X:X:X=XZ.8 g o.$.o.+.k P.Z.A.+X:X&XY N.:X:X:X:Xj.X                                     ",
"                    X a.8.p w v w v e -X:X:X:X%X3.= = w i  .o.z f.P.A.P.>Xh.` N.d.:X:X:XU                                       ",
"                    + J.H p u i p z C >X:X:X:X%Xf.2 2 < = : y w M A.B.P.H.oXI :X<X:X:XI.B                                       ",
"                    , J.L * C e z s U -X:X:X=XA.D 2 2 2 2 3 = = 2 3 U P.I.j.C Y >X:X>XU                                         ",
"                    a J.L = = 3 C i 3.P.P.+X+Xu.m 2 < 2 2 2 3 < 3 = ; C h.M 2 ^ I V.A.,                                         ",
"                    H J.L = = * * , B r.B.A.4.J 2 2 = < 2 2 < < 3 = - . % 3 ! / N U C                                           ",
"                    R J.h.E J r 2 V J J B J m , N N r , , m : , 3 : o   . 7 7 2 5 -                                             ",
"                    7.J.J.J.J.M.V Q M.7.` L Y.J.J.J.J.d T W W W R ,       7 @.7 ; .                                             ",
"                    , , J E d V t H T 7.E t , J U E B t B E 7.7.a O       . % o                                                 ",
"                                a T Q Q V             & J T Q T #                                                               ",
"                                a W M.Q a , &         1 J M.7.J , ,                                                             ",
"                              1 V Q M.i.M.M.W J Q.Q.C.T T M.i.M.p.7.a 4 1                                                       ",
"                      4 x.`.;X_., J a H V J J a `.;X;X4 V a J J H J V .X;X;X`.x.4                                               ",
"                      { $X;X;X$X_.l.l.l.l.l.l._.$X;X;X`.C.] l.l.l.c._.;X;X;X;X.X{                                               ",
"                          1 K ' ' Q.Q.Q._.;X;X;X;X;X;X;X;X;X;X_.Q.Q.(.' ' K 1                                                   ",
"                                                                                                                                ",
"                                                                                                                                "
};
