/* XPM */
static char *_30607024f224bd0dcd51ac4c0354685txIzsvnRwsz7zkCr[] = {
/* columns rows colors chars-per-pixel */
"50 50 228 2 ",
"   c #151904",
".  c #291D09",
"X  c #341E0E",
"o  c #162708",
"O  c #25280B",
"+  c #37290E",
"@  c #27380D",
"#  c #32340E",
"$  c #2C2412",
"%  c #352817",
"&  c #2D3A10",
"*  c #3B3714",
"=  c #341F26",
"-  c #332922",
";  c #3B2A2B",
":  c #362E31",
">  c #3D3335",
",  c #48260D",
"<  c #59260C",
"1  c #41300E",
"2  c #492916",
"3  c #582B18",
"4  c #4A361B",
"5  c #55361A",
"6  c #672B0D",
"7  c #78340B",
"8  c #6A3010",
"9  c #6A381C",
"0  c #452A22",
"q  c #48312B",
"w  c #583824",
"e  c #463938",
"r  c #583F34",
"t  c #693A22",
"y  c #27460E",
"u  c #29450F",
"i  c #2D4511",
"p  c #2E4B12",
"a  c #334815",
"s  c #3E612A",
"d  c #49441B",
"f  c #53451E",
"g  c #734819",
"h  c #74561C",
"j  c #4C4A24",
"k  c #584824",
"l  c #4C5528",
"z  c #565829",
"x  c #664628",
"c  c #784526",
"v  c #68552A",
"b  c #6C5532",
"n  c #7B5030",
"m  c #775835",
"M  c #7B5B35",
"N  c #4D692D",
"B  c #5A692D",
"V  c #597736",
"C  c #6E6D33",
"Z  c #776538",
"A  c #6A7636",
"S  c #4D3D43",
"D  c #4B4448",
"F  c #584A47",
"G  c #515051",
"H  c #58585A",
"J  c #705C44",
"K  c #615955",
"L  c #5C6659",
"P  c #6B6847",
"I  c #5A5C63",
"U  c #645F61",
"Y  c #5C6367",
"T  c #686668",
"R  c #63746E",
"E  c #696E71",
"W  c #76777A",
"Q  c #832F01",
"!  c #88390B",
"~  c #973A06",
"^  c #9C420B",
"/  c #864D17",
"(  c #944E11",
")  c #A64509",
"_  c #B34C0B",
"`  c #B94F0C",
"'  c #A45C0F",
"]  c #A25C11",
"[  c #BB6911",
"{  c #854A25",
"}  c #854B26",
"|  c #87512D",
" . c #98572A",
".. c #895935",
"X. c #975E35",
"o. c #A35D2E",
"O. c #85663C",
"+. c #96673C",
"@. c #A9622E",
"#. c #A86838",
"$. c #B46934",
"%. c #BA6F36",
"&. c #C4540D",
"*. c #CA570D",
"=. c #C56C0F",
"-. c #CD7814",
";. c #D27B14",
":. c #DA7D11",
">. c #C77535",
",. c #856643",
"<. c #9A6B44",
"1. c #897346",
"2. c #947548",
"3. c #A56C42",
"4. c #A87547",
"5. c #B97A47",
"6. c #C87E42",
"7. c #4D843D",
"8. c #5A873C",
"9. c #68873D",
"0. c #718C3F",
"q. c #5B8C41",
"w. c #4C9345",
"e. c #5C9846",
"r. c #738442",
"t. c #659547",
"y. c #769946",
"u. c #58AA4C",
"i. c #4BAB50",
"p. c #56AC52",
"a. c #4FB253",
"s. c #55B755",
"d. c #5BB454",
"f. c #5CBC56",
"g. c #68A94C",
"h. c #79AB4B",
"j. c #79B44D",
"k. c #6CAE50",
"l. c #65B552",
"z. c #63BC56",
"x. c #6CBE56",
"c. c #65BD59",
"v. c #6ABE58",
"b. c #76BB53",
"n. c #718D75",
"m. c #58C559",
"M. c #6CC157",
"N. c #66C359",
"B. c #65C759",
"V. c #6CC35A",
"C. c #6DCB5C",
"Z. c #74C456",
"A. c #7AC857",
"S. c #73C65A",
"D. c #75CA5C",
"F. c #7BCD5B",
"G. c #68D45E",
"H. c #75D15E",
"J. c #7DD25D",
"K. c #78D95F",
"L. c #76CF60",
"P. c #6FD162",
"I. c #73D361",
"U. c #7CD461",
"Y. c #7CDA63",
"T. c #78E566",
"R. c #D78014",
"E. c #DB8114",
"W. c #958A55",
"Q. c #AD8551",
"!. c #83AA4F",
"~. c #85B953",
"^. c #B79967",
"/. c #C98449",
"(. c #C78954",
"). c #D38B51",
"_. c #D99659",
"`. c #E19C5C",
"'. c #C49E6D",
"]. c #DD9F61",
"[. c #E29E61",
"{. c #C8A368",
"}. c #D2AD72",
"|. c #E3A262",
" X c #EAA764",
".X c #EBA966",
"XX c #EDAB69",
"oX c #F2AD68",
"OX c #86CA58",
"+X c #82CD5B",
"@X c #83D45D",
"#X c #8AD55E",
"$X c #85D95F",
"%X c #8ADA5F",
"&X c #94DC5F",
"*X c #92E05D",
"=X c #83D661",
"-X c #8CD660",
";X c #85DB62",
":X c #8BDC62",
">X c #93DD63",
",X c #99DE63",
"<X c #8DE264",
"1X c #8AE368",
"2X c #93E465",
"3X c #96E666",
"4X c #9AE666",
"5X c #95E866",
"6X c #99E967",
"7X c #9CEA67",
"8X c #95E668",
"9X c #98E668",
"0X c #95E969",
"qX c #9CEB69",
"wX c #9AF36B",
"eX c #A1ED67",
"rX c #A2EE69",
"tX c #A3F16A",
"yX c #AAF46D",
"uX c #AAFA6E",
"iX c #AEFD72",
"pX c #857F83",
"aX c #7E8489",
"sX c #87888B",
"dX c #8C9393",
"fX c #979CA3",
"gX c #D6B480",
"hX c #EDC889",
/* pixels */
"qXqXrXeXrX4X9X2X2X:X:X:X8X8X5X7X0X0X2X0X8X:X1X1X;XY.I.P.P.B.f.c.C.D.V.D.F.J.$XJ.$X%X;X:X;X:X-X#X2X4X",
"4XeXrX4X4XrX9X3X3X2X>X:X2X5X7XqX0X<XU.;X1X;X;X;X;XY.I.D.C.B.N.C.H.D.F.D.J.@X@X@X@X$X:X:X#X#X;X-X%X3X",
"7XqXqXrXqXqX9X9X8X8X2X2X2X5X6X7X2XU.g.V ;X:X;XU.Y.P.C.D.C.P.I.U.J.:X:X*X:X%X$X:X;X;X-X-X=XF.F.-X$X:X",
">X9XeXeXqX4X4X9X5X2X8X2X2X5X7XqX:XD.l.b k.U.I.P.P.C.P.P.c.e.L.;X:X2X2X2X3X2X*X;X:X#X;X@X=X=X@X=X:X:X",
"<X&X3XeXqX3X3X3X3X3X3X2X2X3XqX4X=XF.g.1.g.P.L.P.C.N.N.f.q.1.k.1X2X4X4X3X*X2X3X%X:X#X-X$X;X@X@XF.@X>X",
"2X2X>X2X4X4X3X3X3X3X3X3X3X9XeX7XrX;XP 2.g.P.S.v.d.p.v.D.W.^.x.qXeXeXqX6X7X2X*X2X>X;X;X@X%X=XU.F.F.=X",
"@X2XqXqX3X6X4X3X3X5X5X3X6X6XeXtXuXA.1.^.h.=XS.D.d.f.:X+XW.'.!.uXeXtXtXtXwXqX3X2X:X:X@X=X@X@X:X@XD.D.",
"F.#XqXtXqX9X3X8X3X3X3X3X3XqXrXeXuXy.Q.hXA g.U.b.y.t.g.B }.}.C wXtXeXtXeXtXtX3X<X:X:X-X@X@XF.@X-X@XD.",
"J.@X5X7XtXrX9X5X2X4X3XqXtXyXyXyXyX!.Q.hXgX1.l K pXdXpXK 2.'.k ,XtXeXtXtX7X7X5X2X<X<X:X$XJ.@XF.@X<X;X",
":X$X<X3X3XqXtXtXwX9X9XqX7XyXyXyXiX~.O.}.hXhX'.r E U U H q w z ,XtXyXtXtXtXqX6X5X2X<X<X<X@XJ.J.J.@X:X",
":X2X2X2X2X<X:X%X;X;X<X:X;X%X6X7XeXyXA <.{.}.{.w S F F K W T K P *XwXqX7XtX6X5X2X<X1X<X5X<X<XJ.V.F.;X",
":X<X8X8X8X3X3X;X@XU.U.<X2X3X9X3XeXeX4Xz x m K T T sXU I K K I D B 2X5X5X5X5X5X<X<X:X<X0X2X;XD.D.D.=X",
":X:X8X0X0X6XeX4X9X0X;X;X;X:XrXyXyXuX&XC S W E H D e q r t w q ; h.wX<X5X0X8X8X:X;X;X;X:X1X:X;XU.J.U.",
";X:X:X2X8X4X7X7XqX9X0X0X<X<X>X2X>X&XP T T G q F J 3.6.6.)./.3 l 7X5X5X5X2X1X:X;X=XU.U.=X=X=X;X;X@XY.",
":X;X%X;X<X0X6X7XeXqX3X8X0XqXrXrXyXh.F K > r n 5. X5./  .X.#. .h.wX5X5X3X2X2X:XY.U.=X=X;X;X;XL.F.@X=X",
"F.=X@X@X@X>X8X4X4XqX3X2X2X<X;X;X8X!.0 0  . .| 3.]. .~ _ ) ! c h b.5X*X<X2XY.=XU.U.U.;X;X1X:X;XU.D.F.",
"F.OX-X#X#X-X,X4X&X2X4X>X<X2X$X<Xb.j 5...@.} } 9 ].5.6 , < 8 < ~ h <X*XF.@X@X;XH.I.U.U.=X=X-X;X;X=XF.",
"@X#X#X-X-X,X-X,X,X&X>X7X%X%X<X*XZ <.4.(.$.t @.6._.`.#...5.<.,.2 A 3X:X<X2X:X;XJ.F.H.U.U.L.@X+XU.+X@X",
"@X-X#X>X,X,X,X-X>X+X@X&X&X5X6X9.5 5...o.>.^ 9 | } ]._./. XoXhX#.9.wX2X>X%X:X;XU.C.C.C.C.V.L.+X+X@X#X",
">X4X,X>X#X#X#X+XA.+X%X%X<Xj.N u y i 5 t  ._ ) ) ) } n 9 } } 3.t e.1X:X;X;X=XU.K.U.S.c.d.l.v.=X#X-X-X",
",X>X,X,X#X+XOX+XA.A.@X:X9.k x k i u y * 3 ` *.&.*.^ < ) ~ ! 7 ! v u.@X@XL.L.I.H.L.L.N.c.c.c.F.@X#X-X",
"OX-XOX-X&X#X#X+Xb.+X$Xt..._.|.].5.d u u X ) *.&.*.8 _ &.) ~ 6 ! 6 v g.H.S.D.D.D.V.V.N.c.V.N.c.L.+XF.",
"+XL.I.A.b.M.Z.Z.F.#Xb.v |. X|.|.oX(.* u $ ! *.&._ 6 ~ 3 6 7 ! ! < t Z c.V.V.V.c.C.v.v.V.c.c.c.c.F.L.",
"V.S.F.#X#X+X@X@X+X$X8.X..X].|.|.[.XX..y # 6 &.&.&.< < ~ ` &.&.&.^ 4 +.t.B.v.M.c.v.V.c.v.c.N.c.V.V.S.",
"V.v.V.x.l.l.l.F.F.$XV #..X|.|.|.|..X..@ & , _ &.&.! ^ &.&.&.&.&.&., n 9.N.x.V.V.v.N.N.V.V.S.C.D.D.D.",
"F.L.V.x.l.l.l.x.A.$XV o. X|.|.|._.oX..@ a + ! &.&.&.&.&.&.&.&.&.&.< + A J.x.v.V.V.M.V.V.V.V.z.M.S.F.",
"A.F.F.F.F.A.A.F.D.A.4 c _.|.|. X|.).4 u p & < _ &.&.&.&.&.&.&.&._ 1 # Z @X@XJ.F.D.S.D.D.S.V.M.x.S.A.",
"@X+X+X+XF.F.F.A.=X8./ X.%. X].)././ 2 i i p + ! ) ` &.&.` &.` ` 7 @ d n +X%X$X%X%X;X$X@XJ.@X@X$X@X@X",
"J.+X@X+XF.J.A.J.J.l 6.].).|.6.$.}  . .# p p i , ! ~ ) ~ ~ Q ! 7 + p * ..A.2X+XF.-X:X$X=X$X@X@X@X@X@X",
"A.J.A.J.F.A.I.A.J.z _.|.|.|._.(.(._.@.2 # i p i % < 6 < t 4.w X p y f x z @X%X@X@X@X@X%X@X@X@X+XF.+X",
"@X@X@XA.@XJ.A.A.A.j (. X|.|.|..XXX_.$.3 ; % @ p y & & $ ,.,.<.4 p @ 5 e - j J.1X$X#X@X@X@X@XF.J.@X+X",
"A.J.+X@X#XZ.J.@Xk.2 #..X|.|.|.|.|._.o.q : > q + 4 a @ k 4.0 M * o . F H : S l 0.0.A.$X$X@XF.Z.M.A.F.",
"Z.A.@X@XJ.J.F.I.9.7 | |.|.|..X.X`.%.3 S : D I S 0  .3 ,.}.{.,.w o % W > Y T 5 @.).y.$X@X@X+XF.S.M.M.",
"F.V.M.A.J.=XJ.D.C ' / /.|._.6.+.} | w H > T I I e t t + w {.{.w o % D e aXJ  .#.3.A 8X>X2X3X,X3X>X#X",
"2X%XF.Z.F.+X@XM.g :.] / /.`._.Q._...K > G W W Y q 6.4.# i * j & o O ; Y n.n.J n X...!.2X>X,X,X:X:X>X",
"J.@X@XJ.F.@X%XM.g :.R.' { $.`.`.n T I e W W W I 3 _._.* p i i p o $ L R E n.L t } `.4.OX8X-X#X@X-X=X",
"F.A.D.F.F.F.@Xg./ E.;.;.[ / { 5 K H : W fXdXaXD c XXn @ p i p a o % Y R R G X.X.X.$.5.k.=X=X@XF.F.F.",
"F.Z.D.Z.A.Z.J.9.' R.;.;.:.-., - D = I sXsXdXE 2 /.[.4 i p p p p o % I Y L k / 5..X .0.2Xl.V.+X@X+XF.",
"F.Z.Z.F.D.S.D.A =.;.;.;.-.-.+   $ % e G Y E q @.oXc & p i @ p p o % D D x 3.n  .).2.@X4X-Xp.Z.J.+XF.",
"c.M.Z.D.Z.F.l.h E.R.R.R.R.-.+ o o O # * - ; , #.... u p i o @ p o a N w c X.|.4.x t.@X>X>X+Xd.x.D.D.",
"S.V.D.F.F.H.e.7 ' ( / ] =.[ O o o o y y u O O @ O   @ i @   @ @   s G.u.Z | $.O.w.m.f.F.J.J.F.M.Z.S.",
"V.S.F.D.A.F.x.8.7.e.w.7.B v i O $ * d z k < 7 7 5 + 4 x k x k l 8.d.G.B.s.V z w.a.u.u.l.N.Z.J.+XF.S.",
"D.D.F.D.F.Z.Z.H.H.C.D.K.I.C.H.V 2 b O.O.b C 0.!.,X!.4 b ,.1.b r.T.Y.C.B.B.N.s.s.p.d.z.N.N.C.S.C.D.F.",
"U.F.D.D.F.F.x.x.C.D.D.S.J.<XwX~.4 b Z v 9.7XiXiXyXeXj k Z m z D.T.K.I.G.C.f.N.f.m.M.N.V.M.V.M.M.S.D.",
"S.F.+XU.F.F.=XD.c.V.H.;X<X<XwXy.w W.+.Z m Z r.,XyXeXk Z W.O.Z Z 9.K.K.B.f.f.a.i.f.z.v.v.J.J.=XF.F.F.",
":X-X>X8X>X-X#X:X=XZ.U.1X2X5XwXB 2 m Z Z Z M 2 r.uXOX0 x M m m m 3 8.T.m.a.i.f.d.l.v.v.Z.J.*X4X6X4X2X",
"qX2X3X4X4X8X:X;X>X:X=XF.;X<X5X0.z l 5 j j l B h.tX:XV B l j l j j w.s.i.p.c.c.V.V.S.F.L.+X:X:X2X4XqX",
"qXqX3X4X3X2X2X2X>X8X2X;X;X;X2XwXwX7X3X>X3X2XwXqX9X9X<XY.Y.Y.Y.G.m.a.i.m.S.L.V.D.D.F.F.=X=X;X2X:X>XqX",
"eX4X3XqX4X8X>X3X8X2X>X1X:X:X2X8X0X6XqX0X2X<X:X2X8X8X:XL.P.P.G.m.i.i.d.V.L.S.S.D.+X=X=X;X@X-X2X2X9XqX",
"eXqXqXrXrX9X2X2X:X:X:X8X>X8X0X8X0X5X4X5X<X:X:X;X1X1X;XI.P.G.m.m.a.s.V.L.L.L.F.=X@X;X>X:X:X@X#X2X4XqX"
};
