/* XPM */
static char *result[] = {
/* columns rows colors chars-per-pixel */
"50 50 233 2 ",
"   c #0B1C05",
".  c #141B04",
"X  c #2A1E0B",
"o  c #3C1E13",
"O  c #0E2309",
"+  c #152509",
"@  c #162609",
"#  c #1B240A",
"$  c #1A2A0A",
"%  c #30260B",
"&  c #22360C",
"*  c #273A0D",
"=  c #32320E",
"-  c #352216",
";  c #243410",
":  c #353F12",
">  c #392626",
",  c #332A32",
"<  c #3B3438",
"1  c #6D1A00",
"2  c #5B250B",
"3  c #4B2F13",
"4  c #482B18",
"5  c #572C17",
"6  c #4C331C",
"7  c #45381B",
"8  c #662B0B",
"9  c #6A3409",
"0  c #79350D",
"q  c #6B3919",
"w  c #713918",
"e  c #472E27",
"r  c #483429",
"t  c #583B22",
"y  c #483939",
"u  c #533E3A",
"i  c #653920",
"p  c #27420E",
"a  c #2B4410",
"s  c #284714",
"d  c #2E4A12",
"f  c #304B13",
"g  c #3B4C16",
"h  c #3E551E",
"j  c #3E642A",
"k  c #494019",
"l  c #554218",
"z  c #734F18",
"x  c #484621",
"c  c #5A4826",
"v  c #55572B",
"b  c #52512F",
"n  c #674627",
"m  c #784826",
"M  c #684631",
"N  c #6C5231",
"B  c #785937",
"V  c #536B2D",
"C  c #566933",
"Z  c #676D29",
"A  c #726625",
"S  c #696833",
"D  c #7C6338",
"F  c #647934",
"G  c #78733D",
"H  c #433E41",
"J  c #49454A",
"K  c #574A47",
"L  c #4B4E56",
"P  c #514E52",
"I  c #5A5558",
"U  c #6E5243",
"Y  c #665A57",
"T  c #636053",
"R  c #776152",
"E  c #5F5C61",
"W  c #5F6369",
"Q  c #656367",
"!  c #76706A",
"~  c #696B72",
"^  c #6D7176",
"/  c #777578",
"(  c #86360C",
")  c #863A0C",
"_  c #953F0A",
"`  c #854712",
"'  c #984912",
"]  c #875615",
"[  c #9A5C11",
"{  c #A8470B",
"}  c #B04C0B",
"|  c #B6650D",
" . c #B66811",
".. c #8B4C23",
"X. c #864D28",
"o. c #8A532B",
"O. c #96562A",
"+. c #865935",
"@. c #985D33",
"#. c #A15A28",
"$. c #86673C",
"%. c #9D673C",
"&. c #A26434",
"*. c #A4683B",
"=. c #B66E39",
"-. c #C7560C",
";. c #D05B0E",
":. c #C4690E",
">. c #CA6C14",
",. c #C97514",
"<. c #D67A12",
"1. c #D37C15",
"2. c #926E47",
"3. c #897643",
"4. c #977645",
"5. c #AE7748",
"6. c #BD7C44",
"7. c #B77948",
"8. c #C57C42",
"9. c #55853A",
"0. c #67843C",
"q. c #728036",
"w. c #5A8F41",
"e. c #509746",
"r. c #6A8542",
"t. c #798944",
"y. c #679944",
"u. c #769846",
"i. c #58AA4D",
"p. c #5FB14F",
"a. c #4CAB51",
"s. c #55AD52",
"d. c #4AB554",
"f. c #56B755",
"g. c #5AB554",
"h. c #5CBB56",
"j. c #67AA4D",
"k. c #74A548",
"l. c #77B44E",
"z. c #69AB50",
"x. c #63B552",
"c. c #63BC55",
"v. c #6BBA56",
"b. c #6CBE55",
"n. c #64BD58",
"m. c #7DB551",
"M. c #72BC54",
"N. c #5AC457",
"B. c #65C156",
"V. c #6CC257",
"C. c #66C857",
"Z. c #65C359",
"A. c #6CC45A",
"S. c #63CC5C",
"D. c #6CCB5C",
"F. c #74C456",
"G. c #79C757",
"H. c #73C65A",
"J. c #74CA5C",
"K. c #7BCD5B",
"L. c #69D35E",
"P. c #74D15E",
"I. c #7DD15D",
"U. c #7AD95F",
"Y. c #6DCE61",
"T. c #76CE60",
"R. c #6FD162",
"E. c #73D261",
"W. c #7CD461",
"Q. c #71DA62",
"!. c #7DD962",
"~. c #73E466",
"^. c #DB8114",
"/. c #E28615",
"(. c #928F4F",
"). c #AA8048",
"_. c #BD824D",
"`. c #B5895A",
"'. c #84B353",
"]. c #A28874",
"[. c #BFA171",
"{. c #CA8449",
"}. c #D48B4D",
"|. c #DB8D4D",
" X c #C98953",
".X c #D48F55",
"XX c #D89659",
"oX c #E09A5A",
"OX c #C39C64",
"+X c #E09F60",
"@X c #D9A767",
"#X c #D2A871",
"$X c #E4A363",
"%X c #EBA966",
"&X c #F3AC67",
"*X c #85C14C",
"=X c #86C758",
"-X c #81CE5B",
";X c #83D35D",
":X c #8AD55E",
">X c #86DA5F",
",X c #8ADA5F",
"<X c #92D55C",
"1X c #92E05A",
"2X c #83D561",
"3X c #8CD660",
"4X c #85DB62",
"5X c #8BDC62",
"6X c #93DD63",
"7X c #99DE63",
"8X c #88E366",
"9X c #8DE265",
"0X c #94E465",
"qX c #99E666",
"wX c #96E966",
"eX c #9BE967",
"rX c #95E668",
"tX c #99E668",
"yX c #95EA69",
"uX c #9CEB69",
"iX c #95F069",
"pX c #9CF26B",
"aX c #A3ED68",
"sX c #A2EE69",
"dX c #A3F16A",
"fX c #AAF46C",
"gX c #A8FA6E",
"hX c #AFFA71",
"jX c #777D84",
"kX c #8B9092",
"lX c #989EA4",
"zX c #EBC98A",
"xX c #FCDA96",
/* pixels */
"uXuXaXuXuXtXqX0X0X5X5X5X0XyXwXeXyXyX9XyXrX5X4X8X4X!.E.R.R.A.h.N.D.J.V.H.I.I.;X;X>X>X4X5X3X5X5X,X0XqX",
"qXaXaXuXaXuXtX0XrX9X6X5X0XwXeXeXeX9XW.4X8X8X8X4X4XW.E.J.Y.S.Z.H.P.G.K.K.I.W.;X>X;X>X5X3X3X2X3X2X,XrX",
"qXuXuXaXuXeXeXtX0XrX0X0X0XwXeXeX0XW.P.W.4X4X4XW.W.T.Y.D.D.Y.E.!.;X,X9X9X5X,X>X5X4X:X4X3X2X-X;X3X>X5X",
"6XeXuXaXuXqXrXeXwX0X0X0X0XrXeXuX5XK.J.D.E.!.E.E.R.Y.D.E.A.A.W.W.4X0X0X1XrX0X,X5X4X4X:X4X2X2X-X-X4X3X",
"0X,XqXaXuXrXqXrXrXqX0X0XqXrXeXqX;XH.H.T.Z.A.E.T.D.Z.n.x.g.g.V.5XwXeXqXwX9X0X0X,X3X3X;X4X:X;X2XK.2X7X",
"9X0X6X0XqXqXqXrX0XwX0XwX0XeXuXuXaX5XJ.H.j.b V.A.g.g.b.T.J.z.G 6XdXeXwXeXeX0X1X0X5X5X4X:X:X4X2XK.K.4X",
";X0XuXeXqXrXrXqXwX0XqXwXwXeXaXdXaXqXK.2X5XN z.J.s.g.2XrXsXu.(.7XdXdXdXdXdXuXqX9X0X3X4X4X;X;X4X;XH.J.",
"G.,XuXdXuXwX0XqX0XwX0XqXwXeXaXaXfXrXK.fX<XB '.2X;X;XW.yXhXt.`.'.gXaXdXaXaXpXqX9X5X4X;X;X;XI.;X4X>XJ.",
"I.;XrXuXdXsXeXyXrXrXqXuXdXfXfXfXaXaXfXhX'.`.u.gX3XyX,X=X*X(.zX$.<XfXdXpXuXuXwX0X5X0X9X>X;X;XG.;X5X4X",
"9X>X9XqXwXuXpXsXuXuXeXeXuXfXhXfXfXfXhXhX(.#X(.y.3Xu.(.kX! R OX$.,XfXdXdXdXuXwXwX0X9X9X9X;XI.W.I.I.9X",
"5X9X9X0X9X9X,X>X4X5X9X5X4X,XeXaXaXfXaXdXu.OXzXOX2.u jXjX^ y r c r.tXuXpXdXeXwX0X9X9X0X9X5X8X2XV.K.,X",
"5X0XwX0XwXwXwX,XI.W.W.5X9X0XrXrXtXaXaXfX'.2.#XzXxX2.H I Y Y / E I F :XwXrXwX0X9X8X5X9XrX9X8XP.H.J.2X",
"5X5XrXyXrXuXaXqXeXyX4X4X4X8XsXfXfXfXfXfXdXr.$.7.2.Y Y ! I L y y y v 0XwXyXtX8X5X4X4X2X8X8X4X4XW.P.W.",
"4X5X5X0XrXqXaXtXtXeXyXrX0X5X6X0X0X0XqXuXuXgXC r ~ E L y M +.&.@.- k.pX0XrX8X9X4X2XW.2X2X4X2X4X4XW.4X",
"5X4X,X4X9XyXqXtXuXuXrXrXyXeXsXdXsXaXeXeXpXm.Y ~ I u R 7.6.6.7.8.+.I.iX0X0XwX5X2X2XW.2X4X4X4XK.W.;X5X",
"K.2X;X;X;X6XrXqXqXuXqX0X0X8X4X4X3X,X0X3X9Xr.T J t X.6.XX` { { ) ..] m.wX9XI.2XW.W.2X!.4X5X8X4XK.H.G.",
"W.-X6X:X=X3X6XtX0XqXqX0X5XrX,X>X5X4X,X;XJ.V < m O.m +.XX..8 2 w q 1 G 8X;X;X4XI.P.W.W.!.2X2X3X2X2XK.",
"-X-X:X3X7X7X6X7X7X<X<XtX6X4X1XqX4X;X5X0X1X0.q =.X.q &.$X}.X.5._.[.+.0.iX9X5X4XW.P.J.W.2XT.-X2XW.2X;X",
":X3X:X6X7X7X6X<X6X:X-X6X6X5X,XqX0X5X4X=Xv B %.&.#.w 5.5.$X8.{. XXX7.k.wX,X5X4XW.H.Z.D.A.T.K.2X-X-X;X",
"6XqX7X3X3X3X6X-XF.-X:X,X,X6X0X,XwX=XV a p g n o.>._ _ { X.i 9 w w 0 A >X>XW.!.I.W.T.n.h.g.M.-X:X3X3X",
"7X7X7X7X:X=X-X-XG.G.:X,X,X,X6XqX;Xx = k : p p 6 ..-.-.;._ 0 -.{ ) ( ( 9.W.T.T.T.T.T.n.n.n.n.T.2X:X3X",
"=X3X-X3X3X,X3X-XM.-X-X;X5X,X<XpXk.A XXXX X%.6 % 3 -.-.-.( { ) 8 0 ( 1 c T.Y.T.T.A.A.A.n.Z.A.v.T.-X-X",
"G.T.K.G.M.M.F.G.G.;X-XG.;X5X,XiXu. X%X$X$X%XXXn X ( } ;.( 8 0 } -.' ..q e.T.Z.A.Y.Z.D.A.n.n.n.n.H.T.",
"H.T.K.2X:X-X;X;X-X-X;X-XI.,X,XwXv  X$X$X@X+X&X8.w X.w ) _ 2 _ ' 0 5 m +.N p.S.y.y.Z.s.i.n.A.n.A.H.H.",
"A.v.A.v.x.x.v.G.-X-X-X-XG.;X9X0.0  X%X+X$X+X$X{.X.{.8.O.2 e > y L L > 6..Xb w.7.*.v 4.).z.D.D.J.T.K.",
"T.T.F.V.x.p.x.V.G.I.I.I.G.;XM.]  .@.%X+X+X$X$X8.@.XX$X}.5 u , H E Q P m %XM 4 7.%.o.{.=.r.Y.v.V.J.H.",
"K.K.K.K.J.G.G.G.G.P.G.G.G.I.Z :.^.` 5.&X$X%X$X{.}.$X$XoXm +.J y ^ / ~ r |.`.K m o.m @. X3.h.V.b.F.G.",
"-X-X-X-XK.I.K.;XG.G.F.F.;X9.[ ^.^. .3 o.=.8..X$X+X$X$X X4.+XM < W jXkXu =._./ ].R B *.|.%.l.>X>X;X>X",
"-XI.-X-XI.K.K.K.I.F.G.G.B.z <.1.^. .& . 4 #..X$X$X$X$X8..XoXU H Q lXlXJ O.%.I kXjXN o.*.B G.>X;X;X;X",
"K.K.I.K.G.I.K.K.G.G.F.J.9.| ^.1.^.[ # $ X *.&X%X$X$X+XXX$XXXR P E kXjXy 5 y J jX~ R %..X6.k.>X;XI.K.",
"-X;XI.-X>X-XG.G.G.G.G.V.A >.<.,./.z O $ + X +..XXX+X$X$X%X7.Y H P E , B 2.J J ^ W K X.X.m l.;XK.;X-X",
"G.I.-X,X;XF.I.I.J.F.J.j.[ ^.1.<.<.9 O $ # + . o @. XoX.X|.X.< , > X o XX4.< < E J e D u.M.K.V.F.F.K.",
"G.K.I.;XI.K.I.J.H.H.E.y.| <.1.1.,.3 O $ @ p s & l z m m n 3 B 2.t   %.&XB , > b v y.>X,X,X-XK.H.F.v.",
"G.V.V.G.K.;XI.K.H.v.Z.V  .1.1.<.,.% + + & d d d s p p p p = 4.`.7 # %.(.v C r.G.>X8X6X6X0X0X7XtX0X:X",
"9X1XK.F.K.2XK.H.b.x.e.z 1.1.1.^.| # + @ p d d d d d d d f d p * * # w.h.G.,X>X:X2X,X0X6X<XtX6X3X3X6X",
"I.;X>XK.;X2X;X;XK.n.V  .^.1.1.^.[ + $ $ a d d d d d d d f d f f * ; z.2XK.>X;X:X5X4X3X0X0X3X:X>X3X2X",
"J.G.G.I.I.G.K.-X;XM.z <.>.<.<./.z   $ $ d d d d d d d d d d d f & & Z.V.n.F.>X;X3X5X6XK.2X:X;XI.K.K.",
"G.F.J.H.H.H.G.G.K.G.Z Z Z A ] :.4 + # & d d a $ a a * a d p a d $ s Z.N.g.x.-X;X2X5XaX6Xg.b.K.;X-XK.",
"I.F.J.H.G.J.H.G.G.H.D.Z.D.J.j.F h . # $ a : = . * * + a d $ $ d . j R.D.A.c.F.>X2X;X6X7X3Xs.F.-X;XK.",
"V.b.F.G.G.J.H.H.H.B.C.F.B.V.U.8XF 6 t B c 6 4 $.c 7 X % = ; * a . 9.~.S.B.B.n.K.V.x.-X5X6X;Xp.V.J.H.",
"H.A.J.K.J.J.A.V.c.c.A.!.4X4X8X0.6 3.D $.$.t n S $.c F m.l.K.C.i.9.N.S.h.h.h.g.h.g.g.h.G.I.G.I.H.V.H.",
"A.H.K.G.G.J.F.J.V.n.h.A.J.>XiX0.n (.3.c 6 N 3.c F 0.wXpXeX0X8X!.~.S.S.N.h.h.a.a.a.s.g.p.V.H.K.I.K.H.",
"T.H.J.J.P.G.F.H.V.V.A.J.J.D.Q.j.c $.q.=Xk B S 7XgXuXeXrXqX0X5X!.U.L.L.D.D.c.g.a.s.h.c.B.V.A.J.D.J.K.",
"T.K.K.P.I.G.A.v.J.J.J.J.I.9XyXm.c 2.u.dXx D S aXfXsXuXeXeXrX5X4X!.U.P.D.S.Z.n.N.h.B.B.D.V.A.A.V.H.K.",
"K.W.T.-XK.K.2XH.n.A.W.4X9X9XiXk.c %.u.<Xr 4.B tXfXsXsXsXtXrX9X!.!.>XU.S.h.h.a.s.g.n.n.b.I.K.2XK.K.K.",
"5X3X7X0X6X2X:X5X2XF.T.8XwXwXgX0.n B l.*X6 $.r.gXuXuXuXrXyXtX9XE.L.U.L.N.d.a.h.g.n.b.V.F.I.9XtXuXrX6X",
"uX0X0XqXuX7X5X3X6X9X;XK.>X9XpX,Xv C qXqXv F tXuXtXrX4X5X8X8X8XQ.S.N.N.d.s.n.n.A.A.H.K.T.2X3X5X0XqXaX",
"uXuXtXrXtXrX0X0X5XrX0X4X4X>XwXpXqXwXeXeX0XqXuXtXtXuX5XW.!.!.~.R.f.a.a.h.H.T.A.H.J.K.K.2X;X4X0X5X6XuX",
"aXqXuXuXtX0X0X6X9XrX6X9X6X8X0XrXeXwXeXwX0X9X5XrXrXrX6XW.R.Q.S.N.d.a.g.A.H.J.H.J.W.;X4X4X;X,X0X0XqXuX",
"uXuXuXaXuXqXrX0X6X5X6X9X5XrXrXrXyXyXwXqX5X5X5X4X9X8X!.E.R.Y.N.f.d.f.A.K.T.K.K.2X;X4X6X3X5X;X:XrXqXuX"
};
