/* XPM */
static char *result[] = {
/* columns rows colors chars-per-pixel */
"50 50 202 2 ",
"   c #000000",
".  c #0B0401",
"X  c #0D0A02",
"o  c #130905",
"O  c #140A05",
"+  c #1B0B05",
"@  c #190E08",
"#  c #131304",
"$  c #1E1405",
"%  c #121D06",
"&  c #191C06",
"*  c #1C1309",
"=  c #131313",
"-  c #1A1110",
";  c #23130C",
":  c #241C0C",
">  c #2C1B0F",
",  c #371B05",
"<  c #2E1D15",
"1  c #0E220A",
"2  c #152409",
"3  c #152709",
"4  c #192509",
"5  c #1A2A0A",
"6  c #1E310A",
"7  c #29280C",
"8  c #37250B",
"9  c #22340C",
"0  c #243D0E",
"q  c #2C3C0E",
"w  c #352213",
"e  c #3B2515",
"r  c #3A2A18",
"t  c #3A3A14",
"y  c #252525",
"u  c #372627",
"i  c #3F3028",
"p  c #342D31",
"a  c #3C3438",
"s  c #4E290B",
"d  c #56270A",
"f  c #442414",
"g  c #462A19",
"h  c #4B2C1B",
"j  c #42321A",
"k  c #4A331D",
"l  c #483C19",
"z  c #543312",
"x  c #622709",
"c  c #652B0C",
"v  c #6D2E0C",
"b  c #68380A",
"n  c #79330B",
"m  c #612D12",
"M  c #6B3418",
"N  c #743511",
"B  c #713B1D",
"V  c #783E1C",
"C  c #452B24",
"Z  c #473628",
"A  c #4B342D",
"S  c #563B26",
"D  c #5C3B23",
"F  c #423634",
"G  c #43393B",
"H  c #4B3D3A",
"J  c #533D36",
"K  c #683C24",
"L  c #2A420F",
"P  c #2C490F",
"I  c #2B4510",
"U  c #2E4A12",
"Y  c #3D4013",
"T  c #304B13",
"R  c #48451A",
"E  c #6F460E",
"W  c #79450D",
"Q  c #4E4220",
"!  c #5C4626",
"~  c #594628",
"^  c #574A3F",
"/  c #664527",
"(  c #65442A",
")  c #6C4D2C",
"_  c #734224",
"`  c #7B4624",
"'  c #7F4824",
"]  c #7B4A2B",
"[  c #69512E",
"{  c #674B37",
"}  c #6C5532",
"|  c #6B5832",
" . c #725C35",
".. c #7B5838",
"X. c #7D673B",
"o. c #3F3A40",
"O. c #473F42",
"+. c #4A4549",
"@. c #584A48",
"#. c #4C4C54",
"$. c #544F52",
"%. c #55555A",
"&. c #715749",
"*. c #635756",
"=. c #766041",
"-. c #7A6357",
";. c #5A5C62",
":. c #635F60",
">. c #5D626A",
",. c #636469",
"<. c #686668",
"1. c #716E6F",
"2. c #6A6D72",
"3. c #766F70",
"4. c #6F7176",
"5. c #73777C",
"6. c #86390B",
"7. c #923906",
"8. c #893F10",
"9. c #9B420C",
"0. c #95540F",
"q. c #944616",
"w. c #965611",
"e. c #A2440C",
"r. c #A8470B",
"t. c #B74C09",
"y. c #B44C0A",
"u. c #B36612",
"i. c #B76912",
"p. c #834721",
"a. c #8A4D26",
"s. c #844E2B",
"d. c #85512A",
"f. c #8B542D",
"g. c #94592C",
"h. c #9C5B2D",
"j. c #895A37",
"k. c #935931",
"l. c #9A5E33",
"z. c #925F3A",
"x. c #B15F25",
"c. c #846A3E",
"v. c #91643C",
"b. c #9E6439",
"n. c #9A713F",
"m. c #AD622C",
"M. c #A26233",
"N. c #A66636",
"B. c #AB6C3C",
"V. c #B86A30",
"C. c #B6733E",
"Z. c #C6550C",
"A. c #CB580D",
"S. c #CA730F",
"D. c #CD7513",
"F. c #CF7914",
"G. c #D37C14",
"H. c #DB7F14",
"J. c #C4793E",
"K. c #86644C",
"L. c #8C7443",
"P. c #8E724F",
"I. c #957A46",
"U. c #9F7E53",
"Y. c #A46E42",
"T. c #A86E40",
"R. c #B47947",
"E. c #B97D4A",
"W. c #C17D46",
"Q. c #DB8114",
"!. c #9D844B",
"~. c #BD834F",
"^. c #AB8755",
"/. c #86807F",
"(. c #B49065",
"). c #C9854B",
"_. c #D38C4E",
"`. c #DB8D4B",
"'. c #C48852",
"]. c #CD8D54",
"[. c #DB9453",
"{. c #D6955A",
"}. c #DE9B5C",
"|. c #E09554",
" X c #E19B5A",
".X c #E9A15F",
"XX c #C69C65",
"oX c #DD9E60",
"OX c #E09F60",
"+X c #D1AA70",
"@X c #D5B579",
"#X c #E4A363",
"$X c #E9A765",
"%X c #EDA966",
"&X c #F4AE69",
"*X c #777B80",
"=X c #7D8891",
"-X c #888A8F",
";X c #868C92",
":X c #959AA0",
">X c #E7C789",
",X c #F7D692",
/* pixels */
"                                                                                                  = ",
"                                                                                                  = ",
"                                                                                                  = ",
"                                                                                                  = ",
"                                            * {               * e                                 = ",
"                                            < ^.              w ~                                 = ",
"                                            } (..             j =.                                = ",
"                                          o ^.,XZ   X         =.^.                                = ",
"                                          o P.P.*.P./.:.-   C @XXXO                               = ",
"                                        o F O.O.#.2.4.2.&.^.>X>X^.O                               = ",
"                                      . F <.3.P.>.*.@.C U.,X@XXX(                                 = ",
"                                        C G A O.#.%.3.,.*.c.n.S .                                 = ",
"                                        + B R.B.z.K G #.1.3.A .                                   = ",
"                                        @ m.C.C.R.E.R.&.J $.2.H                                   = ",
"                                      , 8.B 7.y.r.p.oXR.f.J G ^ @                                 = ",
"                                      d M V m d x B.oX] p.N.K w .                                 = ",
"                                      g (.XX].b.M.OX{.h.B N.k.K @                                 = ",
"                                      h _.'.).E.OX'.k.b.V V.l.R.) #                               = ",
"                                    . v N N N m B q.y.6.e.x.B Z T U 9 #                           = ",
"                                    f 7.n 9.y.t.c t.A.A.y.M l 6 I t R Y #                         = ",
"                                  . d 6.6.v v e.9.r.A.A.r.r 7 / Y.].}.]./                         = ",
"                                  + p.q.y.Z.7.c v r.Z.9.m 7 k.$X%X$XOX&XY.                        = ",
"                          +     @ K f.K h 6.e.6.d r.N _ ' M  X$XoX#XoX%XY..                       = ",
"                  k R.( h ].)   ..&X' a +.+.a C h c M.`.B.a.}.#X#X#X#X%Xb.b .                     = ",
"                  s.`.B.s.'.z.u E.`.A ,.,.;.p a C a.[.$X~.m._.#X X#X#X$Xf.S.d                     = ",
"                @ Y.T.` ` p.K *. Xk.O.5.5.:.a @.b.M..X#X#XJ._.$X$X$X%XY.0.Q.i.+                   = ",
"                h |.'.k...-.*X&.[.K ;.*X*X+.O.K.{.k.$XOX#XOXOX].W.W.] s F.G.H.W                   = ",
"                > l.f.' <.=X-X{ _.K 2.:X:X+.#.j.%XB.].$X#XOXOX).a.f % w D.G.G.F.,                 = ",
"                D #XT.v.<.5.<.p S f ,.;X;X+.,.j.$XoX{..X#X#X$X%Xs.: 3 7 i.G.F.Q.0.                = ",
"                f M.l.] ;.2.,.O.@.f.J $.2.a ;.K. X#X#XOXoXoX{.f.7 2 5 2 w.Q.F.G.F.,               = ",
"                  ; K h O.;.#.p J {.j.+ i u o.~ ).|.|..X).s.w % 2 5 5 1 0.Q.G.G.Q.b               = ",
"                      . ; u H u G '.%Xt 4 D { D M d.g.g.d.l 5 L 9 2 5 1 E Q.G.G.Q.0.              = ",
"                            . ; < K '.[ % ..+X..7 L L q 0 I U U U 5 4 2 z G.G.G.H.i.o             = ",
"                                      ; 5 q l q P U T U U U U U U 0 2 2 7 D.G.G.F.H.s             = ",
"                                      X 5 P P U U T U U U U U U U 0 5 5 7 u.G.G.F.Q.w.            = ",
"                                      X 5 P U U U U U U U U U U U I 5 2 2 0.Q.G.Q.Q.Q.s           = ",
"                                      . 4 L U P U U U L T 0 6 U U U 5 4 1 E Q.u.W b b f           = ",
"                                      . & 9 U 5 0 U 9 4 P 6 % I U I 3 3 3 8 d o                   = ",
"                                        & 9 P 4 9 t 7 7 t Q ! e j l ~ r e .                       = ",
"                                        X O O . . + $ f } I. .h ~ L.c. . .r .                     = ",
"                                                      . k k [ L.( D | !.I.! +                     = ",
"                                                            : }  .> * S c.S                       = ",
"                                                              ! X.:   w I.j                       = ",
"                                                               .L.w   ! !.l                       = ",
"                                                              [ L.r   j !.Q                       = ",
"                                                              ; ~ w   o ( r                       = ",
"                                                                . .     . .                       = ",
"                                                                                                  = ",
"                                                                                                  = ",
"= = = = = = = = = = = = = = = = = = = = = = = = = = = = = = = = = = = = = = = = = = = = = = = = = y "
};
