/* XPM */
static char *result[] = {
/* columns rows colors chars-per-pixel */
"50 50 207 2 ",
"   c #000000",
".  c #0B0502",
"X  c #0F0904",
"o  c #130B04",
"O  c #150B06",
"+  c #190C06",
"@  c #0A1800",
"#  c #151906",
"$  c #1C120B",
"%  c #131313",
"&  c #271706",
"*  c #2B1505",
"=  c #23140B",
"-  c #2B160D",
";  c #32180C",
":  c #281612",
">  c #361E14",
",  c #0E2209",
"<  c #142107",
"1  c #14250A",
"2  c #182708",
"3  c #192609",
"4  c #1A290A",
"5  c #1D320B",
"6  c #232309",
"7  c #29270C",
"8  c #35290C",
"9  c #21340C",
"0  c #243C0D",
"q  c #283D0D",
"w  c #33370F",
"e  c #322112",
"r  c #3C2414",
"t  c #3B2A15",
"y  c #39251A",
"u  c #2D3F10",
"i  c #393714",
"p  c #333B11",
"a  c #252525",
"s  c #382826",
"d  c #3F302F",
"f  c #332C31",
"g  c #3C3538",
"h  c #431C07",
"j  c #411E10",
"k  c #57260B",
"l  c #4D360C",
"z  c #50370D",
"x  c #5B320B",
"c  c #462A17",
"v  c #562E17",
"b  c #46331C",
"n  c #4B341D",
"m  c #453A1A",
"M  c #58341C",
"N  c #672C0B",
"B  c #722D09",
"V  c #67390B",
"C  c #76320C",
"Z  c #7B340C",
"A  c #683515",
"S  c #69341A",
"D  c #723716",
"F  c #462F2A",
"G  c #4D3A21",
"H  c #49332A",
"J  c #523B22",
"K  c #463736",
"L  c #463B3B",
"P  c #4B3C3A",
"I  c #693D23",
"U  c #703D21",
"Y  c #25420F",
"T  c #2A430F",
"R  c #2C4510",
"E  c #2E4A12",
"W  c #394615",
"Q  c #304B13",
"!  c #454419",
"~  c #7A460D",
"^  c #694316",
"/  c #574626",
"(  c #5C4326",
")  c #5D432C",
"_  c #6C442C",
"`  c #64482B",
"'  c #764526",
"]  c #7B4524",
"[  c #6D5132",
"{  c #765833",
"}  c #786338",
"|  c #7D6339",
" . c #433D42",
".. c #464043",
"X. c #4B4446",
"o. c #4D474B",
"O. c #4D494D",
"+. c #594D4A",
"@. c #5E514D",
"#. c #494A51",
"$. c #535256",
"%. c #6B5347",
"&. c #655D5C",
"*. c #725F58",
"=. c #756356",
"-. c #585C62",
";. c #5F6166",
":. c #646163",
">. c #64676C",
",. c #686669",
"<. c #6A6668",
"1. c #686B71",
"2. c #716F73",
"3. c #747477",
"4. c #75797E",
"5. c #83360B",
"6. c #893A0C",
"7. c #923D0B",
"8. c #8D4F0F",
"9. c #9B420C",
"0. c #9F5A0F",
"q. c #864A1B",
"w. c #994D1D",
"e. c #995610",
"r. c #9B5912",
"t. c #A94407",
"y. c #AC490C",
"u. c #B44B0A",
"i. c #A15B0F",
"p. c #B85718",
"a. c #AE6311",
"s. c #844A23",
"d. c #874E29",
"f. c #8B532B",
"g. c #92552B",
"h. c #9B5828",
"j. c #865735",
"k. c #985D33",
"l. c #8B673B",
"z. c #97643B",
"x. c #9C643B",
"c. c #8B703F",
"v. c #A16133",
"b. c #AA6531",
"n. c #A46639",
"m. c #AF703C",
"M. c #B3723E",
"N. c #B9743D",
"B. c #C5550C",
"V. c #CB570C",
"C. c #D05A0D",
"Z. c #CB7513",
"A. c #CE7914",
"S. c #D27B14",
"D. c #D97F14",
"F. c #C2763B",
"G. c #865F42",
"H. c #896B44",
"J. c #966843",
"K. c #8D7643",
"L. c #977846",
"P. c #977D57",
"I. c #A26E43",
"U. c #AC7344",
"Y. c #A87A4C",
"T. c #B47746",
"R. c #BB7943",
"E. c #BB7E4A",
"W. c #877E7B",
"Q. c #C47C42",
"!. c #DC8114",
"~. c #E48515",
"^. c #9F844B",
"/. c #BF834E",
"(. c #A28459",
"). c #B88857",
"_. c #C4834B",
"`. c #CB8448",
"'. c #D48A4B",
"]. c #C18752",
"[. c #CC8D54",
"{. c #D08D57",
"}. c #CD9158",
"|. c #D59254",
" X c #D99759",
".X c #DA975A",
"XX c #DD9D5F",
"oX c #E89B57",
"OX c #E39D5C",
"+X c #DF9E60",
"@X c #C69C76",
"#X c #E09F60",
"$X c #D2AA6A",
"%X c #CDA971",
"&X c #E4A363",
"*X c #EAA764",
"=X c #EAA966",
"-X c #EFAC68",
";X c #F0AE69",
":X c #FFB66E",
">X c #737D87",
",X c #827D80",
"<X c #7A8187",
"1X c #8B8F94",
"2X c #969BA1",
"3X c #EAC988",
"4X c #F6D28C",
/* pixels */
"                                                                                                  % ",
"                                                                                                  % ",
"                                                                                                  % ",
"                                        .                                                         % ",
"                                        . r               = `                                     % ",
"                                        . ) .             y P.                                    % ",
"                                        $ H..             H %X$                                   % ",
"                                        e %X$         X   (.4X`                                   % ",
"                                        ) 3XP.+   g 3.(.1.*.L._                                   % ",
"                                        J $X4X%XH.%.>X>.-.#.P K s                                 % ",
"                                        o L.$X3X4X_ K %.:.,.W.:.:.:                               % ",
"                                          = { L.%.:.:.<.O.#.K F K :                               % ",
"                                            : +.,X&.#.K { x.N.b.j .                               % ",
"                                          $ &.>. . .J.Q.R.U.U.N.s.                                % ",
"                                          s @. .U k.{.].5.u.t.6.q.B o                             % ",
"                                          + F g.v.U k.OXs.k k D U B *                             % ",
"                                          t _ b.s.] m.*X'.j.T.}.@XJ.o                             % ",
"                                      . 6 z.x.b.h.] n.n.+XE._.`.|.T..                             % ",
"                                  . 6 q E W M g.p.7.7.t.s.M A C D C h                             % ",
"                                  6 ! ! p 0 0 v 7.V.B.C.7.Z B.y.6.5.6.o                           % ",
"                                + z..X.X/.l.n 7 v V.V.B.6.y.5.N C 5.C ;                           % ",
"                                ; &X=X&X*X-X|.J > 5.y.V.6.N C y.B.9.w.S                           % ",
"                                r &X&X&X#X#X;XU.S d.D 7.7.k 7.9.C M ] j.H     . O                 % ",
"                              * V }.&X&X&X#X&XQ.q.'.Q.d.k H s  .X.O.s R.+X; . T.I.c l.J.+         % ",
"                              0.i.J.;XOX&X&X#XF.g.+X&XQ.v P f ..;.>.#.] =X_ > Q.U.k.R.'.c         % ",
"                            k D.S.q.}.*X*X&X&XF.[.#X&X|.g.j.L ..3.3.1.H |.E.+.U s.' f.E._         % ",
"                          + Z.S.!.0.c n._.`. X&X#X#X*X_.z..X+.g ,.4.<XP T.E.2.W.%.' U.oXM..       % ",
"                          q.D.Z.!.r., & A v.|.&X&X&X*XR.}..X%. .,.2X2XO.k.M.&.1X>X%.s.k.'         % ",
"                        * Z.S.S.D.~ 1 2 r _.-X&X&X&X#X|.=X{.*.$.&.2X>X..M F O.4.>X=.j.]._.O       % ",
"                        ~ D.S.S.D.^ , 4 < c U.XXXX&X&X&X=X/.&...$.1.L _ j.o.O.2.>.+.d.v.d.X       % ",
"                      X a.D.S.S.S.l , 4 3 < # v n. XOX.XoXd. .s s y - ].Y.g  .-.$.K I G X         % ",
"                      * Z.S.S.S.Z.7 2 4 3 0 Y 7 ^ f.h.g.] A P [ n @ l.:XG.f d L > +               % ",
"                      x D.S.S.!.a.6 1 2 0 Q Q E Y q u u Y 8 ).@Xm < m.I.r : $ .                   % ",
"                      e.!.A.A.!.8., 4 4 T E E E Q E E E Q R u i 9 4 +                             % ",
"                    ; Z.S.S.A.!.^ 1 4 4 E Q E Q E E E Q E Q E E q 3                               % ",
"                    e.~.D.!.S.S.z , 4 5 E E E E E E E E E E E Q 0 #                               % ",
"                  o x V V 8.Z.Z.8 1 1 9 E E R 5 E E R R E R E E 9 #                               % ",
"                            * x 6 2 2 5 E E 5 , T 9 2 E E 4 5 E 4 +                               % ",
"                                = t b / m t c ` m 8 7 w R 3 7 R 4 X                               % ",
"                              $ J } { K.} G J K.c./ = + + . X o + .                               % ",
"                              e } ^.K./ ( [ K.G J e                                               % ",
"                              + } | t o b } J X                                                   % ",
"                              X { | .   G c.=                                                     % ",
"                              + { L.$   J L.m                                                     % ",
"                              = l.K.. . / L.e                                                     % ",
"                              o ( b   . J G .                                                     % ",
"                                .       X                                                         % ",
"                                                                                                  % ",
"                                                                                                  % ",
"% % % % % % % % % % % % % % % % % % % % % % % % % % % % % % % % % % % % % % % % % % % % % % % % % a "
};
