/* XPM */
static char *_bd4e3bc89044ae697fb61654e9ae769nwaZIq6VOXxGnA2e[] = {
/* columns rows colors chars-per-pixel */
"50 50 213 2 ",
"   c #081500",
".  c #111B02",
"X  c #271A07",
"o  c #321E10",
"O  c #0E2209",
"+  c #152405",
"@  c #162A04",
"#  c #162509",
"$  c #1A2409",
"%  c #1A2A0A",
"&  c #1E3907",
"*  c #252607",
"=  c #36290E",
"-  c #22350C",
";  c #253A0E",
":  c #262A12",
">  c #3C2411",
",  c #3A2B14",
"<  c #333C11",
"1  c #383814",
"2  c #2C252B",
"3  c #382D2E",
"4  c #39362E",
"5  c #3B353A",
"6  c #5F1D00",
"7  c #5D270C",
"8  c #462716",
"9  c #463A19",
"0  c #59341D",
"q  c #662807",
"w  c #78340E",
"e  c #673519",
"r  c #6B391E",
"t  c #783A16",
"y  c #4B2E23",
"u  c #422F2A",
"i  c #49332B",
"p  c #543525",
"a  c #583C27",
"s  c #453737",
"d  c #4C3C3A",
"f  c #523A32",
"g  c #5A3D30",
"h  c #603B27",
"j  c #28420F",
"k  c #2B4410",
"l  c #2E4A12",
"z  c #314C14",
"x  c #49421E",
"c  c #5E421F",
"v  c #704410",
"b  c #584628",
"n  c #5D4937",
"m  c #664C2D",
"M  c #754223",
"N  c #7C4522",
"B  c #77462A",
"V  c #774B2C",
"C  c #6A562B",
"Z  c #664432",
"A  c #6D5334",
"S  c #7A593A",
"D  c #79633A",
"F  c #453F42",
"G  c #4A464A",
"H  c #534747",
"J  c #4B4D55",
"K  c #5A5455",
"L  c #52545B",
"P  c #5D5A5D",
"I  c #65544B",
"U  c #6D5A4A",
"Y  c #6E5D55",
"T  c #7A634A",
"R  c #696657",
"E  c #76655C",
"W  c #5E5C61",
"Q  c #635F62",
"!  c #5E6268",
"~  c #686569",
"^  c #776966",
"/  c #666A70",
"(  c #6A6D74",
")  c #6E7074",
"_  c #72757B",
"`  c #7A797B",
"'  c #893A0C",
"]  c #923F0C",
"[  c #8A3F12",
"{  c #9C430D",
"}  c #844819",
"|  c #8A5218",
" . c #925012",
".. c #A34308",
"X. c #B44B0A",
"o. c #B04D0E",
"O. c #BA4E0A",
"+. c #AA5D09",
"@. c #A25E12",
"#. c #B66304",
"$. c #B66912",
"%. c #884C27",
"&. c #8F5B26",
"*. c #8F522A",
"=. c #875936",
"-. c #8D5B33",
";. c #935B33",
":. c #9A5D32",
">. c #A25D2C",
",. c #856B36",
"<. c #846A38",
"1. c #976138",
"2. c #9A643A",
"3. c #B66227",
"4. c #A26134",
"5. c #AC6C32",
"6. c #A96939",
"7. c #B26B35",
"8. c #B66D3A",
"9. c #C5550C",
"0. c #C8560C",
"q. c #CC590E",
"w. c #C7700C",
"e. c #D7790B",
"r. c #CC7714",
"t. c #D27B16",
"y. c #D27C15",
"u. c #D97E12",
"i. c #835D42",
"p. c #8B6944",
"a. c #856C4F",
"s. c #946846",
"d. c #967946",
"f. c #8C7359",
"g. c #987957",
"h. c #A17948",
"j. c #B27442",
"k. c #B67947",
"l. c #BB7B45",
"z. c #A37959",
"x. c #806E67",
"c. c #847462",
"v. c #897866",
"b. c #967B66",
"n. c #817C74",
"m. c #DB8115",
"M. c #DB8218",
"N. c #E08212",
"B. c #98804A",
"V. c #B08550",
"C. c #BB8556",
"Z. c #9D8674",
"A. c #93847D",
"S. c #AC8D6B",
"D. c #BF9A61",
"F. c #AB937A",
"G. c #B59A73",
"H. c #CA8246",
"J. c #C2834C",
"K. c #CA854B",
"L. c #D48B4A",
"P. c #C88A54",
"I. c #D28F52",
"U. c #CE935B",
"Y. c #D59153",
"T. c #DA9454",
"R. c #D7985C",
"E. c #E5A15F",
"W. c #C49965",
"Q. c #DD9E61",
"!. c #C7A46A",
"~. c #E3A262",
"^. c #EAA564",
"/. c #EBA967",
"(. c #F0A864",
"). c #F1AE6A",
"_. c #E2BE7A",
"`. c #7A7E83",
"'. c #938A84",
"]. c #9A938C",
"[. c #858C92",
"{. c #A69689",
"}. c #A9968A",
"|. c #A89D99",
" X c #AEA39C",
".X c #BDA592",
"XX c #989EA3",
"oX c #B4ABA5",
"OX c #B6ABA6",
"+X c #B7B0AC",
"@X c #BBB5B5",
"#X c #CDB091",
"$X c #C4B6A8",
"%X c #C5BDB8",
"&X c #E8C788",
"*X c #FCDC94",
"=X c #CDC2BC",
"-X c #C9C6C6",
";X c #D3CDCA",
":X c #D8D3D2",
">X c #DED9D6",
",X c #DEDAD9",
"<X c #E2DEDB",
"1X c #E5E1DE",
"2X c #E6E5E6",
"3X c #ECEAEB",
"4X c #F1EDEC",
"5X c #EAEDF2",
"6X c #E8F0F6",
"7X c #F4F3F4",
"8X c #F4F6F9",
"9X c #F6F8FC",
"0X c #FFFFFF",
/* pixels */
"0X0X0X0X0X0X0X0X0X0X0X0X0X0X0X0X0X0X0X0X0X0X0X0X0X0X0X0X0X0X0X0X0X0X0X0X0X0X0X0X0X0X0X0X0X0X0X0X0X0X",
"0X0X0X0X0X0X0X0X0X0X0X0X0X0X0X0X0X0X0X0X0X0X0X0X0X0X0X0X0X0X0X0X0X0X0X0X0X0X0X0X0X0X0X0X0X0X0X0X0X0X",
"0X0X0X0X0X0X0X0X0X0X0X0X0X0X0X0X0X0X0X0X0X0X0X0X0X0X0X0X0X0X0X0X0X0X0X0X0X0X0X0X0X0X0X0X0X0X0X0X0X0X",
"0X0X0X0X0X0X0X0X0X0X0X0X0X0X0X0X0X0X0X0X0X0X0X0X0X0X0X0X0X0X0X0X0X0X0X0X0X0X0X0X0X0X0X0X0X0X0X0X0X0X",
"0X0X0X0X0X0X0X0X0X0X0X0X0X0X0X0X0X0X0X0X0X0X0X0X0X0X0X0X0X0X0X0X0X0X0X0X0X0X0X0X0X0X0X0X0X0X0X0X0X0X",
"0X0X0X0X0X0X0X0X0X0X0X0X0X0X0X0X0X0X0X0X0X9X0X0X0X0X0X0X0X0X0X0X0X0X0X0X0X0X0X0X0X0X0X0X0X0X0X0X0X0X",
"0X0X0X0X0X0X0X0X0X0X0X0X0X0X0X0X0X0X0X0X7XA.1X0X9X0X0X0X0X<X{.4X0X0X0X0X0X0X0X0X0X0X0X0X0X0X0X0X0X0X",
"0X0X0X0X0X0X0X0X0X0X0X0X0X0X0X0X0X0X0X0X0XF.OX0X0X0X0X9X0X{.p.7X0X0X0X0X0X0X0X0X0X0X0X0X0X0X0X0X0X0X",
"0X0X0X0X0X0X0X0X0X0X0X0X0X0X0X0X0X0X0X0X9XS.$X0X9X0X0X0X0X'.h.;X0X0X0X0X0X0X0X0X0X0X0X0X0X0X0X0X0X0X",
"0X0X0X0X0X0X0X0X0X0X0X0X0X0X0X0X0X0X9X0X<XV.OX0X0X0X7X3X:XG._.b.8X0X0X0X0X0X0X0X0X0X0X0X0X0X0X0X0X0X",
"0X0X0X0X0X0X0X0X0X0X0X0X0X0X0X0X0X0X0X0X XD.G. X2XOX'. Xn.T W.S 7X0X9X0X0X0X0X0X0X0X0X0X0X0X0X0X0X0X",
"0X0X0X0X0X0X0X0X0X0X0X0X0X0X0X0X0X0X9X9X XV.&X!.g.f `.`.( s y n |.0X0X0X0X0X0X0X0X0X0X0X0X0X0X0X0X0X",
"0X0X0X0X0X0X0X0X0X0X0X0X0X0X0X0X0X0X0X0X2Xs.!.&X*Xs.s K P Q ` Q H A.0X0X0X0X0X0X0X0X0X0X0X0X0X0X0X0X",
"0X0X0X0X0X0X0X0X0X0X0X0X0X0X0X0X0X0X0X0X0XOXS 6.a.Y W ^ P J d d 3 ^ 0X0X0X0X0X0X0X0X0X0X0X0X0X0X0X0X",
"0X0X0X0X0X0X0X0X0X0X0X0X0X0X0X0X0X0X0X0X9X0X'.u ^ P J s A -.6.>.y ;X0X9X0X0X0X0X0X0X0X0X0X0X0X0X0X0X",
"0X0X0X0X0X0X0X0X0X0X0X0X0X0X0X0X0X0X0X9X0X;X^ / G f i.J.l.l.l.8.s.6X0X0X0X0X0X0X0X0X0X0X0X0X0X0X0X0X",
"0X0X0X0X0X0X0X0X0X0X0X0X0X0X0X0X0X0X0X9X0XA.I H g -.I.U.[ X...w } *.;X0X9X0X0X0X0X0X0X0X0X0X0X0X0X0X",
"0X0X0X0X0X0X0X0X0X0X0X0X0X0X0X9X0X0X0X0X0X+X4 B >.r =.Q.*.q 7 r t 6  X0X9X0X0X0X0X0X0X0X0X0X0X0X0X0X",
"0X0X0X0X0X0X0X0X0X0X0X0X0X0X0X0X0X0X0X0X0X}.V 6.*.t j.Q.T.1.P.Q.#Xs.%X0X0X0X0X0X0X0X0X0X0X0X0X0X0X0X",
"0X0X0X0X0X0X0X0X0X0X0X0X0X0X0X0X9X0X0X:XR c 2.:.3.r ;.*.Q.j.j.j.H.;.-X0X9X0X0X0X0X0X0X0X0X0X0X0X0X0X",
"0X0X0X0X0X0X0X0X0X0X0X0X0X0X0X0X0X3XR ; & l x M 3.....X.} e w ' ' ' z.9X0X0X0X0X0X0X0X0X0X0X0X0X0X0X",
"0X0X0X0X0X0X0X0X0X0X0X0X0X0X0X0X0XR x D C < ; 1 [ 9.0.q.] ] q.] w w 6 OX0X9X0X0X0X0X0X0X0X0X0X0X0X0X",
"0X0X0X0X0X0X0X0X0X0X0X0X0X0X0X0X:XV ^./.E.J.,.= = o.q.q.' ] w q ] { q x.0X0X0X0X0X0X9X0X0X0X0X0X0X0X",
"0X0X0X0X0X0X0X0X0X0X0X0X0X0X9X0X%X2.).Q.E.E./.6.> r ' 9.[ 7 ] 9.O.[ [ p -X0X0X0X0X0X0X0X0X0X0X0X0X0X",
"0X0X0X0X0X0X0X0X0X0X0X0X0X0X0X0X^ -.).E.~.~.~.I.%.7.*.t ' q [ r y y 0 :.i.3X7X.X=X:X=X>X0X0X9X0X0X0X",
"0X0X0X0X0X0X0X0X0X0X0X0X0X9X0X@X' =./.E.~.E.~.I.*.P.T.7.8 s 2 F L L f K.T.^ z.L.1.-.Y.C.3X0X0X0X0X0X",
"0X0X0X0X0X0X0X0X0X0X0X0X9X0X2X;.e.| U./.~.~.^.H.7.E.^.Y.r f 3 F ( _ L r ^.h h 4.6.*.6.;.,X0X0X0X0X0X",
"0X0X0X0X0X0X0X0X0X0X0X0X0X0XZ.#.M.$.M P.E.E.~.T.T.E.~.R.;.k.G F ) _ ( p I.=.W B B =.P.I..X0X0X0X0X0X",
"0X0X0X0X0X0X0X0X0X0X0X9X0X-X .m.y.y.8 = %.:.H.~.~.~.^.J.k.E.I 5 / [.[.d H.s._ [.~ :.8.>.Z.0X0X0X0X0X",
"0X0X0X0X0X0X0X0X0X0X0X0X0Xd.w.M.m.w.* O X 4.E.E.~.~.E.K.~.R.Y J / XX[.d %.b W `.( Z -.J.F.0X0X0X0X0X",
"0X0X0X0X0X0X0X0X0X0X0X0X-X@.m.r.y.$.* % $ y P./.^.~.E.Q.^.Y.E G W `.L g p s P _ ~ S 1.7.s.8X0X0X0X0X",
"0X0X0X0X0X0X0X0X0X0X0X0Xv.#.m.y.m.@.# % # O o V j.Q.^.Q.(.2.G 5 d u o J.i.5 L ! J i %.f.%X0X0X0X0X0X",
"0X0X0X0X0X0X0X0X0X0X0X8Xh.e.y.y.N.| O % $ % & $ N 4.8.5.>.r i y > . S (.Z 2 3 s H A.2X0X0X0X0X0X0X0X",
"0X0X0X0X0X0X0X0X0X0X0X2X>.u.y.y.m.v O $ % l l l k < 1 1 < = D.D.a + l.C.f n ^ OX4X0X0X9X0X0X0X0X0X0X",
"0X0X0X0X0X0X0X0X0X9X0X X+.m.r.y.t., @ # ; l l z l l l l l l x c - : .X>X<X4X0X0X0X0X0X0X0X0X0X0X0X0X",
"0X0X0X0X0X0X0X0X0X0X9X<.w.y.y.y.$.* # $ j l l l l l l l l l l l & 4 0X0X0X0X0X7X0X0X0X0X0X0X0X0X0X0X",
"0X0X0X0X0X0X0X0X0X0XOX#.N.m.m.m.@.# # % k l l l l l z l l l l z @ n 9X0X0X0X0X0X0X0X0X0X0X0X0X0X0X0X",
"0X0X0X0X0X0X0X0X9X0X{.} &.| +.e. .O % % l l l - k l k k l l l l @ R 0X0X0X0X0X0X0X0X0X0X0X0X0X0X0X0X",
"0X0X0X0X0X0X0X0X0X0X0X5X5X,XOXz.m . # % k l j . - k % z z & ; z O ` 9X0X0X0X0X0X0X0X0X0X0X0X0X0X0X0X",
"0X0X0X0X0X0X0X0X0X0X0X0X0X0X0X0X@X, , b 9 9 > m x 1 X @ * + + -   ].0X9X0X0X0X0X0X0X0X0X0X0X0X0X0X0X",
"0X0X0X0X0X0X0X0X0X0X0X0X0X0X0X>Xm C D p.<.b p D <.b U A.A.oX X'.` ,X0X0X0X0X0X0X0X0X0X0X0X0X0X0X0X0X",
"0X0X0X0X0X0X0X0X0X0X0X0X0X9X0X+Xx B.d.m b C ,.b T f.7X0X0X0X0X0X0X0X0X0X0X0X0X0X0X0X0X0X0X0X0X0X0X0X",
"0X0X0X0X0X0X0X0X0X0X0X0X0X0X0X3Xn D T -XI C T %X9X8X0X9X9X0X9X0X0X0X0X0X0X0X0X0X0X0X0X0X0X0X0X0X0X0X",
"0X0X0X0X0X0X0X0X0X0X0X0X0X0X0X7Xn D f.0XE C a.9X0X0X0X0X0X0X0X0X9X0X0X0X0X0X0X0X0X0X0X0X0X0X0X0X0X0X",
"0X0X0X0X0X0X0X0X0X0X0X0X0X0X0X1Xb d.f.2XU ,.S 3X0X0X0X0X0X0X0X0X0X0X0X0X0X0X0X0X0X0X0X0X0X0X0X0X0X0X",
"0X0X0X0X0X0X0X0X0X0X0X0X0X0X0X>Xa ,.c.3Xb D v.9X0X0X0X0X0X0X0X0X0X0X0X0X0X0X0X0X0X0X0X0X0X0X0X0X0X0X",
"0X0X0X0X0X0X0X0X0X0X0X0X0X0X0X0Xc.n >X0Xc.U >X0X0X0X0X0X0X0X0X0X0X0X0X0X0X0X0X0X0X0X0X0X0X0X0X0X0X0X",
"0X0X0X0X0X0X0X0X0X0X0X0X0X0X0X0X9X3X0X0X0X9X0X0X0X0X0X0X0X0X0X0X0X0X0X0X0X0X0X0X0X0X0X0X0X0X0X0X0X0X",
"0X0X0X0X0X0X0X0X0X0X0X0X0X0X0X0X0X0X0X0X0X0X0X0X0X0X0X0X0X0X0X0X0X0X0X0X0X0X0X0X0X0X0X0X0X0X0X0X0X0X",
"0X0X0X0X0X0X0X0X0X0X0X0X0X0X0X0X0X0X0X0X0X9X0X0X0X0X0X0X0X0X0X0X0X0X0X0X0X0X0X0X0X0X0X0X0X0X0X0X0X0X"
};
