/* XPM */
static char *result[] = {
/* columns rows colors chars-per-pixel */
"64 64 206 2 ",
"   c #2B1A1B",
".  c #331A17",
"X  c #361D1A",
"o  c #3B221D",
"O  c #3C2424",
"+  c #3D282A",
"@  c #352325",
"#  c #3B3234",
"$  c #441E13",
"%  c #531912",
"&  c #55140B",
"*  c #48250F",
"=  c #5E290F",
"-  c #5A270F",
";  c #432114",
":  c #4B2411",
">  c #4F2811",
",  c #4D2D1C",
"<  c #48261B",
"1  c #522512",
"2  c #5B2711",
"3  c #542A13",
"4  c #5C2D14",
"5  c #532C1C",
"6  c #4E311E",
"7  c #53321D",
"8  c #5C341D",
"9  c #5D3015",
"0  c #652C0E",
"q  c #6B2E0E",
"w  c #6C320E",
"e  c #74320E",
"r  c #7B350C",
"t  c #773E0E",
"y  c #632B11",
"u  c #6A2E10",
"i  c #633215",
"p  c #693314",
"a  c #62331A",
"s  c #68391D",
"d  c #753310",
"f  c #753915",
"g  c #452A24",
"h  c #4A2C23",
"j  c #442D28",
"k  c #532F20",
"l  c #4E3229",
"z  c #4C3326",
"x  c #5C3623",
"c  c #533E24",
"v  c #5C3922",
"b  c #51342C",
"n  c #5C3C2D",
"m  c #553625",
"M  c #543933",
"N  c #593F37",
"B  c #4E3733",
"V  c #623D25",
"C  c #643A26",
"Z  c #703F27",
"A  c #5D492A",
"S  c #564226",
"D  c #5B423C",
"F  c #6B422A",
"G  c #64462C",
"H  c #714C2C",
"J  c #78452A",
"K  c #69512F",
"L  c #6B4837",
"P  c #724B35",
"I  c #774B34",
"U  c #6A5732",
"Y  c #665330",
"T  c #7B5235",
"R  c #7E5B35",
"E  c #7D513A",
"W  c #765838",
"Q  c #746037",
"!  c #42434A",
"~  c #5D4742",
"^  c #575458",
"/  c #634E49",
"(  c #6D4E42",
")  c #6E5549",
"_  c #735748",
"`  c #6D5955",
"'  c #685A58",
"]  c #7D6558",
"[  c #6A6364",
"{  c #7B6B68",
"}  c #706260",
"|  c #6F7279",
" . c #746F72",
".. c #80370C",
"X. c #84390C",
"o. c #8B3C0D",
"O. c #913F0A",
"+. c #8B3D11",
"@. c #833B12",
"#. c #983313",
"$. c #97410A",
"%. c #9B430C",
"&. c #974615",
"*. c #8F4C11",
"=. c #A3460C",
"-. c #A7480C",
";. c #AC4A0D",
":. c #B34D0D",
">. c #B84F0E",
",. c #BB500F",
"<. c #B25A14",
"1. c #86573A",
"2. c #8F502B",
"3. c #B95E26",
"4. c #87663C",
"5. c #956E3E",
"6. c #C3540F",
"7. c #C35715",
"8. c #C77413",
"9. c #CD6A2A",
"0. c #8B5C41",
"q. c #905E42",
"w. c #896248",
"e. c #956446",
"r. c #936548",
"t. c #99694A",
"y. c #8C7141",
"u. c #937143",
"i. c #977C48",
"p. c #9E7843",
"a. c #846A5A",
"s. c #9D7C5E",
"d. c #A06C4C",
"f. c #A5774A",
"g. c #A77655",
"h. c #B47C57",
"j. c #856E63",
"k. c #847876",
"l. c #9E7960",
"z. c #D27D44",
"x. c #DB8C09",
"c. c #B28A4E",
"v. c #AF805E",
"b. c #B88C53",
"n. c #988679",
"m. c #A98666",
"M. c #B68964",
"N. c #B99674",
"B. c #B3926F",
"V. c #C1865F",
"C. c #CB8655",
"Z. c #CC9555",
"A. c #FCBF41",
"S. c #C78C64",
"D. c #CA9168",
"F. c #D7986C",
"G. c #C09A74",
"H. c #D8AF62",
"J. c #DBA67A",
"K. c #C6A67F",
"L. c #EDAA79",
"P. c #E3A576",
"I. c #EFB17F",
"U. c #FAC251",
"Y. c #7A7F85",
"T. c #80858B",
"R. c #918A89",
"E. c #8E9195",
"W. c #A59487",
"Q. c #989DA4",
"!. c #A3A1A4",
"~. c #AFB6BC",
"^. c #AFB3B6",
"/. c #B3B6BA",
"(. c #A3AAB0",
"). c #CEAD85",
"_. c #DBAC82",
"`. c #D7B58A",
"'. c #D6B994",
"]. c #F0B583",
"[. c #F3BB89",
"{. c #E7B081",
"}. c #C4B8AB",
"|. c #F5C18F",
" X c #F9CD9B",
".X c #F7C694",
"XX c #FBD29F",
"oX c #EBC698",
"OX c #CDC3B5",
"+X c #FFDFAC",
"@X c #FAD5A3",
"#X c #B6BDC3",
"$X c #BBBDC1",
"%X c #B9C1C6",
"&X c #BDC5CA",
"*X c #C2C9CE",
"=X c #C4CCD2",
"-X c #C8CED3",
";X c #C5D0D5",
":X c #CBD3D7",
">X c #D7DBDE",
",X c #FFE9C6",
"<X c #DCDFE2",
"1X c #EBEDEE",
"2X c #F0F1F3",
"3X c None",
/* pixels */
"3X3X3X3X3X3X3X3X3X3X3X3X3X3X3X3X3X3X3X3X3X3X3X3X3X3X3X3X3X3X3X3X3X3X3X3X3X3X3X3X3X3X3X3X3X3X3X3X3X3X3X3X3X3X3X3X3X3X3X3X3X3X3X3X",
"3X3X3X3X3X3X3X3X3X3X3X3X3X3X3X3X3X3X3X3X3X3X3X3X3X3X3X3X3X3X3X3X3X3X3X3X3X3X3X3X3X3X3X3X3X3X3X3X3X3X3X3X3X3X3X3X3X3X3X3X3X3X3X3X",
"3X3X3X3X3X3X3X3X3X3X3X3X3X3X3X3X3X3X3X3X3X3X3X3X3X3X3X3X3X3X3X3X3X3X3X3X3X3X3X3X3X3X3X3X3X3X3X3X3X3X3X3X3X3X3X3X3X3X3X3X3X3X3X3X",
"3X3X3X3X3X3X3X3X3X3X3X3X3X3X3X3X3X3X3X3X3X3X3X3X3X3X3X3X3X3X3X3X3X3X3X3X3X3X3X3X3X3X3X3X3X3X3XM b 3X3X3X3X3X3X3X3X3X3X3X3X3X3X3X",
"3X3X3X3X3X3X3X3X3X3X3X3X3X3X3X3X3X3X3X3X3X3X3X3X3X3X3X3X3X3X3X3X3X3X3X3X3X3X3X3X3X3X3X3X3X3X3Xk.R.3X3X3X3X3X3X3X3X3X3X3X3X3X3X3X",
"3X3X3X3X3X3X3X3X3X3X3X3X3X3X3X3X3X3X3X3X3X3X3X3X3X3X3X3X3X3X3X3X3X3X3X3X3X3X3X3X3X3X3X3X3X3XD #X$X/ 3X3X3X3X3X3X3X3X3X3X3X3X3X3X",
"3X3X3X3X3X3X3X3X3X3X3X3X3X3X3X3X3X3X3X3X3X3X3X3X3X3X3X3X3X3X3X3X3X3X3X3X3X3X3X3X3X3X3X3X3X3Xk.~.#X` 3X3X3X3X3X3X3X3X3X3X3X3X3X3X",
"3X3X3X3X3X3X3X3X3X3X3X3X3X3X3X3X3X3X3X3X3X3X3X3X3X3X3X3X3X3X3X3X3X3X3X3X3X3X3X3X3X3X3X3X3XD $X(.~.!.3X3X3X3X3X3X3X3X3X3X3X3X3X3X",
"3X3X3X3X3X3X3X3X3X3X3X3X3X3X3X3X3X3X3X3X3X3X3X3X3X3X3X3X3X3X3X3X3X3X3X3X3X3X3X3X3X3X3X3X3XR.%XQ.#X%XD 3X3X3X3X3X3X3X3X3X3X3X3X3X",
"3X3X3X3X3X3X3X3X3X3X3X3X3X3X3X3X3X3X3X3X3X3X3X3X3X3X3X3X3X3X3X3X3X3X3X3X3X3X3X3X3X3X3X3XN %X-XT.~.&Xk.3X3X3X3X3X3X3X3X3X3X3X3X3X",
"3X3X3X3X3X3X3X3X3X3X3X3X3X3X3X3X3X3X3X3X3X3X3X3X3X3X3X3X3X3X3X3X3X3X3X3X3X3X3X3X3X3X3X3XR.-X&XT.~.&X^.M 3X3X3X3X3X3X3X3X3X3X3X3X",
"3X3X3X3X3X3X3X3X3X3X3X3X3X3X3X3X3X3X3X3X3X3X3X3X3X3X3X3X3X3X3X3X3X3X3X3X3X3X3X3X3X3X3X~ %X2X~.T.~.&X#X` 3X3X3X3X3X3X3X3X3X3X3X3X",
"3X3X3X3X3X3X3X3X3X3X3X3X3X3X3X3X3X3X3X3X3X3X3X3X3X3X3X3X3X3X3X3X3X3X3X3X3X3X3X3X3X3X3X` #X1X~.| ~.&X%X{ 3X3X3X3X3X3X3X3X3X3X3X3X",
"3X3X3X3X3X3X3X3X3X3X3X3X3X3X3X3X3X3X3X3X3X3X3X3X3X3X3X3X3X3X3X3X3X3X3X3X3X3X3X3X3X3X3X` #X1X~.Y.~.&X%X~ 3X3X3X3X3X3X3X3X3X3X3X3X",
"3X3X3X3X3X3X3X3X3X3X3X3X3X3X3X3X3X3X3X3X3X3X3X3X3X3X3X3X3X3X3X3X3X3X3X3X3X3X3X3X3X3X3X` #X1X~.T.~.=X&X` 3X3X3X3X3X3X3X3X3X3X3X3X",
"3X3X3X3X3X3X3X3X3X3X3X3X3X3X3X3X3X3X3X3X3X3X3X3X3X3X3X3X3X3X3X3X3X3X3X3X3X3X3X3X3X3X3X` %X1X~.T.~.;X#X` 3X3X3X3X3X3X3X3X3X3X3X3X",
"3X3X3X3X3X3X3X3X3X3X3X3X3X3X3X3X3X3X3X3X3X3X3X3X3X3X3X3X3X3X3X3X3X3X3X3X3X3X3X3X3X3X3X` #X1X~.Y.~.;X%Xl 3X3X3X3X3X3X3X3X3X3X3X3X",
"3X3X3X3X3X3X3X3X3X3X3X3X3X3X3X3X3X3X3X3X3X3X3X3X3X3X3X3X3X3X3X3X3X3X3X3X3X3X3X3X3X3X3X` =X1X~.| ~.;X&XD 3X3X3X3X3X3X3X3X3X3X3X3X",
"3X3X3X3X3X3X3X3X3X3X3X3X3X3X3X3X3X3X3X3X3X3X3X3X3X3X3X3X3X3X3X3X3X3X3X3X3X3X3X3X3X3X3X` =X1X~.Y.~.;X#XD 3X3X3X3X3X3X3X3X3X3X3X3X",
"3X3X3X3X3X3X3X3X3X3X3X3X3X3X3X3X3X3X3X3X3X3X3X3X3X3X3X3X3X3X2 u u 3Xu d d u y 3X3X3X3X` -X<X~.T.~.=X!.3X3X3X3X3X3X3X3X3X3X3X3X3X",
"3X3X3X3X3X3X3X3X3X3X3X3X3X3X3X3X3X3X3X3X3X3X3X3X3X3X3X3X% X.6.6.6.+.6.6.6.6.,.u 3X3X3X` -X>X#XT.#X=X!.3X3X3X3X3X3X3X3X3X3X3X3X3X",
"3X3X3X3X3X3X3X3X3X3X3X3X3X3X3X3X3X3X3X3X3X3X3X3X3X3X2 $.o.6.6.6.6.6.6.6.6.6.6.O.3X3X3X` -X>X~.T.%X&XR.3X3X3X3X3X3X3X3X3X3X3X3X3X",
"3X3X3X3X3X3X3X3X3X3X3X3X3X3X3X3X3X3X3X3X3X3X3X3X3X2 :.$.;.,.=.6.6.6.3.J z.z.3.d 3X3X3X` -X>XQ.T.%X&X{ 3X3X3X3X3X3X3X3X3X3X3X3X3X",
"3X3X3X3X3X3X3X3X3X3X3X3X3X3X3X3X3X3X3X3X3X3X3X3X3Xq -.$.%.o...;.&.Z q.1.1.1.D.F.1.3X3X` -X>XQ.Q.&X%X{ 3X3X3X3X3X3X3X3X3X3X3X3X3X",
"3X3X3X3X3X3X3X3X3X3X3X3X3X3X3X3X3X3X3X3X3X3X3X3Xy ,.;.$.O.%.o.0 5 _.G.M.{.t.e.P F.3X3X` -X>XQ.Q.&X%X/ 3X3X3X3X3X3X3X3X3X3X3X3X3X",
"3X3X3X3X3X3X3X3X3X3X3X3X3X3X3X3X3X3X3X3X3X3X3X3Xe 6.=.$.o.O.O.O.J E :.=.J _.).C 3X3X3X` -X>XQ.Q.*X&X` 3X3X3X3X3X3X3X3X3X3X3X3X3X",
"3X3X3X3X3X3X3X3X3X3X3X3X3X3X3X3X3X3X3X3X3X3X3X3Xe 6.;.u 1.T @.O.r.J 6.o.6.1.+.1 3X3X3X` -X>XQ.Q.=X%X` 3X3X3X3X3X3X3X3X3X3X3X3X3X",
"3X3X3X3X3X3X3X3X3X3X3X3X3X3X3X3X3X3X3X3X3X3X3X3Xu ,.&.g.P.h.M.J I 1.r 0 q E y 3X3X3X3X` -X>XT.Q.;X&XM 3X3X3X3X3X3X3X3X3X3X3X3X3X",
"3X3X3X3X3X3X3X3X3X3X3X3X3X3X3X3X3X3X3X3X3X3X3X2 X.6.e M.L.1.h.].L.L.g.{ ( t.3X3X3X3X3X/ -X>XT.~.;X&XD 3X3X3X3X3X3X3X3X3X3X3X3X3X",
"3X3X3X3X3X3X3X3X3X3X3X3X3X3X3X3X3X3X3X3X3X3X3X: =.>.X.g.P.F.S.L.L.L.`.l.).`.a 3X3X3X3Xb -X>XT.~.:X#XD 3X3X3X3X3X3X3X3X3X3X3X3X3X",
"3X3X3X3X3X3X3X3X3X3X3X3X3X3X3X3X3X3X3X3X3X3X3X- %.>.$.p 1.t.F.L.].@X+X+X+X+X'.P 3X3X3XM -X>XT.~.;X!.3X3X3X3X3X3X3X3X3X3X3X3X3X3X",
"3X3X3X3X3X3X3X3X3X3X3X3X3X3X3X3X3X3X3X3X3X; $ - ..-.X.r q C.L.L.[.J.D.+X+X+X,XB.3X3X3XD =X>XY.~.;X!.3X3X3X3X3X3X3X3X3X3X3X3X3X3X",
"3X3X3X3X3X3X3X3X3X3X3X3X3X3X3X3X3X3X3X7 3 > > ..X.%.=.q =.6.Z.L.L.1.].XXJ.@X+Xh.3X3X3XN -X>X| #X=XR.3X3X3X3X3X3X3X3X3X3X3X3X3X3X",
"3X3X3X3X3X3X3X3X3X3X3X3X3X3X3X3X3X3XG 9 > 9 * ..$.;.;.q 6.6.6.6.9.2.e.h.t.Z I _ 3X3X3X` >X>XT.#X&X{ 3X3X3X3X3X3X3X3X3X3X3X3X3X3X",
"3X3X3X3X3X3X3X3X3X3X3X3X3X3X3X3X3XH 8 3 i > 9 r $.;.6.:.6.6.%.>.>.>.O.&.=.2.%.u 3X3X3X{ >X:XT.#X&X{ 3X3X3X3X3X3X3X3X3X3X3X3X3X3X",
"3X3X3X3X3X3X3X3X3X3X3X3X3X3X3X3XV 5.3 3 3 4 * r $.=.6.:.>.6.w :.=.6.>.6.-.l._.y 3X3X3X{ >X*XT.&X&XD 3X3X3X3X3X3X3X3X3X3X3X3X3X3X",
"3X3X3X3X3X3X3X3X3X3X3X3X3X3X3X3X4.3 * p 4 9 > 0 $.$.:.;.6.6.w -.;.-.;.>.f D.g.1 3X3X3X{ >X$X[ &X&X` 3X3X3X3X3X3X3X3X3X3X3X3X3X3X",
"3X3X3X3X3X3X3X3X3X3X3X3X3X3X3X3Xf.> 3 9 * 9 > 0 $.$.=.%.,.;.0 $.O.O.>.r a J @...3X3X3X{ ^.~ [ / #X/ 3X3X3X3X3X3X3X3X3X3X3X3X3X3X",
"3X3X3X3X3X3X3X3X3X3X3X3X3X3X3X8 H > i p = 4 * p 0 O.$.O.=.$.= $.%.O.d u O.-.-.:.y 3X3X{ ] T.^ ^ !.l 3X3X3X3X3X3X3X3X3X3X3X3X3X3X",
"3X3X3X3X3X3X3X3X3X3X3X3X3X3X3XH 8 4 > 4 3 > i > q 0 O.e $.$.0 t O.q ..O.:.6.6.6.d 3Xp s ` T.^ / n.9 3X3X3X3X3X3X3X3X3X3X3X3X3X3X",
"3X3X3X3X3X3X3X3X3X3X3X3X3X3X3XT R * > * * > 3 * * = 0 r e $.*.- = O.%.:.6.6.6.6.%.~ ' G 9 F 8 9 4 9 n ~ 3Xg 3X3X3X3X3X3X3X3X3X3X",
"3X3X3X3X3X3X3X3X3X3X3X3X3X3X3XR 4.. 1.F F v G v x 8 y X.= y *.*.e %.6.6.6.6.6.6.+.B D n a y 4 9 ` T.T.[ N ' M 3X3X3X3X3X3X3X3X3X",
"3X3X3X3X3X3X3X3X3X3X3X3X3X3X3Xc.R . V.I.+X+X+X+X+X+XS.X.w x.U.U.x.@.6.6.6.6.6.6.u 3X3Xp 9 m k 9 p h j h g j g 3X3X3X3X3X3X3X3X3X",
"3X3X3X3X3X3X3X3X3X3X3X3X3X3X3XZ.R   V.[.+X+X+X+X+X+XM.X.w 8.8.<.p $.6.6.:.6.6.>.: 3Xv '.h M L w.w.3X3X3X3X3X3X3X3X3X3X3X3X3X3X3X",
"3X3X3X3X3X3X3X3X3X3X3X3X3X3XV H.R . V.[.+X+X+X+X@X|.h.X.O.u t &.>.e :.6.=.>.:.- E B.J B.n +X+X+X+Xm.3X3X3X3X3X3X3X3X3X3X3X3X3X3X",
"3X3X3X3X3X3X3X3X3X3X3X3X3X3XH H.u.. V.].+X+X+XoXE 8 5 5 a a 1.2.&.e :.6.=.>.e %.t.+Xt._ P ).).+X@Xr.3X3X3X3X3X3X3X3X3X3X3X3X3X3X",
"3X3X3X3X3X3X3X3X3X3X3X3X3X3XR H.u.. S.L.+X+X@XL a % a 2 3 C L.F.r.C 2.>.%.:.% O.r.+X|.T ).).'.+X+Xr.3X3X3X3X3X3X3X3X3X3X3X3X3X3X",
"3X3X3X3X3X3X3X3X3X3X3X3X3X3X1.H.u.  M.L.+X+XW 4 $ 9 1 2 a M.L.h.1.S.e.O.O.=.C t.s.+X+Xv +X+X+X+X@Xr.3X3X3X3X3X3X3X3X3X3X3X3X3X3X",
"3X3X3X3X3X3X3X3X3X3X3X3X3X3XG H.u.. d.L.XX+XC 1 1 4 : a C @X+X.X.X[.V.+.O.%.1 +X+X+X@XG _ l.oX+X X0.3X3X3X3X3X3X3X3X3X3X3X3X3X3X",
"3X3X3X3X3X3X3X3X3X3X3X3X3X3XH H.u.  w.L.].M.: : p $ y < J.+X+X+X+XXXg.o.%.O.y +X+X+Xm.l.).+X+X+X X1.3X3X3X3X3X3X3X3X3X3X3X3X3X3X",
"3X3X3X3X3X3X3X3X3X3X3X3X3X3XV H.u.  z t.L.C 4 3 9 1 i 5 XX+X+X+X+XP.P e ....: {..X@Xm.N.k L a.g.J.P 3X3X~.3X3X3X3X3X3X3X3X3X3X3X",
"3X3X3X3X3X3X3X3X3X3X3X3X3X3XF H.u.    o T , 1 a 1 y 3 I +X+X+X+X+X|.g.< 5 $ < L.L.L.{.n j j j g F 3X3X3X3X3X3X3X3X3X3X3X3X3X3X3X",
"3X3X3X3X3X3X3X3X3X3X3X3X3X3Xv H.u.        k < i $ s 3 t.+X+X+X+X XD.I + + @ X 0.d.D.L.l ! ! ! # 3X3X3X3X3X3X3X3X3X3X3X3X3X3X3X3X",
"3X3X3X3X3X3X3X3X3X3X3X3X3X3Xv H.u.        + + 6 , y 3 d.L.I.[. X[.g.j   + @ . 3X3Xk I < % % $ $ 3X3X3X3X3X3X3X3X3X3X3X3X3X3X3X3X",
"3X3X3X3X3X3X3X3X3X3X3X3X3X3X8 H.5.        @ + + + g k P D.J.L.P.g.n +   @ @ . 3X3X3X3X3X% #.& 3X3X3X3X3X3X3X3X3X3X3X3X3X3X3X3X3X",
"3X3X3X3X3X3X3X3X3X3X3X3X3X3Xv H.f..   .     O z l O   . X l k n g O     O   X 3X3X3X3X3X3X3X3X3X3X3X3X3X3X3X3X3X3X3X3X3X3X3X3X3X",
"3X3X3X3X3X3X3X3X3X3X3X3X3X3XH H.H.H.H.H.H.b.5.7 A Y K Y A 6 S c z z z o 3X3X3X3X3X3X3X3X3X3X3X3X3X3X3X3X3X3X3X3X3X3X3X3X3X3X3X3X",
"3X3X3X3X3X3X3X3X3X3X3X3X3X3X7 c.b.H.Z.c.4.5.4.6 U 5.i.i.R m y.i.i.i.R 3X3X3X3X3X3X3X3X3X3X3X3X3X3X3X3X3X3X3X3X3X3X3X3X3X3X3X3X3X",
"3X3X3X3X3X3X3X3X3X3X3X3X3X3X3X3X3Xv G 3X3X3X3X< S c A S 6 6 S Y U c 7 3X3X3X3X3X3X3X3X3X3X3X3X3X3X3X3X3X3X3X3X3X3X3X3X3X3X3X3X3X",
"3X3X3X3X3X3X3X3X3X3X3X3X3X3X3X3X3X3X3X3X3X3X3X6 U i.y.K m 7 U i.y.v 5 3X3X3X3X3X3X3X3X3X3X3X3X3X3X3X3X3X3X3X3X3X3X3X3X3X3X3X3X3X",
"3X3X3X3X3X3X3X3X3X3X3X3X3X3X3X3X3X3X3X3X3X3X3X6 Q i.4.i.c.Q Y W 4.i.i.R A 3X3X3X3X3X3X3X3X3X3X3X3X3X3X3X3X3X3X3X3X3X3X3X3X3X3X3X",
"3X3X3X3X3X3X3X3X3X3X3X3X3X3X3X3X3XOXOXOXOXOXW., S A Y Y A S S 6 U U A c k OXOXOXOXOXOXOXOX3X3X3X3X3X3X3X3X3X3X3X3X3X3X3X3X3X3X3X",
"3X3X3X3X3X3X3X3X3X3X3X3X3X3X3XOXOXOXOXOXOXOX}.W.j.j.j.j.] ) _ _ ] ] j.j.n.OXOXOXOXOXOXOXOXOXOX3X3X3X3X3X3X3X3X3X3X3X3X3X3X3X3X3X",
"3X3X3X3X3X3X3X3X3X3X3X3X3X3X3X3X3X3X3XOXOXOXOXOXOXOXOXOXOXOXOXOXOXOXOXOXOXOXOXOXOXOXOX3X3X3X3X3X3X3X3X3X3X3X3X3X3X3X3X3X3X3X3X3X"
};
