/* XPM */
static char *_9b683928d944e0ba26e008f92d527c93gNvrG1m1kec6uWz[] = {
/* columns rows colors chars-per-pixel */
"50 50 218 2 ",
"   c #000000",
".  c #0B0505",
"X  c #050C0C",
"o  c #0D0C0C",
"O  c #190606",
"+  c #150A0A",
"@  c #1C0D0D",
"#  c #020B17",
"$  c #061717",
"%  c #0A1414",
"&  c #0C1D1C",
"*  c #131313",
"=  c #1F1818",
"-  c #260707",
";  c #380809",
":  c #251313",
">  c #2C1415",
",  c #281919",
"<  c #341417",
"1  c #33191A",
"2  c #3A1D1D",
"3  c #08142D",
"4  c #3D1F22",
"5  c #0D2122",
"6  c #152525",
"7  c #142B2B",
"8  c #0A3131",
"9  c #173737",
"0  c #1C3535",
"q  c #1B3C3C",
"w  c #232424",
"e  c #292D2D",
"r  c #382727",
"t  c #233535",
"y  c #233C3C",
"u  c #2A3C3C",
"i  c #343434",
"p  c #303D3D",
"a  c #3B3A3A",
"s  c #4C0101",
"d  c #5C160D",
"f  c #490D11",
"g  c #431C1D",
"h  c #491E1E",
"j  c #5A1617",
"k  c #6F0C08",
"l  c #68141B",
"z  c #751A18",
"x  c #6E2512",
"c  c #4F1D22",
"v  c #452222",
"b  c #4B2525",
"n  c #4E2929",
"m  c #502626",
"M  c #502629",
"N  c #542A2A",
"B  c #5B2E2E",
"V  c #573635",
"C  c #633232",
"Z  c #6C3636",
"A  c #6F3838",
"S  c #743A3A",
"D  c #7B3D3D",
"F  c #32463E",
"G  c #001B54",
"H  c #152848",
"J  c #17315F",
"K  c #012169",
"L  c #0E3173",
"P  c #463E41",
"I  c #1D4343",
"U  c #184A4A",
"Y  c #1D5555",
"T  c #234242",
"R  c #22454A",
"E  c #244B4B",
"W  c #284D4D",
"Q  c #2C4F55",
"!  c #255352",
"~  c #2B5555",
"^  c #2B5A59",
"/  c #2B5C5C",
"(  c #365A5A",
")  c #31615A",
"_  c #18437E",
"`  c #2A516B",
"'  c #196568",
"]  c #2B6565",
"[  c #296C6C",
"{  c #326363",
"}  c #3A6766",
"|  c #356B6B",
" . c #36706E",
".. c #267676",
"X. c #337575",
"o. c #3A7373",
"O. c #3E7A71",
"+. c #347C7C",
"@. c #3D7B7B",
"#. c #464646",
"$. c #4B4A4A",
"%. c #465558",
"&. c #525353",
"*. c #634848",
"=. c #7F4040",
"-. c #655759",
";. c #775B5B",
":. c #465F60",
">. c #436465",
",. c #596161",
"<. c #437777",
"1. c #497875",
"2. c #417E7C",
"3. c #567878",
"4. c #636368",
"5. c #6C6C6C",
"6. c #787777",
"7. c #7B7B7B",
"8. c #830405",
"9. c #9A0714",
"0. c #881719",
"q. c #AC0C0C",
"w. c #8C2F0F",
"e. c #992A17",
"r. c #BC2D1A",
"t. c #8D1821",
"y. c #A71D28",
"u. c #BA192A",
"i. c #BC1F30",
"p. c #992831",
"a. c #AE2528",
"s. c #BC222F",
"d. c #BC2937",
"f. c #C11A2A",
"g. c #CA292F",
"h. c #DC2935",
"j. c #E92A25",
"k. c #845126",
"l. c #AD3F4B",
"z. c #E53C4D",
"x. c #824141",
"c. c #8A4545",
"v. c #8E4848",
"b. c #944E45",
"n. c #944B4B",
"m. c #9A4E4E",
"M. c #995455",
"N. c #A6404A",
"B. c #A35353",
"V. c #C24255",
"C. c #D15664",
"Z. c #ED5868",
"A. c #CD7070",
"S. c #E46271",
"D. c #022D89",
"F. c #073087",
"G. c #073EB0",
"H. c #1A4994",
"J. c #224B87",
"K. c #244997",
"L. c #337E80",
"P. c #1248B8",
"I. c #1553CE",
"U. c #1A59D9",
"Y. c #1857E1",
"T. c #1E64F2",
"R. c #2F6EF0",
"E. c #3D8484",
"W. c #3D8A8A",
"Q. c #438484",
"!. c #498282",
"~. c #458B8B",
"^. c #498C8C",
"/. c #5B8484",
"(. c #459292",
"). c #4B9494",
"_. c #4B9897",
"`. c #4E9A9A",
"'. c #519C96",
"]. c #519D9D",
"[. c #638B8B",
"{. c #659898",
"}. c #4CA4A4",
"|. c #55A4A4",
" X c #58A7A7",
".X c #56A9A9",
"XX c #5AABAB",
"oX c #5BB1B1",
"OX c #60B7B9",
"+X c #848585",
"@X c #8A8A8A",
"#X c #869E9E",
"$X c #949494",
"%X c #999B9B",
"&X c #B7948D",
"*X c #8CA9A9",
"=X c #9AABAB",
"-X c #9FBCBC",
";X c #A8A8A8",
":X c #BAA7A0",
">X c #A3B4B4",
",X c #B4B8B8",
"<X c #C9898C",
"1X c #CEC4BC",
"2X c #BBC7C7",
"3X c #C4C3C3",
"4X c #C2CBCB",
"5X c #CBCDCE",
"6X c #D3D5CB",
"7X c #D4D4D4",
"8X c #DDDDDD",
"9X c #E3E9D6",
"0X c #D9E0E0",
"qX c #E2E2E2",
"wX c #ECECEC",
"eX c #EEF1F1",
"rX c #F7F5F4",
"tX c #FEFDFD",
/* pixels */
"                                            . @           .   . .                                 * ",
"                                            2 : . 2 B A D x.x.x.D S Z M , .                       * ",
"                                    . > 1 2 A C x.c.c.x.x.x.x.x.x.x.x.c.v.x.N +                   * ",
"                                      @ N D A D S S S D D x.c.x.x.x.x.S S S x.1                   * ",
"                                    . v S D S A S S D D D D x.x.=.D D S D S A C M                 * ",
"                                    . v n.B.=.D n.v.x.v.c.c.c.c.c.c.v.n.n.n.m.v.C > .             * ",
"                                    . N A D A b D n.C n.B.v.A B.m.B.B.m.m.n.k.v.x.C 1             * ",
"                                    1 A C B N b r C n C x.C b D S S x.Z C A C Z A C v             * ",
"                                  . N Z B B B 2 O 2 N b N n n B m N C N N C N C S Z : .           * ",
"                                  . C C C M B , 6 T < = 2 g = g N 2 c N 1 n n B Z C N >           * ",
"                                  + C B C b v 2 @.].} 0 <.7 @.( > y p ; 0 r : v C B               * ",
"                                  + C B N 2 6 w { .X|.~. X|. XoXo.Q.XX~ <.o.E u v C @             * ",
"                                  + C N N h F ] ~ '.]. XXXoXXX XXX.X|. X].].|.o.g : +             * ",
"                                  . B N n > y / Q ~.`.oXXXXXXXXX.X|.|.|.|.o.Q.<.2                 * ",
"                                  . v N n + t ).o.o.2.Q.|.XXXX X|.|.|.XXXX].{ ( ,                 * ",
"                                      : v W W [ 3.2X8X>X!.|. X|.|.`.|.XX].`.Q.<.+                 * ",
"                                7  .2.t < } @.} eXtXtXtX4X2.|.|.!.o.|.`.{.3.~.~.0 6               * ",
"                              7 `.~.~.{ O o. .#XtXtXtXqXwX[.).|.].).(.{.rXwX/.{ / ).%             * ",
"                              o.~. .o.{ . o.] #XtXwXqXqXrX/.(.].`.].W.-XtXrX=XY W _.Q             * ",
"                            . o.Q.o.@.o.% @.@.>.wXtXeXtX4X| _.).).`.W.*XtXrX*X/ W ).^             * ",
"                              ] ^. .o.@.q | )./ 1.2X0X>X} Q.).^.).^.(.!.4X2X} @.R ).y             * ",
"                              % @.~.@.2.{ { @.^.{ ^ { / Q.).(.(.).).).~. .| Q.Q.~ o.X             * ",
"                                % R ~ 9 ] @.o.@.!.Q.Q.(.!.>.:.%.%.( 2.^.^.^.@.T & X               * ",
"                                      - < u / ] ! @.~.4.;.&X1X3X:X&X-.>.L./ &                     * ",
"                                      f z k l c r u P p.-.9XtXrX6X6XM.1 $                         * ",
"                                    ; 0.a.e.y.u.i.f.0.d - N.<XM.g.p.X                             * ",
"                                    l t.u.r.z i.s.h.e.g.w.V.z.V.Z.l.                              * ",
"                                  - f g P g j s.i.h.e.l d n S.Z.C.1                               * ",
"                                  - < ] }.( 9.d.s.j.k.'     @ r *                                 * ",
"                                X T 1  .^.<.V j t.x F E.! %   U $   7 R                           * ",
"                                % o.X.| ^.`.}.~.Q U U { L.E.|  .! X./ I I                         * ",
"                                & | <.| ) <.).|.].!._.} E W.L.+.W.W./ q X                         * ",
"                                H K.L H J ` ` o.Q.`..X@.& I [ +.X.+./ ! I                         * ",
"                                # D.U.R.K.P.Y.K.o.).].|.@.T 5 ~ / / Y X 7                         * ",
"                                  K I.T.R.K.F.K 9 O._.).q o.7   .   q 7                           * ",
"                                  K G.U.T.R.3 3 F.` o.| W 7 q       $ X                           * ",
"                                  # K D.H._ 7 G G.J.^ 8 |                                         * ",
"                                    # ! 1.'.{ 3 G J I 5 7                                         * ",
"                              X . 7 O.)..XOXW   % U ..5                                           * ",
"                          y V 4 4X3.W.XXQ.T X   5 ' ..q                                           * ",
"                        ; A.h.q.b.4X1.E         8 ' ..%                                           * ",
"                      %XS 8.8.0.k ;.5.          U ..Y                                             * ",
"                      &.4X&.,X7X0X$X+           I Y 9                                             * ",
"                        5.4X+XwXwXtX;X    .   ,.=X%X6.                                            * ",
"                          $X;X%XtXtXtXe       n z s V 6.7.$.                                      * ",
"                            ,X$X,XtXtX#.    F a.k *.,X8X8X8X6.                                    * ",
"                            * 3X@X7XwXw     *.9.m >X2X,X5X7X7X#.                                  * ",
"                          .   a 8X%X6.  .   ; s $.{.M.@X@X@X$X&.                                  * ",
"                                &.+X      . 5.[.+X+X@X@X@X$X;X5.                                  * ",
"* * * * * * * * * * * * * * * * o * * * * * i V i i i i i i i w * * * * * * * * * * * * * * * * * w "
};
