/* XPM */
static char *_bef9a696b0c4758a89b691cdf0efcf1QPb7orr5PnXTsbWK[] = {
/* columns rows colors chars-per-pixel */
"64 64 238 2 ",
"   c #000000",
".  c #0B0303",
"X  c #02050A",
"o  c #050B0B",
"O  c #0B0B0B",
"+  c #190606",
"@  c #150A0A",
"#  c #1C0D0D",
"$  c #010612",
"%  c #041515",
"&  c #0B1414",
"*  c #0D1B1B",
"=  c #171717",
"-  c #2B0705",
";  c #230E0E",
":  c #2C0C0F",
">  c #241212",
",  c #2A1515",
"<  c #231B1C",
"1  c #291A1B",
"2  c #341314",
"3  c #3B161A",
"4  c #351B1B",
"5  c #3B1D1D",
"6  c #2D251A",
"7  c #0A1624",
"8  c #061333",
"9  c #221E20",
"0  c #0B2626",
"q  c #122424",
"w  c #122A2A",
"e  c #1B2A2A",
"r  c #133332",
"t  c #1A3333",
"y  c #1D3A3A",
"u  c #252525",
"i  c #232C2C",
"p  c #2C292A",
"a  c #3A2C25",
"s  c #213737",
"d  c #393637",
"f  c #4A0304",
"g  c #560000",
"h  c #460D11",
"j  c #560C12",
"k  c #441D1D",
"l  c #4F1B1B",
"z  c #561712",
"x  c #6B0401",
"c  c #690E16",
"v  c #661418",
"b  c #77171A",
"n  c #42361E",
"m  c #531D23",
"M  c #641F27",
"N  c #452222",
"B  c #4C2525",
"V  c #4A272B",
"C  c #4F2828",
"Z  c #542425",
"A  c #532A2A",
"S  c #5B2E2E",
"D  c #513737",
"F  c #6D2C30",
"G  c #643232",
"H  c #6B3535",
"J  c #6E3838",
"K  c #703737",
"L  c #733A3A",
"P  c #7B3D3D",
"I  c #1F403A",
"U  c #011B4E",
"Y  c #001B58",
"T  c #0E2C5A",
"R  c #1C3755",
"E  c #203D48",
"W  c #062565",
"Q  c #002574",
"!  c #0F307A",
"~  c #4E3F43",
"^  c #084A4A",
"/  c #1E4242",
"(  c #1A4949",
")  c #165757",
"_  c #224444",
"`  c #234B4B",
"'  c #28494B",
"]  c #22504F",
"[  c #254852",
"{  c #245353",
"}  c #2A5454",
"|  c #2C5B5B",
" . c #285C5A",
".. c #325C5B",
"X. c #2D5A60",
"o. c #1B6363",
"O. c #256767",
"+. c #2C6363",
"@. c #326363",
"#. c #3C6364",
"$. c #366A64",
"%. c #346C6B",
"&. c #396D6E",
"*. c #3B736E",
"=. c #2D7373",
"-. c #287979",
";. c #337474",
":. c #3B7474",
">. c #367877",
",. c #347A7A",
"<. c #3D7B7B",
"1. c #4B4949",
"2. c #565255",
"3. c #535758",
"4. c #715052",
"5. c #6C5960",
"6. c #426B6B",
"7. c #5D6C6C",
"8. c #487374",
"9. c #417E7E",
"0. c #557A7A",
"q. c #626D6D",
"w. c #737373",
"e. c #7C7C7C",
"r. c #820000",
"t. c #97070D",
"y. c #88161C",
"u. c #87290C",
"i. c #822113",
"p. c #982B15",
"a. c #AD3407",
"s. c #881A26",
"d. c #991B26",
"f. c #A71A27",
"g. c #B5172A",
"h. c #B21D2C",
"j. c #BE1D33",
"k. c #9B222E",
"l. c #833D3E",
"z. c #B4202D",
"x. c #BC212F",
"c. c #B1383E",
"v. c #C90F0E",
"b. c #C3242B",
"n. c #D02E28",
"m. c #D72D2C",
"M. c #C92234",
"N. c #E54317",
"B. c #B13F51",
"V. c #C83849",
"C. c #E43F50",
"Z. c #824141",
"A. c #854343",
"S. c #874444",
"D. c #8B4646",
"F. c #8F4848",
"G. c #94424C",
"H. c #914949",
"J. c #954B4B",
"K. c #9A4E4E",
"L. c #9C4F4F",
"P. c #9E5050",
"I. c #A15252",
"U. c #8E5F64",
"Y. c #A45F61",
"T. c #87716E",
"R. c #957A78",
"E. c #A87A76",
"W. c #E14C5C",
"Q. c #F54D5F",
"!. c #D55866",
"~. c #E35867",
"^. c #F55E70",
"/. c #E86372",
"(. c #40807E",
"). c #173F89",
"_. c #083695",
"`. c #063AA5",
"'. c #1A4393",
"]. c #254B9F",
"[. c #0B43B5",
"{. c #2656B7",
"}. c #1451CE",
"|. c #1757D7",
" X c #2F66D2",
".X c #1F64F0",
"XX c #2063EC",
"oX c #276CF7",
"OX c #3378F8",
"+X c #3B8383",
"@X c #3A8686",
"#X c #438484",
"$X c #468A86",
"%X c #458B8B",
"&X c #498E8E",
"*X c #548687",
"=X c #459292",
"-X c #4B9393",
";X c #4E999A",
":X c #4A9B9C",
">X c #519D9D",
",X c #678787",
"<X c #799191",
"1X c #55A3A3",
"2X c #55A8A8",
"3X c #5AABAC",
"4X c #79A0A0",
"5X c #848484",
"6X c #8A8585",
"7X c #8B8B8B",
"8X c #98908C",
"9X c #879A9B",
"0X c #979898",
"qX c #BB9A99",
"wX c #BBA29D",
"eX c #8BA3A3",
"rX c #99A3A3",
"tX c #A3A3A3",
"yX c #A8ABAB",
"uX c #B9B8B7",
"iX c #C7ABAB",
"pX c #C5C4B3",
"aX c #BBC6C6",
"sX c #C5C5C5",
"dX c #CCCCCC",
"fX c #C9D4D4",
"gX c #D3D6D6",
"hX c #DBDCDC",
"jX c #EEE9D9",
"kX c #D7E1E1",
"lX c #E4E4E4",
"zX c #E4E9EA",
"xX c #EBEBEB",
"cX c #F1EFE8",
"vX c #F3F4E3",
"bX c #F4F4F4",
"nX c #FCFBF6",
"mX c #FDFDFD",
/* pixels */
"                                                                                                                                ",
"                                                  >                                                                             ",
"                                                5 5       @ # , 4 3 4 4 > @ .                                                   ",
"                                      . . .   @ L 5 N H P A.F.F.J.H.J.H.F.D.Z.L G 5 .                                           ",
"                                      @ N G G L L A.H.A.P P P P P P P P P 4.l.S.F.H.A.G 4                                       ",
"                                          3 H K H L J K L P P Z.Z.Z.A.A.Z.Z.l.l.P L P A.D.P #                                   ",
"                                      4 J L P K J H L L L P P P Z.Z.A.A.S.A.l.l.P P P L L J #                                   ",
"                                      , A J.I.J.L A.A.P P P L P P P l.P Z.P P P P P L L L J S N ,                               ",
"                                      . A A.F.P.G G K.I.F.F.J.F.S.D.S.S.A.A.A.A.Z.Z.A.A.A.P H C #                               ",
"                                      A H S G K S B S J.4.G P.P.I.H.P I.K.P.P.K.P.P.P.P.P.P.K.P C #                             ",
"                                    , H G G H S C B B S F N H H.J.H C H.P.H.P.L.J.J.J.H.A.A.Z.P J A ,                           ",
"                                    B G G S G G A N # B A Z C S G C B G P A L P P S H H H H J A.L B >                           ",
"                                  . S G H S C S B ; . = Z B N A A C A A S C C G G C A H S G G G S S ,                           ",
"                                  @ G G G S C A C e y } i 2 = 2 A 4 > Z A C A A A B A S A A G P P N                             ",
"                                  > H S G A B 5 Z p =X&X&X* s @.1 >  .< B 5 # k S 3 ; A C A S G H J S ;                         ",
"                                  , K S A A k & 9 # #X1X1X%X' 3X(.} 3X%Xu @ ;.s 2 6 / 4 , k S H G > .                           ",
"                                  , H S A A k t <.y :.1X>X1X>X1X3X3X1X3X;X} 1X1X .i 1XI 0 n N S H @                             ",
"                                  , G A C A k e %.} X.>X>X1X2X3X3X3X3X1X2X3X1X1X2X;X>X&X(.].1 Z A N                             ",
"                                  > S C A 4 : i @.s | #X$X3X3X3X3X3X3X3X2X1X1X1X>X1X>X-X>X=Xp N . ,                             ",
"                                  # C A A 1 O i =X#X&X%X$X:X3X3X3X3X3X3X3X2X1X1X1X1X>X..(.=Xa 2                                 ",
"                                      ; A < ` * &X<.@.0.,X8.<.1X3X3X3X1X1X1X1X1X3X3X1X(.@.$.d #                                 ",
"                              X y ' / = l < #X@.} 6.sXmXmXbXeX<.3X3X1X1X1X2X1X1X3X3X3X>X} @.a .                                 ",
"                            & 9.;X-X;X] 2 p -X<.} fXmXmXmXcXmX9X<.3X1X1X&X*.1X>X2X=X$X;X&X-Xu                                   ",
"                          o 9.-X<.:.9.} + _ ;X .,XmXmXmXmXlXxXgX*.>X>X1X$X*.>X>X=X<X4X$.=X-Xq t                                 ",
"                          t -X+X:.:.<.| . } -X` eXmXnXbXxXlXlXzX8.-X>X;X>X1X&X&X4XnXmXrX:.#Xy 1X_                               ",
"                          _ -X<.:.<.<.$.  | -X} ,XmXbXlXlXlXbXgX$.-X>X;X;X;X;X%XfXmXbXlX0.%.' %X=X*                             ",
"                          s =X<.:.:.:.:.& @.;X#.| aXmXbXzXnXmX<X%.:X;X-X-X;X;X&XkXnXlXxX*X| _ #X-X_                             ",
"                          & #X$X:.:.:.:.t +.-X#X| &.aXbXmXzXeXX.$X-X-X-X-X-X-X#XfXmXcXhX&.&.E #X-X'                             ",
"                            y %X%X<.:.9.} @.:.=X9.} { 6.0...} 9.=X&X&X&X&X&X-X$X*XhXzX0.%.(.y #X&Xt                             ",
"                              w @.<.$.@.:.&.@.9.=X&X:.@.+.&.%X&X=X-X-X=X&X-X%X&X<.#.#.+.%X9.y =X&.                              ",
"                                  o X o ` <.9.:.&.&.%X&X&X&X%X<.6.#.#.6.<.@X&X%X%X#X9.#X%X&.` *.&                               ",
"                                    . j h e ( +.&.} &.$X+X8.2.4.T.R.T.U.4.~ #.<.%X%X&X:.| * * X                                 ",
"                                    : z b y.v 2 u E  .+.5.V.E.vXvXmXnXnXjXwX4.3.:.:.| w X                                       ",
"                                  . j b i.b f.h.d.y.v l l m D 8XvXmXjXuXpXjXR.Z q &                                             ",
"                                  h y.d.b.u.b z.j.b.M.m.u.b - s.Y.qXU.k.c.m                                                     ",
"                                  v s.f.j.N.b h.h.b.M.n.p.m.u.B.C.V.V.W.Q.M   .                                                 ",
"                                + j c j c y.z h.x.b.M.m.i.g.a.l.^.W.W.~.!.,                                                     ",
"                                - ; i +.>.u j z.x.M.M.N.n d - @ G.~./.!.Z                                                       ",
"                              & i h %.-X2X~ t.d.h.h.b.a.| =.      1 4 .                                                         ",
"                              w ..< @.#X&X6.< i F d.n 6 O.;.t       * r                                                         ",
"                              _ <.%...#X=X1X-X%.< V +X| ,.+X=X;.q y >.0     o o                                                 ",
"                              s :.#X&.9.&X-X1X3X<.{ :.` { =.@X=X+X,.+./ ` ( ;.;.q                                               ",
"                            X R R [ E } *.#X-X:X>X>X&.:.;.`  .+X,.,.+X@X:X+X* q %.&                                             ",
"                              ! _.{.].).'.R @.$X%X&X1X3X#Xy 0 O.=.>.,.>.+X;.` 0 o o                                             ",
"                              Y _.|.oX).[.}.).X.<.&X>X1X&Xo   o ] ;.=.;.;.O.| ;.%                                               ",
"                            $ Q [.|.oX{.W `.`.W @.%X-X1X3X&.&   o E | +.;.`   ` /                                               ",
"                            $ Q `.|.oX X$ X X 8 } 9.%X:X-X$X#Xy     o o * +.w o *                                               ",
"                            X W `.}.XXOX7     Y U ..%X-X$X& _ :.          ] w                                                   ",
"                              W _.}..XOXR X   U `.T *.` <.} * $.          w X                                                   ",
"                            X Y _.T W '.8     8 U R &.7 ` %.X *                                                                 ",
"                              $ 7 | 8.t o       . ..( 0 @.t                                                                     ",
"                                } ;X3X&.        0 ^ O.O.*                                                                       ",
"                              7 #X;X3X9.      o ) O.-.O.                                                                        ",
"                              _ =X;X1Xy       0 o.O.-.0                                                                         ",
"                            o &.;X2X:.      X ^ O.-.)                                                                           ",
"                            % ;.>.%Xy       X ^ ^ o.r                                                                           ",
"                          p e.<X<Xq.o     O 3.7.7.7.=     X                                                                     ",
"                          9XhXyXuX6X      d sX0X0X8Xp                                                                           ",
"                          z x r.f d 7XtX5XE - x f : 3.6Xe.1.                                                                    ",
"                        5.v.v.r.R.xXmXmXmXbXT.g S tXgXhXhXgX0X&                                                                 ",
"                      & iXv.r.5.xXlXxXnXbXmXnX3.<XsXuXdXdXdXhXT.                                                                ",
"                      < c.v.M aXlXcXbXbXmXmXmXsXw.sXuXsXdXdXdXsXd                                                               ",
"                      . x g 1.0X7X0XtXtXyXyXyX7X1.e.R.<X5X5X5X8Xd                                                               ",
"                      2.tXtXtXtXtXtXtXtXtXyXuX0Xd w.5Xe.<X7X0X7X1.                                                              "
};
