/* XPM */
static char *result[] = {
/* columns rows colors chars-per-pixel */
"50 50 101 2 ",
"   c #0F170E",
".  c #0E1D0F",
"X  c #111E0F",
"o  c #151D11",
"O  c #1C1E14",
"+  c #211F19",
"@  c #152212",
"#  c #1C2415",
"$  c #142A13",
"%  c #1D2916",
"&  c #1D2518",
"*  c #1D2B19",
"=  c #1D3117",
"-  c #1E3119",
";  c #212516",
":  c #222A16",
">  c #242519",
",  c #2A251C",
"<  c #242B1B",
"1  c #2A2C1D",
"2  c #312B1F",
"3  c #243117",
"4  c #293117",
"5  c #25331C",
"6  c #2B331D",
"7  c #26391C",
"8  c #2C3B1D",
"9  c #31351D",
"0  c #333B1E",
"q  c #393E1F",
"w  c #2C2721",
"e  c #2D2D21",
"r  c #322D22",
"t  c #392F26",
"y  c #392F28",
"u  c #273220",
"i  c #2D3422",
"p  c #2D3A21",
"a  c #2F3628",
"s  c #333424",
"d  c #393426",
"f  c #343B24",
"g  c #3A3C24",
"h  c #353628",
"j  c #3B352A",
"k  c #363B29",
"l  c #3C3C2A",
"z  c #3D3A31",
"x  c #413E26",
"c  c #42352D",
"v  c #48372F",
"b  c #423B2D",
"n  c #493E2F",
"m  c #463731",
"M  c #483731",
"N  c #443B32",
"B  c #4B3D32",
"V  c #2B401F",
"C  c #37411F",
"Z  c #3B421F",
"A  c #2D4225",
"S  c #354223",
"D  c #3C4323",
"F  c #364C23",
"G  c #3E4923",
"H  c #364229",
"J  c #3D422B",
"K  c #3D492B",
"L  c #3E4130",
"P  c #414525",
"I  c #444A25",
"U  c #484E27",
"Y  c #43422C",
"T  c #49452D",
"R  c #454B2A",
"E  c #4A4D2A",
"W  c #50492E",
"Q  c #455226",
"!  c #4A5227",
"~  c #465128",
"^  c #4D532A",
"/  c #51542B",
"(  c #555A2C",
")  c #5A5D2E",
"_  c #444332",
"`  c #4A4333",
"'  c #454A33",
"]  c #4A4935",
"[  c #4C463A",
"{  c #54433B",
"}  c #544E3B",
"|  c #545630",
" . c #5B5D31",
".. c #54513A",
"X. c #5C602E",
"o. c #5E6231",
"O. c #626632",
"+. c #666934",
"@. c #696C37",
"#. c #6E6F38",
"$. c #73743A",
/* pixels */
"u < u a a a h k h h k k h k j j b l g j l N N e i H H H K K K _ l l l g b b b j g b b i 9 d c v M M ",
"> & > > > < < & , , < , , < < , < < < 5 6 u r < u p i p a a h s d s s i 9 t 2 , 4 e 6 0 D q g d c c ",
"* < & O O O ; > 1 4 < 1 6 4 2 4 4 < < 4 5 1 < : < < 5 < 1 4 i 6 1 : 6 0 6 g q Z P R / ( ( ) ( D 9 1 ",
"i k 1 o # : 9 g q P I P P q P P f D S 0 S f S g h H D g l J E / R 6 Q ( U ) ) ( O.+./ @.( D / ) / 9 ",
"i s s ; # : P 4 * 1 R I D p G D p f 9 f k g f j b g c b b b T T Y < S Z V ( G G P G D ( ^ 3 i p ^ G ",
"s s s 1 9 : P 1 < u R G f l G g s d d j l j d x j b c c b b b ` b 6 S D V / C 0 V Z Z ~ ( C U R / I ",
"j j f c g s g 1 1 * E D f D H g g l j d d j g c d N B N b b b ` T 1 A S 8 Q 8 7 8 D 0 ^ ( A E E ~ ' ",
"d h g j l g 2 r 1 u ^ S H p 9 x j j j l g b j j j M v M M b b B T 6 f D f Z 6 s g l p Q ^ g I I R K ",
"j j k d j g , w s u E U H J c c b d l b l b c l b B v B B B n { n 9 r b g 0 g x T n g P P Y I I K K ",
"r t 9 s 9 s r , r u S g j b j j d k s d j g b c c v v v v v D B c g r c x d j b b c l 9 8 x n n K K ",
", w , , 1 , w , > < & & r , 1 > ; ; > , < < > < 4 , + , ; , : & g ! x < , 1 1 < > , ; ; < r 2 2 i u ",
"j l j j r e k k k s 6 6 6 6 i 6 6 9 q g 9 6 9 9 9 4 q 9 9 P P / @.O.O.D 4 D ^ E I P P 9 9 9 9 4 9 f ",
"N N N z i k _ J l l k z l _ N l l R D R E S P P G Q ( O.E U +.X.Q P U U 3 I +. .! I ! o.o.o.) U I ) ",
"k j j k s h N L L N N N N N N N N j k J U u 6 7 C D ^  .D 0 / C 3 5 7 Z : C P 8 6 3 6 P ) ) / P r Y ",
"k j j j r j N L _ N N N m m B N c c l K G 5 0 3 D A U ) D q Z 0 8 p 8 A * C G 1 6 s g g ) W / I d l ",
"j j h z y h _ z ` N N M N M B m c N b Y H 3 6 7 Z 6 I / 0 q 6 9 k h 8 3 % 0 I < 6 s , ; ( E W P s j ",
"j k s h r h N Y [ N N M B M M j B N N B b 1 1 : 0 6 P I 2 f s s k f 6 * # 8 S < h s & ; W j d g k j ",
"s j h j r j [ b N N N M M N j m B N N B c r 1 % 6 r l P c j j g l l J p # 5 6 i g u e , q d c d s k ",
"s e d t w e r , , 1 , 2 r 2 r 2 r w r r r < ; # 1 r 1 e e 1 u s 6 s s 1 # * : 1 < , 1 w , 9 r 2 s h ",
"< < < < > , ; : , : # ; & ; & % # # & & % # # # $ & # * % # # # % # # & # # # # # # # # ; ; > ; : , ",
"s d k P E (  .D f D 0 9 : 6 U R U ^ P C Z C 0 f 7 4 I D 7 8 D 0 6 : < 0 0 g g I ~ U I U < : 0 g g D ",
"s h d l g  .$.H H U ^ 0 < S o.O./ ~ ( Z E Y ` ` g G ( U 8 8 X.Z 7 : s Y T I I / I ! ! / q f P P P N ",
"s r 1 s s | O.g k E E f u K / X.~ f P g l B B B ` B / / s s X.P < ; j N _ l J J l G D D b l l H l z ",
"1 6 D U 2 / O.f s ^ U f < p ( +./ b I b Y n T n ` B W ^ J s / D 6 + y [ T c J D J I G H z l l H H N ",
"s g / I e T O.f s ^ D H < i ^ O./ x n W B B B n B T I T x T P D 6 + , b c ` J l J P G H k l l J J N ",
"s H E Y e P ( f s I l l 1 k T / U n n B n W B n n T ! P l g D I 6 6 r d _ z L l l G D k z l z l l l ",
"k g J G s k H g l D H j , s ] T x W n n B n n n c P I k f f f P 7 5 2 B ] N ` N Y D j l N J z l P _ ",
"1 1 1 1 1 1 e 6 s 4 s 6 d j s d t t c 2 c 9 s 1 4 1 < < : * = = * s t r d d j j j j h s s s s s s j ",
"s 1 e 1 1 1 > & & ; + + < k 6 , , , 1 ; , > ; : : : > : : : 9 6 < 9 s 6 1 , w w 1 > > > w < < w > 1 ",
"b l Y l J Y < ; > : ; ; ; , : > : > : 1 : : : 4 1 9 6 9 f I ( / P g J l J Y _ T l e l _ b L z J l k ",
"j s s s s j 2 : : 1 6 < , , , 6 9 , ; 4 0 1 4 , 9 q P g g E ^ b T _ ] Y Y T ` ] _ , l _ l J k k l k ",
"s j s s f d f 9 < g / r s w r x x 2 2 n / k g 1 9 P } ] _ T P ` _ N _ _ J b [ ] _ s k l l j k k h k ",
"d k s s s k 6 > 2 g / r s j r g l d r T ( 9 f * 6 T ..] _ Y _ ` _ b _ Y J Y ` _ z s e s g k h p k a ",
"s s k k f k 1 : r g g s s r t d r s r x / e e 5 6 _ } ] ` ' _ _ _ J _ L b Y _ ` N e s f 6 p p i i k ",
"k s s f p u 5 # 1 s s i : < e e r r r g E 1 s p 6 _ } _ _ L L _ L L L J _ Y _ ] _ s s g ^ g a a u p ",
"8 k f f 8 p 8 < < s 9 , ; < e h e 6 s i q 7 p 7 6 J ] _ _ L ' _ ' L _ _ l ] ] ..' w e k ( G 1 i h a ",
"# 5 6 5 5 5 p 5 # < # ; > & & 1 i 1 1 # - 3 3 8 q s l l k l j l J L Y k s l _ _ l w 1 4 q f > ; > * ",
"@ % : : : < G I < ; # # > # o # O O # @ @ @ # q / 6 % # # % ; : & # : : > < < < 1 & # # 4 6 O & O & ",
"F U G G / ) ) Q Q Q ! X.) / ^ D & D o.Q U U D #.O.Q ) / G Z Z q : # < : < < : # % % : : 4 ; o O o < ",
"S V A A I U S p S V H I Z / ( f # i o.G ^ I Q #.I 5 o.~ V Z Z I 1 # < # # * : < < : < # @ # o X   @ ",
"V A A k R P J J H H H g f P P 6 ; , g 0 U 8 E O.f 5 P 7 * < 4 0 < : * # & # & 1 9 0 C 6 % 3 * @   $ ",
"V A S L P J L _ Y H K S H R P g , 1 k g ^ g E O.f i Z f 1 u 6 6 : & < & * & * p U f I D * < 5 < . $ ",
"S S H L H D Y z J L ' S J T g d , d g l / k R ( f s j s u i u k : & < # & & & 5 I 9 Z 0 u u 5 u & $ ",
"K L ' ' ' _ [ [ ] ' ] ' _ _ P k , t x x ] j T I t c j d s u e a : & < $ * # & 1 D 1 9 s i a p a & $ ",
"k k l H H J Y _ Y Y _ Y N b Y j r t r 2 d 2 g g r 2 2 , > > > u O ; < > & > < e 9 2 1 1 e e e a < $ ",
"* * & < : : < 1 < < 6 1 1 , w < ; ; + ; + > > , > > ; & # @ O # O O O + O # + ; : < : < > > & > $ . ",
"$ 8 S U U ! ^ U U ^ H 4 R U G D U G ~ P D 9 6 8 5 5 a 6 u u u u < & 1 6 5 5 5 6 6 6 p u p 5 5 5 - $ ",
"$ * * D U ^ S f f I 3 p ^ R O.o.X.G ( f f f p i u u u u i u w u 1 > 1 6 5 5 p 5 5 8 5 7 7 - - * - $ ",
"X o X : 0 0 O # # < * 6 H f ^ ( G * 0 < u u u < u u * u u * > * * > e * * 5 5 5 7 p u p 8 3 - * $ $ ",
"@ @ @ X 4 6 O # # * & & u p 0 Z 8 - 5 5 5 < < * * u * < * < < * * > u * $ - 5 5 5 p k g p 5 - - $ $ "
};
