/* XPM */
static char *result[] = {
/* columns rows colors chars-per-pixel */
"64 64 82 1 ",
"  c #3E444E",
". c #3F4651",
"X c #41464E",
"o c #45494E",
"O c #4A4C4E",
"+ c #414652",
"@ c #444953",
"# c #4A4C54",
"$ c #474D59",
"% c #4A4E5B",
"& c #4D5157",
"* c #4D525C",
"= c #515456",
"- c #52555C",
"; c #55595E",
": c #595C5E",
"> c #4F5560",
", c #4E5866",
"< c #4E5968",
"1 c #515662",
"2 c #545B65",
"3 c #595E64",
"4 c #545D6A",
"5 c #595E6A",
"6 c #555F71",
"7 c #5A5F71",
"8 c #5C6165",
"9 c #56606D",
"0 c #5C626C",
"q c #566172",
"w c #5E6571",
"e c #5F6872",
"r c #616466",
"t c #656867",
"y c #61666C",
"u c #64696D",
"i c #696B6C",
"p c #616673",
"a c #626A74",
"s c #696F75",
"d c #646579",
"f c #646C7A",
"g c #696E7B",
"h c #6C7076",
"j c #67707C",
"k c #6A717C",
"l c #70767E",
"z c #76797F",
"x c #656D80",
"c c #686F81",
"v c #667183",
"b c #6B7382",
"n c #6F7886",
"m c #6A7588",
"M c #707683",
"N c #737A84",
"B c #797C85",
"V c #74778C",
"C c #757D8B",
"Z c #7A7E8B",
"A c #777F90",
"S c #797E94",
"D c #77808D",
"F c #7A818D",
"G c #778092",
"H c #7B8494",
"J c #7E8895",
"K c #7E839A",
"L c #7F889A",
"P c #81848F",
"I c #818694",
"U c #828897",
"Y c #81869B",
"T c #828B9C",
"R c #848DA3",
"E c #8790A2",
"W c #8991A4",
"Q c #8A95AA",
"! c #8E98AB",
"~ c #929DB0",
"^ c #96A0B7",
"/ c #97A1B8",
/* pixels */
"0800t000e0w0uyuy0aeyyautuuweBDu@wBl800w00y00y000w000r000550482aN",
"r00000yt0eewwueueeeeeyutfaee0ae@a0000wtww0y0y0w00y00q58050484994",
"000yy0wtywywyeyeuaepaaaeaayeysu@w0y0t00wwwyyp0eww0q00w0000099238",
"00rrw0w0yuwutueaeeaeyupua0ayaau@uw0ttye0e0e0ew0ewe0ee00080890092",
"a008wyyyuyeeyaaeeauauiuaayueaaa@eu0w0weweeee0eeee0e0e0qw00009929",
"0ua000yytyueuuuaaauauuuaauyaafu@u0eeuwweeywypyeepy00p0000q700889",
"0wwaiuwyeeueautaaaaausuuuauuJNa@eJn0wewtaeaaaeewyaeeep0y7wq009eH",
"eeeuaffffffjfhkvmvjjsfassaajbve@0mkeaasjeqfjaaadfaacffcxxaxeeden",
"694449984944q99944409469299444,@<<<94426<42<4<44<24464254<444<4<",
"<29844<44v42<192423244324842442489220bbj4428hw4q@2444442<4254425",
"DGHH!HlDTHTFTwfleeueeeuhBBDDGDBDFDDDFTQT^kCFJJNU.bfadaaafagCCBCZ",
"988229823;8Fz8*0J*>2,1228:802450898920ee42221nFk@jNG53r855009000",
"988292:;:22ah8&9e;-1:22288882y08890809028242200a.awf505589000009",
"999929882222k9#9*;11228300we0080000000488482221k@e00500r80000000",
"08289288:82;w8&9>>22225450000000000000000828222k@a000500000w0w00",
"0ay9888:222298&2;1;1242488000ye00wew004ww0q2252N@2000000p000we0y",
"y0ea0884228108*8*1:222890000wu0usuaakfkf0004520C@;000r0p000yye0u",
"00008r98928k98&9j2222988r000wyuayyuye0y000835yhy&2aa7t0wa0eee0ey",
"t000098222yDw8&rD,2244880eyqeeeaapdappww00055lNr$-lBy0pepeaewwpw",
"wqqqqwqww0r099&0922249qw44449wwqppwwwwwwqwq75075%1y0wq444<<6epww",
"       o O@  oO  XO.+ + . #O.O  +X#.oXXoXo o.. #  oX  X...@XX@X@",
"ccvkkkgvkjvvEUELTFITPGYTEkkcgcN*VccgbsscZKSHKHKZZR!YRHETYKbvccvg",
"090rry0e0wywalLQTke0eaMkyr1;gye#as2riaair00yyyeyypaNHFZhp000113b",
">1;222322989885585028333313:Dua#3Vg;;--2:1332234533455322111123V",
"1222228982e25003r045443242221;u@5**-;-223223585858508982222212-*",
"11:229400a00000000000458322221a@4*-*;;232234555r0808982055421111",
"222428200000000rt0090508822311p@3*12212:585505000r0008808582212;",
"222254058y000eyw00000045523231p@52;-1153245r0000000y000074232224",
"1253050w00ww0eeww000y0570222:2e@5-2:1233450500wepew0w0000995222;",
"2225550qe0wepwpppaa0w0r50033Fsy@5Bi422550550u00aypeeyy009059828J",
"825qwqfeauapppppaeeeyppye743sya@5d413240yewwdaaeefaaaaee0eweeq4j",
",2,4949449,,2<<<;2,1<<,,,12,120@<664<6<6<64443<<64<4<49<4<4<49<4",
"2524442444442$*43532222225232242g744332443464452X034224444324245",
"UGGaaafCKAHGTyfHVZsUHKYZZKVsNHWlgSSbVDZADCZAAAST@kksadaappaasHPY",
"00000000073DN5d0K=-2505r23:383yjga5222522;*-*NZN@sMZ223:44330575",
"wwee00w05wabM010f*-;1:2332rr7545455233330y21*5ky#Nsk;22223355555",
"00e000e0ww0rb0&2*-;1;223340500r05055550y22;--**e@n02:23338580500",
"ueypeuyy0wy0d5$3--12122334508y000q00535222,;>1*p@e11225442550800",
"paeyy0wpww70p5-2-=-213555700000yy0000052<211>>>5@02,225020050000",
"ew0yppy0pwp0w5-2--222258550p0eeupyw0550582211110@>12444200990000",
"paeeeaeepe4yp3%0511222555w7pyyfgffeww05452221250@-2e224585py080e",
"uaaaaauppyaCp0*aC1252555w7pptpapaffwqwpe00q11NG0@1nV22459900e0e0",
"eweeeuywwww035*6324555r77wwwpwpwww744444444457q9@2405q65064qqwww",
"++.@@@@@@.++.@ #+#@+@$##%@+@+.@.+@@#++++@@#$$..@X+...$$+.+@.+...",
"KTRTTTWUTRRYEUPERRTRYRRRRWUTITM@RRRKRRERRKKLRGLSRRRYKRRT////RRER",
"skCJRTETZZkddptpuyp035pMIBr13sa@bpaaffafkFRQCaadpfgggffffkkMkkfp",
"00w000ej7pw00r07083254212111Bgp#uFNeappwaeeweapeaaaaaaaaaaaaaagG",
"000eee00pyy0ry8050553322212142p$dpueeyppeuapaeeapwaaaaaafafaafaa",
"uwe0wy0ea0ewyq0p989424203:1111w@eeepepayeaaeeeaaaaeadaaaafafaaaa",
"eeupp0ypep0y0005008588y02221;1a$eeeypeyapwaeeaaaaaefaaaffaaffads",
"yyeepapayytye00p0005ea32221:1,w$eepee0yapaeaaaaeaedaaaaaeafaafsa",
"weyeapduaepw0e000007825222121>p%ewpppaaffadedaaaaaaffdfdfaaafasa",
"aeeefaaaaaeupweqe04002342224Nfw@0ZbpppweajfadeaeaaeefefafejfaafH",
"fafjfjaaaaeeaafjxw0050422422jcw@ecfppdppaeaaawefdfffvxaefjeeffkn",
"<4q2<<<4<<<<<qq4<4<2,,<<<4<<<44@<9947606664<64<4<6qqq<<q99q94<<9",
"&$$*%$$&*&*$%.%$%%%**$$#$$$%$$$%$&$$%-@$$%%>$$>$@%$$%%>$%$**$&$$",
"fffssffssfjvTysssfggTTCEREHHHHHfjcjjvfcfsjjjfcvn$cfdfCgSLEVTNffN",
"805303844422C5p0G000paffwwwwwawwewppyaadadaeaMNw%c2222559jgp9940",
"000008033822n5ppM0w00e0wewwweeppeaapppppppaeecNp%744245595000500",
"000808880454f5&070w0e0e0ewwawwppeeepapaaadddaaap%122555508850007",
"0900020u982900&00ywee0yp00ppeeapaueapapadaaauaap@54455550055050w",
"0w000f008902w4=0007000eywfp0edeapapaaffaapaaaday#1455555000w0w7w",
"09w000000884w8*e0yww0a0ppeafpwaedaaefjafeasaaadp#115547550w700pw",
"0www00009005q0&f2w0e0eweweppaeeeaapakadpfaeafapd&15440505w5wep7p"
};
