/* XPM */
static char *_f7c3b50ae0e4499f4ae8eaad816a5e4laGQBekeRiMBjBgY[] = {
/* columns rows colors chars-per-pixel */
"50 50 170 2 ",
"   c #0E0D0B",
".  c #110F0E",
"X  c #12110E",
"o  c #0E0F10",
"O  c #151513",
"+  c #191715",
"@  c #171816",
"#  c #1A1916",
"$  c #151618",
"%  c #17191A",
"&  c #1D1C1B",
"*  c #201F1D",
"=  c #1E211F",
"-  c #22211E",
";  c #1D1E20",
":  c #1F2124",
">  c #242423",
",  c #292724",
"<  c #272826",
"1  c #2A2926",
"2  c #24262A",
"3  c #26292B",
"4  c #2C2C2B",
"5  c #312F2B",
"6  c #2F312E",
"7  c #32312D",
"8  c #38342E",
"9  c #212830",
"0  c #2C2E31",
"q  c #2E3133",
"w  c #2E343A",
"e  c #343433",
"r  c #393733",
"t  c #363836",
"y  c #3A3936",
"u  c #343639",
"i  c #35393D",
"p  c #3C3C3B",
"a  c #433D35",
"s  c #413F3A",
"d  c #3E403F",
"f  c #43413D",
"g  c #49453F",
"h  c #363B42",
"j  c #3A3E42",
"k  c #3D4144",
"l  c #3D434A",
"z  c #3F4750",
"x  c #444443",
"c  c #494743",
"v  c #474947",
"b  c #4C4A45",
"n  c #43464A",
"m  c #45494B",
"M  c #4B4C4B",
"N  c #514D46",
"B  c #514E4A",
"V  c #565047",
"C  c #54524D",
"Z  c #5A554D",
"A  c #444B52",
"S  c #4B4E52",
"D  c #424C5A",
"F  c #4E5153",
"G  c #4D545C",
"H  c #545453",
"J  c #5A5752",
"K  c #565857",
"L  c #5B5954",
"P  c #53565A",
"I  c #56595C",
"U  c #5C5C5B",
"Y  c #615D55",
"T  c #615F5A",
"R  c #5E605E",
"E  c #666056",
"W  c #64625C",
"Q  c #6A655D",
"!  c #6B695D",
"~  c #465261",
"^  c #4C5663",
"/  c #535B62",
"(  c #5A5D62",
")  c #505E72",
"_  c #5E6164",
"`  c #56606D",
"'  c #5B636C",
"]  c #556373",
"[  c #5C6672",
"{  c #5F6973",
"}  c #54667C",
"|  c #5B697A",
" . c #646563",
".. c #696762",
"X. c #676867",
"o. c #6C6A64",
"O. c #636669",
"+. c #65696C",
"@. c #6B6C6B",
"#. c #716D66",
"$. c #716E6A",
"%. c #6E706F",
"&. c #73726D",
"*. c #7A756D",
"=. c #7C786D",
"-. c #646B73",
";. c #6A6E72",
":. c #636E7B",
">. c #6D7174",
",. c #67717B",
"<. c #6C737B",
"1. c #737473",
"2. c #7A7571",
"3. c #777976",
"4. c #7C7A75",
"5. c #72767A",
"6. c #75797C",
"7. c #7B7C7C",
"8. c #817D75",
"9. c #817E7A",
"0. c #7E807F",
"q. c #84827C",
"w. c #566D87",
"e. c #5D728E",
"r. c #626F80",
"t. c #6A7583",
"y. c #61748F",
"u. c #6C7A8C",
"i. c #747B83",
"p. c #7A7E82",
"a. c #747F8D",
"s. c #627894",
"d. c #7D8184",
"f. c #76808D",
"g. c #7D848C",
"h. c #768494",
"j. c #7C8691",
"k. c #7C8894",
"l. c #7C8898",
"z. c #838483",
"x. c #8A8781",
"c. c #868886",
"v. c #8D8A82",
"b. c #82868A",
"n. c #85898B",
"m. c #8C8D8A",
"M. c #928D85",
"N. c #928E89",
"B. c #8E908E",
"V. c #94928D",
"C. c #848B92",
"Z. c #898E92",
"A. c #818D9E",
"S. c #8C9195",
"D. c #87919B",
"F. c #8D939A",
"G. c #949593",
"H. c #959798",
"J. c #9B9D9C",
"K. c #A19D98",
"L. c #A5A39B",
"P. c #ABA59B",
"I. c #8C96A3",
"U. c #929AA2",
"Y. c #94A3B6",
"T. c #A6A8A7",
"R. c #B2ADA3",
"E. c #B4B6B4",
"W. c #BCBBB6",
"Q. c #9AADC4",
/* pixels */
"8.N.N.K.q.e & r M.P.#.T c a 4.q.8.T T c r p e - b J L M c B J 7 B 2.Q @.Z r & c M 0 4 4 u y 1 + H 2.",
"q.4.8.q.v.f # N E J b N s s Q #.#.8.*.*.8.*.T r  .M y e p e d 0  .&.U  ...x 3 H r q 7 e s u , 2 &...",
"T L Y ..J 4 & b Z C N N n Z L B Y Y T Q $. .s : p e e 7 5 5 7 : s J T  .W B * 7 u r 7 q e p , 3  .U ",
", , 1 e > & X - 5 a b g e e Z N N c c N N c 0 , 5 5 e r 4 0 3 $ 7 B  ...W S + : 0 4 0 0 u q ; $ r x ",
"X O X X * , p 1 X * > * * O , 7 r r 5 , 5 > ; , - , : * 2 9 $ % . 4 s H u 0 > $ 2 : $ $ $ $ & e 3 > ",
"* 8 #.V.P.P.R.K.B , , > g c b 8 , 5 a V Z J Y Y C y a e 5 O + 5 r s M H x M c 1 : + r M c F C _ F 2 ",
", V *.*.8.*.Q #.T 1 5 Z 8.8.4.#.r o.9.8.2.4.*.$.@.Y ..$.y e J J ......X.@.T U H x s &.2.2.@...T O.d ",
"5 g Q ! Y E L Z Z * g 9.q.9.M ..c *.9.*.$.T T *.2.$...K 3 c U B  ._  .O.T X.( L M B O.@. ...( H L y ",
"5 g Y Q Q #.E J f & b W ..&.C 7 p 2.o.W W Y T .. .T J s > c U J (  .K I Y @.@.L c x T @. .X.O.H B < ",
"8 V Y Z J Q W b 5 1 5 g Z ! W c > _ T L L T T L L V b e + e H T Y  .J C X.X.&.I j B @. .T ..+.H u 2 ",
"* g N g g N C r 7 1 - 5 N C M J 1 1 H C f p s s c f x i O 7 f v g M H F O.@.@.W e b ( H C K P x 0 w ",
"* , 8 5 5 r 1 # > # X - * - 5 p 5 + 1 p r 5 e 4 1 e 0 2 & - e p q 7 p j h h h u > i P M k m i ; > 2 ",
"g a - * - X O O - - + + & O + & 1 5 > > : + & , r s 7 > e 7 < e e 4 > ; $ $ # * u x 2 > 0 O . O 2 , ",
"! *.*.N 5 8 &.v.4.Q s - r N L ..$.$.@.T f + s $.%.$.o...$.&...@.o.M e T M J T ..5.*.@.F p s ( T ( x ",
"Z Y 8.E > C 9.4.9.q.&.e 5 N J Q L U T B c 1 C T J I T @.1.1...@.+./ c 2.X.1.>.( ,.3.S. .4 6.b.p.d.p.",
"E ! E E > f &.*.1.@.1.M 1 g b b f B C B M y M M M J  .@.X.@. .O.+.( u  .5.6.p.@.3.g.b.K 3 t.b.p.p.i.",
"f Z L b # 6 W #.o.Q L s 3 f g b c c C H b u x M v H H U Q  .O.;.:.:.4 K ,.t.t.-.[ k.5.n ; u.f.6.<.>.",
"- 1 , = = @ 4 d x e 3 1 1 - 4 e 4 5 e y 1 # e s e r y p p j j p j l & , S G j h u j 0 2 $ u S P n u ",
"5 - # f C J M 1 b U x.G.V.q.@.C p > , s x b b M M e y L U  .H 2 y e y u h l D h < $ e M S F r k H M ",
"8 - 5 ! ! 4.o.C &.&.V.q.4.1.R C c M  ...*.4.3.*.4.U M $.#.3.' y B ( r.w.} e.w.~ u 4 i.j.b.p.( i.6.6.",
"5 1 - Z C Z b f K L C J R W  .U k c J Z Q #.&.$...@.x W W  .F > p / y.s.s.s.w.~ u : u.h.<.I S  .' _ ",
"- - - f V L M , M L H U W @._ v e # p B L Q #.&.o.x p ..@. .i > u A ] } w.) ~ j < > G ,.;.L e I _ _ ",
"+ = X + # - =   < t t r t e 4 < x e > < < 4 e e < O < p M u > ; q 4 4 > : : ; ; : + & > < 2 ; j n k ",
"V g r f 1 7 L  . .v e > > - b q.K.N.1.4. .c e + c 4.&.H v e p 4 r 7 $ x i u ( :.[ A A u m P P G k q ",
"E R W B 4 R B.L.W.W.W.m.n p 4.V.V.0.0.q.m.v.L 5 m.G.c.z.b. .v 7.6.f.[ I x g.A.l.f.k.F S C.k.n.C.f.i.",
"V Z E C 4 R %.3.n.J.W.E.@.f @.%.&.*.=.=.q.B.W r @.&.3.0.b.b.F ,.Y.Y.Q.f.n f.i.-.>.6.m i 5.g.n.D.F.F.",
"E W W B < H  .>.3.p.p.3.( t @.3.$.&.=.0.4.q.>.r o.d.0.z.0.d.7.( t.C.I.j.M ;.6.6.>.5.q p +.>.d.k.C.j.",
"E W R d < K @.>.5.6.g.i.( i >.%.o.X.%.1.1.c.6.e U 1.0.7.&.%.%.5.O.H  .>.v 1.>.@.o.K = k >.5.6.d.g.d.",
"W B n u : m >.6.6.d.j.p.m > { ;.%.3.3.3.0.B._ e B 3.b.d.1.3.>.0._ I I x 5 %.>.R M t = k ;.i.d.d.g.<.",
"u 3 3 # - q k ( t.' ^ l % + q D ` ` K K R U p 3 t M H R U I H C v > - < = 7 u 4 4 @ > e u F +.G v r ",
"> U 7.q.c.b.@.m 3 q  ...7.H I U k d 3 M @.+.X.K x k l 5 < < p v v A S +.3.F 3 _ k.d.b.d.i.I 3 q M M ",
"y b.<.7.F.U.U.<.q R c.0.S.@.0.F.t.k k I F H K I F F ' I e X.n.n.Z.F.D.0.4.>.v d.d.3.S.F.J.<.4 >.0.>.",
"F b.6.C.U.F.U.t.i ,.A.i.,.I 6.d.C.S j ) S S S S n B S m p z.n.n.b.1.1.;.7.;.G n.b.F.U.S.F.' p 6.>.o.",
"F g.k.h.f.a.f.:.2 k | | l q ,.-./ j ; w i k x n n F p : 0 H &.3.&.@.5.d.6.S H d.i.<.;.-.O.v = p u 7 ",
"k S S G k j h q t 4 w 3 e 7 k x y / r > > 3 e p d p s e b p e v x e c M v u n l k n p u 4 5 e e 5 e ",
";.6.i.d.d.>.>.U U l u G u.h.<. . .( +.O.O.+.b.d.b.z.z.m.H.J.H.H 4 M F H R _ ' ,.<.,.;.( K M M 3 t K ",
"( -.t.{ -.' [ t.| m h r.e.s.^ z G / S P S ^ S.Z.n.B.H.T.E.T.N.f d U H H _ _ _ +.;._ U K K I F < b c ",
"[ / ' ] G A A ] | 3 h ] r.] ^ ^ G / S / p h i.n.b.4.3.z.c.z...* = t p c B ` I F / F x e q d 3 & y p ",
"j h h h w > > 3 2 : > : 0 k z k h h j h 3 7 y n m s 7 e 1 5 y 2   . X * 3 3 0 < 3 3 > # & = % - & - ",
"2 e 3 3 0 p 3 2 u I I m i 4 p M m n u : n q * > u c p p M s 7 d C M p 4 - , r < < < 5 1 & 5 C C M g ",
"e p u i m G z : v g.D.i.;.n +.C.p.6.%.( K T k e x p H L W L e ! q.*.*.C - e y 8 e y f 7 & M ....L L ",
"q k u i k l z 3 K <.-.( ( G _ +.;.1.6.9.n.6.x 4 e e t y t e > C Q ..! L = 5 r r 7 e y 7 & H R L M C ",
"3 e e q i h w $ h G I  .( A O.O.O.U U (  .S > 4 7 y r 7 4 - + f L o.E C # & 4 1 > 1 5 & X 4 r f N s ",
"o # : : : : > 3 w : e u 5 : u m n n y s p < 7 r 1 1 - - X . + - r B c 4 7 X X + > , , 1 r 7 - 4 > 2 ",
"p 4 & m ' O.>.<.k./ e 0 n ` I F u d O.@. . . .o.H H U y > 8 C L L Q R L J g 7 5 Q @...! Q ..c y y B ",
"( P d ;.d.7.6.O.-.-.e m t.i.( <.H 3.G.z.9.1.1.1.%.1.4.r g Z L o.Q ..Q o.W J g M ! #.o.W Z L r 7 Q Y ",
" .B d _ 3.>.>.+. .S 2 ( 5.6.I S n p.d.p.>.K o.@.@.! M - f Z Z W W J L Q o.L f f Q ..Q ! L N > y T T ",
"@.M k @.>.+.5.<.( e 4 S ( ;.6.K 4 ;.>. . . .Q Q L V 8 + 7 C Y Y W N W #.*.Y y C ! L L W J r > 8 g Z ",
"O.m r _ U H U _ l q 3 e n I I O.j 0 ( K c x x s x y 1 X 1 g g a g N N Z Z N 1 a Z N N B r - * - 5 a ",
"0 4 4 u n k k q % > > % 3 2 4 u 7 : < j e 5 5 < 7 , # , - - 8 1 - - # O + + 5 1 - > - #   # > O O O "
};
