/* XPM */
static char *result[] = {
/* columns rows colors chars-per-pixel */
"64 64 161 2 ",
"   c black",
".  c #0C0802",
"X  c #110E01",
"o  c #151202",
"O  c #1B1204",
"+  c #1B140C",
"@  c #261A05",
"#  c #3E2A08",
"$  c #352C05",
"%  c #352817",
"&  c #402B06",
"*  c #453607",
"=  c #493207",
"-  c #4E350E",
";  c #4C3D09",
":  c #5F420E",
">  c #52420C",
",  c #614F0D",
"<  c #6C570E",
"1  c #78570E",
"2  c #634413",
"3  c #6F4C14",
"4  c #724F13",
"5  c #7F671B",
"6  c #574223",
"7  c #855A0C",
"8  c #8C5F0E",
"9  c #875C1A",
"0  c #97790E",
"q  c #9D7C0F",
"w  c #856914",
"e  c #956510",
"r  c #97661D",
"t  c #9E7B14",
"y  c #AA730F",
"u  c #AB781D",
"i  c #B17C1F",
"p  c #A56F20",
"a  c #BD810E",
"s  c #A38010",
"d  c #AC8A12",
"f  c #B28E12",
"g  c #9B8021",
"h  c #C2840F",
"j  c #C7890D",
"k  c #CC8C0E",
"l  c #D6930D",
"z  c #DE9A0A",
"x  c #C29E13",
"c  c #E29E05",
"v  c #E19C08",
"b  c #E49D1C",
"n  c #CDA511",
"m  c #D8AF13",
"M  c #DDB412",
"N  c #E3A107",
"B  c #E4A90A",
"V  c #E3A40A",
"C  c #E7B40E",
"Z  c #E8B60E",
"A  c #E9BB0F",
"S  c #E9AD16",
"D  c #E7A31C",
"F  c #E9A31F",
"G  c #E7A81C",
"H  c #EBAB1E",
"J  c #E7B215",
"K  c #EBB414",
"L  c #E3B910",
"P  c #ECBC12",
"I  c #EFB31C",
"U  c #ECBE1E",
"Y  c #F0B917",
"T  c #F0B619",
"R  c #F1BB1B",
"E  c #C08620",
"W  c #CC832D",
"Q  c #CF8A2B",
"!  c #DF8E23",
"~  c #D08D29",
"^  c #D59526",
"/  c #E19421",
"(  c #E59B20",
")  c #DCA420",
"_  c #E5A123",
"`  c #ECAD22",
"'  c #F2AD26",
"]  c #EFB321",
"[  c #EFB428",
"{  c #F0B623",
"}  c #FBB526",
"|  c #F3B924",
" . c #F1BA2B",
".. c #E9AD33",
"X. c #EFB634",
"o. c #EFBD3D",
"O. c #F2BE33",
"+. c #EDC40E",
"@. c #F1C30D",
"#. c #F4CC08",
"$. c #ECC312",
"%. c #F0C314",
"&. c #F5CE13",
"*. c #F5CF18",
"=. c #F6D11E",
"-. c #EDC520",
";. c #EFC826",
":. c #E5C12D",
">. c #F3C025",
",. c #F3C42E",
"<. c #F2CD2D",
"1. c #F6D223",
"2. c #F7D32B",
"3. c #EEC834",
"4. c #EEC83C",
"5. c #F5CC36",
"6. c #F3C23C",
"7. c #F4C93B",
"8. c #F7D233",
"9. c #F8D533",
"0. c #F7D03D",
"q. c #F8D639",
"w. c #BB955A",
"e. c #E8A741",
"r. c #EAAC45",
"t. c #EDB443",
"y. c #EFBB4A",
"u. c #EBB14C",
"i. c #F1BE42",
"p. c #F0BE5C",
"a. c #C7A062",
"s. c #E9BC74",
"d. c #E6BE7A",
"f. c #F4C441",
"g. c #F6CA45",
"h. c #F3C64C",
"j. c #F5CB4B",
"k. c #F9D742",
"l. c #F7D04C",
"z. c #EEC952",
"x. c #F5C854",
"c. c #F4C859",
"v. c #F8D253",
"b. c #FBDB53",
"n. c #F5D75A",
"m. c #F9D45A",
"M. c #F6DA5D",
"N. c #FCDE5A",
"B. c #F6CF6E",
"V. c #FBD964",
"C. c #F6D069",
"Z. c #FCDC6A",
"A. c #F7D271",
"S. c #F8D476",
"D. c #FDDF70",
"F. c #FADA7D",
"G. c #FDE167",
"H. c #FDE26F",
"J. c #FEE475",
"K. c #F1CE86",
"L. c #F2CF8C",
/* pixels */
"                                                                                                                                ",
"                                                                                                                                ",
"                                                                                                                                ",
"                                                                                                                                ",
"                                                                                                                                ",
"                                                                                                                                ",
"                                                                                                                                ",
"                                                                                                                                ",
"                                                                                                                                ",
"                                              . s L #.#.#.#.#.+.A B N z l j 8 @                                                 ",
"                                          @ m #.#.#.#.#.#.#.#.#.#.#.@.A c c c c a &                                             ",
"                                        d #.#.#.#.#.#.#.#.#.#.#.#.#.#.#.+.B c c c c y .                                         ",
"                                      M #.#.#.#.#.#.#.#.#.#.#.#.#.#.#.#.#.*.K N c c c l =                                       ",
"                                  . +.#.#.#.#.#.#.#.#.#.#.#.#.#.#.#.#.#.&.9.9.U c c c c c =                                     ",
"                                X +.#.#.#.#.#.#.#.#.#.#.#.#.#.#.#.#.#.#.2.9.9.9.%.v v c c z =                                   ",
"                                M #.#.#.#.#.#.#.K b b ! b b D %.#.#.#.1.9.9.9.9.8.J N c c c z O                                 ",
"                              t #.#.#.#.#.#.S ! b F G H T ] ` ( b +.1.9.9.9.9.9.9.8.V c c c c h                                 ",
"                            X #.#.#.#.#.@.b b H I I T I H T I I T X.6.8.9.9.9.9.9.9.;.c c c c c 1                               ",
"                            M #.#.#.#.@./ ( H H I I I I T { T T { 6.g.f.9.9.9.9.9.9.9.J c c c c v .                             ",
"                          * #.#.#.#.#.b ( T Y Y Y Y Y Y Y Y T T 7.7.7.f.x.9.9.9.9.9.9.<.c c c c c e                             ",
"                          A #.#.#.#.b ( T Y #.#.#.#.#.#.#.#.#.2.8.9.9.t.g.j.9.9.9.9.9.9.K N N c c z X                           ",
"                        o #.#.#.#.P / I I T #.#.#.#.#.#.#.#.1.9.8.9.9.t.i.h.k.9.9.9.9.9.;.c c c c c 7                           ",
"                        f #.#.#.#./ H I T Y #.#.#.#.#.#.#.=.6.f.7.7.g.y.f.f.m.9.9.9.9.9.*.N c c c c k                           ",
"                        +.#.#.#.K b I I I Y #.#.#.#.#.#.&.9.r.n.V.M.M.M.j.f.f.b.9.9.9.=.#.Z c c c c c @                         ",
"                      . #.#.#.#.b H T ] I I b b S #.#.&.8.9.6.t.f.f.f.f.f.f.f.v.q.8.1.#.#.%.c c c c c 7                         ",
"                      0 #.#.#.@./ T I ] I ] T b / / @.2.9.9.5.t.f.f.f.f.f.f.6.h.b.2.#.#.#.#.c c c c c j                         ",
"                      n #.#.#.K b I I I T ] Y T H T ,.9.9.9.8.t.6.6.f.i.f.f.f.f.V.&.#.#.#.#.V c c c c l                         ",
"                      L #.#.#.D H I I I T Y #.#.#.=.9.9.9.9.9.9.9.9.9.t.i.f.f.f.g.=.#.#.#.#.C c c c c c                         ",
"                      +.#.#.#.b T T I I I T #.#.&.9.9.9.9.9.9.9.9.9.9.t.i.f.f. .| q.#.#.#.#.A c c c c c #                       ",
"                      @.#.#.#.( ] T I I T T @.R 5.5.9.9.9.9.8.5.5.5.7.r.t.f.O.I I N.#.#.#.#.P F _ F F F 2                       ",
"                      #.#.#.#.( ] I I I I I H e.r.6.9.9.9.9.o.x.M.M.M.M.j.6.I I T b.#.#.#.#.%.} } } } } 4                       ",
"                      #.#.#.#.F I I I I I T ,.5.9.9.9.9.9.8.r.r.j.g.g.j.f.] I I T V.#.#.#.#.%.} } } } } u                       ",
"                      #.#.#.#.F I I I I T ,.9.9.9.9.9.9.8.m.B.t.f.f.f.6.{ I I I ] V.#.#.#.#.@.} } } } } i                       ",
"                      #.#.#.#.F I I I ]  .7.9.9.9.9.9.8.V.F.F.h.f.f.f.[ I I I I T V.#.#.#.#.%.} } } } } 4                       ",
"                      #.#.#.#.D I I T { i.f.9.9.9.9.5.C.F.F.c.f.f.f.O.I I I I I T V.#.#.#.#.%.} } } } } 2                       ",
"                      +.#.#.#.H I I | f.f.7.9.9.9.9.7.u.B.x.f.f.f.6.I I I I I I T H.#.#.#.#.R } } } } } 2                       ",
"                      $.#.#.#.K I T o.f.f.f.7.8.9.9.9.o.i.f.f.f.6.] I I I I I T T V.#.#.#.#.%.} } } } } .                       ",
"                      M #.#.#.@.]  .f.f.f.f.f.7.9.9.8.7.t.f.f.6.{ I I I I I I I ,.b.#.#.#.#.| } } } } '                         ",
"                      f #.#.#.#.X.f.f.f.f.f.f.7.9.9.8.9.t.f.g.{ T I I I I I I I l.9.#.#.#.#.} } } } } )                         ",
"                      $ #.#.#.*.6.f.f.f.f.f.f.7.5.9.9.9.7.r. .I I I I I I I I I H.=.#.#.#.@.} } } } } E                         ",
"                        @.#.&.2.8.f.6.f.f.f.f.f.7.9.9.9.9...H I I I I T I I I  .J.#.#.#.#.%.} } } } } -                         ",
"                        M #.2.9.q.f.f.f.f.f.f.f.f.5.9.9.2.Y / I I I I I I I I m.8.#.#.#.#.| } } } } '                           ",
"                        ; 2.9.9.8.8.f.f.f.f.f.f.f.7.9.9.#.#.F H I I I I I I  .J.#.#.#.#.+.} } } } } E                           ",
"                          3.9.9.q.9.g.f.f.f.f.f.f.f.8.&.#.#.@./ I I I I T T V.q.#.#.#.#.4.L.L.L.L.L.%                           ",
"                          g 9.9.9.9.9.g.f.f.f.f.f.f.| #.#.#.#.D _ T I I I g.G.#.#.#.#.#.K.L.L.L.L.a.                            ",
"                            5.9.9.9.9.9.j.6.f.f.f.O.T %.%.%.%.D / T I I f.J.=.#.#.#.#.3.L.L.L.L.L.%                             ",
"                            5 9.9.9.9.9.8.j.f.f.o.T T ] A.S.S.p./ I I O.J.=.#.#.#.#.#.K.L.L.L.L.w.                              ",
"                               .9.9.9.9.q.q.v.6.] I I I { X.X.X.' I v.J.=.#.#.#.#.#.x.L.L.L.L.d.+                               ",
"                              o 2.9.9.9.9.9.2.0.g.I I I T I I { 7.H.N.&.#.#.#.#.#.;.s.s.s.s.s.6                                 ",
"                                , 2.9.9.9.9.*.#.&.9.M.v.l.m.V.H.b.=.#.#.#.#.#.#.+.W W W W W 9                                   ",
"                                  w 9.9.9.=.#.#.#.#.#.#.&.1.#.#.#.#.#.#.#.#.#.+.~ W W W W 9                                     ",
"                                    < 9.2.#.#.#.#.#.#.#.#.#.#.#.#.#.#.#.#.#.$.Q W W W W 9                                       ",
"                                      > +.#.#.#.#.#.#.#.#.#.#.#.#.#.#.#.#.P W W W W W -                                         ",
"                                          d @.#.#.#.#.#.#.#.#.#.#.#.#.+.^ W W W W p O                                           ",
"                                              x +.#.#.#.#.#.#.#.#.I m W W W Q r O                                               ",
"                                                  X 1 t t t t w 2 2 2 2 2                                                       ",
"                                                                                                                                ",
"                                                                                                                                ",
"                                                                                                                                ",
"                                                                                                                                ",
"                                                                                                                                ",
"                                                                                                                                ",
"                                                                                                                                ",
"                                                                                                                                "
};
