/* XPM */
static char *result[] = {
/* columns rows colors chars-per-pixel */
"64 64 158 2 ",
"   c black",
".  c #0E0A00",
"X  c #110C01",
"o  c #151202",
"O  c #1C1402",
"+  c #1E180B",
"@  c #221A04",
"#  c #2E2305",
"$  c #312705",
"%  c #392801",
"&  c #3F2D0A",
"*  c #2E271A",
"=  c #473202",
"-  c #483A05",
";  c #4F390C",
":  c #553B02",
">  c #5E440E",
",  c #5F4C0E",
"<  c #524514",
"1  c #654A08",
"2  c #714F03",
"3  c #66510C",
"4  c #745B0E",
"5  c #7E5B13",
"6  c #796009",
"7  c #4C412C",
"8  c #7D6A23",
"9  c #805903",
"0  c #856A0C",
"q  c #8E6303",
"w  c #9C6D03",
"e  c #9D7D0B",
"r  c #8E6615",
"t  c #826913",
"y  c #9D7218",
"u  c #AA7704",
"i  c #AD7D1A",
"p  c #C67B21",
"a  c #89754F",
"s  c #AA880B",
"d  c #BC960D",
"f  c #AA8813",
"g  c #B68214",
"h  c #BD881D",
"j  c #C68A04",
"k  c #D49405",
"l  c #CD941F",
"z  c #D8941D",
"x  c #DE9F18",
"c  c #E29E05",
"v  c #E49B1E",
"b  c #CEA70E",
"n  c #DCB40F",
"m  c #CEA713",
"M  c #D2A514",
"N  c #E3A207",
"B  c #E4A80B",
"V  c #E4B30D",
"C  c #E4BC0E",
"Z  c #EEBC0F",
"A  c #F0BE0F",
"S  c #E6AB12",
"D  c #E9AB16",
"F  c #E7A11D",
"G  c #E9A51F",
"H  c #ECAB1E",
"J  c #E7B711",
"K  c #EDB416",
"L  c #E3BB12",
"P  c #EEB914",
"I  c #EFB31C",
"U  c #F0B917",
"Y  c #F0B619",
"T  c #F2BD1D",
"R  c #CD8322",
"E  c #D18A20",
"W  c #DF8E23",
"Q  c #D69222",
"!  c #D89522",
"~  c #DC9B20",
"^  c #E29522",
"/  c #E59C20",
"(  c #E49C2B",
")  c #E49D34",
"_  c #D0AE2D",
"`  c #DEBC32",
"'  c #EDAD24",
"]  c #E9A72D",
"[  c #EEB32B",
"{  c #F0B725",
"}  c #FBB526",
"|  c #F4BB23",
" . c #F1B92A",
".. c #E7A43D",
"X. c #EEB433",
"o. c #EBB63A",
"O. c #F0BC33",
"+. c #F1BE3F",
"@. c #ECC30E",
"#. c #F0C40C",
"$. c #F4CC08",
"%. c #EBC310",
"&. c #EFC816",
"*. c #EEC81E",
"=. c #F0C313",
"-. c #F5CE14",
";. c #F0C01A",
":. c #F5CE1B",
">. c #F6D01E",
",. c #ECC123",
"<. c #EEC825",
"1. c #E4C028",
"2. c #EFCB2D",
"3. c #F0C929",
"4. c #F7D225",
"5. c #F6D32B",
"6. c #EDC837",
"7. c #F3C336",
"8. c #F5CC34",
"9. c #F3C33C",
"0. c #F4CA3A",
"q. c #F6D233",
"w. c #F8D533",
"e. c #F7D03F",
"r. c #F8D638",
"t. c #B69C69",
"y. c #C7A255",
"u. c #C6A158",
"i. c #E9AC45",
"p. c #EDB443",
"a. c #EEB942",
"s. c #EDB748",
"d. c #EFBD49",
"f. c #F1BE41",
"g. c #EDB754",
"h. c #D5B67B",
"j. c #F4C441",
"k. c #F5C846",
"l. c #F2C44A",
"z. c #F5C84B",
"x. c #FAD942",
"c. c #F6D249",
"v. c #F8D34C",
"b. c #EFCA57",
"n. c #F4C651",
"m. c #F5CA5C",
"M. c #F7D150",
"N. c #FADA54",
"B. c #F6DA5D",
"V. c #F9D35C",
"C. c #F6CF6C",
"Z. c #F1C362",
"A. c #F6D069",
"S. c #F0CD7C",
"D. c #F6D071",
"F. c #F8D476",
"G. c #FADA7C",
"H. c #F2CF8C",
/* pixels */
"                                                                                                                                ",
"                                                                                                                                ",
"                                                                                                                                ",
"                                                                                                                                ",
"                                                                                                                                ",
"                                                                                                                                ",
"                                                                                                                                ",
"                                                                                                                                ",
"                                                                                                                                ",
"                                                    6 C #.$.@.Z N c c c u 2 .                                                   ",
"                                                # n $.$.$.$.$.$.#.V c c c c k :                                                 ",
"                                              X @.$.$.$.$.$.$.$.$.$.V c c c c c :                                               ",
"                                              C $.$.$.$.$.$.$.$.$.$.$.D c c c c c =                                             ",
"                                            e $.$.$.$.$.$.$.$.$.$.$.4.5.c c c c c j .                                           ",
"                                          o $.$.$.$.$.$.$.$.$.$.$.-.w.w.,.c c c c c 9                                           ",
"                                          b $.$.$.$.$.$.Z A $.$.$.4.w.w.w.N c c c c c O                                         ",
"                                        X $.$.$.$.$.F F I I I I -.w.w.w.w.,.c c c c c q                                         ",
"                                        s $.$.$.#.v H I I I I Y 7.w.w.w.w.q.c c c c c k .                                       ",
"                                        @.$.$.$.v G I I Y I I { j.j.w.w.w.w.K c c c c c :                                       ",
"                                      - $.$.$.D / U U U U U U 7.0.j.8.w.w.w.3.c c c c c w                                       ",
"                                      s $.$.#.v I $.$.$.$.$.-.w.q.+.j.w.w.w.q.c c c c c c X                                     ",
"                                      n $.$.D ^ U $.$.$.$.$.5.w.w.p.9.c.w.w.w.S c c c c c =                                     ",
"                                      $.$.$.W G P $.$.$.$.-.9.9.0.d.j.k.w.w.q.J c c c c c 2                                     ",
"                                    # $.$.Z W H P $.$.$.$.4.l.B.B.B.j.j.r.w.:.@.c c c c c u                                     ",
"                                    0 $.$.D ^ Y I v D $.-.w.a.j.j.j.j.9.v.w.$.@.c c c c c k                                     ",
"                                    d $.$.^ v Y I ' ^ D 4.w.9.j.j.j.j.j.z.4.$.$.c c c c c c X                                   ",
"                                    n $.#.W ' I Y Y Y | w.w.9.9.j.+.j.j.j.$.$.$.N N c c c c %                                   ",
"                                    C $.Z W G I Y $.$.5.w.w.w.w.q.p.j.j. .>.$.$.B c c c c c %                                   ",
"                                    @.$.M R I I U $.:.w.w.w.w.w.w.p.j.9.I 5.$.$.V c c c c c 1                                   ",
"                                    #.$.! p Y I Y A 8.8.w.w.8.0.8.p.j. .I x.$.$.M g g g g g 1                                   ",
"                                    #.$.! R Y I Y ] i.8.w.w.a.B.B.B.9.I I 7.$.$.T } } } } } 5                                   ",
"                                    #.$.R E I I Y 8.w.w.w.w.i.j.k.k. .Y I o.$.$.U } } } } } 5                                   ",
"                                    $.$.R E Y I | w.w.w.q.c.Z.j.j.9.{ H Y o.$.$.;.} } } } } 5                                   ",
"                                    #.$.R R I I 0.w.w.w.q.G.C.j.j. .Y Y Y o.$.$.;.} } } } } 5                                   ",
"                                    #.$.R E I  .0.w.w.q.A.G.n.j.9.I I H I o.$.$.T } } } } } 5                                   ",
"                                    @.$.Q p I 9.j.w.w.q.g.m.j.k. .I I Y I l.$.$.T } } } } } 5                                   ",
"                                    %.$.! p  .j.j.0.w.w.a.9.j.9.I I Y I I N.$.$.| } } } } } >                                   ",
"                                    %.$.~ R f.j.j.j.w.w.9.f.j.} I I I I H x.$.$.{ } } } } } =                                   ",
"                                    m $.A ) f.j.j.j.q.w.8.a.+.I I Y I I ' w.$.$.} } } } } } #                                   ",
"                                    f $.Z i.f.j.j.j.0.w.w.p.{ I Y ' I Y [ 4.$.$.} } } } } }                                     ",
"                                    3 $.4.i.p.j.j.j.e.w.w.O.I Y Y Y Y ' f.$.$.=.} } } } } l                                     ",
"                                    . $.w.s.i.j.j.j.j.q.w.=.v Y ' Y Y Y M.$.$.U } } } } } y                                     ",
"                                      <.w.j.i.f.j.9.j.8.5.$.G Y { I ' I x.$.$.T } } } } } >                                     ",
"                                      _ w.0.i.a.j.j.j.0.-.$.K H H Y Y o.-.$.$.y.u.u.u.y.u.+                                     ",
"                                      8 w.w.p.i.j.j.j.+.$.$.Z ' Y Y Y M.$.$.&.H.H.H.H.H.h.                                      ",
"                                        q.w.9.i.a.j.j.{ U #.U ^ I I [ w.$.$.7.H.H.H.H.H.a                                       ",
"                                        ` w.w.p.i.9.9.I O.F.A.] I I V.$.$.$.S.H.H.H.H.H.*                                       ",
"                                        < q.w.0.i.p.{ I Y X.X.[ I l.-.$.$.<.H.H.H.H.H.t.                                        ",
"                                          2.w.w.j.../ I I I I H z.w.$.$.$.b.H.H.H.H.H.7                                         ",
"                                          t w.w.w.;.( ! F ' X.V.5.$.$.$.%.} } } } } h                                           ",
"                                            1.w.4.$.$.4.c.r.w.$.$.$.$.$.} } } } } } #                                           ",
"                                            $ 5.$.$.$.$.$.$.$.$.$.$.$.;.} } } } } r                                             ",
"                                              , #.$.$.$.$.$.$.$.$.$.=.} } } } } y                                               ",
"                                                3 $.$.$.$.$.$.$.$.=.} } } } } i                                                 ",
"                                                  @ L $.$.$.$.$.| } } } } ' ;                                                   ",
"                                                      o 4 0 3 & & & & = @                                                       ",
"                                                                                                                                ",
"                                                                                                                                ",
"                                                                                                                                ",
"                                                                                                                                ",
"                                                                                                                                ",
"                                                                                                                                ",
"                                                                                                                                ",
"                                                                                                                                "
};
