/* XPM */
static char *result[] = {
/* columns rows colors chars-per-pixel */
"64 64 67 1 ",
"  c #07080D",
". c #0A0A0F",
"X c #0E0E13",
"o c #0F1015",
"O c #111116",
"+ c #14141B",
"@ c #16181F",
"# c #19191E",
"$ c #171720",
"% c #171820",
"& c #1B1C25",
"* c #1D1E28",
"= c #1F2026",
"- c #1E202A",
"; c #212226",
": c #24252B",
"> c #27282E",
", c #29292D",
"< c #262730",
"1 c #272831",
"2 c #2C2D32",
"3 c #2F3031",
"4 c #313235",
"5 c #333339",
"6 c #3C3C3D",
"7 c #3D3D41",
"8 c #3F4045",
"9 c #434344",
"0 c #454549",
"q c #47484C",
"w c #4A4B4B",
"e c #4E4E52",
"r c #545454",
"t c #585857",
"y c #55555A",
"u c #5C5C5C",
"i c #5E5E61",
"p c #636363",
"a c #666669",
"s c #6B6B6C",
"d c #6E6E71",
"f c #747474",
"g c #787877",
"h c #767679",
"j c #7C7C7C",
"k c #80807F",
"l c #7F7F80",
"z c #848484",
"x c #888887",
"c c #878789",
"v c #8B8B8C",
"b c #8F8F91",
"n c #939393",
"m c #979799",
"M c #9B9B9B",
"N c #A09F9F",
"B c #9F9FA0",
"V c #A3A4A4",
"C c #ABABAB",
"Z c #AFAFB0",
"A c #B4B4B4",
"S c #B8B8B7",
"D c #BABABB",
"F c #C3C3C3",
"G c #CBCBCB",
"H c #D1D1D1",
"J c #DDDDDD",
/* pixels */
"****&&&&&&&***********-*&-*&*&-*&-&&&&&&&&&&********-&-&-&******",
"*%OOOO++O+++*&&**&&&$++@@++@$+&*-$+O+o++o++$&*&**&*&$@+@+#+++$&*",
"*%XoOOooXO+&*********+OoOX+OoX$**$OXOOXXoo+&*-&****&&+Oo+XOOOO$*",
"*$o++++++$**&&$**&$**&$++++++O&**$o++++++$*-*$&**$&*-&$++++++O$*",
"*@O++@+@$*-*$X+&-@X+&-*$++++++$**$O+++++$***@X+**+X+**&$+++@+O&&",
"*$o@+++$*-*+XX$*&&XX$**&$++++O&**+O++++$*-*$XX@*-$XX$**&$+++OO$-",
"*$OO++$***@Xoo$**$oOX$-**$+++O$**$O+$+$;-*@XXo$**&+XX@*--$++++%-",
"*@O++$--*$Xo+O$*=%O+oX$**-$#+O$;*$+++$--&@Xo+o$**$o+oX$*--@++O$-",
"-$O+$*-*$XO++O#**%+++oX#**&$+o$&&+O+$***$XX++o$*&&O++oX$&-*$++$*",
"&$O$***+XO+++O$*-%o+++X.$-7yiahzchsiy81$XX++++$*-$O+++oX$***@O&&",
"-$+*-*@XO++++O$**%o+++@,ycmVCZSDDSZCVNvp2&+++O$*&&O++++oX@&-=@$-",
"=&*-*$Xo+++++O@**$++@5aMASSSSDDDDDDDSAAVns6&OO$*-$O+@+++OX$-*&&-",
"***&+Xo++++++O+**$O-iNDSASSDDDDDDDDDSDSAZNbp,+$-*$O++++++oX$&***",
"&--$XXOOOOOOOX$**$4zDDZAASSSAZCNVCZASSSSAZVNj6$*-$oO+OooooXX&***",
"-&-$+@$@@@$$$$&--0nFSZAZACmzfpirrupdknCZAZZCNlq:*&%%$%&$$&$@&*&*",
"***--&--&-&--&--qMSZCZCVcae7669777666wpzNZZZCMle>*--***&-=*&****",
"****&*&&*&*****8vACCCVbaw696245555523979pkNCCCMje:&**&-&&*&*****",
"*&*&$OO+++#+$+4jCCVVMjr605,;&&&&$*$$&;,79wfMVVVbs7$+$++@++++&*&*",
"****$+XOOOOOO#tNCNNmfw97:++$*-****-*$Oo;39wanNNNcu:XooooXO+&&***",
"*&****$++++++6vVNMmfww6;++&-*&****&=-&@O#,9wabNNmg9@++++++&***&*",
"&@+&***$++@+,sMMNndre4#+$&--&+$=*$+&-**@++,9wsvMMvp4+++@$&-*&$$*",
"*$o+***&$++#9znnbgte6#+#*&-&+o@&*$O+&**&#++,wrfnmnjw;++$&**&+O$&",
"*$o+@&*-&$O,pznnkur0&+#&--&++o$-*$OO@&=**#++5eukbnxp5+@&--&@Oo$*",
"-$o+++&*=&&6sxbxdtr2+$&--&+O++$-*$O+++&*=&#+&9tazbvfw;&=-&+++O$*",
"*$o++O+&;*<egvvjptwO$*--&+O++o@&*$O++O@&***@O3tugvvjt4**&+O++O@&",
"*@o+#+++*&4ikvvfpt,#&=*&+++@+O@-*$o+++O@&***+@eisxvza7*&+++@+O$=",
"-$O++++O+&6sxvxsar#&=-&++++++O$-*$O+++OO@&**&+9pazbvfq;@+++++O$-",
"&@O++++++&0fvnzsaw&&-&@++++++o$&*$O+@+@@O@*;-&5iskbbjr;O++++++$&",
"-@o+++++O#wjnnkda6**&+O+++++OO$-&@o++++++O@%**:udjnnzu:O++++Oo@&",
"-$ooOoo+O&tknnkds5**+oOOOOo+oo@*-@OoooooOOO@***ufgnnxp,OOOOOOO$*",
"&&@$+$$$@<uzmnkgs>&&$$%$@$$$$@&*-&%%%%@$%%%$**&uggbmva4@$$$$$$&-",
"-*****--&,ixmMzjd1*-----&=-&****&&&&*&&&&&*&**&ikkbMbs5&***&=&-&",
"***&&*&&&,pznmxkf5*-&**-*&***&*-$+O+OO+O+O+**$-pllnncs4++$+$$+&*",
"*&O++OO+X&ukxxzkj8&&&$++@@@@+@&&@OoOoOOOX+&***:azzvcls2X+oOooX$*",
"*$XXXOOOX#rkxzxzle-&&+ooXooooo%-@o+++++++*-**$5hxzzzlp,++++++o&*",
"&$X++++++&wjxxxxbs&&-&@++++++o%&$o++++++****$Xqcvccvli2+++++++$*",
"*$+++$++$-8hvvvvnl;$=-&$+++@+O%*$O++++$&-&*+OOsnvvvvkr<&@++++o$-",
"*$X++++$;*5svvvbnNy.@-**$++++O&*$O+++#**-&++.4bMbbvvg8=-&@+++o&&",
"*$X+++$*-&;tznbbnVm:.$*--$+++O%*$O+++***&@O+@sNmnbnva4&--*@+++$-",
"*+++$$*-*++6gnnnmNZdOX$*--$++O%*$O+$****@oOO0MVNnnnkw+O&**&@+O%*",
"*$O+$***@XX:pxbbnnVZr.X$***$+O%*$O@&**&$X+X2bCZNnnbd5OX$****+O$*",
"*$O@*-*$XO+#9gbvvnNAC8XX$***$O%*$+&-*&$O+X1bCACvvvkw-++O+**-*+&*",
"*$+-**$XO+++:tlxzvnVFZwOX$***+&*&&--&$OOO2bDAZnzxki4+@+OX$***&&*",
"*&&-*@Xo+++++4pkzkknCFDs: +*:*&**---$XX&8mSSDmkkks7&+++++o+*****",
"&*--$.X+++++O#6sljjkbCDHBe>$+&%&&&$X *7hZDDDmljlf0;O++O++OX@**&*",
"--&$XXOOOOOOOO:wsggghvVDHGVseq742577yzSFDFZbggjfr,OOOOOOOoXo&***",
"*&&&+@$$$$$@@#&2wsfffflMCDGJHDCbcnBDHGDDSCjfffsr5=&;*&&*&&*&****",
"*****-&-***-&-&=20pdsdsslmVADFGFGGFDDSZMcdsdsaw4-=-*-**-********",
"*****&&&&*&*&&&**>6tpssapsfkbMMVVNNNbxjspasau9,-&&&&$&&&&&&&;***",
"*&*&+++OOOX+++$**&&49tppppppppsssssppiipppuw4&*-&+oOOOOOXXO&****",
"****&+OOooOOoX$**%O+;49tuupupuuuuuuuupiitw6:#O&-&o++++++O@&&**&*",
"**&**&@++++++o$**#OO+#;46wrttttuuttttrw74,#+OO&-&o++++++@&--*&$*",
"&$+&--&$+@+++O$**%+++++@;,36699www9964,;##O#+X&-&o+++++$&-**$O$*",
"&$o+&-*&$++++o$*-%o+++@$#;;&;#;:;;;;;-;*#++++O&-&O++++$&-**$+X$*",
"*$oo+&--*$+++O$*-$O++@@&;*&@OO#*#OXO$-*-*#+++X&-&O+++@&-**$+O+$*",
"*$++++&-;&@++O$*-$O++@**;*++OO&*#O+OO$**-&#++O&-&O+++*-*-$o++o$*",
"-$O++O+&**&$+O$**&OO%****+O+@O%*#O+++O$*&-*++O&-&O+@&---$++++o$*",
"=#OO@+O@&-**++$**%O@***&+++++O%*#O+++++$*--*+O&-&O+*--&$o+++++$*",
"*$O++++O+***&+$**%@&**&@O++++o%*#O+++++O$-*-&+&-&+&-**$++++++O$*",
"*$O+@+++++**-&&&&&&***@O++@++O%*#O+++++++$&--&***&*--$OO+++++O@*",
"*$O++++++++&**&**&**&+O@+++++o%*$O+++++++o$-*******&$+O++++++o$-",
"&$ooooOOoOO+&-*****&@OOOOOOOOo%-$XX+OOOOoo+$***-***&OOO+oOOoXX$*",
"*&$$$$$@$$@@**&**&**%%%%&%%%$%&-&$+$$$#$$&$&*&*****$$&&$@@$$$@&*",
"**=-*******&***************;***&--******************&-&-&--&-***"
};
