/* XPM */
static char *result[] = {
/* columns rows colors chars-per-pixel */
"64 64 62 1 ",
"  c #0A0A0F",
". c #0E0E13",
"X c #100F16",
"o c #0F1015",
"O c #0F1018",
"+ c #111116",
"@ c #14141B",
"# c #16181F",
"$ c #18181E",
"% c #171720",
"& c #171820",
"* c #1B1C25",
"= c #1D1E28",
"- c #1F202A",
"; c #212126",
": c #23232B",
"> c #27282C",
", c #2A2A2D",
"< c #272831",
"1 c #2C2C32",
"2 c #2F3036",
"3 c #333335",
"4 c #383837",
"5 c #34353A",
"6 c #37383E",
"7 c #3C3C3C",
"8 c #3E3E42",
"9 c #444445",
"0 c #45464A",
"q c #4B4B4C",
"w c #4C4D51",
"e c #535354",
"r c #555658",
"t c #5B5B5C",
"y c #5D5D62",
"u c #5F6065",
"i c #636364",
"p c #666669",
"a c #6B6B6B",
"s c #6F6F70",
"d c #737374",
"f c #757679",
"g c #7C7C7C",
"h c #7E7E81",
"j c #838384",
"k c #868689",
"l c #8B8B8B",
"z c #8F8F90",
"x c #8F9091",
"c c #939393",
"v c #979899",
"b c #9B9B9B",
"n c #A2A2A2",
"m c #ACACAC",
"M c #B2B2B2",
"N c #BBBBBB",
"B c #C3C3C3",
"V c #CCCCCC",
"C c #D6D6D6",
"Z c #DBDBDA",
"A c #E6E6E6",
"S c #E9E9E9",
/* pixels */
"=====****=**=============-==========*=*===*=====================",
"=&+++++@++@%*-**=*=**@%@@@&@%%*==&@++++++++%=**==**=&#@%$@%%@$*=",
"=&.XX++XXX@*===-=*==*@++XX+++.%==&.++XXXX+@======*==*@+++++++.&=",
"=&++@@@@@%--=*%==&**=*%@@@@@++*==&+@@@@@@%===&&==*&==*%@+@+@++&=",
"=&+@@@@%&===$.+==$.%===#@@@$@.@%%O .+@@%&===%.@==%.%==*&@$@@@+*=",
"=&+@@@@%===%..%=-&..@===&@@@X5yffurw1+@%===&..&==%..&*==&@@@@+&=",
"=&++$@%=-=&..+%==&++.&===%@-yxmBCSCMke*===&..o&==*++.&===&@@@+&-",
"=&+@@*===&.+++%=-&+++.&=-=:icljlbNAZMbp:=&.+++&==&++o.%=:=&@@@&=",
"=&+@&=-=&.+@@+$==&+@@o.#*:tkgjllzcNSVnbu*.X@@+&==*+@@o.#===*@+&=",
"=&+&=-=@.X@@@+%=-&+@@@+.&wlhgjllcvbNANcl9X@@++&==&+@@@+.%===%+*=",
"=&@===&.X@@$@+%==&+@@@@.>klhhkllcvbvVZvlf1X$@+%==&+@@@@+.&===@&=",
"=*===&.+@@@@@+@==*+@@&@@qvlhggglccncbZNhkw+$@+&==*+@@@@@..&=-=*=",
"====@..@@@+@++&==&++@@.:lclgieqrhvbvzVVjfs,X@X%==&+@@@@@+..&====",
"===&..++++++++&=-&+++++0bcjt381=8hnvlbCnaf7XXX&==&o++oo+@O..**==",
"===&@&&&&&&&&&*==*&&*&;jnca453===wxblkVBait>@&*==*&&&*&&&**@*=*=",
"==================-===1cnkq391*-=-sbljMVges7*======-==-==-*=====",
"======*===============ebns443-==-&qzzjcCcqp0--*=================",
"=***%+++@%@%$@*==*&@@$fmcr391$*===:dcgjVnere-@*==*#@%@@@++@@***=",
"====*@X+++++X+&==&+++.kMj73q1*-==-;acjgMMiet; *=-&o+++++++@**===",
"==*==*%@+@@@++&==&+++=cmd478<*====$qjjdbNdep>.&-=$++@@@@@%*===*=",
"=&@*===%@@@#@@&-=&+@@0nni793*#@==@@>slslBgqp4+&*=&+@@@@@&*--*%%*",
"=&+@*==*&@@@+o**=*+@+iMbe7q3++&==#o@alsgBket8+*-**o@#@@@*===@+%=",
"=&++@===*&@@@o&-=&+@OsMvq7e5.+&=-&o+plsgNlet9@$=-*o@@@&=--*@++&*",
"=&+@@@*--*&@@@**=&O@@hNcq9r5O+&==&++ilsdmctte$#-=&+@@&===*@@@+&=",
"=&+@@@@==-=@@@&-=*@@@kNkqqt5o+&==&+@ehfdnvtrr$#-=*+@#*--*@@@@+$=",
"=#++@@@@*===@+**=&O%*kMjqer3o@&==&+@0gdabbitr$#-=*+@==-*@@@@@+#=",
"=&+@@@@+@==-*@&=-&@**kMfeer2++&-=&++qfaicbitt$$-=#@*=-=@@@@#@+#=",
"=&+@$@@@+@==-**==**-*kMfett1++&*=&+@8apizbitt;*;-**==*@@@@@@@+@=",
"=&++@+@@@+@=-====*==&kMfrtt1++&-=#++,pailbptt:*==*-=*@+@+@@@@+@=",
"=&oo+++++++@=**=-*==OjMftiu,.+&*=#+X1apilcitt:*==*=*#++++++++X&=",
"=*&&&&&&&&&&*=*==*-=%jMhipi3@&*==*&#qspilcptr:*=====&&&$&&##&#==",
"====-===;----=====-=*jMjpaa4*--==**$qsapllpye-===*==*=====*==*==",
"====*=====*=========&hMlaad9*-==&@++9sppljite;*-===*%%@%@%%@%%*=",
"=&+++++++++@==*==*==%fmzddf8+$&=&.o.efppljitq;=-=*==*@++X+++X.&=",
"=&.XXX++++@===*==*==&amvffh8.o&-&+@@tdpalgit7**-=&*===@@@@@@+o&=",
"=&X@@@@@+%===&*=***=*ynbfgk9.+&*&+@@igialstt3+*-*o+*=:=@@@@@@@&=",
"=&+@@@$@*===%.+==%.&*0bnjgzqo@&=$+@@igiskaer;.==*o @==-=&@@@@+&-",
"=%++%@@&===%..&==%..#>knkjli&o*=$+@$pgadjieq*.*=*+X.+&==*&@@@+&=",
"=&+@@@&===&.++$==&O..$gnzkzg,.*=$++9gdagfre9$+*=*++@.@==-*&@@o*=",
"=&+@@&===%.X++%==*+@+ anclcc5.$*$++tgdagaqq3@+===.@@@.+==-*#@@&=",
"=&+@&=-=&.X@@+&==&+@@.0cczvb9+&-&+$alssgiqq,++=-*+@$@@o@====@+&-",
"=&+%===&.+@@@+$==&+@@+;kvlbnd;#-&@8gjddse97$++*=*X@@@@++@==-=@&=",
"=$@=:=&.+@@@@+&==&+@@+#aclcmn4$-*&ylgddp993$++*=*+@@@@@@O@==-**-",
"=*===@.X@#@@++&-=*+@@@@8llknMf:**6hzjdsr97;@@+*-*X@@%@@@+O&=*--*",
"==-=%..+@+@@+o&=-&+@@@+:flgkmmt:1uclhdi973$+++*=*.+@@+@+@+.@==*-",
"===&..+++++++.&=-&++@+++qkgshnviskclgpe44;.oo@===@+++O++O+oO*==*",
"=*=&@%%&&&&&&&*==*&&&&*#,agssdgjlkclst74,$*=**=-==*=********====",
"====================-===-8dddfgjklcgi943>;;:---=====--------==--",
"========*===*=========-==:0adffhklji941:*****=====*********=====",
"=*=*&+++++++++*==*#@#@@@@@*9afgjkfi93>$..X++.+===+.++++...+*==*=",
"===**++++.++..%==&oo++XX++@=8taaie7,;$+@@@+@++==*++@@@@@+@======",
"=*===*%+@@@@@.%==&+@@@@@@%*==:363>;-;-%@@@%@@+===+@@@@@@$=-==&&*",
"*&@*--=&@$@%@+&==&@+@@@@%====@#=$+#====%@@@@@+*=*X@@@@@&*:==&+&-",
"=&+%*-=*&@@@++&=-&+@@@@%*===@+&=$.+$===*%@@@+X*=*+@@@@@====&++&=",
"=&O+@=--=%@@@+&==&+@@&%====#++&=#++@*====%@$@O==*++@@#====&@@+&=",
"=&++@@*=-*%@@+&==*+@@&*-=*@+@+*=#+@@+&====%@@+*=*+@@&====*++@+&=",
"=&+@@+@==-*%@+&-**O@&*-==@+@+o&*#++@++&**=*%+O*=*X@$=-==%+@@@+%=",
"=$++@@@@*===@+%=-&+#===*@++@+o@*@.++@++@****@+==*X@====&@+@%@X%=",
"=$+@@@@@@=-==@&=**@*=-*@o++++o#&@.+++++.%**=*+==*@*-==&@+@@@@+&=",
"=&+@@$@@@@*-=**=-**==*@++@@@+O&*#o+@@@@++%=======*--=&+@@%@@@+&=",
"=&++@@+@@+@===*==*=-*@+@@@@@++&*%++@@+@@++*=====-===&+@@@@+@++%=",
"=&X++++++o+#==*====*#+O+++++oo*=&++++++++++*=======*+++++++++X&=",
"=*&&#&&%&&@@*====*=*&&*&&&*&&**=*&%&&&&&&&%*=====***&*&&&&#&&&*=",
"====================--=========================================="
};
