/* XPM */
static char *result[] = {
/* columns rows colors chars-per-pixel */
"64 64 59 1 ",
"  c #09090F",
". c #0E0E13",
"X c #0F1015",
"o c #111116",
"O c #14141B",
"+ c #16181F",
"@ c #19191F",
"# c #171720",
"$ c #171820",
"% c #1B1C25",
"& c #1D1E28",
"* c #1F202A",
"= c #232226",
"- c #24242B",
"; c #26282E",
": c #2C2C2D",
"> c #272831",
", c #2C2C33",
"< c #2F3035",
"1 c #333334",
"2 c #35363A",
"3 c #37383F",
"4 c #3B3B3C",
"5 c #3B3C42",
"6 c #434344",
"7 c #454549",
"8 c #4B4B4C",
"9 c #4D4D52",
"0 c #535354",
"q c #54555A",
"w c #5B5B5C",
"e c #5B5C64",
"r c #636363",
"t c #666668",
"y c #6B6B6C",
"u c #6B6B70",
"i c #6F7072",
"p c #737374",
"a c #767678",
"s c #7B7B7C",
"d c #7F7F81",
"f c #838384",
"g c #888788",
"h c #8B8B8C",
"j c #90908F",
"k c #929393",
"l c #969698",
"z c #9A9A9B",
"x c #9F9FA0",
"c c #A2A3A3",
"v c #ABABAB",
"b c #B3B3B3",
"n c #B7B7B8",
"m c #BCBBBD",
"M c #BFBFC1",
"N c #C5C5C6",
"B c #CBCBCC",
"V c #D2D2D3",
"C c #DADBDC",
/* pixels */
"&&&&%%&&%&&&&&&&&&&&&&&&&&&&&&&&&&&%%%%&&&%&&&&&&&&&&&&&&&&&&&&&",
"&$ooOoooooo#&%%&&&%%$O#OO#+O+O%&&$oOOXooooo#&&%&&%&%#+O++OO@@O#&",
"&$.XXoooooO&&&&&&&&&&OoXooooXX#&&#..oooXooO&&&&&&&&&%OoXo.o.oo#*",
"&#XOOOOOo#&&&##&*$$%&%#OoOoOOo$&&+XOOOOOOO&&%##*&%#%&&+OOOOOOo#&",
"&#oOOOOO#&&&#.O&&+.#&&&$OOO+Oo%&*#ooOOOO#**&+.O&&O.#*&%#OO+Ooo%&",
"&$oOOOO#&&&+..O&*$..#&&&$+OOOo$&&#oOOOO#&&&+ .+&*#. #%*%@OOOOo#&",
"&$oo+O$**&+.XX#*&$oX.#&&&#OOOo%&&#oOOO%&*&+..o#*&%o..#***#O+Oo%&",
"&+oOO$**&#.XOo#&&%oo..$&*&%OoX#%%+oOO#&*&+.XOo+&&#OOX.+&*&$OOo#&",
"*#oo#&&&#.oOOo#*&$OOOo.$&&&#whhhhhde-&*&%..OOX+&*#ooOo.#&&&#Oo%&",
"*#o+&&&+.oOOOo@&*$oOOO..#&%9NVbbbbvxu>%# oOOOo+&&%oOOOX.#&&&@o#&",
"&#O&*&#.XOOOOo+&&$oOOOOX.#$eCBxxxckcg<O.oOOOOo#&&#oOOOOX.+&&*O#*",
"&%&*&#.oOOOOOo#&&$oOO#OOo.OeCNzllljxf: oOOO#Oo#&&%oO+OOOo.+&*&%*",
"&&*%O..OOOOOooO&&$oOOOOOOo qCNjjjjgzd=.OOOOOoo#&&$oOOOOOO..#%*&&",
"&&*#..oooooXoo#&&$oooooooo 9VMgffgdla=.oooooXX#&&$XXoOXXXX..#*&&",
"&&&#O+++++####%*&&$$$$$%$%OqVndssspjs;O@######%&&%$%$$$$#$#+%%%*",
"&&&*&&&&&**%*&&&&&&&&&&&&&#eVbapppihs<%&&&&&&&*&&&&&&*****&&&&&&",
"&&&&&&&%&*&&&&&&&&&&&&&%&&%eBvytytrgs,#&&&&*&&&&&%&&&&&&&&&&&&&&",
"&%&%OoooOOO+@O%&*#++O+@Ooo.9Bvtwwrwfa&oOO+OO++%&&%O+#OO+ooo+%&%&",
"&&&%%ooooooooo#&&%.oooooooo9Nve0000da*.oooXXX.$*&+.oooXoooO#%&&&",
"&%%*&&#OoOOOoo#*&#ooOoOoO#%qMcq8009sa>OOoOOOOX$&&%XOOoOOOO&&&&%&",
"%++%*&&#+OOOOo$%&%oOO@OO+&$qmxw8008sp,%#OO@OOo$&&@oOOO+O#%**%O#&",
"*#oO&&&%#OO+Oo%&&#oOOOO#&*%9nxw0000ai,%&#OOOOo$&*$XOOOO#%&&&Oo#&",
"&#Xo#%&*%#OOOo%&&#oOOO#&**#8bxw0008ay>&*%#OOOX$&&$OO+O#%**%OoX#&",
"*#XOOO%&&&#OOo$&*%oOO#&&&&o6bzw0000py*#&&&%OOO$&&$oOO+&&*%OOOo#&",
"%#oOOoO&&&&+Oo%&&$OO+%&*%OX7vzw0000ir=O%*&%#Oo%&&@oO+&&*%OoOOo@&",
"*+XO@OOO%*&&+X+&&#oO&&*%OOX7vzw0w00ir=oO%*&%+o$%&%o+&&&%OOO+Oo+&",
"&+oOOOOoO%&&%O%&*$O%&*&OOOO7vlr0000ir=oOO%**%O$*&#O%&&%OOOOOOo+&",
"&+oOOOOOOO&&&%%&&%%*&&OoOOo6cgw0ww0yr=OOOO%**%%**%%&*%+oOOOOOo+&",
"&+XoOOOOOoO%&&%&&%&&%OOOOOo6xa0w0w0yw=oOOXO%&&&&&&&&%OoOoOOOoo#&",
"&#XoooooooX+&&%&&&&&OXoooo.5xaqwww0yq@.OOoX+&&%&&%*%+ooOooooo.#&",
"&%+####+@%@+%&&&&%*%$#%$##O7zaqwww0yw*O#%$##%&%&*%%&####@@++++%*",
"&&&&&&*&&&&&&&&&&&&&*&&&*&&7lawwwwqrw>#&%%%&&&&&&&%*%&&&%&&%&&&&",
"&*%&&%&&&&%&&&&&&&&&&&%&&&%7kawwww0r0@oOOoO%&%**%%&%##O#O##O##%&",
"&#oooooooooO&&%&&%%&$$O#O+O5jawwwwwr0@.o.o&&&&%**%&*%Ooooooo..#&",
"&#.ooooXXXO&&&&&&&&&%Ooooo 4hpwwrwwr0%OO#%&&%%&*&#%**&OOOOOOoo#&",
"*#ooOOOOO#&&&$$&%%$&&&#oOOo4giwrwrww8@O@&&&&#o%&%.O%&&&#OOOOOo%&",
"&#oO+OO+#&*&O.O&&OX$&&&#OOO4fiwwrwww8@@&&&&#o.%*%. O%&&&#OOOOo%&",
"&+oOOOO#&*&#..$&&$..#&&&$OO4dywwww0w8=%=&&#.oo%&%oo.o&&&%#OOOo#&",
"*#oO+O$&&&#.Xo$&&%o..#&&&#o3sy0www0q7-&&&Ooooo%&%oOo.#%&&%###O#&",
"&#ooO#&&&#.XOo$&&%ooo.#&&&#2st0000007-&%OooOOo&&%oOOo.O%&&%#oo#&",
"&#oO@&&&$.XOoo$&&$oOOX.$&&&2ar9000807>%OoOOOOo%*%ooOOo.#&&&&#o$&",
"*#o+&*&#.XOOOo$&&$oOOO..$&%5pe8000886=OXoOOOoo%&%oO#O#oX#&&&%#$&",
"&+O&*&#.oOOOOo$&&%oOOOOX.#%5iw8888786%.O@OO@Oo&*&.oOOOOoo#%&&%%&",
"&%&&&+.XOO#OOo$&&$oOOOOOX.O3yw7888674OoOOOOOoo%*%oOOO##Ooo#%&&&&",
"&&*%O..oOoOOoX$&&%ooOOOoOo 1y06668664@oOOOOoOo#*%ooOOOOOOO.#&&&&",
"&&&%..ooXooooX$&&$oXOooooo.:t06666461Ooooooo.o&*&OoooXXXXX.o%&%&",
"&%&#O+###$$$$$%&&%%$$$%%+$+<r04644464=@&%&%%&&&&&&$&%%%%%%%%&&&&",
"&&&&&&**&&&&&&&&&&&&&&&&&*%1r84444444==*&&&*&&&&&&&&****&&**&&&&",
"&&&&%&%%%&&&%&&&&&&&&%&%&&%<w81444142&%%%#%%%%&*&&$&%%%%%%%&&&&&",
"&%&%#ooOoooooo#&&%O$$O##O$#<w8111112,o.ooooooO&&&Oo.XXXX..o%&&%&",
"&&&&%OXXXoXoX.#*&$XXoXoooOO,06111111:@ooOOoOoo%*%ooOOOOooO%&&&&&",
"&&%&*%#OOOOOOX#**$ooOOOoO$$<06:::::1:-#OOOO#Oo%&%oOOOOOO$&**&%$%",
"%#O%**%#O+OOoo#*&$oO#OOO#&&>84::::::>-&#OOOOOo%&%oOOOOO#&&&&$o$&",
"%#XO%*&%#OO+Oo#&*$OOOOO#%&*%;,======*&&&#OOOoo%&%oOOOO#&&&&$oo$&",
"&#XOO%**&#OOOo#*&$oOOO$&&&%#oO%*@@@o$&&&%#O#Oo&&%oOOO#%&&&$Ooo$&",
"&#oOOO%*&&#Ooo+&&%oOO$%&&&OoOo@&@X@oo$&&&&#OOo%&%oOO#&&&&$oOOo#&",
"&+oOOoO&&*%@Oo#&*$oO$%*&&OOOOO$&@XOOoo@=&&&#oo%&%oo#&&&&%ooOOo#&",
"&@oOOOOO&&&&Oo#&%%o$%&*%OoOOoo$%@XOOOOo$&&&&#o&*%o#&&&&$oO#OOo#&",
"&+oOOOOoO%&&%O#*&$O%**%OXooooXO%OXooOooo#%&&%O%&%O%&&&%oO#OOOo#&",
"&+oOO@OOOO&&&%%&&%%&*%OoOOOOoX+%OXoOoOOoo#&&&%&&&&&&&%OoOOOOOo$&",
"&+ooOOOOOOO%&&%&&&&&%OoOoOoOoo%&$oOoOOOOoo%&&&&&&&&&%ooOOOoOoo$&",
"&@.oooooXXoO&&%&&%&%+oooOoooXX$*$.ooooooo.o%&&&&&&&%oXoooooXo.$&",
"&%##+###++++%&&&&&&%$$$%$$%$$%%&%$+$$++@$%$$&&&&&%%%$%$$$$#$#$&&",
"&&&*&&&&&&&&&&&&&&&&**&&*&&*&&&&&&&&&&&&&&&&&&&&&&&&&&*&&&&&&&&&"
};
