/* XPM */
static char *result[] = {
/* columns rows colors chars-per-pixel */
"64 64 87 1 ",
"  c #000000",
". c #0D0907",
"X c #07080B",
"o c #090A0E",
"O c #0C0D11",
"+ c #0F1116",
"@ c #0E1119",
"# c #111217",
"$ c #1A1816",
"% c #13141B",
"& c #16181F",
"* c #151721",
"= c #171923",
"- c #1A1C25",
"; c #1D1E28",
": c #1F202B",
"> c #21232E",
", c #242632",
"< c #262835",
"1 c #2D2C34",
"2 c #25293A",
"3 c #2A2D3C",
"4 c #2D303F",
"5 c #453C35",
"6 c #4A4139",
"7 c #292D40",
"8 c #2E3141",
"9 c #2F3549",
"0 c #313546",
"q c #333749",
"w c #373B4E",
"e c #383D4F",
"r c #373C50",
"t c #383D50",
"y c #413E41",
"u c #3C4156",
"i c #3E4359",
"p c #444246",
"a c #464449",
"s c #48454A",
"d c #584D44",
"f c #40455C",
"g c #504F59",
"h c #51505A",
"j c #565560",
"k c #6B6866",
"l c #6E6B69",
"z c #7D7B7A",
"x c #928173",
"c c #818181",
"v c #898785",
"b c #8C8886",
"n c #908C8A",
"m c #9C918E",
"M c #9D9996",
"N c #A69282",
"B c #A99484",
"V c #AB9E99",
"C c #AEA19C",
"Z c #BFA997",
"A c #B1A5A0",
"S c #B1A9A5",
"D c #BBB3AD",
"F c #BEB6B1",
"G c #C1AB9A",
"H c #C5B3A5",
"J c #C9B7A9",
"K c #C3BAB4",
"L c #CEBEB4",
"P c #CFC0B5",
"I c #CAC1BB",
"U c #D2C1B4",
"Y c #D3C4BA",
"T c #D8C6BC",
"R c #D5CAC2",
"E c #D9CCC4",
"W c #DDD2CB",
"Q c #E0D5CF",
"! c #E1D6D0",
"~ c #E2D8D2",
"^ c #E6DFDA",
"/ c #E9E1DC",
"( c #EDE5E1",
") c #EFE8E5",
"_ c #F0E6E0",
"` c #F2E9E6",
"' c #F5EEEA",
/* pixels */
"((''!W!YWW!~EPYh7rrrrrrrrtttrrrtttrtttttrrrtttrrrrrrrrrrrrtrrttt",
"((EMK~!YW!W~EPYh7rrrttrrrttrrrrrtrrrttttrrrtttrurrrrrrrrrrrrtttt",
"((KzD~WYWWW~ELYh7rwwrrrrwwrwrrwwrrrrrrrrrrrurrrrrrrrrrrrrrrrtttt",
")/FzD~~YWWW~ELYjrfyfiiiiiiiiffyffitffftfuffyiiyfiiiffiuurrrrwttt",
"(/DlS^!YW!W~ELYg2wqqqqqqqqqqqqq00qqqqqwqqqwqqwwqqqw08wfutwtwttwt",
")()/WW!YW!W~ELTp*,,:>,>,>,,>>,,-&,,,,:,>>>>>>>>>>,;=:rirwwttwttw",
"/(`/WW!YWWW~RLTa-<,,<,,,<<,,<,<;=<,,,,,,<,,,<,2>2;-2yfrrtttwwwwt",
"_(`/WQ!YWQW!ELTp-<,,<,<,,,,,,,<--1,,,,,,,,<,,,>2;->tfrrrtwwwwtwt",
")()/WW~YWWW!ELTy*<,,,,,,,,,,,,,-=,,,,,,,,,,,,,,:=,fywwttwtt00rwt",
"((`/WW!YWQQ~ELTyO>,,,<,,,,,,<,,;=<,,,,,,,,,,,,:=,ifwwttwwwq8wwwt",
"(/`/WW~YR!QQ!TYV1&>,,,,,>>>:>>>-&>>>::>:>,,,2:=:tfwwttwwrq3qfwtt",
"())/W~~WYRQELWLEm*=>,,,*&====&-&&===-*-&;1,,:=>iirwttwwwq8,qywtt",
"(/`/WWWWWYRWLWTLA,;-:,,=;>,,,,,,,,,,,,>;-,,:->iirrrrwtw072:wfrrr",
")/`/W~WE~!YE~!TTA22>;:1-:,,,,,,,,,,,,,,:-<:-,tirrrrrwwq8,,,9frrr",
"((`/WEHGH^WYW~YTC304;=-&-:::;>;;:::::;:--;%>yfrrrrrrwq7<,,>9frrr",
")()/WLB5.M(YW!LTA3qq3-%%---------------&#%-tfrrrrrrrq8,,,,2ryrrr",
"(/)/WYd  x'PW~YYA3qu94-+=;;;;;;;;;;;;;;&O;tiwwrtrrr931,,,,>qyrtt",
")()/WU6  c)IW~YTA3qrr94%o######%###%##+o&ifwwrttrr03,,,,,,>qfttt",
"())/WU5  c`PW~YYA3qrww03O              oriwwttrwrq3<,,,,,,>qfrtt",
"(/)/WU5  c`YWWYYA3qrrwwq4O            Otiwwttwwrq7<,,,,,,,>qirtt",
"(()/WU6  c`YW!YYC39wwwwwq3O          otiwwrrwrwq3,,,,,,,>2>qirrr",
"(()/WU5  c`UW~YTS90uwuwwrq4O        Otiwwwtwwwq3;;,,,,,,,2>9irrr",
"((`/WU5  c`YE~YTC8uwwwuwww03O      otfwwttwrwq3>-;,,,,,,,,,9ytrr",
"((`/WU5  c`PW~YTC%qiwwwwtweq4O    otiwwttwtwq1---;<,,,<,,,,rfrrr",
"(()/WY5  c`YWQUTCXXwfwwttwwrq4+  Orfwwrewwrq3oO>-:,,,,,>,,>qyrtt",
"(()/WU5  c`UW!YYC+ oriwwwtrwwq3ootfwwwtwewq3O %;-;,,,,,,<,,qfttt",
"((`/WU5  c`YWQYTCO  Xtfwrttwwrq3wfwwttwrwq3O  #;-;,,4434741wirtt",
"((`/WU5  c`UW~YTCO   otiwwterwwwtrwrtwrwq4o   #;-:,,4488787wirtt",
"((`/WP5  c`YW!YTCO    Xriwwttwwtwettwwtq4.    #;-:,,8788787rirrr",
"((`^WP5  c`YW~YTCO     Xtfwwttettttwrwq3O     #;-;,,,,,,<<,qirrr",
"((`/WU5  c`UW~UTCO      Xwfwwrtwwtweeq3O      #;-;,,2121227qytrr",
"(()/QP5  c`YE~YYCO       Xwiwwtwtewwq3o       #;->,,4888887rftrr",
"(()/WU5  c`PW!YTCo       Xwuwwuwtwwt03o       #;=;,,3888483ryrrr",
"(()/WU5  c`YE!YTC+      ouiwwwwrttwttq3O      #;->,,133<<1<wfrrr",
"(()/WU5  c`UW~YTC+     ouiwwuwwwrrtwwrq4+     #;=;,,,<,,<<,qfrtt",
"(('/WU5  c`PW~YTCo    Xuiqwuwwwwwwtttweq3O    #;->,<4444783rtrtt",
"(()/WU5  c`YW!UTCO   ouiwwwwwrwufwwrtwwwq3O   #;-;,,4444783wfrrr",
"(()/WU5  c`YW~YYCO  Xuiwwuwwwwq4wiwwttwtwq3O  #;=>,<3444333wfrrr",
"((`/WU6  c`UWWYTCo Ouuwwwwwrwq3oXwfwwttwewq3O #;->,>,,,,<,,qfrrt",
"(()/WU5  c`YW~YTCXouiwwwuwuwq4o  Xtfwwrtweeq4Oo=&;,,,,,,,,:qfrtt",
"((`/WU5  c`UW~YTV+wiwwttwtwq3o    Xeiwwttwwtq3=%*;,,,,,,<,>qyrtt",
"(()/WU5  c`YW~YTC8trrrtwwtq4O      Xefwwetwweq4-%;,,,,,,,,>qfrtt",
"(()/WU5  c`PW~YYS0qtwtwwwq4O        Xtiwwrtrrwq3-*:,,,,,,,>qfrtt",
"(()/WU5  c`YE~YYC3qtwrwr03o          Xwfwwttwwrq3:-:,,,,,,,qyrtt",
"(()^WU5  c`YW~YYA7qrtrwq4O            Xtfwwwtwtwq3>-:,,,,,,qfrrr",
"(()/QU5  c`UW~YTA3qrww03o              .wiwrrtwweq3>-:,,,2>qfrrr",
"(('/WY6  c'PE!YTA3qrw04&+##O%%O###%#%#%O%uiwrwrrweq4>;:,,,>qfrtt",
"((`/WUx$ v`PW~PTA3qtq3>%&:::::::;;;;;;;=%>tfwwwtwweq7:;::2,9irtt",
"(()/~YZNxR~IW~YYC3uu<==$&:&::&:&-=-=---&&&:uuwwwtwrwq8>-:,>qyrrr",
"(()/WWPJE!YEW~YTS333>:>&::::::::>;>>::>-&::>uuwuettwwq3>;:>qfrrr",
"(()/W!!~WPE~W~YTS<22><<=:<:<<<,,><,,,,>::,,,<uiwwttwwwq8:;;qfrrt",
"(('/WWWWPE~WPWYYS>>,<><&::,,<:,<,,,,,>>:-,,,,<iiwwttwwwq8:-0frrt",
"(()/WW!YR!WWPWYTM&>,,,<-&&:&&&=&&--&-&=&:<,,<><iyrrrrwwrq3:7frrr",
"(()/W!~YWQQW~YYC1:<,><>>:::::::&%>;>>>>:>>,,,<><ifrrrrtwrq3wirrr",
"(()/WW~YWQW~ELTs&<,,<,,<2,<<<<<:-1,<,,,,,,,,<><>2tfrrrrwrrq8wrwr",
"(()/WW~YWQW~ELYa-,,,,,,,<,,,<,,:=<,,,,,,,,,,,,,,,2tfwwrtwrr00rrr",
"(()(WQ~YEQW~WLYa=<,,,,<,,,,,<<>:=<,,,,,,,,,,,,,,,,1ufwwrtrwwwtwt",
"(()^WQ!YW!Q~RLYa&,>>>>>>>,::::>:=,>,>>>>>>>>>>>:>,:,tfwrtttwwwwt",
"(('`WW~YWWW~ELYy@;------:::=:::%#;-------:--::=:--;->rfrwettewtt",
"((InF~QYE!W~ELTs-<<>2<<<<:<,,,<>,<<,<<<<<<<<,,,<<<,<,3tiwrtwttwt",
"((DkA~!YW!W~ELLg2u430404u4u40qqq000qqqqqqq0qqqqqqqqqqqqftwtewrtw",
"((KvF~!YE!W~ELYg2uuuuuuuu0uuquuquwuwrwwwtwtewwewrwwwewwrtwterttt",
"((KbF!QRW!!!ELTg3u0uu0u00u4uwwwwwwwwwwtwwrwwtwwwrwrwwrrrtttwrttt",
"(('`QW!LWQW~ELTg2quu0u0uu0uuwwuwwuwwuwwutttttttttttttetttttwtttt"
};
