/* XPM */
static char *result[] = {
/* columns rows colors chars-per-pixel */
"64 64 93 2 ",
"   c #000000",
".  c #0B0805",
"X  c #060709",
"o  c #090A0E",
"O  c #0C0D12",
"+  c #0F1016",
"@  c #0E1019",
"#  c #101117",
"$  c #13141B",
"%  c #1C1A18",
"&  c #141621",
"*  c #171922",
"=  c #1A1C25",
"-  c #1D1F29",
";  c #1F202B",
":  c #21232E",
">  c #242632",
",  c #262835",
"<  c #2A2B36",
"1  c #262B3C",
"2  c #2A2D3C",
"3  c #2D303F",
"4  c #433B35",
"5  c #483E37",
"6  c #483F38",
"7  c #4E443C",
"8  c #2E3242",
"9  c #2F3448",
"0  c #313546",
"q  c #333748",
"w  c #373B4E",
"e  c #383D4F",
"r  c #373C50",
"t  c #383D50",
"y  c #413D41",
"u  c #3C4156",
"i  c #3E4359",
"p  c #444246",
"a  c #464449",
"s  c #5B5047",
"d  c #4F4E56",
"f  c #40455C",
"g  c #515059",
"h  c #555560",
"j  c #6E6B69",
"k  c #7C7977",
"l  c #7E7E7E",
"z  c #8D7D70",
"x  c #807D7B",
"c  c #958476",
"v  c #868483",
"b  c #8A8684",
"n  c #8C8986",
"m  c #9D928F",
"M  c #9B9592",
"N  c #A89483",
"B  c #AB9E99",
"V  c #AFA29C",
"C  c #BFA896",
"Z  c #B0A29D",
"A  c #AEA7A2",
"S  c #B2A5A1",
"D  c #B5A8A4",
"F  c #B6AEA9",
"G  c #BBB2AD",
"H  c #BFB7B2",
"J  c #C4B2A3",
"K  c #C0B6AF",
"L  c #CAB7A9",
"P  c #C5BBB5",
"I  c #CEBDB4",
"U  c #CFC1B6",
"Y  c #C9C1BA",
"T  c #D3C2B5",
"R  c #D3C3BA",
"E  c #D8C6BC",
"W  c #D6C9BF",
"Q  c #DCC9BF",
"!  c #D5CAC2",
"~  c #D9CCC4",
"^  c #DBCFC8",
"/  c #DED3CC",
"(  c #E0D5CE",
")  c #E2D7D1",
"_  c #E2D8D1",
"`  c #E6DFDA",
"'  c #E9E1DC",
"]  c #EDE5E1",
"[  c #EFE8E5",
"{  c #F0E7E2",
"}  c #F3E9E3",
"|  c #F3EDEA",
" . c #F8EFEA",
/* pixels */
"t t e t w t t t t t w w e w w r w w w w r w w w w e w r r r r r r r w w w w t w r r r r r r r r r r r r r r t t t t t w t t t t ",
"t t t w t w w t w w t w t t t t r w t t t t t w t t t t t t r r t t r w t t t t r r r r r r r r r r r r r t r r w r w t w t t e ",
"t t t w t w w w w w w w w w w w w w w w w w w w w w w w t r r t w w w w w w w w r r t t w r r r q w r r w q r q w w w t w t t t ",
"w r w w w w w w 0 w i i i i i i i i i i i i i i i i i u t f i t i u i i u i u f f f f y y f f f i i i i i f r 0 w w w t e w t w ",
"t t w w t w w t 0 3 q 3 8 q q q q q q q q q q q 0 q w w w q q r w q q w w w q q 0 q 0 q q 0 q q q q 0 0 0 q 8 0 r w w t t t w t ",
"w w t r e t w w w q < ; * ; : : : : : : : : : : : : 2 2 2 > > 2 2 , > 2 2 < > : : : : : : : : : : > > > > 2 0 r w e e r r w t w ",
"e w w w w e t e w w q 3 : ; : : > > > > > > > > > > 2 2 2 , < 8 8 < > 8 2 2 > > , > > , > > > > > > > > 2 q r w e t r w w w t e ",
"w w t u w w w t w w w 0 3 : * : > > > > > > > < > > 2 8 2 , < 8 8 < , 2 8 2 > > > > , > < > > > > > > 2 0 r r r t t w w t w w t ",
"u q u i u u w u u w w w 9 3 ; * ; > > > > > > > > > 2 2 8 > < 3 2 < > 8 3 2 > : > > > > > > > > > , 2 0 w w e e t w w u t w t t ",
"q u q 0 u u q w w w w w w q 3 ; = : > > > > > > > > 2 8 2 > < 3 8 < > 2 3 2 > , > > > > > > > > > 3 q w w w t e w w i f i w t r ",
"u u u 3 , u i w w w w w w w q 3 : = - > > : > > > > 2 2 8 > < 3 8 1 > 8 3 2 , , < > > > > > > > 2 0 w w w t w w w i t q i w t w ",
"u 0 u q ; ; u i w w w u w w w q 2 : = ; > > > > > > 1 8 8 > < 3 2 < > 2 3 2 : : > > > > > > > 2 q e w w t e w w i t : 0 i w t w ",
"u 0 u 3 , * : u i w w w w w w w q 2 : - - > > > > > > , , , : , > > > , , , : , > > > > > > 3 0 e w w t e w w i u : * q i w r w ",
"0 u u 0 , ; ; < u u w w w u w w w q 2 : = ; > > > > > > : : , > > > : > > > > > > > > > , 3 0 w w w t e e w u u : - - q i w t w ",
"u u u 3 , = ; > , u u w w w w w w w q 2 - $ - - - : : - : : ; ; : : ; ; ; ; - ; ; ; ; : 3 0 e w w t t w e u u : * : : q i w t w ",
"3 u u 3 , ; : , : , u u w w w w w w t q 2 - # * % = * * = * * * * * * = * = = * = = ; < 0 e w w t e w w u u : * : > : q i w t w ",
"u u u 3 : = : , : : , u i u u 0 u u 0 u 3 < ; $ * ; ; * ; = ; = = - = - = - = ; = ; 2 q w w w w r w w i u : * : > > > q f w w w ",
"u 0 u 0 , = : , , : : , u u 0 u u 0 u 0 u 3 2 * o + + + # # # # # # # # # + # + = 2 0 w w w e r w w i t : * : : > > : q f w e w ",
"u 0 u 0 , ; : , , , , : , u u u 0 u 0 u 0 u u , O                             o < q w w w t r r w i i : * : > > : , : q f w e w ",
"0 u 0 0 , = : : : , , : : , u i 0 u u 0 u 0 u 0 3 +                         o 2 q r w r w r r w t i ; = ; > > : > , : q f w e w ",
"u u u 0 , = : , , , , , , : : u i 0 0 u u 0 u 0 3 2 O                     o 2 q w w r r r w w i t > * : > > > > > , : q t w w w ",
"0 0 u 0 , = : , : , : , : , = - u u u 0 0 u 0 u u 3 2 +                 o 2 q w w w w r w w t u = * : > > : > , > , > q f w t w ",
"u 0 0 8 , = : , , , , , , , : * = u i u 0 u u u q u 0 3 +             o 2 q w w w w w r w u u - @ - > > > > > > > > : q f w t w ",
"u u u u , = : : : , : = * = * $ $ $ 8 u u 0 u 0 u q u q 3 +         o 2 q w w w r w w w i r $ + # * = * = : , > > , : 0 f w t w ",
"0 u q 0 , = : , : , ; $ - - = * * O . u i w w w w w q w 3 1 O X   O 2 q w w w r w w q f t O o $ % = ; ; $ : , > > > : w y r t r ",
"u 0 u 0 , - : , , , : * : : : = = % . . w u w w w u w w u 3 2 O o 2 q w w w r w w w i r o   O = * ; > : * : > > > , : w f r t r ",
"q u u 3 , = : , > , : * : , - = ; $ X   X u i w q u u q 3 u 0 , < q w w w w w r w i t o     # - = ; > > * ; > > > > : q t r t r ",
"u q u 0 , = : : > > : * , , - = ; $         u i u w q u u u u 3 q w w w w w w w f t O       # - = ; > > * : > > > > : q f r t r ",
"e q e 0 , % : , > , : % , , - = = +         X u u q u w u q 0 u w w w r w w w u r o         # = = ; > > * ; > > > > > q y r t r ",
"u u u 0 , = : , : > : * > > : = ; +           o u i q q q u u 0 w w r r r w i t o           # - = ; > > * ; > > > > : q f r t r ",
"q u q 0 , - , , , , > * > > = = ; #               u u u u q u u w t r r r u t O   .         # - = ; > > * > , , , , > q f r t r ",
"u q u 3 : $ % * * * $ $ > > : * = +               X w i 0 u u 0 t w r r r w o               # - = ; > > & & * * * * & 9 f r t r ",
"e w e q > $ = = - - = $ > > ; = - #               o 2 t w r r w w e t w w 2 O               # - * : : > & * = = - = * 0 y r t r ",
"t e w q , = > , > < : = > > ; = - #             O 2 q w w w t w t t t w w q 2 O             # = - - > > * : , , , , > q f t t r ",
"t w w q , = : , : > : $ > > : * - #           O 2 0 w r w w w w w w t w r w q 2 +           # - * ; > > * : , > > > : q t r t r ",
"t e w q > - : > , > : * > : : * - #         o 2 0 w w w t w w w w w w t w w w q 2 O         # - = : > > % ; , > , , > q f r t r ",
"t w w q , = : > > > : $ > > ; = - #       O 2 0 w w w r w w w i i w w w r t w w q 2 O       # = = ; > > * ; , : > > > q f t t r ",
"t w e q , = : , > , : = > > ; * - #     o 2 0 w w w e w w w i w q i w w w w w w w q 2 O     # - = ; > > * ; , > > > : q t t t r ",
"t e w q , - : > : , : * : > : * - $   O 2 0 w w w e w r w i t o X w i w w w r w w w q 2 O   O - = : : : * : , > > > > q t r t r ",
"t w e q , = : > , , : $ - ; - * - O o 2 q t w w t w w w f t O     X r i q w w u w w w q 8 O o * * = : ; $ : , > > , > q f r t r ",
"t w e q > = : > > > : * * * $ $ # $ < q r w w t w w q f t o         X r i w w w w r w w q < $ O @ $ * * * > > > > , > q y r r r ",
"t w e q < = > > , > , > > < : * : 2 q w w r t w w w f t o             X r f w w w w w w w q 8 = $ - > > > > > > > > > q f r r r ",
"t e w q < = : > > > > > > > = - 2 0 w w w w w w w i t O                 X w i w w w w w w w q 2 = $ : > > > > > > > > q f r r r ",
"t w w q , = : > > , > > > > > 2 q w w w r w w w f t o                     X w f w w w r w w r q 2 : = - > > > > , > : q t r t t ",
"w w r q , = > > > > > > > , 8 q r r r r r r w i u o                         X t i w r r r r r r q 2 > = : > > > > > > q f r r r ",
"w w w 9 , = ; > > : > ; : 1 8 q q q q 9 q 0 r w o                             X q t 9 q q q q q q 8 < - * : > > > > : 9 f r r r ",
"u w r 9 , ; > , , < ; = > , 2 1 1 3 1 8 2 8 8 + X O O O O O O O + O O O O O O o # 8 8 2 1 2 8 1 2 2 1 > & * > , , > : r t q r r ",
"1 1 8 1 = @ & * * & < m S S S S S A S S S D Z V Z Z Z Z Z Z Z Z V V V Z Z Z Z S V S D S S S A S S S Z S m , O & * * & 8 9 1 8 8 ",
"g g g d p y p a a a B ~ I E E E R R E R R E R ! I ~ E I ! E E ! I ~ I ~ E ! I ! E E R R E R R R R R R R ~ B p y y a a d h g g g ",
"R R R R R R R R R E E I ! I E I U R R R R R ! I E I I E I R I R I I ! I I R R R R R R R R R R R R R R R T R E R R E E I R R I R ",
"I I U I I I I I I I E ~ ~ ) ) ) _ _ _ _ _ ) ) ) ) ) ` ) _ _ _ _ ' ) ) ) ) ) _ _ _ _ _ ) ) ) ) ) ) ) ) ^ ~ R I I I I I I I I I I ",
"! ~ ~ ^ ~ ~ ~ ~ ~ ~ ( I I ( ( / ^ ^ ^ ^ ^ ^ ^ ^ ^ ^ ^ ^ ^ ^ ^ ^ ^ ^ ^ ^ ^ / ^ ^ ^ ^ ^ ^ ^ ^ ^ ^ ^ ^ ) T I ( ~ ~ ~ ~ ~ ~ ~ ~ ^ ^ ",
"( _ ( ( _ _ ) _ _ ( / / ^ ) ~ T T T U T U U R T I E R T R T T U I I I E T U U T I R U R T U U T T R ~ / ^ / ( ) ) ( ) ) ( ) ) ) ",
"/ / / / / / ^ / / / / / ) ~ T ) { } | } | } } } } } } } | { } }  .} } } } } | } } } } } } } } | ] ( R ! ) / / / / / / / / / / / ",
"( ( ( ( ( ( ( ( / ( / ) ~ U ) ! v l l l l l x x l l l l l l l l l v x x l l l l l l l l l l x l M ` / T ! ) / ( ( ( ( ( ( ( ( ( ",
"^ ^ ^ ^ ^ ^ ^ ^ ^ ^ / ! U / ^ z                                                                 X J ) / R W / ^ / ~ ^ ^ ^ ~ / ~ ",
"R W W T W W T W R R W W / / L N %                                                               3 C ! _ / W R W R R R R R R R W ",
"/ / / / / / / / / _ / ) / / U C c 7 5 6 6 6 5 5 6 6 6 5 6 6 6 6 6 6 6 6 6 6 6 6 7 7 7 4 6 6 4 s c J / / / / / / ( ( ) ( / ( / / ",
"/ _ / ' / / / / / / / / / / / R I T R I T I T T T T T T T T I R T T T T T T T T T T T U T T T T Q / / / / / / / ( ( ^ _ _ ) _ / ",
"/ G G A H / / / / / / / / / / / / / ( / ( ( ( ( / ( / / ( ( ( / / / ( / ( / / / / / / / / / / / ( ( / / / / / / ^ ( ( V F F P _ ",
"} b b j n [ ' ' ' ' ' ' ' ' ' ' ` ` ' ' ` ` ` ` ` ` ' ` ` ` ' ' ' ` ` ` ` ` ' ` ' ' ' ' ' ' ' ' ' ' ' ' ' ' ' ' ' ' ' j x k M  .",
"| Y Y G Y [ [ [ [ [ [ [ [ [ [ [ [ [ [ [ [ [ [ [ { } [ | [ ] [ [ [ [ [ [ } [ [ | [ | [ [ [ [ [ | } } } } [ } [ [ [ [ [ K P P ! | ",
"' ' ' ' ' [ ] ] ' ] ] ] ] ] ] ' ] ] ] ] ] ] ] ] ] ] ] ] ] ] ] ] ] ] ] ] ] ] ] ] ' ' ' ' ' ' ' ' ' } ' ' ' ] ' ] ' ' ] ] ' ] ' ] ",
"[ [ } ' ] ] ] ] ] [ ] ] ] ] ] [ ] ] ] ] [ ] [ ] ] ] ] ] [ ] ] ] [ ] ] ] ] ] ] ] [ [ } [ [ [ [ } } ' } ' ] [ [ ] [ { ] ] ] ] ] ] "
};
