/* XPM */
static char *result[] = {
/* columns rows colors chars-per-pixel */
"64 64 86 1 ",
"  c #000000",
". c #0D0907",
"X c #060709",
"o c #07080B",
"O c #090A0E",
"+ c #0C0D11",
"@ c #0F1116",
"# c #0E1119",
"$ c #111217",
"% c #1A1816",
"& c #13141B",
"* c #16181F",
"= c #151721",
"- c #171923",
"; c #1A1C25",
": c #1D1E28",
"> c #1F202B",
", c #21232E",
"< c #242632",
"1 c #262835",
"2 c #2D2C34",
"3 c #25293A",
"4 c #2A2D3C",
"5 c #2D303F",
"6 c #453C35",
"7 c #4A4139",
"8 c #292D40",
"9 c #2E3141",
"0 c #2F3549",
"q c #313546",
"w c #333749",
"e c #373B4E",
"r c #383D4F",
"t c #373C50",
"y c #383D50",
"u c #413E41",
"i c #3C4156",
"p c #3E4359",
"a c #444246",
"s c #464449",
"d c #48454A",
"f c #584D44",
"g c #4E4D56",
"h c #40455C",
"j c #504F59",
"k c #51505A",
"l c #565560",
"z c #6B6866",
"x c #7D7B7A",
"c c #8C7C6F",
"v c #928173",
"b c #818181",
"n c #898785",
"m c #908C8A",
"M c #9C918E",
"N c #9D9996",
"B c #A69282",
"V c #AB9E99",
"C c #AEA19C",
"Z c #BFA997",
"A c #B1A5A0",
"S c #B1A9A5",
"D c #BBB3AD",
"F c #BEB6B1",
"G c #C1AB9A",
"H c #C5B3A5",
"J c #C9B7A9",
"K c #C3BAB4",
"L c #CEBEB4",
"P c #CFC0B5",
"I c #CAC1BB",
"U c #D2C1B4",
"Y c #D3C4BA",
"T c #D8C6BC",
"R c #D5CAC2",
"E c #D9CCC4",
"W c #DDD2CB",
"Q c #E0D5CF",
"! c #E1D6D0",
"~ c #E2D8D2",
"^ c #E6DFDA",
"/ c #E9E1DC",
"( c #EDE5E1",
") c #EFE8E5",
"_ c #F2E9E6",
"` c #F5EEEA",
/* pixels */
"yyyyyeyyyyeieieettttttttttttttttyytttttttttyyty8lYLE!QQWI!Q!``((",
"yyyeyeeeyyeieeeitttttyttttyyttttyytttttttttttty8kYLE!W!WYQ~KNE)(",
"yyyyeyeyeeeeeeeetttytttttttttttyttttttttttyytty8jYLE!QQWYQ~SxK((",
"eyeeyyyyiippppiiphhuhuhhypphphhuuhhhypphphhuuhh0lTIE!WQEY!^DxK((",
"yeyyeyyephe9qewwwwwwwwwwtewwewwqqwwwtewwwweweww8jTLE~QQWYQ~SzK((",
"eyeeyyyeeii>*>,,,<<<<,<<,,,,,<<=;<<,<,,<,<<,,,<=uYLE!QQWY!QW~)((",
"yeeeeyeyiepi>>><<<<<<<<<3<<<<<3;:<<<<<<<<<<1<<2-uTLE~QQEY!QW/)((",
"yyyeyeeyeeepi>>><<<<<<<<<<<<<<<;:<<<<<3<1<<<<<<-uELE~WQWY!WW/)((",
"iii55iiieiiwii>-,<<,3<<<<<<<<<<;:<<<<<<<<<<<<<<=uYLE~WWWY!QW^_((",
"qqii4999eewiiip>-,<<<<<<<<<<1<1;:<<<<<<<<<<<<<,+aTLE~WQWY!QW^_((",
"iiqii1iieeewwipp3-><<<<<,,>,,>,&-,,>>,,><<<<<,=<VYTQQW!RRQQE/)((",
"iqiii,3iieeiiwipy,-,<,<:&-----;*&;-;---=;<<<,-=MEYELW~EYQQQW/_((",
"0iwi5>144ii5iiqipp,-><2;>,<<<<<<<<<<<<,:;<<>::,AYYEUWEYWQQQW/_((",
"i0iii<<144iiqiiqtpy<;><;><<<<<<<1<<<<<<>;<>:,43ATY!!EYQ!RWQW/_((",
"iwwp9><<<4iiiiiqtthu>&;-;>>>:>,,,:>>>>>:*:*:5q4ATY~WYW^HGHEQ/)((",
"wiiii><<<14955iittthy:&&*;;-;;;;;;;;;;;;$&;4qw4AYT~EY(N.6BLW/_((",
"iiwiw,1<<<14wiqi0iwiii;@*>;>;>:;:;;:>;;-+:50tw4ATY!WY_x  fYW/_/(",
"iwiiw,<<<1,12qiiiqiwqpp%O@$$$$$$$&&$$&$O&50tt04ATYQWY_v  6YW/_/)",
"wiwiw,1<1,1,14iiwiwii0iiO              +4wytyw4ATY!WY_b  6YW/_((",
"iwiiw,<<11,1<11qiwiw0iiii+            +5wetttw4AYY~EY_b  6UW/_/)",
"iiipw,1<<,1,1,<4qiiqiiq0iiX          +4weeeyyw8ATY!EY_b  6YW/_((",
"00ipw,1<1<<1<1>>2qqiqiiiiiio        +4wyeyyeyw0AYYWWY`b  6UW/)((",
"iquiw,<<,1,<<<>*>4wiwiwiwepi+      +5wyeyeyeyy9CTY!WP_b  6UW/)((",
"wiipw,<11111<<>;;-19iqiweieii+    @4weeeyyeehw$CTY~WP_b  6UW/)((",
"iiqpw,1,1,,1,1>;>@+4wieeieewiiX  +4wtettyeehyoOCTY!EY_b  6UW/_/(",
"iqipw>11111111>*:$o+4weewiiiiiiXO4werrtreepeO +CTY!WP`b  6YW/_((",
"iwwii14454441,,*>@XX+4qiwiwi5ii54wrrrttrehyo  +CTY~WY_b  6UW/_((",
"wiiii495555511>:;@XX O2wiwiwiiiiyrrrrtrepyO   +CYY!WY_b  6UW/_((",
"irwii299559511>*>@    +55iiqiiqirrryteepyo    +CTY!WP_v  6YW/)((",
"rripw,11<111,1>;>@     @1qiwiqiirrttrehto     +CTY~EY_b  6UW/)((",
"iwrpi,11121111:;;@      O5iiq5i5eteeehto      +CYY~WY_b  6UW/_((",
"wiwpi19999991,>*>@       O1qiiiirteepeo       +CTYQWY_b  6UW/)((",
"yytyr4q45555<<>;:$       O4weyeyrteepro       +CTY!WY_v  6UW/)((",
"ytrhr1141424<,>;:$      @4weyeyyytrrepy+      +CTY!EY_b  6YW/_((",
"yythw<1<11<<<<>;:$     +5qyeeyyyrttteehy+     +CTY~WY_b  6UW/_((",
"tytyr4545955<<>;:$    +4weeeyyeerertttehy+    +CTY~EY_b  6UW/_((",
"yyrhe45q59551<>;;$   @4weyeyeeepyeeretreiy+   +CTY~WY_b  6UW^_((",
"yyyye4444444<<>;>$  +5weeeyyeepy4wttttteepy+  +CYY~EY_b  6UQ/_((",
"rrrhw<<<<<1<<<>;;$ +5weeeiyeehyo+4werrtteehy+ OCTY!WY_b  6PW^_((",
"rrehw,1<<<<<<,>*;O+5weeeeeeehyo  +4wrrrtrrehiOXCTY~EP_b  6PW/_((",
"tttyt,3<11<<<<>*&;4weeeyreepeo    +4wrrrrtrehe@VTY!EY_b  6UW/_((",
"ttth0<<<<,<<<<>$;4weeyyyeepio      O4wrrereety0VYY~WP`b  6YW/_((",
"tyrhw,<<<1<<<>&;4wyeeyyeepyo        +4wrtetetw0SYT~WY_b  6UW^_((",
"tyruw,<<<<<,>>>5wyeyyyeeheo          +4weerttw3AYYQWY_b  6UW/)((",
"tttpw,<<<,<>:>9wteeyeeepiX     X      +4wtrrtw4ATY~WY_v  6UW^)((",
"ytthw<<<<<>>>4wyeyyyeepeX      X       O4wtttw4AYY~EY_b  6UW()((",
"yythw<<<,>>>9wyweyyeypi&O%@@&&@$$&$&&&&@&4wtte4AYY~WP_b  7YW^_((",
"yytuw,<<>>>50eeeyyeepy<&;;>>>>>>:;;>;;:;&>4wyw3ATYQWY_n %vLW()((",
"tytpw,<>:,5qytryiwiii;;***;;;;;*;;;;;;;;&;:4ww4AYY!WP~RcBZYW/_()",
"yytpq,,:>4qtttywqiii,;,*;,>,>>>>>::,:>>;&,:,803ATY!QEY~EJPWW/_((",
"yytyq>;,5qytryyyiii1,,1;>,11<<<<<<<<<<<,;1<<143CTY~WQRYW!!WW/)((",
"tythq-,9qtyetyttpp11111;>,1,<<<<<<<<<<,>;<<<<<<SYYWUW!EYWQ!W/)((",
"ttth0:9qttttrteui1,1,<1;*****;;*-;*-;--&;<<<<<-MELEYE!!RT~WW/_()",
"ttiu08wteettwyhh2,1,1<1,>,,,,,,*;,>>>,,><<<<<<>2VTY!QQ!WY~WW/)/(",
"yttt90tttttethp3,1<<<1<111<1<<1;;1<1<1<<<<<<<<3=dTLE!Q!WY~!W/)()",
"yttq0tettttehy3,<<<<<<11<<<,<,1;:<<<<<<<<,<<<<<-sYLE!WQEI~WW/_/(",
"tttttttyyetpp3,3<1,1<<1,<<<,1<1-;1<<<<<<<<<<<<1-sTIE~WWWT!WW/)/)",
"tttttttyeepy3>,,,,,,,,,,><>>>><-;<<,,,,,,<,,<><=aYLE~WWWY!WW/)/)",
"tttttyyyehi>;:;;;:;;:;;;>>>>>>>$&>;;::::::;;;::#uTPE~W~WY~WW``/_",
"ytyyttyyuh8<1<<311111111<<<<<<1><111<<<<<1<<<<1;sYPE~WWWYW/FmI/)",
"tyttrtwuhqqqqwww5qwqq4q4i5i55qq5qqqqwwwwwwwwwwr3gYLEWWWWTW/CzD//",
"yyttrttyyttrttttiwiwiiiiiqiiiwiieeieeeeeererrry8jYLE/W~WYQ~DnP/)",
"yyytrtrtttrrrrrrwiiwi0iqi9qiqiiwiweieeeerrrrrey8jTLEWWWWYW~KnI/)",
"yyyyrtrytyrtttttiqiiqiiqiiiqiiwieieeieeitttrtey8jYLE/WWWY~Q!/`_/"
};
