/* XPM */
static char *result[] = {
/* columns rows colors chars-per-pixel */
"64 64 86 1 ",
"  c #000000",
". c #0B0805",
"X c #060709",
"o c #090A0E",
"O c #0C0D12",
"+ c #0F1016",
"@ c #0E1019",
"# c #101117",
"$ c #13141B",
"% c #1C1A18",
"& c #141621",
"* c #171922",
"= c #1A1C25",
"- c #1D1F29",
"; c #1F202B",
": c #21232E",
"> c #242632",
", c #262835",
"< c #2A2B36",
"1 c #262B3C",
"2 c #2A2D3C",
"3 c #2D303F",
"4 c #483F38",
"5 c #4E443C",
"6 c #2E3242",
"7 c #2F3448",
"8 c #313546",
"9 c #333748",
"0 c #373B4E",
"q c #383D4F",
"w c #373C50",
"e c #383D50",
"r c #413D41",
"t c #3C4156",
"y c #3E4359",
"u c #464449",
"i c #5B5047",
"p c #4F4E56",
"a c #40455C",
"s c #515059",
"d c #6E6B69",
"f c #7C7977",
"g c #7E7E7E",
"h c #807D7B",
"j c #958476",
"k c #868483",
"l c #8C8986",
"z c #9B9592",
"x c #A79383",
"c c #AB9E99",
"v c #AFA29C",
"b c #BFA896",
"n c #B0A29D",
"m c #AEA7A2",
"M c #B2A5A1",
"N c #B5A8A4",
"B c #B6AEA9",
"V c #BBB2AD",
"C c #BFB7B2",
"Z c #C0AA98",
"A c #C4B2A3",
"S c #C0B6AF",
"D c #C5BBB5",
"F c #CEBDB4",
"G c #CFC1B6",
"H c #C9C1BA",
"J c #D3C2B5",
"K c #D3C3BA",
"L c #D8C6BC",
"P c #D6C9BF",
"I c #DCC9BF",
"U c #D5CAC2",
"Y c #D9CCC4",
"T c #DBCFC8",
"R c #DED3CC",
"E c #E0D5CE",
"W c #E2D7D1",
"Q c #E2D8D1",
"! c #E6DFDA",
"~ c #E9E1DC",
"^ c #EDE5E1",
"/ c #EFE8E5",
"( c #F0E7E2",
") c #F3E9E3",
"_ c #F3EDEA",
"` c #F8EFEA",
/* pixels */
"^^^^)/~//~/~/~///^^^^^^/^^^^^^/^^^^^^^^/^^/^^^/^^^^^~)/~/~~)/)~/",
"^~~^~~/~~//~~/~~^^^^^^^^^^^^^^^^^^^^^^^^^^^^^^^^^^^^/~~/~/~~~~/~",
"_DDSH_//)/////_))//)////////)//)///////////)///)//////)~_)/CHCU`",
")lldl~~~~~~~~~~~!~!!!!~~~~!!!~!~!!~~~~!!~~!~!!!!!!^!~~~~~~~dhfz`",
"EVVmVERRRRRRRRRRRRRRRRRRRRERRRRRRERRRRRRRRRRRRRRRRTETERRRRTvBBCE",
"EWQQQRERRRRRRRRKJJJJJJJJKFJJJJJJJJJJFKJJJJJJJJJKFTEEEEEERRR~QQQR",
"EEREEEEERQRQRRKbj544444444444444444444444444444ixAEETEEERRRRRRRE",
"KKKKKKKKKKKPRQJj%                               3ZIEEJJKPPPKPKJP",
"TTTRTTTTRTRPJRTj                                .AWRKLTTTTRTTRTT",
"RWRREWRERRRQPKQHkggggggggggggggggggggggggggggggfz!WJYEEERRRRRRRR",
"RRRRRRRRRRRRQPKQ())))())))))))))(()))))))()))))_~EKUWEETRRTTRRRR",
"QWEWWWWWQQRRRQPJKKKFKKKGGKKGGKGKKKGKFKKFKKKKKFKFKKLEYEWER~R~RQQQ",
"YUYYYYYUYYRGGRRRTTTTTTTTTTTTTTTTTTTTTTRTTTTTTTTTTTRGFETUYYYYTPPY",
"FFFFFFFFGGKTTRQQWQQWQQQQWWWWWWWWWWWWWWQQWWWWWWQQWWERTLFFFFFFGGGG",
"KKKKKKKKKKJGKKKKKKUFKKKFFKKKKKKKKKKKKKFFKKKKKKKKKKKKFLLLJLKKKKJK",
"ssspu4uuuuvIKLKKLFLKLKLLULLKLKLKKLLKKLULKLKKKLKKKKKKYcrrruusssss",
"616,=@&*;$<zvnmnmNMMmMnvvvvvvvvvnnnnnnnncvNMMmMMNMMNc<O$**&,7661",
"wwe91=>,>,;;:,312211368+XO+Oo+O+OOOOOOOo#6761622221:$$:>,,>0ywww",
"0009>=:>>>>;>169978787t9o              X8e88889896,-*:>>>>>8y9w0",
"w009>=>>>>>>>,38t0t0t9tyy+            Xwawwwww0e96:=:>>:>>>8y0ww",
"e0091=>>>,>>>;;13t8tt9t8tt           X0aw00000092;*:,:,,>>>9y0ww",
"ee09>=:>>>>>>>;;12t88t8ttyto        Xwy0www00q92=$;>,::,>>:9ywe0",
"e009,=:>>>>;,,;;;2tt8tttt3ytO      X0y000w00w92-$;,,,,>,>,:8y0e0",
"t009,=>>>,;;$;$$$$,3t8t88ttytO    X0y000e0009<$O@$***:,:>>>8y0ew",
"0009>=;>>>;%;;;$;Oo29t9t9009ttX  Xwy000w00083Oo*$-;;$:,>>>:9a000",
"0009>;:>>,;;;>;;;+ o<7t9t09t3ttXXwy000e00q92+ O--:>:*:,>>,>9y0w0",
"00t9>;:>;>;$>>;;;$  o3908tt9tttt8yw0w000082+  #-=;>>=;>>>>>9a0e0",
"t009>;:>>>;;;;;$;$   o39t8tt3tttye0e000082+   #-=;>>$:>>>>>9y0e0",
"0008>;:,>,;$>>;;=+    O<6t8tt8t3000e00082+    #==;>>=:>>,>>9y000",
"00t8>=;:>,;;>>;;;+     +,3t98t8t00e0e092+     #;=->>$:>>>>:9y0q0",
"t009>;:>>>;$>>;$;#      O28ttt88eee0e82O      #==;>>*:,>,,:9a0e0",
"0008>$=;;;;$>>;;=+       o3t8ttt00ee02O       #==;>>*$-=--*8y0e0",
"e009:#$***$$>:-=;#       X0y0ee0e0e0e0o       #-=;>>$$=*=$$6aeee",
"e0e9<-><,<>=>>;=-#      X0y000e00ee00yeo      #==->>=:,,,<>0reew",
"e009,=:>>>:$>>;=-#     X0y0000w0000000yeO     #-=;>>*;>>>>;9ewew",
"e0e9,=:>>>;=>>;=-#    X0y000e0ee00eewwwyeo    #-=;>>=;>>>,>9awew",
"e0e9>-:>>>:=>>:=-#   X0y000000088e0w0000yeO   #;=;>>*;,>>>>9awww",
"e009>-:>>>:$:>;=-#  X0y0000e0e9<18000w000yeo  @==;>>*:>>>>:9awww",
"0t09,-:>>>:=:::--$ X0y00ee00q82Oo18w00w009yeo +==;>;=;,>>>:9e0ww",
"0009>-:>>>:$-:=$*OXey000e00092O  O2800w0000ytoX$$-;;$;,>>,:0a0ww",
"t0t8>%;,>>>=*=*$$$9y000eq0082O    o28ew0e000y0@++**-*>>>>,:9reew",
"0009>;;,>>>>>,:*:yy000e00q92+      o28e00e000tt;$->>>>>>>>>9aeew",
"0009>;>>>>>>>>--qa900e00e92O        O<9q000e00tt-$;>>>>>>,:9awew",
"t008>;;>>>>>>>:ey9qqe00092O          O<9000e000ye;*->>>>,>:9awew",
"ttt8>;;;>>>>:,ty000e00092+            o28e00ee00ra:=:>>>>>>9ewww",
"t8t8,;;>>>>>,ty000e0009<+              o17000ee0wae:*;>>>>:9awww",
"8tt6>;>>>>>,ty000000e86*o+++##++#+#+#O#O*280000ew7ay>=;>>>:9ewww",
"t8t8>;;>>>>ey000000e83=$$------=---=----=;29000qwwwye:*;>>:0awww",
"tt33,=:,:,tt8t8t00092-$$-=*===*=======%=-*;<8q00wwwwye:*:>:9a0qq",
"8ttt,=:,,tttt88t0w82:$*-;---;;;;-----;;--;;:3800wwww0yy:*:>9a9eq",
"tt66,-::ttt8t8t8w82:=:>>>>>>>>>>>>>>>>>>>>>>,38qwwww00ae:*:9y0e0",
"66tt,=:tyt8t8t8t82:-::>>>>>>>>>,>>>>,,>>>>>>>>38wwww000yy:$8y0e0",
"ttt3:-tt8t8tt8t8<>=->>>,>>233>123<>632>>>>>>>>>28w00eq00yy-8a000",
"t8t6<tttt8tt8t8<:-->>>>>>>233><33<,232>>>>>>>>>>28w00eq00ye0y0e0",
"8t88ttt88tt8t83:*;>>>>>,>>233><361,232>>>>>>>>>>,29w00ee00eae0q0",
"t8tttt8tt88t83:*;>>>>>>>>>233><63<,233>>>>>>>>>>>>29000e000yy0ee",
"00qt8qqqt8882:=:>>>>>>>>>>266,,63,>332>>>>,,>>,>>>,28w00we0we00e",
"0000qqqq8tt3:=::>>>>>>>>>>266,,66<>632>>,>>>>,>>>>>,28w00ewq00e0",
"0qqqqqqqt81-%=::::::::::;:121:,62,:22<;>::::::::>:::>2800eq0e0e0",
"qqqqqqqt32833t8899989999999ww99w0090w0998988999989999968000eee0e",
"00q0t8t83tttytttyyyyyyaeraayayeareaeraayayyyyaaaaeaayy08000e0qe0",
"qqq0t88qt8t8tt8t0000wwwwwwwwwwwwtwwwewww000000900000000000qe0eee",
"qqqq8tt88ttttttteewwwwwwwwwwewewwwwwwwwweeee00eeww0wee00000e0qee",
"qqqqt8tt8t8t88t80wwwwwwwwwwwwwwwwwwwwwww0q00000w0w00w0eqeee0eeee"
};
